G75*
%MOIN*%
%OFA0B0*%
%FSLAX25Y25*%
%IPPOS*%
%LPD*%
%AMOC8*
5,1,8,0,0,1.08239X$1,22.5*
%
%ADD10OC8,0.04800*%
%ADD11C,0.04800*%
%ADD12C,0.06299*%
%ADD13C,0.01000*%
%ADD14C,0.00500*%
D10*
X0014000Y0106250D03*
X0014000Y0116250D03*
X0014000Y0186250D03*
X0024000Y0186250D03*
X0039000Y0236250D03*
X0039000Y0246250D03*
X0039000Y0256250D03*
X0044000Y0216250D03*
X0044000Y0206250D03*
X0044000Y0186250D03*
X0054000Y0186250D03*
X0054000Y0206250D03*
X0054000Y0216250D03*
X0059000Y0236250D03*
X0059000Y0246250D03*
X0059000Y0256250D03*
X0074000Y0186250D03*
X0084000Y0186250D03*
X0084000Y0081250D03*
X0074000Y0081250D03*
X0064000Y0081250D03*
X0064000Y0031250D03*
X0044000Y0031250D03*
X0044000Y0081250D03*
D11*
X0044200Y0071250D02*
X0049000Y0071250D01*
X0049000Y0061250D02*
X0044200Y0061250D01*
X0044200Y0051250D02*
X0049000Y0051250D01*
X0049000Y0041250D02*
X0044200Y0041250D01*
X0041400Y0021250D02*
X0036600Y0021250D01*
X0034000Y0093850D02*
X0034000Y0098650D01*
X0034000Y0123850D02*
X0034000Y0128650D01*
X0034000Y0138850D02*
X0034000Y0143650D01*
X0034000Y0168850D02*
X0034000Y0173650D01*
X0024000Y0173650D02*
X0024000Y0168850D01*
X0024000Y0143650D02*
X0024000Y0138850D01*
X0024000Y0128650D02*
X0024000Y0123850D01*
X0024000Y0098650D02*
X0024000Y0093850D01*
X0014000Y0138850D02*
X0014000Y0143650D01*
X0014000Y0168850D02*
X0014000Y0173650D01*
X0044000Y0173650D02*
X0044000Y0168850D01*
X0044000Y0143650D02*
X0044000Y0138850D01*
X0044000Y0128650D02*
X0044000Y0123850D01*
X0044000Y0098650D02*
X0044000Y0093850D01*
X0054000Y0093850D02*
X0054000Y0098650D01*
X0054000Y0123850D02*
X0054000Y0128650D01*
X0054000Y0138850D02*
X0054000Y0143650D01*
X0054000Y0168850D02*
X0054000Y0173650D01*
X0064000Y0173650D02*
X0064000Y0168850D01*
X0064000Y0143650D02*
X0064000Y0138850D01*
X0064000Y0128650D02*
X0064000Y0123850D01*
X0064000Y0098650D02*
X0064000Y0093850D01*
X0074000Y0093850D02*
X0074000Y0098650D01*
X0074000Y0123850D02*
X0074000Y0128650D01*
X0074000Y0138850D02*
X0074000Y0143650D01*
X0074000Y0168850D02*
X0074000Y0173650D01*
X0084000Y0173650D02*
X0084000Y0168850D01*
X0084000Y0143650D02*
X0084000Y0138850D01*
X0084000Y0128650D02*
X0084000Y0123850D01*
X0084000Y0098650D02*
X0084000Y0093850D01*
X0083800Y0071250D02*
X0079000Y0071250D01*
X0079000Y0061250D02*
X0083800Y0061250D01*
X0083800Y0051250D02*
X0079000Y0051250D01*
X0079000Y0041250D02*
X0083800Y0041250D01*
X0071400Y0021250D02*
X0066600Y0021250D01*
D12*
X0027622Y0032746D03*
X0027622Y0040620D03*
X0027622Y0056368D03*
X0027622Y0064242D03*
X0027622Y0072116D03*
X0027622Y0079990D03*
X0027622Y0213848D03*
X0027622Y0221722D03*
X0027622Y0229596D03*
X0027622Y0245344D03*
X0027622Y0253219D03*
X0070929Y0253219D03*
X0070929Y0245344D03*
X0070929Y0237470D03*
X0070929Y0221722D03*
X0070929Y0213848D03*
D13*
X0071000Y0213250D01*
X0071000Y0205250D01*
X0088000Y0188250D01*
X0088000Y0091250D01*
X0078000Y0081250D01*
X0078000Y0078250D01*
X0050000Y0050250D01*
X0049000Y0051250D01*
X0050000Y0050250D01*
X0065000Y0035250D01*
X0066000Y0035250D01*
X0069000Y0032250D01*
X0069000Y0021250D01*
X0079000Y0061250D02*
X0085000Y0067250D01*
X0086000Y0067250D01*
X0088000Y0069250D01*
X0088000Y0077250D01*
X0084000Y0081250D01*
X0074000Y0086250D02*
X0084000Y0096250D01*
X0074000Y0086250D02*
X0074000Y0081250D01*
X0074000Y0086250D02*
X0064000Y0096250D01*
X0064000Y0118250D01*
X0072000Y0126250D01*
X0074000Y0126250D01*
X0072000Y0126250D01*
X0065000Y0133250D01*
X0068000Y0136250D01*
X0068000Y0143250D01*
X0084000Y0159250D01*
X0084000Y0171250D01*
X0084000Y0176250D01*
X0074000Y0186250D01*
X0074000Y0175250D02*
X0047000Y0202250D01*
X0039000Y0202250D01*
X0028000Y0213250D01*
X0027622Y0213848D01*
X0028000Y0214250D01*
X0039000Y0225250D01*
X0039000Y0236250D01*
X0041000Y0242250D02*
X0031000Y0242250D01*
X0028000Y0245250D01*
X0027622Y0245344D01*
X0027000Y0245250D01*
X0022000Y0240250D01*
X0022000Y0212250D01*
X0034000Y0200250D01*
X0034000Y0171250D01*
X0024000Y0180250D02*
X0028000Y0184250D01*
X0028000Y0203250D01*
X0020000Y0211250D01*
X0020000Y0245250D01*
X0027000Y0252250D01*
X0027622Y0253219D01*
X0028000Y0252250D01*
X0034000Y0246250D01*
X0039000Y0246250D01*
X0041000Y0242250D02*
X0045000Y0246250D01*
X0059000Y0246250D01*
X0057000Y0252250D02*
X0070000Y0252250D01*
X0070929Y0253219D01*
X0070929Y0245344D02*
X0070000Y0245250D01*
X0070000Y0243250D01*
X0063000Y0236250D01*
X0063000Y0234250D01*
X0045000Y0216250D01*
X0044000Y0216250D01*
X0044000Y0206250D02*
X0048000Y0206250D01*
X0054000Y0212250D01*
X0061000Y0212250D01*
X0070000Y0221250D01*
X0070929Y0221722D01*
X0056000Y0190250D02*
X0058000Y0188250D01*
X0058000Y0153250D01*
X0050000Y0145250D01*
X0050000Y0076250D01*
X0053000Y0073250D01*
X0053000Y0065250D01*
X0049000Y0061250D01*
X0048000Y0061250D01*
X0039000Y0052250D01*
X0039000Y0021250D01*
X0027622Y0040620D02*
X0027000Y0041250D01*
X0027000Y0050250D01*
X0022000Y0055250D01*
X0022000Y0058250D01*
X0027000Y0063250D01*
X0027622Y0064242D01*
X0027000Y0064250D01*
X0014000Y0077250D01*
X0014000Y0106250D01*
X0034000Y0126250D01*
X0034000Y0141250D01*
X0044000Y0141250D01*
X0044000Y0171250D01*
X0048000Y0180250D02*
X0054000Y0186250D01*
X0056000Y0190250D02*
X0052000Y0190250D01*
X0048000Y0186250D01*
X0044000Y0186250D01*
X0048000Y0180250D02*
X0048000Y0122250D01*
X0034000Y0108250D01*
X0034000Y0096250D01*
X0033000Y0089250D02*
X0037000Y0089250D01*
X0044000Y0096250D01*
X0044000Y0081250D02*
X0037000Y0081250D01*
X0028000Y0072250D01*
X0027622Y0072116D01*
X0033000Y0089250D02*
X0026000Y0096250D01*
X0024000Y0096250D01*
X0014000Y0116250D02*
X0024000Y0126250D01*
X0024000Y0133250D01*
X0018000Y0139250D01*
X0018000Y0167250D01*
X0014000Y0171250D01*
X0014000Y0176250D01*
X0024000Y0186250D01*
X0024000Y0180250D02*
X0024000Y0171250D01*
X0024000Y0141250D02*
X0034000Y0141250D01*
X0054000Y0126250D02*
X0061000Y0133250D01*
X0065000Y0133250D01*
X0054000Y0096250D02*
X0054000Y0091250D01*
X0064000Y0081250D01*
X0074000Y0171250D02*
X0074000Y0175250D01*
X0057000Y0252250D02*
X0053000Y0256250D01*
X0039000Y0256250D01*
D14*
X0006218Y0282496D02*
X0006218Y0003468D01*
X0092333Y0003468D01*
X0092333Y0282496D01*
X0006218Y0282496D01*
X0006218Y0282410D02*
X0092333Y0282410D01*
X0092333Y0281912D02*
X0006218Y0281912D01*
X0006218Y0281413D02*
X0014098Y0281413D01*
X0014117Y0281421D02*
X0010986Y0280125D01*
X0008590Y0277728D01*
X0007293Y0274598D01*
X0007293Y0271209D01*
X0008590Y0268079D01*
X0010986Y0265683D01*
X0014117Y0264386D01*
X0017505Y0264386D01*
X0020636Y0265683D01*
X0023032Y0268079D01*
X0024329Y0271209D01*
X0024329Y0274598D01*
X0023032Y0277728D01*
X0020636Y0280125D01*
X0017505Y0281421D01*
X0014117Y0281421D01*
X0012894Y0280915D02*
X0006218Y0280915D01*
X0006218Y0280416D02*
X0011691Y0280416D01*
X0010779Y0279918D02*
X0006218Y0279918D01*
X0006218Y0279419D02*
X0010281Y0279419D01*
X0009782Y0278921D02*
X0006218Y0278921D01*
X0006218Y0278422D02*
X0009284Y0278422D01*
X0008785Y0277924D02*
X0006218Y0277924D01*
X0006218Y0277425D02*
X0008464Y0277425D01*
X0008258Y0276927D02*
X0006218Y0276927D01*
X0006218Y0276428D02*
X0008052Y0276428D01*
X0007845Y0275930D02*
X0006218Y0275930D01*
X0006218Y0275431D02*
X0007639Y0275431D01*
X0007432Y0274933D02*
X0006218Y0274933D01*
X0006218Y0274434D02*
X0007293Y0274434D01*
X0007293Y0273936D02*
X0006218Y0273936D01*
X0006218Y0273437D02*
X0007293Y0273437D01*
X0007293Y0272939D02*
X0006218Y0272939D01*
X0006218Y0272440D02*
X0007293Y0272440D01*
X0007293Y0271942D02*
X0006218Y0271942D01*
X0006218Y0271443D02*
X0007293Y0271443D01*
X0007403Y0270945D02*
X0006218Y0270945D01*
X0006218Y0270446D02*
X0007609Y0270446D01*
X0007816Y0269948D02*
X0006218Y0269948D01*
X0006218Y0269449D02*
X0008022Y0269449D01*
X0008229Y0268951D02*
X0006218Y0268951D01*
X0006218Y0268452D02*
X0008435Y0268452D01*
X0008715Y0267954D02*
X0006218Y0267954D01*
X0006218Y0267455D02*
X0009214Y0267455D01*
X0009712Y0266957D02*
X0006218Y0266957D01*
X0006218Y0266458D02*
X0010211Y0266458D01*
X0010709Y0265960D02*
X0006218Y0265960D01*
X0006218Y0265461D02*
X0011521Y0265461D01*
X0012725Y0264962D02*
X0006218Y0264962D01*
X0006218Y0264464D02*
X0013928Y0264464D01*
X0017694Y0264464D02*
X0080857Y0264464D01*
X0081046Y0264386D02*
X0084434Y0264386D01*
X0087565Y0265683D01*
X0089961Y0268079D01*
X0091258Y0271209D01*
X0091258Y0274598D01*
X0089961Y0277728D01*
X0087565Y0280125D01*
X0084434Y0281421D01*
X0081046Y0281421D01*
X0077915Y0280125D01*
X0075519Y0277728D01*
X0074222Y0274598D01*
X0074222Y0271209D01*
X0075519Y0268079D01*
X0077915Y0265683D01*
X0081046Y0264386D01*
X0079654Y0264962D02*
X0018897Y0264962D01*
X0020101Y0265461D02*
X0078450Y0265461D01*
X0077638Y0265960D02*
X0020913Y0265960D01*
X0021411Y0266458D02*
X0077140Y0266458D01*
X0076641Y0266957D02*
X0021910Y0266957D01*
X0022408Y0267455D02*
X0076143Y0267455D01*
X0075644Y0267954D02*
X0022907Y0267954D01*
X0023187Y0268452D02*
X0075364Y0268452D01*
X0075158Y0268951D02*
X0023393Y0268951D01*
X0023600Y0269449D02*
X0074952Y0269449D01*
X0074745Y0269948D02*
X0023806Y0269948D01*
X0024013Y0270446D02*
X0074539Y0270446D01*
X0074332Y0270945D02*
X0024219Y0270945D01*
X0024329Y0271443D02*
X0074222Y0271443D01*
X0074222Y0271942D02*
X0024329Y0271942D01*
X0024329Y0272440D02*
X0074222Y0272440D01*
X0074222Y0272939D02*
X0024329Y0272939D01*
X0024329Y0273437D02*
X0074222Y0273437D01*
X0074222Y0273936D02*
X0024329Y0273936D01*
X0024329Y0274434D02*
X0074222Y0274434D01*
X0074361Y0274933D02*
X0024190Y0274933D01*
X0023984Y0275431D02*
X0074568Y0275431D01*
X0074774Y0275930D02*
X0023777Y0275930D01*
X0023571Y0276428D02*
X0074981Y0276428D01*
X0075187Y0276927D02*
X0023364Y0276927D01*
X0023158Y0277425D02*
X0075394Y0277425D01*
X0075715Y0277924D02*
X0022837Y0277924D01*
X0022338Y0278422D02*
X0076213Y0278422D01*
X0076712Y0278921D02*
X0021840Y0278921D01*
X0021341Y0279419D02*
X0077210Y0279419D01*
X0077709Y0279918D02*
X0020843Y0279918D01*
X0019931Y0280416D02*
X0078620Y0280416D01*
X0079823Y0280915D02*
X0018728Y0280915D01*
X0017524Y0281413D02*
X0081027Y0281413D01*
X0084453Y0281413D02*
X0092333Y0281413D01*
X0092333Y0280915D02*
X0085657Y0280915D01*
X0086861Y0280416D02*
X0092333Y0280416D01*
X0092333Y0279918D02*
X0087772Y0279918D01*
X0088270Y0279419D02*
X0092333Y0279419D01*
X0092333Y0278921D02*
X0088769Y0278921D01*
X0089267Y0278422D02*
X0092333Y0278422D01*
X0092333Y0277924D02*
X0089766Y0277924D01*
X0090087Y0277425D02*
X0092333Y0277425D01*
X0092333Y0276927D02*
X0090293Y0276927D01*
X0090500Y0276428D02*
X0092333Y0276428D01*
X0092333Y0275930D02*
X0090706Y0275930D01*
X0090913Y0275431D02*
X0092333Y0275431D01*
X0092333Y0274933D02*
X0091119Y0274933D01*
X0091258Y0274434D02*
X0092333Y0274434D01*
X0092333Y0273936D02*
X0091258Y0273936D01*
X0091258Y0273437D02*
X0092333Y0273437D01*
X0092333Y0272939D02*
X0091258Y0272939D01*
X0091258Y0272440D02*
X0092333Y0272440D01*
X0092333Y0271942D02*
X0091258Y0271942D01*
X0091258Y0271443D02*
X0092333Y0271443D01*
X0092333Y0270945D02*
X0091148Y0270945D01*
X0090942Y0270446D02*
X0092333Y0270446D01*
X0092333Y0269948D02*
X0090735Y0269948D01*
X0090529Y0269449D02*
X0092333Y0269449D01*
X0092333Y0268951D02*
X0090322Y0268951D01*
X0090116Y0268452D02*
X0092333Y0268452D01*
X0092333Y0267954D02*
X0089836Y0267954D01*
X0089338Y0267455D02*
X0092333Y0267455D01*
X0092333Y0266957D02*
X0088839Y0266957D01*
X0088341Y0266458D02*
X0092333Y0266458D01*
X0092333Y0265960D02*
X0087842Y0265960D01*
X0087030Y0265461D02*
X0092333Y0265461D01*
X0092333Y0264962D02*
X0085827Y0264962D01*
X0084623Y0264464D02*
X0092333Y0264464D01*
X0092333Y0263965D02*
X0006218Y0263965D01*
X0006218Y0263467D02*
X0092333Y0263467D01*
X0092333Y0262968D02*
X0006218Y0262968D01*
X0006218Y0262470D02*
X0092333Y0262470D01*
X0092333Y0261971D02*
X0006218Y0261971D01*
X0006218Y0261473D02*
X0092333Y0261473D01*
X0092333Y0260974D02*
X0006218Y0260974D01*
X0006218Y0260476D02*
X0092333Y0260476D01*
X0092333Y0259977D02*
X0006218Y0259977D01*
X0006218Y0259479D02*
X0037067Y0259479D01*
X0037488Y0259900D02*
X0035350Y0257762D01*
X0035350Y0254738D01*
X0037488Y0252600D01*
X0040512Y0252600D01*
X0042412Y0254500D01*
X0052275Y0254500D01*
X0055250Y0251525D01*
X0056275Y0250500D01*
X0067426Y0250500D01*
X0068437Y0249489D01*
X0068953Y0249275D01*
X0068623Y0249107D01*
X0068063Y0248700D01*
X0067573Y0248211D01*
X0067166Y0247650D01*
X0066852Y0247033D01*
X0066638Y0246375D01*
X0066530Y0245691D01*
X0066530Y0245594D01*
X0070679Y0245594D01*
X0070679Y0245094D01*
X0066530Y0245094D01*
X0066530Y0244998D01*
X0066638Y0244314D01*
X0066852Y0243656D01*
X0067166Y0243039D01*
X0067573Y0242478D01*
X0068063Y0241989D01*
X0068623Y0241582D01*
X0068953Y0241414D01*
X0068437Y0241200D01*
X0067199Y0239963D01*
X0066530Y0238346D01*
X0066530Y0236595D01*
X0067199Y0234978D01*
X0068437Y0233741D01*
X0070054Y0233071D01*
X0071804Y0233071D01*
X0073421Y0233741D01*
X0074659Y0234978D01*
X0075329Y0236595D01*
X0075329Y0238346D01*
X0074659Y0239963D01*
X0073421Y0241200D01*
X0072906Y0241414D01*
X0073235Y0241582D01*
X0073795Y0241989D01*
X0074285Y0242478D01*
X0074692Y0243039D01*
X0075006Y0243656D01*
X0075220Y0244314D01*
X0075329Y0244998D01*
X0075329Y0245094D01*
X0071179Y0245094D01*
X0071179Y0245594D01*
X0075329Y0245594D01*
X0075329Y0245691D01*
X0075220Y0246375D01*
X0075006Y0247033D01*
X0074692Y0247650D01*
X0074285Y0248211D01*
X0073795Y0248700D01*
X0073235Y0249107D01*
X0072906Y0249275D01*
X0073421Y0249489D01*
X0074659Y0250726D01*
X0075329Y0252343D01*
X0075329Y0254094D01*
X0074659Y0255711D01*
X0073421Y0256948D01*
X0071804Y0257618D01*
X0070054Y0257618D01*
X0068437Y0256948D01*
X0067199Y0255711D01*
X0066530Y0254094D01*
X0066530Y0254000D01*
X0061912Y0254000D01*
X0062650Y0254738D01*
X0062650Y0257762D01*
X0060512Y0259900D01*
X0057488Y0259900D01*
X0055350Y0257762D01*
X0055350Y0256375D01*
X0053725Y0258000D01*
X0042412Y0258000D01*
X0040512Y0259900D01*
X0037488Y0259900D01*
X0036568Y0258980D02*
X0006218Y0258980D01*
X0006218Y0258482D02*
X0036070Y0258482D01*
X0035571Y0257983D02*
X0006218Y0257983D01*
X0006218Y0257485D02*
X0026425Y0257485D01*
X0026747Y0257618D02*
X0025130Y0256948D01*
X0023892Y0255711D01*
X0023222Y0254094D01*
X0023222Y0252343D01*
X0023631Y0251356D01*
X0018250Y0245975D01*
X0018250Y0210525D01*
X0019275Y0209500D01*
X0026250Y0202525D01*
X0026250Y0189162D01*
X0025512Y0189900D01*
X0022488Y0189900D01*
X0020350Y0187762D01*
X0020350Y0185075D01*
X0012250Y0176975D01*
X0012250Y0176876D01*
X0011932Y0176744D01*
X0010906Y0175718D01*
X0010350Y0174376D01*
X0010350Y0168124D01*
X0010906Y0166782D01*
X0011932Y0165756D01*
X0013274Y0165200D01*
X0014726Y0165200D01*
X0016068Y0165756D01*
X0016250Y0165938D01*
X0016250Y0146562D01*
X0016068Y0146744D01*
X0014726Y0147300D01*
X0013274Y0147300D01*
X0011932Y0146744D01*
X0010906Y0145718D01*
X0010350Y0144376D01*
X0010350Y0138124D01*
X0010906Y0136782D01*
X0011932Y0135756D01*
X0013274Y0135200D01*
X0014726Y0135200D01*
X0016068Y0135756D01*
X0017094Y0136782D01*
X0017357Y0137418D01*
X0022250Y0132525D01*
X0022250Y0131876D01*
X0021932Y0131744D01*
X0020906Y0130718D01*
X0020350Y0129376D01*
X0020350Y0125075D01*
X0015175Y0119900D01*
X0012488Y0119900D01*
X0010350Y0117762D01*
X0010350Y0114738D01*
X0012488Y0112600D01*
X0015512Y0112600D01*
X0017650Y0114738D01*
X0017650Y0117425D01*
X0021456Y0121232D01*
X0021932Y0120756D01*
X0023274Y0120200D01*
X0024726Y0120200D01*
X0026068Y0120756D01*
X0027094Y0121782D01*
X0027650Y0123124D01*
X0027650Y0129376D01*
X0027094Y0130718D01*
X0026068Y0131744D01*
X0025750Y0131876D01*
X0025750Y0133975D01*
X0024497Y0135227D01*
X0025065Y0135340D01*
X0025729Y0135615D01*
X0026327Y0136015D01*
X0026835Y0136523D01*
X0027235Y0137121D01*
X0027510Y0137785D01*
X0027650Y0138490D01*
X0027650Y0141000D01*
X0024250Y0141000D01*
X0024250Y0141500D01*
X0023750Y0141500D01*
X0023750Y0147300D01*
X0023640Y0147300D01*
X0022935Y0147160D01*
X0022271Y0146885D01*
X0021673Y0146485D01*
X0021165Y0145977D01*
X0020765Y0145379D01*
X0020490Y0144715D01*
X0020350Y0144009D01*
X0020350Y0141500D01*
X0023750Y0141500D01*
X0023750Y0141000D01*
X0020350Y0141000D01*
X0020350Y0139375D01*
X0019750Y0139975D01*
X0019750Y0167975D01*
X0017650Y0170075D01*
X0017650Y0174376D01*
X0017094Y0175718D01*
X0016518Y0176294D01*
X0022825Y0182600D01*
X0023875Y0182600D01*
X0022250Y0180975D01*
X0022250Y0176876D01*
X0021932Y0176744D01*
X0020906Y0175718D01*
X0020350Y0174376D01*
X0020350Y0168124D01*
X0020906Y0166782D01*
X0021932Y0165756D01*
X0023274Y0165200D01*
X0024726Y0165200D01*
X0026068Y0165756D01*
X0027094Y0166782D01*
X0027650Y0168124D01*
X0027650Y0174376D01*
X0027094Y0175718D01*
X0026068Y0176744D01*
X0025750Y0176876D01*
X0025750Y0179525D01*
X0028725Y0182500D01*
X0029750Y0183525D01*
X0029750Y0202025D01*
X0032250Y0199525D01*
X0032250Y0176876D01*
X0031932Y0176744D01*
X0030906Y0175718D01*
X0030350Y0174376D01*
X0030350Y0168124D01*
X0030906Y0166782D01*
X0031932Y0165756D01*
X0033274Y0165200D01*
X0034726Y0165200D01*
X0036068Y0165756D01*
X0037094Y0166782D01*
X0037650Y0168124D01*
X0037650Y0174376D01*
X0037094Y0175718D01*
X0036068Y0176744D01*
X0035750Y0176876D01*
X0035750Y0200975D01*
X0027276Y0209449D01*
X0028497Y0209449D01*
X0029083Y0209692D01*
X0038275Y0200500D01*
X0046275Y0200500D01*
X0054775Y0192000D01*
X0051275Y0192000D01*
X0050250Y0190975D01*
X0047344Y0188068D01*
X0045512Y0189900D01*
X0042488Y0189900D01*
X0040350Y0187762D01*
X0040350Y0184738D01*
X0042488Y0182600D01*
X0045512Y0182600D01*
X0047412Y0184500D01*
X0048725Y0184500D01*
X0050350Y0186125D01*
X0050350Y0185075D01*
X0046250Y0180975D01*
X0046250Y0176536D01*
X0045729Y0176885D01*
X0045065Y0177160D01*
X0044359Y0177300D01*
X0044250Y0177300D01*
X0044250Y0171500D01*
X0043750Y0171500D01*
X0043750Y0177300D01*
X0043640Y0177300D01*
X0042935Y0177160D01*
X0042271Y0176885D01*
X0041673Y0176485D01*
X0041165Y0175977D01*
X0040765Y0175379D01*
X0040490Y0174715D01*
X0040350Y0174009D01*
X0040350Y0171500D01*
X0043750Y0171500D01*
X0043750Y0171000D01*
X0044250Y0171000D01*
X0044250Y0165200D01*
X0044359Y0165200D01*
X0045065Y0165340D01*
X0045729Y0165615D01*
X0046250Y0165964D01*
X0046250Y0146536D01*
X0045729Y0146885D01*
X0045065Y0147160D01*
X0044359Y0147300D01*
X0044250Y0147300D01*
X0044250Y0141500D01*
X0043750Y0141500D01*
X0043750Y0147300D01*
X0043640Y0147300D01*
X0042935Y0147160D01*
X0042271Y0146885D01*
X0041673Y0146485D01*
X0041165Y0145977D01*
X0040765Y0145379D01*
X0040490Y0144715D01*
X0040350Y0144009D01*
X0040350Y0141500D01*
X0043750Y0141500D01*
X0043750Y0141000D01*
X0044250Y0141000D01*
X0044250Y0135200D01*
X0044359Y0135200D01*
X0045065Y0135340D01*
X0045729Y0135615D01*
X0046250Y0135964D01*
X0046250Y0131562D01*
X0046068Y0131744D01*
X0044726Y0132300D01*
X0043274Y0132300D01*
X0041932Y0131744D01*
X0040906Y0130718D01*
X0040350Y0129376D01*
X0040350Y0123124D01*
X0040906Y0121782D01*
X0041932Y0120756D01*
X0043274Y0120200D01*
X0043475Y0120200D01*
X0032250Y0108975D01*
X0032250Y0101876D01*
X0031932Y0101744D01*
X0030906Y0100718D01*
X0030350Y0099376D01*
X0030350Y0094375D01*
X0027650Y0097075D01*
X0027650Y0099376D01*
X0027094Y0100718D01*
X0026068Y0101744D01*
X0024726Y0102300D01*
X0023274Y0102300D01*
X0021932Y0101744D01*
X0020906Y0100718D01*
X0020350Y0099376D01*
X0020350Y0093124D01*
X0020906Y0091782D01*
X0021932Y0090756D01*
X0023274Y0090200D01*
X0024726Y0090200D01*
X0026068Y0090756D01*
X0027094Y0091782D01*
X0027357Y0092418D01*
X0031250Y0088525D01*
X0032275Y0087500D01*
X0037725Y0087500D01*
X0041456Y0091232D01*
X0041932Y0090756D01*
X0043274Y0090200D01*
X0044726Y0090200D01*
X0046068Y0090756D01*
X0047094Y0091782D01*
X0047650Y0093124D01*
X0047650Y0099376D01*
X0047094Y0100718D01*
X0046068Y0101744D01*
X0044726Y0102300D01*
X0043274Y0102300D01*
X0041932Y0101744D01*
X0040906Y0100718D01*
X0040350Y0099376D01*
X0040350Y0095075D01*
X0037120Y0091845D01*
X0037650Y0093124D01*
X0037650Y0099376D01*
X0037094Y0100718D01*
X0036068Y0101744D01*
X0035750Y0101876D01*
X0035750Y0107525D01*
X0048250Y0120025D01*
X0048250Y0075525D01*
X0048875Y0074900D01*
X0043474Y0074900D01*
X0042132Y0074344D01*
X0041106Y0073318D01*
X0040550Y0071976D01*
X0040550Y0070524D01*
X0041106Y0069182D01*
X0042132Y0068156D01*
X0043474Y0067600D01*
X0049726Y0067600D01*
X0051068Y0068156D01*
X0051250Y0068338D01*
X0051250Y0065975D01*
X0050044Y0064768D01*
X0049726Y0064900D01*
X0043474Y0064900D01*
X0042132Y0064344D01*
X0041106Y0063318D01*
X0040550Y0061976D01*
X0040550Y0060524D01*
X0041106Y0059182D01*
X0042132Y0058156D01*
X0042343Y0058068D01*
X0037250Y0052975D01*
X0037250Y0024900D01*
X0035874Y0024900D01*
X0034532Y0024344D01*
X0033506Y0023318D01*
X0032950Y0021976D01*
X0032950Y0020524D01*
X0033506Y0019182D01*
X0034532Y0018156D01*
X0035874Y0017600D01*
X0042126Y0017600D01*
X0043468Y0018156D01*
X0044494Y0019182D01*
X0045050Y0020524D01*
X0045050Y0021976D01*
X0044494Y0023318D01*
X0043468Y0024344D01*
X0042126Y0024900D01*
X0040750Y0024900D01*
X0040750Y0029338D01*
X0042488Y0027600D01*
X0045512Y0027600D01*
X0047650Y0029738D01*
X0047650Y0032762D01*
X0045512Y0034900D01*
X0042488Y0034900D01*
X0040750Y0033162D01*
X0040750Y0040041D01*
X0041106Y0039182D01*
X0042132Y0038156D01*
X0043474Y0037600D01*
X0049726Y0037600D01*
X0051068Y0038156D01*
X0052094Y0039182D01*
X0052650Y0040524D01*
X0052650Y0041976D01*
X0052094Y0043318D01*
X0051068Y0044344D01*
X0049726Y0044900D01*
X0043474Y0044900D01*
X0042132Y0044344D01*
X0041106Y0043318D01*
X0040750Y0042459D01*
X0040750Y0050041D01*
X0041106Y0049182D01*
X0042132Y0048156D01*
X0043474Y0047600D01*
X0049726Y0047600D01*
X0050044Y0047732D01*
X0062875Y0034900D01*
X0062488Y0034900D01*
X0060350Y0032762D01*
X0060350Y0029738D01*
X0062488Y0027600D01*
X0065512Y0027600D01*
X0067250Y0029338D01*
X0067250Y0024900D01*
X0065874Y0024900D01*
X0064532Y0024344D01*
X0063506Y0023318D01*
X0062950Y0021976D01*
X0062950Y0020524D01*
X0063506Y0019182D01*
X0064532Y0018156D01*
X0065874Y0017600D01*
X0072126Y0017600D01*
X0073468Y0018156D01*
X0074494Y0019182D01*
X0075050Y0020524D01*
X0075050Y0021976D01*
X0074494Y0023318D01*
X0073468Y0024344D01*
X0072126Y0024900D01*
X0070750Y0024900D01*
X0070750Y0032975D01*
X0069725Y0034000D01*
X0066725Y0037000D01*
X0065725Y0037000D01*
X0052518Y0050206D01*
X0052580Y0050355D01*
X0079750Y0077525D01*
X0079750Y0080525D01*
X0080350Y0081125D01*
X0080350Y0079738D01*
X0082488Y0077600D01*
X0085175Y0077600D01*
X0086250Y0076525D01*
X0086250Y0073962D01*
X0085868Y0074344D01*
X0084526Y0074900D01*
X0078274Y0074900D01*
X0076932Y0074344D01*
X0075906Y0073318D01*
X0075350Y0071976D01*
X0075350Y0070524D01*
X0075906Y0069182D01*
X0076932Y0068156D01*
X0078274Y0067600D01*
X0082875Y0067600D01*
X0080175Y0064900D01*
X0078274Y0064900D01*
X0076932Y0064344D01*
X0075906Y0063318D01*
X0075350Y0061976D01*
X0075350Y0060524D01*
X0075906Y0059182D01*
X0076932Y0058156D01*
X0078274Y0057600D01*
X0084526Y0057600D01*
X0085868Y0058156D01*
X0086894Y0059182D01*
X0087450Y0060524D01*
X0087450Y0061976D01*
X0086894Y0063318D01*
X0085868Y0064344D01*
X0084949Y0064725D01*
X0085725Y0065500D01*
X0086725Y0065500D01*
X0088725Y0067500D01*
X0089750Y0068525D01*
X0089750Y0077975D01*
X0087650Y0080075D01*
X0087650Y0082762D01*
X0085512Y0084900D01*
X0084125Y0084900D01*
X0089750Y0090525D01*
X0089750Y0188975D01*
X0088725Y0190000D01*
X0072750Y0205975D01*
X0072750Y0209841D01*
X0073421Y0210119D01*
X0074659Y0211356D01*
X0075329Y0212973D01*
X0075329Y0214724D01*
X0074659Y0216341D01*
X0073421Y0217578D01*
X0072921Y0217785D01*
X0073421Y0217993D01*
X0074659Y0219230D01*
X0075329Y0220847D01*
X0075329Y0222598D01*
X0074659Y0224215D01*
X0073421Y0225452D01*
X0071804Y0226122D01*
X0070054Y0226122D01*
X0068437Y0225452D01*
X0067199Y0224215D01*
X0066530Y0222598D01*
X0066530Y0220847D01*
X0066703Y0220428D01*
X0060275Y0214000D01*
X0056912Y0214000D01*
X0057650Y0214738D01*
X0057650Y0217762D01*
X0055512Y0219900D01*
X0052488Y0219900D01*
X0050350Y0217762D01*
X0050350Y0214738D01*
X0052182Y0212906D01*
X0047343Y0208068D01*
X0045512Y0209900D01*
X0042488Y0209900D01*
X0040350Y0207762D01*
X0040350Y0204738D01*
X0041088Y0204000D01*
X0039725Y0204000D01*
X0031650Y0212075D01*
X0032022Y0212973D01*
X0032022Y0214724D01*
X0031707Y0215482D01*
X0040750Y0224525D01*
X0040750Y0232838D01*
X0042650Y0234738D01*
X0042650Y0237762D01*
X0040512Y0239900D01*
X0037488Y0239900D01*
X0035350Y0237762D01*
X0035350Y0234738D01*
X0037250Y0232838D01*
X0037250Y0225975D01*
X0031887Y0220612D01*
X0031913Y0220692D01*
X0032022Y0221376D01*
X0032022Y0221472D01*
X0027872Y0221472D01*
X0027872Y0221972D01*
X0032022Y0221972D01*
X0032022Y0222069D01*
X0031913Y0222753D01*
X0031699Y0223411D01*
X0031385Y0224028D01*
X0030978Y0224589D01*
X0030488Y0225078D01*
X0029928Y0225485D01*
X0029599Y0225653D01*
X0030114Y0225867D01*
X0031352Y0227104D01*
X0032022Y0228721D01*
X0032022Y0230472D01*
X0031352Y0232089D01*
X0030114Y0233326D01*
X0028497Y0233996D01*
X0026747Y0233996D01*
X0025130Y0233326D01*
X0023892Y0232089D01*
X0023750Y0231745D01*
X0023750Y0239525D01*
X0025632Y0241407D01*
X0026747Y0240945D01*
X0028497Y0240945D01*
X0029440Y0241335D01*
X0030275Y0240500D01*
X0041725Y0240500D01*
X0042750Y0241525D01*
X0045725Y0244500D01*
X0055588Y0244500D01*
X0057488Y0242600D01*
X0060512Y0242600D01*
X0062650Y0244738D01*
X0062650Y0247762D01*
X0060512Y0249900D01*
X0057488Y0249900D01*
X0055588Y0248000D01*
X0044275Y0248000D01*
X0042650Y0246375D01*
X0042650Y0247762D01*
X0040512Y0249900D01*
X0037488Y0249900D01*
X0035588Y0248000D01*
X0034725Y0248000D01*
X0031541Y0251184D01*
X0032022Y0252343D01*
X0032022Y0254094D01*
X0031352Y0255711D01*
X0030114Y0256948D01*
X0028497Y0257618D01*
X0026747Y0257618D01*
X0025222Y0256986D02*
X0006218Y0256986D01*
X0006218Y0256488D02*
X0024669Y0256488D01*
X0024171Y0255989D02*
X0006218Y0255989D01*
X0006218Y0255491D02*
X0023801Y0255491D01*
X0023595Y0254992D02*
X0006218Y0254992D01*
X0006218Y0254494D02*
X0023388Y0254494D01*
X0023222Y0253995D02*
X0006218Y0253995D01*
X0006218Y0253497D02*
X0023222Y0253497D01*
X0023222Y0252998D02*
X0006218Y0252998D01*
X0006218Y0252500D02*
X0023222Y0252500D01*
X0023364Y0252001D02*
X0006218Y0252001D01*
X0006218Y0251503D02*
X0023571Y0251503D01*
X0023279Y0251004D02*
X0006218Y0251004D01*
X0006218Y0250506D02*
X0022781Y0250506D01*
X0022282Y0250007D02*
X0006218Y0250007D01*
X0006218Y0249509D02*
X0021784Y0249509D01*
X0021285Y0249010D02*
X0006218Y0249010D01*
X0006218Y0248512D02*
X0020787Y0248512D01*
X0020288Y0248013D02*
X0006218Y0248013D01*
X0006218Y0247515D02*
X0019790Y0247515D01*
X0019291Y0247016D02*
X0006218Y0247016D01*
X0006218Y0246518D02*
X0018793Y0246518D01*
X0018294Y0246019D02*
X0006218Y0246019D01*
X0006218Y0245521D02*
X0018250Y0245521D01*
X0018250Y0245022D02*
X0006218Y0245022D01*
X0006218Y0244524D02*
X0018250Y0244524D01*
X0018250Y0244025D02*
X0006218Y0244025D01*
X0006218Y0243527D02*
X0018250Y0243527D01*
X0018250Y0243028D02*
X0006218Y0243028D01*
X0006218Y0242529D02*
X0018250Y0242529D01*
X0018250Y0242031D02*
X0006218Y0242031D01*
X0006218Y0241532D02*
X0018250Y0241532D01*
X0018250Y0241034D02*
X0006218Y0241034D01*
X0006218Y0240535D02*
X0018250Y0240535D01*
X0018250Y0240037D02*
X0006218Y0240037D01*
X0006218Y0239538D02*
X0018250Y0239538D01*
X0018250Y0239040D02*
X0006218Y0239040D01*
X0006218Y0238541D02*
X0018250Y0238541D01*
X0018250Y0238043D02*
X0006218Y0238043D01*
X0006218Y0237544D02*
X0018250Y0237544D01*
X0018250Y0237046D02*
X0006218Y0237046D01*
X0006218Y0236547D02*
X0018250Y0236547D01*
X0018250Y0236049D02*
X0006218Y0236049D01*
X0006218Y0235550D02*
X0018250Y0235550D01*
X0018250Y0235052D02*
X0006218Y0235052D01*
X0006218Y0234553D02*
X0018250Y0234553D01*
X0018250Y0234055D02*
X0006218Y0234055D01*
X0006218Y0233556D02*
X0018250Y0233556D01*
X0018250Y0233058D02*
X0006218Y0233058D01*
X0006218Y0232559D02*
X0018250Y0232559D01*
X0018250Y0232061D02*
X0006218Y0232061D01*
X0006218Y0231562D02*
X0018250Y0231562D01*
X0018250Y0231064D02*
X0006218Y0231064D01*
X0006218Y0230565D02*
X0018250Y0230565D01*
X0018250Y0230067D02*
X0006218Y0230067D01*
X0006218Y0229568D02*
X0018250Y0229568D01*
X0018250Y0229070D02*
X0006218Y0229070D01*
X0006218Y0228571D02*
X0018250Y0228571D01*
X0018250Y0228073D02*
X0006218Y0228073D01*
X0006218Y0227574D02*
X0018250Y0227574D01*
X0018250Y0227076D02*
X0006218Y0227076D01*
X0006218Y0226577D02*
X0018250Y0226577D01*
X0018250Y0226079D02*
X0006218Y0226079D01*
X0006218Y0225580D02*
X0018250Y0225580D01*
X0018250Y0225082D02*
X0006218Y0225082D01*
X0006218Y0224583D02*
X0018250Y0224583D01*
X0018250Y0224085D02*
X0006218Y0224085D01*
X0006218Y0223586D02*
X0018250Y0223586D01*
X0018250Y0223088D02*
X0006218Y0223088D01*
X0006218Y0222589D02*
X0018250Y0222589D01*
X0018250Y0222091D02*
X0006218Y0222091D01*
X0006218Y0221592D02*
X0018250Y0221592D01*
X0018250Y0221093D02*
X0006218Y0221093D01*
X0006218Y0220595D02*
X0018250Y0220595D01*
X0018250Y0220096D02*
X0006218Y0220096D01*
X0006218Y0219598D02*
X0018250Y0219598D01*
X0018250Y0219099D02*
X0006218Y0219099D01*
X0006218Y0218601D02*
X0018250Y0218601D01*
X0018250Y0218102D02*
X0006218Y0218102D01*
X0006218Y0217604D02*
X0018250Y0217604D01*
X0018250Y0217105D02*
X0006218Y0217105D01*
X0006218Y0216607D02*
X0018250Y0216607D01*
X0018250Y0216108D02*
X0006218Y0216108D01*
X0006218Y0215610D02*
X0018250Y0215610D01*
X0018250Y0215111D02*
X0006218Y0215111D01*
X0006218Y0214613D02*
X0018250Y0214613D01*
X0018250Y0214114D02*
X0006218Y0214114D01*
X0006218Y0213616D02*
X0018250Y0213616D01*
X0018250Y0213117D02*
X0006218Y0213117D01*
X0006218Y0212619D02*
X0018250Y0212619D01*
X0018250Y0212120D02*
X0006218Y0212120D01*
X0006218Y0211622D02*
X0018250Y0211622D01*
X0018250Y0211123D02*
X0006218Y0211123D01*
X0006218Y0210625D02*
X0018250Y0210625D01*
X0018649Y0210126D02*
X0006218Y0210126D01*
X0006218Y0209628D02*
X0019147Y0209628D01*
X0019646Y0209129D02*
X0006218Y0209129D01*
X0006218Y0208631D02*
X0020144Y0208631D01*
X0020643Y0208132D02*
X0006218Y0208132D01*
X0006218Y0207634D02*
X0021141Y0207634D01*
X0021640Y0207135D02*
X0006218Y0207135D01*
X0006218Y0206637D02*
X0022138Y0206637D01*
X0022637Y0206138D02*
X0006218Y0206138D01*
X0006218Y0205640D02*
X0023135Y0205640D01*
X0023634Y0205141D02*
X0006218Y0205141D01*
X0006218Y0204643D02*
X0024133Y0204643D01*
X0024631Y0204144D02*
X0006218Y0204144D01*
X0006218Y0203646D02*
X0025130Y0203646D01*
X0025628Y0203147D02*
X0006218Y0203147D01*
X0006218Y0202649D02*
X0026127Y0202649D01*
X0026250Y0202150D02*
X0006218Y0202150D01*
X0006218Y0201652D02*
X0026250Y0201652D01*
X0026250Y0201153D02*
X0006218Y0201153D01*
X0006218Y0200655D02*
X0026250Y0200655D01*
X0026250Y0200156D02*
X0006218Y0200156D01*
X0006218Y0199658D02*
X0026250Y0199658D01*
X0026250Y0199159D02*
X0006218Y0199159D01*
X0006218Y0198660D02*
X0026250Y0198660D01*
X0026250Y0198162D02*
X0006218Y0198162D01*
X0006218Y0197663D02*
X0026250Y0197663D01*
X0026250Y0197165D02*
X0006218Y0197165D01*
X0006218Y0196666D02*
X0026250Y0196666D01*
X0026250Y0196168D02*
X0006218Y0196168D01*
X0006218Y0195669D02*
X0026250Y0195669D01*
X0026250Y0195171D02*
X0006218Y0195171D01*
X0006218Y0194672D02*
X0026250Y0194672D01*
X0026250Y0194174D02*
X0006218Y0194174D01*
X0006218Y0193675D02*
X0026250Y0193675D01*
X0026250Y0193177D02*
X0006218Y0193177D01*
X0006218Y0192678D02*
X0026250Y0192678D01*
X0026250Y0192180D02*
X0006218Y0192180D01*
X0006218Y0191681D02*
X0026250Y0191681D01*
X0026250Y0191183D02*
X0006218Y0191183D01*
X0006218Y0190684D02*
X0026250Y0190684D01*
X0026250Y0190186D02*
X0006218Y0190186D01*
X0006218Y0189687D02*
X0012275Y0189687D01*
X0012488Y0189900D02*
X0010350Y0187762D01*
X0010350Y0186500D01*
X0013750Y0186500D01*
X0013750Y0189900D01*
X0012488Y0189900D01*
X0011777Y0189189D02*
X0006218Y0189189D01*
X0006218Y0188690D02*
X0011278Y0188690D01*
X0010780Y0188192D02*
X0006218Y0188192D01*
X0006218Y0187693D02*
X0010350Y0187693D01*
X0010350Y0187195D02*
X0006218Y0187195D01*
X0006218Y0186696D02*
X0010350Y0186696D01*
X0010350Y0186000D02*
X0010350Y0184738D01*
X0012488Y0182600D01*
X0013750Y0182600D01*
X0013750Y0186000D01*
X0014250Y0186000D01*
X0014250Y0186500D01*
X0017650Y0186500D01*
X0017650Y0187762D01*
X0015512Y0189900D01*
X0014250Y0189900D01*
X0014250Y0186500D01*
X0013750Y0186500D01*
X0013750Y0186000D01*
X0010350Y0186000D01*
X0010350Y0185699D02*
X0006218Y0185699D01*
X0006218Y0185201D02*
X0010350Y0185201D01*
X0010386Y0184702D02*
X0006218Y0184702D01*
X0006218Y0184204D02*
X0010884Y0184204D01*
X0011383Y0183705D02*
X0006218Y0183705D01*
X0006218Y0183207D02*
X0011881Y0183207D01*
X0012380Y0182708D02*
X0006218Y0182708D01*
X0006218Y0182210D02*
X0017485Y0182210D01*
X0017983Y0182708D02*
X0015620Y0182708D01*
X0015512Y0182600D02*
X0017650Y0184738D01*
X0017650Y0186000D01*
X0014250Y0186000D01*
X0014250Y0182600D01*
X0015512Y0182600D01*
X0016119Y0183207D02*
X0018482Y0183207D01*
X0018980Y0183705D02*
X0016617Y0183705D01*
X0017116Y0184204D02*
X0019479Y0184204D01*
X0019977Y0184702D02*
X0017614Y0184702D01*
X0017650Y0185201D02*
X0020350Y0185201D01*
X0020350Y0185699D02*
X0017650Y0185699D01*
X0017650Y0186696D02*
X0020350Y0186696D01*
X0020350Y0186198D02*
X0014250Y0186198D01*
X0014250Y0186696D02*
X0013750Y0186696D01*
X0013750Y0186198D02*
X0006218Y0186198D01*
X0006218Y0181711D02*
X0016986Y0181711D01*
X0016488Y0181213D02*
X0006218Y0181213D01*
X0006218Y0180714D02*
X0015989Y0180714D01*
X0015491Y0180216D02*
X0006218Y0180216D01*
X0006218Y0179717D02*
X0014992Y0179717D01*
X0014494Y0179219D02*
X0006218Y0179219D01*
X0006218Y0178720D02*
X0013995Y0178720D01*
X0013497Y0178222D02*
X0006218Y0178222D01*
X0006218Y0177723D02*
X0012998Y0177723D01*
X0012500Y0177224D02*
X0006218Y0177224D01*
X0006218Y0176726D02*
X0011914Y0176726D01*
X0011416Y0176227D02*
X0006218Y0176227D01*
X0006218Y0175729D02*
X0010917Y0175729D01*
X0010704Y0175230D02*
X0006218Y0175230D01*
X0006218Y0174732D02*
X0010497Y0174732D01*
X0010350Y0174233D02*
X0006218Y0174233D01*
X0006218Y0173735D02*
X0010350Y0173735D01*
X0010350Y0173236D02*
X0006218Y0173236D01*
X0006218Y0172738D02*
X0010350Y0172738D01*
X0010350Y0172239D02*
X0006218Y0172239D01*
X0006218Y0171741D02*
X0010350Y0171741D01*
X0010350Y0171242D02*
X0006218Y0171242D01*
X0006218Y0170744D02*
X0010350Y0170744D01*
X0010350Y0170245D02*
X0006218Y0170245D01*
X0006218Y0169747D02*
X0010350Y0169747D01*
X0010350Y0169248D02*
X0006218Y0169248D01*
X0006218Y0168750D02*
X0010350Y0168750D01*
X0010350Y0168251D02*
X0006218Y0168251D01*
X0006218Y0167753D02*
X0010504Y0167753D01*
X0010710Y0167254D02*
X0006218Y0167254D01*
X0006218Y0166756D02*
X0010932Y0166756D01*
X0011431Y0166257D02*
X0006218Y0166257D01*
X0006218Y0165759D02*
X0011929Y0165759D01*
X0013129Y0165260D02*
X0006218Y0165260D01*
X0006218Y0164762D02*
X0016250Y0164762D01*
X0016250Y0165260D02*
X0014871Y0165260D01*
X0016071Y0165759D02*
X0016250Y0165759D01*
X0016250Y0164263D02*
X0006218Y0164263D01*
X0006218Y0163765D02*
X0016250Y0163765D01*
X0016250Y0163266D02*
X0006218Y0163266D01*
X0006218Y0162768D02*
X0016250Y0162768D01*
X0016250Y0162269D02*
X0006218Y0162269D01*
X0006218Y0161771D02*
X0016250Y0161771D01*
X0016250Y0161272D02*
X0006218Y0161272D01*
X0006218Y0160774D02*
X0016250Y0160774D01*
X0016250Y0160275D02*
X0006218Y0160275D01*
X0006218Y0159777D02*
X0016250Y0159777D01*
X0016250Y0159278D02*
X0006218Y0159278D01*
X0006218Y0158780D02*
X0016250Y0158780D01*
X0016250Y0158281D02*
X0006218Y0158281D01*
X0006218Y0157783D02*
X0016250Y0157783D01*
X0016250Y0157284D02*
X0006218Y0157284D01*
X0006218Y0156786D02*
X0016250Y0156786D01*
X0016250Y0156287D02*
X0006218Y0156287D01*
X0006218Y0155789D02*
X0016250Y0155789D01*
X0016250Y0155290D02*
X0006218Y0155290D01*
X0006218Y0154791D02*
X0016250Y0154791D01*
X0016250Y0154293D02*
X0006218Y0154293D01*
X0006218Y0153794D02*
X0016250Y0153794D01*
X0016250Y0153296D02*
X0006218Y0153296D01*
X0006218Y0152797D02*
X0016250Y0152797D01*
X0016250Y0152299D02*
X0006218Y0152299D01*
X0006218Y0151800D02*
X0016250Y0151800D01*
X0016250Y0151302D02*
X0006218Y0151302D01*
X0006218Y0150803D02*
X0016250Y0150803D01*
X0016250Y0150305D02*
X0006218Y0150305D01*
X0006218Y0149806D02*
X0016250Y0149806D01*
X0016250Y0149308D02*
X0006218Y0149308D01*
X0006218Y0148809D02*
X0016250Y0148809D01*
X0016250Y0148311D02*
X0006218Y0148311D01*
X0006218Y0147812D02*
X0016250Y0147812D01*
X0016250Y0147314D02*
X0006218Y0147314D01*
X0006218Y0146815D02*
X0012104Y0146815D01*
X0011505Y0146317D02*
X0006218Y0146317D01*
X0006218Y0145818D02*
X0011006Y0145818D01*
X0010741Y0145320D02*
X0006218Y0145320D01*
X0006218Y0144821D02*
X0010534Y0144821D01*
X0010350Y0144323D02*
X0006218Y0144323D01*
X0006218Y0143824D02*
X0010350Y0143824D01*
X0010350Y0143326D02*
X0006218Y0143326D01*
X0006218Y0142827D02*
X0010350Y0142827D01*
X0010350Y0142329D02*
X0006218Y0142329D01*
X0006218Y0141830D02*
X0010350Y0141830D01*
X0010350Y0141332D02*
X0006218Y0141332D01*
X0006218Y0140833D02*
X0010350Y0140833D01*
X0010350Y0140335D02*
X0006218Y0140335D01*
X0006218Y0139836D02*
X0010350Y0139836D01*
X0010350Y0139338D02*
X0006218Y0139338D01*
X0006218Y0138839D02*
X0010350Y0138839D01*
X0010350Y0138341D02*
X0006218Y0138341D01*
X0006218Y0137842D02*
X0010467Y0137842D01*
X0010673Y0137344D02*
X0006218Y0137344D01*
X0006218Y0136845D02*
X0010880Y0136845D01*
X0011342Y0136347D02*
X0006218Y0136347D01*
X0006218Y0135848D02*
X0011840Y0135848D01*
X0012913Y0135350D02*
X0006218Y0135350D01*
X0006218Y0134851D02*
X0019924Y0134851D01*
X0019426Y0135350D02*
X0015087Y0135350D01*
X0016160Y0135848D02*
X0018927Y0135848D01*
X0018429Y0136347D02*
X0016658Y0136347D01*
X0017120Y0136845D02*
X0017930Y0136845D01*
X0017432Y0137344D02*
X0017327Y0137344D01*
X0019889Y0139836D02*
X0020350Y0139836D01*
X0020350Y0140335D02*
X0019750Y0140335D01*
X0019750Y0140833D02*
X0020350Y0140833D01*
X0019750Y0141332D02*
X0023750Y0141332D01*
X0023750Y0141830D02*
X0024250Y0141830D01*
X0024250Y0141500D02*
X0024250Y0147300D01*
X0024359Y0147300D01*
X0025065Y0147160D01*
X0025729Y0146885D01*
X0026327Y0146485D01*
X0026835Y0145977D01*
X0027235Y0145379D01*
X0027510Y0144715D01*
X0027650Y0144009D01*
X0027650Y0141500D01*
X0024250Y0141500D01*
X0024250Y0141332D02*
X0033750Y0141332D01*
X0033750Y0141500D02*
X0033750Y0141000D01*
X0034250Y0141000D01*
X0034250Y0141500D01*
X0037650Y0141500D01*
X0037650Y0144009D01*
X0037510Y0144715D01*
X0037235Y0145379D01*
X0036835Y0145977D01*
X0036327Y0146485D01*
X0035729Y0146885D01*
X0035065Y0147160D01*
X0034359Y0147300D01*
X0034250Y0147300D01*
X0034250Y0141500D01*
X0033750Y0141500D01*
X0033750Y0147300D01*
X0033640Y0147300D01*
X0032935Y0147160D01*
X0032271Y0146885D01*
X0031673Y0146485D01*
X0031165Y0145977D01*
X0030765Y0145379D01*
X0030490Y0144715D01*
X0030350Y0144009D01*
X0030350Y0141500D01*
X0033750Y0141500D01*
X0033750Y0141830D02*
X0034250Y0141830D01*
X0034250Y0141332D02*
X0043750Y0141332D01*
X0043750Y0141000D02*
X0040350Y0141000D01*
X0040350Y0138490D01*
X0040490Y0137785D01*
X0040765Y0137121D01*
X0041165Y0136523D01*
X0041673Y0136015D01*
X0042271Y0135615D01*
X0042935Y0135340D01*
X0043640Y0135200D01*
X0043750Y0135200D01*
X0043750Y0141000D01*
X0043750Y0140833D02*
X0044250Y0140833D01*
X0044250Y0140335D02*
X0043750Y0140335D01*
X0043750Y0139836D02*
X0044250Y0139836D01*
X0044250Y0139338D02*
X0043750Y0139338D01*
X0043750Y0138839D02*
X0044250Y0138839D01*
X0044250Y0138341D02*
X0043750Y0138341D01*
X0043750Y0137842D02*
X0044250Y0137842D01*
X0044250Y0137344D02*
X0043750Y0137344D01*
X0043750Y0136845D02*
X0044250Y0136845D01*
X0044250Y0136347D02*
X0043750Y0136347D01*
X0043750Y0135848D02*
X0044250Y0135848D01*
X0044250Y0135350D02*
X0043750Y0135350D01*
X0042913Y0135350D02*
X0035087Y0135350D01*
X0035065Y0135340D02*
X0035729Y0135615D01*
X0036327Y0136015D01*
X0036835Y0136523D01*
X0037235Y0137121D01*
X0037510Y0137785D01*
X0037650Y0138490D01*
X0037650Y0141000D01*
X0034250Y0141000D01*
X0034250Y0135200D01*
X0034359Y0135200D01*
X0035065Y0135340D01*
X0034250Y0135350D02*
X0033750Y0135350D01*
X0033750Y0135200D02*
X0033750Y0141000D01*
X0030350Y0141000D01*
X0030350Y0138490D01*
X0030490Y0137785D01*
X0030765Y0137121D01*
X0031165Y0136523D01*
X0031673Y0136015D01*
X0032271Y0135615D01*
X0032935Y0135340D01*
X0033640Y0135200D01*
X0033750Y0135200D01*
X0033750Y0135848D02*
X0034250Y0135848D01*
X0034250Y0136347D02*
X0033750Y0136347D01*
X0033750Y0136845D02*
X0034250Y0136845D01*
X0034250Y0137344D02*
X0033750Y0137344D01*
X0033750Y0137842D02*
X0034250Y0137842D01*
X0034250Y0138341D02*
X0033750Y0138341D01*
X0033750Y0138839D02*
X0034250Y0138839D01*
X0034250Y0139338D02*
X0033750Y0139338D01*
X0033750Y0139836D02*
X0034250Y0139836D01*
X0034250Y0140335D02*
X0033750Y0140335D01*
X0033750Y0140833D02*
X0034250Y0140833D01*
X0034250Y0142329D02*
X0033750Y0142329D01*
X0033750Y0142827D02*
X0034250Y0142827D01*
X0034250Y0143326D02*
X0033750Y0143326D01*
X0033750Y0143824D02*
X0034250Y0143824D01*
X0034250Y0144323D02*
X0033750Y0144323D01*
X0033750Y0144821D02*
X0034250Y0144821D01*
X0034250Y0145320D02*
X0033750Y0145320D01*
X0033750Y0145818D02*
X0034250Y0145818D01*
X0034250Y0146317D02*
X0033750Y0146317D01*
X0033750Y0146815D02*
X0034250Y0146815D01*
X0035833Y0146815D02*
X0042167Y0146815D01*
X0041505Y0146317D02*
X0036495Y0146317D01*
X0036941Y0145818D02*
X0041059Y0145818D01*
X0040741Y0145320D02*
X0037259Y0145320D01*
X0037466Y0144821D02*
X0040534Y0144821D01*
X0040412Y0144323D02*
X0037588Y0144323D01*
X0037650Y0143824D02*
X0040350Y0143824D01*
X0040350Y0143326D02*
X0037650Y0143326D01*
X0037650Y0142827D02*
X0040350Y0142827D01*
X0040350Y0142329D02*
X0037650Y0142329D01*
X0037650Y0141830D02*
X0040350Y0141830D01*
X0040350Y0140833D02*
X0037650Y0140833D01*
X0037650Y0140335D02*
X0040350Y0140335D01*
X0040350Y0139836D02*
X0037650Y0139836D01*
X0037650Y0139338D02*
X0040350Y0139338D01*
X0040350Y0138839D02*
X0037650Y0138839D01*
X0037620Y0138341D02*
X0040380Y0138341D01*
X0040479Y0137842D02*
X0037521Y0137842D01*
X0037327Y0137344D02*
X0040673Y0137344D01*
X0040950Y0136845D02*
X0037050Y0136845D01*
X0036658Y0136347D02*
X0041342Y0136347D01*
X0041923Y0135848D02*
X0036077Y0135848D01*
X0035065Y0132160D02*
X0034359Y0132300D01*
X0034250Y0132300D01*
X0034250Y0126500D01*
X0037650Y0126500D01*
X0037650Y0129009D01*
X0037510Y0129715D01*
X0037235Y0130379D01*
X0036835Y0130977D01*
X0036327Y0131485D01*
X0035729Y0131885D01*
X0035065Y0132160D01*
X0035766Y0131860D02*
X0042212Y0131860D01*
X0041550Y0131361D02*
X0036450Y0131361D01*
X0036911Y0130863D02*
X0041051Y0130863D01*
X0040759Y0130364D02*
X0037241Y0130364D01*
X0037447Y0129866D02*
X0040553Y0129866D01*
X0040350Y0129367D02*
X0037579Y0129367D01*
X0037650Y0128869D02*
X0040350Y0128869D01*
X0040350Y0128370D02*
X0037650Y0128370D01*
X0037650Y0127872D02*
X0040350Y0127872D01*
X0040350Y0127373D02*
X0037650Y0127373D01*
X0037650Y0126875D02*
X0040350Y0126875D01*
X0040350Y0126376D02*
X0034250Y0126376D01*
X0034250Y0126500D02*
X0034250Y0126000D01*
X0037650Y0126000D01*
X0037650Y0123490D01*
X0037510Y0122785D01*
X0037235Y0122121D01*
X0036835Y0121523D01*
X0036327Y0121015D01*
X0035729Y0120615D01*
X0035065Y0120340D01*
X0034359Y0120200D01*
X0034250Y0120200D01*
X0034250Y0126000D01*
X0033750Y0126000D01*
X0033750Y0120200D01*
X0033640Y0120200D01*
X0032935Y0120340D01*
X0032271Y0120615D01*
X0031673Y0121015D01*
X0031165Y0121523D01*
X0030765Y0122121D01*
X0030490Y0122785D01*
X0030350Y0123490D01*
X0030350Y0126000D01*
X0033750Y0126000D01*
X0033750Y0126500D01*
X0033750Y0132300D01*
X0033640Y0132300D01*
X0032935Y0132160D01*
X0032271Y0131885D01*
X0031673Y0131485D01*
X0031165Y0130977D01*
X0030765Y0130379D01*
X0030490Y0129715D01*
X0030350Y0129009D01*
X0030350Y0126500D01*
X0033750Y0126500D01*
X0034250Y0126500D01*
X0034250Y0126875D02*
X0033750Y0126875D01*
X0033750Y0127373D02*
X0034250Y0127373D01*
X0034250Y0127872D02*
X0033750Y0127872D01*
X0033750Y0128370D02*
X0034250Y0128370D01*
X0034250Y0128869D02*
X0033750Y0128869D01*
X0033750Y0129367D02*
X0034250Y0129367D01*
X0034250Y0129866D02*
X0033750Y0129866D01*
X0033750Y0130364D02*
X0034250Y0130364D01*
X0034250Y0130863D02*
X0033750Y0130863D01*
X0033750Y0131361D02*
X0034250Y0131361D01*
X0034250Y0131860D02*
X0033750Y0131860D01*
X0032913Y0135350D02*
X0025087Y0135350D01*
X0024874Y0134851D02*
X0046250Y0134851D01*
X0046250Y0134353D02*
X0025372Y0134353D01*
X0025750Y0133854D02*
X0046250Y0133854D01*
X0046250Y0133355D02*
X0025750Y0133355D01*
X0025750Y0132857D02*
X0046250Y0132857D01*
X0046250Y0132358D02*
X0025750Y0132358D01*
X0025788Y0131860D02*
X0032234Y0131860D01*
X0031550Y0131361D02*
X0026450Y0131361D01*
X0026949Y0130863D02*
X0031089Y0130863D01*
X0030759Y0130364D02*
X0027241Y0130364D01*
X0027447Y0129866D02*
X0030553Y0129866D01*
X0030421Y0129367D02*
X0027650Y0129367D01*
X0027650Y0128869D02*
X0030350Y0128869D01*
X0030350Y0128370D02*
X0027650Y0128370D01*
X0027650Y0127872D02*
X0030350Y0127872D01*
X0030350Y0127373D02*
X0027650Y0127373D01*
X0027650Y0126875D02*
X0030350Y0126875D01*
X0030350Y0125878D02*
X0027650Y0125878D01*
X0027650Y0126376D02*
X0033750Y0126376D01*
X0033750Y0125878D02*
X0034250Y0125878D01*
X0034250Y0125379D02*
X0033750Y0125379D01*
X0033750Y0124881D02*
X0034250Y0124881D01*
X0034250Y0124382D02*
X0033750Y0124382D01*
X0033750Y0123884D02*
X0034250Y0123884D01*
X0034250Y0123385D02*
X0033750Y0123385D01*
X0033750Y0122887D02*
X0034250Y0122887D01*
X0034250Y0122388D02*
X0033750Y0122388D01*
X0033750Y0121890D02*
X0034250Y0121890D01*
X0034250Y0121391D02*
X0033750Y0121391D01*
X0033750Y0120893D02*
X0034250Y0120893D01*
X0034250Y0120394D02*
X0033750Y0120394D01*
X0032805Y0120394D02*
X0025195Y0120394D01*
X0026205Y0120893D02*
X0031856Y0120893D01*
X0031297Y0121391D02*
X0026703Y0121391D01*
X0027139Y0121890D02*
X0030920Y0121890D01*
X0030655Y0122388D02*
X0027345Y0122388D01*
X0027552Y0122887D02*
X0030470Y0122887D01*
X0030371Y0123385D02*
X0027650Y0123385D01*
X0027650Y0123884D02*
X0030350Y0123884D01*
X0030350Y0124382D02*
X0027650Y0124382D01*
X0027650Y0124881D02*
X0030350Y0124881D01*
X0030350Y0125379D02*
X0027650Y0125379D01*
X0026077Y0135848D02*
X0031923Y0135848D01*
X0031342Y0136347D02*
X0026658Y0136347D01*
X0027050Y0136845D02*
X0030950Y0136845D01*
X0030673Y0137344D02*
X0027327Y0137344D01*
X0027521Y0137842D02*
X0030479Y0137842D01*
X0030380Y0138341D02*
X0027620Y0138341D01*
X0027650Y0138839D02*
X0030350Y0138839D01*
X0030350Y0139338D02*
X0027650Y0139338D01*
X0027650Y0139836D02*
X0030350Y0139836D01*
X0030350Y0140335D02*
X0027650Y0140335D01*
X0027650Y0140833D02*
X0030350Y0140833D01*
X0030350Y0141830D02*
X0027650Y0141830D01*
X0027650Y0142329D02*
X0030350Y0142329D01*
X0030350Y0142827D02*
X0027650Y0142827D01*
X0027650Y0143326D02*
X0030350Y0143326D01*
X0030350Y0143824D02*
X0027650Y0143824D01*
X0027588Y0144323D02*
X0030412Y0144323D01*
X0030534Y0144821D02*
X0027466Y0144821D01*
X0027259Y0145320D02*
X0030741Y0145320D01*
X0031059Y0145818D02*
X0026941Y0145818D01*
X0026495Y0146317D02*
X0031505Y0146317D01*
X0032167Y0146815D02*
X0025833Y0146815D01*
X0024250Y0146815D02*
X0023750Y0146815D01*
X0023750Y0146317D02*
X0024250Y0146317D01*
X0024250Y0145818D02*
X0023750Y0145818D01*
X0023750Y0145320D02*
X0024250Y0145320D01*
X0024250Y0144821D02*
X0023750Y0144821D01*
X0023750Y0144323D02*
X0024250Y0144323D01*
X0024250Y0143824D02*
X0023750Y0143824D01*
X0023750Y0143326D02*
X0024250Y0143326D01*
X0024250Y0142827D02*
X0023750Y0142827D01*
X0023750Y0142329D02*
X0024250Y0142329D01*
X0022167Y0146815D02*
X0019750Y0146815D01*
X0019750Y0146317D02*
X0021505Y0146317D01*
X0021059Y0145818D02*
X0019750Y0145818D01*
X0019750Y0145320D02*
X0020741Y0145320D01*
X0020534Y0144821D02*
X0019750Y0144821D01*
X0019750Y0144323D02*
X0020412Y0144323D01*
X0020350Y0143824D02*
X0019750Y0143824D01*
X0019750Y0143326D02*
X0020350Y0143326D01*
X0020350Y0142827D02*
X0019750Y0142827D01*
X0019750Y0142329D02*
X0020350Y0142329D01*
X0020350Y0141830D02*
X0019750Y0141830D01*
X0019750Y0147314D02*
X0046250Y0147314D01*
X0046250Y0147812D02*
X0019750Y0147812D01*
X0019750Y0148311D02*
X0046250Y0148311D01*
X0046250Y0148809D02*
X0019750Y0148809D01*
X0019750Y0149308D02*
X0046250Y0149308D01*
X0046250Y0149806D02*
X0019750Y0149806D01*
X0019750Y0150305D02*
X0046250Y0150305D01*
X0046250Y0150803D02*
X0019750Y0150803D01*
X0019750Y0151302D02*
X0046250Y0151302D01*
X0046250Y0151800D02*
X0019750Y0151800D01*
X0019750Y0152299D02*
X0046250Y0152299D01*
X0046250Y0152797D02*
X0019750Y0152797D01*
X0019750Y0153296D02*
X0046250Y0153296D01*
X0046250Y0153794D02*
X0019750Y0153794D01*
X0019750Y0154293D02*
X0046250Y0154293D01*
X0046250Y0154791D02*
X0019750Y0154791D01*
X0019750Y0155290D02*
X0046250Y0155290D01*
X0046250Y0155789D02*
X0019750Y0155789D01*
X0019750Y0156287D02*
X0046250Y0156287D01*
X0046250Y0156786D02*
X0019750Y0156786D01*
X0019750Y0157284D02*
X0046250Y0157284D01*
X0046250Y0157783D02*
X0019750Y0157783D01*
X0019750Y0158281D02*
X0046250Y0158281D01*
X0046250Y0158780D02*
X0019750Y0158780D01*
X0019750Y0159278D02*
X0046250Y0159278D01*
X0046250Y0159777D02*
X0019750Y0159777D01*
X0019750Y0160275D02*
X0046250Y0160275D01*
X0046250Y0160774D02*
X0019750Y0160774D01*
X0019750Y0161272D02*
X0046250Y0161272D01*
X0046250Y0161771D02*
X0019750Y0161771D01*
X0019750Y0162269D02*
X0046250Y0162269D01*
X0046250Y0162768D02*
X0019750Y0162768D01*
X0019750Y0163266D02*
X0046250Y0163266D01*
X0046250Y0163765D02*
X0019750Y0163765D01*
X0019750Y0164263D02*
X0046250Y0164263D01*
X0046250Y0164762D02*
X0019750Y0164762D01*
X0019750Y0165260D02*
X0023129Y0165260D01*
X0024871Y0165260D02*
X0033129Y0165260D01*
X0031929Y0165759D02*
X0026071Y0165759D01*
X0026569Y0166257D02*
X0031431Y0166257D01*
X0030932Y0166756D02*
X0027068Y0166756D01*
X0027290Y0167254D02*
X0030710Y0167254D01*
X0030504Y0167753D02*
X0027496Y0167753D01*
X0027650Y0168251D02*
X0030350Y0168251D01*
X0030350Y0168750D02*
X0027650Y0168750D01*
X0027650Y0169248D02*
X0030350Y0169248D01*
X0030350Y0169747D02*
X0027650Y0169747D01*
X0027650Y0170245D02*
X0030350Y0170245D01*
X0030350Y0170744D02*
X0027650Y0170744D01*
X0027650Y0171242D02*
X0030350Y0171242D01*
X0030350Y0171741D02*
X0027650Y0171741D01*
X0027650Y0172239D02*
X0030350Y0172239D01*
X0030350Y0172738D02*
X0027650Y0172738D01*
X0027650Y0173236D02*
X0030350Y0173236D01*
X0030350Y0173735D02*
X0027650Y0173735D01*
X0027650Y0174233D02*
X0030350Y0174233D01*
X0030497Y0174732D02*
X0027503Y0174732D01*
X0027296Y0175230D02*
X0030704Y0175230D01*
X0030917Y0175729D02*
X0027083Y0175729D01*
X0026584Y0176227D02*
X0031416Y0176227D01*
X0031914Y0176726D02*
X0026086Y0176726D01*
X0025750Y0177224D02*
X0032250Y0177224D01*
X0032250Y0177723D02*
X0025750Y0177723D01*
X0025750Y0178222D02*
X0032250Y0178222D01*
X0032250Y0178720D02*
X0025750Y0178720D01*
X0025750Y0179219D02*
X0032250Y0179219D01*
X0032250Y0179717D02*
X0025942Y0179717D01*
X0026440Y0180216D02*
X0032250Y0180216D01*
X0032250Y0180714D02*
X0026939Y0180714D01*
X0027437Y0181213D02*
X0032250Y0181213D01*
X0032250Y0181711D02*
X0027936Y0181711D01*
X0028434Y0182210D02*
X0032250Y0182210D01*
X0032250Y0182708D02*
X0028933Y0182708D01*
X0029431Y0183207D02*
X0032250Y0183207D01*
X0032250Y0183705D02*
X0029750Y0183705D01*
X0029750Y0184204D02*
X0032250Y0184204D01*
X0032250Y0184702D02*
X0029750Y0184702D01*
X0029750Y0185201D02*
X0032250Y0185201D01*
X0032250Y0185699D02*
X0029750Y0185699D01*
X0029750Y0186198D02*
X0032250Y0186198D01*
X0032250Y0186696D02*
X0029750Y0186696D01*
X0029750Y0187195D02*
X0032250Y0187195D01*
X0032250Y0187693D02*
X0029750Y0187693D01*
X0029750Y0188192D02*
X0032250Y0188192D01*
X0032250Y0188690D02*
X0029750Y0188690D01*
X0029750Y0189189D02*
X0032250Y0189189D01*
X0032250Y0189687D02*
X0029750Y0189687D01*
X0029750Y0190186D02*
X0032250Y0190186D01*
X0032250Y0190684D02*
X0029750Y0190684D01*
X0029750Y0191183D02*
X0032250Y0191183D01*
X0032250Y0191681D02*
X0029750Y0191681D01*
X0029750Y0192180D02*
X0032250Y0192180D01*
X0032250Y0192678D02*
X0029750Y0192678D01*
X0029750Y0193177D02*
X0032250Y0193177D01*
X0032250Y0193675D02*
X0029750Y0193675D01*
X0029750Y0194174D02*
X0032250Y0194174D01*
X0032250Y0194672D02*
X0029750Y0194672D01*
X0029750Y0195171D02*
X0032250Y0195171D01*
X0032250Y0195669D02*
X0029750Y0195669D01*
X0029750Y0196168D02*
X0032250Y0196168D01*
X0032250Y0196666D02*
X0029750Y0196666D01*
X0029750Y0197165D02*
X0032250Y0197165D01*
X0032250Y0197663D02*
X0029750Y0197663D01*
X0029750Y0198162D02*
X0032250Y0198162D01*
X0032250Y0198660D02*
X0029750Y0198660D01*
X0029750Y0199159D02*
X0032250Y0199159D01*
X0032118Y0199658D02*
X0029750Y0199658D01*
X0029750Y0200156D02*
X0031619Y0200156D01*
X0031121Y0200655D02*
X0029750Y0200655D01*
X0029750Y0201153D02*
X0030622Y0201153D01*
X0030124Y0201652D02*
X0029750Y0201652D01*
X0031584Y0205141D02*
X0033634Y0205141D01*
X0034133Y0204643D02*
X0032082Y0204643D01*
X0032581Y0204144D02*
X0034631Y0204144D01*
X0035130Y0203646D02*
X0033079Y0203646D01*
X0033578Y0203147D02*
X0035628Y0203147D01*
X0036127Y0202649D02*
X0034076Y0202649D01*
X0034575Y0202150D02*
X0036625Y0202150D01*
X0037124Y0201652D02*
X0035073Y0201652D01*
X0035572Y0201153D02*
X0037622Y0201153D01*
X0038121Y0200655D02*
X0035750Y0200655D01*
X0035750Y0200156D02*
X0046619Y0200156D01*
X0047118Y0199658D02*
X0035750Y0199658D01*
X0035750Y0199159D02*
X0047616Y0199159D01*
X0048115Y0198660D02*
X0035750Y0198660D01*
X0035750Y0198162D02*
X0048613Y0198162D01*
X0049112Y0197663D02*
X0035750Y0197663D01*
X0035750Y0197165D02*
X0049610Y0197165D01*
X0050109Y0196666D02*
X0035750Y0196666D01*
X0035750Y0196168D02*
X0050607Y0196168D01*
X0051106Y0195669D02*
X0035750Y0195669D01*
X0035750Y0195171D02*
X0051604Y0195171D01*
X0052103Y0194672D02*
X0035750Y0194672D01*
X0035750Y0194174D02*
X0052601Y0194174D01*
X0053100Y0193675D02*
X0035750Y0193675D01*
X0035750Y0193177D02*
X0053598Y0193177D01*
X0054097Y0192678D02*
X0035750Y0192678D01*
X0035750Y0192180D02*
X0054595Y0192180D01*
X0055557Y0196168D02*
X0077607Y0196168D01*
X0077109Y0196666D02*
X0055058Y0196666D01*
X0054560Y0197165D02*
X0076610Y0197165D01*
X0076112Y0197663D02*
X0054061Y0197663D01*
X0053563Y0198162D02*
X0075613Y0198162D01*
X0075115Y0198660D02*
X0053064Y0198660D01*
X0052566Y0199159D02*
X0074616Y0199159D01*
X0074118Y0199658D02*
X0052067Y0199658D01*
X0051569Y0200156D02*
X0073619Y0200156D01*
X0073121Y0200655D02*
X0051070Y0200655D01*
X0050572Y0201153D02*
X0072622Y0201153D01*
X0072124Y0201652D02*
X0050073Y0201652D01*
X0049575Y0202150D02*
X0071625Y0202150D01*
X0071127Y0202649D02*
X0055560Y0202649D01*
X0055512Y0202600D02*
X0057650Y0204738D01*
X0057650Y0207762D01*
X0055512Y0209900D01*
X0054125Y0209900D01*
X0054725Y0210500D01*
X0061725Y0210500D01*
X0066940Y0215716D01*
X0066530Y0214724D01*
X0066530Y0212973D01*
X0067199Y0211356D01*
X0068437Y0210119D01*
X0069250Y0209782D01*
X0069250Y0204525D01*
X0083875Y0189900D01*
X0082488Y0189900D01*
X0080350Y0187762D01*
X0080350Y0184738D01*
X0082488Y0182600D01*
X0085512Y0182600D01*
X0086250Y0183338D01*
X0086250Y0176536D01*
X0085729Y0176885D01*
X0085065Y0177160D01*
X0084359Y0177300D01*
X0084250Y0177300D01*
X0084250Y0171500D01*
X0083750Y0171500D01*
X0083750Y0177300D01*
X0083640Y0177300D01*
X0082935Y0177160D01*
X0082271Y0176885D01*
X0081673Y0176485D01*
X0081165Y0175977D01*
X0080765Y0175379D01*
X0080490Y0174715D01*
X0080350Y0174009D01*
X0080350Y0171500D01*
X0083750Y0171500D01*
X0083750Y0171000D01*
X0084250Y0171000D01*
X0084250Y0165200D01*
X0084359Y0165200D01*
X0085065Y0165340D01*
X0085729Y0165615D01*
X0086250Y0165964D01*
X0086250Y0146562D01*
X0086068Y0146744D01*
X0084726Y0147300D01*
X0083274Y0147300D01*
X0081932Y0146744D01*
X0080906Y0145718D01*
X0080350Y0144376D01*
X0080350Y0138124D01*
X0080906Y0136782D01*
X0081932Y0135756D01*
X0083274Y0135200D01*
X0084726Y0135200D01*
X0086068Y0135756D01*
X0086250Y0135938D01*
X0086250Y0131562D01*
X0086068Y0131744D01*
X0084726Y0132300D01*
X0083274Y0132300D01*
X0081932Y0131744D01*
X0080906Y0130718D01*
X0080350Y0129376D01*
X0080350Y0123124D01*
X0080906Y0121782D01*
X0081932Y0120756D01*
X0083274Y0120200D01*
X0084726Y0120200D01*
X0086068Y0120756D01*
X0086250Y0120938D01*
X0086250Y0101536D01*
X0085729Y0101885D01*
X0085065Y0102160D01*
X0084359Y0102300D01*
X0084250Y0102300D01*
X0084250Y0096500D01*
X0083750Y0096500D01*
X0083750Y0102300D01*
X0083640Y0102300D01*
X0082935Y0102160D01*
X0082271Y0101885D01*
X0081673Y0101485D01*
X0081165Y0100977D01*
X0080765Y0100379D01*
X0080490Y0099715D01*
X0080350Y0099009D01*
X0080350Y0096500D01*
X0083750Y0096500D01*
X0083750Y0096000D01*
X0084250Y0096000D01*
X0084250Y0090200D01*
X0084359Y0090200D01*
X0084504Y0090229D01*
X0077344Y0083068D01*
X0075512Y0084900D01*
X0074250Y0084900D01*
X0074250Y0081500D01*
X0073750Y0081500D01*
X0073750Y0084900D01*
X0072488Y0084900D01*
X0070350Y0082762D01*
X0070350Y0081500D01*
X0073750Y0081500D01*
X0073750Y0081000D01*
X0074250Y0081000D01*
X0074250Y0077600D01*
X0074875Y0077600D01*
X0051344Y0054068D01*
X0051068Y0054344D01*
X0049726Y0054900D01*
X0044125Y0054900D01*
X0046825Y0057600D01*
X0049726Y0057600D01*
X0051068Y0058156D01*
X0052094Y0059182D01*
X0052650Y0060524D01*
X0052650Y0061976D01*
X0052518Y0062294D01*
X0054750Y0064525D01*
X0054750Y0073975D01*
X0053725Y0075000D01*
X0051750Y0076975D01*
X0051750Y0090938D01*
X0051932Y0090756D01*
X0052250Y0090624D01*
X0052250Y0090525D01*
X0060350Y0082425D01*
X0060350Y0079738D01*
X0062488Y0077600D01*
X0065512Y0077600D01*
X0067650Y0079738D01*
X0067650Y0082762D01*
X0065512Y0084900D01*
X0062825Y0084900D01*
X0056518Y0091206D01*
X0057094Y0091782D01*
X0057650Y0093124D01*
X0057650Y0099376D01*
X0057094Y0100718D01*
X0056068Y0101744D01*
X0054726Y0102300D01*
X0053274Y0102300D01*
X0051932Y0101744D01*
X0051750Y0101562D01*
X0051750Y0120964D01*
X0052271Y0120615D01*
X0052935Y0120340D01*
X0053640Y0120200D01*
X0053750Y0120200D01*
X0053750Y0126000D01*
X0054250Y0126000D01*
X0054250Y0126500D01*
X0053750Y0126500D01*
X0053750Y0132300D01*
X0053640Y0132300D01*
X0052935Y0132160D01*
X0052271Y0131885D01*
X0051750Y0131536D01*
X0051750Y0135938D01*
X0051932Y0135756D01*
X0053274Y0135200D01*
X0054726Y0135200D01*
X0056068Y0135756D01*
X0057094Y0136782D01*
X0057650Y0138124D01*
X0057650Y0144376D01*
X0057094Y0145718D01*
X0056068Y0146744D01*
X0054726Y0147300D01*
X0054525Y0147300D01*
X0059750Y0152525D01*
X0059750Y0187025D01*
X0070982Y0175794D01*
X0070906Y0175718D01*
X0070350Y0174376D01*
X0070350Y0168124D01*
X0070906Y0166782D01*
X0071932Y0165756D01*
X0073274Y0165200D01*
X0074726Y0165200D01*
X0076068Y0165756D01*
X0077094Y0166782D01*
X0077650Y0168124D01*
X0077650Y0174376D01*
X0077094Y0175718D01*
X0076068Y0176744D01*
X0074726Y0177300D01*
X0074425Y0177300D01*
X0048750Y0202975D01*
X0047725Y0204000D01*
X0046912Y0204000D01*
X0047412Y0204500D01*
X0048725Y0204500D01*
X0050350Y0206125D01*
X0050350Y0204738D01*
X0052488Y0202600D01*
X0055512Y0202600D01*
X0056059Y0203147D02*
X0070628Y0203147D01*
X0070130Y0203646D02*
X0056557Y0203646D01*
X0057056Y0204144D02*
X0069631Y0204144D01*
X0069250Y0204643D02*
X0057554Y0204643D01*
X0057650Y0205141D02*
X0069250Y0205141D01*
X0069250Y0205640D02*
X0057650Y0205640D01*
X0057650Y0206138D02*
X0069250Y0206138D01*
X0069250Y0206637D02*
X0057650Y0206637D01*
X0057650Y0207135D02*
X0069250Y0207135D01*
X0069250Y0207634D02*
X0057650Y0207634D01*
X0057280Y0208132D02*
X0069250Y0208132D01*
X0069250Y0208631D02*
X0056781Y0208631D01*
X0056283Y0209129D02*
X0069250Y0209129D01*
X0069250Y0209628D02*
X0055784Y0209628D01*
X0057026Y0214114D02*
X0060389Y0214114D01*
X0060888Y0214613D02*
X0057525Y0214613D01*
X0057650Y0215111D02*
X0061386Y0215111D01*
X0061885Y0215610D02*
X0057650Y0215610D01*
X0057650Y0216108D02*
X0062384Y0216108D01*
X0062882Y0216607D02*
X0057650Y0216607D01*
X0057650Y0217105D02*
X0063381Y0217105D01*
X0063879Y0217604D02*
X0057650Y0217604D01*
X0057309Y0218102D02*
X0064378Y0218102D01*
X0064876Y0218601D02*
X0056811Y0218601D01*
X0056312Y0219099D02*
X0065375Y0219099D01*
X0065873Y0219598D02*
X0055814Y0219598D01*
X0054351Y0210126D02*
X0068429Y0210126D01*
X0067931Y0210625D02*
X0061850Y0210625D01*
X0062348Y0211123D02*
X0067432Y0211123D01*
X0067089Y0211622D02*
X0062847Y0211622D01*
X0063345Y0212120D02*
X0066883Y0212120D01*
X0066676Y0212619D02*
X0063844Y0212619D01*
X0064342Y0213117D02*
X0066530Y0213117D01*
X0066530Y0213616D02*
X0064841Y0213616D01*
X0065339Y0214114D02*
X0066530Y0214114D01*
X0066530Y0214613D02*
X0065838Y0214613D01*
X0066336Y0215111D02*
X0066690Y0215111D01*
X0066835Y0215610D02*
X0066897Y0215610D01*
X0066372Y0220096D02*
X0036321Y0220096D01*
X0035823Y0219598D02*
X0042186Y0219598D01*
X0042488Y0219900D02*
X0040350Y0217762D01*
X0040350Y0216500D01*
X0043750Y0216500D01*
X0043750Y0219900D01*
X0042488Y0219900D01*
X0041688Y0219099D02*
X0035324Y0219099D01*
X0034826Y0218601D02*
X0041189Y0218601D01*
X0040691Y0218102D02*
X0034327Y0218102D01*
X0033829Y0217604D02*
X0040350Y0217604D01*
X0040350Y0217105D02*
X0033330Y0217105D01*
X0032832Y0216607D02*
X0040350Y0216607D01*
X0040350Y0216000D02*
X0040350Y0214738D01*
X0042488Y0212600D01*
X0043750Y0212600D01*
X0043750Y0216000D01*
X0044250Y0216000D01*
X0044250Y0216500D01*
X0047650Y0216500D01*
X0047650Y0217762D01*
X0045512Y0219900D01*
X0044250Y0219900D01*
X0044250Y0216500D01*
X0043750Y0216500D01*
X0043750Y0216000D01*
X0040350Y0216000D01*
X0040350Y0215610D02*
X0031835Y0215610D01*
X0031861Y0215111D02*
X0040350Y0215111D01*
X0040475Y0214613D02*
X0032022Y0214613D01*
X0032022Y0214114D02*
X0040974Y0214114D01*
X0041472Y0213616D02*
X0032022Y0213616D01*
X0032022Y0213117D02*
X0041971Y0213117D01*
X0042469Y0212619D02*
X0031875Y0212619D01*
X0031668Y0212120D02*
X0051395Y0212120D01*
X0050897Y0211622D02*
X0032103Y0211622D01*
X0032602Y0211123D02*
X0050398Y0211123D01*
X0049900Y0210625D02*
X0033100Y0210625D01*
X0033599Y0210126D02*
X0049401Y0210126D01*
X0048903Y0209628D02*
X0045784Y0209628D01*
X0046283Y0209129D02*
X0048404Y0209129D01*
X0047906Y0208631D02*
X0046781Y0208631D01*
X0047280Y0208132D02*
X0047407Y0208132D01*
X0048867Y0204643D02*
X0050445Y0204643D01*
X0050350Y0205141D02*
X0049366Y0205141D01*
X0049864Y0205640D02*
X0050350Y0205640D01*
X0050944Y0204144D02*
X0047056Y0204144D01*
X0048079Y0203646D02*
X0051443Y0203646D01*
X0051941Y0203147D02*
X0048578Y0203147D01*
X0048750Y0202975D02*
X0048750Y0202975D01*
X0049076Y0202649D02*
X0052440Y0202649D01*
X0050956Y0191681D02*
X0035750Y0191681D01*
X0035750Y0191183D02*
X0050458Y0191183D01*
X0049959Y0190684D02*
X0035750Y0190684D01*
X0035750Y0190186D02*
X0049461Y0190186D01*
X0048962Y0189687D02*
X0045725Y0189687D01*
X0046223Y0189189D02*
X0048464Y0189189D01*
X0047965Y0188690D02*
X0046722Y0188690D01*
X0047220Y0188192D02*
X0047467Y0188192D01*
X0048927Y0184702D02*
X0049977Y0184702D01*
X0050350Y0185201D02*
X0049426Y0185201D01*
X0049924Y0185699D02*
X0050350Y0185699D01*
X0049479Y0184204D02*
X0047116Y0184204D01*
X0046617Y0183705D02*
X0048980Y0183705D01*
X0048482Y0183207D02*
X0046119Y0183207D01*
X0045620Y0182708D02*
X0047983Y0182708D01*
X0047485Y0182210D02*
X0035750Y0182210D01*
X0035750Y0182708D02*
X0042380Y0182708D01*
X0041881Y0183207D02*
X0035750Y0183207D01*
X0035750Y0183705D02*
X0041383Y0183705D01*
X0040884Y0184204D02*
X0035750Y0184204D01*
X0035750Y0184702D02*
X0040386Y0184702D01*
X0040350Y0185201D02*
X0035750Y0185201D01*
X0035750Y0185699D02*
X0040350Y0185699D01*
X0040350Y0186198D02*
X0035750Y0186198D01*
X0035750Y0186696D02*
X0040350Y0186696D01*
X0040350Y0187195D02*
X0035750Y0187195D01*
X0035750Y0187693D02*
X0040350Y0187693D01*
X0040780Y0188192D02*
X0035750Y0188192D01*
X0035750Y0188690D02*
X0041278Y0188690D01*
X0041777Y0189189D02*
X0035750Y0189189D01*
X0035750Y0189687D02*
X0042275Y0189687D01*
X0046986Y0181711D02*
X0035750Y0181711D01*
X0035750Y0181213D02*
X0046488Y0181213D01*
X0046250Y0180714D02*
X0035750Y0180714D01*
X0035750Y0180216D02*
X0046250Y0180216D01*
X0046250Y0179717D02*
X0035750Y0179717D01*
X0035750Y0179219D02*
X0046250Y0179219D01*
X0046250Y0178720D02*
X0035750Y0178720D01*
X0035750Y0178222D02*
X0046250Y0178222D01*
X0046250Y0177723D02*
X0035750Y0177723D01*
X0035750Y0177224D02*
X0043261Y0177224D01*
X0043750Y0177224D02*
X0044250Y0177224D01*
X0044739Y0177224D02*
X0046250Y0177224D01*
X0046250Y0176726D02*
X0045966Y0176726D01*
X0044250Y0176726D02*
X0043750Y0176726D01*
X0043750Y0176227D02*
X0044250Y0176227D01*
X0044250Y0175729D02*
X0043750Y0175729D01*
X0043750Y0175230D02*
X0044250Y0175230D01*
X0044250Y0174732D02*
X0043750Y0174732D01*
X0043750Y0174233D02*
X0044250Y0174233D01*
X0044250Y0173735D02*
X0043750Y0173735D01*
X0043750Y0173236D02*
X0044250Y0173236D01*
X0044250Y0172738D02*
X0043750Y0172738D01*
X0043750Y0172239D02*
X0044250Y0172239D01*
X0044250Y0171741D02*
X0043750Y0171741D01*
X0043750Y0171242D02*
X0037650Y0171242D01*
X0037650Y0170744D02*
X0040350Y0170744D01*
X0040350Y0171000D02*
X0040350Y0168490D01*
X0040490Y0167785D01*
X0040765Y0167121D01*
X0041165Y0166523D01*
X0041673Y0166015D01*
X0042271Y0165615D01*
X0042935Y0165340D01*
X0043640Y0165200D01*
X0043750Y0165200D01*
X0043750Y0171000D01*
X0040350Y0171000D01*
X0040350Y0171741D02*
X0037650Y0171741D01*
X0037650Y0172239D02*
X0040350Y0172239D01*
X0040350Y0172738D02*
X0037650Y0172738D01*
X0037650Y0173236D02*
X0040350Y0173236D01*
X0040350Y0173735D02*
X0037650Y0173735D01*
X0037650Y0174233D02*
X0040395Y0174233D01*
X0040497Y0174732D02*
X0037503Y0174732D01*
X0037296Y0175230D02*
X0040704Y0175230D01*
X0040999Y0175729D02*
X0037083Y0175729D01*
X0036584Y0176227D02*
X0041416Y0176227D01*
X0042034Y0176726D02*
X0036086Y0176726D01*
X0037650Y0170245D02*
X0040350Y0170245D01*
X0040350Y0169747D02*
X0037650Y0169747D01*
X0037650Y0169248D02*
X0040350Y0169248D01*
X0040350Y0168750D02*
X0037650Y0168750D01*
X0037650Y0168251D02*
X0040398Y0168251D01*
X0040504Y0167753D02*
X0037496Y0167753D01*
X0037290Y0167254D02*
X0040710Y0167254D01*
X0041009Y0166756D02*
X0037068Y0166756D01*
X0036569Y0166257D02*
X0041431Y0166257D01*
X0042057Y0165759D02*
X0036071Y0165759D01*
X0034871Y0165260D02*
X0043338Y0165260D01*
X0043750Y0165260D02*
X0044250Y0165260D01*
X0044662Y0165260D02*
X0046250Y0165260D01*
X0046250Y0165759D02*
X0045943Y0165759D01*
X0044250Y0165759D02*
X0043750Y0165759D01*
X0043750Y0166257D02*
X0044250Y0166257D01*
X0044250Y0166756D02*
X0043750Y0166756D01*
X0043750Y0167254D02*
X0044250Y0167254D01*
X0044250Y0167753D02*
X0043750Y0167753D01*
X0043750Y0168251D02*
X0044250Y0168251D01*
X0044250Y0168750D02*
X0043750Y0168750D01*
X0043750Y0169248D02*
X0044250Y0169248D01*
X0044250Y0169747D02*
X0043750Y0169747D01*
X0043750Y0170245D02*
X0044250Y0170245D01*
X0044250Y0170744D02*
X0043750Y0170744D01*
X0043750Y0146815D02*
X0044250Y0146815D01*
X0044250Y0146317D02*
X0043750Y0146317D01*
X0043750Y0145818D02*
X0044250Y0145818D01*
X0044250Y0145320D02*
X0043750Y0145320D01*
X0043750Y0144821D02*
X0044250Y0144821D01*
X0044250Y0144323D02*
X0043750Y0144323D01*
X0043750Y0143824D02*
X0044250Y0143824D01*
X0044250Y0143326D02*
X0043750Y0143326D01*
X0043750Y0142827D02*
X0044250Y0142827D01*
X0044250Y0142329D02*
X0043750Y0142329D01*
X0043750Y0141830D02*
X0044250Y0141830D01*
X0045833Y0146815D02*
X0046250Y0146815D01*
X0046250Y0135848D02*
X0046077Y0135848D01*
X0046250Y0135350D02*
X0045087Y0135350D01*
X0045788Y0131860D02*
X0046250Y0131860D01*
X0042805Y0120394D02*
X0035195Y0120394D01*
X0036144Y0120893D02*
X0041795Y0120893D01*
X0041297Y0121391D02*
X0036703Y0121391D01*
X0037080Y0121890D02*
X0040861Y0121890D01*
X0040655Y0122388D02*
X0037345Y0122388D01*
X0037530Y0122887D02*
X0040448Y0122887D01*
X0040350Y0123385D02*
X0037629Y0123385D01*
X0037650Y0123884D02*
X0040350Y0123884D01*
X0040350Y0124382D02*
X0037650Y0124382D01*
X0037650Y0124881D02*
X0040350Y0124881D01*
X0040350Y0125379D02*
X0037650Y0125379D01*
X0037650Y0125878D02*
X0040350Y0125878D01*
X0043171Y0119896D02*
X0020121Y0119896D01*
X0020619Y0120394D02*
X0022805Y0120394D01*
X0021795Y0120893D02*
X0021118Y0120893D01*
X0020156Y0124881D02*
X0006218Y0124881D01*
X0006218Y0125379D02*
X0020350Y0125379D01*
X0020350Y0125878D02*
X0006218Y0125878D01*
X0006218Y0126376D02*
X0020350Y0126376D01*
X0020350Y0126875D02*
X0006218Y0126875D01*
X0006218Y0127373D02*
X0020350Y0127373D01*
X0020350Y0127872D02*
X0006218Y0127872D01*
X0006218Y0128370D02*
X0020350Y0128370D01*
X0020350Y0128869D02*
X0006218Y0128869D01*
X0006218Y0129367D02*
X0020350Y0129367D01*
X0020553Y0129866D02*
X0006218Y0129866D01*
X0006218Y0130364D02*
X0020759Y0130364D01*
X0021051Y0130863D02*
X0006218Y0130863D01*
X0006218Y0131361D02*
X0021550Y0131361D01*
X0022212Y0131860D02*
X0006218Y0131860D01*
X0006218Y0132358D02*
X0022250Y0132358D01*
X0021918Y0132857D02*
X0006218Y0132857D01*
X0006218Y0133355D02*
X0021420Y0133355D01*
X0020921Y0133854D02*
X0006218Y0133854D01*
X0006218Y0134353D02*
X0020423Y0134353D01*
X0019657Y0124382D02*
X0006218Y0124382D01*
X0006218Y0123884D02*
X0019159Y0123884D01*
X0018660Y0123385D02*
X0006218Y0123385D01*
X0006218Y0122887D02*
X0018162Y0122887D01*
X0017663Y0122388D02*
X0006218Y0122388D01*
X0006218Y0121890D02*
X0017165Y0121890D01*
X0016666Y0121391D02*
X0006218Y0121391D01*
X0006218Y0120893D02*
X0016168Y0120893D01*
X0015669Y0120394D02*
X0006218Y0120394D01*
X0006218Y0119896D02*
X0012484Y0119896D01*
X0011985Y0119397D02*
X0006218Y0119397D01*
X0006218Y0118899D02*
X0011487Y0118899D01*
X0010988Y0118400D02*
X0006218Y0118400D01*
X0006218Y0117902D02*
X0010490Y0117902D01*
X0010350Y0117403D02*
X0006218Y0117403D01*
X0006218Y0116905D02*
X0010350Y0116905D01*
X0010350Y0116406D02*
X0006218Y0116406D01*
X0006218Y0115908D02*
X0010350Y0115908D01*
X0010350Y0115409D02*
X0006218Y0115409D01*
X0006218Y0114911D02*
X0010350Y0114911D01*
X0010676Y0114412D02*
X0006218Y0114412D01*
X0006218Y0113914D02*
X0011175Y0113914D01*
X0011673Y0113415D02*
X0006218Y0113415D01*
X0006218Y0112917D02*
X0012172Y0112917D01*
X0012488Y0109900D02*
X0010350Y0107762D01*
X0010350Y0106500D01*
X0013750Y0106500D01*
X0013750Y0109900D01*
X0012488Y0109900D01*
X0012015Y0109427D02*
X0006218Y0109427D01*
X0006218Y0109925D02*
X0033201Y0109925D01*
X0032702Y0109427D02*
X0015985Y0109427D01*
X0015512Y0109900D02*
X0014250Y0109900D01*
X0014250Y0106500D01*
X0013750Y0106500D01*
X0013750Y0106000D01*
X0010350Y0106000D01*
X0010350Y0104738D01*
X0012488Y0102600D01*
X0013750Y0102600D01*
X0013750Y0106000D01*
X0014250Y0106000D01*
X0014250Y0106500D01*
X0017650Y0106500D01*
X0017650Y0107762D01*
X0015512Y0109900D01*
X0016483Y0108928D02*
X0032250Y0108928D01*
X0032250Y0108430D02*
X0016982Y0108430D01*
X0017480Y0107931D02*
X0032250Y0107931D01*
X0032250Y0107433D02*
X0017650Y0107433D01*
X0017650Y0106934D02*
X0032250Y0106934D01*
X0032250Y0106436D02*
X0014250Y0106436D01*
X0014250Y0106000D02*
X0017650Y0106000D01*
X0017650Y0104738D01*
X0015512Y0102600D01*
X0014250Y0102600D01*
X0014250Y0106000D01*
X0014250Y0105937D02*
X0013750Y0105937D01*
X0013750Y0105439D02*
X0014250Y0105439D01*
X0014250Y0104940D02*
X0013750Y0104940D01*
X0013750Y0104442D02*
X0014250Y0104442D01*
X0014250Y0103943D02*
X0013750Y0103943D01*
X0013750Y0103445D02*
X0014250Y0103445D01*
X0014250Y0102946D02*
X0013750Y0102946D01*
X0012142Y0102946D02*
X0006218Y0102946D01*
X0006218Y0102448D02*
X0032250Y0102448D01*
X0032250Y0102946D02*
X0015858Y0102946D01*
X0016357Y0103445D02*
X0032250Y0103445D01*
X0032250Y0103943D02*
X0016855Y0103943D01*
X0017354Y0104442D02*
X0032250Y0104442D01*
X0032250Y0104940D02*
X0017650Y0104940D01*
X0017650Y0105439D02*
X0032250Y0105439D01*
X0032250Y0105937D02*
X0017650Y0105937D01*
X0015828Y0112917D02*
X0036192Y0112917D01*
X0036690Y0113415D02*
X0016327Y0113415D01*
X0016825Y0113914D02*
X0037189Y0113914D01*
X0037687Y0114412D02*
X0017324Y0114412D01*
X0017650Y0114911D02*
X0038186Y0114911D01*
X0038684Y0115409D02*
X0017650Y0115409D01*
X0017650Y0115908D02*
X0039183Y0115908D01*
X0039681Y0116406D02*
X0017650Y0116406D01*
X0017650Y0116905D02*
X0040180Y0116905D01*
X0040678Y0117403D02*
X0017650Y0117403D01*
X0018127Y0117902D02*
X0041177Y0117902D01*
X0041675Y0118400D02*
X0018625Y0118400D01*
X0019124Y0118899D02*
X0042174Y0118899D01*
X0042672Y0119397D02*
X0019622Y0119397D01*
X0014250Y0109427D02*
X0013750Y0109427D01*
X0013750Y0108928D02*
X0014250Y0108928D01*
X0014250Y0108430D02*
X0013750Y0108430D01*
X0013750Y0107931D02*
X0014250Y0107931D01*
X0014250Y0107433D02*
X0013750Y0107433D01*
X0013750Y0106934D02*
X0014250Y0106934D01*
X0013750Y0106436D02*
X0006218Y0106436D01*
X0006218Y0106934D02*
X0010350Y0106934D01*
X0010350Y0107433D02*
X0006218Y0107433D01*
X0006218Y0107931D02*
X0010520Y0107931D01*
X0011018Y0108430D02*
X0006218Y0108430D01*
X0006218Y0108928D02*
X0011517Y0108928D01*
X0010350Y0105937D02*
X0006218Y0105937D01*
X0006218Y0105439D02*
X0010350Y0105439D01*
X0010350Y0104940D02*
X0006218Y0104940D01*
X0006218Y0104442D02*
X0010646Y0104442D01*
X0011145Y0103943D02*
X0006218Y0103943D01*
X0006218Y0103445D02*
X0011643Y0103445D01*
X0006218Y0101949D02*
X0022427Y0101949D01*
X0021639Y0101451D02*
X0006218Y0101451D01*
X0006218Y0100952D02*
X0021140Y0100952D01*
X0020796Y0100454D02*
X0006218Y0100454D01*
X0006218Y0099955D02*
X0020590Y0099955D01*
X0020383Y0099457D02*
X0006218Y0099457D01*
X0006218Y0098958D02*
X0020350Y0098958D01*
X0020350Y0098460D02*
X0006218Y0098460D01*
X0006218Y0097961D02*
X0020350Y0097961D01*
X0020350Y0097463D02*
X0006218Y0097463D01*
X0006218Y0096964D02*
X0020350Y0096964D01*
X0020350Y0096466D02*
X0006218Y0096466D01*
X0006218Y0095967D02*
X0020350Y0095967D01*
X0020350Y0095469D02*
X0006218Y0095469D01*
X0006218Y0094970D02*
X0020350Y0094970D01*
X0020350Y0094472D02*
X0006218Y0094472D01*
X0006218Y0093973D02*
X0020350Y0093973D01*
X0020350Y0093475D02*
X0006218Y0093475D01*
X0006218Y0092976D02*
X0020411Y0092976D01*
X0020618Y0092478D02*
X0006218Y0092478D01*
X0006218Y0091979D02*
X0020824Y0091979D01*
X0021208Y0091481D02*
X0006218Y0091481D01*
X0006218Y0090982D02*
X0021706Y0090982D01*
X0022589Y0090484D02*
X0006218Y0090484D01*
X0006218Y0089985D02*
X0029790Y0089985D01*
X0029292Y0090484D02*
X0025411Y0090484D01*
X0026294Y0090982D02*
X0028793Y0090982D01*
X0028295Y0091481D02*
X0026792Y0091481D01*
X0027176Y0091979D02*
X0027796Y0091979D01*
X0028758Y0095967D02*
X0030350Y0095967D01*
X0030350Y0095469D02*
X0029256Y0095469D01*
X0029755Y0094970D02*
X0030350Y0094970D01*
X0030350Y0094472D02*
X0030253Y0094472D01*
X0030350Y0096466D02*
X0028259Y0096466D01*
X0027761Y0096964D02*
X0030350Y0096964D01*
X0030350Y0097463D02*
X0027650Y0097463D01*
X0027650Y0097961D02*
X0030350Y0097961D01*
X0030350Y0098460D02*
X0027650Y0098460D01*
X0027650Y0098958D02*
X0030350Y0098958D01*
X0030383Y0099457D02*
X0027617Y0099457D01*
X0027410Y0099955D02*
X0030590Y0099955D01*
X0030796Y0100454D02*
X0027204Y0100454D01*
X0026860Y0100952D02*
X0031140Y0100952D01*
X0031639Y0101451D02*
X0026361Y0101451D01*
X0025573Y0101949D02*
X0032250Y0101949D01*
X0033699Y0110424D02*
X0006218Y0110424D01*
X0006218Y0110922D02*
X0034198Y0110922D01*
X0034696Y0111421D02*
X0006218Y0111421D01*
X0006218Y0111920D02*
X0035195Y0111920D01*
X0035693Y0112418D02*
X0006218Y0112418D01*
X0006218Y0089487D02*
X0030289Y0089487D01*
X0030787Y0088988D02*
X0006218Y0088988D01*
X0006218Y0088489D02*
X0031286Y0088489D01*
X0031784Y0087991D02*
X0006218Y0087991D01*
X0006218Y0087492D02*
X0048250Y0087492D01*
X0048250Y0086994D02*
X0006218Y0086994D01*
X0006218Y0086495D02*
X0048250Y0086495D01*
X0048250Y0085997D02*
X0006218Y0085997D01*
X0006218Y0085498D02*
X0048250Y0085498D01*
X0048250Y0085000D02*
X0006218Y0085000D01*
X0006218Y0084501D02*
X0042090Y0084501D01*
X0042488Y0084900D02*
X0040588Y0083000D01*
X0036275Y0083000D01*
X0031761Y0078486D01*
X0032022Y0079115D01*
X0032022Y0080865D01*
X0031352Y0082482D01*
X0030114Y0083720D01*
X0028497Y0084390D01*
X0026747Y0084390D01*
X0025130Y0083720D01*
X0023892Y0082482D01*
X0023222Y0080865D01*
X0023222Y0079115D01*
X0023892Y0077498D01*
X0025130Y0076260D01*
X0025630Y0076053D01*
X0025130Y0075846D01*
X0023892Y0074608D01*
X0023222Y0072991D01*
X0023222Y0071241D01*
X0023892Y0069624D01*
X0025130Y0068386D01*
X0025645Y0068173D01*
X0025316Y0068005D01*
X0024756Y0067598D01*
X0024266Y0067108D01*
X0023859Y0066548D01*
X0023545Y0065931D01*
X0023331Y0065272D01*
X0023222Y0064588D01*
X0023222Y0064492D01*
X0027372Y0064492D01*
X0027372Y0063992D01*
X0023222Y0063992D01*
X0023222Y0063896D01*
X0023331Y0063212D01*
X0023545Y0062553D01*
X0023859Y0061936D01*
X0024266Y0061376D01*
X0024756Y0060886D01*
X0025316Y0060479D01*
X0025645Y0060311D01*
X0025130Y0060098D01*
X0023892Y0058860D01*
X0023222Y0057243D01*
X0023222Y0055493D01*
X0023892Y0053876D01*
X0025130Y0052638D01*
X0026747Y0051969D01*
X0028497Y0051969D01*
X0030114Y0052638D01*
X0031352Y0053876D01*
X0032022Y0055493D01*
X0032022Y0057243D01*
X0031352Y0058860D01*
X0030114Y0060098D01*
X0029599Y0060311D01*
X0029928Y0060479D01*
X0030488Y0060886D01*
X0030978Y0061376D01*
X0031385Y0061936D01*
X0031699Y0062553D01*
X0031913Y0063212D01*
X0032022Y0063896D01*
X0032022Y0063992D01*
X0027872Y0063992D01*
X0027872Y0064492D01*
X0032022Y0064492D01*
X0032022Y0064588D01*
X0031913Y0065272D01*
X0031699Y0065931D01*
X0031385Y0066548D01*
X0030978Y0067108D01*
X0030488Y0067598D01*
X0029928Y0068005D01*
X0029599Y0068173D01*
X0030114Y0068386D01*
X0031352Y0069624D01*
X0032022Y0071241D01*
X0032022Y0072991D01*
X0031786Y0073561D01*
X0037725Y0079500D01*
X0040588Y0079500D01*
X0042488Y0077600D01*
X0045512Y0077600D01*
X0047650Y0079738D01*
X0047650Y0082762D01*
X0045512Y0084900D01*
X0042488Y0084900D01*
X0041591Y0084003D02*
X0029431Y0084003D01*
X0030330Y0083504D02*
X0041093Y0083504D01*
X0040594Y0083006D02*
X0030828Y0083006D01*
X0031327Y0082507D02*
X0035782Y0082507D01*
X0035284Y0082009D02*
X0031548Y0082009D01*
X0031754Y0081510D02*
X0034785Y0081510D01*
X0034287Y0081012D02*
X0031961Y0081012D01*
X0032022Y0080513D02*
X0033788Y0080513D01*
X0033290Y0080015D02*
X0032022Y0080015D01*
X0032022Y0079516D02*
X0032791Y0079516D01*
X0032293Y0079018D02*
X0031981Y0079018D01*
X0031794Y0078519D02*
X0031775Y0078519D01*
X0033255Y0075030D02*
X0048745Y0075030D01*
X0048250Y0075528D02*
X0033753Y0075528D01*
X0034252Y0076027D02*
X0048250Y0076027D01*
X0048250Y0076525D02*
X0034750Y0076525D01*
X0035249Y0077024D02*
X0048250Y0077024D01*
X0048250Y0077522D02*
X0035747Y0077522D01*
X0036246Y0078021D02*
X0042067Y0078021D01*
X0041569Y0078519D02*
X0036744Y0078519D01*
X0037243Y0079018D02*
X0041070Y0079018D01*
X0042584Y0074531D02*
X0032756Y0074531D01*
X0032258Y0074033D02*
X0041821Y0074033D01*
X0041322Y0073534D02*
X0031797Y0073534D01*
X0032003Y0073036D02*
X0040989Y0073036D01*
X0040782Y0072537D02*
X0032022Y0072537D01*
X0032022Y0072039D02*
X0040576Y0072039D01*
X0040550Y0071540D02*
X0032022Y0071540D01*
X0031939Y0071042D02*
X0040550Y0071042D01*
X0040550Y0070543D02*
X0031733Y0070543D01*
X0031526Y0070045D02*
X0040749Y0070045D01*
X0040955Y0069546D02*
X0031274Y0069546D01*
X0030775Y0069048D02*
X0041241Y0069048D01*
X0041739Y0068549D02*
X0030277Y0068549D01*
X0029839Y0068051D02*
X0042386Y0068051D01*
X0042655Y0064561D02*
X0032022Y0064561D01*
X0031947Y0065059D02*
X0050335Y0065059D01*
X0050833Y0065558D02*
X0031821Y0065558D01*
X0031635Y0066056D02*
X0051250Y0066056D01*
X0051250Y0066555D02*
X0031380Y0066555D01*
X0031018Y0067053D02*
X0051250Y0067053D01*
X0051250Y0067552D02*
X0030534Y0067552D01*
X0031969Y0063564D02*
X0041352Y0063564D01*
X0041001Y0063065D02*
X0031866Y0063065D01*
X0031704Y0062567D02*
X0040795Y0062567D01*
X0040588Y0062068D02*
X0031452Y0062068D01*
X0031119Y0061570D02*
X0040550Y0061570D01*
X0040550Y0061071D02*
X0030673Y0061071D01*
X0030057Y0060573D02*
X0040550Y0060573D01*
X0040736Y0060074D02*
X0030138Y0060074D01*
X0030636Y0059576D02*
X0040943Y0059576D01*
X0041211Y0059077D02*
X0031135Y0059077D01*
X0031468Y0058579D02*
X0041709Y0058579D01*
X0042314Y0058080D02*
X0031675Y0058080D01*
X0031881Y0057582D02*
X0041857Y0057582D01*
X0041358Y0057083D02*
X0032022Y0057083D01*
X0032022Y0056585D02*
X0040860Y0056585D01*
X0040361Y0056086D02*
X0032022Y0056086D01*
X0032022Y0055588D02*
X0039863Y0055588D01*
X0039364Y0055089D02*
X0031854Y0055089D01*
X0031648Y0054591D02*
X0038866Y0054591D01*
X0038367Y0054092D02*
X0031441Y0054092D01*
X0031070Y0053594D02*
X0037869Y0053594D01*
X0037370Y0053095D02*
X0030571Y0053095D01*
X0030014Y0052597D02*
X0037250Y0052597D01*
X0037250Y0052098D02*
X0028810Y0052098D01*
X0026434Y0052098D02*
X0006218Y0052098D01*
X0006218Y0051600D02*
X0037250Y0051600D01*
X0037250Y0051101D02*
X0006218Y0051101D01*
X0006218Y0050603D02*
X0037250Y0050603D01*
X0037250Y0050104D02*
X0006218Y0050104D01*
X0006218Y0049606D02*
X0037250Y0049606D01*
X0037250Y0049107D02*
X0006218Y0049107D01*
X0006218Y0048609D02*
X0037250Y0048609D01*
X0037250Y0048110D02*
X0006218Y0048110D01*
X0006218Y0047612D02*
X0037250Y0047612D01*
X0037250Y0047113D02*
X0006218Y0047113D01*
X0006218Y0046615D02*
X0037250Y0046615D01*
X0037250Y0046116D02*
X0006218Y0046116D01*
X0006218Y0045618D02*
X0037250Y0045618D01*
X0037250Y0045119D02*
X0006218Y0045119D01*
X0006218Y0044620D02*
X0025782Y0044620D01*
X0025933Y0044697D02*
X0025316Y0044383D01*
X0024756Y0043976D01*
X0024266Y0043486D01*
X0023859Y0042926D01*
X0023545Y0042309D01*
X0023331Y0041650D01*
X0023222Y0040966D01*
X0023222Y0040870D01*
X0027372Y0040870D01*
X0027372Y0040370D01*
X0023222Y0040370D01*
X0023222Y0040274D01*
X0023331Y0039590D01*
X0023545Y0038931D01*
X0023859Y0038314D01*
X0024266Y0037754D01*
X0024756Y0037264D01*
X0025316Y0036857D01*
X0025645Y0036689D01*
X0025130Y0036476D01*
X0023892Y0035238D01*
X0023222Y0033621D01*
X0023222Y0031871D01*
X0023892Y0030254D01*
X0025130Y0029016D01*
X0026747Y0028346D01*
X0028497Y0028346D01*
X0030114Y0029016D01*
X0031352Y0030254D01*
X0032022Y0031871D01*
X0032022Y0033621D01*
X0031352Y0035238D01*
X0030114Y0036476D01*
X0029599Y0036689D01*
X0029928Y0036857D01*
X0030488Y0037264D01*
X0030978Y0037754D01*
X0031385Y0038314D01*
X0031699Y0038931D01*
X0031913Y0039590D01*
X0032022Y0040274D01*
X0032022Y0040370D01*
X0027872Y0040370D01*
X0027872Y0040870D01*
X0032022Y0040870D01*
X0032022Y0040966D01*
X0031913Y0041650D01*
X0031699Y0042309D01*
X0031385Y0042926D01*
X0030978Y0043486D01*
X0030488Y0043976D01*
X0029928Y0044383D01*
X0029311Y0044697D01*
X0028652Y0044911D01*
X0027968Y0045020D01*
X0027872Y0045020D01*
X0027872Y0040870D01*
X0027372Y0040870D01*
X0027372Y0045020D01*
X0027276Y0045020D01*
X0026592Y0044911D01*
X0025933Y0044697D01*
X0024957Y0044122D02*
X0006218Y0044122D01*
X0006218Y0043623D02*
X0024403Y0043623D01*
X0024004Y0043125D02*
X0006218Y0043125D01*
X0006218Y0042626D02*
X0023707Y0042626D01*
X0023486Y0042128D02*
X0006218Y0042128D01*
X0006218Y0041629D02*
X0023327Y0041629D01*
X0023249Y0041131D02*
X0006218Y0041131D01*
X0006218Y0040632D02*
X0027372Y0040632D01*
X0027372Y0041131D02*
X0027872Y0041131D01*
X0027872Y0041629D02*
X0027372Y0041629D01*
X0027372Y0042128D02*
X0027872Y0042128D01*
X0027872Y0042626D02*
X0027372Y0042626D01*
X0027372Y0043125D02*
X0027872Y0043125D01*
X0027872Y0043623D02*
X0027372Y0043623D01*
X0027372Y0044122D02*
X0027872Y0044122D01*
X0027872Y0044620D02*
X0027372Y0044620D01*
X0027872Y0040632D02*
X0037250Y0040632D01*
X0037250Y0040134D02*
X0031999Y0040134D01*
X0031921Y0039635D02*
X0037250Y0039635D01*
X0037250Y0039137D02*
X0031766Y0039137D01*
X0031550Y0038638D02*
X0037250Y0038638D01*
X0037250Y0038140D02*
X0031258Y0038140D01*
X0030865Y0037641D02*
X0037250Y0037641D01*
X0037250Y0037143D02*
X0030321Y0037143D01*
X0029708Y0036644D02*
X0037250Y0036644D01*
X0037250Y0036146D02*
X0030444Y0036146D01*
X0030943Y0035647D02*
X0037250Y0035647D01*
X0037250Y0035149D02*
X0031389Y0035149D01*
X0031595Y0034650D02*
X0037250Y0034650D01*
X0037250Y0034152D02*
X0031802Y0034152D01*
X0032008Y0033653D02*
X0037250Y0033653D01*
X0037250Y0033155D02*
X0032022Y0033155D01*
X0032022Y0032656D02*
X0037250Y0032656D01*
X0037250Y0032158D02*
X0032022Y0032158D01*
X0031934Y0031659D02*
X0037250Y0031659D01*
X0037250Y0031161D02*
X0031727Y0031161D01*
X0031521Y0030662D02*
X0037250Y0030662D01*
X0037250Y0030164D02*
X0031262Y0030164D01*
X0030763Y0029665D02*
X0037250Y0029665D01*
X0037250Y0029167D02*
X0030265Y0029167D01*
X0029274Y0028668D02*
X0037250Y0028668D01*
X0037250Y0028170D02*
X0006218Y0028170D01*
X0006218Y0028668D02*
X0025970Y0028668D01*
X0024979Y0029167D02*
X0006218Y0029167D01*
X0006218Y0029665D02*
X0024481Y0029665D01*
X0023982Y0030164D02*
X0006218Y0030164D01*
X0006218Y0030662D02*
X0023723Y0030662D01*
X0023517Y0031161D02*
X0006218Y0031161D01*
X0006218Y0031659D02*
X0023310Y0031659D01*
X0023222Y0032158D02*
X0006218Y0032158D01*
X0006218Y0032656D02*
X0023222Y0032656D01*
X0023222Y0033155D02*
X0006218Y0033155D01*
X0006218Y0033653D02*
X0023236Y0033653D01*
X0023442Y0034152D02*
X0006218Y0034152D01*
X0006218Y0034650D02*
X0023649Y0034650D01*
X0023855Y0035149D02*
X0006218Y0035149D01*
X0006218Y0035647D02*
X0024301Y0035647D01*
X0024800Y0036146D02*
X0006218Y0036146D01*
X0006218Y0036644D02*
X0025537Y0036644D01*
X0024923Y0037143D02*
X0006218Y0037143D01*
X0006218Y0037641D02*
X0024379Y0037641D01*
X0023986Y0038140D02*
X0006218Y0038140D01*
X0006218Y0038638D02*
X0023694Y0038638D01*
X0023478Y0039137D02*
X0006218Y0039137D01*
X0006218Y0039635D02*
X0023324Y0039635D01*
X0023245Y0040134D02*
X0006218Y0040134D01*
X0006218Y0052597D02*
X0025230Y0052597D01*
X0024673Y0053095D02*
X0006218Y0053095D01*
X0006218Y0053594D02*
X0024174Y0053594D01*
X0023803Y0054092D02*
X0006218Y0054092D01*
X0006218Y0054591D02*
X0023596Y0054591D01*
X0023390Y0055089D02*
X0006218Y0055089D01*
X0006218Y0055588D02*
X0023222Y0055588D01*
X0023222Y0056086D02*
X0006218Y0056086D01*
X0006218Y0056585D02*
X0023222Y0056585D01*
X0023222Y0057083D02*
X0006218Y0057083D01*
X0006218Y0057582D02*
X0023363Y0057582D01*
X0023569Y0058080D02*
X0006218Y0058080D01*
X0006218Y0058579D02*
X0023776Y0058579D01*
X0024109Y0059077D02*
X0006218Y0059077D01*
X0006218Y0059576D02*
X0024608Y0059576D01*
X0025106Y0060074D02*
X0006218Y0060074D01*
X0006218Y0060573D02*
X0025187Y0060573D01*
X0024571Y0061071D02*
X0006218Y0061071D01*
X0006218Y0061570D02*
X0024125Y0061570D01*
X0023792Y0062068D02*
X0006218Y0062068D01*
X0006218Y0062567D02*
X0023540Y0062567D01*
X0023378Y0063065D02*
X0006218Y0063065D01*
X0006218Y0063564D02*
X0023275Y0063564D01*
X0023222Y0064561D02*
X0006218Y0064561D01*
X0006218Y0065059D02*
X0023297Y0065059D01*
X0023424Y0065558D02*
X0006218Y0065558D01*
X0006218Y0066056D02*
X0023609Y0066056D01*
X0023864Y0066555D02*
X0006218Y0066555D01*
X0006218Y0067053D02*
X0024226Y0067053D01*
X0024710Y0067552D02*
X0006218Y0067552D01*
X0006218Y0068051D02*
X0025405Y0068051D01*
X0024967Y0068549D02*
X0006218Y0068549D01*
X0006218Y0069048D02*
X0024469Y0069048D01*
X0023970Y0069546D02*
X0006218Y0069546D01*
X0006218Y0070045D02*
X0023718Y0070045D01*
X0023512Y0070543D02*
X0006218Y0070543D01*
X0006218Y0071042D02*
X0023305Y0071042D01*
X0023222Y0071540D02*
X0006218Y0071540D01*
X0006218Y0072039D02*
X0023222Y0072039D01*
X0023222Y0072537D02*
X0006218Y0072537D01*
X0006218Y0073036D02*
X0023241Y0073036D01*
X0023447Y0073534D02*
X0006218Y0073534D01*
X0006218Y0074033D02*
X0023654Y0074033D01*
X0023860Y0074531D02*
X0006218Y0074531D01*
X0006218Y0075030D02*
X0024314Y0075030D01*
X0024812Y0075528D02*
X0006218Y0075528D01*
X0006218Y0076027D02*
X0025566Y0076027D01*
X0024865Y0076525D02*
X0006218Y0076525D01*
X0006218Y0077024D02*
X0024366Y0077024D01*
X0023882Y0077522D02*
X0006218Y0077522D01*
X0006218Y0078021D02*
X0023676Y0078021D01*
X0023469Y0078519D02*
X0006218Y0078519D01*
X0006218Y0079018D02*
X0023263Y0079018D01*
X0023222Y0079516D02*
X0006218Y0079516D01*
X0006218Y0080015D02*
X0023222Y0080015D01*
X0023222Y0080513D02*
X0006218Y0080513D01*
X0006218Y0081012D02*
X0023283Y0081012D01*
X0023490Y0081510D02*
X0006218Y0081510D01*
X0006218Y0082009D02*
X0023696Y0082009D01*
X0023917Y0082507D02*
X0006218Y0082507D01*
X0006218Y0083006D02*
X0024416Y0083006D01*
X0024914Y0083504D02*
X0006218Y0083504D01*
X0006218Y0084003D02*
X0025813Y0084003D01*
X0027372Y0064062D02*
X0006218Y0064062D01*
X0006218Y0027671D02*
X0037250Y0027671D01*
X0037250Y0027173D02*
X0006218Y0027173D01*
X0006218Y0026674D02*
X0037250Y0026674D01*
X0037250Y0026176D02*
X0006218Y0026176D01*
X0006218Y0025677D02*
X0037250Y0025677D01*
X0037250Y0025179D02*
X0006218Y0025179D01*
X0006218Y0024680D02*
X0035343Y0024680D01*
X0034370Y0024182D02*
X0006218Y0024182D01*
X0006218Y0023683D02*
X0033871Y0023683D01*
X0033451Y0023184D02*
X0006218Y0023184D01*
X0006218Y0022686D02*
X0033244Y0022686D01*
X0033038Y0022187D02*
X0006218Y0022187D01*
X0006218Y0021689D02*
X0032950Y0021689D01*
X0032950Y0021190D02*
X0018443Y0021190D01*
X0017505Y0021579D02*
X0014117Y0021579D01*
X0010986Y0020282D01*
X0008590Y0017886D01*
X0007293Y0014755D01*
X0007293Y0011367D01*
X0008590Y0008236D01*
X0010986Y0005840D01*
X0014117Y0004543D01*
X0017505Y0004543D01*
X0020636Y0005840D01*
X0023032Y0008236D01*
X0024329Y0011367D01*
X0024329Y0014755D01*
X0023032Y0017886D01*
X0020636Y0020282D01*
X0017505Y0021579D01*
X0019646Y0020692D02*
X0032950Y0020692D01*
X0033087Y0020193D02*
X0020724Y0020193D01*
X0021223Y0019695D02*
X0033293Y0019695D01*
X0033500Y0019196D02*
X0021721Y0019196D01*
X0022220Y0018698D02*
X0033990Y0018698D01*
X0034489Y0018199D02*
X0022719Y0018199D01*
X0023109Y0017701D02*
X0035630Y0017701D01*
X0040750Y0025179D02*
X0067250Y0025179D01*
X0067250Y0025677D02*
X0040750Y0025677D01*
X0040750Y0026176D02*
X0067250Y0026176D01*
X0067250Y0026674D02*
X0040750Y0026674D01*
X0040750Y0027173D02*
X0067250Y0027173D01*
X0067250Y0027671D02*
X0065583Y0027671D01*
X0066081Y0028170D02*
X0067250Y0028170D01*
X0067250Y0028668D02*
X0066580Y0028668D01*
X0067078Y0029167D02*
X0067250Y0029167D01*
X0065343Y0024680D02*
X0042657Y0024680D01*
X0043630Y0024182D02*
X0064370Y0024182D01*
X0063871Y0023683D02*
X0044129Y0023683D01*
X0044549Y0023184D02*
X0063451Y0023184D01*
X0063244Y0022686D02*
X0044756Y0022686D01*
X0044962Y0022187D02*
X0063038Y0022187D01*
X0062950Y0021689D02*
X0045050Y0021689D01*
X0045050Y0021190D02*
X0062950Y0021190D01*
X0062950Y0020692D02*
X0045050Y0020692D01*
X0044913Y0020193D02*
X0063087Y0020193D01*
X0063293Y0019695D02*
X0044707Y0019695D01*
X0044500Y0019196D02*
X0063500Y0019196D01*
X0063990Y0018698D02*
X0044010Y0018698D01*
X0043511Y0018199D02*
X0064489Y0018199D01*
X0065630Y0017701D02*
X0042370Y0017701D01*
X0042417Y0027671D02*
X0040750Y0027671D01*
X0040750Y0028170D02*
X0041919Y0028170D01*
X0041420Y0028668D02*
X0040750Y0028668D01*
X0040750Y0029167D02*
X0040921Y0029167D01*
X0040750Y0033653D02*
X0041241Y0033653D01*
X0040750Y0034152D02*
X0041740Y0034152D01*
X0042238Y0034650D02*
X0040750Y0034650D01*
X0040750Y0035149D02*
X0062626Y0035149D01*
X0062238Y0034650D02*
X0045762Y0034650D01*
X0046260Y0034152D02*
X0061740Y0034152D01*
X0061241Y0033653D02*
X0046759Y0033653D01*
X0047257Y0033155D02*
X0060743Y0033155D01*
X0060350Y0032656D02*
X0047650Y0032656D01*
X0047650Y0032158D02*
X0060350Y0032158D01*
X0060350Y0031659D02*
X0047650Y0031659D01*
X0047650Y0031161D02*
X0060350Y0031161D01*
X0060350Y0030662D02*
X0047650Y0030662D01*
X0047650Y0030164D02*
X0060350Y0030164D01*
X0060423Y0029665D02*
X0047577Y0029665D01*
X0047079Y0029167D02*
X0060921Y0029167D01*
X0061420Y0028668D02*
X0046580Y0028668D01*
X0046081Y0028170D02*
X0061919Y0028170D01*
X0062417Y0027671D02*
X0045583Y0027671D01*
X0043374Y0037641D02*
X0040750Y0037641D01*
X0040750Y0037143D02*
X0060632Y0037143D01*
X0060134Y0037641D02*
X0049826Y0037641D01*
X0051029Y0038140D02*
X0059635Y0038140D01*
X0059137Y0038638D02*
X0051550Y0038638D01*
X0052049Y0039137D02*
X0058638Y0039137D01*
X0058140Y0039635D02*
X0052282Y0039635D01*
X0052488Y0040134D02*
X0057641Y0040134D01*
X0057143Y0040632D02*
X0052650Y0040632D01*
X0052650Y0041131D02*
X0056644Y0041131D01*
X0056146Y0041629D02*
X0052650Y0041629D01*
X0052587Y0042128D02*
X0055647Y0042128D01*
X0055149Y0042626D02*
X0052381Y0042626D01*
X0052174Y0043125D02*
X0054650Y0043125D01*
X0054152Y0043623D02*
X0051788Y0043623D01*
X0051290Y0044122D02*
X0053653Y0044122D01*
X0053155Y0044620D02*
X0050401Y0044620D01*
X0051659Y0046116D02*
X0040750Y0046116D01*
X0040750Y0045618D02*
X0052158Y0045618D01*
X0052656Y0045119D02*
X0040750Y0045119D01*
X0040750Y0044620D02*
X0042799Y0044620D01*
X0041910Y0044122D02*
X0040750Y0044122D01*
X0040750Y0043623D02*
X0041412Y0043623D01*
X0041026Y0043125D02*
X0040750Y0043125D01*
X0040750Y0042626D02*
X0040819Y0042626D01*
X0040750Y0039635D02*
X0040918Y0039635D01*
X0040750Y0039137D02*
X0041151Y0039137D01*
X0040750Y0038638D02*
X0041650Y0038638D01*
X0042171Y0038140D02*
X0040750Y0038140D01*
X0040750Y0036644D02*
X0061131Y0036644D01*
X0061629Y0036146D02*
X0040750Y0036146D01*
X0040750Y0035647D02*
X0062128Y0035647D01*
X0063089Y0039635D02*
X0075718Y0039635D01*
X0075906Y0039182D02*
X0075350Y0040524D01*
X0075350Y0041976D01*
X0075906Y0043318D01*
X0076932Y0044344D01*
X0078274Y0044900D01*
X0084526Y0044900D01*
X0085868Y0044344D01*
X0086894Y0043318D01*
X0087450Y0041976D01*
X0087450Y0040524D01*
X0086894Y0039182D01*
X0085868Y0038156D01*
X0084526Y0037600D01*
X0078274Y0037600D01*
X0076932Y0038156D01*
X0075906Y0039182D01*
X0075951Y0039137D02*
X0063588Y0039137D01*
X0064087Y0038638D02*
X0076450Y0038638D01*
X0076971Y0038140D02*
X0064585Y0038140D01*
X0065084Y0037641D02*
X0078174Y0037641D01*
X0075826Y0043125D02*
X0059600Y0043125D01*
X0060098Y0042626D02*
X0075619Y0042626D01*
X0075413Y0042128D02*
X0060597Y0042128D01*
X0061095Y0041629D02*
X0075350Y0041629D01*
X0075350Y0041131D02*
X0061594Y0041131D01*
X0062092Y0040632D02*
X0075350Y0040632D01*
X0075512Y0040134D02*
X0062591Y0040134D01*
X0065582Y0037143D02*
X0092333Y0037143D01*
X0092333Y0037641D02*
X0084626Y0037641D01*
X0085829Y0038140D02*
X0092333Y0038140D01*
X0092333Y0038638D02*
X0086350Y0038638D01*
X0086849Y0039137D02*
X0092333Y0039137D01*
X0092333Y0039635D02*
X0087082Y0039635D01*
X0087288Y0040134D02*
X0092333Y0040134D01*
X0092333Y0040632D02*
X0087450Y0040632D01*
X0087450Y0041131D02*
X0092333Y0041131D01*
X0092333Y0041629D02*
X0087450Y0041629D01*
X0087387Y0042128D02*
X0092333Y0042128D01*
X0092333Y0042626D02*
X0087181Y0042626D01*
X0086974Y0043125D02*
X0092333Y0043125D01*
X0092333Y0043623D02*
X0086588Y0043623D01*
X0086090Y0044122D02*
X0092333Y0044122D01*
X0092333Y0044620D02*
X0085201Y0044620D01*
X0084526Y0047600D02*
X0085868Y0048156D01*
X0086894Y0049182D01*
X0087450Y0050524D01*
X0087450Y0051976D01*
X0086894Y0053318D01*
X0085868Y0054344D01*
X0084526Y0054900D01*
X0078274Y0054900D01*
X0076932Y0054344D01*
X0075906Y0053318D01*
X0075350Y0051976D01*
X0075350Y0050524D01*
X0075906Y0049182D01*
X0076932Y0048156D01*
X0078274Y0047600D01*
X0084526Y0047600D01*
X0084554Y0047612D02*
X0092333Y0047612D01*
X0092333Y0048110D02*
X0085757Y0048110D01*
X0086320Y0048609D02*
X0092333Y0048609D01*
X0092333Y0049107D02*
X0086819Y0049107D01*
X0087070Y0049606D02*
X0092333Y0049606D01*
X0092333Y0050104D02*
X0087276Y0050104D01*
X0087450Y0050603D02*
X0092333Y0050603D01*
X0092333Y0051101D02*
X0087450Y0051101D01*
X0087450Y0051600D02*
X0092333Y0051600D01*
X0092333Y0052098D02*
X0087399Y0052098D01*
X0087193Y0052597D02*
X0092333Y0052597D01*
X0092333Y0053095D02*
X0086986Y0053095D01*
X0086618Y0053594D02*
X0092333Y0053594D01*
X0092333Y0054092D02*
X0086120Y0054092D01*
X0085273Y0054591D02*
X0092333Y0054591D01*
X0092333Y0055089D02*
X0057314Y0055089D01*
X0056816Y0054591D02*
X0077527Y0054591D01*
X0076680Y0054092D02*
X0056317Y0054092D01*
X0055819Y0053594D02*
X0076182Y0053594D01*
X0075814Y0053095D02*
X0055320Y0053095D01*
X0054822Y0052597D02*
X0075607Y0052597D01*
X0075401Y0052098D02*
X0054323Y0052098D01*
X0053824Y0051600D02*
X0075350Y0051600D01*
X0075350Y0051101D02*
X0053326Y0051101D01*
X0052827Y0050603D02*
X0075350Y0050603D01*
X0075524Y0050104D02*
X0052621Y0050104D01*
X0053119Y0049606D02*
X0075730Y0049606D01*
X0075981Y0049107D02*
X0053618Y0049107D01*
X0054116Y0048609D02*
X0076480Y0048609D01*
X0077043Y0048110D02*
X0054615Y0048110D01*
X0055113Y0047612D02*
X0078246Y0047612D01*
X0077599Y0044620D02*
X0058104Y0044620D01*
X0058603Y0044122D02*
X0076710Y0044122D01*
X0076212Y0043623D02*
X0059101Y0043623D01*
X0057606Y0045119D02*
X0092333Y0045119D01*
X0092333Y0045618D02*
X0057107Y0045618D01*
X0056609Y0046116D02*
X0092333Y0046116D01*
X0092333Y0046615D02*
X0056110Y0046615D01*
X0055612Y0047113D02*
X0092333Y0047113D01*
X0092333Y0055588D02*
X0057813Y0055588D01*
X0058311Y0056086D02*
X0092333Y0056086D01*
X0092333Y0056585D02*
X0058810Y0056585D01*
X0059308Y0057083D02*
X0092333Y0057083D01*
X0092333Y0057582D02*
X0059807Y0057582D01*
X0060305Y0058080D02*
X0077114Y0058080D01*
X0076509Y0058579D02*
X0060804Y0058579D01*
X0061302Y0059077D02*
X0076011Y0059077D01*
X0075743Y0059576D02*
X0061801Y0059576D01*
X0062299Y0060074D02*
X0075536Y0060074D01*
X0075350Y0060573D02*
X0062798Y0060573D01*
X0063296Y0061071D02*
X0075350Y0061071D01*
X0075350Y0061570D02*
X0063795Y0061570D01*
X0064293Y0062068D02*
X0075388Y0062068D01*
X0075595Y0062567D02*
X0064792Y0062567D01*
X0065290Y0063065D02*
X0075801Y0063065D01*
X0076152Y0063564D02*
X0065789Y0063564D01*
X0066287Y0064062D02*
X0076651Y0064062D01*
X0077455Y0064561D02*
X0066786Y0064561D01*
X0067284Y0065059D02*
X0080335Y0065059D01*
X0080833Y0065558D02*
X0067783Y0065558D01*
X0068281Y0066056D02*
X0081332Y0066056D01*
X0081830Y0066555D02*
X0068780Y0066555D01*
X0069278Y0067053D02*
X0082329Y0067053D01*
X0082827Y0067552D02*
X0069777Y0067552D01*
X0070275Y0068051D02*
X0077186Y0068051D01*
X0076539Y0068549D02*
X0070774Y0068549D01*
X0071272Y0069048D02*
X0076041Y0069048D01*
X0075755Y0069546D02*
X0071771Y0069546D01*
X0072269Y0070045D02*
X0075549Y0070045D01*
X0075350Y0070543D02*
X0072768Y0070543D01*
X0073266Y0071042D02*
X0075350Y0071042D01*
X0075350Y0071540D02*
X0073765Y0071540D01*
X0074263Y0072039D02*
X0075376Y0072039D01*
X0075582Y0072537D02*
X0074762Y0072537D01*
X0075260Y0073036D02*
X0075789Y0073036D01*
X0075759Y0073534D02*
X0076122Y0073534D01*
X0076258Y0074033D02*
X0076621Y0074033D01*
X0076756Y0074531D02*
X0077384Y0074531D01*
X0077255Y0075030D02*
X0086250Y0075030D01*
X0086250Y0075528D02*
X0077753Y0075528D01*
X0078252Y0076027D02*
X0086250Y0076027D01*
X0086250Y0076525D02*
X0078750Y0076525D01*
X0079249Y0077024D02*
X0085751Y0077024D01*
X0085253Y0077522D02*
X0079747Y0077522D01*
X0079750Y0078021D02*
X0082067Y0078021D01*
X0081569Y0078519D02*
X0079750Y0078519D01*
X0079750Y0079018D02*
X0081070Y0079018D01*
X0080572Y0079516D02*
X0079750Y0079516D01*
X0079750Y0080015D02*
X0080350Y0080015D01*
X0080350Y0080513D02*
X0079750Y0080513D01*
X0080237Y0081012D02*
X0080350Y0081012D01*
X0078777Y0084501D02*
X0075910Y0084501D01*
X0076409Y0084003D02*
X0078278Y0084003D01*
X0077780Y0083504D02*
X0076907Y0083504D01*
X0079275Y0085000D02*
X0062725Y0085000D01*
X0062226Y0085498D02*
X0079774Y0085498D01*
X0080272Y0085997D02*
X0061728Y0085997D01*
X0061229Y0086495D02*
X0080771Y0086495D01*
X0081269Y0086994D02*
X0060731Y0086994D01*
X0060232Y0087492D02*
X0081768Y0087492D01*
X0082266Y0087991D02*
X0059734Y0087991D01*
X0059235Y0088489D02*
X0082765Y0088489D01*
X0083263Y0088988D02*
X0058737Y0088988D01*
X0058238Y0089487D02*
X0083762Y0089487D01*
X0084260Y0089985D02*
X0057740Y0089985D01*
X0057241Y0090484D02*
X0062589Y0090484D01*
X0062271Y0090615D02*
X0062935Y0090340D01*
X0063640Y0090200D01*
X0063750Y0090200D01*
X0063750Y0096000D01*
X0064250Y0096000D01*
X0064250Y0096500D01*
X0067650Y0096500D01*
X0067650Y0099009D01*
X0067510Y0099715D01*
X0067235Y0100379D01*
X0066835Y0100977D01*
X0066327Y0101485D01*
X0065729Y0101885D01*
X0065065Y0102160D01*
X0064359Y0102300D01*
X0064250Y0102300D01*
X0064250Y0096500D01*
X0063750Y0096500D01*
X0063750Y0102300D01*
X0063640Y0102300D01*
X0062935Y0102160D01*
X0062271Y0101885D01*
X0061673Y0101485D01*
X0061165Y0100977D01*
X0060765Y0100379D01*
X0060490Y0099715D01*
X0060350Y0099009D01*
X0060350Y0096500D01*
X0063750Y0096500D01*
X0063750Y0096000D01*
X0060350Y0096000D01*
X0060350Y0093490D01*
X0060490Y0092785D01*
X0060765Y0092121D01*
X0061165Y0091523D01*
X0061673Y0091015D01*
X0062271Y0090615D01*
X0061722Y0090982D02*
X0056743Y0090982D01*
X0056792Y0091481D02*
X0061208Y0091481D01*
X0060860Y0091979D02*
X0057176Y0091979D01*
X0057382Y0092478D02*
X0060618Y0092478D01*
X0060452Y0092976D02*
X0057589Y0092976D01*
X0057650Y0093475D02*
X0060353Y0093475D01*
X0060350Y0093973D02*
X0057650Y0093973D01*
X0057650Y0094472D02*
X0060350Y0094472D01*
X0060350Y0094970D02*
X0057650Y0094970D01*
X0057650Y0095469D02*
X0060350Y0095469D01*
X0060350Y0095967D02*
X0057650Y0095967D01*
X0057650Y0096466D02*
X0063750Y0096466D01*
X0063750Y0096964D02*
X0064250Y0096964D01*
X0064250Y0096466D02*
X0070350Y0096466D01*
X0070350Y0096964D02*
X0067650Y0096964D01*
X0067650Y0097463D02*
X0070350Y0097463D01*
X0070350Y0097961D02*
X0067650Y0097961D01*
X0067650Y0098460D02*
X0070350Y0098460D01*
X0070350Y0098958D02*
X0067650Y0098958D01*
X0067561Y0099457D02*
X0070383Y0099457D01*
X0070350Y0099376D02*
X0070906Y0100718D01*
X0071932Y0101744D01*
X0073274Y0102300D01*
X0074726Y0102300D01*
X0076068Y0101744D01*
X0077094Y0100718D01*
X0077650Y0099376D01*
X0077650Y0093124D01*
X0077094Y0091782D01*
X0076068Y0090756D01*
X0074726Y0090200D01*
X0073274Y0090200D01*
X0071932Y0090756D01*
X0070906Y0091782D01*
X0070350Y0093124D01*
X0070350Y0099376D01*
X0070590Y0099955D02*
X0067410Y0099955D01*
X0067185Y0100454D02*
X0070796Y0100454D01*
X0071140Y0100952D02*
X0066851Y0100952D01*
X0066361Y0101451D02*
X0071639Y0101451D01*
X0072427Y0101949D02*
X0065573Y0101949D01*
X0064250Y0101949D02*
X0063750Y0101949D01*
X0063750Y0101451D02*
X0064250Y0101451D01*
X0064250Y0100952D02*
X0063750Y0100952D01*
X0063750Y0100454D02*
X0064250Y0100454D01*
X0064250Y0099955D02*
X0063750Y0099955D01*
X0063750Y0099457D02*
X0064250Y0099457D01*
X0064250Y0098958D02*
X0063750Y0098958D01*
X0063750Y0098460D02*
X0064250Y0098460D01*
X0064250Y0097961D02*
X0063750Y0097961D01*
X0063750Y0097463D02*
X0064250Y0097463D01*
X0064250Y0096000D02*
X0067650Y0096000D01*
X0067650Y0093490D01*
X0067510Y0092785D01*
X0067235Y0092121D01*
X0066835Y0091523D01*
X0066327Y0091015D01*
X0065729Y0090615D01*
X0065065Y0090340D01*
X0064359Y0090200D01*
X0064250Y0090200D01*
X0064250Y0096000D01*
X0064250Y0095967D02*
X0063750Y0095967D01*
X0063750Y0095469D02*
X0064250Y0095469D01*
X0064250Y0094970D02*
X0063750Y0094970D01*
X0063750Y0094472D02*
X0064250Y0094472D01*
X0064250Y0093973D02*
X0063750Y0093973D01*
X0063750Y0093475D02*
X0064250Y0093475D01*
X0064250Y0092976D02*
X0063750Y0092976D01*
X0063750Y0092478D02*
X0064250Y0092478D01*
X0064250Y0091979D02*
X0063750Y0091979D01*
X0063750Y0091481D02*
X0064250Y0091481D01*
X0064250Y0090982D02*
X0063750Y0090982D01*
X0063750Y0090484D02*
X0064250Y0090484D01*
X0065411Y0090484D02*
X0072589Y0090484D01*
X0071706Y0090982D02*
X0066278Y0090982D01*
X0066792Y0091481D02*
X0071208Y0091481D01*
X0070824Y0091979D02*
X0067140Y0091979D01*
X0067382Y0092478D02*
X0070618Y0092478D01*
X0070411Y0092976D02*
X0067548Y0092976D01*
X0067647Y0093475D02*
X0070350Y0093475D01*
X0070350Y0093973D02*
X0067650Y0093973D01*
X0067650Y0094472D02*
X0070350Y0094472D01*
X0070350Y0094970D02*
X0067650Y0094970D01*
X0067650Y0095469D02*
X0070350Y0095469D01*
X0070350Y0095967D02*
X0067650Y0095967D01*
X0065910Y0084501D02*
X0072090Y0084501D01*
X0071591Y0084003D02*
X0066409Y0084003D01*
X0066907Y0083504D02*
X0071092Y0083504D01*
X0070594Y0083006D02*
X0067406Y0083006D01*
X0067650Y0082507D02*
X0070350Y0082507D01*
X0070350Y0082009D02*
X0067650Y0082009D01*
X0067650Y0081510D02*
X0070350Y0081510D01*
X0070350Y0081000D02*
X0070350Y0079738D01*
X0072488Y0077600D01*
X0073750Y0077600D01*
X0073750Y0081000D01*
X0070350Y0081000D01*
X0070350Y0080513D02*
X0067650Y0080513D01*
X0067650Y0080015D02*
X0070350Y0080015D01*
X0070572Y0079516D02*
X0067428Y0079516D01*
X0066930Y0079018D02*
X0071070Y0079018D01*
X0071569Y0078519D02*
X0066431Y0078519D01*
X0065933Y0078021D02*
X0072067Y0078021D01*
X0073750Y0078021D02*
X0074250Y0078021D01*
X0074250Y0078519D02*
X0073750Y0078519D01*
X0073750Y0079018D02*
X0074250Y0079018D01*
X0074250Y0079516D02*
X0073750Y0079516D01*
X0073750Y0080015D02*
X0074250Y0080015D01*
X0074250Y0080513D02*
X0073750Y0080513D01*
X0073750Y0081012D02*
X0067650Y0081012D01*
X0070809Y0073534D02*
X0054750Y0073534D01*
X0054750Y0073036D02*
X0070311Y0073036D01*
X0069812Y0072537D02*
X0054750Y0072537D01*
X0054750Y0072039D02*
X0069314Y0072039D01*
X0068815Y0071540D02*
X0054750Y0071540D01*
X0054750Y0071042D02*
X0068317Y0071042D01*
X0067818Y0070543D02*
X0054750Y0070543D01*
X0054750Y0070045D02*
X0067320Y0070045D01*
X0066821Y0069546D02*
X0054750Y0069546D01*
X0054750Y0069048D02*
X0066323Y0069048D01*
X0065824Y0068549D02*
X0054750Y0068549D01*
X0054750Y0068051D02*
X0065326Y0068051D01*
X0064827Y0067552D02*
X0054750Y0067552D01*
X0054750Y0067053D02*
X0064329Y0067053D01*
X0063830Y0066555D02*
X0054750Y0066555D01*
X0054750Y0066056D02*
X0063332Y0066056D01*
X0062833Y0065558D02*
X0054750Y0065558D01*
X0054750Y0065059D02*
X0062335Y0065059D01*
X0061836Y0064561D02*
X0054750Y0064561D01*
X0054287Y0064062D02*
X0061338Y0064062D01*
X0060839Y0063564D02*
X0053789Y0063564D01*
X0053290Y0063065D02*
X0060341Y0063065D01*
X0059842Y0062567D02*
X0052792Y0062567D01*
X0052612Y0062068D02*
X0059344Y0062068D01*
X0058845Y0061570D02*
X0052650Y0061570D01*
X0052650Y0061071D02*
X0058347Y0061071D01*
X0057848Y0060573D02*
X0052650Y0060573D01*
X0052464Y0060074D02*
X0057349Y0060074D01*
X0056851Y0059576D02*
X0052257Y0059576D01*
X0051989Y0059077D02*
X0056352Y0059077D01*
X0055854Y0058579D02*
X0051491Y0058579D01*
X0050886Y0058080D02*
X0055355Y0058080D01*
X0054857Y0057582D02*
X0046807Y0057582D01*
X0046308Y0057083D02*
X0054358Y0057083D01*
X0053860Y0056585D02*
X0045810Y0056585D01*
X0045311Y0056086D02*
X0053361Y0056086D01*
X0052863Y0055588D02*
X0044813Y0055588D01*
X0044314Y0055089D02*
X0052364Y0055089D01*
X0051866Y0054591D02*
X0050473Y0054591D01*
X0051320Y0054092D02*
X0051367Y0054092D01*
X0050164Y0047612D02*
X0049754Y0047612D01*
X0050662Y0047113D02*
X0040750Y0047113D01*
X0040750Y0046615D02*
X0051161Y0046615D01*
X0051250Y0068051D02*
X0050814Y0068051D01*
X0053695Y0075030D02*
X0072305Y0075030D01*
X0072803Y0075528D02*
X0053197Y0075528D01*
X0052698Y0076027D02*
X0073302Y0076027D01*
X0073800Y0076525D02*
X0052200Y0076525D01*
X0051750Y0077024D02*
X0074299Y0077024D01*
X0074797Y0077522D02*
X0051750Y0077522D01*
X0051750Y0078021D02*
X0062067Y0078021D01*
X0061569Y0078519D02*
X0051750Y0078519D01*
X0051750Y0079018D02*
X0061070Y0079018D01*
X0060572Y0079516D02*
X0051750Y0079516D01*
X0051750Y0080015D02*
X0060350Y0080015D01*
X0060350Y0080513D02*
X0051750Y0080513D01*
X0051750Y0081012D02*
X0060350Y0081012D01*
X0060350Y0081510D02*
X0051750Y0081510D01*
X0051750Y0082009D02*
X0060350Y0082009D01*
X0060268Y0082507D02*
X0051750Y0082507D01*
X0051750Y0083006D02*
X0059769Y0083006D01*
X0059271Y0083504D02*
X0051750Y0083504D01*
X0051750Y0084003D02*
X0058772Y0084003D01*
X0058274Y0084501D02*
X0051750Y0084501D01*
X0051750Y0085000D02*
X0057775Y0085000D01*
X0057277Y0085498D02*
X0051750Y0085498D01*
X0051750Y0085997D02*
X0056778Y0085997D01*
X0056280Y0086495D02*
X0051750Y0086495D01*
X0051750Y0086994D02*
X0055781Y0086994D01*
X0055283Y0087492D02*
X0051750Y0087492D01*
X0051750Y0087991D02*
X0054784Y0087991D01*
X0054286Y0088489D02*
X0051750Y0088489D01*
X0051750Y0088988D02*
X0053787Y0088988D01*
X0053289Y0089487D02*
X0051750Y0089487D01*
X0051750Y0089985D02*
X0052790Y0089985D01*
X0052292Y0090484D02*
X0051750Y0090484D01*
X0048250Y0090484D02*
X0045411Y0090484D01*
X0046294Y0090982D02*
X0048250Y0090982D01*
X0048250Y0091481D02*
X0046792Y0091481D01*
X0047176Y0091979D02*
X0048250Y0091979D01*
X0048250Y0092478D02*
X0047382Y0092478D01*
X0047589Y0092976D02*
X0048250Y0092976D01*
X0048250Y0093475D02*
X0047650Y0093475D01*
X0047650Y0093973D02*
X0048250Y0093973D01*
X0048250Y0094472D02*
X0047650Y0094472D01*
X0047650Y0094970D02*
X0048250Y0094970D01*
X0048250Y0095469D02*
X0047650Y0095469D01*
X0047650Y0095967D02*
X0048250Y0095967D01*
X0048250Y0096466D02*
X0047650Y0096466D01*
X0047650Y0096964D02*
X0048250Y0096964D01*
X0048250Y0097463D02*
X0047650Y0097463D01*
X0047650Y0097961D02*
X0048250Y0097961D01*
X0048250Y0098460D02*
X0047650Y0098460D01*
X0047650Y0098958D02*
X0048250Y0098958D01*
X0048250Y0099457D02*
X0047617Y0099457D01*
X0047410Y0099955D02*
X0048250Y0099955D01*
X0048250Y0100454D02*
X0047204Y0100454D01*
X0046860Y0100952D02*
X0048250Y0100952D01*
X0048250Y0101451D02*
X0046361Y0101451D01*
X0045573Y0101949D02*
X0048250Y0101949D01*
X0048250Y0102448D02*
X0035750Y0102448D01*
X0035750Y0102946D02*
X0048250Y0102946D01*
X0048250Y0103445D02*
X0035750Y0103445D01*
X0035750Y0103943D02*
X0048250Y0103943D01*
X0048250Y0104442D02*
X0035750Y0104442D01*
X0035750Y0104940D02*
X0048250Y0104940D01*
X0048250Y0105439D02*
X0035750Y0105439D01*
X0035750Y0105937D02*
X0048250Y0105937D01*
X0048250Y0106436D02*
X0035750Y0106436D01*
X0035750Y0106934D02*
X0048250Y0106934D01*
X0048250Y0107433D02*
X0035750Y0107433D01*
X0036156Y0107931D02*
X0048250Y0107931D01*
X0048250Y0108430D02*
X0036655Y0108430D01*
X0037153Y0108928D02*
X0048250Y0108928D01*
X0048250Y0109427D02*
X0037652Y0109427D01*
X0038150Y0109925D02*
X0048250Y0109925D01*
X0048250Y0110424D02*
X0038649Y0110424D01*
X0039147Y0110922D02*
X0048250Y0110922D01*
X0048250Y0111421D02*
X0039646Y0111421D01*
X0040144Y0111920D02*
X0048250Y0111920D01*
X0048250Y0112418D02*
X0040643Y0112418D01*
X0041141Y0112917D02*
X0048250Y0112917D01*
X0048250Y0113415D02*
X0041640Y0113415D01*
X0042138Y0113914D02*
X0048250Y0113914D01*
X0048250Y0114412D02*
X0042637Y0114412D01*
X0043135Y0114911D02*
X0048250Y0114911D01*
X0048250Y0115409D02*
X0043634Y0115409D01*
X0044132Y0115908D02*
X0048250Y0115908D01*
X0048250Y0116406D02*
X0044631Y0116406D01*
X0045129Y0116905D02*
X0048250Y0116905D01*
X0048250Y0117403D02*
X0045628Y0117403D01*
X0046127Y0117902D02*
X0048250Y0117902D01*
X0048250Y0118400D02*
X0046625Y0118400D01*
X0047124Y0118899D02*
X0048250Y0118899D01*
X0048250Y0119397D02*
X0047622Y0119397D01*
X0048121Y0119896D02*
X0048250Y0119896D01*
X0051750Y0119896D02*
X0086250Y0119896D01*
X0086250Y0120394D02*
X0085195Y0120394D01*
X0086205Y0120893D02*
X0086250Y0120893D01*
X0086250Y0119397D02*
X0051750Y0119397D01*
X0051750Y0118899D02*
X0086250Y0118899D01*
X0086250Y0118400D02*
X0051750Y0118400D01*
X0051750Y0117902D02*
X0086250Y0117902D01*
X0086250Y0117403D02*
X0051750Y0117403D01*
X0051750Y0116905D02*
X0086250Y0116905D01*
X0086250Y0116406D02*
X0051750Y0116406D01*
X0051750Y0115908D02*
X0086250Y0115908D01*
X0086250Y0115409D02*
X0051750Y0115409D01*
X0051750Y0114911D02*
X0086250Y0114911D01*
X0086250Y0114412D02*
X0051750Y0114412D01*
X0051750Y0113914D02*
X0086250Y0113914D01*
X0086250Y0113415D02*
X0051750Y0113415D01*
X0051750Y0112917D02*
X0086250Y0112917D01*
X0086250Y0112418D02*
X0051750Y0112418D01*
X0051750Y0111920D02*
X0086250Y0111920D01*
X0086250Y0111421D02*
X0051750Y0111421D01*
X0051750Y0110922D02*
X0086250Y0110922D01*
X0086250Y0110424D02*
X0051750Y0110424D01*
X0051750Y0109925D02*
X0086250Y0109925D01*
X0086250Y0109427D02*
X0051750Y0109427D01*
X0051750Y0108928D02*
X0086250Y0108928D01*
X0086250Y0108430D02*
X0051750Y0108430D01*
X0051750Y0107931D02*
X0086250Y0107931D01*
X0086250Y0107433D02*
X0051750Y0107433D01*
X0051750Y0106934D02*
X0086250Y0106934D01*
X0086250Y0106436D02*
X0051750Y0106436D01*
X0051750Y0105937D02*
X0086250Y0105937D01*
X0086250Y0105439D02*
X0051750Y0105439D01*
X0051750Y0104940D02*
X0086250Y0104940D01*
X0086250Y0104442D02*
X0051750Y0104442D01*
X0051750Y0103943D02*
X0086250Y0103943D01*
X0086250Y0103445D02*
X0051750Y0103445D01*
X0051750Y0102946D02*
X0086250Y0102946D01*
X0086250Y0102448D02*
X0051750Y0102448D01*
X0051750Y0101949D02*
X0052427Y0101949D01*
X0055573Y0101949D02*
X0062427Y0101949D01*
X0061639Y0101451D02*
X0056361Y0101451D01*
X0056860Y0100952D02*
X0061149Y0100952D01*
X0060815Y0100454D02*
X0057204Y0100454D01*
X0057410Y0099955D02*
X0060590Y0099955D01*
X0060439Y0099457D02*
X0057617Y0099457D01*
X0057650Y0098958D02*
X0060350Y0098958D01*
X0060350Y0098460D02*
X0057650Y0098460D01*
X0057650Y0097961D02*
X0060350Y0097961D01*
X0060350Y0097463D02*
X0057650Y0097463D01*
X0057650Y0096964D02*
X0060350Y0096964D01*
X0054194Y0074531D02*
X0071806Y0074531D01*
X0071308Y0074033D02*
X0054692Y0074033D01*
X0048250Y0078021D02*
X0045933Y0078021D01*
X0046431Y0078519D02*
X0048250Y0078519D01*
X0048250Y0079018D02*
X0046930Y0079018D01*
X0047428Y0079516D02*
X0048250Y0079516D01*
X0048250Y0080015D02*
X0047650Y0080015D01*
X0047650Y0080513D02*
X0048250Y0080513D01*
X0048250Y0081012D02*
X0047650Y0081012D01*
X0047650Y0081510D02*
X0048250Y0081510D01*
X0048250Y0082009D02*
X0047650Y0082009D01*
X0047650Y0082507D02*
X0048250Y0082507D01*
X0048250Y0083006D02*
X0047406Y0083006D01*
X0046907Y0083504D02*
X0048250Y0083504D01*
X0048250Y0084003D02*
X0046409Y0084003D01*
X0045910Y0084501D02*
X0048250Y0084501D01*
X0048250Y0087991D02*
X0038216Y0087991D01*
X0038714Y0088489D02*
X0048250Y0088489D01*
X0048250Y0088988D02*
X0039213Y0088988D01*
X0039711Y0089487D02*
X0048250Y0089487D01*
X0048250Y0089985D02*
X0040210Y0089985D01*
X0040708Y0090484D02*
X0042589Y0090484D01*
X0041706Y0090982D02*
X0041207Y0090982D01*
X0038750Y0093475D02*
X0037650Y0093475D01*
X0037650Y0093973D02*
X0039248Y0093973D01*
X0039747Y0094472D02*
X0037650Y0094472D01*
X0037650Y0094970D02*
X0040245Y0094970D01*
X0040350Y0095469D02*
X0037650Y0095469D01*
X0037650Y0095967D02*
X0040350Y0095967D01*
X0040350Y0096466D02*
X0037650Y0096466D01*
X0037650Y0096964D02*
X0040350Y0096964D01*
X0040350Y0097463D02*
X0037650Y0097463D01*
X0037650Y0097961D02*
X0040350Y0097961D01*
X0040350Y0098460D02*
X0037650Y0098460D01*
X0037650Y0098958D02*
X0040350Y0098958D01*
X0040383Y0099457D02*
X0037617Y0099457D01*
X0037410Y0099955D02*
X0040590Y0099955D01*
X0040796Y0100454D02*
X0037204Y0100454D01*
X0036860Y0100952D02*
X0041140Y0100952D01*
X0041639Y0101451D02*
X0036361Y0101451D01*
X0035750Y0101949D02*
X0042427Y0101949D01*
X0038251Y0092976D02*
X0037589Y0092976D01*
X0037753Y0092478D02*
X0037382Y0092478D01*
X0037254Y0091979D02*
X0037176Y0091979D01*
X0041851Y0064062D02*
X0027872Y0064062D01*
X0029462Y0044620D02*
X0037250Y0044620D01*
X0037250Y0044122D02*
X0030287Y0044122D01*
X0030841Y0043623D02*
X0037250Y0043623D01*
X0037250Y0043125D02*
X0031240Y0043125D01*
X0031538Y0042626D02*
X0037250Y0042626D01*
X0037250Y0042128D02*
X0031758Y0042128D01*
X0031917Y0041629D02*
X0037250Y0041629D01*
X0037250Y0041131D02*
X0031996Y0041131D01*
X0040750Y0047612D02*
X0043446Y0047612D01*
X0042243Y0048110D02*
X0040750Y0048110D01*
X0040750Y0048609D02*
X0041680Y0048609D01*
X0041181Y0049107D02*
X0040750Y0049107D01*
X0040750Y0049606D02*
X0040930Y0049606D01*
X0024141Y0015208D02*
X0074410Y0015208D01*
X0074222Y0014755D02*
X0074222Y0011367D01*
X0075519Y0008236D01*
X0077915Y0005840D01*
X0081046Y0004543D01*
X0084434Y0004543D01*
X0087565Y0005840D01*
X0089961Y0008236D01*
X0091258Y0011367D01*
X0091258Y0014755D01*
X0089961Y0017886D01*
X0087565Y0020282D01*
X0084434Y0021579D01*
X0081046Y0021579D01*
X0077915Y0020282D01*
X0075519Y0017886D01*
X0074222Y0014755D01*
X0074222Y0014710D02*
X0024329Y0014710D01*
X0024329Y0014211D02*
X0074222Y0014211D01*
X0074222Y0013713D02*
X0024329Y0013713D01*
X0024329Y0013214D02*
X0074222Y0013214D01*
X0074222Y0012716D02*
X0024329Y0012716D01*
X0024329Y0012217D02*
X0074222Y0012217D01*
X0074222Y0011719D02*
X0024329Y0011719D01*
X0024268Y0011220D02*
X0074283Y0011220D01*
X0074490Y0010722D02*
X0024062Y0010722D01*
X0023855Y0010223D02*
X0074696Y0010223D01*
X0074903Y0009725D02*
X0023649Y0009725D01*
X0023442Y0009226D02*
X0075109Y0009226D01*
X0075316Y0008728D02*
X0023236Y0008728D01*
X0023025Y0008229D02*
X0075526Y0008229D01*
X0076025Y0007731D02*
X0022527Y0007731D01*
X0022028Y0007232D02*
X0076523Y0007232D01*
X0077022Y0006734D02*
X0021529Y0006734D01*
X0021031Y0006235D02*
X0077520Y0006235D01*
X0078165Y0005737D02*
X0020386Y0005737D01*
X0019183Y0005238D02*
X0079369Y0005238D01*
X0080572Y0004740D02*
X0017979Y0004740D01*
X0013643Y0004740D02*
X0006218Y0004740D01*
X0006218Y0005238D02*
X0012439Y0005238D01*
X0011236Y0005737D02*
X0006218Y0005737D01*
X0006218Y0006235D02*
X0010591Y0006235D01*
X0010093Y0006734D02*
X0006218Y0006734D01*
X0006218Y0007232D02*
X0009594Y0007232D01*
X0009096Y0007731D02*
X0006218Y0007731D01*
X0006218Y0008229D02*
X0008597Y0008229D01*
X0008386Y0008728D02*
X0006218Y0008728D01*
X0006218Y0009226D02*
X0008180Y0009226D01*
X0007973Y0009725D02*
X0006218Y0009725D01*
X0006218Y0010223D02*
X0007767Y0010223D01*
X0007560Y0010722D02*
X0006218Y0010722D01*
X0006218Y0011220D02*
X0007354Y0011220D01*
X0007293Y0011719D02*
X0006218Y0011719D01*
X0006218Y0012217D02*
X0007293Y0012217D01*
X0007293Y0012716D02*
X0006218Y0012716D01*
X0006218Y0013214D02*
X0007293Y0013214D01*
X0007293Y0013713D02*
X0006218Y0013713D01*
X0006218Y0014211D02*
X0007293Y0014211D01*
X0007293Y0014710D02*
X0006218Y0014710D01*
X0006218Y0015208D02*
X0007481Y0015208D01*
X0007687Y0015707D02*
X0006218Y0015707D01*
X0006218Y0016205D02*
X0007894Y0016205D01*
X0008100Y0016704D02*
X0006218Y0016704D01*
X0006218Y0017202D02*
X0008307Y0017202D01*
X0008513Y0017701D02*
X0006218Y0017701D01*
X0006218Y0018199D02*
X0008904Y0018199D01*
X0009402Y0018698D02*
X0006218Y0018698D01*
X0006218Y0019196D02*
X0009901Y0019196D01*
X0010399Y0019695D02*
X0006218Y0019695D01*
X0006218Y0020193D02*
X0010898Y0020193D01*
X0011976Y0020692D02*
X0006218Y0020692D01*
X0006218Y0021190D02*
X0013179Y0021190D01*
X0006218Y0004241D02*
X0092333Y0004241D01*
X0092333Y0003743D02*
X0006218Y0003743D01*
X0023935Y0015707D02*
X0074617Y0015707D01*
X0074823Y0016205D02*
X0023728Y0016205D01*
X0023522Y0016704D02*
X0075030Y0016704D01*
X0075236Y0017202D02*
X0023315Y0017202D01*
X0051750Y0120394D02*
X0052805Y0120394D01*
X0053750Y0120394D02*
X0054250Y0120394D01*
X0054250Y0120200D02*
X0054359Y0120200D01*
X0055065Y0120340D01*
X0055729Y0120615D01*
X0056327Y0121015D01*
X0056835Y0121523D01*
X0057235Y0122121D01*
X0057510Y0122785D01*
X0057650Y0123490D01*
X0057650Y0126000D01*
X0054250Y0126000D01*
X0054250Y0120200D01*
X0054250Y0120893D02*
X0053750Y0120893D01*
X0053750Y0121391D02*
X0054250Y0121391D01*
X0054250Y0121890D02*
X0053750Y0121890D01*
X0053750Y0122388D02*
X0054250Y0122388D01*
X0054250Y0122887D02*
X0053750Y0122887D01*
X0053750Y0123385D02*
X0054250Y0123385D01*
X0054250Y0123884D02*
X0053750Y0123884D01*
X0053750Y0124382D02*
X0054250Y0124382D01*
X0054250Y0124881D02*
X0053750Y0124881D01*
X0053750Y0125379D02*
X0054250Y0125379D01*
X0054250Y0125878D02*
X0053750Y0125878D01*
X0054250Y0126376D02*
X0060350Y0126376D01*
X0060350Y0125878D02*
X0057650Y0125878D01*
X0057650Y0125379D02*
X0060350Y0125379D01*
X0060350Y0124881D02*
X0057650Y0124881D01*
X0057650Y0124382D02*
X0060350Y0124382D01*
X0060350Y0123884D02*
X0057650Y0123884D01*
X0057629Y0123385D02*
X0060350Y0123385D01*
X0060350Y0123124D02*
X0060906Y0121782D01*
X0061932Y0120756D01*
X0063274Y0120200D01*
X0064726Y0120200D01*
X0066068Y0120756D01*
X0067094Y0121782D01*
X0067650Y0123124D01*
X0067650Y0129376D01*
X0067094Y0130718D01*
X0066068Y0131744D01*
X0064726Y0132300D01*
X0063274Y0132300D01*
X0061932Y0131744D01*
X0060906Y0130718D01*
X0060350Y0129376D01*
X0060350Y0123124D01*
X0060448Y0122887D02*
X0057530Y0122887D01*
X0057345Y0122388D02*
X0060655Y0122388D01*
X0060861Y0121890D02*
X0057080Y0121890D01*
X0056703Y0121391D02*
X0061297Y0121391D01*
X0061795Y0120893D02*
X0056144Y0120893D01*
X0055195Y0120394D02*
X0062805Y0120394D01*
X0065195Y0120394D02*
X0072805Y0120394D01*
X0072935Y0120340D02*
X0072271Y0120615D01*
X0071673Y0121015D01*
X0071165Y0121523D01*
X0070765Y0122121D01*
X0070490Y0122785D01*
X0070350Y0123490D01*
X0070350Y0126000D01*
X0073750Y0126000D01*
X0074250Y0126000D01*
X0074250Y0126500D01*
X0077650Y0126500D01*
X0077650Y0129009D01*
X0077510Y0129715D01*
X0077235Y0130379D01*
X0076835Y0130977D01*
X0076327Y0131485D01*
X0075729Y0131885D01*
X0075065Y0132160D01*
X0074359Y0132300D01*
X0074250Y0132300D01*
X0074250Y0126500D01*
X0073750Y0126500D01*
X0073750Y0132300D01*
X0073640Y0132300D01*
X0072935Y0132160D01*
X0072271Y0131885D01*
X0071673Y0131485D01*
X0071165Y0130977D01*
X0070765Y0130379D01*
X0070490Y0129715D01*
X0070350Y0129009D01*
X0070350Y0126500D01*
X0073750Y0126500D01*
X0073750Y0126000D01*
X0073750Y0120200D01*
X0073640Y0120200D01*
X0072935Y0120340D01*
X0073750Y0120394D02*
X0074250Y0120394D01*
X0074250Y0120200D02*
X0074359Y0120200D01*
X0075065Y0120340D01*
X0075729Y0120615D01*
X0076327Y0121015D01*
X0076835Y0121523D01*
X0077235Y0122121D01*
X0077510Y0122785D01*
X0077650Y0123490D01*
X0077650Y0126000D01*
X0074250Y0126000D01*
X0074250Y0120200D01*
X0074250Y0120893D02*
X0073750Y0120893D01*
X0073750Y0121391D02*
X0074250Y0121391D01*
X0074250Y0121890D02*
X0073750Y0121890D01*
X0073750Y0122388D02*
X0074250Y0122388D01*
X0074250Y0122887D02*
X0073750Y0122887D01*
X0073750Y0123385D02*
X0074250Y0123385D01*
X0074250Y0123884D02*
X0073750Y0123884D01*
X0073750Y0124382D02*
X0074250Y0124382D01*
X0074250Y0124881D02*
X0073750Y0124881D01*
X0073750Y0125379D02*
X0074250Y0125379D01*
X0074250Y0125878D02*
X0073750Y0125878D01*
X0073750Y0126376D02*
X0067650Y0126376D01*
X0067650Y0125878D02*
X0070350Y0125878D01*
X0070350Y0125379D02*
X0067650Y0125379D01*
X0067650Y0124881D02*
X0070350Y0124881D01*
X0070350Y0124382D02*
X0067650Y0124382D01*
X0067650Y0123884D02*
X0070350Y0123884D01*
X0070371Y0123385D02*
X0067650Y0123385D01*
X0067552Y0122887D02*
X0070470Y0122887D01*
X0070655Y0122388D02*
X0067345Y0122388D01*
X0067139Y0121890D02*
X0070920Y0121890D01*
X0071297Y0121391D02*
X0066703Y0121391D01*
X0066205Y0120893D02*
X0071856Y0120893D01*
X0070350Y0126875D02*
X0067650Y0126875D01*
X0067650Y0127373D02*
X0070350Y0127373D01*
X0070350Y0127872D02*
X0067650Y0127872D01*
X0067650Y0128370D02*
X0070350Y0128370D01*
X0070350Y0128869D02*
X0067650Y0128869D01*
X0067650Y0129367D02*
X0070421Y0129367D01*
X0070553Y0129866D02*
X0067447Y0129866D01*
X0067241Y0130364D02*
X0070759Y0130364D01*
X0071089Y0130863D02*
X0066949Y0130863D01*
X0066450Y0131361D02*
X0071550Y0131361D01*
X0072234Y0131860D02*
X0065788Y0131860D01*
X0064726Y0135200D02*
X0066068Y0135756D01*
X0067094Y0136782D01*
X0067650Y0138124D01*
X0067650Y0144376D01*
X0067094Y0145718D01*
X0066068Y0146744D01*
X0064726Y0147300D01*
X0063274Y0147300D01*
X0061932Y0146744D01*
X0060906Y0145718D01*
X0060350Y0144376D01*
X0060350Y0138124D01*
X0060906Y0136782D01*
X0061932Y0135756D01*
X0063274Y0135200D01*
X0064726Y0135200D01*
X0065087Y0135350D02*
X0072913Y0135350D01*
X0073274Y0135200D02*
X0071932Y0135756D01*
X0070906Y0136782D01*
X0070350Y0138124D01*
X0070350Y0144376D01*
X0070906Y0145718D01*
X0071932Y0146744D01*
X0073274Y0147300D01*
X0074726Y0147300D01*
X0076068Y0146744D01*
X0077094Y0145718D01*
X0077650Y0144376D01*
X0077650Y0138124D01*
X0077094Y0136782D01*
X0076068Y0135756D01*
X0074726Y0135200D01*
X0073274Y0135200D01*
X0073750Y0131860D02*
X0074250Y0131860D01*
X0074250Y0131361D02*
X0073750Y0131361D01*
X0073750Y0130863D02*
X0074250Y0130863D01*
X0074250Y0130364D02*
X0073750Y0130364D01*
X0073750Y0129866D02*
X0074250Y0129866D01*
X0074250Y0129367D02*
X0073750Y0129367D01*
X0073750Y0128869D02*
X0074250Y0128869D01*
X0074250Y0128370D02*
X0073750Y0128370D01*
X0073750Y0127872D02*
X0074250Y0127872D01*
X0074250Y0127373D02*
X0073750Y0127373D01*
X0073750Y0126875D02*
X0074250Y0126875D01*
X0074250Y0126376D02*
X0080350Y0126376D01*
X0080350Y0125878D02*
X0077650Y0125878D01*
X0077650Y0125379D02*
X0080350Y0125379D01*
X0080350Y0124881D02*
X0077650Y0124881D01*
X0077650Y0124382D02*
X0080350Y0124382D01*
X0080350Y0123884D02*
X0077650Y0123884D01*
X0077629Y0123385D02*
X0080350Y0123385D01*
X0080448Y0122887D02*
X0077530Y0122887D01*
X0077345Y0122388D02*
X0080655Y0122388D01*
X0080861Y0121890D02*
X0077080Y0121890D01*
X0076703Y0121391D02*
X0081297Y0121391D01*
X0081795Y0120893D02*
X0076144Y0120893D01*
X0075195Y0120394D02*
X0082805Y0120394D01*
X0080350Y0126875D02*
X0077650Y0126875D01*
X0077650Y0127373D02*
X0080350Y0127373D01*
X0080350Y0127872D02*
X0077650Y0127872D01*
X0077650Y0128370D02*
X0080350Y0128370D01*
X0080350Y0128869D02*
X0077650Y0128869D01*
X0077579Y0129367D02*
X0080350Y0129367D01*
X0080553Y0129866D02*
X0077447Y0129866D01*
X0077241Y0130364D02*
X0080759Y0130364D01*
X0081051Y0130863D02*
X0076911Y0130863D01*
X0076450Y0131361D02*
X0081550Y0131361D01*
X0082212Y0131860D02*
X0075766Y0131860D01*
X0075087Y0135350D02*
X0082913Y0135350D01*
X0081840Y0135848D02*
X0076160Y0135848D01*
X0076658Y0136347D02*
X0081342Y0136347D01*
X0080880Y0136845D02*
X0077120Y0136845D01*
X0077327Y0137344D02*
X0080673Y0137344D01*
X0080467Y0137842D02*
X0077533Y0137842D01*
X0077650Y0138341D02*
X0080350Y0138341D01*
X0080350Y0138839D02*
X0077650Y0138839D01*
X0077650Y0139338D02*
X0080350Y0139338D01*
X0080350Y0139836D02*
X0077650Y0139836D01*
X0077650Y0140335D02*
X0080350Y0140335D01*
X0080350Y0140833D02*
X0077650Y0140833D01*
X0077650Y0141332D02*
X0080350Y0141332D01*
X0080350Y0141830D02*
X0077650Y0141830D01*
X0077650Y0142329D02*
X0080350Y0142329D01*
X0080350Y0142827D02*
X0077650Y0142827D01*
X0077650Y0143326D02*
X0080350Y0143326D01*
X0080350Y0143824D02*
X0077650Y0143824D01*
X0077650Y0144323D02*
X0080350Y0144323D01*
X0080534Y0144821D02*
X0077466Y0144821D01*
X0077259Y0145320D02*
X0080741Y0145320D01*
X0081006Y0145818D02*
X0076994Y0145818D01*
X0076495Y0146317D02*
X0081505Y0146317D01*
X0082104Y0146815D02*
X0075896Y0146815D01*
X0072104Y0146815D02*
X0065896Y0146815D01*
X0066495Y0146317D02*
X0071505Y0146317D01*
X0071006Y0145818D02*
X0066994Y0145818D01*
X0067259Y0145320D02*
X0070741Y0145320D01*
X0070534Y0144821D02*
X0067466Y0144821D01*
X0067650Y0144323D02*
X0070350Y0144323D01*
X0070350Y0143824D02*
X0067650Y0143824D01*
X0067650Y0143326D02*
X0070350Y0143326D01*
X0070350Y0142827D02*
X0067650Y0142827D01*
X0067650Y0142329D02*
X0070350Y0142329D01*
X0070350Y0141830D02*
X0067650Y0141830D01*
X0067650Y0141332D02*
X0070350Y0141332D01*
X0070350Y0140833D02*
X0067650Y0140833D01*
X0067650Y0140335D02*
X0070350Y0140335D01*
X0070350Y0139836D02*
X0067650Y0139836D01*
X0067650Y0139338D02*
X0070350Y0139338D01*
X0070350Y0138839D02*
X0067650Y0138839D01*
X0067650Y0138341D02*
X0070350Y0138341D01*
X0070467Y0137842D02*
X0067533Y0137842D01*
X0067327Y0137344D02*
X0070673Y0137344D01*
X0070880Y0136845D02*
X0067120Y0136845D01*
X0066658Y0136347D02*
X0071342Y0136347D01*
X0071840Y0135848D02*
X0066160Y0135848D01*
X0062913Y0135350D02*
X0055087Y0135350D01*
X0056160Y0135848D02*
X0061840Y0135848D01*
X0061342Y0136347D02*
X0056658Y0136347D01*
X0057120Y0136845D02*
X0060880Y0136845D01*
X0060673Y0137344D02*
X0057327Y0137344D01*
X0057533Y0137842D02*
X0060467Y0137842D01*
X0060350Y0138341D02*
X0057650Y0138341D01*
X0057650Y0138839D02*
X0060350Y0138839D01*
X0060350Y0139338D02*
X0057650Y0139338D01*
X0057650Y0139836D02*
X0060350Y0139836D01*
X0060350Y0140335D02*
X0057650Y0140335D01*
X0057650Y0140833D02*
X0060350Y0140833D01*
X0060350Y0141332D02*
X0057650Y0141332D01*
X0057650Y0141830D02*
X0060350Y0141830D01*
X0060350Y0142329D02*
X0057650Y0142329D01*
X0057650Y0142827D02*
X0060350Y0142827D01*
X0060350Y0143326D02*
X0057650Y0143326D01*
X0057650Y0143824D02*
X0060350Y0143824D01*
X0060350Y0144323D02*
X0057650Y0144323D01*
X0057466Y0144821D02*
X0060534Y0144821D01*
X0060741Y0145320D02*
X0057259Y0145320D01*
X0056994Y0145818D02*
X0061006Y0145818D01*
X0061505Y0146317D02*
X0056495Y0146317D01*
X0055896Y0146815D02*
X0062104Y0146815D01*
X0059524Y0152299D02*
X0086250Y0152299D01*
X0086250Y0152797D02*
X0059750Y0152797D01*
X0059750Y0153296D02*
X0086250Y0153296D01*
X0086250Y0153794D02*
X0059750Y0153794D01*
X0059750Y0154293D02*
X0086250Y0154293D01*
X0086250Y0154791D02*
X0059750Y0154791D01*
X0059750Y0155290D02*
X0086250Y0155290D01*
X0086250Y0155789D02*
X0059750Y0155789D01*
X0059750Y0156287D02*
X0086250Y0156287D01*
X0086250Y0156786D02*
X0059750Y0156786D01*
X0059750Y0157284D02*
X0086250Y0157284D01*
X0086250Y0157783D02*
X0059750Y0157783D01*
X0059750Y0158281D02*
X0086250Y0158281D01*
X0086250Y0158780D02*
X0059750Y0158780D01*
X0059750Y0159278D02*
X0086250Y0159278D01*
X0086250Y0159777D02*
X0059750Y0159777D01*
X0059750Y0160275D02*
X0086250Y0160275D01*
X0086250Y0160774D02*
X0059750Y0160774D01*
X0059750Y0161272D02*
X0086250Y0161272D01*
X0086250Y0161771D02*
X0059750Y0161771D01*
X0059750Y0162269D02*
X0086250Y0162269D01*
X0086250Y0162768D02*
X0059750Y0162768D01*
X0059750Y0163266D02*
X0086250Y0163266D01*
X0086250Y0163765D02*
X0059750Y0163765D01*
X0059750Y0164263D02*
X0086250Y0164263D01*
X0086250Y0164762D02*
X0059750Y0164762D01*
X0059750Y0165260D02*
X0063129Y0165260D01*
X0063274Y0165200D02*
X0064726Y0165200D01*
X0066068Y0165756D01*
X0067094Y0166782D01*
X0067650Y0168124D01*
X0067650Y0174376D01*
X0067094Y0175718D01*
X0066068Y0176744D01*
X0064726Y0177300D01*
X0063274Y0177300D01*
X0061932Y0176744D01*
X0060906Y0175718D01*
X0060350Y0174376D01*
X0060350Y0168124D01*
X0060906Y0166782D01*
X0061932Y0165756D01*
X0063274Y0165200D01*
X0061929Y0165759D02*
X0059750Y0165759D01*
X0059750Y0166257D02*
X0061431Y0166257D01*
X0060932Y0166756D02*
X0059750Y0166756D01*
X0059750Y0167254D02*
X0060710Y0167254D01*
X0060504Y0167753D02*
X0059750Y0167753D01*
X0059750Y0168251D02*
X0060350Y0168251D01*
X0060350Y0168750D02*
X0059750Y0168750D01*
X0059750Y0169248D02*
X0060350Y0169248D01*
X0060350Y0169747D02*
X0059750Y0169747D01*
X0059750Y0170245D02*
X0060350Y0170245D01*
X0060350Y0170744D02*
X0059750Y0170744D01*
X0059750Y0171242D02*
X0060350Y0171242D01*
X0060350Y0171741D02*
X0059750Y0171741D01*
X0059750Y0172239D02*
X0060350Y0172239D01*
X0060350Y0172738D02*
X0059750Y0172738D01*
X0059750Y0173236D02*
X0060350Y0173236D01*
X0060350Y0173735D02*
X0059750Y0173735D01*
X0059750Y0174233D02*
X0060350Y0174233D01*
X0060497Y0174732D02*
X0059750Y0174732D01*
X0059750Y0175230D02*
X0060704Y0175230D01*
X0060917Y0175729D02*
X0059750Y0175729D01*
X0059750Y0176227D02*
X0061416Y0176227D01*
X0061914Y0176726D02*
X0059750Y0176726D01*
X0059750Y0177224D02*
X0063092Y0177224D01*
X0064908Y0177224D02*
X0069551Y0177224D01*
X0070049Y0176726D02*
X0066086Y0176726D01*
X0066584Y0176227D02*
X0070548Y0176227D01*
X0070917Y0175729D02*
X0067083Y0175729D01*
X0067296Y0175230D02*
X0070704Y0175230D01*
X0070497Y0174732D02*
X0067503Y0174732D01*
X0067650Y0174233D02*
X0070350Y0174233D01*
X0070350Y0173735D02*
X0067650Y0173735D01*
X0067650Y0173236D02*
X0070350Y0173236D01*
X0070350Y0172738D02*
X0067650Y0172738D01*
X0067650Y0172239D02*
X0070350Y0172239D01*
X0070350Y0171741D02*
X0067650Y0171741D01*
X0067650Y0171242D02*
X0070350Y0171242D01*
X0070350Y0170744D02*
X0067650Y0170744D01*
X0067650Y0170245D02*
X0070350Y0170245D01*
X0070350Y0169747D02*
X0067650Y0169747D01*
X0067650Y0169248D02*
X0070350Y0169248D01*
X0070350Y0168750D02*
X0067650Y0168750D01*
X0067650Y0168251D02*
X0070350Y0168251D01*
X0070504Y0167753D02*
X0067496Y0167753D01*
X0067290Y0167254D02*
X0070710Y0167254D01*
X0070932Y0166756D02*
X0067068Y0166756D01*
X0066569Y0166257D02*
X0071431Y0166257D01*
X0071929Y0165759D02*
X0066071Y0165759D01*
X0064871Y0165260D02*
X0073129Y0165260D01*
X0074871Y0165260D02*
X0083338Y0165260D01*
X0083640Y0165200D02*
X0082935Y0165340D01*
X0082271Y0165615D01*
X0081673Y0166015D01*
X0081165Y0166523D01*
X0080765Y0167121D01*
X0080490Y0167785D01*
X0080350Y0168490D01*
X0080350Y0171000D01*
X0083750Y0171000D01*
X0083750Y0165200D01*
X0083640Y0165200D01*
X0083750Y0165260D02*
X0084250Y0165260D01*
X0084662Y0165260D02*
X0086250Y0165260D01*
X0086250Y0165759D02*
X0085943Y0165759D01*
X0084250Y0165759D02*
X0083750Y0165759D01*
X0083750Y0166257D02*
X0084250Y0166257D01*
X0084250Y0166756D02*
X0083750Y0166756D01*
X0083750Y0167254D02*
X0084250Y0167254D01*
X0084250Y0167753D02*
X0083750Y0167753D01*
X0083750Y0168251D02*
X0084250Y0168251D01*
X0084250Y0168750D02*
X0083750Y0168750D01*
X0083750Y0169248D02*
X0084250Y0169248D01*
X0084250Y0169747D02*
X0083750Y0169747D01*
X0083750Y0170245D02*
X0084250Y0170245D01*
X0084250Y0170744D02*
X0083750Y0170744D01*
X0083750Y0171242D02*
X0077650Y0171242D01*
X0077650Y0170744D02*
X0080350Y0170744D01*
X0080350Y0170245D02*
X0077650Y0170245D01*
X0077650Y0169747D02*
X0080350Y0169747D01*
X0080350Y0169248D02*
X0077650Y0169248D01*
X0077650Y0168750D02*
X0080350Y0168750D01*
X0080398Y0168251D02*
X0077650Y0168251D01*
X0077496Y0167753D02*
X0080504Y0167753D01*
X0080710Y0167254D02*
X0077290Y0167254D01*
X0077068Y0166756D02*
X0081009Y0166756D01*
X0081431Y0166257D02*
X0076569Y0166257D01*
X0076071Y0165759D02*
X0082057Y0165759D01*
X0083750Y0171741D02*
X0084250Y0171741D01*
X0084250Y0172239D02*
X0083750Y0172239D01*
X0083750Y0172738D02*
X0084250Y0172738D01*
X0084250Y0173236D02*
X0083750Y0173236D01*
X0083750Y0173735D02*
X0084250Y0173735D01*
X0084250Y0174233D02*
X0083750Y0174233D01*
X0083750Y0174732D02*
X0084250Y0174732D01*
X0084250Y0175230D02*
X0083750Y0175230D01*
X0083750Y0175729D02*
X0084250Y0175729D01*
X0084250Y0176227D02*
X0083750Y0176227D01*
X0083750Y0176726D02*
X0084250Y0176726D01*
X0084250Y0177224D02*
X0083750Y0177224D01*
X0083261Y0177224D02*
X0074908Y0177224D01*
X0074002Y0177723D02*
X0086250Y0177723D01*
X0086250Y0177224D02*
X0084739Y0177224D01*
X0085966Y0176726D02*
X0086250Y0176726D01*
X0086250Y0178222D02*
X0073503Y0178222D01*
X0073005Y0178720D02*
X0086250Y0178720D01*
X0086250Y0179219D02*
X0072506Y0179219D01*
X0072008Y0179717D02*
X0086250Y0179717D01*
X0086250Y0180216D02*
X0071509Y0180216D01*
X0071011Y0180714D02*
X0086250Y0180714D01*
X0086250Y0181213D02*
X0070512Y0181213D01*
X0070014Y0181711D02*
X0086250Y0181711D01*
X0086250Y0182210D02*
X0069515Y0182210D01*
X0069017Y0182708D02*
X0072380Y0182708D01*
X0072488Y0182600D02*
X0073750Y0182600D01*
X0073750Y0186000D01*
X0074250Y0186000D01*
X0074250Y0186500D01*
X0077650Y0186500D01*
X0077650Y0187762D01*
X0075512Y0189900D01*
X0074250Y0189900D01*
X0074250Y0186500D01*
X0073750Y0186500D01*
X0073750Y0189900D01*
X0072488Y0189900D01*
X0070350Y0187762D01*
X0070350Y0186500D01*
X0073750Y0186500D01*
X0073750Y0186000D01*
X0070350Y0186000D01*
X0070350Y0184738D01*
X0072488Y0182600D01*
X0071881Y0183207D02*
X0068518Y0183207D01*
X0068020Y0183705D02*
X0071383Y0183705D01*
X0070884Y0184204D02*
X0067521Y0184204D01*
X0067023Y0184702D02*
X0070386Y0184702D01*
X0070350Y0185201D02*
X0066524Y0185201D01*
X0066026Y0185699D02*
X0070350Y0185699D01*
X0070350Y0186696D02*
X0065029Y0186696D01*
X0065527Y0186198D02*
X0073750Y0186198D01*
X0073750Y0186696D02*
X0074250Y0186696D01*
X0074250Y0186198D02*
X0080350Y0186198D01*
X0080350Y0186696D02*
X0077650Y0186696D01*
X0077650Y0187195D02*
X0080350Y0187195D01*
X0080350Y0187693D02*
X0077650Y0187693D01*
X0077220Y0188192D02*
X0080780Y0188192D01*
X0081278Y0188690D02*
X0076722Y0188690D01*
X0076223Y0189189D02*
X0081777Y0189189D01*
X0082275Y0189687D02*
X0075725Y0189687D01*
X0074250Y0189687D02*
X0073750Y0189687D01*
X0073750Y0189189D02*
X0074250Y0189189D01*
X0074250Y0188690D02*
X0073750Y0188690D01*
X0073750Y0188192D02*
X0074250Y0188192D01*
X0074250Y0187693D02*
X0073750Y0187693D01*
X0073750Y0187195D02*
X0074250Y0187195D01*
X0074250Y0186000D02*
X0077650Y0186000D01*
X0077650Y0184738D01*
X0075512Y0182600D01*
X0074250Y0182600D01*
X0074250Y0186000D01*
X0074250Y0185699D02*
X0073750Y0185699D01*
X0073750Y0185201D02*
X0074250Y0185201D01*
X0074250Y0184702D02*
X0073750Y0184702D01*
X0073750Y0184204D02*
X0074250Y0184204D01*
X0074250Y0183705D02*
X0073750Y0183705D01*
X0073750Y0183207D02*
X0074250Y0183207D01*
X0074250Y0182708D02*
X0073750Y0182708D01*
X0075620Y0182708D02*
X0082380Y0182708D01*
X0081881Y0183207D02*
X0076119Y0183207D01*
X0076617Y0183705D02*
X0081383Y0183705D01*
X0080884Y0184204D02*
X0077116Y0184204D01*
X0077614Y0184702D02*
X0080386Y0184702D01*
X0080350Y0185201D02*
X0077650Y0185201D01*
X0077650Y0185699D02*
X0080350Y0185699D01*
X0083091Y0190684D02*
X0061041Y0190684D01*
X0061539Y0190186D02*
X0083589Y0190186D01*
X0082592Y0191183D02*
X0060542Y0191183D01*
X0060044Y0191681D02*
X0082094Y0191681D01*
X0081595Y0192180D02*
X0059545Y0192180D01*
X0059046Y0192678D02*
X0081097Y0192678D01*
X0080598Y0193177D02*
X0058548Y0193177D01*
X0058049Y0193675D02*
X0080100Y0193675D01*
X0079601Y0194174D02*
X0057551Y0194174D01*
X0057052Y0194672D02*
X0079103Y0194672D01*
X0078604Y0195171D02*
X0056554Y0195171D01*
X0056055Y0195669D02*
X0078106Y0195669D01*
X0079566Y0199159D02*
X0092333Y0199159D01*
X0092333Y0199658D02*
X0079067Y0199658D01*
X0078569Y0200156D02*
X0092333Y0200156D01*
X0092333Y0200655D02*
X0078070Y0200655D01*
X0077572Y0201153D02*
X0092333Y0201153D01*
X0092333Y0201652D02*
X0077073Y0201652D01*
X0076575Y0202150D02*
X0092333Y0202150D01*
X0092333Y0202649D02*
X0076076Y0202649D01*
X0075578Y0203147D02*
X0092333Y0203147D01*
X0092333Y0203646D02*
X0075079Y0203646D01*
X0074581Y0204144D02*
X0092333Y0204144D01*
X0092333Y0204643D02*
X0074082Y0204643D01*
X0073584Y0205141D02*
X0092333Y0205141D01*
X0092333Y0205640D02*
X0073085Y0205640D01*
X0072750Y0206138D02*
X0092333Y0206138D01*
X0092333Y0206637D02*
X0072750Y0206637D01*
X0072750Y0207135D02*
X0092333Y0207135D01*
X0092333Y0207634D02*
X0072750Y0207634D01*
X0072750Y0208132D02*
X0092333Y0208132D01*
X0092333Y0208631D02*
X0072750Y0208631D01*
X0072750Y0209129D02*
X0092333Y0209129D01*
X0092333Y0209628D02*
X0072750Y0209628D01*
X0073429Y0210126D02*
X0092333Y0210126D01*
X0092333Y0210625D02*
X0073927Y0210625D01*
X0074426Y0211123D02*
X0092333Y0211123D01*
X0092333Y0211622D02*
X0074769Y0211622D01*
X0074975Y0212120D02*
X0092333Y0212120D01*
X0092333Y0212619D02*
X0075182Y0212619D01*
X0075329Y0213117D02*
X0092333Y0213117D01*
X0092333Y0213616D02*
X0075329Y0213616D01*
X0075329Y0214114D02*
X0092333Y0214114D01*
X0092333Y0214613D02*
X0075329Y0214613D01*
X0075168Y0215111D02*
X0092333Y0215111D01*
X0092333Y0215610D02*
X0074962Y0215610D01*
X0074755Y0216108D02*
X0092333Y0216108D01*
X0092333Y0216607D02*
X0074393Y0216607D01*
X0073894Y0217105D02*
X0092333Y0217105D01*
X0092333Y0217604D02*
X0073359Y0217604D01*
X0073531Y0218102D02*
X0092333Y0218102D01*
X0092333Y0218601D02*
X0074030Y0218601D01*
X0074528Y0219099D02*
X0092333Y0219099D01*
X0092333Y0219598D02*
X0074811Y0219598D01*
X0075018Y0220096D02*
X0092333Y0220096D01*
X0092333Y0220595D02*
X0075224Y0220595D01*
X0075329Y0221093D02*
X0092333Y0221093D01*
X0092333Y0221592D02*
X0075329Y0221592D01*
X0075329Y0222091D02*
X0092333Y0222091D01*
X0092333Y0222589D02*
X0075329Y0222589D01*
X0075126Y0223088D02*
X0092333Y0223088D01*
X0092333Y0223586D02*
X0074919Y0223586D01*
X0074713Y0224085D02*
X0092333Y0224085D01*
X0092333Y0224583D02*
X0074290Y0224583D01*
X0073792Y0225082D02*
X0092333Y0225082D01*
X0092333Y0225580D02*
X0073113Y0225580D01*
X0071909Y0226079D02*
X0092333Y0226079D01*
X0092333Y0226577D02*
X0040750Y0226577D01*
X0040750Y0226079D02*
X0069949Y0226079D01*
X0068746Y0225580D02*
X0040750Y0225580D01*
X0040750Y0225082D02*
X0068066Y0225082D01*
X0067568Y0224583D02*
X0040750Y0224583D01*
X0040309Y0224085D02*
X0067145Y0224085D01*
X0066939Y0223586D02*
X0039811Y0223586D01*
X0039312Y0223088D02*
X0066732Y0223088D01*
X0066530Y0222589D02*
X0038814Y0222589D01*
X0038315Y0222091D02*
X0066530Y0222091D01*
X0066530Y0221592D02*
X0037817Y0221592D01*
X0037318Y0221093D02*
X0066530Y0221093D01*
X0066634Y0220595D02*
X0036820Y0220595D01*
X0035858Y0224583D02*
X0030982Y0224583D01*
X0031344Y0224085D02*
X0035360Y0224085D01*
X0034861Y0223586D02*
X0031610Y0223586D01*
X0031805Y0223088D02*
X0034363Y0223088D01*
X0033864Y0222589D02*
X0031939Y0222589D01*
X0032018Y0222091D02*
X0033366Y0222091D01*
X0032867Y0221592D02*
X0027872Y0221592D01*
X0029742Y0225580D02*
X0036855Y0225580D01*
X0037250Y0226079D02*
X0030326Y0226079D01*
X0030825Y0226577D02*
X0037250Y0226577D01*
X0037250Y0227076D02*
X0031323Y0227076D01*
X0031546Y0227574D02*
X0037250Y0227574D01*
X0037250Y0228073D02*
X0031753Y0228073D01*
X0031959Y0228571D02*
X0037250Y0228571D01*
X0037250Y0229070D02*
X0032022Y0229070D01*
X0032022Y0229568D02*
X0037250Y0229568D01*
X0037250Y0230067D02*
X0032022Y0230067D01*
X0031983Y0230565D02*
X0037250Y0230565D01*
X0037250Y0231064D02*
X0031776Y0231064D01*
X0031570Y0231562D02*
X0037250Y0231562D01*
X0037250Y0232061D02*
X0031363Y0232061D01*
X0030881Y0232559D02*
X0037250Y0232559D01*
X0037030Y0233058D02*
X0030383Y0233058D01*
X0029559Y0233556D02*
X0036532Y0233556D01*
X0036033Y0234055D02*
X0023750Y0234055D01*
X0023750Y0234553D02*
X0035535Y0234553D01*
X0035350Y0235052D02*
X0023750Y0235052D01*
X0023750Y0235550D02*
X0035350Y0235550D01*
X0035350Y0236049D02*
X0023750Y0236049D01*
X0023750Y0236547D02*
X0035350Y0236547D01*
X0035350Y0237046D02*
X0023750Y0237046D01*
X0023750Y0237544D02*
X0035350Y0237544D01*
X0035631Y0238043D02*
X0023750Y0238043D01*
X0023750Y0238541D02*
X0036130Y0238541D01*
X0036628Y0239040D02*
X0023750Y0239040D01*
X0023763Y0239538D02*
X0037127Y0239538D01*
X0035601Y0248013D02*
X0034712Y0248013D01*
X0034213Y0248512D02*
X0036100Y0248512D01*
X0036598Y0249010D02*
X0033715Y0249010D01*
X0033216Y0249509D02*
X0037097Y0249509D01*
X0037090Y0252998D02*
X0032022Y0252998D01*
X0032022Y0252500D02*
X0054275Y0252500D01*
X0053777Y0252998D02*
X0040910Y0252998D01*
X0041409Y0253497D02*
X0053278Y0253497D01*
X0052780Y0253995D02*
X0041907Y0253995D01*
X0042406Y0254494D02*
X0052281Y0254494D01*
X0054240Y0257485D02*
X0055350Y0257485D01*
X0055350Y0256986D02*
X0054739Y0256986D01*
X0055237Y0256488D02*
X0055350Y0256488D01*
X0055571Y0257983D02*
X0053742Y0257983D01*
X0056070Y0258482D02*
X0041930Y0258482D01*
X0041432Y0258980D02*
X0056568Y0258980D01*
X0057067Y0259479D02*
X0040933Y0259479D01*
X0040903Y0249509D02*
X0057097Y0249509D01*
X0056598Y0249010D02*
X0041402Y0249010D01*
X0041900Y0248512D02*
X0056100Y0248512D01*
X0055601Y0248013D02*
X0042399Y0248013D01*
X0042650Y0247515D02*
X0043790Y0247515D01*
X0043291Y0247016D02*
X0042650Y0247016D01*
X0042650Y0246518D02*
X0042793Y0246518D01*
X0044751Y0243527D02*
X0056562Y0243527D01*
X0056063Y0244025D02*
X0045250Y0244025D01*
X0044253Y0243028D02*
X0057060Y0243028D01*
X0057488Y0239900D02*
X0055350Y0237762D01*
X0055350Y0234738D01*
X0057488Y0232600D01*
X0060512Y0232600D01*
X0062650Y0234738D01*
X0062650Y0237762D01*
X0060512Y0239900D01*
X0057488Y0239900D01*
X0057127Y0239538D02*
X0040873Y0239538D01*
X0041372Y0239040D02*
X0056628Y0239040D01*
X0056130Y0238541D02*
X0041870Y0238541D01*
X0042369Y0238043D02*
X0055631Y0238043D01*
X0055350Y0237544D02*
X0042650Y0237544D01*
X0042650Y0237046D02*
X0055350Y0237046D01*
X0055350Y0236547D02*
X0042650Y0236547D01*
X0042650Y0236049D02*
X0055350Y0236049D01*
X0055350Y0235550D02*
X0042650Y0235550D01*
X0042650Y0235052D02*
X0055350Y0235052D01*
X0055535Y0234553D02*
X0042465Y0234553D01*
X0041967Y0234055D02*
X0056033Y0234055D01*
X0056532Y0233556D02*
X0041468Y0233556D01*
X0040970Y0233058D02*
X0057030Y0233058D01*
X0060970Y0233058D02*
X0092333Y0233058D01*
X0092333Y0233556D02*
X0072976Y0233556D01*
X0073735Y0234055D02*
X0092333Y0234055D01*
X0092333Y0234553D02*
X0074234Y0234553D01*
X0074689Y0235052D02*
X0092333Y0235052D01*
X0092333Y0235550D02*
X0074896Y0235550D01*
X0075102Y0236049D02*
X0092333Y0236049D01*
X0092333Y0236547D02*
X0075309Y0236547D01*
X0075329Y0237046D02*
X0092333Y0237046D01*
X0092333Y0237544D02*
X0075329Y0237544D01*
X0075329Y0238043D02*
X0092333Y0238043D01*
X0092333Y0238541D02*
X0075248Y0238541D01*
X0075041Y0239040D02*
X0092333Y0239040D01*
X0092333Y0239538D02*
X0074835Y0239538D01*
X0074585Y0240037D02*
X0092333Y0240037D01*
X0092333Y0240535D02*
X0074086Y0240535D01*
X0073588Y0241034D02*
X0092333Y0241034D01*
X0092333Y0241532D02*
X0073139Y0241532D01*
X0073838Y0242031D02*
X0092333Y0242031D01*
X0092333Y0242529D02*
X0074322Y0242529D01*
X0074684Y0243028D02*
X0092333Y0243028D01*
X0092333Y0243527D02*
X0074941Y0243527D01*
X0075126Y0244025D02*
X0092333Y0244025D01*
X0092333Y0244524D02*
X0075254Y0244524D01*
X0075329Y0245022D02*
X0092333Y0245022D01*
X0092333Y0245521D02*
X0071179Y0245521D01*
X0070679Y0245521D02*
X0062650Y0245521D01*
X0062650Y0246019D02*
X0066582Y0246019D01*
X0066684Y0246518D02*
X0062650Y0246518D01*
X0062650Y0247016D02*
X0066846Y0247016D01*
X0067097Y0247515D02*
X0062650Y0247515D01*
X0062399Y0248013D02*
X0067430Y0248013D01*
X0067874Y0248512D02*
X0061900Y0248512D01*
X0061402Y0249010D02*
X0068489Y0249010D01*
X0068417Y0249509D02*
X0060903Y0249509D01*
X0062650Y0245022D02*
X0066530Y0245022D01*
X0066605Y0244524D02*
X0062435Y0244524D01*
X0061937Y0244025D02*
X0066732Y0244025D01*
X0066918Y0243527D02*
X0061438Y0243527D01*
X0060940Y0243028D02*
X0067174Y0243028D01*
X0067536Y0242529D02*
X0043754Y0242529D01*
X0043256Y0242031D02*
X0068021Y0242031D01*
X0068720Y0241532D02*
X0042757Y0241532D01*
X0042259Y0241034D02*
X0068271Y0241034D01*
X0067772Y0240535D02*
X0041760Y0240535D01*
X0040750Y0232559D02*
X0092333Y0232559D01*
X0092333Y0232061D02*
X0040750Y0232061D01*
X0040750Y0231562D02*
X0092333Y0231562D01*
X0092333Y0231064D02*
X0040750Y0231064D01*
X0040750Y0230565D02*
X0092333Y0230565D01*
X0092333Y0230067D02*
X0040750Y0230067D01*
X0040750Y0229568D02*
X0092333Y0229568D01*
X0092333Y0229070D02*
X0040750Y0229070D01*
X0040750Y0228571D02*
X0092333Y0228571D01*
X0092333Y0228073D02*
X0040750Y0228073D01*
X0040750Y0227574D02*
X0092333Y0227574D01*
X0092333Y0227076D02*
X0040750Y0227076D01*
X0043750Y0219598D02*
X0044250Y0219598D01*
X0044250Y0219099D02*
X0043750Y0219099D01*
X0043750Y0218601D02*
X0044250Y0218601D01*
X0044250Y0218102D02*
X0043750Y0218102D01*
X0043750Y0217604D02*
X0044250Y0217604D01*
X0044250Y0217105D02*
X0043750Y0217105D01*
X0043750Y0216607D02*
X0044250Y0216607D01*
X0044250Y0216108D02*
X0050350Y0216108D01*
X0050350Y0215610D02*
X0047650Y0215610D01*
X0047650Y0216000D02*
X0044250Y0216000D01*
X0044250Y0212600D01*
X0045512Y0212600D01*
X0047650Y0214738D01*
X0047650Y0216000D01*
X0047650Y0216607D02*
X0050350Y0216607D01*
X0050350Y0217105D02*
X0047650Y0217105D01*
X0047650Y0217604D02*
X0050350Y0217604D01*
X0050691Y0218102D02*
X0047309Y0218102D01*
X0046811Y0218601D02*
X0051189Y0218601D01*
X0051688Y0219099D02*
X0046312Y0219099D01*
X0045814Y0219598D02*
X0052186Y0219598D01*
X0050350Y0215111D02*
X0047650Y0215111D01*
X0047525Y0214613D02*
X0050475Y0214613D01*
X0050974Y0214114D02*
X0047026Y0214114D01*
X0046528Y0213616D02*
X0051472Y0213616D01*
X0051971Y0213117D02*
X0046029Y0213117D01*
X0045531Y0212619D02*
X0051894Y0212619D01*
X0044250Y0212619D02*
X0043750Y0212619D01*
X0043750Y0213117D02*
X0044250Y0213117D01*
X0044250Y0213616D02*
X0043750Y0213616D01*
X0043750Y0214114D02*
X0044250Y0214114D01*
X0044250Y0214613D02*
X0043750Y0214613D01*
X0043750Y0215111D02*
X0044250Y0215111D01*
X0044250Y0215610D02*
X0043750Y0215610D01*
X0043750Y0216108D02*
X0032333Y0216108D01*
X0032369Y0221093D02*
X0031977Y0221093D01*
X0030484Y0225082D02*
X0036357Y0225082D01*
X0034097Y0209628D02*
X0042216Y0209628D01*
X0041717Y0209129D02*
X0034596Y0209129D01*
X0035094Y0208631D02*
X0041219Y0208631D01*
X0040720Y0208132D02*
X0035593Y0208132D01*
X0036091Y0207634D02*
X0040350Y0207634D01*
X0040350Y0207135D02*
X0036590Y0207135D01*
X0037088Y0206637D02*
X0040350Y0206637D01*
X0040350Y0206138D02*
X0037587Y0206138D01*
X0038085Y0205640D02*
X0040350Y0205640D01*
X0040350Y0205141D02*
X0038584Y0205141D01*
X0039082Y0204643D02*
X0040445Y0204643D01*
X0040944Y0204144D02*
X0039581Y0204144D01*
X0033135Y0205640D02*
X0031085Y0205640D01*
X0030587Y0206138D02*
X0032637Y0206138D01*
X0032138Y0206637D02*
X0030088Y0206637D01*
X0029590Y0207135D02*
X0031640Y0207135D01*
X0031141Y0207634D02*
X0029091Y0207634D01*
X0028593Y0208132D02*
X0030643Y0208132D01*
X0030144Y0208631D02*
X0028094Y0208631D01*
X0027596Y0209129D02*
X0029646Y0209129D01*
X0029147Y0209628D02*
X0028929Y0209628D01*
X0026250Y0189687D02*
X0025725Y0189687D01*
X0026223Y0189189D02*
X0026250Y0189189D01*
X0023485Y0182210D02*
X0022434Y0182210D01*
X0021936Y0181711D02*
X0022986Y0181711D01*
X0022488Y0181213D02*
X0021437Y0181213D01*
X0020939Y0180714D02*
X0022250Y0180714D01*
X0022250Y0180216D02*
X0020440Y0180216D01*
X0019942Y0179717D02*
X0022250Y0179717D01*
X0022250Y0179219D02*
X0019443Y0179219D01*
X0018945Y0178720D02*
X0022250Y0178720D01*
X0022250Y0178222D02*
X0018446Y0178222D01*
X0017948Y0177723D02*
X0022250Y0177723D01*
X0022250Y0177224D02*
X0017449Y0177224D01*
X0016951Y0176726D02*
X0021914Y0176726D01*
X0021416Y0176227D02*
X0016584Y0176227D01*
X0017083Y0175729D02*
X0020917Y0175729D01*
X0020704Y0175230D02*
X0017296Y0175230D01*
X0017503Y0174732D02*
X0020497Y0174732D01*
X0020350Y0174233D02*
X0017650Y0174233D01*
X0017650Y0173735D02*
X0020350Y0173735D01*
X0020350Y0173236D02*
X0017650Y0173236D01*
X0017650Y0172738D02*
X0020350Y0172738D01*
X0020350Y0172239D02*
X0017650Y0172239D01*
X0017650Y0171741D02*
X0020350Y0171741D01*
X0020350Y0171242D02*
X0017650Y0171242D01*
X0017650Y0170744D02*
X0020350Y0170744D01*
X0020350Y0170245D02*
X0017650Y0170245D01*
X0017978Y0169747D02*
X0020350Y0169747D01*
X0020350Y0169248D02*
X0018477Y0169248D01*
X0018975Y0168750D02*
X0020350Y0168750D01*
X0020350Y0168251D02*
X0019474Y0168251D01*
X0019750Y0167753D02*
X0020504Y0167753D01*
X0020710Y0167254D02*
X0019750Y0167254D01*
X0019750Y0166756D02*
X0020932Y0166756D01*
X0021431Y0166257D02*
X0019750Y0166257D01*
X0019750Y0165759D02*
X0021929Y0165759D01*
X0016250Y0146815D02*
X0015896Y0146815D01*
X0014250Y0182708D02*
X0013750Y0182708D01*
X0013750Y0183207D02*
X0014250Y0183207D01*
X0014250Y0183705D02*
X0013750Y0183705D01*
X0013750Y0184204D02*
X0014250Y0184204D01*
X0014250Y0184702D02*
X0013750Y0184702D01*
X0013750Y0185201D02*
X0014250Y0185201D01*
X0014250Y0185699D02*
X0013750Y0185699D01*
X0013750Y0187195D02*
X0014250Y0187195D01*
X0014250Y0187693D02*
X0013750Y0187693D01*
X0013750Y0188192D02*
X0014250Y0188192D01*
X0014250Y0188690D02*
X0013750Y0188690D01*
X0013750Y0189189D02*
X0014250Y0189189D01*
X0014250Y0189687D02*
X0013750Y0189687D01*
X0015725Y0189687D02*
X0022275Y0189687D01*
X0021777Y0189189D02*
X0016223Y0189189D01*
X0016722Y0188690D02*
X0021278Y0188690D01*
X0020780Y0188192D02*
X0017220Y0188192D01*
X0017650Y0187693D02*
X0020350Y0187693D01*
X0020350Y0187195D02*
X0017650Y0187195D01*
X0023750Y0232061D02*
X0023881Y0232061D01*
X0023750Y0232559D02*
X0024363Y0232559D01*
X0024861Y0233058D02*
X0023750Y0233058D01*
X0023750Y0233556D02*
X0025685Y0233556D01*
X0024262Y0240037D02*
X0067274Y0240037D01*
X0067024Y0239538D02*
X0060873Y0239538D01*
X0061372Y0239040D02*
X0066817Y0239040D01*
X0066611Y0238541D02*
X0061870Y0238541D01*
X0062369Y0238043D02*
X0066530Y0238043D01*
X0066530Y0237544D02*
X0062650Y0237544D01*
X0062650Y0237046D02*
X0066530Y0237046D01*
X0066549Y0236547D02*
X0062650Y0236547D01*
X0062650Y0236049D02*
X0066756Y0236049D01*
X0066962Y0235550D02*
X0062650Y0235550D01*
X0062650Y0235052D02*
X0067169Y0235052D01*
X0067624Y0234553D02*
X0062465Y0234553D01*
X0061967Y0234055D02*
X0068123Y0234055D01*
X0068882Y0233556D02*
X0061468Y0233556D01*
X0067918Y0250007D02*
X0032718Y0250007D01*
X0032219Y0250506D02*
X0056269Y0250506D01*
X0055771Y0251004D02*
X0031721Y0251004D01*
X0031673Y0251503D02*
X0055272Y0251503D01*
X0054774Y0252001D02*
X0031880Y0252001D01*
X0032022Y0253497D02*
X0036591Y0253497D01*
X0036093Y0253995D02*
X0032022Y0253995D01*
X0031856Y0254494D02*
X0035594Y0254494D01*
X0035350Y0254992D02*
X0031649Y0254992D01*
X0031443Y0255491D02*
X0035350Y0255491D01*
X0035350Y0255989D02*
X0031073Y0255989D01*
X0030575Y0256488D02*
X0035350Y0256488D01*
X0035350Y0256986D02*
X0030022Y0256986D01*
X0028819Y0257485D02*
X0035350Y0257485D01*
X0029741Y0241034D02*
X0028712Y0241034D01*
X0030240Y0240535D02*
X0024760Y0240535D01*
X0025259Y0241034D02*
X0026532Y0241034D01*
X0057530Y0150305D02*
X0086250Y0150305D01*
X0086250Y0150803D02*
X0058028Y0150803D01*
X0058527Y0151302D02*
X0086250Y0151302D01*
X0086250Y0151800D02*
X0059025Y0151800D01*
X0057031Y0149806D02*
X0086250Y0149806D01*
X0086250Y0149308D02*
X0056533Y0149308D01*
X0056034Y0148809D02*
X0086250Y0148809D01*
X0086250Y0148311D02*
X0055536Y0148311D01*
X0055037Y0147812D02*
X0086250Y0147812D01*
X0086250Y0147314D02*
X0054539Y0147314D01*
X0051840Y0135848D02*
X0051750Y0135848D01*
X0051750Y0135350D02*
X0052913Y0135350D01*
X0054250Y0132300D02*
X0054250Y0126500D01*
X0057650Y0126500D01*
X0057650Y0129009D01*
X0057510Y0129715D01*
X0057235Y0130379D01*
X0056835Y0130977D01*
X0056327Y0131485D01*
X0055729Y0131885D01*
X0055065Y0132160D01*
X0054359Y0132300D01*
X0054250Y0132300D01*
X0054250Y0131860D02*
X0053750Y0131860D01*
X0053750Y0131361D02*
X0054250Y0131361D01*
X0054250Y0130863D02*
X0053750Y0130863D01*
X0053750Y0130364D02*
X0054250Y0130364D01*
X0054250Y0129866D02*
X0053750Y0129866D01*
X0053750Y0129367D02*
X0054250Y0129367D01*
X0054250Y0128869D02*
X0053750Y0128869D01*
X0053750Y0128370D02*
X0054250Y0128370D01*
X0054250Y0127872D02*
X0053750Y0127872D01*
X0053750Y0127373D02*
X0054250Y0127373D01*
X0054250Y0126875D02*
X0053750Y0126875D01*
X0052234Y0131860D02*
X0051750Y0131860D01*
X0051750Y0132358D02*
X0086250Y0132358D01*
X0086250Y0131860D02*
X0085788Y0131860D01*
X0086250Y0132857D02*
X0051750Y0132857D01*
X0051750Y0133355D02*
X0086250Y0133355D01*
X0086250Y0133854D02*
X0051750Y0133854D01*
X0051750Y0134353D02*
X0086250Y0134353D01*
X0086250Y0134851D02*
X0051750Y0134851D01*
X0055766Y0131860D02*
X0062212Y0131860D01*
X0061550Y0131361D02*
X0056450Y0131361D01*
X0056911Y0130863D02*
X0061051Y0130863D01*
X0060759Y0130364D02*
X0057241Y0130364D01*
X0057447Y0129866D02*
X0060553Y0129866D01*
X0060350Y0129367D02*
X0057579Y0129367D01*
X0057650Y0128869D02*
X0060350Y0128869D01*
X0060350Y0128370D02*
X0057650Y0128370D01*
X0057650Y0127872D02*
X0060350Y0127872D01*
X0060350Y0127373D02*
X0057650Y0127373D01*
X0057650Y0126875D02*
X0060350Y0126875D01*
X0051856Y0120893D02*
X0051750Y0120893D01*
X0059750Y0177723D02*
X0069052Y0177723D01*
X0068554Y0178222D02*
X0059750Y0178222D01*
X0059750Y0178720D02*
X0068055Y0178720D01*
X0067557Y0179219D02*
X0059750Y0179219D01*
X0059750Y0179717D02*
X0067058Y0179717D01*
X0066560Y0180216D02*
X0059750Y0180216D01*
X0059750Y0180714D02*
X0066061Y0180714D01*
X0065563Y0181213D02*
X0059750Y0181213D01*
X0059750Y0181711D02*
X0065064Y0181711D01*
X0064566Y0182210D02*
X0059750Y0182210D01*
X0059750Y0182708D02*
X0064067Y0182708D01*
X0063569Y0183207D02*
X0059750Y0183207D01*
X0059750Y0183705D02*
X0063070Y0183705D01*
X0062571Y0184204D02*
X0059750Y0184204D01*
X0059750Y0184702D02*
X0062073Y0184702D01*
X0061574Y0185201D02*
X0059750Y0185201D01*
X0059750Y0185699D02*
X0061076Y0185699D01*
X0060577Y0186198D02*
X0059750Y0186198D01*
X0059750Y0186696D02*
X0060079Y0186696D01*
X0062038Y0189687D02*
X0072275Y0189687D01*
X0071777Y0189189D02*
X0062536Y0189189D01*
X0063035Y0188690D02*
X0071278Y0188690D01*
X0070780Y0188192D02*
X0063533Y0188192D01*
X0064032Y0187693D02*
X0070350Y0187693D01*
X0070350Y0187195D02*
X0064530Y0187195D01*
X0076086Y0176726D02*
X0082034Y0176726D01*
X0081416Y0176227D02*
X0076584Y0176227D01*
X0077083Y0175729D02*
X0080999Y0175729D01*
X0080704Y0175230D02*
X0077296Y0175230D01*
X0077503Y0174732D02*
X0080497Y0174732D01*
X0080395Y0174233D02*
X0077650Y0174233D01*
X0077650Y0173735D02*
X0080350Y0173735D01*
X0080350Y0173236D02*
X0077650Y0173236D01*
X0077650Y0172738D02*
X0080350Y0172738D01*
X0080350Y0172239D02*
X0077650Y0172239D01*
X0077650Y0171741D02*
X0080350Y0171741D01*
X0085620Y0182708D02*
X0086250Y0182708D01*
X0086250Y0183207D02*
X0086118Y0183207D01*
X0088041Y0190684D02*
X0092333Y0190684D01*
X0092333Y0190186D02*
X0088539Y0190186D01*
X0089038Y0189687D02*
X0092333Y0189687D01*
X0092333Y0189189D02*
X0089536Y0189189D01*
X0089750Y0188690D02*
X0092333Y0188690D01*
X0092333Y0188192D02*
X0089750Y0188192D01*
X0089750Y0187693D02*
X0092333Y0187693D01*
X0092333Y0187195D02*
X0089750Y0187195D01*
X0089750Y0186696D02*
X0092333Y0186696D01*
X0092333Y0186198D02*
X0089750Y0186198D01*
X0089750Y0185699D02*
X0092333Y0185699D01*
X0092333Y0185201D02*
X0089750Y0185201D01*
X0089750Y0184702D02*
X0092333Y0184702D01*
X0092333Y0184204D02*
X0089750Y0184204D01*
X0089750Y0183705D02*
X0092333Y0183705D01*
X0092333Y0183207D02*
X0089750Y0183207D01*
X0089750Y0182708D02*
X0092333Y0182708D01*
X0092333Y0182210D02*
X0089750Y0182210D01*
X0089750Y0181711D02*
X0092333Y0181711D01*
X0092333Y0181213D02*
X0089750Y0181213D01*
X0089750Y0180714D02*
X0092333Y0180714D01*
X0092333Y0180216D02*
X0089750Y0180216D01*
X0089750Y0179717D02*
X0092333Y0179717D01*
X0092333Y0179219D02*
X0089750Y0179219D01*
X0089750Y0178720D02*
X0092333Y0178720D01*
X0092333Y0178222D02*
X0089750Y0178222D01*
X0089750Y0177723D02*
X0092333Y0177723D01*
X0092333Y0177224D02*
X0089750Y0177224D01*
X0089750Y0176726D02*
X0092333Y0176726D01*
X0092333Y0176227D02*
X0089750Y0176227D01*
X0089750Y0175729D02*
X0092333Y0175729D01*
X0092333Y0175230D02*
X0089750Y0175230D01*
X0089750Y0174732D02*
X0092333Y0174732D01*
X0092333Y0174233D02*
X0089750Y0174233D01*
X0089750Y0173735D02*
X0092333Y0173735D01*
X0092333Y0173236D02*
X0089750Y0173236D01*
X0089750Y0172738D02*
X0092333Y0172738D01*
X0092333Y0172239D02*
X0089750Y0172239D01*
X0089750Y0171741D02*
X0092333Y0171741D01*
X0092333Y0171242D02*
X0089750Y0171242D01*
X0089750Y0170744D02*
X0092333Y0170744D01*
X0092333Y0170245D02*
X0089750Y0170245D01*
X0089750Y0169747D02*
X0092333Y0169747D01*
X0092333Y0169248D02*
X0089750Y0169248D01*
X0089750Y0168750D02*
X0092333Y0168750D01*
X0092333Y0168251D02*
X0089750Y0168251D01*
X0089750Y0167753D02*
X0092333Y0167753D01*
X0092333Y0167254D02*
X0089750Y0167254D01*
X0089750Y0166756D02*
X0092333Y0166756D01*
X0092333Y0166257D02*
X0089750Y0166257D01*
X0089750Y0165759D02*
X0092333Y0165759D01*
X0092333Y0165260D02*
X0089750Y0165260D01*
X0089750Y0164762D02*
X0092333Y0164762D01*
X0092333Y0164263D02*
X0089750Y0164263D01*
X0089750Y0163765D02*
X0092333Y0163765D01*
X0092333Y0163266D02*
X0089750Y0163266D01*
X0089750Y0162768D02*
X0092333Y0162768D01*
X0092333Y0162269D02*
X0089750Y0162269D01*
X0089750Y0161771D02*
X0092333Y0161771D01*
X0092333Y0161272D02*
X0089750Y0161272D01*
X0089750Y0160774D02*
X0092333Y0160774D01*
X0092333Y0160275D02*
X0089750Y0160275D01*
X0089750Y0159777D02*
X0092333Y0159777D01*
X0092333Y0159278D02*
X0089750Y0159278D01*
X0089750Y0158780D02*
X0092333Y0158780D01*
X0092333Y0158281D02*
X0089750Y0158281D01*
X0089750Y0157783D02*
X0092333Y0157783D01*
X0092333Y0157284D02*
X0089750Y0157284D01*
X0089750Y0156786D02*
X0092333Y0156786D01*
X0092333Y0156287D02*
X0089750Y0156287D01*
X0089750Y0155789D02*
X0092333Y0155789D01*
X0092333Y0155290D02*
X0089750Y0155290D01*
X0089750Y0154791D02*
X0092333Y0154791D01*
X0092333Y0154293D02*
X0089750Y0154293D01*
X0089750Y0153794D02*
X0092333Y0153794D01*
X0092333Y0153296D02*
X0089750Y0153296D01*
X0089750Y0152797D02*
X0092333Y0152797D01*
X0092333Y0152299D02*
X0089750Y0152299D01*
X0089750Y0151800D02*
X0092333Y0151800D01*
X0092333Y0151302D02*
X0089750Y0151302D01*
X0089750Y0150803D02*
X0092333Y0150803D01*
X0092333Y0150305D02*
X0089750Y0150305D01*
X0089750Y0149806D02*
X0092333Y0149806D01*
X0092333Y0149308D02*
X0089750Y0149308D01*
X0089750Y0148809D02*
X0092333Y0148809D01*
X0092333Y0148311D02*
X0089750Y0148311D01*
X0089750Y0147812D02*
X0092333Y0147812D01*
X0092333Y0147314D02*
X0089750Y0147314D01*
X0089750Y0146815D02*
X0092333Y0146815D01*
X0092333Y0146317D02*
X0089750Y0146317D01*
X0089750Y0145818D02*
X0092333Y0145818D01*
X0092333Y0145320D02*
X0089750Y0145320D01*
X0089750Y0144821D02*
X0092333Y0144821D01*
X0092333Y0144323D02*
X0089750Y0144323D01*
X0089750Y0143824D02*
X0092333Y0143824D01*
X0092333Y0143326D02*
X0089750Y0143326D01*
X0089750Y0142827D02*
X0092333Y0142827D01*
X0092333Y0142329D02*
X0089750Y0142329D01*
X0089750Y0141830D02*
X0092333Y0141830D01*
X0092333Y0141332D02*
X0089750Y0141332D01*
X0089750Y0140833D02*
X0092333Y0140833D01*
X0092333Y0140335D02*
X0089750Y0140335D01*
X0089750Y0139836D02*
X0092333Y0139836D01*
X0092333Y0139338D02*
X0089750Y0139338D01*
X0089750Y0138839D02*
X0092333Y0138839D01*
X0092333Y0138341D02*
X0089750Y0138341D01*
X0089750Y0137842D02*
X0092333Y0137842D01*
X0092333Y0137344D02*
X0089750Y0137344D01*
X0089750Y0136845D02*
X0092333Y0136845D01*
X0092333Y0136347D02*
X0089750Y0136347D01*
X0089750Y0135848D02*
X0092333Y0135848D01*
X0092333Y0135350D02*
X0089750Y0135350D01*
X0089750Y0134851D02*
X0092333Y0134851D01*
X0092333Y0134353D02*
X0089750Y0134353D01*
X0089750Y0133854D02*
X0092333Y0133854D01*
X0092333Y0133355D02*
X0089750Y0133355D01*
X0089750Y0132857D02*
X0092333Y0132857D01*
X0092333Y0132358D02*
X0089750Y0132358D01*
X0089750Y0131860D02*
X0092333Y0131860D01*
X0092333Y0131361D02*
X0089750Y0131361D01*
X0089750Y0130863D02*
X0092333Y0130863D01*
X0092333Y0130364D02*
X0089750Y0130364D01*
X0089750Y0129866D02*
X0092333Y0129866D01*
X0092333Y0129367D02*
X0089750Y0129367D01*
X0089750Y0128869D02*
X0092333Y0128869D01*
X0092333Y0128370D02*
X0089750Y0128370D01*
X0089750Y0127872D02*
X0092333Y0127872D01*
X0092333Y0127373D02*
X0089750Y0127373D01*
X0089750Y0126875D02*
X0092333Y0126875D01*
X0092333Y0126376D02*
X0089750Y0126376D01*
X0089750Y0125878D02*
X0092333Y0125878D01*
X0092333Y0125379D02*
X0089750Y0125379D01*
X0089750Y0124881D02*
X0092333Y0124881D01*
X0092333Y0124382D02*
X0089750Y0124382D01*
X0089750Y0123884D02*
X0092333Y0123884D01*
X0092333Y0123385D02*
X0089750Y0123385D01*
X0089750Y0122887D02*
X0092333Y0122887D01*
X0092333Y0122388D02*
X0089750Y0122388D01*
X0089750Y0121890D02*
X0092333Y0121890D01*
X0092333Y0121391D02*
X0089750Y0121391D01*
X0089750Y0120893D02*
X0092333Y0120893D01*
X0092333Y0120394D02*
X0089750Y0120394D01*
X0089750Y0119896D02*
X0092333Y0119896D01*
X0092333Y0119397D02*
X0089750Y0119397D01*
X0089750Y0118899D02*
X0092333Y0118899D01*
X0092333Y0118400D02*
X0089750Y0118400D01*
X0089750Y0117902D02*
X0092333Y0117902D01*
X0092333Y0117403D02*
X0089750Y0117403D01*
X0089750Y0116905D02*
X0092333Y0116905D01*
X0092333Y0116406D02*
X0089750Y0116406D01*
X0089750Y0115908D02*
X0092333Y0115908D01*
X0092333Y0115409D02*
X0089750Y0115409D01*
X0089750Y0114911D02*
X0092333Y0114911D01*
X0092333Y0114412D02*
X0089750Y0114412D01*
X0089750Y0113914D02*
X0092333Y0113914D01*
X0092333Y0113415D02*
X0089750Y0113415D01*
X0089750Y0112917D02*
X0092333Y0112917D01*
X0092333Y0112418D02*
X0089750Y0112418D01*
X0089750Y0111920D02*
X0092333Y0111920D01*
X0092333Y0111421D02*
X0089750Y0111421D01*
X0089750Y0110922D02*
X0092333Y0110922D01*
X0092333Y0110424D02*
X0089750Y0110424D01*
X0089750Y0109925D02*
X0092333Y0109925D01*
X0092333Y0109427D02*
X0089750Y0109427D01*
X0089750Y0108928D02*
X0092333Y0108928D01*
X0092333Y0108430D02*
X0089750Y0108430D01*
X0089750Y0107931D02*
X0092333Y0107931D01*
X0092333Y0107433D02*
X0089750Y0107433D01*
X0089750Y0106934D02*
X0092333Y0106934D01*
X0092333Y0106436D02*
X0089750Y0106436D01*
X0089750Y0105937D02*
X0092333Y0105937D01*
X0092333Y0105439D02*
X0089750Y0105439D01*
X0089750Y0104940D02*
X0092333Y0104940D01*
X0092333Y0104442D02*
X0089750Y0104442D01*
X0089750Y0103943D02*
X0092333Y0103943D01*
X0092333Y0103445D02*
X0089750Y0103445D01*
X0089750Y0102946D02*
X0092333Y0102946D01*
X0092333Y0102448D02*
X0089750Y0102448D01*
X0089750Y0101949D02*
X0092333Y0101949D01*
X0092333Y0101451D02*
X0089750Y0101451D01*
X0089750Y0100952D02*
X0092333Y0100952D01*
X0092333Y0100454D02*
X0089750Y0100454D01*
X0089750Y0099955D02*
X0092333Y0099955D01*
X0092333Y0099457D02*
X0089750Y0099457D01*
X0089750Y0098958D02*
X0092333Y0098958D01*
X0092333Y0098460D02*
X0089750Y0098460D01*
X0089750Y0097961D02*
X0092333Y0097961D01*
X0092333Y0097463D02*
X0089750Y0097463D01*
X0089750Y0096964D02*
X0092333Y0096964D01*
X0092333Y0096466D02*
X0089750Y0096466D01*
X0089750Y0095967D02*
X0092333Y0095967D01*
X0092333Y0095469D02*
X0089750Y0095469D01*
X0089750Y0094970D02*
X0092333Y0094970D01*
X0092333Y0094472D02*
X0089750Y0094472D01*
X0089750Y0093973D02*
X0092333Y0093973D01*
X0092333Y0093475D02*
X0089750Y0093475D01*
X0089750Y0092976D02*
X0092333Y0092976D01*
X0092333Y0092478D02*
X0089750Y0092478D01*
X0089750Y0091979D02*
X0092333Y0091979D01*
X0092333Y0091481D02*
X0089750Y0091481D01*
X0089750Y0090982D02*
X0092333Y0090982D01*
X0092333Y0090484D02*
X0089708Y0090484D01*
X0089210Y0089985D02*
X0092333Y0089985D01*
X0092333Y0089487D02*
X0088711Y0089487D01*
X0088213Y0088988D02*
X0092333Y0088988D01*
X0092333Y0088489D02*
X0087714Y0088489D01*
X0087216Y0087991D02*
X0092333Y0087991D01*
X0092333Y0087492D02*
X0086717Y0087492D01*
X0086219Y0086994D02*
X0092333Y0086994D01*
X0092333Y0086495D02*
X0085720Y0086495D01*
X0085222Y0085997D02*
X0092333Y0085997D01*
X0092333Y0085498D02*
X0084723Y0085498D01*
X0084225Y0085000D02*
X0092333Y0085000D01*
X0092333Y0084501D02*
X0085910Y0084501D01*
X0086409Y0084003D02*
X0092333Y0084003D01*
X0092333Y0083504D02*
X0086907Y0083504D01*
X0087406Y0083006D02*
X0092333Y0083006D01*
X0092333Y0082507D02*
X0087650Y0082507D01*
X0087650Y0082009D02*
X0092333Y0082009D01*
X0092333Y0081510D02*
X0087650Y0081510D01*
X0087650Y0081012D02*
X0092333Y0081012D01*
X0092333Y0080513D02*
X0087650Y0080513D01*
X0087710Y0080015D02*
X0092333Y0080015D01*
X0092333Y0079516D02*
X0088209Y0079516D01*
X0088707Y0079018D02*
X0092333Y0079018D01*
X0092333Y0078519D02*
X0089206Y0078519D01*
X0089704Y0078021D02*
X0092333Y0078021D01*
X0092333Y0077522D02*
X0089750Y0077522D01*
X0089750Y0077024D02*
X0092333Y0077024D01*
X0092333Y0076525D02*
X0089750Y0076525D01*
X0089750Y0076027D02*
X0092333Y0076027D01*
X0092333Y0075528D02*
X0089750Y0075528D01*
X0089750Y0075030D02*
X0092333Y0075030D01*
X0092333Y0074531D02*
X0089750Y0074531D01*
X0089750Y0074033D02*
X0092333Y0074033D01*
X0092333Y0073534D02*
X0089750Y0073534D01*
X0089750Y0073036D02*
X0092333Y0073036D01*
X0092333Y0072537D02*
X0089750Y0072537D01*
X0089750Y0072039D02*
X0092333Y0072039D01*
X0092333Y0071540D02*
X0089750Y0071540D01*
X0089750Y0071042D02*
X0092333Y0071042D01*
X0092333Y0070543D02*
X0089750Y0070543D01*
X0089750Y0070045D02*
X0092333Y0070045D01*
X0092333Y0069546D02*
X0089750Y0069546D01*
X0089750Y0069048D02*
X0092333Y0069048D01*
X0092333Y0068549D02*
X0089750Y0068549D01*
X0089275Y0068051D02*
X0092333Y0068051D01*
X0092333Y0067552D02*
X0088777Y0067552D01*
X0088278Y0067053D02*
X0092333Y0067053D01*
X0092333Y0066555D02*
X0087780Y0066555D01*
X0087281Y0066056D02*
X0092333Y0066056D01*
X0092333Y0065558D02*
X0086783Y0065558D01*
X0086149Y0064062D02*
X0092333Y0064062D01*
X0092333Y0063564D02*
X0086648Y0063564D01*
X0086999Y0063065D02*
X0092333Y0063065D01*
X0092333Y0062567D02*
X0087205Y0062567D01*
X0087412Y0062068D02*
X0092333Y0062068D01*
X0092333Y0061570D02*
X0087450Y0061570D01*
X0087450Y0061071D02*
X0092333Y0061071D01*
X0092333Y0060573D02*
X0087450Y0060573D01*
X0087264Y0060074D02*
X0092333Y0060074D01*
X0092333Y0059576D02*
X0087057Y0059576D01*
X0086789Y0059077D02*
X0092333Y0059077D01*
X0092333Y0058579D02*
X0086291Y0058579D01*
X0085686Y0058080D02*
X0092333Y0058080D01*
X0092333Y0064561D02*
X0085345Y0064561D01*
X0085284Y0065059D02*
X0092333Y0065059D01*
X0086250Y0074033D02*
X0086179Y0074033D01*
X0086250Y0074531D02*
X0085416Y0074531D01*
X0083750Y0090200D02*
X0083750Y0096000D01*
X0080350Y0096000D01*
X0080350Y0093490D01*
X0080490Y0092785D01*
X0080765Y0092121D01*
X0081165Y0091523D01*
X0081673Y0091015D01*
X0082271Y0090615D01*
X0082935Y0090340D01*
X0083640Y0090200D01*
X0083750Y0090200D01*
X0083750Y0090484D02*
X0084250Y0090484D01*
X0084250Y0090982D02*
X0083750Y0090982D01*
X0083750Y0091481D02*
X0084250Y0091481D01*
X0084250Y0091979D02*
X0083750Y0091979D01*
X0083750Y0092478D02*
X0084250Y0092478D01*
X0084250Y0092976D02*
X0083750Y0092976D01*
X0083750Y0093475D02*
X0084250Y0093475D01*
X0084250Y0093973D02*
X0083750Y0093973D01*
X0083750Y0094472D02*
X0084250Y0094472D01*
X0084250Y0094970D02*
X0083750Y0094970D01*
X0083750Y0095469D02*
X0084250Y0095469D01*
X0084250Y0095967D02*
X0083750Y0095967D01*
X0083750Y0096466D02*
X0077650Y0096466D01*
X0077650Y0096964D02*
X0080350Y0096964D01*
X0080350Y0097463D02*
X0077650Y0097463D01*
X0077650Y0097961D02*
X0080350Y0097961D01*
X0080350Y0098460D02*
X0077650Y0098460D01*
X0077650Y0098958D02*
X0080350Y0098958D01*
X0080439Y0099457D02*
X0077617Y0099457D01*
X0077410Y0099955D02*
X0080590Y0099955D01*
X0080815Y0100454D02*
X0077204Y0100454D01*
X0076860Y0100952D02*
X0081149Y0100952D01*
X0081639Y0101451D02*
X0076361Y0101451D01*
X0075573Y0101949D02*
X0082427Y0101949D01*
X0083750Y0101949D02*
X0084250Y0101949D01*
X0084250Y0101451D02*
X0083750Y0101451D01*
X0083750Y0100952D02*
X0084250Y0100952D01*
X0084250Y0100454D02*
X0083750Y0100454D01*
X0083750Y0099955D02*
X0084250Y0099955D01*
X0084250Y0099457D02*
X0083750Y0099457D01*
X0083750Y0098958D02*
X0084250Y0098958D01*
X0084250Y0098460D02*
X0083750Y0098460D01*
X0083750Y0097961D02*
X0084250Y0097961D01*
X0084250Y0097463D02*
X0083750Y0097463D01*
X0083750Y0096964D02*
X0084250Y0096964D01*
X0085573Y0101949D02*
X0086250Y0101949D01*
X0081722Y0090982D02*
X0076294Y0090982D01*
X0076792Y0091481D02*
X0081208Y0091481D01*
X0080860Y0091979D02*
X0077176Y0091979D01*
X0077382Y0092478D02*
X0080618Y0092478D01*
X0080452Y0092976D02*
X0077589Y0092976D01*
X0077650Y0093475D02*
X0080353Y0093475D01*
X0080350Y0093973D02*
X0077650Y0093973D01*
X0077650Y0094472D02*
X0080350Y0094472D01*
X0080350Y0094970D02*
X0077650Y0094970D01*
X0077650Y0095469D02*
X0080350Y0095469D01*
X0080350Y0095967D02*
X0077650Y0095967D01*
X0075411Y0090484D02*
X0082589Y0090484D01*
X0074250Y0084501D02*
X0073750Y0084501D01*
X0073750Y0084003D02*
X0074250Y0084003D01*
X0074250Y0083504D02*
X0073750Y0083504D01*
X0073750Y0083006D02*
X0074250Y0083006D01*
X0074250Y0082507D02*
X0073750Y0082507D01*
X0073750Y0082009D02*
X0074250Y0082009D01*
X0074250Y0081510D02*
X0073750Y0081510D01*
X0067081Y0036644D02*
X0092333Y0036644D01*
X0092333Y0036146D02*
X0067579Y0036146D01*
X0068078Y0035647D02*
X0092333Y0035647D01*
X0092333Y0035149D02*
X0068576Y0035149D01*
X0069075Y0034650D02*
X0092333Y0034650D01*
X0092333Y0034152D02*
X0069573Y0034152D01*
X0070072Y0033653D02*
X0092333Y0033653D01*
X0092333Y0033155D02*
X0070570Y0033155D01*
X0070750Y0032656D02*
X0092333Y0032656D01*
X0092333Y0032158D02*
X0070750Y0032158D01*
X0070750Y0031659D02*
X0092333Y0031659D01*
X0092333Y0031161D02*
X0070750Y0031161D01*
X0070750Y0030662D02*
X0092333Y0030662D01*
X0092333Y0030164D02*
X0070750Y0030164D01*
X0070750Y0029665D02*
X0092333Y0029665D01*
X0092333Y0029167D02*
X0070750Y0029167D01*
X0070750Y0028668D02*
X0092333Y0028668D01*
X0092333Y0028170D02*
X0070750Y0028170D01*
X0070750Y0027671D02*
X0092333Y0027671D01*
X0092333Y0027173D02*
X0070750Y0027173D01*
X0070750Y0026674D02*
X0092333Y0026674D01*
X0092333Y0026176D02*
X0070750Y0026176D01*
X0070750Y0025677D02*
X0092333Y0025677D01*
X0092333Y0025179D02*
X0070750Y0025179D01*
X0072657Y0024680D02*
X0092333Y0024680D01*
X0092333Y0024182D02*
X0073630Y0024182D01*
X0074129Y0023683D02*
X0092333Y0023683D01*
X0092333Y0023184D02*
X0074549Y0023184D01*
X0074756Y0022686D02*
X0092333Y0022686D01*
X0092333Y0022187D02*
X0074962Y0022187D01*
X0075050Y0021689D02*
X0092333Y0021689D01*
X0092333Y0021190D02*
X0085372Y0021190D01*
X0086575Y0020692D02*
X0092333Y0020692D01*
X0092333Y0020193D02*
X0087654Y0020193D01*
X0088152Y0019695D02*
X0092333Y0019695D01*
X0092333Y0019196D02*
X0088651Y0019196D01*
X0089149Y0018698D02*
X0092333Y0018698D01*
X0092333Y0018199D02*
X0089648Y0018199D01*
X0090038Y0017701D02*
X0092333Y0017701D01*
X0092333Y0017202D02*
X0090244Y0017202D01*
X0090451Y0016704D02*
X0092333Y0016704D01*
X0092333Y0016205D02*
X0090657Y0016205D01*
X0090864Y0015707D02*
X0092333Y0015707D01*
X0092333Y0015208D02*
X0091070Y0015208D01*
X0091258Y0014710D02*
X0092333Y0014710D01*
X0092333Y0014211D02*
X0091258Y0014211D01*
X0091258Y0013713D02*
X0092333Y0013713D01*
X0092333Y0013214D02*
X0091258Y0013214D01*
X0091258Y0012716D02*
X0092333Y0012716D01*
X0092333Y0012217D02*
X0091258Y0012217D01*
X0091258Y0011719D02*
X0092333Y0011719D01*
X0092333Y0011220D02*
X0091197Y0011220D01*
X0090991Y0010722D02*
X0092333Y0010722D01*
X0092333Y0010223D02*
X0090784Y0010223D01*
X0090578Y0009725D02*
X0092333Y0009725D01*
X0092333Y0009226D02*
X0090371Y0009226D01*
X0090165Y0008728D02*
X0092333Y0008728D01*
X0092333Y0008229D02*
X0089954Y0008229D01*
X0089456Y0007731D02*
X0092333Y0007731D01*
X0092333Y0007232D02*
X0088957Y0007232D01*
X0088459Y0006734D02*
X0092333Y0006734D01*
X0092333Y0006235D02*
X0087960Y0006235D01*
X0087315Y0005737D02*
X0092333Y0005737D01*
X0092333Y0005238D02*
X0086112Y0005238D01*
X0084908Y0004740D02*
X0092333Y0004740D01*
X0080108Y0021190D02*
X0075050Y0021190D01*
X0075050Y0020692D02*
X0078905Y0020692D01*
X0077827Y0020193D02*
X0074913Y0020193D01*
X0074707Y0019695D02*
X0077328Y0019695D01*
X0076830Y0019196D02*
X0074500Y0019196D01*
X0074010Y0018698D02*
X0076331Y0018698D01*
X0075833Y0018199D02*
X0073511Y0018199D01*
X0072370Y0017701D02*
X0075443Y0017701D01*
X0085087Y0135350D02*
X0086250Y0135350D01*
X0086250Y0135848D02*
X0086160Y0135848D01*
X0086250Y0146815D02*
X0085896Y0146815D01*
X0087542Y0191183D02*
X0092333Y0191183D01*
X0092333Y0191681D02*
X0087044Y0191681D01*
X0086545Y0192180D02*
X0092333Y0192180D01*
X0092333Y0192678D02*
X0086047Y0192678D01*
X0085548Y0193177D02*
X0092333Y0193177D01*
X0092333Y0193675D02*
X0085049Y0193675D01*
X0084551Y0194174D02*
X0092333Y0194174D01*
X0092333Y0194672D02*
X0084052Y0194672D01*
X0083554Y0195171D02*
X0092333Y0195171D01*
X0092333Y0195669D02*
X0083055Y0195669D01*
X0082557Y0196168D02*
X0092333Y0196168D01*
X0092333Y0196666D02*
X0082058Y0196666D01*
X0081560Y0197165D02*
X0092333Y0197165D01*
X0092333Y0197663D02*
X0081061Y0197663D01*
X0080563Y0198162D02*
X0092333Y0198162D01*
X0092333Y0198660D02*
X0080064Y0198660D01*
X0075277Y0246019D02*
X0092333Y0246019D01*
X0092333Y0246518D02*
X0075174Y0246518D01*
X0075012Y0247016D02*
X0092333Y0247016D01*
X0092333Y0247515D02*
X0074761Y0247515D01*
X0074428Y0248013D02*
X0092333Y0248013D01*
X0092333Y0248512D02*
X0073984Y0248512D01*
X0073369Y0249010D02*
X0092333Y0249010D01*
X0092333Y0249509D02*
X0073441Y0249509D01*
X0073940Y0250007D02*
X0092333Y0250007D01*
X0092333Y0250506D02*
X0074438Y0250506D01*
X0074774Y0251004D02*
X0092333Y0251004D01*
X0092333Y0251503D02*
X0074980Y0251503D01*
X0075187Y0252001D02*
X0092333Y0252001D01*
X0092333Y0252500D02*
X0075329Y0252500D01*
X0075329Y0252998D02*
X0092333Y0252998D01*
X0092333Y0253497D02*
X0075329Y0253497D01*
X0075329Y0253995D02*
X0092333Y0253995D01*
X0092333Y0254494D02*
X0075163Y0254494D01*
X0074957Y0254992D02*
X0092333Y0254992D01*
X0092333Y0255491D02*
X0074750Y0255491D01*
X0074380Y0255989D02*
X0092333Y0255989D01*
X0092333Y0256488D02*
X0073882Y0256488D01*
X0073330Y0256986D02*
X0092333Y0256986D01*
X0092333Y0257485D02*
X0072126Y0257485D01*
X0069732Y0257485D02*
X0062650Y0257485D01*
X0062650Y0256986D02*
X0068529Y0256986D01*
X0067976Y0256488D02*
X0062650Y0256488D01*
X0062650Y0255989D02*
X0067478Y0255989D01*
X0067108Y0255491D02*
X0062650Y0255491D01*
X0062650Y0254992D02*
X0066902Y0254992D01*
X0066695Y0254494D02*
X0062406Y0254494D01*
X0062429Y0257983D02*
X0092333Y0257983D01*
X0092333Y0258482D02*
X0061930Y0258482D01*
X0061432Y0258980D02*
X0092333Y0258980D01*
X0092333Y0259479D02*
X0060933Y0259479D01*
M02*
