%
M48
M72
T01C0.01181
T02C0.02756
T03C0.03200
T04C0.12598
%
T01
X73500Y164500
T02
X70398Y214098
X70398Y221972
X70398Y237720
X70398Y245594
X70398Y253469
X25122Y253469
X25122Y245594
X25122Y229846
X25122Y221972
X25122Y214098
X25122Y80240
X25122Y72366
X25122Y64492
X25122Y56618
X25122Y40870
X25122Y32996
T03
X36500Y21500
X41500Y31500
X46500Y41500
X46500Y51500
X46500Y61500
X46500Y71500
X41500Y81500
X41500Y96500
X41500Y106500
X41500Y116500
X41500Y126500
X41500Y136500
X41500Y146500
X41500Y156500
X36500Y176500
X36500Y186500
X36500Y196500
X31500Y166500
X21500Y166500
X16500Y176500
X16500Y186500
X16500Y196500
X11500Y156500
X11500Y146500
X11500Y136500
X11500Y126500
X11500Y116500
X11500Y106500
X11500Y96500
X56500Y96500
X56500Y106500
X56500Y116500
X56500Y126500
X56500Y151500
X56500Y161500
X56500Y171500
X56500Y181500
X66500Y191500
X76500Y191500
X86500Y181500
X86500Y171500
X86500Y161500
X86500Y151500
X86500Y126500
X86500Y116500
X86500Y106500
X86500Y96500
X81500Y81500
X76500Y71500
X76500Y61500
X76500Y51500
X76500Y41500
X66500Y21500
X61500Y31500
X61500Y81500
X71500Y81500
X66500Y136500
X76500Y136500
X51500Y231500
X56500Y241500
X56500Y251500
X41500Y231500
X36500Y241500
X36500Y251500
T04
X13311Y13311
X82209Y13311
X82209Y273154
X13311Y273154
M30
