G75*
%MOIN*%
%OFA0B0*%
%FSLAX25Y25*%
%IPPOS*%
%LPD*%
%AMOC8*
5,1,8,0,0,1.08239X$1,22.5*
%
%ADD10OC8,0.04800*%
%ADD11C,0.04800*%
%ADD12C,0.06299*%
%ADD13C,0.01000*%
%ADD14C,0.02362*%
D10*
X0041500Y0031500D03*
X0041500Y0081500D03*
X0061500Y0081500D03*
X0071500Y0081500D03*
X0081500Y0081500D03*
X0076500Y0136500D03*
X0066500Y0136500D03*
X0066500Y0191500D03*
X0076500Y0191500D03*
X0056500Y0241500D03*
X0056500Y0251500D03*
X0051500Y0231500D03*
X0041500Y0231500D03*
X0036500Y0241500D03*
X0036500Y0251500D03*
X0036500Y0196500D03*
X0036500Y0186500D03*
X0036500Y0176500D03*
X0031500Y0166500D03*
X0021500Y0166500D03*
X0016500Y0176500D03*
X0016500Y0186500D03*
X0016500Y0196500D03*
X0061500Y0031500D03*
D11*
X0064100Y0021500D02*
X0068900Y0021500D01*
X0076500Y0041500D02*
X0081300Y0041500D01*
X0081300Y0051500D02*
X0076500Y0051500D01*
X0076500Y0061500D02*
X0081300Y0061500D01*
X0081300Y0071500D02*
X0076500Y0071500D01*
X0084100Y0096500D02*
X0088900Y0096500D01*
X0088900Y0106500D02*
X0084100Y0106500D01*
X0084100Y0116500D02*
X0088900Y0116500D01*
X0088900Y0126500D02*
X0084100Y0126500D01*
X0084100Y0151500D02*
X0088900Y0151500D01*
X0088900Y0161500D02*
X0084100Y0161500D01*
X0084100Y0171500D02*
X0088900Y0171500D01*
X0088900Y0181500D02*
X0084100Y0181500D01*
X0058900Y0181500D02*
X0054100Y0181500D01*
X0054100Y0171500D02*
X0058900Y0171500D01*
X0058900Y0161500D02*
X0054100Y0161500D01*
X0054100Y0151500D02*
X0058900Y0151500D01*
X0058900Y0126500D02*
X0054100Y0126500D01*
X0054100Y0116500D02*
X0058900Y0116500D01*
X0058900Y0106500D02*
X0054100Y0106500D01*
X0054100Y0096500D02*
X0058900Y0096500D01*
X0046500Y0071500D02*
X0041700Y0071500D01*
X0041700Y0061500D02*
X0046500Y0061500D01*
X0046500Y0051500D02*
X0041700Y0051500D01*
X0041700Y0041500D02*
X0046500Y0041500D01*
X0038900Y0021500D02*
X0034100Y0021500D01*
X0039100Y0096500D02*
X0043900Y0096500D01*
X0043900Y0106500D02*
X0039100Y0106500D01*
X0039100Y0116500D02*
X0043900Y0116500D01*
X0043900Y0126500D02*
X0039100Y0126500D01*
X0039100Y0136500D02*
X0043900Y0136500D01*
X0043900Y0146500D02*
X0039100Y0146500D01*
X0039100Y0156500D02*
X0043900Y0156500D01*
X0013900Y0156500D02*
X0009100Y0156500D01*
X0009100Y0146500D02*
X0013900Y0146500D01*
X0013900Y0136500D02*
X0009100Y0136500D01*
X0009100Y0126500D02*
X0013900Y0126500D01*
X0013900Y0116500D02*
X0009100Y0116500D01*
X0009100Y0106500D02*
X0013900Y0106500D01*
X0013900Y0096500D02*
X0009100Y0096500D01*
D12*
X0025122Y0080240D03*
X0025122Y0072366D03*
X0025122Y0064492D03*
X0025122Y0056618D03*
X0025122Y0040870D03*
X0025122Y0032996D03*
X0025122Y0214098D03*
X0025122Y0221972D03*
X0025122Y0229846D03*
X0025122Y0245594D03*
X0025122Y0253469D03*
X0070398Y0253469D03*
X0070398Y0245594D03*
X0070398Y0237720D03*
X0070398Y0221972D03*
X0070398Y0214098D03*
D13*
X0003968Y0068203D02*
X0003968Y0003968D01*
X0091551Y0003968D01*
X0091551Y0093636D01*
X0091386Y0093471D01*
X0090747Y0093044D01*
X0090038Y0092750D01*
X0089284Y0092600D01*
X0086800Y0092600D01*
X0086800Y0096200D01*
X0086200Y0096200D01*
X0086200Y0092600D01*
X0083716Y0092600D01*
X0082962Y0092750D01*
X0082253Y0093044D01*
X0081614Y0093471D01*
X0081071Y0094014D01*
X0080644Y0094653D01*
X0080350Y0095362D01*
X0080200Y0096116D01*
X0080200Y0096200D01*
X0086200Y0096200D01*
X0086200Y0096800D01*
X0086200Y0100400D01*
X0083716Y0100400D01*
X0082962Y0100250D01*
X0082253Y0099956D01*
X0081614Y0099529D01*
X0081071Y0098986D01*
X0080644Y0098347D01*
X0080350Y0097638D01*
X0080200Y0096884D01*
X0080200Y0096800D01*
X0086200Y0096800D01*
X0086800Y0096800D01*
X0086800Y0100400D01*
X0089284Y0100400D01*
X0090038Y0100250D01*
X0090747Y0099956D01*
X0091386Y0099529D01*
X0091551Y0099364D01*
X0091551Y0103636D01*
X0091109Y0103194D01*
X0089676Y0102600D01*
X0083324Y0102600D01*
X0081891Y0103194D01*
X0080794Y0104291D01*
X0080200Y0105724D01*
X0080200Y0107276D01*
X0080794Y0108709D01*
X0081891Y0109806D01*
X0082226Y0109945D01*
X0047672Y0144500D01*
X0047404Y0144768D01*
X0047356Y0144653D01*
X0046929Y0144014D01*
X0046386Y0143471D01*
X0045747Y0143044D01*
X0045038Y0142750D01*
X0044284Y0142600D01*
X0041800Y0142600D01*
X0041800Y0146200D01*
X0041200Y0146200D01*
X0041200Y0142600D01*
X0038716Y0142600D01*
X0037962Y0142750D01*
X0037253Y0143044D01*
X0036614Y0143471D01*
X0036071Y0144014D01*
X0035644Y0144653D01*
X0035350Y0145362D01*
X0035200Y0146116D01*
X0035200Y0146200D01*
X0041200Y0146200D01*
X0041200Y0146800D01*
X0041200Y0150400D01*
X0038716Y0150400D01*
X0037962Y0150250D01*
X0037253Y0149956D01*
X0036614Y0149529D01*
X0036071Y0148986D01*
X0035644Y0148347D01*
X0035350Y0147638D01*
X0035200Y0146884D01*
X0035200Y0146800D01*
X0041200Y0146800D01*
X0041800Y0146800D01*
X0041800Y0150400D01*
X0044284Y0150400D01*
X0045038Y0150250D01*
X0045747Y0149956D01*
X0046386Y0149529D01*
X0046500Y0149415D01*
X0046500Y0153585D01*
X0046109Y0153194D01*
X0044676Y0152600D01*
X0038324Y0152600D01*
X0036891Y0153194D01*
X0035794Y0154291D01*
X0035200Y0155724D01*
X0035200Y0157276D01*
X0035794Y0158709D01*
X0036128Y0159043D01*
X0032572Y0162600D01*
X0029885Y0162600D01*
X0027600Y0164885D01*
X0027600Y0168115D01*
X0029885Y0170400D01*
X0030772Y0170400D01*
X0022500Y0178672D01*
X0022500Y0170672D01*
X0022228Y0170400D01*
X0023115Y0170400D01*
X0025400Y0168115D01*
X0025400Y0166800D01*
X0021800Y0166800D01*
X0021800Y0166200D01*
X0025400Y0166200D01*
X0025400Y0164885D01*
X0023115Y0162600D01*
X0021800Y0162600D01*
X0021800Y0166200D01*
X0021200Y0166200D01*
X0021200Y0162600D01*
X0019885Y0162600D01*
X0019500Y0162985D01*
X0019500Y0159328D01*
X0020500Y0158328D01*
X0020500Y0124672D01*
X0015770Y0119941D01*
X0016386Y0119529D01*
X0016929Y0118986D01*
X0017356Y0118347D01*
X0017650Y0117638D01*
X0017800Y0116884D01*
X0017800Y0116800D01*
X0011800Y0116800D01*
X0011800Y0116200D01*
X0017800Y0116200D01*
X0017800Y0116116D01*
X0017650Y0115362D01*
X0017356Y0114653D01*
X0016929Y0114014D01*
X0016386Y0113471D01*
X0015747Y0113044D01*
X0015038Y0112750D01*
X0014284Y0112600D01*
X0011800Y0112600D01*
X0011800Y0116200D01*
X0011200Y0116200D01*
X0011200Y0112600D01*
X0008716Y0112600D01*
X0007962Y0112750D01*
X0007253Y0113044D01*
X0006614Y0113471D01*
X0006500Y0113585D01*
X0006500Y0109415D01*
X0006891Y0109806D01*
X0008324Y0110400D01*
X0014676Y0110400D01*
X0016109Y0109806D01*
X0017206Y0108709D01*
X0017800Y0107276D01*
X0017800Y0105724D01*
X0017206Y0104291D01*
X0016109Y0103194D01*
X0014676Y0102600D01*
X0008324Y0102600D01*
X0006891Y0103194D01*
X0006500Y0103585D01*
X0006500Y0099415D01*
X0006614Y0099529D01*
X0007253Y0099956D01*
X0007962Y0100250D01*
X0008716Y0100400D01*
X0011200Y0100400D01*
X0011200Y0096800D01*
X0011800Y0096800D01*
X0011800Y0100400D01*
X0014284Y0100400D01*
X0015038Y0100250D01*
X0015747Y0099956D01*
X0016386Y0099529D01*
X0016929Y0098986D01*
X0017356Y0098347D01*
X0017650Y0097638D01*
X0017800Y0096884D01*
X0017800Y0096800D01*
X0011800Y0096800D01*
X0011800Y0096200D01*
X0017800Y0096200D01*
X0017800Y0096116D01*
X0017650Y0095362D01*
X0017356Y0094653D01*
X0016929Y0094014D01*
X0016386Y0093471D01*
X0015747Y0093044D01*
X0015038Y0092750D01*
X0014284Y0092600D01*
X0011800Y0092600D01*
X0011800Y0096200D01*
X0011200Y0096200D01*
X0011200Y0092600D01*
X0008716Y0092600D01*
X0007962Y0092750D01*
X0007253Y0093044D01*
X0006614Y0093471D01*
X0006500Y0093585D01*
X0006500Y0071328D01*
X0020472Y0057356D01*
X0020472Y0057543D01*
X0021180Y0059252D01*
X0022488Y0060560D01*
X0022575Y0060596D01*
X0022093Y0060946D01*
X0021576Y0061463D01*
X0021145Y0062055D01*
X0020813Y0062707D01*
X0020587Y0063403D01*
X0020472Y0064126D01*
X0020472Y0064303D01*
X0024933Y0064303D01*
X0024933Y0064681D01*
X0020472Y0064681D01*
X0020472Y0064858D01*
X0020587Y0065581D01*
X0020813Y0066277D01*
X0021145Y0066929D01*
X0021576Y0067521D01*
X0022093Y0068039D01*
X0022575Y0068389D01*
X0022488Y0068424D01*
X0021180Y0069732D01*
X0020472Y0071441D01*
X0020472Y0073291D01*
X0021180Y0075000D01*
X0022484Y0076303D01*
X0021180Y0077606D01*
X0020472Y0079315D01*
X0020472Y0081165D01*
X0021180Y0082874D01*
X0022488Y0084182D01*
X0024197Y0084890D01*
X0026047Y0084890D01*
X0027756Y0084182D01*
X0029064Y0082874D01*
X0029772Y0081165D01*
X0029772Y0079315D01*
X0029403Y0078425D01*
X0029500Y0078328D01*
X0043772Y0092600D01*
X0038324Y0092600D01*
X0036891Y0093194D01*
X0035794Y0094291D01*
X0035200Y0095724D01*
X0035200Y0097276D01*
X0035794Y0098709D01*
X0036891Y0099806D01*
X0038324Y0100400D01*
X0044676Y0100400D01*
X0046109Y0099806D01*
X0047206Y0098709D01*
X0047404Y0098232D01*
X0047672Y0098500D01*
X0052226Y0103055D01*
X0051891Y0103194D01*
X0050794Y0104291D01*
X0050200Y0105724D01*
X0050200Y0107276D01*
X0050794Y0108709D01*
X0051891Y0109806D01*
X0053324Y0110400D01*
X0057772Y0110400D01*
X0055572Y0112600D01*
X0053324Y0112600D01*
X0051891Y0113194D01*
X0050794Y0114291D01*
X0050200Y0115724D01*
X0050200Y0117276D01*
X0050794Y0118709D01*
X0051891Y0119806D01*
X0053324Y0120400D01*
X0059676Y0120400D01*
X0061109Y0119806D01*
X0062206Y0118709D01*
X0062800Y0117276D01*
X0062800Y0115724D01*
X0062206Y0114291D01*
X0061109Y0113194D01*
X0060774Y0113055D01*
X0068328Y0105500D01*
X0069500Y0104328D01*
X0069500Y0085015D01*
X0069885Y0085400D01*
X0071200Y0085400D01*
X0071200Y0081800D01*
X0071800Y0081800D01*
X0071800Y0085400D01*
X0073115Y0085400D01*
X0075400Y0083115D01*
X0075400Y0081800D01*
X0071800Y0081800D01*
X0071800Y0081200D01*
X0075400Y0081200D01*
X0075400Y0079885D01*
X0073115Y0077600D01*
X0071800Y0077600D01*
X0071800Y0081200D01*
X0071200Y0081200D01*
X0071200Y0077628D01*
X0072500Y0076328D01*
X0077600Y0081428D01*
X0077600Y0083115D01*
X0079885Y0085400D01*
X0083115Y0085400D01*
X0085400Y0083115D01*
X0085400Y0079885D01*
X0083115Y0077600D01*
X0079885Y0077600D01*
X0079656Y0077828D01*
X0077228Y0075400D01*
X0082076Y0075400D01*
X0083509Y0074806D01*
X0084606Y0073709D01*
X0085200Y0072276D01*
X0085200Y0070724D01*
X0084606Y0069291D01*
X0083509Y0068194D01*
X0082076Y0067600D01*
X0077228Y0067600D01*
X0078500Y0066328D01*
X0078500Y0065400D01*
X0082076Y0065400D01*
X0083509Y0064806D01*
X0084606Y0063709D01*
X0085200Y0062276D01*
X0085200Y0060724D01*
X0084606Y0059291D01*
X0083509Y0058194D01*
X0082076Y0057600D01*
X0075724Y0057600D01*
X0074291Y0058194D01*
X0073194Y0059291D01*
X0072600Y0060724D01*
X0072600Y0062276D01*
X0073194Y0063709D01*
X0074291Y0064806D01*
X0074344Y0064828D01*
X0071672Y0067500D01*
X0070500Y0068672D01*
X0070500Y0072672D01*
X0065500Y0077672D01*
X0065500Y0102672D01*
X0062697Y0105475D01*
X0062206Y0104291D01*
X0061109Y0103194D01*
X0059676Y0102600D01*
X0057428Y0102600D01*
X0055228Y0100400D01*
X0059676Y0100400D01*
X0061109Y0099806D01*
X0062206Y0098709D01*
X0062800Y0097276D01*
X0062800Y0095724D01*
X0062206Y0094291D01*
X0061109Y0093194D01*
X0059676Y0092600D01*
X0058500Y0092600D01*
X0058500Y0084015D01*
X0059885Y0085400D01*
X0063115Y0085400D01*
X0065400Y0083115D01*
X0065400Y0079885D01*
X0063115Y0077600D01*
X0059885Y0077600D01*
X0058500Y0078985D01*
X0058500Y0072328D01*
X0075515Y0055313D01*
X0075724Y0055400D01*
X0082076Y0055400D01*
X0083509Y0054806D01*
X0084606Y0053709D01*
X0085200Y0052276D01*
X0085200Y0050724D01*
X0084606Y0049291D01*
X0083509Y0048194D01*
X0082076Y0047600D01*
X0075724Y0047600D01*
X0074291Y0048194D01*
X0073194Y0049291D01*
X0072600Y0050724D01*
X0072600Y0052276D01*
X0072687Y0052485D01*
X0054500Y0070672D01*
X0054500Y0092600D01*
X0053324Y0092600D01*
X0051891Y0093194D01*
X0050794Y0094291D01*
X0050500Y0095000D01*
X0050500Y0093672D01*
X0042228Y0085400D01*
X0043115Y0085400D01*
X0045400Y0083115D01*
X0045400Y0079885D01*
X0043115Y0077600D01*
X0039885Y0077600D01*
X0037600Y0079885D01*
X0037600Y0080772D01*
X0032328Y0075500D01*
X0038292Y0069536D01*
X0037800Y0070724D01*
X0037800Y0072276D01*
X0038394Y0073709D01*
X0039491Y0074806D01*
X0040924Y0075400D01*
X0047276Y0075400D01*
X0048709Y0074806D01*
X0049806Y0073709D01*
X0050400Y0072276D01*
X0050400Y0070724D01*
X0049806Y0069291D01*
X0048709Y0068194D01*
X0048656Y0068172D01*
X0063500Y0053328D01*
X0063500Y0035015D01*
X0065400Y0033115D01*
X0065400Y0029885D01*
X0063115Y0027600D01*
X0062228Y0027600D01*
X0064428Y0025400D01*
X0069676Y0025400D01*
X0071109Y0024806D01*
X0072206Y0023709D01*
X0072800Y0022276D01*
X0072800Y0020724D01*
X0072206Y0019291D01*
X0071109Y0018194D01*
X0069676Y0017600D01*
X0063324Y0017600D01*
X0061891Y0018194D01*
X0060794Y0019291D01*
X0060200Y0020724D01*
X0060200Y0022276D01*
X0060697Y0023475D01*
X0055500Y0028672D01*
X0055500Y0035672D01*
X0050400Y0040772D01*
X0050400Y0040724D01*
X0049806Y0039291D01*
X0048709Y0038194D01*
X0047276Y0037600D01*
X0040924Y0037600D01*
X0039491Y0038194D01*
X0038500Y0039185D01*
X0038500Y0034015D01*
X0039885Y0035400D01*
X0043115Y0035400D01*
X0045400Y0033115D01*
X0045400Y0029885D01*
X0043115Y0027600D01*
X0039885Y0027600D01*
X0038500Y0028985D01*
X0038500Y0025400D01*
X0039676Y0025400D01*
X0041109Y0024806D01*
X0042206Y0023709D01*
X0042800Y0022276D01*
X0042800Y0020724D01*
X0042206Y0019291D01*
X0041109Y0018194D01*
X0039676Y0017600D01*
X0033324Y0017600D01*
X0031891Y0018194D01*
X0030794Y0019291D01*
X0030200Y0020724D01*
X0030200Y0022276D01*
X0030794Y0023709D01*
X0031891Y0024806D01*
X0033324Y0025400D01*
X0034500Y0025400D01*
X0034500Y0049500D01*
X0022672Y0049500D01*
X0021500Y0050672D01*
X0003968Y0068203D01*
X0003968Y0067402D02*
X0004770Y0067402D01*
X0003968Y0066403D02*
X0005768Y0066403D01*
X0006767Y0065405D02*
X0003968Y0065405D01*
X0003968Y0064406D02*
X0007765Y0064406D01*
X0008764Y0063408D02*
X0003968Y0063408D01*
X0003968Y0062409D02*
X0009762Y0062409D01*
X0010761Y0061411D02*
X0003968Y0061411D01*
X0003968Y0060412D02*
X0011759Y0060412D01*
X0012758Y0059414D02*
X0003968Y0059414D01*
X0003968Y0058415D02*
X0013756Y0058415D01*
X0014755Y0057417D02*
X0003968Y0057417D01*
X0003968Y0056418D02*
X0015753Y0056418D01*
X0016752Y0055420D02*
X0003968Y0055420D01*
X0003968Y0054421D02*
X0017750Y0054421D01*
X0018749Y0053423D02*
X0003968Y0053423D01*
X0003968Y0052424D02*
X0019747Y0052424D01*
X0020746Y0051426D02*
X0003968Y0051426D01*
X0003968Y0050427D02*
X0021745Y0050427D01*
X0023500Y0051500D02*
X0036500Y0051500D01*
X0036500Y0021500D01*
X0038500Y0025464D02*
X0058707Y0025464D01*
X0057709Y0026463D02*
X0038500Y0026463D01*
X0038500Y0027461D02*
X0056710Y0027461D01*
X0055712Y0028460D02*
X0043975Y0028460D01*
X0042306Y0023467D02*
X0060694Y0023467D01*
X0060280Y0022469D02*
X0042720Y0022469D01*
X0042800Y0021470D02*
X0060200Y0021470D01*
X0060305Y0020472D02*
X0042695Y0020472D01*
X0042282Y0019473D02*
X0060718Y0019473D01*
X0061610Y0018475D02*
X0041390Y0018475D01*
X0041450Y0024466D02*
X0059706Y0024466D01*
X0057500Y0029500D02*
X0065500Y0021500D01*
X0066500Y0021500D01*
X0064364Y0025464D02*
X0091551Y0025464D01*
X0091551Y0024466D02*
X0071450Y0024466D01*
X0072306Y0023467D02*
X0091551Y0023467D01*
X0091551Y0022469D02*
X0072720Y0022469D01*
X0072800Y0021470D02*
X0078996Y0021470D01*
X0080465Y0022079D02*
X0077242Y0020744D01*
X0074776Y0018278D01*
X0073441Y0015055D01*
X0073441Y0011567D01*
X0074776Y0008345D01*
X0077242Y0005878D01*
X0080465Y0004543D01*
X0083953Y0004543D01*
X0087175Y0005878D01*
X0089642Y0008345D01*
X0090976Y0011567D01*
X0090976Y0015055D01*
X0089642Y0018278D01*
X0087175Y0020744D01*
X0083953Y0022079D01*
X0080465Y0022079D01*
X0076970Y0020472D02*
X0072695Y0020472D01*
X0072282Y0019473D02*
X0075971Y0019473D01*
X0074973Y0018475D02*
X0071390Y0018475D01*
X0073441Y0014481D02*
X0022079Y0014481D01*
X0022079Y0015055D02*
X0020744Y0018278D01*
X0018278Y0020744D01*
X0015055Y0022079D01*
X0011567Y0022079D01*
X0008345Y0020744D01*
X0005878Y0018278D01*
X0004543Y0015055D01*
X0004543Y0011567D01*
X0005878Y0008345D01*
X0008345Y0005878D01*
X0011567Y0004543D01*
X0015055Y0004543D01*
X0018278Y0005878D01*
X0020744Y0008345D01*
X0022079Y0011567D01*
X0022079Y0015055D01*
X0021903Y0015479D02*
X0073617Y0015479D01*
X0074030Y0016478D02*
X0021489Y0016478D01*
X0021076Y0017476D02*
X0074444Y0017476D01*
X0073441Y0013482D02*
X0022079Y0013482D01*
X0022079Y0012484D02*
X0073441Y0012484D01*
X0073475Y0011485D02*
X0022045Y0011485D01*
X0021631Y0010487D02*
X0073888Y0010487D01*
X0074302Y0009488D02*
X0021218Y0009488D01*
X0020804Y0008490D02*
X0074716Y0008490D01*
X0075629Y0007491D02*
X0019890Y0007491D01*
X0018892Y0006493D02*
X0076628Y0006493D01*
X0078169Y0005494D02*
X0017350Y0005494D01*
X0020547Y0018475D02*
X0031610Y0018475D01*
X0030718Y0019473D02*
X0019548Y0019473D01*
X0018550Y0020472D02*
X0030305Y0020472D01*
X0030200Y0021470D02*
X0016524Y0021470D01*
X0021180Y0030362D02*
X0020472Y0032071D01*
X0020472Y0033921D01*
X0021180Y0035630D01*
X0022488Y0036938D01*
X0022575Y0036974D01*
X0022093Y0037324D01*
X0021576Y0037841D01*
X0021145Y0038433D01*
X0020813Y0039085D01*
X0020587Y0039781D01*
X0020472Y0040504D01*
X0020472Y0040681D01*
X0024933Y0040681D01*
X0024933Y0041059D01*
X0020472Y0041059D01*
X0020472Y0041236D01*
X0020587Y0041959D01*
X0020813Y0042655D01*
X0021145Y0043307D01*
X0021576Y0043899D01*
X0022093Y0044417D01*
X0022685Y0044847D01*
X0023337Y0045179D01*
X0024033Y0045405D01*
X0024756Y0045520D01*
X0024933Y0045520D01*
X0024933Y0041059D01*
X0025311Y0041059D01*
X0029772Y0041059D01*
X0029772Y0041236D01*
X0029657Y0041959D01*
X0029431Y0042655D01*
X0029099Y0043307D01*
X0028669Y0043899D01*
X0028151Y0044417D01*
X0027559Y0044847D01*
X0026907Y0045179D01*
X0026211Y0045405D01*
X0025488Y0045520D01*
X0025311Y0045520D01*
X0025311Y0041059D01*
X0025311Y0040681D01*
X0029772Y0040681D01*
X0029772Y0040504D01*
X0029657Y0039781D01*
X0029431Y0039085D01*
X0029099Y0038433D01*
X0028669Y0037841D01*
X0028151Y0037324D01*
X0027669Y0036974D01*
X0027756Y0036938D01*
X0029064Y0035630D01*
X0029772Y0033921D01*
X0029772Y0032071D01*
X0029064Y0030362D01*
X0027756Y0029054D01*
X0026047Y0028346D01*
X0024197Y0028346D01*
X0022488Y0029054D01*
X0021180Y0030362D01*
X0021141Y0030457D02*
X0003968Y0030457D01*
X0003968Y0031455D02*
X0020728Y0031455D01*
X0020472Y0032454D02*
X0003968Y0032454D01*
X0003968Y0033452D02*
X0020472Y0033452D01*
X0020692Y0034451D02*
X0003968Y0034451D01*
X0003968Y0035449D02*
X0021106Y0035449D01*
X0021998Y0036448D02*
X0003968Y0036448D01*
X0003968Y0037446D02*
X0021970Y0037446D01*
X0021139Y0038445D02*
X0003968Y0038445D01*
X0003968Y0039443D02*
X0020697Y0039443D01*
X0020482Y0040442D02*
X0003968Y0040442D01*
X0003968Y0041440D02*
X0020505Y0041440D01*
X0020743Y0042439D02*
X0003968Y0042439D01*
X0003968Y0043437D02*
X0021240Y0043437D01*
X0022120Y0044436D02*
X0003968Y0044436D01*
X0003968Y0045434D02*
X0024218Y0045434D01*
X0024933Y0045434D02*
X0025311Y0045434D01*
X0026026Y0045434D02*
X0034500Y0045434D01*
X0034500Y0044436D02*
X0028124Y0044436D01*
X0029004Y0043437D02*
X0034500Y0043437D01*
X0034500Y0042439D02*
X0029501Y0042439D01*
X0029739Y0041440D02*
X0034500Y0041440D01*
X0034500Y0040442D02*
X0029762Y0040442D01*
X0029547Y0039443D02*
X0034500Y0039443D01*
X0034500Y0038445D02*
X0029105Y0038445D01*
X0028274Y0037446D02*
X0034500Y0037446D01*
X0034500Y0036448D02*
X0028246Y0036448D01*
X0029139Y0035449D02*
X0034500Y0035449D01*
X0034500Y0034451D02*
X0029552Y0034451D01*
X0029772Y0033452D02*
X0034500Y0033452D01*
X0034500Y0032454D02*
X0029772Y0032454D01*
X0029517Y0031455D02*
X0034500Y0031455D01*
X0034500Y0030457D02*
X0029103Y0030457D01*
X0028160Y0029458D02*
X0034500Y0029458D01*
X0034500Y0028460D02*
X0026321Y0028460D01*
X0023924Y0028460D02*
X0003968Y0028460D01*
X0003968Y0029458D02*
X0022084Y0029458D01*
X0024933Y0041440D02*
X0025311Y0041440D01*
X0025311Y0042439D02*
X0024933Y0042439D01*
X0024933Y0043437D02*
X0025311Y0043437D01*
X0025311Y0044436D02*
X0024933Y0044436D01*
X0023500Y0051500D02*
X0004500Y0070500D01*
X0004500Y0117500D01*
X0007500Y0120500D01*
X0013500Y0120500D01*
X0018500Y0125500D01*
X0018500Y0157500D01*
X0017500Y0158500D01*
X0017500Y0168500D01*
X0020500Y0171500D01*
X0020500Y0178500D01*
X0016500Y0182500D01*
X0016500Y0186500D01*
X0018500Y0190015D02*
X0018115Y0190400D01*
X0014885Y0190400D01*
X0012600Y0188115D01*
X0012600Y0184885D01*
X0014500Y0182985D01*
X0014500Y0181672D01*
X0015772Y0180400D01*
X0014885Y0180400D01*
X0012600Y0178115D01*
X0012600Y0175428D01*
X0003968Y0166797D01*
X0003968Y0282496D01*
X0091551Y0282496D01*
X0091551Y0184364D01*
X0091109Y0184806D01*
X0089676Y0185400D01*
X0083324Y0185400D01*
X0081891Y0184806D01*
X0081500Y0184415D01*
X0081500Y0187672D01*
X0082500Y0188672D01*
X0082500Y0222328D01*
X0071630Y0233198D01*
X0073031Y0233779D01*
X0074339Y0235087D01*
X0075047Y0236796D01*
X0075047Y0238645D01*
X0074339Y0240354D01*
X0073031Y0241662D01*
X0072945Y0241698D01*
X0073427Y0242048D01*
X0073944Y0242565D01*
X0074374Y0243158D01*
X0074707Y0243810D01*
X0074933Y0244506D01*
X0075047Y0245229D01*
X0075047Y0245405D01*
X0070587Y0245405D01*
X0070587Y0245783D01*
X0075047Y0245783D01*
X0075047Y0245960D01*
X0074933Y0246683D01*
X0074707Y0247379D01*
X0074374Y0248031D01*
X0073944Y0248623D01*
X0073427Y0249141D01*
X0072945Y0249491D01*
X0073031Y0249527D01*
X0074339Y0250835D01*
X0075047Y0252544D01*
X0075047Y0254393D01*
X0074339Y0256102D01*
X0073031Y0257410D01*
X0071323Y0258118D01*
X0069473Y0258118D01*
X0067981Y0257500D01*
X0053672Y0257500D01*
X0052500Y0256328D01*
X0049672Y0253500D01*
X0040015Y0253500D01*
X0038115Y0255400D01*
X0034885Y0255400D01*
X0032600Y0253115D01*
X0032600Y0249885D01*
X0034885Y0247600D01*
X0038115Y0247600D01*
X0040015Y0249500D01*
X0051328Y0249500D01*
X0052600Y0250772D01*
X0052600Y0249885D01*
X0054885Y0247600D01*
X0058115Y0247600D01*
X0060400Y0249885D01*
X0060400Y0253115D01*
X0060015Y0253500D01*
X0065748Y0253500D01*
X0065748Y0252544D01*
X0066456Y0250835D01*
X0067764Y0249527D01*
X0067850Y0249491D01*
X0067369Y0249141D01*
X0066851Y0248623D01*
X0066421Y0248031D01*
X0066089Y0247379D01*
X0065863Y0246683D01*
X0065748Y0245960D01*
X0065748Y0245783D01*
X0070209Y0245783D01*
X0070209Y0245405D01*
X0065748Y0245405D01*
X0065748Y0245229D01*
X0065863Y0244506D01*
X0066089Y0243810D01*
X0066421Y0243158D01*
X0066851Y0242565D01*
X0067369Y0242048D01*
X0067850Y0241698D01*
X0067764Y0241662D01*
X0066456Y0240354D01*
X0065748Y0238645D01*
X0065748Y0236796D01*
X0066456Y0235087D01*
X0067043Y0234500D01*
X0057328Y0234500D01*
X0049500Y0242328D01*
X0048328Y0243500D01*
X0040015Y0243500D01*
X0038115Y0245400D01*
X0035428Y0245400D01*
X0029336Y0251492D01*
X0029772Y0252544D01*
X0029772Y0254393D01*
X0029064Y0256102D01*
X0027756Y0257410D01*
X0026047Y0258118D01*
X0024197Y0258118D01*
X0022488Y0257410D01*
X0021180Y0256102D01*
X0020472Y0254393D01*
X0020472Y0252544D01*
X0021180Y0250835D01*
X0022484Y0249531D01*
X0021180Y0248228D01*
X0020472Y0246519D01*
X0020472Y0244670D01*
X0020580Y0244409D01*
X0017500Y0241328D01*
X0017500Y0211672D01*
X0018672Y0210500D01*
X0020500Y0208672D01*
X0020500Y0195328D01*
X0020400Y0195428D01*
X0020400Y0198115D01*
X0018115Y0200400D01*
X0014885Y0200400D01*
X0012600Y0198115D01*
X0012600Y0194885D01*
X0014885Y0192600D01*
X0017572Y0192600D01*
X0018500Y0191672D01*
X0018500Y0190015D01*
X0018500Y0190219D02*
X0018297Y0190219D01*
X0018500Y0191217D02*
X0003968Y0191217D01*
X0003968Y0190219D02*
X0014703Y0190219D01*
X0013705Y0189220D02*
X0003968Y0189220D01*
X0003968Y0188222D02*
X0012706Y0188222D01*
X0012600Y0187223D02*
X0003968Y0187223D01*
X0003968Y0186225D02*
X0012600Y0186225D01*
X0012600Y0185226D02*
X0003968Y0185226D01*
X0003968Y0184228D02*
X0013257Y0184228D01*
X0014256Y0183229D02*
X0003968Y0183229D01*
X0003968Y0182231D02*
X0014500Y0182231D01*
X0014940Y0181232D02*
X0003968Y0181232D01*
X0003968Y0180234D02*
X0014718Y0180234D01*
X0013720Y0179235D02*
X0003968Y0179235D01*
X0003968Y0178237D02*
X0012721Y0178237D01*
X0012600Y0177238D02*
X0003968Y0177238D01*
X0003968Y0176239D02*
X0012600Y0176239D01*
X0012413Y0175241D02*
X0003968Y0175241D01*
X0003968Y0174242D02*
X0011414Y0174242D01*
X0010416Y0173244D02*
X0003968Y0173244D01*
X0003968Y0172245D02*
X0009417Y0172245D01*
X0008419Y0171247D02*
X0003968Y0171247D01*
X0003968Y0170248D02*
X0007420Y0170248D01*
X0006421Y0169250D02*
X0003968Y0169250D01*
X0003968Y0168251D02*
X0005423Y0168251D01*
X0004424Y0167253D02*
X0003968Y0167253D01*
X0004500Y0164500D02*
X0016500Y0176500D01*
X0020500Y0183500D02*
X0020500Y0192500D01*
X0016500Y0196500D01*
X0017956Y0192216D02*
X0003968Y0192216D01*
X0003968Y0193214D02*
X0014270Y0193214D01*
X0013272Y0194213D02*
X0003968Y0194213D01*
X0003968Y0195211D02*
X0012600Y0195211D01*
X0012600Y0196210D02*
X0003968Y0196210D01*
X0003968Y0197208D02*
X0012600Y0197208D01*
X0012691Y0198207D02*
X0003968Y0198207D01*
X0003968Y0199205D02*
X0013690Y0199205D01*
X0014688Y0200204D02*
X0003968Y0200204D01*
X0003968Y0201202D02*
X0020500Y0201202D01*
X0020500Y0200204D02*
X0018312Y0200204D01*
X0019310Y0199205D02*
X0020500Y0199205D01*
X0020500Y0198207D02*
X0020309Y0198207D01*
X0020400Y0197208D02*
X0020500Y0197208D01*
X0020500Y0196210D02*
X0020400Y0196210D01*
X0020500Y0202201D02*
X0003968Y0202201D01*
X0003968Y0203199D02*
X0020500Y0203199D01*
X0020500Y0204198D02*
X0003968Y0204198D01*
X0003968Y0205196D02*
X0020500Y0205196D01*
X0020500Y0206195D02*
X0003968Y0206195D01*
X0003968Y0207193D02*
X0020500Y0207193D01*
X0020500Y0208192D02*
X0003968Y0208192D01*
X0003968Y0209190D02*
X0019981Y0209190D01*
X0018983Y0210189D02*
X0003968Y0210189D01*
X0003968Y0211187D02*
X0017984Y0211187D01*
X0017500Y0212186D02*
X0003968Y0212186D01*
X0003968Y0213184D02*
X0017500Y0213184D01*
X0017500Y0214183D02*
X0003968Y0214183D01*
X0003968Y0215181D02*
X0017500Y0215181D01*
X0017500Y0216180D02*
X0003968Y0216180D01*
X0003968Y0217178D02*
X0017500Y0217178D01*
X0017500Y0218177D02*
X0003968Y0218177D01*
X0003968Y0219175D02*
X0017500Y0219175D01*
X0017500Y0220174D02*
X0003968Y0220174D01*
X0003968Y0221172D02*
X0017500Y0221172D01*
X0017500Y0222171D02*
X0003968Y0222171D01*
X0003968Y0223170D02*
X0017500Y0223170D01*
X0017500Y0224168D02*
X0003968Y0224168D01*
X0003968Y0225167D02*
X0017500Y0225167D01*
X0017500Y0226165D02*
X0003968Y0226165D01*
X0003968Y0227164D02*
X0017500Y0227164D01*
X0017500Y0228162D02*
X0003968Y0228162D01*
X0003968Y0229161D02*
X0017500Y0229161D01*
X0017500Y0230159D02*
X0003968Y0230159D01*
X0003968Y0231158D02*
X0017500Y0231158D01*
X0017500Y0232156D02*
X0003968Y0232156D01*
X0003968Y0233155D02*
X0017500Y0233155D01*
X0017500Y0234153D02*
X0003968Y0234153D01*
X0003968Y0235152D02*
X0017500Y0235152D01*
X0017500Y0236150D02*
X0003968Y0236150D01*
X0003968Y0237149D02*
X0017500Y0237149D01*
X0017500Y0238147D02*
X0003968Y0238147D01*
X0003968Y0239146D02*
X0017500Y0239146D01*
X0017500Y0240144D02*
X0003968Y0240144D01*
X0003968Y0241143D02*
X0017500Y0241143D01*
X0018313Y0242141D02*
X0003968Y0242141D01*
X0003968Y0243140D02*
X0019311Y0243140D01*
X0020310Y0244138D02*
X0003968Y0244138D01*
X0003968Y0245137D02*
X0020472Y0245137D01*
X0020472Y0246135D02*
X0003968Y0246135D01*
X0003968Y0247134D02*
X0020727Y0247134D01*
X0021141Y0248132D02*
X0003968Y0248132D01*
X0003968Y0249131D02*
X0022083Y0249131D01*
X0021886Y0250129D02*
X0003968Y0250129D01*
X0003968Y0251128D02*
X0021059Y0251128D01*
X0020645Y0252126D02*
X0003968Y0252126D01*
X0003968Y0253125D02*
X0020472Y0253125D01*
X0020472Y0254123D02*
X0003968Y0254123D01*
X0003968Y0255122D02*
X0020774Y0255122D01*
X0021198Y0256120D02*
X0003968Y0256120D01*
X0003968Y0257119D02*
X0022197Y0257119D01*
X0024196Y0258117D02*
X0003968Y0258117D01*
X0003968Y0259116D02*
X0091551Y0259116D01*
X0091551Y0260114D02*
X0003968Y0260114D01*
X0003968Y0261113D02*
X0091551Y0261113D01*
X0091551Y0262111D02*
X0003968Y0262111D01*
X0003968Y0263110D02*
X0091551Y0263110D01*
X0091551Y0264108D02*
X0003968Y0264108D01*
X0003968Y0265107D02*
X0009826Y0265107D01*
X0008345Y0265721D02*
X0011567Y0264386D01*
X0015055Y0264386D01*
X0018278Y0265721D01*
X0020744Y0268187D01*
X0022079Y0271410D01*
X0022079Y0274898D01*
X0020744Y0278120D01*
X0018278Y0280586D01*
X0015055Y0281921D01*
X0011567Y0281921D01*
X0008345Y0280586D01*
X0005878Y0278120D01*
X0004543Y0274898D01*
X0004543Y0271410D01*
X0005878Y0268187D01*
X0008345Y0265721D01*
X0007960Y0266105D02*
X0003968Y0266105D01*
X0003968Y0267104D02*
X0006961Y0267104D01*
X0005963Y0268103D02*
X0003968Y0268103D01*
X0003968Y0269101D02*
X0005500Y0269101D01*
X0005086Y0270100D02*
X0003968Y0270100D01*
X0003968Y0271098D02*
X0004672Y0271098D01*
X0004543Y0272097D02*
X0003968Y0272097D01*
X0003968Y0273095D02*
X0004543Y0273095D01*
X0004543Y0274094D02*
X0003968Y0274094D01*
X0003968Y0275092D02*
X0004624Y0275092D01*
X0005038Y0276091D02*
X0003968Y0276091D01*
X0003968Y0277089D02*
X0005451Y0277089D01*
X0005865Y0278088D02*
X0003968Y0278088D01*
X0003968Y0279086D02*
X0006844Y0279086D01*
X0007843Y0280085D02*
X0003968Y0280085D01*
X0003968Y0281083D02*
X0009544Y0281083D01*
X0003968Y0282082D02*
X0091551Y0282082D01*
X0091551Y0281083D02*
X0085976Y0281083D01*
X0087175Y0280586D02*
X0083953Y0281921D01*
X0080465Y0281921D01*
X0077242Y0280586D01*
X0074776Y0278120D01*
X0073441Y0274898D01*
X0073441Y0271410D01*
X0074776Y0268187D01*
X0077242Y0265721D01*
X0080465Y0264386D01*
X0083953Y0264386D01*
X0087175Y0265721D01*
X0089642Y0268187D01*
X0090976Y0271410D01*
X0090976Y0274898D01*
X0089642Y0278120D01*
X0087175Y0280586D01*
X0087677Y0280085D02*
X0091551Y0280085D01*
X0091551Y0279086D02*
X0088675Y0279086D01*
X0089655Y0278088D02*
X0091551Y0278088D01*
X0091551Y0277089D02*
X0090069Y0277089D01*
X0090482Y0276091D02*
X0091551Y0276091D01*
X0091551Y0275092D02*
X0090896Y0275092D01*
X0090976Y0274094D02*
X0091551Y0274094D01*
X0091551Y0273095D02*
X0090976Y0273095D01*
X0090976Y0272097D02*
X0091551Y0272097D01*
X0091551Y0271098D02*
X0090847Y0271098D01*
X0090434Y0270100D02*
X0091551Y0270100D01*
X0091551Y0269101D02*
X0090020Y0269101D01*
X0089557Y0268103D02*
X0091551Y0268103D01*
X0091551Y0267104D02*
X0088559Y0267104D01*
X0087560Y0266105D02*
X0091551Y0266105D01*
X0091551Y0265107D02*
X0085694Y0265107D01*
X0091551Y0258117D02*
X0071324Y0258117D01*
X0069471Y0258117D02*
X0026049Y0258117D01*
X0028047Y0257119D02*
X0053290Y0257119D01*
X0052500Y0256328D02*
X0052500Y0256328D01*
X0052292Y0256120D02*
X0029046Y0256120D01*
X0029470Y0255122D02*
X0034606Y0255122D01*
X0033608Y0254123D02*
X0029772Y0254123D01*
X0029772Y0253125D02*
X0032609Y0253125D01*
X0032600Y0252126D02*
X0029599Y0252126D01*
X0029701Y0251128D02*
X0032600Y0251128D01*
X0032600Y0250129D02*
X0030699Y0250129D01*
X0031698Y0249131D02*
X0033354Y0249131D01*
X0032696Y0248132D02*
X0034352Y0248132D01*
X0033695Y0247134D02*
X0066009Y0247134D01*
X0065776Y0246135D02*
X0034693Y0246135D01*
X0032600Y0242572D02*
X0032600Y0239885D01*
X0034885Y0237600D01*
X0038115Y0237600D01*
X0040015Y0239500D01*
X0046672Y0239500D01*
X0050772Y0235400D01*
X0049885Y0235400D01*
X0047600Y0233115D01*
X0047600Y0229885D01*
X0049885Y0227600D01*
X0053115Y0227600D01*
X0054343Y0228828D01*
X0056500Y0226672D01*
X0057672Y0225500D01*
X0067350Y0225500D01*
X0066456Y0224606D01*
X0065748Y0222897D01*
X0065748Y0221048D01*
X0065886Y0220714D01*
X0040400Y0195228D01*
X0040400Y0198115D01*
X0038500Y0200015D01*
X0038500Y0219328D01*
X0029518Y0228310D01*
X0029772Y0228922D01*
X0029772Y0230771D01*
X0029064Y0232480D01*
X0027756Y0233788D01*
X0026047Y0234496D01*
X0024197Y0234496D01*
X0022488Y0233788D01*
X0021500Y0232800D01*
X0021500Y0239672D01*
X0023190Y0241362D01*
X0024197Y0240945D01*
X0026047Y0240945D01*
X0027756Y0241653D01*
X0029064Y0242961D01*
X0029772Y0244670D01*
X0029772Y0245400D01*
X0032600Y0242572D01*
X0032600Y0242141D02*
X0028244Y0242141D01*
X0029138Y0243140D02*
X0032032Y0243140D01*
X0031033Y0244138D02*
X0029552Y0244138D01*
X0029772Y0245137D02*
X0030035Y0245137D01*
X0032600Y0241143D02*
X0026525Y0241143D01*
X0025122Y0245594D02*
X0024500Y0245500D01*
X0019500Y0240500D01*
X0019500Y0212500D01*
X0022500Y0209500D01*
X0022500Y0184500D01*
X0034500Y0172500D01*
X0036500Y0172500D01*
X0041500Y0167500D01*
X0058500Y0167500D01*
X0064500Y0161500D01*
X0086500Y0161500D01*
X0086200Y0155400D02*
X0083716Y0155400D01*
X0082962Y0155250D01*
X0082253Y0154956D01*
X0081614Y0154529D01*
X0081071Y0153986D01*
X0080644Y0153347D01*
X0080350Y0152638D01*
X0080200Y0151884D01*
X0080200Y0151800D01*
X0086200Y0151800D01*
X0086200Y0155400D01*
X0086200Y0155271D02*
X0086800Y0155271D01*
X0086800Y0155400D02*
X0086800Y0151800D01*
X0086200Y0151800D01*
X0086200Y0151200D01*
X0086800Y0151200D01*
X0086800Y0147600D01*
X0089284Y0147600D01*
X0090038Y0147750D01*
X0090747Y0148044D01*
X0091386Y0148471D01*
X0091551Y0148636D01*
X0091551Y0129364D01*
X0091109Y0129806D01*
X0089676Y0130400D01*
X0085428Y0130400D01*
X0080400Y0135428D01*
X0080400Y0138115D01*
X0078115Y0140400D01*
X0074885Y0140400D01*
X0072600Y0138115D01*
X0072600Y0134885D01*
X0074885Y0132600D01*
X0077572Y0132600D01*
X0081128Y0129044D01*
X0080794Y0128709D01*
X0080200Y0127276D01*
X0080200Y0125724D01*
X0080794Y0124291D01*
X0081891Y0123194D01*
X0083324Y0122600D01*
X0089676Y0122600D01*
X0091109Y0123194D01*
X0091551Y0123636D01*
X0091551Y0119364D01*
X0091109Y0119806D01*
X0089676Y0120400D01*
X0083324Y0120400D01*
X0081891Y0119806D01*
X0080794Y0118709D01*
X0080303Y0117525D01*
X0065228Y0132600D01*
X0066200Y0132600D01*
X0066200Y0136200D01*
X0062600Y0136200D01*
X0062600Y0135228D01*
X0050500Y0147328D01*
X0050500Y0150000D01*
X0050644Y0149653D01*
X0051071Y0149014D01*
X0051614Y0148471D01*
X0052253Y0148044D01*
X0052962Y0147750D01*
X0053716Y0147600D01*
X0056200Y0147600D01*
X0056200Y0151200D01*
X0056800Y0151200D01*
X0056800Y0151800D01*
X0056200Y0151800D01*
X0056200Y0155400D01*
X0053716Y0155400D01*
X0052962Y0155250D01*
X0052253Y0154956D01*
X0051614Y0154529D01*
X0051071Y0153986D01*
X0050644Y0153347D01*
X0050500Y0153000D01*
X0050500Y0158328D01*
X0043328Y0165500D01*
X0057672Y0165500D01*
X0057772Y0165400D01*
X0056800Y0165400D01*
X0056800Y0161800D01*
X0056200Y0161800D01*
X0056200Y0165400D01*
X0053716Y0165400D01*
X0052962Y0165250D01*
X0052253Y0164956D01*
X0051614Y0164529D01*
X0051071Y0163986D01*
X0050644Y0163347D01*
X0050350Y0162638D01*
X0050200Y0161884D01*
X0050200Y0161800D01*
X0056200Y0161800D01*
X0056200Y0161200D01*
X0056800Y0161200D01*
X0056800Y0157600D01*
X0059284Y0157600D01*
X0060038Y0157750D01*
X0060747Y0158044D01*
X0061386Y0158471D01*
X0061929Y0159014D01*
X0062356Y0159653D01*
X0062650Y0160362D01*
X0062677Y0160495D01*
X0063672Y0159500D01*
X0080707Y0159500D01*
X0080794Y0159291D01*
X0081891Y0158194D01*
X0083324Y0157600D01*
X0089676Y0157600D01*
X0091109Y0158194D01*
X0091551Y0158636D01*
X0091551Y0154364D01*
X0091386Y0154529D01*
X0090747Y0154956D01*
X0090038Y0155250D01*
X0089284Y0155400D01*
X0086800Y0155400D01*
X0086800Y0154272D02*
X0086200Y0154272D01*
X0086200Y0153274D02*
X0086800Y0153274D01*
X0086800Y0152275D02*
X0086200Y0152275D01*
X0086500Y0151500D02*
X0081500Y0151500D01*
X0066500Y0136500D01*
X0066800Y0136299D02*
X0072600Y0136299D01*
X0072600Y0135301D02*
X0070400Y0135301D01*
X0070400Y0134885D02*
X0070400Y0136200D01*
X0066800Y0136200D01*
X0066800Y0136800D01*
X0066200Y0136800D01*
X0066200Y0140400D01*
X0064885Y0140400D01*
X0062600Y0138115D01*
X0062600Y0136800D01*
X0066200Y0136800D01*
X0066200Y0136200D01*
X0066800Y0136200D01*
X0066800Y0132600D01*
X0068115Y0132600D01*
X0070400Y0134885D01*
X0069817Y0134302D02*
X0073183Y0134302D01*
X0074181Y0133303D02*
X0068819Y0133303D01*
X0067520Y0130308D02*
X0079864Y0130308D01*
X0080862Y0129309D02*
X0068519Y0129309D01*
X0069517Y0128311D02*
X0080629Y0128311D01*
X0080215Y0127312D02*
X0070516Y0127312D01*
X0071514Y0126314D02*
X0080200Y0126314D01*
X0080369Y0125315D02*
X0072513Y0125315D01*
X0073512Y0124317D02*
X0080783Y0124317D01*
X0081766Y0123318D02*
X0074510Y0123318D01*
X0075509Y0122320D02*
X0091551Y0122320D01*
X0091551Y0123318D02*
X0091234Y0123318D01*
X0091551Y0121321D02*
X0076507Y0121321D01*
X0077506Y0120323D02*
X0083138Y0120323D01*
X0081409Y0119324D02*
X0078504Y0119324D01*
X0079503Y0118326D02*
X0080635Y0118326D01*
X0078838Y0113333D02*
X0061249Y0113333D01*
X0061494Y0112335D02*
X0079837Y0112335D01*
X0080835Y0111336D02*
X0062492Y0111336D01*
X0063491Y0110338D02*
X0081834Y0110338D01*
X0081424Y0109339D02*
X0064489Y0109339D01*
X0065488Y0108341D02*
X0080641Y0108341D01*
X0080228Y0107342D02*
X0066486Y0107342D01*
X0067485Y0106344D02*
X0080200Y0106344D01*
X0080357Y0105345D02*
X0068483Y0105345D01*
X0069482Y0104347D02*
X0080771Y0104347D01*
X0081736Y0103348D02*
X0069500Y0103348D01*
X0069500Y0102350D02*
X0091551Y0102350D01*
X0091551Y0103348D02*
X0091264Y0103348D01*
X0091551Y0101351D02*
X0069500Y0101351D01*
X0069500Y0100353D02*
X0083478Y0100353D01*
X0081439Y0099354D02*
X0069500Y0099354D01*
X0069500Y0098356D02*
X0080649Y0098356D01*
X0080294Y0097357D02*
X0069500Y0097357D01*
X0069500Y0096359D02*
X0086200Y0096359D01*
X0086500Y0096500D02*
X0071500Y0081500D01*
X0071800Y0081381D02*
X0077552Y0081381D01*
X0077600Y0082379D02*
X0075400Y0082379D01*
X0075137Y0083378D02*
X0077863Y0083378D01*
X0078861Y0084376D02*
X0074139Y0084376D01*
X0073140Y0085375D02*
X0079860Y0085375D01*
X0080500Y0081500D02*
X0081500Y0081500D01*
X0080500Y0081500D02*
X0072500Y0073500D01*
X0067500Y0078500D01*
X0067500Y0103500D01*
X0056500Y0114500D01*
X0056500Y0116500D01*
X0055837Y0112335D02*
X0006500Y0112335D01*
X0006500Y0113333D02*
X0006820Y0113333D01*
X0006500Y0111336D02*
X0056835Y0111336D01*
X0056500Y0106500D02*
X0056500Y0104500D01*
X0048500Y0096500D01*
X0048500Y0094500D01*
X0029500Y0075500D01*
X0037500Y0067500D01*
X0046500Y0067500D01*
X0061500Y0052500D01*
X0061500Y0031500D01*
X0062367Y0027461D02*
X0091551Y0027461D01*
X0091551Y0026463D02*
X0063366Y0026463D01*
X0063975Y0028460D02*
X0091551Y0028460D01*
X0091551Y0029458D02*
X0064974Y0029458D01*
X0065400Y0030457D02*
X0091551Y0030457D01*
X0091551Y0031455D02*
X0065400Y0031455D01*
X0065400Y0032454D02*
X0091551Y0032454D01*
X0091551Y0033452D02*
X0065063Y0033452D01*
X0064065Y0034451D02*
X0091551Y0034451D01*
X0091551Y0035449D02*
X0063500Y0035449D01*
X0063500Y0036448D02*
X0091551Y0036448D01*
X0091551Y0037446D02*
X0063500Y0037446D01*
X0063500Y0038445D02*
X0074040Y0038445D01*
X0074291Y0038194D02*
X0075724Y0037600D01*
X0082076Y0037600D01*
X0083509Y0038194D01*
X0084606Y0039291D01*
X0085200Y0040724D01*
X0085200Y0042276D01*
X0084606Y0043709D01*
X0083509Y0044806D01*
X0082076Y0045400D01*
X0075724Y0045400D01*
X0074291Y0044806D01*
X0073194Y0043709D01*
X0072600Y0042276D01*
X0072600Y0040724D01*
X0073194Y0039291D01*
X0074291Y0038194D01*
X0073131Y0039443D02*
X0063500Y0039443D01*
X0063500Y0040442D02*
X0072717Y0040442D01*
X0072600Y0041440D02*
X0063500Y0041440D01*
X0063500Y0042439D02*
X0072668Y0042439D01*
X0073081Y0043437D02*
X0063500Y0043437D01*
X0063500Y0044436D02*
X0073921Y0044436D01*
X0074055Y0048430D02*
X0063500Y0048430D01*
X0063500Y0047432D02*
X0091551Y0047432D01*
X0091551Y0048430D02*
X0083745Y0048430D01*
X0084663Y0049429D02*
X0091551Y0049429D01*
X0091551Y0050427D02*
X0085077Y0050427D01*
X0085200Y0051426D02*
X0091551Y0051426D01*
X0091551Y0052424D02*
X0085139Y0052424D01*
X0084725Y0053423D02*
X0091551Y0053423D01*
X0091551Y0054421D02*
X0083894Y0054421D01*
X0083731Y0058415D02*
X0091551Y0058415D01*
X0091551Y0057417D02*
X0073412Y0057417D01*
X0074069Y0058415D02*
X0072413Y0058415D01*
X0073143Y0059414D02*
X0071415Y0059414D01*
X0070416Y0060412D02*
X0072729Y0060412D01*
X0072600Y0061411D02*
X0069418Y0061411D01*
X0068419Y0062409D02*
X0072655Y0062409D01*
X0073069Y0063408D02*
X0067421Y0063408D01*
X0066422Y0064406D02*
X0073891Y0064406D01*
X0073767Y0065405D02*
X0065424Y0065405D01*
X0064425Y0066403D02*
X0072768Y0066403D01*
X0071770Y0067402D02*
X0063427Y0067402D01*
X0062428Y0068400D02*
X0070771Y0068400D01*
X0070500Y0069399D02*
X0061430Y0069399D01*
X0060431Y0070397D02*
X0070500Y0070397D01*
X0070500Y0071396D02*
X0059433Y0071396D01*
X0058500Y0072394D02*
X0070500Y0072394D01*
X0069779Y0073393D02*
X0058500Y0073393D01*
X0058500Y0074391D02*
X0068780Y0074391D01*
X0067782Y0075390D02*
X0058500Y0075390D01*
X0058500Y0076388D02*
X0066783Y0076388D01*
X0065785Y0077387D02*
X0058500Y0077387D01*
X0058500Y0078385D02*
X0059099Y0078385D01*
X0058861Y0084376D02*
X0058500Y0084376D01*
X0058500Y0085375D02*
X0059860Y0085375D01*
X0058500Y0086373D02*
X0065500Y0086373D01*
X0065500Y0085375D02*
X0063140Y0085375D01*
X0064139Y0084376D02*
X0065500Y0084376D01*
X0065500Y0083378D02*
X0065137Y0083378D01*
X0065400Y0082379D02*
X0065500Y0082379D01*
X0065500Y0081381D02*
X0065400Y0081381D01*
X0065400Y0080382D02*
X0065500Y0080382D01*
X0065500Y0079384D02*
X0064899Y0079384D01*
X0065500Y0078385D02*
X0063901Y0078385D01*
X0065500Y0087372D02*
X0058500Y0087372D01*
X0058500Y0088370D02*
X0065500Y0088370D01*
X0065500Y0089369D02*
X0058500Y0089369D01*
X0058500Y0090368D02*
X0065500Y0090368D01*
X0065500Y0091366D02*
X0058500Y0091366D01*
X0058500Y0092365D02*
X0065500Y0092365D01*
X0065500Y0093363D02*
X0061278Y0093363D01*
X0062236Y0094362D02*
X0065500Y0094362D01*
X0065500Y0095360D02*
X0062649Y0095360D01*
X0062800Y0096359D02*
X0065500Y0096359D01*
X0065500Y0097357D02*
X0062766Y0097357D01*
X0062353Y0098356D02*
X0065500Y0098356D01*
X0065500Y0099354D02*
X0061561Y0099354D01*
X0059790Y0100353D02*
X0065500Y0100353D01*
X0065500Y0101351D02*
X0056180Y0101351D01*
X0057178Y0102350D02*
X0065500Y0102350D01*
X0064823Y0103348D02*
X0061264Y0103348D01*
X0062229Y0104347D02*
X0063825Y0104347D01*
X0062826Y0105345D02*
X0062643Y0105345D01*
X0062223Y0114332D02*
X0077840Y0114332D01*
X0076841Y0115330D02*
X0062637Y0115330D01*
X0062800Y0116329D02*
X0075843Y0116329D01*
X0074844Y0117327D02*
X0062779Y0117327D01*
X0062365Y0118326D02*
X0073846Y0118326D01*
X0072847Y0119324D02*
X0061591Y0119324D01*
X0059862Y0120323D02*
X0071849Y0120323D01*
X0070850Y0121321D02*
X0017150Y0121321D01*
X0016151Y0120323D02*
X0038138Y0120323D01*
X0038324Y0120400D02*
X0036891Y0119806D01*
X0035794Y0118709D01*
X0035200Y0117276D01*
X0035200Y0115724D01*
X0035794Y0114291D01*
X0036891Y0113194D01*
X0038324Y0112600D01*
X0044676Y0112600D01*
X0046109Y0113194D01*
X0047206Y0114291D01*
X0047800Y0115724D01*
X0047800Y0117276D01*
X0047206Y0118709D01*
X0046109Y0119806D01*
X0044676Y0120400D01*
X0038324Y0120400D01*
X0038716Y0122600D02*
X0041200Y0122600D01*
X0041200Y0126200D01*
X0041800Y0126200D01*
X0041800Y0126800D01*
X0041200Y0126800D01*
X0041200Y0130400D01*
X0038716Y0130400D01*
X0037962Y0130250D01*
X0037253Y0129956D01*
X0036614Y0129529D01*
X0036071Y0128986D01*
X0035644Y0128347D01*
X0035350Y0127638D01*
X0035200Y0126884D01*
X0035200Y0126800D01*
X0041200Y0126800D01*
X0041200Y0126200D01*
X0035200Y0126200D01*
X0035200Y0126116D01*
X0035350Y0125362D01*
X0035644Y0124653D01*
X0036071Y0124014D01*
X0036614Y0123471D01*
X0037253Y0123044D01*
X0037962Y0122750D01*
X0038716Y0122600D01*
X0036842Y0123318D02*
X0019147Y0123318D01*
X0020145Y0124317D02*
X0035868Y0124317D01*
X0035369Y0125315D02*
X0020500Y0125315D01*
X0020500Y0126314D02*
X0041200Y0126314D01*
X0041500Y0126500D02*
X0041500Y0124500D01*
X0034500Y0117500D01*
X0034500Y0106500D01*
X0041500Y0106500D01*
X0041800Y0106344D02*
X0050200Y0106344D01*
X0050228Y0107342D02*
X0047709Y0107342D01*
X0047650Y0107638D02*
X0047356Y0108347D01*
X0046929Y0108986D01*
X0046386Y0109529D01*
X0045747Y0109956D01*
X0045038Y0110250D01*
X0044284Y0110400D01*
X0041800Y0110400D01*
X0041800Y0106800D01*
X0041200Y0106800D01*
X0041200Y0110400D01*
X0038716Y0110400D01*
X0037962Y0110250D01*
X0037253Y0109956D01*
X0036614Y0109529D01*
X0036071Y0108986D01*
X0035644Y0108347D01*
X0035350Y0107638D01*
X0035200Y0106884D01*
X0035200Y0106800D01*
X0041200Y0106800D01*
X0041200Y0106200D01*
X0041800Y0106200D01*
X0041800Y0106800D01*
X0047800Y0106800D01*
X0047800Y0106884D01*
X0047650Y0107638D01*
X0047359Y0108341D02*
X0050641Y0108341D01*
X0051424Y0109339D02*
X0046576Y0109339D01*
X0046249Y0113333D02*
X0051751Y0113333D01*
X0050777Y0114332D02*
X0047223Y0114332D01*
X0047637Y0115330D02*
X0050363Y0115330D01*
X0050200Y0116329D02*
X0047800Y0116329D01*
X0047779Y0117327D02*
X0050221Y0117327D01*
X0050635Y0118326D02*
X0047365Y0118326D01*
X0046591Y0119324D02*
X0051409Y0119324D01*
X0053138Y0120323D02*
X0044862Y0120323D01*
X0044284Y0122600D02*
X0045038Y0122750D01*
X0045747Y0123044D01*
X0046386Y0123471D01*
X0046929Y0124014D01*
X0047356Y0124653D01*
X0047650Y0125362D01*
X0047800Y0126116D01*
X0047800Y0126200D01*
X0041800Y0126200D01*
X0041800Y0122600D01*
X0044284Y0122600D01*
X0046158Y0123318D02*
X0051766Y0123318D01*
X0051891Y0123194D02*
X0053324Y0122600D01*
X0059676Y0122600D01*
X0061109Y0123194D01*
X0062206Y0124291D01*
X0062800Y0125724D01*
X0062800Y0127276D01*
X0062206Y0128709D01*
X0061109Y0129806D01*
X0059676Y0130400D01*
X0053324Y0130400D01*
X0051891Y0129806D01*
X0050794Y0128709D01*
X0050200Y0127276D01*
X0050200Y0125724D01*
X0050794Y0124291D01*
X0051891Y0123194D01*
X0050783Y0124317D02*
X0047132Y0124317D01*
X0047631Y0125315D02*
X0050369Y0125315D01*
X0050200Y0126314D02*
X0041800Y0126314D01*
X0041800Y0126800D02*
X0047800Y0126800D01*
X0047800Y0126884D01*
X0047650Y0127638D01*
X0047356Y0128347D01*
X0046929Y0128986D01*
X0046386Y0129529D01*
X0045747Y0129956D01*
X0045038Y0130250D01*
X0044284Y0130400D01*
X0041800Y0130400D01*
X0041800Y0126800D01*
X0041800Y0127312D02*
X0041200Y0127312D01*
X0041200Y0128311D02*
X0041800Y0128311D01*
X0041800Y0129309D02*
X0041200Y0129309D01*
X0041200Y0130308D02*
X0041800Y0130308D01*
X0041800Y0125315D02*
X0041200Y0125315D01*
X0041200Y0124317D02*
X0041800Y0124317D01*
X0041800Y0123318D02*
X0041200Y0123318D01*
X0038253Y0130308D02*
X0020500Y0130308D01*
X0020500Y0131306D02*
X0060865Y0131306D01*
X0059898Y0130308D02*
X0061864Y0130308D01*
X0061606Y0129309D02*
X0062862Y0129309D01*
X0062371Y0128311D02*
X0063861Y0128311D01*
X0064859Y0127312D02*
X0062785Y0127312D01*
X0062800Y0126314D02*
X0065858Y0126314D01*
X0066856Y0125315D02*
X0062631Y0125315D01*
X0062217Y0124317D02*
X0067855Y0124317D01*
X0068853Y0123318D02*
X0061234Y0123318D01*
X0059867Y0132305D02*
X0020500Y0132305D01*
X0020500Y0133303D02*
X0036781Y0133303D01*
X0036891Y0133194D02*
X0038324Y0132600D01*
X0044676Y0132600D01*
X0046109Y0133194D01*
X0047206Y0134291D01*
X0047800Y0135724D01*
X0047800Y0137276D01*
X0047206Y0138709D01*
X0046109Y0139806D01*
X0044676Y0140400D01*
X0038324Y0140400D01*
X0036891Y0139806D01*
X0035794Y0138709D01*
X0035200Y0137276D01*
X0035200Y0135724D01*
X0035794Y0134291D01*
X0036891Y0133194D01*
X0035789Y0134302D02*
X0020500Y0134302D01*
X0020500Y0135301D02*
X0035376Y0135301D01*
X0035200Y0136299D02*
X0020500Y0136299D01*
X0020500Y0137298D02*
X0035209Y0137298D01*
X0035623Y0138296D02*
X0020500Y0138296D01*
X0020500Y0139295D02*
X0036379Y0139295D01*
X0038066Y0140293D02*
X0020500Y0140293D01*
X0020500Y0141292D02*
X0050880Y0141292D01*
X0049881Y0142290D02*
X0020500Y0142290D01*
X0020500Y0143289D02*
X0036886Y0143289D01*
X0035888Y0144287D02*
X0020500Y0144287D01*
X0020500Y0145286D02*
X0035382Y0145286D01*
X0035279Y0147283D02*
X0020500Y0147283D01*
X0020500Y0148281D02*
X0035616Y0148281D01*
X0036364Y0149280D02*
X0020500Y0149280D01*
X0020500Y0150278D02*
X0038104Y0150278D01*
X0036811Y0153274D02*
X0020500Y0153274D01*
X0020500Y0154272D02*
X0035812Y0154272D01*
X0035388Y0155271D02*
X0020500Y0155271D01*
X0020500Y0156269D02*
X0035200Y0156269D01*
X0035200Y0157268D02*
X0020500Y0157268D01*
X0020500Y0158266D02*
X0035610Y0158266D01*
X0035907Y0159265D02*
X0019564Y0159265D01*
X0019500Y0160263D02*
X0034908Y0160263D01*
X0033910Y0161262D02*
X0019500Y0161262D01*
X0019500Y0162260D02*
X0032911Y0162260D01*
X0031500Y0166500D02*
X0041500Y0156500D01*
X0041200Y0150278D02*
X0041800Y0150278D01*
X0041800Y0149280D02*
X0041200Y0149280D01*
X0041200Y0148281D02*
X0041800Y0148281D01*
X0041800Y0147283D02*
X0041200Y0147283D01*
X0041500Y0146500D02*
X0021500Y0166500D01*
X0021800Y0166254D02*
X0027600Y0166254D01*
X0027600Y0165256D02*
X0025400Y0165256D01*
X0024773Y0164257D02*
X0028227Y0164257D01*
X0029226Y0163259D02*
X0023774Y0163259D01*
X0021800Y0163259D02*
X0021200Y0163259D01*
X0021200Y0164257D02*
X0021800Y0164257D01*
X0021800Y0165256D02*
X0021200Y0165256D01*
X0023267Y0170248D02*
X0029733Y0170248D01*
X0029925Y0171247D02*
X0022500Y0171247D01*
X0022500Y0172245D02*
X0028926Y0172245D01*
X0027928Y0173244D02*
X0022500Y0173244D01*
X0022500Y0174242D02*
X0026929Y0174242D01*
X0025931Y0175241D02*
X0022500Y0175241D01*
X0022500Y0176239D02*
X0024932Y0176239D01*
X0023934Y0177238D02*
X0022500Y0177238D01*
X0022500Y0178237D02*
X0022935Y0178237D01*
X0020500Y0183500D02*
X0033500Y0170500D01*
X0035500Y0170500D01*
X0048500Y0157500D01*
X0048500Y0146500D01*
X0086500Y0108500D01*
X0086500Y0106500D01*
X0086200Y0100353D02*
X0086800Y0100353D01*
X0086800Y0099354D02*
X0086200Y0099354D01*
X0086200Y0098356D02*
X0086800Y0098356D01*
X0086800Y0097357D02*
X0086200Y0097357D01*
X0086200Y0095360D02*
X0086800Y0095360D01*
X0086800Y0094362D02*
X0086200Y0094362D01*
X0086200Y0093363D02*
X0086800Y0093363D01*
X0089522Y0100353D02*
X0091551Y0100353D01*
X0091551Y0093363D02*
X0091225Y0093363D01*
X0091551Y0092365D02*
X0069500Y0092365D01*
X0069500Y0093363D02*
X0081775Y0093363D01*
X0080838Y0094362D02*
X0069500Y0094362D01*
X0069500Y0095360D02*
X0080351Y0095360D01*
X0083140Y0085375D02*
X0091551Y0085375D01*
X0091551Y0086373D02*
X0069500Y0086373D01*
X0069500Y0085375D02*
X0069860Y0085375D01*
X0071200Y0085375D02*
X0071800Y0085375D01*
X0071800Y0084376D02*
X0071200Y0084376D01*
X0071200Y0083378D02*
X0071800Y0083378D01*
X0071800Y0082379D02*
X0071200Y0082379D01*
X0071200Y0080382D02*
X0071800Y0080382D01*
X0071800Y0079384D02*
X0071200Y0079384D01*
X0071200Y0078385D02*
X0071800Y0078385D01*
X0071442Y0077387D02*
X0073558Y0077387D01*
X0073901Y0078385D02*
X0074557Y0078385D01*
X0074899Y0079384D02*
X0075555Y0079384D01*
X0075400Y0080382D02*
X0076554Y0080382D01*
X0079215Y0077387D02*
X0091551Y0077387D01*
X0091551Y0078385D02*
X0083901Y0078385D01*
X0084899Y0079384D02*
X0091551Y0079384D01*
X0091551Y0080382D02*
X0085400Y0080382D01*
X0085400Y0081381D02*
X0091551Y0081381D01*
X0091551Y0082379D02*
X0085400Y0082379D01*
X0085137Y0083378D02*
X0091551Y0083378D01*
X0091551Y0084376D02*
X0084139Y0084376D01*
X0082100Y0075390D02*
X0091551Y0075390D01*
X0091551Y0076388D02*
X0078217Y0076388D01*
X0077427Y0067402D02*
X0091551Y0067402D01*
X0091551Y0068400D02*
X0083716Y0068400D01*
X0084651Y0069399D02*
X0091551Y0069399D01*
X0091551Y0070397D02*
X0085065Y0070397D01*
X0085200Y0071396D02*
X0091551Y0071396D01*
X0091551Y0072394D02*
X0085151Y0072394D01*
X0084737Y0073393D02*
X0091551Y0073393D01*
X0091551Y0074391D02*
X0083924Y0074391D01*
X0083909Y0064406D02*
X0091551Y0064406D01*
X0091551Y0063408D02*
X0084731Y0063408D01*
X0085145Y0062409D02*
X0091551Y0062409D01*
X0091551Y0061411D02*
X0085200Y0061411D01*
X0085071Y0060412D02*
X0091551Y0060412D01*
X0091551Y0059414D02*
X0084657Y0059414D01*
X0083879Y0044436D02*
X0091551Y0044436D01*
X0091551Y0045434D02*
X0063500Y0045434D01*
X0063500Y0046433D02*
X0091551Y0046433D01*
X0091551Y0043437D02*
X0084719Y0043437D01*
X0085132Y0042439D02*
X0091551Y0042439D01*
X0091551Y0041440D02*
X0085200Y0041440D01*
X0085083Y0040442D02*
X0091551Y0040442D01*
X0091551Y0039443D02*
X0084669Y0039443D01*
X0083760Y0038445D02*
X0091551Y0038445D01*
X0091551Y0055420D02*
X0075409Y0055420D01*
X0074410Y0056418D02*
X0091551Y0056418D01*
X0091551Y0065405D02*
X0078500Y0065405D01*
X0078425Y0066403D02*
X0091551Y0066403D01*
X0091551Y0087372D02*
X0069500Y0087372D01*
X0069500Y0088370D02*
X0091551Y0088370D01*
X0091551Y0089369D02*
X0069500Y0089369D01*
X0069500Y0090368D02*
X0091551Y0090368D01*
X0091551Y0091366D02*
X0069500Y0091366D01*
X0072440Y0076388D02*
X0072560Y0076388D01*
X0072500Y0073500D02*
X0072500Y0069500D01*
X0076500Y0065500D01*
X0076500Y0061500D01*
X0072661Y0052424D02*
X0063500Y0052424D01*
X0063500Y0051426D02*
X0072600Y0051426D01*
X0072723Y0050427D02*
X0063500Y0050427D01*
X0063500Y0049429D02*
X0073137Y0049429D01*
X0071749Y0053423D02*
X0063406Y0053423D01*
X0062407Y0054421D02*
X0070750Y0054421D01*
X0069752Y0055420D02*
X0061409Y0055420D01*
X0060410Y0056418D02*
X0068753Y0056418D01*
X0067755Y0057417D02*
X0059412Y0057417D01*
X0058413Y0058415D02*
X0066756Y0058415D01*
X0065758Y0059414D02*
X0057415Y0059414D01*
X0056416Y0060412D02*
X0064759Y0060412D01*
X0063761Y0061411D02*
X0055418Y0061411D01*
X0054419Y0062409D02*
X0062762Y0062409D01*
X0061764Y0063408D02*
X0053421Y0063408D01*
X0052422Y0064406D02*
X0060765Y0064406D01*
X0059767Y0065405D02*
X0051424Y0065405D01*
X0050425Y0066403D02*
X0058768Y0066403D01*
X0057770Y0067402D02*
X0049427Y0067402D01*
X0048916Y0068400D02*
X0056771Y0068400D01*
X0055773Y0069399D02*
X0049851Y0069399D01*
X0050265Y0070397D02*
X0054774Y0070397D01*
X0054500Y0071396D02*
X0050400Y0071396D01*
X0050351Y0072394D02*
X0054500Y0072394D01*
X0054500Y0073393D02*
X0049937Y0073393D01*
X0049124Y0074391D02*
X0054500Y0074391D01*
X0054500Y0075390D02*
X0047300Y0075390D01*
X0045400Y0080382D02*
X0054500Y0080382D01*
X0054500Y0079384D02*
X0044899Y0079384D01*
X0043901Y0078385D02*
X0054500Y0078385D01*
X0054500Y0077387D02*
X0034215Y0077387D01*
X0033217Y0076388D02*
X0054500Y0076388D01*
X0054500Y0081381D02*
X0045400Y0081381D01*
X0045400Y0082379D02*
X0054500Y0082379D01*
X0054500Y0083378D02*
X0045137Y0083378D01*
X0044139Y0084376D02*
X0054500Y0084376D01*
X0054500Y0085375D02*
X0043140Y0085375D01*
X0043202Y0086373D02*
X0054500Y0086373D01*
X0054500Y0087372D02*
X0044200Y0087372D01*
X0045199Y0088370D02*
X0054500Y0088370D01*
X0054500Y0089369D02*
X0046197Y0089369D01*
X0047196Y0090368D02*
X0054500Y0090368D01*
X0054500Y0091366D02*
X0048194Y0091366D01*
X0049193Y0092365D02*
X0054500Y0092365D01*
X0056500Y0096500D02*
X0056500Y0071500D01*
X0076500Y0051500D01*
X0085422Y0021470D02*
X0091551Y0021470D01*
X0091551Y0020472D02*
X0087447Y0020472D01*
X0088446Y0019473D02*
X0091551Y0019473D01*
X0091551Y0018475D02*
X0089444Y0018475D01*
X0089973Y0017476D02*
X0091551Y0017476D01*
X0091551Y0016478D02*
X0090387Y0016478D01*
X0090801Y0015479D02*
X0091551Y0015479D01*
X0091551Y0014481D02*
X0090976Y0014481D01*
X0090976Y0013482D02*
X0091551Y0013482D01*
X0091551Y0012484D02*
X0090976Y0012484D01*
X0090942Y0011485D02*
X0091551Y0011485D01*
X0091551Y0010487D02*
X0090529Y0010487D01*
X0090115Y0009488D02*
X0091551Y0009488D01*
X0091551Y0008490D02*
X0089702Y0008490D01*
X0088788Y0007491D02*
X0091551Y0007491D01*
X0091551Y0006493D02*
X0087790Y0006493D01*
X0086248Y0005494D02*
X0091551Y0005494D01*
X0091551Y0004496D02*
X0003968Y0004496D01*
X0003968Y0005494D02*
X0009272Y0005494D01*
X0007730Y0006493D02*
X0003968Y0006493D01*
X0003968Y0007491D02*
X0006732Y0007491D01*
X0005818Y0008490D02*
X0003968Y0008490D01*
X0003968Y0009488D02*
X0005404Y0009488D01*
X0004991Y0010487D02*
X0003968Y0010487D01*
X0003968Y0011485D02*
X0004577Y0011485D01*
X0004543Y0012484D02*
X0003968Y0012484D01*
X0003968Y0013482D02*
X0004543Y0013482D01*
X0004543Y0014481D02*
X0003968Y0014481D01*
X0003968Y0015479D02*
X0004719Y0015479D01*
X0005133Y0016478D02*
X0003968Y0016478D01*
X0003968Y0017476D02*
X0005546Y0017476D01*
X0006075Y0018475D02*
X0003968Y0018475D01*
X0003968Y0019473D02*
X0007074Y0019473D01*
X0008072Y0020472D02*
X0003968Y0020472D01*
X0003968Y0021470D02*
X0010098Y0021470D01*
X0003968Y0022469D02*
X0030280Y0022469D01*
X0030694Y0023467D02*
X0003968Y0023467D01*
X0003968Y0024466D02*
X0031550Y0024466D01*
X0034500Y0025464D02*
X0003968Y0025464D01*
X0003968Y0026463D02*
X0034500Y0026463D01*
X0034500Y0027461D02*
X0003968Y0027461D01*
X0003968Y0046433D02*
X0034500Y0046433D01*
X0034500Y0047432D02*
X0003968Y0047432D01*
X0003968Y0048430D02*
X0034500Y0048430D01*
X0034500Y0049429D02*
X0003968Y0049429D01*
X0010427Y0067402D02*
X0021489Y0067402D01*
X0020877Y0066403D02*
X0011425Y0066403D01*
X0012424Y0065405D02*
X0020559Y0065405D01*
X0020586Y0063408D02*
X0014421Y0063408D01*
X0015419Y0062409D02*
X0020965Y0062409D01*
X0021628Y0061411D02*
X0016418Y0061411D01*
X0017416Y0060412D02*
X0022341Y0060412D01*
X0021342Y0059414D02*
X0018415Y0059414D01*
X0019413Y0058415D02*
X0020834Y0058415D01*
X0020472Y0057417D02*
X0020412Y0057417D01*
X0022547Y0068400D02*
X0009428Y0068400D01*
X0008430Y0069399D02*
X0021514Y0069399D01*
X0020905Y0070397D02*
X0007431Y0070397D01*
X0006500Y0071396D02*
X0020491Y0071396D01*
X0020472Y0072394D02*
X0006500Y0072394D01*
X0006500Y0073393D02*
X0020515Y0073393D01*
X0020928Y0074391D02*
X0006500Y0074391D01*
X0006500Y0075390D02*
X0021570Y0075390D01*
X0022398Y0076388D02*
X0006500Y0076388D01*
X0006500Y0077387D02*
X0021400Y0077387D01*
X0020858Y0078385D02*
X0006500Y0078385D01*
X0006500Y0079384D02*
X0020472Y0079384D01*
X0020472Y0080382D02*
X0006500Y0080382D01*
X0006500Y0081381D02*
X0020562Y0081381D01*
X0020975Y0082379D02*
X0006500Y0082379D01*
X0006500Y0083378D02*
X0021684Y0083378D01*
X0022958Y0084376D02*
X0006500Y0084376D01*
X0006500Y0085375D02*
X0036547Y0085375D01*
X0037545Y0086373D02*
X0006500Y0086373D01*
X0006500Y0087372D02*
X0038544Y0087372D01*
X0039542Y0088370D02*
X0006500Y0088370D01*
X0006500Y0089369D02*
X0040541Y0089369D01*
X0041539Y0090368D02*
X0006500Y0090368D01*
X0006500Y0091366D02*
X0042538Y0091366D01*
X0043536Y0092365D02*
X0006500Y0092365D01*
X0006500Y0093363D02*
X0006775Y0093363D01*
X0006500Y0100353D02*
X0008478Y0100353D01*
X0006736Y0103348D02*
X0006500Y0103348D01*
X0006500Y0102350D02*
X0051521Y0102350D01*
X0051736Y0103348D02*
X0046203Y0103348D01*
X0046386Y0103471D02*
X0046929Y0104014D01*
X0047356Y0104653D01*
X0047650Y0105362D01*
X0047800Y0106116D01*
X0047800Y0106200D01*
X0041800Y0106200D01*
X0041800Y0102600D01*
X0044284Y0102600D01*
X0045038Y0102750D01*
X0045747Y0103044D01*
X0046386Y0103471D01*
X0047152Y0104347D02*
X0050771Y0104347D01*
X0050357Y0105345D02*
X0047643Y0105345D01*
X0049524Y0100353D02*
X0044790Y0100353D01*
X0046561Y0099354D02*
X0048526Y0099354D01*
X0047527Y0098356D02*
X0047353Y0098356D01*
X0050523Y0101351D02*
X0006500Y0101351D01*
X0006500Y0110338D02*
X0008174Y0110338D01*
X0011200Y0113333D02*
X0011800Y0113333D01*
X0011800Y0114332D02*
X0011200Y0114332D01*
X0011200Y0115330D02*
X0011800Y0115330D01*
X0011800Y0116329D02*
X0035200Y0116329D01*
X0035221Y0117327D02*
X0017712Y0117327D01*
X0017365Y0118326D02*
X0035635Y0118326D01*
X0036409Y0119324D02*
X0016591Y0119324D01*
X0018148Y0122320D02*
X0069852Y0122320D01*
X0066522Y0131306D02*
X0078865Y0131306D01*
X0077867Y0132305D02*
X0065523Y0132305D01*
X0066200Y0133303D02*
X0066800Y0133303D01*
X0066800Y0134302D02*
X0066200Y0134302D01*
X0066200Y0135301D02*
X0066800Y0135301D01*
X0066200Y0136299D02*
X0061529Y0136299D01*
X0060531Y0137298D02*
X0062600Y0137298D01*
X0062781Y0138296D02*
X0059532Y0138296D01*
X0058534Y0139295D02*
X0063779Y0139295D01*
X0064778Y0140293D02*
X0057535Y0140293D01*
X0056537Y0141292D02*
X0091551Y0141292D01*
X0091551Y0142290D02*
X0055538Y0142290D01*
X0054540Y0143289D02*
X0091551Y0143289D01*
X0091551Y0144287D02*
X0053541Y0144287D01*
X0052543Y0145286D02*
X0091551Y0145286D01*
X0091551Y0146284D02*
X0051544Y0146284D01*
X0050546Y0147283D02*
X0091551Y0147283D01*
X0091551Y0148281D02*
X0091102Y0148281D01*
X0091551Y0155271D02*
X0089934Y0155271D01*
X0091551Y0156269D02*
X0050500Y0156269D01*
X0050500Y0155271D02*
X0053066Y0155271D01*
X0053716Y0157600D02*
X0052962Y0157750D01*
X0052253Y0158044D01*
X0051614Y0158471D01*
X0051071Y0159014D01*
X0050644Y0159653D01*
X0050350Y0160362D01*
X0050200Y0161116D01*
X0050200Y0161200D01*
X0056200Y0161200D01*
X0056200Y0157600D01*
X0053716Y0157600D01*
X0051920Y0158266D02*
X0050500Y0158266D01*
X0050500Y0157268D02*
X0091551Y0157268D01*
X0091551Y0158266D02*
X0091182Y0158266D01*
X0091551Y0164364D02*
X0091109Y0164806D01*
X0089676Y0165400D01*
X0083324Y0165400D01*
X0081891Y0164806D01*
X0080794Y0163709D01*
X0080707Y0163500D01*
X0075988Y0163500D01*
X0076181Y0163967D01*
X0076181Y0165033D01*
X0075773Y0166019D01*
X0075019Y0166773D01*
X0074033Y0167181D01*
X0072967Y0167181D01*
X0072034Y0166795D01*
X0060774Y0178055D01*
X0061109Y0178194D01*
X0062206Y0179291D01*
X0062800Y0180724D01*
X0062800Y0182276D01*
X0062206Y0183709D01*
X0061109Y0184806D01*
X0059676Y0185400D01*
X0053324Y0185400D01*
X0051891Y0184806D01*
X0050794Y0183709D01*
X0050200Y0182276D01*
X0050200Y0180724D01*
X0050707Y0179500D01*
X0042328Y0179500D01*
X0038672Y0183156D01*
X0040400Y0184885D01*
X0040400Y0188115D01*
X0039672Y0188843D01*
X0065748Y0214920D01*
X0065748Y0213174D01*
X0066456Y0211465D01*
X0067764Y0210157D01*
X0069473Y0209449D01*
X0071323Y0209449D01*
X0073031Y0210157D01*
X0074339Y0211465D01*
X0074500Y0211852D01*
X0074500Y0195015D01*
X0072600Y0193115D01*
X0072600Y0189885D01*
X0074885Y0187600D01*
X0077500Y0187600D01*
X0077500Y0179672D01*
X0078672Y0178500D01*
X0082226Y0174945D01*
X0081891Y0174806D01*
X0080794Y0173709D01*
X0080200Y0172276D01*
X0080200Y0170724D01*
X0080794Y0169291D01*
X0081891Y0168194D01*
X0083324Y0167600D01*
X0089676Y0167600D01*
X0091109Y0168194D01*
X0091551Y0168636D01*
X0091551Y0164364D01*
X0091551Y0165256D02*
X0090024Y0165256D01*
X0091551Y0166254D02*
X0075537Y0166254D01*
X0076089Y0165256D02*
X0082976Y0165256D01*
X0081342Y0164257D02*
X0076181Y0164257D01*
X0073500Y0164500D02*
X0071500Y0164500D01*
X0058500Y0177500D01*
X0041500Y0177500D01*
X0036500Y0182500D01*
X0034500Y0182500D01*
X0032500Y0184500D01*
X0032500Y0192500D01*
X0036500Y0196500D01*
X0036500Y0218500D01*
X0025500Y0229500D01*
X0025122Y0229846D01*
X0023369Y0234153D02*
X0021500Y0234153D01*
X0021500Y0233155D02*
X0021855Y0233155D01*
X0021500Y0235152D02*
X0039636Y0235152D01*
X0039885Y0235400D02*
X0037600Y0233115D01*
X0037600Y0231800D01*
X0041200Y0231800D01*
X0041200Y0235400D01*
X0039885Y0235400D01*
X0038638Y0234153D02*
X0026875Y0234153D01*
X0028389Y0233155D02*
X0037639Y0233155D01*
X0037600Y0232156D02*
X0029198Y0232156D01*
X0029612Y0231158D02*
X0037600Y0231158D01*
X0037600Y0231200D02*
X0037600Y0229885D01*
X0039885Y0227600D01*
X0041200Y0227600D01*
X0041200Y0231200D01*
X0041800Y0231200D01*
X0041800Y0231800D01*
X0045400Y0231800D01*
X0045400Y0233115D01*
X0043115Y0235400D01*
X0041800Y0235400D01*
X0041800Y0231800D01*
X0041200Y0231800D01*
X0041200Y0231200D01*
X0037600Y0231200D01*
X0037600Y0230159D02*
X0029772Y0230159D01*
X0029772Y0229161D02*
X0038324Y0229161D01*
X0039323Y0228162D02*
X0029666Y0228162D01*
X0030665Y0227164D02*
X0056008Y0227164D01*
X0055009Y0228162D02*
X0053677Y0228162D01*
X0054500Y0231500D02*
X0058500Y0227500D01*
X0071500Y0227500D01*
X0076500Y0222500D01*
X0076500Y0191500D01*
X0077500Y0187223D02*
X0040400Y0187223D01*
X0040400Y0186225D02*
X0077500Y0186225D01*
X0077500Y0185226D02*
X0060096Y0185226D01*
X0061688Y0184228D02*
X0077500Y0184228D01*
X0077500Y0183229D02*
X0062405Y0183229D01*
X0062800Y0182231D02*
X0077500Y0182231D01*
X0077500Y0181232D02*
X0062800Y0181232D01*
X0062597Y0180234D02*
X0077500Y0180234D01*
X0077937Y0179235D02*
X0062150Y0179235D01*
X0061590Y0177238D02*
X0079934Y0177238D01*
X0080932Y0176239D02*
X0062589Y0176239D01*
X0063587Y0175241D02*
X0081931Y0175241D01*
X0081327Y0174242D02*
X0064586Y0174242D01*
X0065584Y0173244D02*
X0080601Y0173244D01*
X0080200Y0172245D02*
X0066583Y0172245D01*
X0067581Y0171247D02*
X0080200Y0171247D01*
X0080397Y0170248D02*
X0068580Y0170248D01*
X0069578Y0169250D02*
X0080835Y0169250D01*
X0081833Y0168251D02*
X0070577Y0168251D01*
X0071576Y0167253D02*
X0091551Y0167253D01*
X0091551Y0168251D02*
X0091167Y0168251D01*
X0086500Y0171500D02*
X0086500Y0173500D01*
X0079500Y0180500D01*
X0079500Y0188500D01*
X0080500Y0189500D01*
X0080500Y0221500D01*
X0069500Y0232500D01*
X0056500Y0232500D01*
X0047500Y0241500D01*
X0036500Y0241500D01*
X0025500Y0252500D01*
X0025122Y0253469D01*
X0023720Y0241143D02*
X0022971Y0241143D01*
X0021973Y0240144D02*
X0032600Y0240144D01*
X0033339Y0239146D02*
X0021500Y0239146D01*
X0021500Y0238147D02*
X0034337Y0238147D01*
X0036500Y0251500D02*
X0050500Y0251500D01*
X0054500Y0255500D01*
X0067500Y0255500D01*
X0069500Y0253500D01*
X0070398Y0253469D01*
X0067161Y0250129D02*
X0060400Y0250129D01*
X0060400Y0251128D02*
X0066334Y0251128D01*
X0065921Y0252126D02*
X0060400Y0252126D01*
X0060391Y0253125D02*
X0065748Y0253125D01*
X0067358Y0249131D02*
X0059646Y0249131D01*
X0058648Y0248132D02*
X0066494Y0248132D01*
X0065763Y0245137D02*
X0058379Y0245137D01*
X0058115Y0245400D02*
X0054885Y0245400D01*
X0052600Y0243115D01*
X0052600Y0239885D01*
X0054885Y0237600D01*
X0058115Y0237600D01*
X0060400Y0239885D01*
X0060400Y0243115D01*
X0058115Y0245400D01*
X0059377Y0244138D02*
X0065982Y0244138D01*
X0066434Y0243140D02*
X0060376Y0243140D01*
X0060400Y0242141D02*
X0067275Y0242141D01*
X0067244Y0241143D02*
X0060400Y0241143D01*
X0060400Y0240144D02*
X0066369Y0240144D01*
X0065955Y0239146D02*
X0059661Y0239146D01*
X0058663Y0238147D02*
X0065748Y0238147D01*
X0065748Y0237149D02*
X0054680Y0237149D01*
X0054337Y0238147D02*
X0053681Y0238147D01*
X0053339Y0239146D02*
X0052683Y0239146D01*
X0052600Y0240144D02*
X0051684Y0240144D01*
X0052600Y0241143D02*
X0050686Y0241143D01*
X0049687Y0242141D02*
X0052600Y0242141D01*
X0052624Y0243140D02*
X0048689Y0243140D01*
X0047026Y0239146D02*
X0039661Y0239146D01*
X0038663Y0238147D02*
X0048024Y0238147D01*
X0049023Y0237149D02*
X0021500Y0237149D01*
X0021500Y0236150D02*
X0050021Y0236150D01*
X0049636Y0235152D02*
X0043364Y0235152D01*
X0044362Y0234153D02*
X0048638Y0234153D01*
X0047639Y0233155D02*
X0045361Y0233155D01*
X0045400Y0232156D02*
X0047600Y0232156D01*
X0047600Y0231158D02*
X0045400Y0231158D01*
X0045400Y0231200D02*
X0041800Y0231200D01*
X0041800Y0227600D01*
X0043115Y0227600D01*
X0045400Y0229885D01*
X0045400Y0231200D01*
X0045400Y0230159D02*
X0047600Y0230159D01*
X0048324Y0229161D02*
X0044676Y0229161D01*
X0043677Y0228162D02*
X0049323Y0228162D01*
X0051500Y0231500D02*
X0054500Y0231500D01*
X0056677Y0235152D02*
X0066429Y0235152D01*
X0066015Y0236150D02*
X0055678Y0236150D01*
X0053623Y0244138D02*
X0039377Y0244138D01*
X0038379Y0245137D02*
X0054621Y0245137D01*
X0054352Y0248132D02*
X0038648Y0248132D01*
X0039646Y0249131D02*
X0053354Y0249131D01*
X0052600Y0250129D02*
X0051958Y0250129D01*
X0050295Y0254123D02*
X0039392Y0254123D01*
X0038394Y0255122D02*
X0051293Y0255122D01*
X0041800Y0235152D02*
X0041200Y0235152D01*
X0041200Y0234153D02*
X0041800Y0234153D01*
X0041800Y0233155D02*
X0041200Y0233155D01*
X0041200Y0232156D02*
X0041800Y0232156D01*
X0041800Y0231158D02*
X0041200Y0231158D01*
X0041200Y0230159D02*
X0041800Y0230159D01*
X0041800Y0229161D02*
X0041200Y0229161D01*
X0041200Y0228162D02*
X0041800Y0228162D01*
X0038500Y0219175D02*
X0064347Y0219175D01*
X0063349Y0218177D02*
X0038500Y0218177D01*
X0038500Y0217178D02*
X0062350Y0217178D01*
X0061352Y0216180D02*
X0038500Y0216180D01*
X0038500Y0215181D02*
X0060353Y0215181D01*
X0059355Y0214183D02*
X0038500Y0214183D01*
X0038500Y0213184D02*
X0058356Y0213184D01*
X0060019Y0209190D02*
X0074500Y0209190D01*
X0074500Y0208192D02*
X0059020Y0208192D01*
X0058022Y0207193D02*
X0074500Y0207193D01*
X0074500Y0206195D02*
X0057023Y0206195D01*
X0056025Y0205196D02*
X0074500Y0205196D01*
X0074500Y0204198D02*
X0055026Y0204198D01*
X0054028Y0203199D02*
X0074500Y0203199D01*
X0074500Y0202201D02*
X0053029Y0202201D01*
X0052031Y0201202D02*
X0074500Y0201202D01*
X0074500Y0200204D02*
X0051032Y0200204D01*
X0050034Y0199205D02*
X0074500Y0199205D01*
X0074500Y0198207D02*
X0049035Y0198207D01*
X0048037Y0197208D02*
X0074500Y0197208D01*
X0074500Y0196210D02*
X0047038Y0196210D01*
X0046040Y0195211D02*
X0064696Y0195211D01*
X0064885Y0195400D02*
X0062600Y0193115D01*
X0062600Y0191800D01*
X0066200Y0191800D01*
X0066200Y0195400D01*
X0064885Y0195400D01*
X0063697Y0194213D02*
X0045041Y0194213D01*
X0044043Y0193214D02*
X0062699Y0193214D01*
X0062600Y0192216D02*
X0043044Y0192216D01*
X0042380Y0197208D02*
X0040400Y0197208D01*
X0040400Y0196210D02*
X0041381Y0196210D01*
X0040309Y0198207D02*
X0043378Y0198207D01*
X0044377Y0199205D02*
X0039310Y0199205D01*
X0038500Y0200204D02*
X0045375Y0200204D01*
X0046374Y0201202D02*
X0038500Y0201202D01*
X0038500Y0202201D02*
X0047372Y0202201D01*
X0048371Y0203199D02*
X0038500Y0203199D01*
X0038500Y0204198D02*
X0049369Y0204198D01*
X0050368Y0205196D02*
X0038500Y0205196D01*
X0038500Y0206195D02*
X0051366Y0206195D01*
X0052365Y0207193D02*
X0038500Y0207193D01*
X0038500Y0208192D02*
X0053363Y0208192D01*
X0054362Y0209190D02*
X0038500Y0209190D01*
X0038500Y0210189D02*
X0055360Y0210189D01*
X0056359Y0211187D02*
X0038500Y0211187D01*
X0038500Y0212186D02*
X0057357Y0212186D01*
X0061017Y0210189D02*
X0067732Y0210189D01*
X0066733Y0211187D02*
X0062016Y0211187D01*
X0063014Y0212186D02*
X0066157Y0212186D01*
X0065748Y0213184D02*
X0064013Y0213184D01*
X0065011Y0214183D02*
X0065748Y0214183D01*
X0065346Y0220174D02*
X0037654Y0220174D01*
X0036656Y0221172D02*
X0065748Y0221172D01*
X0065748Y0222171D02*
X0035657Y0222171D01*
X0034659Y0223170D02*
X0065861Y0223170D01*
X0066274Y0224168D02*
X0033660Y0224168D01*
X0032662Y0225167D02*
X0067016Y0225167D01*
X0069500Y0221500D02*
X0070398Y0221972D01*
X0069500Y0221500D02*
X0036500Y0188500D01*
X0036500Y0186500D01*
X0038744Y0183229D02*
X0050595Y0183229D01*
X0050200Y0182231D02*
X0039598Y0182231D01*
X0040596Y0181232D02*
X0050200Y0181232D01*
X0050403Y0180234D02*
X0041595Y0180234D01*
X0040400Y0175772D02*
X0040672Y0175500D01*
X0057672Y0175500D01*
X0057772Y0175400D01*
X0056800Y0175400D01*
X0056800Y0171800D01*
X0056200Y0171800D01*
X0056200Y0175400D01*
X0053716Y0175400D01*
X0052962Y0175250D01*
X0052253Y0174956D01*
X0051614Y0174529D01*
X0051071Y0173986D01*
X0050644Y0173347D01*
X0050350Y0172638D01*
X0050200Y0171884D01*
X0050200Y0171800D01*
X0056200Y0171800D01*
X0056200Y0171200D01*
X0050200Y0171200D01*
X0050200Y0171116D01*
X0050350Y0170362D01*
X0050644Y0169653D01*
X0050746Y0169500D01*
X0042328Y0169500D01*
X0038672Y0173156D01*
X0040400Y0174885D01*
X0040400Y0175772D01*
X0040400Y0175241D02*
X0052940Y0175241D01*
X0051327Y0174242D02*
X0039758Y0174242D01*
X0038759Y0173244D02*
X0050601Y0173244D01*
X0050272Y0172245D02*
X0039583Y0172245D01*
X0040581Y0171247D02*
X0056200Y0171247D01*
X0056200Y0172245D02*
X0056800Y0172245D01*
X0056800Y0173244D02*
X0056200Y0173244D01*
X0056200Y0174242D02*
X0056800Y0174242D01*
X0056800Y0175241D02*
X0056200Y0175241D01*
X0052904Y0185226D02*
X0040400Y0185226D01*
X0039743Y0184228D02*
X0051312Y0184228D01*
X0050397Y0170248D02*
X0041580Y0170248D01*
X0043573Y0165256D02*
X0052991Y0165256D01*
X0051342Y0164257D02*
X0044571Y0164257D01*
X0045570Y0163259D02*
X0050607Y0163259D01*
X0050275Y0162260D02*
X0046568Y0162260D01*
X0047567Y0161262D02*
X0056200Y0161262D01*
X0056500Y0161500D02*
X0056500Y0151500D01*
X0056800Y0151277D02*
X0086200Y0151277D01*
X0086200Y0151200D02*
X0080200Y0151200D01*
X0080200Y0151116D01*
X0080350Y0150362D01*
X0080644Y0149653D01*
X0081071Y0149014D01*
X0081614Y0148471D01*
X0082253Y0148044D01*
X0082962Y0147750D01*
X0083716Y0147600D01*
X0086200Y0147600D01*
X0086200Y0151200D01*
X0086200Y0150278D02*
X0086800Y0150278D01*
X0086800Y0149280D02*
X0086200Y0149280D01*
X0086200Y0148281D02*
X0086800Y0148281D01*
X0083066Y0155271D02*
X0059934Y0155271D01*
X0060038Y0155250D02*
X0059284Y0155400D01*
X0056800Y0155400D01*
X0056800Y0151800D01*
X0062800Y0151800D01*
X0062800Y0151884D01*
X0062650Y0152638D01*
X0062356Y0153347D01*
X0061929Y0153986D01*
X0061386Y0154529D01*
X0060747Y0154956D01*
X0060038Y0155250D01*
X0061080Y0158266D02*
X0081818Y0158266D01*
X0080820Y0159265D02*
X0062097Y0159265D01*
X0062609Y0160263D02*
X0062908Y0160263D01*
X0061643Y0154272D02*
X0081357Y0154272D01*
X0080613Y0153274D02*
X0062387Y0153274D01*
X0062722Y0152275D02*
X0080278Y0152275D01*
X0080385Y0150278D02*
X0062615Y0150278D01*
X0062650Y0150362D02*
X0062800Y0151116D01*
X0062800Y0151200D01*
X0056800Y0151200D01*
X0056800Y0147600D01*
X0059284Y0147600D01*
X0060038Y0147750D01*
X0060747Y0148044D01*
X0061386Y0148471D01*
X0061929Y0149014D01*
X0062356Y0149653D01*
X0062650Y0150362D01*
X0062107Y0149280D02*
X0080893Y0149280D01*
X0081897Y0148281D02*
X0061102Y0148281D01*
X0056800Y0148281D02*
X0056200Y0148281D01*
X0056200Y0149280D02*
X0056800Y0149280D01*
X0056800Y0150278D02*
X0056200Y0150278D01*
X0056200Y0152275D02*
X0056800Y0152275D01*
X0056800Y0153274D02*
X0056200Y0153274D01*
X0056200Y0154272D02*
X0056800Y0154272D01*
X0056800Y0155271D02*
X0056200Y0155271D01*
X0056200Y0158266D02*
X0056800Y0158266D01*
X0056800Y0159265D02*
X0056200Y0159265D01*
X0056200Y0160263D02*
X0056800Y0160263D01*
X0056800Y0162260D02*
X0056200Y0162260D01*
X0056200Y0163259D02*
X0056800Y0163259D01*
X0056800Y0164257D02*
X0056200Y0164257D01*
X0056200Y0165256D02*
X0056800Y0165256D01*
X0061152Y0178237D02*
X0078935Y0178237D01*
X0081500Y0185226D02*
X0082904Y0185226D01*
X0081500Y0186225D02*
X0091551Y0186225D01*
X0091551Y0187223D02*
X0081500Y0187223D01*
X0082050Y0188222D02*
X0091551Y0188222D01*
X0091551Y0189220D02*
X0082500Y0189220D01*
X0082500Y0190219D02*
X0091551Y0190219D01*
X0091551Y0191217D02*
X0082500Y0191217D01*
X0082500Y0192216D02*
X0091551Y0192216D01*
X0091551Y0193214D02*
X0082500Y0193214D01*
X0082500Y0194213D02*
X0091551Y0194213D01*
X0091551Y0195211D02*
X0082500Y0195211D01*
X0082500Y0196210D02*
X0091551Y0196210D01*
X0091551Y0197208D02*
X0082500Y0197208D01*
X0082500Y0198207D02*
X0091551Y0198207D01*
X0091551Y0199205D02*
X0082500Y0199205D01*
X0082500Y0200204D02*
X0091551Y0200204D01*
X0091551Y0201202D02*
X0082500Y0201202D01*
X0082500Y0202201D02*
X0091551Y0202201D01*
X0091551Y0203199D02*
X0082500Y0203199D01*
X0082500Y0204198D02*
X0091551Y0204198D01*
X0091551Y0205196D02*
X0082500Y0205196D01*
X0082500Y0206195D02*
X0091551Y0206195D01*
X0091551Y0207193D02*
X0082500Y0207193D01*
X0082500Y0208192D02*
X0091551Y0208192D01*
X0091551Y0209190D02*
X0082500Y0209190D01*
X0082500Y0210189D02*
X0091551Y0210189D01*
X0091551Y0211187D02*
X0082500Y0211187D01*
X0082500Y0212186D02*
X0091551Y0212186D01*
X0091551Y0213184D02*
X0082500Y0213184D01*
X0082500Y0214183D02*
X0091551Y0214183D01*
X0091551Y0215181D02*
X0082500Y0215181D01*
X0082500Y0216180D02*
X0091551Y0216180D01*
X0091551Y0217178D02*
X0082500Y0217178D01*
X0082500Y0218177D02*
X0091551Y0218177D01*
X0091551Y0219175D02*
X0082500Y0219175D01*
X0082500Y0220174D02*
X0091551Y0220174D01*
X0091551Y0221172D02*
X0082500Y0221172D01*
X0082500Y0222171D02*
X0091551Y0222171D01*
X0091551Y0223170D02*
X0081659Y0223170D01*
X0080660Y0224168D02*
X0091551Y0224168D01*
X0091551Y0225167D02*
X0079662Y0225167D01*
X0078663Y0226165D02*
X0091551Y0226165D01*
X0091551Y0227164D02*
X0077665Y0227164D01*
X0076666Y0228162D02*
X0091551Y0228162D01*
X0091551Y0229161D02*
X0075668Y0229161D01*
X0074669Y0230159D02*
X0091551Y0230159D01*
X0091551Y0231158D02*
X0073671Y0231158D01*
X0072672Y0232156D02*
X0091551Y0232156D01*
X0091551Y0233155D02*
X0071674Y0233155D01*
X0073406Y0234153D02*
X0091551Y0234153D01*
X0091551Y0235152D02*
X0074366Y0235152D01*
X0074780Y0236150D02*
X0091551Y0236150D01*
X0091551Y0237149D02*
X0075047Y0237149D01*
X0075047Y0238147D02*
X0091551Y0238147D01*
X0091551Y0239146D02*
X0074840Y0239146D01*
X0074426Y0240144D02*
X0091551Y0240144D01*
X0091551Y0241143D02*
X0073551Y0241143D01*
X0073520Y0242141D02*
X0091551Y0242141D01*
X0091551Y0243140D02*
X0074361Y0243140D01*
X0074813Y0244138D02*
X0091551Y0244138D01*
X0091551Y0245137D02*
X0075033Y0245137D01*
X0075020Y0246135D02*
X0091551Y0246135D01*
X0091551Y0247134D02*
X0074786Y0247134D01*
X0074301Y0248132D02*
X0091551Y0248132D01*
X0091551Y0249131D02*
X0073437Y0249131D01*
X0073634Y0250129D02*
X0091551Y0250129D01*
X0091551Y0251128D02*
X0074461Y0251128D01*
X0074874Y0252126D02*
X0091551Y0252126D01*
X0091551Y0253125D02*
X0075047Y0253125D01*
X0075047Y0254123D02*
X0091551Y0254123D01*
X0091551Y0255122D02*
X0074745Y0255122D01*
X0074321Y0256120D02*
X0091551Y0256120D01*
X0091551Y0257119D02*
X0073323Y0257119D01*
X0076857Y0266105D02*
X0018662Y0266105D01*
X0019661Y0267104D02*
X0075859Y0267104D01*
X0074860Y0268103D02*
X0020659Y0268103D01*
X0021123Y0269101D02*
X0074397Y0269101D01*
X0073984Y0270100D02*
X0021536Y0270100D01*
X0021950Y0271098D02*
X0073570Y0271098D01*
X0073441Y0272097D02*
X0022079Y0272097D01*
X0022079Y0273095D02*
X0073441Y0273095D01*
X0073441Y0274094D02*
X0022079Y0274094D01*
X0021998Y0275092D02*
X0073522Y0275092D01*
X0073935Y0276091D02*
X0021585Y0276091D01*
X0021171Y0277089D02*
X0074349Y0277089D01*
X0074762Y0278088D02*
X0020757Y0278088D01*
X0019778Y0279086D02*
X0075742Y0279086D01*
X0076740Y0280085D02*
X0018779Y0280085D01*
X0017078Y0281083D02*
X0078441Y0281083D01*
X0078724Y0265107D02*
X0016796Y0265107D01*
X0025311Y0222161D02*
X0029772Y0222161D01*
X0029772Y0222338D01*
X0029760Y0222412D01*
X0034500Y0217672D01*
X0034500Y0200015D01*
X0032600Y0198115D01*
X0032600Y0195428D01*
X0030500Y0193328D01*
X0030500Y0183672D01*
X0031672Y0182500D01*
X0033672Y0180500D01*
X0035672Y0180500D01*
X0035772Y0180400D01*
X0034885Y0180400D01*
X0032600Y0178115D01*
X0032600Y0177228D01*
X0024500Y0185328D01*
X0024500Y0209449D01*
X0026047Y0209449D01*
X0027756Y0210157D01*
X0029064Y0211465D01*
X0029772Y0213174D01*
X0029772Y0215023D01*
X0029064Y0216732D01*
X0027756Y0218040D01*
X0027669Y0218076D01*
X0028151Y0218426D01*
X0028669Y0218943D01*
X0029099Y0219536D01*
X0029431Y0220188D01*
X0029657Y0220884D01*
X0029772Y0221606D01*
X0029772Y0221783D01*
X0025311Y0221783D01*
X0025311Y0222161D01*
X0027808Y0218177D02*
X0033995Y0218177D01*
X0034500Y0217178D02*
X0028618Y0217178D01*
X0029293Y0216180D02*
X0034500Y0216180D01*
X0034500Y0215181D02*
X0029706Y0215181D01*
X0029772Y0214183D02*
X0034500Y0214183D01*
X0034500Y0213184D02*
X0029772Y0213184D01*
X0029363Y0212186D02*
X0034500Y0212186D01*
X0034500Y0211187D02*
X0028787Y0211187D01*
X0027788Y0210189D02*
X0034500Y0210189D01*
X0034500Y0209190D02*
X0024500Y0209190D01*
X0024500Y0208192D02*
X0034500Y0208192D01*
X0034500Y0207193D02*
X0024500Y0207193D01*
X0024500Y0206195D02*
X0034500Y0206195D01*
X0034500Y0205196D02*
X0024500Y0205196D01*
X0024500Y0204198D02*
X0034500Y0204198D01*
X0034500Y0203199D02*
X0024500Y0203199D01*
X0024500Y0202201D02*
X0034500Y0202201D01*
X0034500Y0201202D02*
X0024500Y0201202D01*
X0024500Y0200204D02*
X0034500Y0200204D01*
X0033690Y0199205D02*
X0024500Y0199205D01*
X0024500Y0198207D02*
X0032691Y0198207D01*
X0032600Y0197208D02*
X0024500Y0197208D01*
X0024500Y0196210D02*
X0032600Y0196210D01*
X0032383Y0195211D02*
X0024500Y0195211D01*
X0024500Y0194213D02*
X0031384Y0194213D01*
X0030500Y0193214D02*
X0024500Y0193214D01*
X0024500Y0192216D02*
X0030500Y0192216D01*
X0030500Y0191217D02*
X0024500Y0191217D01*
X0024500Y0190219D02*
X0030500Y0190219D01*
X0030500Y0189220D02*
X0024500Y0189220D01*
X0024500Y0188222D02*
X0030500Y0188222D01*
X0030500Y0187223D02*
X0024500Y0187223D01*
X0024500Y0186225D02*
X0030500Y0186225D01*
X0030500Y0185226D02*
X0024602Y0185226D01*
X0025601Y0184228D02*
X0030500Y0184228D01*
X0030943Y0183229D02*
X0026599Y0183229D01*
X0027598Y0182231D02*
X0031941Y0182231D01*
X0032940Y0181232D02*
X0028596Y0181232D01*
X0029595Y0180234D02*
X0034718Y0180234D01*
X0033720Y0179235D02*
X0030593Y0179235D01*
X0031592Y0178237D02*
X0032721Y0178237D01*
X0032600Y0177238D02*
X0032590Y0177238D01*
X0028734Y0169250D02*
X0024266Y0169250D01*
X0025264Y0168251D02*
X0027736Y0168251D01*
X0027600Y0167253D02*
X0025400Y0167253D01*
X0020500Y0152275D02*
X0046500Y0152275D01*
X0046500Y0151277D02*
X0020500Y0151277D01*
X0020500Y0146284D02*
X0041200Y0146284D01*
X0041200Y0145286D02*
X0041800Y0145286D01*
X0041800Y0144287D02*
X0041200Y0144287D01*
X0041200Y0143289D02*
X0041800Y0143289D01*
X0044896Y0150278D02*
X0046500Y0150278D01*
X0046500Y0153274D02*
X0046189Y0153274D01*
X0048565Y0160263D02*
X0050391Y0160263D01*
X0050903Y0159265D02*
X0049564Y0159265D01*
X0050500Y0154272D02*
X0051357Y0154272D01*
X0050613Y0153274D02*
X0050500Y0153274D01*
X0050500Y0149280D02*
X0050893Y0149280D01*
X0050500Y0148281D02*
X0051897Y0148281D01*
X0048883Y0143289D02*
X0046114Y0143289D01*
X0047112Y0144287D02*
X0047884Y0144287D01*
X0046621Y0139295D02*
X0052877Y0139295D01*
X0051878Y0140293D02*
X0044934Y0140293D01*
X0047377Y0138296D02*
X0053876Y0138296D01*
X0054874Y0137298D02*
X0047791Y0137298D01*
X0047800Y0136299D02*
X0055873Y0136299D01*
X0056871Y0135301D02*
X0047624Y0135301D01*
X0047211Y0134302D02*
X0057870Y0134302D01*
X0058868Y0133303D02*
X0046219Y0133303D01*
X0046606Y0129309D02*
X0051394Y0129309D01*
X0050629Y0128311D02*
X0047371Y0128311D01*
X0047715Y0127312D02*
X0050215Y0127312D01*
X0053102Y0130308D02*
X0044747Y0130308D01*
X0044597Y0110338D02*
X0053174Y0110338D01*
X0050764Y0094362D02*
X0050500Y0094362D01*
X0050191Y0093363D02*
X0051722Y0093363D01*
X0045672Y0065500D02*
X0045772Y0065400D01*
X0040924Y0065400D01*
X0039491Y0064806D01*
X0038394Y0063709D01*
X0037800Y0062276D01*
X0037800Y0060724D01*
X0038394Y0059291D01*
X0039428Y0058256D01*
X0034672Y0053500D01*
X0028579Y0053500D01*
X0029064Y0053984D01*
X0029772Y0055693D01*
X0029772Y0057543D01*
X0029064Y0059252D01*
X0027756Y0060560D01*
X0027669Y0060596D01*
X0028151Y0060946D01*
X0028669Y0061463D01*
X0029099Y0062055D01*
X0029431Y0062707D01*
X0029657Y0063403D01*
X0029772Y0064126D01*
X0029772Y0064303D01*
X0025311Y0064303D01*
X0025311Y0064681D01*
X0029772Y0064681D01*
X0029772Y0064858D01*
X0029657Y0065581D01*
X0029431Y0066277D01*
X0029099Y0066929D01*
X0028669Y0067521D01*
X0028151Y0068039D01*
X0027669Y0068389D01*
X0027756Y0068424D01*
X0029064Y0069732D01*
X0029772Y0071441D01*
X0029772Y0072400D01*
X0036672Y0065500D01*
X0045672Y0065500D01*
X0045767Y0065405D02*
X0029685Y0065405D01*
X0029367Y0066403D02*
X0035768Y0066403D01*
X0034770Y0067402D02*
X0028755Y0067402D01*
X0028730Y0069399D02*
X0032773Y0069399D01*
X0031774Y0070397D02*
X0029339Y0070397D01*
X0029753Y0071396D02*
X0030776Y0071396D01*
X0029777Y0072394D02*
X0029772Y0072394D01*
X0029500Y0075500D02*
X0025500Y0079500D01*
X0025122Y0080240D01*
X0027286Y0084376D02*
X0035548Y0084376D01*
X0034550Y0083378D02*
X0028560Y0083378D01*
X0029269Y0082379D02*
X0033551Y0082379D01*
X0032552Y0081381D02*
X0029682Y0081381D01*
X0029772Y0080382D02*
X0031554Y0080382D01*
X0030555Y0079384D02*
X0029772Y0079384D01*
X0029557Y0078385D02*
X0029443Y0078385D01*
X0032439Y0075390D02*
X0040900Y0075390D01*
X0039076Y0074391D02*
X0033437Y0074391D01*
X0034436Y0073393D02*
X0038263Y0073393D01*
X0037849Y0072394D02*
X0035434Y0072394D01*
X0036433Y0071396D02*
X0037800Y0071396D01*
X0037935Y0070397D02*
X0037431Y0070397D01*
X0039091Y0064406D02*
X0025311Y0064406D01*
X0025122Y0064492D02*
X0024500Y0064500D01*
X0011500Y0077500D01*
X0011500Y0096500D01*
X0011500Y0098500D01*
X0018500Y0105500D01*
X0018500Y0106500D01*
X0034500Y0106500D01*
X0035200Y0106200D02*
X0035200Y0106116D01*
X0035350Y0105362D01*
X0035644Y0104653D01*
X0036071Y0104014D01*
X0036614Y0103471D01*
X0037253Y0103044D01*
X0037962Y0102750D01*
X0038716Y0102600D01*
X0041200Y0102600D01*
X0041200Y0106200D01*
X0035200Y0106200D01*
X0035357Y0105345D02*
X0017643Y0105345D01*
X0017800Y0106344D02*
X0041200Y0106344D01*
X0041200Y0107342D02*
X0041800Y0107342D01*
X0041800Y0108341D02*
X0041200Y0108341D01*
X0041200Y0109339D02*
X0041800Y0109339D01*
X0041800Y0110338D02*
X0041200Y0110338D01*
X0041200Y0105345D02*
X0041800Y0105345D01*
X0041800Y0104347D02*
X0041200Y0104347D01*
X0041200Y0103348D02*
X0041800Y0103348D01*
X0038403Y0110338D02*
X0014826Y0110338D01*
X0016180Y0113333D02*
X0036751Y0113333D01*
X0035777Y0114332D02*
X0017142Y0114332D01*
X0017637Y0115330D02*
X0035363Y0115330D01*
X0036424Y0109339D02*
X0016576Y0109339D01*
X0017359Y0108341D02*
X0035641Y0108341D01*
X0035291Y0107342D02*
X0017772Y0107342D01*
X0018500Y0106500D02*
X0018500Y0109500D01*
X0011500Y0116500D01*
X0016264Y0103348D02*
X0036797Y0103348D01*
X0035848Y0104347D02*
X0017229Y0104347D01*
X0016561Y0099354D02*
X0036439Y0099354D01*
X0035647Y0098356D02*
X0017351Y0098356D01*
X0017706Y0097357D02*
X0035234Y0097357D01*
X0035200Y0096359D02*
X0011800Y0096359D01*
X0011800Y0097357D02*
X0011200Y0097357D01*
X0011200Y0098356D02*
X0011800Y0098356D01*
X0011800Y0099354D02*
X0011200Y0099354D01*
X0011200Y0100353D02*
X0011800Y0100353D01*
X0011800Y0095360D02*
X0011200Y0095360D01*
X0011200Y0094362D02*
X0011800Y0094362D01*
X0011800Y0093363D02*
X0011200Y0093363D01*
X0014522Y0100353D02*
X0038210Y0100353D01*
X0035351Y0095360D02*
X0017649Y0095360D01*
X0017162Y0094362D02*
X0035764Y0094362D01*
X0036722Y0093363D02*
X0016225Y0093363D01*
X0013422Y0064406D02*
X0024933Y0064406D01*
X0027698Y0068400D02*
X0033771Y0068400D01*
X0029658Y0063408D02*
X0038269Y0063408D01*
X0037855Y0062409D02*
X0029279Y0062409D01*
X0028616Y0061411D02*
X0037800Y0061411D01*
X0037929Y0060412D02*
X0027904Y0060412D01*
X0028902Y0059414D02*
X0038343Y0059414D01*
X0039269Y0058415D02*
X0029410Y0058415D01*
X0029772Y0057417D02*
X0038588Y0057417D01*
X0037590Y0056418D02*
X0029772Y0056418D01*
X0029658Y0055420D02*
X0036591Y0055420D01*
X0035593Y0054421D02*
X0029245Y0054421D01*
X0036500Y0052500D02*
X0036500Y0051500D01*
X0036500Y0052500D02*
X0045500Y0061500D01*
X0046500Y0061500D01*
X0046500Y0051500D02*
X0046500Y0047500D01*
X0057500Y0036500D01*
X0057500Y0029500D01*
X0055500Y0029458D02*
X0044974Y0029458D01*
X0045400Y0030457D02*
X0055500Y0030457D01*
X0055500Y0031455D02*
X0045400Y0031455D01*
X0045400Y0032454D02*
X0055500Y0032454D01*
X0055500Y0033452D02*
X0045063Y0033452D01*
X0044065Y0034451D02*
X0055500Y0034451D01*
X0055500Y0035449D02*
X0038500Y0035449D01*
X0038500Y0034451D02*
X0038935Y0034451D01*
X0038500Y0036448D02*
X0054724Y0036448D01*
X0053725Y0037446D02*
X0038500Y0037446D01*
X0038500Y0038445D02*
X0039240Y0038445D01*
X0039025Y0028460D02*
X0038500Y0028460D01*
X0048960Y0038445D02*
X0052727Y0038445D01*
X0051728Y0039443D02*
X0049869Y0039443D01*
X0050283Y0040442D02*
X0050730Y0040442D01*
X0039099Y0078385D02*
X0035214Y0078385D01*
X0036212Y0079384D02*
X0038101Y0079384D01*
X0037600Y0080382D02*
X0037211Y0080382D01*
X0035285Y0127312D02*
X0020500Y0127312D01*
X0020500Y0128311D02*
X0035629Y0128311D01*
X0036394Y0129309D02*
X0020500Y0129309D01*
X0011500Y0146500D02*
X0011500Y0148500D01*
X0004500Y0155500D01*
X0004500Y0164500D01*
X0028837Y0219175D02*
X0032996Y0219175D01*
X0031998Y0220174D02*
X0029424Y0220174D01*
X0029703Y0221172D02*
X0030999Y0221172D01*
X0030001Y0222171D02*
X0029772Y0222171D01*
X0031663Y0226165D02*
X0057007Y0226165D01*
X0066800Y0195400D02*
X0068115Y0195400D01*
X0070400Y0193115D01*
X0070400Y0191800D01*
X0066800Y0191800D01*
X0066800Y0191200D01*
X0070400Y0191200D01*
X0070400Y0189885D01*
X0068115Y0187600D01*
X0066800Y0187600D01*
X0066800Y0191200D01*
X0066200Y0191200D01*
X0066200Y0187600D01*
X0064885Y0187600D01*
X0062600Y0189885D01*
X0062600Y0191200D01*
X0066200Y0191200D01*
X0066200Y0191800D01*
X0066800Y0191800D01*
X0066800Y0195400D01*
X0066800Y0195211D02*
X0066200Y0195211D01*
X0066200Y0194213D02*
X0066800Y0194213D01*
X0066800Y0193214D02*
X0066200Y0193214D01*
X0066200Y0192216D02*
X0066800Y0192216D01*
X0066800Y0191217D02*
X0072600Y0191217D01*
X0072600Y0190219D02*
X0070400Y0190219D01*
X0069736Y0189220D02*
X0073264Y0189220D01*
X0074263Y0188222D02*
X0068737Y0188222D01*
X0066800Y0188222D02*
X0066200Y0188222D01*
X0066200Y0189220D02*
X0066800Y0189220D01*
X0066800Y0190219D02*
X0066200Y0190219D01*
X0066200Y0191217D02*
X0042046Y0191217D01*
X0041047Y0190219D02*
X0062600Y0190219D01*
X0063264Y0189220D02*
X0040049Y0189220D01*
X0040294Y0188222D02*
X0064263Y0188222D01*
X0068304Y0195211D02*
X0074500Y0195211D01*
X0073697Y0194213D02*
X0069303Y0194213D01*
X0070301Y0193214D02*
X0072699Y0193214D01*
X0072600Y0192216D02*
X0070400Y0192216D01*
X0073064Y0210189D02*
X0074500Y0210189D01*
X0074500Y0211187D02*
X0074062Y0211187D01*
X0090096Y0185226D02*
X0091551Y0185226D01*
X0091551Y0140293D02*
X0078222Y0140293D01*
X0079221Y0139295D02*
X0091551Y0139295D01*
X0091551Y0138296D02*
X0080219Y0138296D01*
X0080400Y0137298D02*
X0091551Y0137298D01*
X0091551Y0136299D02*
X0080400Y0136299D01*
X0080528Y0135301D02*
X0091551Y0135301D01*
X0091551Y0134302D02*
X0081526Y0134302D01*
X0082525Y0133303D02*
X0091551Y0133303D01*
X0091551Y0132305D02*
X0083523Y0132305D01*
X0084522Y0131306D02*
X0091551Y0131306D01*
X0091551Y0130308D02*
X0089898Y0130308D01*
X0089862Y0120323D02*
X0091551Y0120323D01*
X0086500Y0126500D02*
X0076500Y0136500D01*
X0074778Y0140293D02*
X0068222Y0140293D01*
X0068115Y0140400D02*
X0066800Y0140400D01*
X0066800Y0136800D01*
X0070400Y0136800D01*
X0070400Y0138115D01*
X0068115Y0140400D01*
X0069221Y0139295D02*
X0073779Y0139295D01*
X0072781Y0138296D02*
X0070219Y0138296D01*
X0070400Y0137298D02*
X0072600Y0137298D01*
X0066800Y0137298D02*
X0066200Y0137298D01*
X0066200Y0138296D02*
X0066800Y0138296D01*
X0066800Y0139295D02*
X0066200Y0139295D01*
X0066200Y0140293D02*
X0066800Y0140293D01*
X0062600Y0135301D02*
X0062528Y0135301D01*
D14*
X0073500Y0164500D03*
M02*
