G75*
%MOIN*%
%OFA0B0*%
%FSLAX25Y25*%
%IPPOS*%
%LPD*%
%AMOC8*
5,1,8,0,0,1.08239X$1,22.5*
%
%ADD10C,0.00300*%
%ADD11C,0.00600*%
%ADD12C,0.01000*%
%ADD13C,0.00200*%
%ADD14R,0.01500X0.07000*%
%ADD15R,0.05500X0.02000*%
%ADD16C,0.00800*%
%ADD17C,0.00500*%
D10*
X0033881Y0033146D02*
X0033881Y0034597D01*
X0034364Y0035081D01*
X0035332Y0035081D01*
X0035816Y0034597D01*
X0035816Y0033146D01*
X0036783Y0033146D02*
X0033881Y0033146D01*
X0033881Y0036093D02*
X0036783Y0036093D01*
X0035816Y0037060D01*
X0036783Y0038028D01*
X0033881Y0038028D01*
X0033881Y0039039D02*
X0033881Y0040490D01*
X0034364Y0040974D01*
X0035332Y0040974D01*
X0035816Y0040490D01*
X0035816Y0039039D01*
X0036783Y0039039D02*
X0033881Y0039039D01*
X0033881Y0041986D02*
X0035332Y0041986D01*
X0034848Y0042953D01*
X0034848Y0043437D01*
X0035332Y0043921D01*
X0036299Y0043921D01*
X0036783Y0043437D01*
X0036783Y0042469D01*
X0036299Y0041986D01*
X0036783Y0040974D02*
X0035816Y0040007D01*
X0033881Y0041986D02*
X0033881Y0043921D01*
X0033881Y0044932D02*
X0035816Y0044932D01*
X0036783Y0045900D01*
X0035816Y0046867D01*
X0033881Y0046867D01*
X0033881Y0056768D02*
X0033881Y0058703D01*
X0033881Y0059715D02*
X0033881Y0061166D01*
X0034364Y0061650D01*
X0035332Y0061650D01*
X0035816Y0061166D01*
X0035816Y0059715D01*
X0036783Y0059715D02*
X0033881Y0059715D01*
X0035332Y0057736D02*
X0035332Y0056768D01*
X0036783Y0056768D02*
X0033881Y0056768D01*
X0035816Y0060682D02*
X0036783Y0061650D01*
X0036299Y0062661D02*
X0036783Y0063145D01*
X0036783Y0064112D01*
X0036299Y0064596D01*
X0034364Y0064596D01*
X0033881Y0064112D01*
X0033881Y0063145D01*
X0034364Y0062661D01*
X0036299Y0062661D01*
X0036783Y0065608D02*
X0033881Y0065608D01*
X0036783Y0067543D01*
X0033881Y0067543D01*
X0033881Y0068554D02*
X0033881Y0070489D01*
X0033881Y0069522D02*
X0036783Y0069522D01*
X0036065Y0202437D02*
X0035098Y0202437D01*
X0035582Y0202437D02*
X0035582Y0205340D01*
X0036065Y0205340D02*
X0035098Y0205340D01*
X0034086Y0204856D02*
X0034086Y0202921D01*
X0033603Y0202437D01*
X0032151Y0202437D01*
X0032151Y0205340D01*
X0033603Y0205340D01*
X0034086Y0204856D01*
X0031155Y0205340D02*
X0030187Y0205340D01*
X0030671Y0205340D02*
X0030671Y0202437D01*
X0030187Y0202437D02*
X0031155Y0202437D01*
X0029176Y0202437D02*
X0029176Y0205340D01*
X0028208Y0204372D01*
X0027241Y0205340D01*
X0027241Y0202437D01*
X0037062Y0205340D02*
X0038997Y0205340D01*
X0038030Y0205340D02*
X0038030Y0202437D01*
X0040009Y0202437D02*
X0041944Y0205340D01*
X0040009Y0205340D02*
X0041944Y0202437D01*
X0060705Y0202437D02*
X0060705Y0205340D01*
X0061673Y0204372D01*
X0062640Y0205340D01*
X0062640Y0202437D01*
X0063652Y0202437D02*
X0064619Y0202437D01*
X0064135Y0202437D02*
X0064135Y0205340D01*
X0063652Y0205340D02*
X0064619Y0205340D01*
X0065616Y0205340D02*
X0065616Y0202437D01*
X0067067Y0202437D01*
X0067551Y0202921D01*
X0067551Y0204856D01*
X0067067Y0205340D01*
X0065616Y0205340D01*
X0068563Y0205340D02*
X0069530Y0205340D01*
X0069046Y0205340D02*
X0069046Y0202437D01*
X0068563Y0202437D02*
X0069530Y0202437D01*
X0070527Y0202437D02*
X0071494Y0202437D01*
X0071011Y0202437D02*
X0071011Y0205340D01*
X0071494Y0205340D02*
X0070527Y0205340D01*
X0072491Y0205340D02*
X0072491Y0202437D01*
X0074426Y0202437D02*
X0072491Y0205340D01*
X0074426Y0205340D02*
X0074426Y0202437D01*
X0074902Y0261650D02*
X0074418Y0262134D01*
X0074418Y0264552D01*
X0073407Y0264069D02*
X0073407Y0262134D01*
X0072923Y0261650D01*
X0071955Y0261650D01*
X0071472Y0262134D01*
X0071472Y0264069D01*
X0071955Y0264552D01*
X0072923Y0264552D01*
X0073407Y0264069D01*
X0074387Y0268132D02*
X0075004Y0268132D01*
X0075622Y0268749D01*
X0075622Y0271835D01*
X0073770Y0271835D01*
X0073153Y0271218D01*
X0073153Y0269984D01*
X0073770Y0269367D01*
X0075622Y0269367D01*
X0076836Y0269367D02*
X0076836Y0271835D01*
X0078688Y0271835D01*
X0079305Y0271218D01*
X0079305Y0269367D01*
X0079300Y0264552D02*
X0077365Y0264552D01*
X0078332Y0264552D02*
X0078332Y0261650D01*
X0076353Y0262134D02*
X0076353Y0264552D01*
X0076353Y0262134D02*
X0075869Y0261650D01*
X0074902Y0261650D01*
X0071932Y0269367D02*
X0070697Y0269367D01*
X0071315Y0269367D02*
X0071315Y0271835D01*
X0070697Y0271835D01*
X0069483Y0271835D02*
X0067632Y0271835D01*
X0067014Y0271218D01*
X0067632Y0270601D01*
X0068866Y0270601D01*
X0069483Y0269984D01*
X0068866Y0269367D01*
X0067014Y0269367D01*
X0065800Y0270601D02*
X0063331Y0270601D01*
X0063331Y0271218D02*
X0063948Y0271835D01*
X0065183Y0271835D01*
X0065800Y0271218D01*
X0065800Y0270601D01*
X0065183Y0269367D02*
X0063948Y0269367D01*
X0063331Y0269984D01*
X0063331Y0271218D01*
X0062117Y0269984D02*
X0062117Y0272452D01*
X0061500Y0273070D01*
X0059648Y0273070D01*
X0059648Y0269367D01*
X0061500Y0269367D01*
X0062117Y0269984D01*
X0061650Y0264552D02*
X0062617Y0263585D01*
X0063585Y0264552D01*
X0063585Y0261650D01*
X0064597Y0261650D02*
X0065564Y0261650D01*
X0065080Y0261650D02*
X0065080Y0264552D01*
X0064597Y0264552D02*
X0065564Y0264552D01*
X0066561Y0264552D02*
X0066561Y0261650D01*
X0068012Y0261650D01*
X0068496Y0262134D01*
X0068496Y0264069D01*
X0068012Y0264552D01*
X0066561Y0264552D01*
X0069507Y0264552D02*
X0070475Y0264552D01*
X0069991Y0264552D02*
X0069991Y0261650D01*
X0069507Y0261650D02*
X0070475Y0261650D01*
X0071315Y0273070D02*
X0071315Y0273687D01*
X0070701Y0275367D02*
X0070084Y0275984D01*
X0072552Y0278452D01*
X0072552Y0275984D01*
X0071935Y0275367D01*
X0070701Y0275367D01*
X0070084Y0275984D02*
X0070084Y0278452D01*
X0070701Y0279070D01*
X0071935Y0279070D01*
X0072552Y0278452D01*
X0073767Y0275984D02*
X0074384Y0275984D01*
X0074384Y0275367D01*
X0073767Y0275367D01*
X0073767Y0275984D01*
X0075608Y0275984D02*
X0078077Y0278452D01*
X0078077Y0275984D01*
X0077460Y0275367D01*
X0076226Y0275367D01*
X0075608Y0275984D01*
X0075608Y0278452D01*
X0076226Y0279070D01*
X0077460Y0279070D01*
X0078077Y0278452D01*
X0068859Y0275984D02*
X0068859Y0275367D01*
X0068242Y0275367D01*
X0068242Y0275984D01*
X0068859Y0275984D01*
X0067028Y0275367D02*
X0064559Y0275367D01*
X0065793Y0275367D02*
X0065793Y0279070D01*
X0064559Y0277835D01*
X0061650Y0264552D02*
X0061650Y0261650D01*
X0057806Y0275367D02*
X0057806Y0277835D01*
X0057806Y0276601D02*
X0059041Y0277835D01*
X0059658Y0277835D01*
X0056592Y0277218D02*
X0056592Y0276601D01*
X0054123Y0276601D01*
X0054123Y0277218D02*
X0054741Y0277835D01*
X0055975Y0277835D01*
X0056592Y0277218D01*
X0055975Y0275367D02*
X0054741Y0275367D01*
X0054123Y0275984D01*
X0054123Y0277218D01*
X0052909Y0277835D02*
X0052909Y0274749D01*
X0052292Y0274132D01*
X0051675Y0274132D01*
X0051057Y0275367D02*
X0052909Y0275367D01*
X0052909Y0277835D02*
X0051057Y0277835D01*
X0050440Y0277218D01*
X0050440Y0275984D01*
X0051057Y0275367D01*
X0050444Y0273070D02*
X0050444Y0269367D01*
X0051061Y0269367D02*
X0049826Y0269367D01*
X0049826Y0273070D02*
X0050444Y0273070D01*
X0049226Y0275367D02*
X0049226Y0277218D01*
X0048609Y0277835D01*
X0046757Y0277835D01*
X0046757Y0275367D01*
X0045543Y0275367D02*
X0043691Y0275367D01*
X0043074Y0275984D01*
X0043691Y0276601D01*
X0045543Y0276601D01*
X0045543Y0277218D02*
X0045543Y0275367D01*
X0045543Y0277218D02*
X0044925Y0277835D01*
X0043691Y0277835D01*
X0041856Y0277835D02*
X0041239Y0277835D01*
X0040005Y0276601D01*
X0040005Y0275367D02*
X0040005Y0277835D01*
X0038790Y0277835D02*
X0038790Y0274749D01*
X0038173Y0274132D01*
X0037556Y0274132D01*
X0036939Y0275367D02*
X0038790Y0275367D01*
X0038790Y0277835D02*
X0036939Y0277835D01*
X0036321Y0277218D01*
X0036321Y0275984D01*
X0036939Y0275367D01*
X0035107Y0275367D02*
X0035107Y0277218D01*
X0034490Y0277835D01*
X0032638Y0277835D01*
X0032638Y0275367D01*
X0031424Y0275984D02*
X0031424Y0277218D01*
X0030807Y0277835D01*
X0029572Y0277835D01*
X0028955Y0277218D01*
X0028955Y0275984D01*
X0029572Y0275367D01*
X0030807Y0275367D01*
X0031424Y0275984D01*
X0029572Y0273687D02*
X0029572Y0273070D01*
X0029572Y0271835D02*
X0029572Y0269367D01*
X0028955Y0269367D02*
X0030190Y0269367D01*
X0031411Y0269367D02*
X0031411Y0271835D01*
X0033262Y0271835D01*
X0033879Y0271218D01*
X0033879Y0269367D01*
X0035094Y0269984D02*
X0035094Y0271218D01*
X0035711Y0271835D01*
X0036945Y0271835D01*
X0037563Y0271218D01*
X0037563Y0270601D01*
X0035094Y0270601D01*
X0035094Y0269984D02*
X0035711Y0269367D01*
X0036945Y0269367D01*
X0038777Y0269984D02*
X0039394Y0270601D01*
X0041246Y0270601D01*
X0041246Y0271218D02*
X0041246Y0269367D01*
X0039394Y0269367D01*
X0038777Y0269984D01*
X0039394Y0271835D02*
X0040628Y0271835D01*
X0041246Y0271218D01*
X0042460Y0271835D02*
X0042460Y0268132D01*
X0042460Y0269367D02*
X0044312Y0269367D01*
X0044929Y0269984D01*
X0044929Y0271218D01*
X0044312Y0271835D01*
X0042460Y0271835D01*
X0039975Y0264395D02*
X0038040Y0261493D01*
X0037029Y0261493D02*
X0036061Y0262460D01*
X0036545Y0262460D02*
X0035094Y0262460D01*
X0035094Y0261493D02*
X0035094Y0264395D01*
X0036545Y0264395D01*
X0037029Y0263911D01*
X0037029Y0262944D01*
X0036545Y0262460D01*
X0038040Y0264395D02*
X0039975Y0261493D01*
X0034097Y0261493D02*
X0033129Y0261493D01*
X0033613Y0261493D02*
X0033613Y0264395D01*
X0033129Y0264395D02*
X0034097Y0264395D01*
X0032118Y0263911D02*
X0032118Y0261976D01*
X0031634Y0261493D01*
X0030183Y0261493D01*
X0030183Y0264395D01*
X0031634Y0264395D01*
X0032118Y0263911D01*
X0029186Y0264395D02*
X0028219Y0264395D01*
X0028702Y0264395D02*
X0028702Y0261493D01*
X0028219Y0261493D02*
X0029186Y0261493D01*
X0027207Y0261493D02*
X0027207Y0264395D01*
X0026240Y0263427D01*
X0025272Y0264395D01*
X0025272Y0261493D01*
X0025272Y0269367D02*
X0025272Y0273070D01*
X0027124Y0273070D01*
X0027741Y0272452D01*
X0027741Y0271218D01*
X0027124Y0270601D01*
X0025272Y0270601D01*
X0025272Y0275367D02*
X0027741Y0275367D01*
X0028955Y0271835D02*
X0029572Y0271835D01*
X0025272Y0275367D02*
X0025272Y0279070D01*
X0046143Y0271835D02*
X0046143Y0268132D01*
X0046143Y0269367D02*
X0047995Y0269367D01*
X0048612Y0269984D01*
X0048612Y0271218D01*
X0047995Y0271835D01*
X0046143Y0271835D01*
X0052282Y0271218D02*
X0052899Y0271835D01*
X0054133Y0271835D01*
X0054751Y0271218D01*
X0054751Y0270601D01*
X0052282Y0270601D01*
X0052282Y0269984D02*
X0052282Y0271218D01*
X0052282Y0269984D02*
X0052899Y0269367D01*
X0054133Y0269367D01*
D11*
X0052500Y0255000D02*
X0051500Y0255000D01*
X0051000Y0254500D01*
X0042000Y0254500D01*
X0041500Y0255000D01*
X0040500Y0255000D01*
X0040440Y0254998D01*
X0040379Y0254993D01*
X0040320Y0254984D01*
X0040261Y0254971D01*
X0040202Y0254955D01*
X0040145Y0254935D01*
X0040090Y0254912D01*
X0040035Y0254885D01*
X0039983Y0254856D01*
X0039932Y0254823D01*
X0039883Y0254787D01*
X0039837Y0254749D01*
X0039793Y0254707D01*
X0039751Y0254663D01*
X0039713Y0254617D01*
X0039677Y0254568D01*
X0039644Y0254517D01*
X0039615Y0254465D01*
X0039588Y0254410D01*
X0039565Y0254355D01*
X0039545Y0254298D01*
X0039529Y0254239D01*
X0039516Y0254180D01*
X0039507Y0254121D01*
X0039502Y0254060D01*
X0039500Y0254000D01*
X0039500Y0249000D02*
X0039502Y0248940D01*
X0039507Y0248879D01*
X0039516Y0248820D01*
X0039529Y0248761D01*
X0039545Y0248702D01*
X0039565Y0248645D01*
X0039588Y0248590D01*
X0039615Y0248535D01*
X0039644Y0248483D01*
X0039677Y0248432D01*
X0039713Y0248383D01*
X0039751Y0248337D01*
X0039793Y0248293D01*
X0039837Y0248251D01*
X0039883Y0248213D01*
X0039932Y0248177D01*
X0039983Y0248144D01*
X0040035Y0248115D01*
X0040090Y0248088D01*
X0040145Y0248065D01*
X0040202Y0248045D01*
X0040261Y0248029D01*
X0040320Y0248016D01*
X0040379Y0248007D01*
X0040440Y0248002D01*
X0040500Y0248000D01*
X0041500Y0248000D01*
X0042000Y0248500D01*
X0051000Y0248500D01*
X0051500Y0248000D01*
X0052500Y0248000D01*
X0052560Y0248002D01*
X0052621Y0248007D01*
X0052680Y0248016D01*
X0052739Y0248029D01*
X0052798Y0248045D01*
X0052855Y0248065D01*
X0052910Y0248088D01*
X0052965Y0248115D01*
X0053017Y0248144D01*
X0053068Y0248177D01*
X0053117Y0248213D01*
X0053163Y0248251D01*
X0053207Y0248293D01*
X0053249Y0248337D01*
X0053287Y0248383D01*
X0053323Y0248432D01*
X0053356Y0248483D01*
X0053385Y0248535D01*
X0053412Y0248590D01*
X0053435Y0248645D01*
X0053455Y0248702D01*
X0053471Y0248761D01*
X0053484Y0248820D01*
X0053493Y0248879D01*
X0053498Y0248940D01*
X0053500Y0249000D01*
X0052500Y0245000D02*
X0051500Y0245000D01*
X0051000Y0244500D01*
X0042000Y0244500D01*
X0041500Y0245000D01*
X0040500Y0245000D01*
X0040440Y0244998D01*
X0040379Y0244993D01*
X0040320Y0244984D01*
X0040261Y0244971D01*
X0040202Y0244955D01*
X0040145Y0244935D01*
X0040090Y0244912D01*
X0040035Y0244885D01*
X0039983Y0244856D01*
X0039932Y0244823D01*
X0039883Y0244787D01*
X0039837Y0244749D01*
X0039793Y0244707D01*
X0039751Y0244663D01*
X0039713Y0244617D01*
X0039677Y0244568D01*
X0039644Y0244517D01*
X0039615Y0244465D01*
X0039588Y0244410D01*
X0039565Y0244355D01*
X0039545Y0244298D01*
X0039529Y0244239D01*
X0039516Y0244180D01*
X0039507Y0244121D01*
X0039502Y0244060D01*
X0039500Y0244000D01*
X0039500Y0239000D02*
X0039502Y0238940D01*
X0039507Y0238879D01*
X0039516Y0238820D01*
X0039529Y0238761D01*
X0039545Y0238702D01*
X0039565Y0238645D01*
X0039588Y0238590D01*
X0039615Y0238535D01*
X0039644Y0238483D01*
X0039677Y0238432D01*
X0039713Y0238383D01*
X0039751Y0238337D01*
X0039793Y0238293D01*
X0039837Y0238251D01*
X0039883Y0238213D01*
X0039932Y0238177D01*
X0039983Y0238144D01*
X0040035Y0238115D01*
X0040090Y0238088D01*
X0040145Y0238065D01*
X0040202Y0238045D01*
X0040261Y0238029D01*
X0040320Y0238016D01*
X0040379Y0238007D01*
X0040440Y0238002D01*
X0040500Y0238000D01*
X0041500Y0238000D01*
X0042000Y0238500D01*
X0051000Y0238500D01*
X0051500Y0238000D01*
X0052500Y0238000D01*
X0052560Y0238002D01*
X0052621Y0238007D01*
X0052680Y0238016D01*
X0052739Y0238029D01*
X0052798Y0238045D01*
X0052855Y0238065D01*
X0052910Y0238088D01*
X0052965Y0238115D01*
X0053017Y0238144D01*
X0053068Y0238177D01*
X0053117Y0238213D01*
X0053163Y0238251D01*
X0053207Y0238293D01*
X0053249Y0238337D01*
X0053287Y0238383D01*
X0053323Y0238432D01*
X0053356Y0238483D01*
X0053385Y0238535D01*
X0053412Y0238590D01*
X0053435Y0238645D01*
X0053455Y0238702D01*
X0053471Y0238761D01*
X0053484Y0238820D01*
X0053493Y0238879D01*
X0053498Y0238940D01*
X0053500Y0239000D01*
X0055000Y0236500D02*
X0038000Y0236500D01*
X0037940Y0236498D01*
X0037879Y0236493D01*
X0037820Y0236484D01*
X0037761Y0236471D01*
X0037702Y0236455D01*
X0037645Y0236435D01*
X0037590Y0236412D01*
X0037535Y0236385D01*
X0037483Y0236356D01*
X0037432Y0236323D01*
X0037383Y0236287D01*
X0037337Y0236249D01*
X0037293Y0236207D01*
X0037251Y0236163D01*
X0037213Y0236117D01*
X0037177Y0236068D01*
X0037144Y0236017D01*
X0037115Y0235965D01*
X0037088Y0235910D01*
X0037065Y0235855D01*
X0037045Y0235798D01*
X0037029Y0235739D01*
X0037016Y0235680D01*
X0037007Y0235621D01*
X0037002Y0235560D01*
X0037000Y0235500D01*
X0037000Y0227500D01*
X0037002Y0227440D01*
X0037007Y0227379D01*
X0037016Y0227320D01*
X0037029Y0227261D01*
X0037045Y0227202D01*
X0037065Y0227145D01*
X0037088Y0227090D01*
X0037115Y0227035D01*
X0037144Y0226983D01*
X0037177Y0226932D01*
X0037213Y0226883D01*
X0037251Y0226837D01*
X0037293Y0226793D01*
X0037337Y0226751D01*
X0037383Y0226713D01*
X0037432Y0226677D01*
X0037483Y0226644D01*
X0037535Y0226615D01*
X0037590Y0226588D01*
X0037645Y0226565D01*
X0037702Y0226545D01*
X0037761Y0226529D01*
X0037820Y0226516D01*
X0037879Y0226507D01*
X0037940Y0226502D01*
X0038000Y0226500D01*
X0055000Y0226500D01*
X0055060Y0226502D01*
X0055121Y0226507D01*
X0055180Y0226516D01*
X0055239Y0226529D01*
X0055298Y0226545D01*
X0055355Y0226565D01*
X0055410Y0226588D01*
X0055465Y0226615D01*
X0055517Y0226644D01*
X0055568Y0226677D01*
X0055617Y0226713D01*
X0055663Y0226751D01*
X0055707Y0226793D01*
X0055749Y0226837D01*
X0055787Y0226883D01*
X0055823Y0226932D01*
X0055856Y0226983D01*
X0055885Y0227035D01*
X0055912Y0227090D01*
X0055935Y0227145D01*
X0055955Y0227202D01*
X0055971Y0227261D01*
X0055984Y0227320D01*
X0055993Y0227379D01*
X0055998Y0227440D01*
X0056000Y0227500D01*
X0056000Y0235500D01*
X0055998Y0235560D01*
X0055993Y0235621D01*
X0055984Y0235680D01*
X0055971Y0235739D01*
X0055955Y0235798D01*
X0055935Y0235855D01*
X0055912Y0235910D01*
X0055885Y0235965D01*
X0055856Y0236017D01*
X0055823Y0236068D01*
X0055787Y0236117D01*
X0055749Y0236163D01*
X0055707Y0236207D01*
X0055663Y0236249D01*
X0055617Y0236287D01*
X0055568Y0236323D01*
X0055517Y0236356D01*
X0055465Y0236385D01*
X0055410Y0236412D01*
X0055355Y0236435D01*
X0055298Y0236455D01*
X0055239Y0236471D01*
X0055180Y0236484D01*
X0055121Y0236493D01*
X0055060Y0236498D01*
X0055000Y0236500D01*
X0053500Y0244000D02*
X0053498Y0244060D01*
X0053493Y0244121D01*
X0053484Y0244180D01*
X0053471Y0244239D01*
X0053455Y0244298D01*
X0053435Y0244355D01*
X0053412Y0244410D01*
X0053385Y0244465D01*
X0053356Y0244517D01*
X0053323Y0244568D01*
X0053287Y0244617D01*
X0053249Y0244663D01*
X0053207Y0244707D01*
X0053163Y0244749D01*
X0053117Y0244787D01*
X0053068Y0244823D01*
X0053017Y0244856D01*
X0052965Y0244885D01*
X0052910Y0244912D01*
X0052855Y0244935D01*
X0052798Y0244955D01*
X0052739Y0244971D01*
X0052680Y0244984D01*
X0052621Y0244993D01*
X0052560Y0244998D01*
X0052500Y0245000D01*
X0053500Y0254000D02*
X0053498Y0254060D01*
X0053493Y0254121D01*
X0053484Y0254180D01*
X0053471Y0254239D01*
X0053455Y0254298D01*
X0053435Y0254355D01*
X0053412Y0254410D01*
X0053385Y0254465D01*
X0053356Y0254517D01*
X0053323Y0254568D01*
X0053287Y0254617D01*
X0053249Y0254663D01*
X0053207Y0254707D01*
X0053163Y0254749D01*
X0053117Y0254787D01*
X0053068Y0254823D01*
X0053017Y0254856D01*
X0052965Y0254885D01*
X0052910Y0254912D01*
X0052855Y0254935D01*
X0052798Y0254955D01*
X0052739Y0254971D01*
X0052680Y0254984D01*
X0052621Y0254993D01*
X0052560Y0254998D01*
X0052500Y0255000D01*
X0048000Y0231500D02*
X0047500Y0231500D01*
X0045500Y0231500D02*
X0045000Y0231500D01*
X0032500Y0200000D02*
X0031500Y0200000D01*
X0031000Y0199500D01*
X0022000Y0199500D01*
X0021500Y0200000D01*
X0020500Y0200000D01*
X0020440Y0199998D01*
X0020379Y0199993D01*
X0020320Y0199984D01*
X0020261Y0199971D01*
X0020202Y0199955D01*
X0020145Y0199935D01*
X0020090Y0199912D01*
X0020035Y0199885D01*
X0019983Y0199856D01*
X0019932Y0199823D01*
X0019883Y0199787D01*
X0019837Y0199749D01*
X0019793Y0199707D01*
X0019751Y0199663D01*
X0019713Y0199617D01*
X0019677Y0199568D01*
X0019644Y0199517D01*
X0019615Y0199465D01*
X0019588Y0199410D01*
X0019565Y0199355D01*
X0019545Y0199298D01*
X0019529Y0199239D01*
X0019516Y0199180D01*
X0019507Y0199121D01*
X0019502Y0199060D01*
X0019500Y0199000D01*
X0019500Y0194000D02*
X0019502Y0193940D01*
X0019507Y0193879D01*
X0019516Y0193820D01*
X0019529Y0193761D01*
X0019545Y0193702D01*
X0019565Y0193645D01*
X0019588Y0193590D01*
X0019615Y0193535D01*
X0019644Y0193483D01*
X0019677Y0193432D01*
X0019713Y0193383D01*
X0019751Y0193337D01*
X0019793Y0193293D01*
X0019837Y0193251D01*
X0019883Y0193213D01*
X0019932Y0193177D01*
X0019983Y0193144D01*
X0020035Y0193115D01*
X0020090Y0193088D01*
X0020145Y0193065D01*
X0020202Y0193045D01*
X0020261Y0193029D01*
X0020320Y0193016D01*
X0020379Y0193007D01*
X0020440Y0193002D01*
X0020500Y0193000D01*
X0021500Y0193000D01*
X0022000Y0193500D01*
X0031000Y0193500D01*
X0031500Y0193000D01*
X0032500Y0193000D01*
X0032560Y0193002D01*
X0032621Y0193007D01*
X0032680Y0193016D01*
X0032739Y0193029D01*
X0032798Y0193045D01*
X0032855Y0193065D01*
X0032910Y0193088D01*
X0032965Y0193115D01*
X0033017Y0193144D01*
X0033068Y0193177D01*
X0033117Y0193213D01*
X0033163Y0193251D01*
X0033207Y0193293D01*
X0033249Y0193337D01*
X0033287Y0193383D01*
X0033323Y0193432D01*
X0033356Y0193483D01*
X0033385Y0193535D01*
X0033412Y0193590D01*
X0033435Y0193645D01*
X0033455Y0193702D01*
X0033471Y0193761D01*
X0033484Y0193820D01*
X0033493Y0193879D01*
X0033498Y0193940D01*
X0033500Y0194000D01*
X0032500Y0190000D02*
X0031500Y0190000D01*
X0031000Y0189500D01*
X0022000Y0189500D01*
X0021500Y0190000D01*
X0020500Y0190000D01*
X0020440Y0189998D01*
X0020379Y0189993D01*
X0020320Y0189984D01*
X0020261Y0189971D01*
X0020202Y0189955D01*
X0020145Y0189935D01*
X0020090Y0189912D01*
X0020035Y0189885D01*
X0019983Y0189856D01*
X0019932Y0189823D01*
X0019883Y0189787D01*
X0019837Y0189749D01*
X0019793Y0189707D01*
X0019751Y0189663D01*
X0019713Y0189617D01*
X0019677Y0189568D01*
X0019644Y0189517D01*
X0019615Y0189465D01*
X0019588Y0189410D01*
X0019565Y0189355D01*
X0019545Y0189298D01*
X0019529Y0189239D01*
X0019516Y0189180D01*
X0019507Y0189121D01*
X0019502Y0189060D01*
X0019500Y0189000D01*
X0019500Y0184000D02*
X0019502Y0183940D01*
X0019507Y0183879D01*
X0019516Y0183820D01*
X0019529Y0183761D01*
X0019545Y0183702D01*
X0019565Y0183645D01*
X0019588Y0183590D01*
X0019615Y0183535D01*
X0019644Y0183483D01*
X0019677Y0183432D01*
X0019713Y0183383D01*
X0019751Y0183337D01*
X0019793Y0183293D01*
X0019837Y0183251D01*
X0019883Y0183213D01*
X0019932Y0183177D01*
X0019983Y0183144D01*
X0020035Y0183115D01*
X0020090Y0183088D01*
X0020145Y0183065D01*
X0020202Y0183045D01*
X0020261Y0183029D01*
X0020320Y0183016D01*
X0020379Y0183007D01*
X0020440Y0183002D01*
X0020500Y0183000D01*
X0021500Y0183000D01*
X0022000Y0183500D01*
X0031000Y0183500D01*
X0031500Y0183000D01*
X0032500Y0183000D01*
X0032560Y0183002D01*
X0032621Y0183007D01*
X0032680Y0183016D01*
X0032739Y0183029D01*
X0032798Y0183045D01*
X0032855Y0183065D01*
X0032910Y0183088D01*
X0032965Y0183115D01*
X0033017Y0183144D01*
X0033068Y0183177D01*
X0033117Y0183213D01*
X0033163Y0183251D01*
X0033207Y0183293D01*
X0033249Y0183337D01*
X0033287Y0183383D01*
X0033323Y0183432D01*
X0033356Y0183483D01*
X0033385Y0183535D01*
X0033412Y0183590D01*
X0033435Y0183645D01*
X0033455Y0183702D01*
X0033471Y0183761D01*
X0033484Y0183820D01*
X0033493Y0183879D01*
X0033498Y0183940D01*
X0033500Y0184000D01*
X0032500Y0180000D02*
X0031500Y0180000D01*
X0031000Y0179500D01*
X0022000Y0179500D01*
X0021500Y0180000D01*
X0020500Y0180000D01*
X0020440Y0179998D01*
X0020379Y0179993D01*
X0020320Y0179984D01*
X0020261Y0179971D01*
X0020202Y0179955D01*
X0020145Y0179935D01*
X0020090Y0179912D01*
X0020035Y0179885D01*
X0019983Y0179856D01*
X0019932Y0179823D01*
X0019883Y0179787D01*
X0019837Y0179749D01*
X0019793Y0179707D01*
X0019751Y0179663D01*
X0019713Y0179617D01*
X0019677Y0179568D01*
X0019644Y0179517D01*
X0019615Y0179465D01*
X0019588Y0179410D01*
X0019565Y0179355D01*
X0019545Y0179298D01*
X0019529Y0179239D01*
X0019516Y0179180D01*
X0019507Y0179121D01*
X0019502Y0179060D01*
X0019500Y0179000D01*
X0019500Y0174000D02*
X0019502Y0173940D01*
X0019507Y0173879D01*
X0019516Y0173820D01*
X0019529Y0173761D01*
X0019545Y0173702D01*
X0019565Y0173645D01*
X0019588Y0173590D01*
X0019615Y0173535D01*
X0019644Y0173483D01*
X0019677Y0173432D01*
X0019713Y0173383D01*
X0019751Y0173337D01*
X0019793Y0173293D01*
X0019837Y0173251D01*
X0019883Y0173213D01*
X0019932Y0173177D01*
X0019983Y0173144D01*
X0020035Y0173115D01*
X0020090Y0173088D01*
X0020145Y0173065D01*
X0020202Y0173045D01*
X0020261Y0173029D01*
X0020320Y0173016D01*
X0020379Y0173007D01*
X0020440Y0173002D01*
X0020500Y0173000D01*
X0021500Y0173000D01*
X0022000Y0173500D01*
X0031000Y0173500D01*
X0031500Y0173000D01*
X0032500Y0173000D01*
X0032560Y0173002D01*
X0032621Y0173007D01*
X0032680Y0173016D01*
X0032739Y0173029D01*
X0032798Y0173045D01*
X0032855Y0173065D01*
X0032910Y0173088D01*
X0032965Y0173115D01*
X0033017Y0173144D01*
X0033068Y0173177D01*
X0033117Y0173213D01*
X0033163Y0173251D01*
X0033207Y0173293D01*
X0033249Y0173337D01*
X0033287Y0173383D01*
X0033323Y0173432D01*
X0033356Y0173483D01*
X0033385Y0173535D01*
X0033412Y0173590D01*
X0033435Y0173645D01*
X0033455Y0173702D01*
X0033471Y0173761D01*
X0033484Y0173820D01*
X0033493Y0173879D01*
X0033498Y0173940D01*
X0033500Y0174000D01*
X0035000Y0171500D02*
X0018000Y0171500D01*
X0017940Y0171498D01*
X0017879Y0171493D01*
X0017820Y0171484D01*
X0017761Y0171471D01*
X0017702Y0171455D01*
X0017645Y0171435D01*
X0017590Y0171412D01*
X0017535Y0171385D01*
X0017483Y0171356D01*
X0017432Y0171323D01*
X0017383Y0171287D01*
X0017337Y0171249D01*
X0017293Y0171207D01*
X0017251Y0171163D01*
X0017213Y0171117D01*
X0017177Y0171068D01*
X0017144Y0171017D01*
X0017115Y0170965D01*
X0017088Y0170910D01*
X0017065Y0170855D01*
X0017045Y0170798D01*
X0017029Y0170739D01*
X0017016Y0170680D01*
X0017007Y0170621D01*
X0017002Y0170560D01*
X0017000Y0170500D01*
X0017000Y0162500D01*
X0017002Y0162440D01*
X0017007Y0162379D01*
X0017016Y0162320D01*
X0017029Y0162261D01*
X0017045Y0162202D01*
X0017065Y0162145D01*
X0017088Y0162090D01*
X0017115Y0162035D01*
X0017144Y0161983D01*
X0017177Y0161932D01*
X0017213Y0161883D01*
X0017251Y0161837D01*
X0017293Y0161793D01*
X0017337Y0161751D01*
X0017383Y0161713D01*
X0017432Y0161677D01*
X0017483Y0161644D01*
X0017535Y0161615D01*
X0017590Y0161588D01*
X0017645Y0161565D01*
X0017702Y0161545D01*
X0017761Y0161529D01*
X0017820Y0161516D01*
X0017879Y0161507D01*
X0017940Y0161502D01*
X0018000Y0161500D01*
X0035000Y0161500D01*
X0035060Y0161502D01*
X0035121Y0161507D01*
X0035180Y0161516D01*
X0035239Y0161529D01*
X0035298Y0161545D01*
X0035355Y0161565D01*
X0035410Y0161588D01*
X0035465Y0161615D01*
X0035517Y0161644D01*
X0035568Y0161677D01*
X0035617Y0161713D01*
X0035663Y0161751D01*
X0035707Y0161793D01*
X0035749Y0161837D01*
X0035787Y0161883D01*
X0035823Y0161932D01*
X0035856Y0161983D01*
X0035885Y0162035D01*
X0035912Y0162090D01*
X0035935Y0162145D01*
X0035955Y0162202D01*
X0035971Y0162261D01*
X0035984Y0162320D01*
X0035993Y0162379D01*
X0035998Y0162440D01*
X0036000Y0162500D01*
X0036000Y0170500D01*
X0035998Y0170560D01*
X0035993Y0170621D01*
X0035984Y0170680D01*
X0035971Y0170739D01*
X0035955Y0170798D01*
X0035935Y0170855D01*
X0035912Y0170910D01*
X0035885Y0170965D01*
X0035856Y0171017D01*
X0035823Y0171068D01*
X0035787Y0171117D01*
X0035749Y0171163D01*
X0035707Y0171207D01*
X0035663Y0171249D01*
X0035617Y0171287D01*
X0035568Y0171323D01*
X0035517Y0171356D01*
X0035465Y0171385D01*
X0035410Y0171412D01*
X0035355Y0171435D01*
X0035298Y0171455D01*
X0035239Y0171471D01*
X0035180Y0171484D01*
X0035121Y0171493D01*
X0035060Y0171498D01*
X0035000Y0171500D01*
X0033500Y0179000D02*
X0033498Y0179060D01*
X0033493Y0179121D01*
X0033484Y0179180D01*
X0033471Y0179239D01*
X0033455Y0179298D01*
X0033435Y0179355D01*
X0033412Y0179410D01*
X0033385Y0179465D01*
X0033356Y0179517D01*
X0033323Y0179568D01*
X0033287Y0179617D01*
X0033249Y0179663D01*
X0033207Y0179707D01*
X0033163Y0179749D01*
X0033117Y0179787D01*
X0033068Y0179823D01*
X0033017Y0179856D01*
X0032965Y0179885D01*
X0032910Y0179912D01*
X0032855Y0179935D01*
X0032798Y0179955D01*
X0032739Y0179971D01*
X0032680Y0179984D01*
X0032621Y0179993D01*
X0032560Y0179998D01*
X0032500Y0180000D01*
X0033500Y0189000D02*
X0033498Y0189060D01*
X0033493Y0189121D01*
X0033484Y0189180D01*
X0033471Y0189239D01*
X0033455Y0189298D01*
X0033435Y0189355D01*
X0033412Y0189410D01*
X0033385Y0189465D01*
X0033356Y0189517D01*
X0033323Y0189568D01*
X0033287Y0189617D01*
X0033249Y0189663D01*
X0033207Y0189707D01*
X0033163Y0189749D01*
X0033117Y0189787D01*
X0033068Y0189823D01*
X0033017Y0189856D01*
X0032965Y0189885D01*
X0032910Y0189912D01*
X0032855Y0189935D01*
X0032798Y0189955D01*
X0032739Y0189971D01*
X0032680Y0189984D01*
X0032621Y0189993D01*
X0032560Y0189998D01*
X0032500Y0190000D01*
X0033500Y0199000D02*
X0033498Y0199060D01*
X0033493Y0199121D01*
X0033484Y0199180D01*
X0033471Y0199239D01*
X0033455Y0199298D01*
X0033435Y0199355D01*
X0033412Y0199410D01*
X0033385Y0199465D01*
X0033356Y0199517D01*
X0033323Y0199568D01*
X0033287Y0199617D01*
X0033249Y0199663D01*
X0033207Y0199707D01*
X0033163Y0199749D01*
X0033117Y0199787D01*
X0033068Y0199823D01*
X0033017Y0199856D01*
X0032965Y0199885D01*
X0032910Y0199912D01*
X0032855Y0199935D01*
X0032798Y0199955D01*
X0032739Y0199971D01*
X0032680Y0199984D01*
X0032621Y0199993D01*
X0032560Y0199998D01*
X0032500Y0200000D01*
X0028000Y0166500D02*
X0027500Y0166500D01*
X0025500Y0166500D02*
X0025000Y0166500D01*
X0022500Y0161500D02*
X0022502Y0161374D01*
X0022508Y0161249D01*
X0022518Y0161124D01*
X0022532Y0160999D01*
X0022549Y0160874D01*
X0022571Y0160750D01*
X0022596Y0160627D01*
X0022626Y0160505D01*
X0022659Y0160384D01*
X0022696Y0160264D01*
X0022736Y0160145D01*
X0022781Y0160028D01*
X0022829Y0159911D01*
X0022881Y0159797D01*
X0022936Y0159684D01*
X0022995Y0159573D01*
X0023057Y0159464D01*
X0023123Y0159357D01*
X0023192Y0159252D01*
X0023264Y0159149D01*
X0023339Y0159048D01*
X0023418Y0158950D01*
X0023500Y0158855D01*
X0023584Y0158762D01*
X0023672Y0158672D01*
X0023762Y0158584D01*
X0023855Y0158500D01*
X0023950Y0158418D01*
X0024048Y0158339D01*
X0024149Y0158264D01*
X0024252Y0158192D01*
X0024357Y0158123D01*
X0024464Y0158057D01*
X0024573Y0157995D01*
X0024684Y0157936D01*
X0024797Y0157881D01*
X0024911Y0157829D01*
X0025028Y0157781D01*
X0025145Y0157736D01*
X0025264Y0157696D01*
X0025384Y0157659D01*
X0025505Y0157626D01*
X0025627Y0157596D01*
X0025750Y0157571D01*
X0025874Y0157549D01*
X0025999Y0157532D01*
X0026124Y0157518D01*
X0026249Y0157508D01*
X0026374Y0157502D01*
X0026500Y0157500D01*
X0026626Y0157502D01*
X0026751Y0157508D01*
X0026876Y0157518D01*
X0027001Y0157532D01*
X0027126Y0157549D01*
X0027250Y0157571D01*
X0027373Y0157596D01*
X0027495Y0157626D01*
X0027616Y0157659D01*
X0027736Y0157696D01*
X0027855Y0157736D01*
X0027972Y0157781D01*
X0028089Y0157829D01*
X0028203Y0157881D01*
X0028316Y0157936D01*
X0028427Y0157995D01*
X0028536Y0158057D01*
X0028643Y0158123D01*
X0028748Y0158192D01*
X0028851Y0158264D01*
X0028952Y0158339D01*
X0029050Y0158418D01*
X0029145Y0158500D01*
X0029238Y0158584D01*
X0029328Y0158672D01*
X0029416Y0158762D01*
X0029500Y0158855D01*
X0029582Y0158950D01*
X0029661Y0159048D01*
X0029736Y0159149D01*
X0029808Y0159252D01*
X0029877Y0159357D01*
X0029943Y0159464D01*
X0030005Y0159573D01*
X0030064Y0159684D01*
X0030119Y0159797D01*
X0030171Y0159911D01*
X0030219Y0160028D01*
X0030264Y0160145D01*
X0030304Y0160264D01*
X0030341Y0160384D01*
X0030374Y0160505D01*
X0030404Y0160627D01*
X0030429Y0160750D01*
X0030451Y0160874D01*
X0030468Y0160999D01*
X0030482Y0161124D01*
X0030492Y0161249D01*
X0030498Y0161374D01*
X0030500Y0161500D01*
X0038000Y0161500D01*
X0038000Y0091500D01*
X0015000Y0091500D01*
X0015000Y0161500D01*
X0022500Y0161500D01*
X0045500Y0085000D02*
X0046500Y0085000D01*
X0047000Y0084500D01*
X0056000Y0084500D01*
X0056500Y0085000D01*
X0057500Y0085000D01*
X0057560Y0084998D01*
X0057621Y0084993D01*
X0057680Y0084984D01*
X0057739Y0084971D01*
X0057798Y0084955D01*
X0057855Y0084935D01*
X0057910Y0084912D01*
X0057965Y0084885D01*
X0058017Y0084856D01*
X0058068Y0084823D01*
X0058117Y0084787D01*
X0058163Y0084749D01*
X0058207Y0084707D01*
X0058249Y0084663D01*
X0058287Y0084617D01*
X0058323Y0084568D01*
X0058356Y0084517D01*
X0058385Y0084465D01*
X0058412Y0084410D01*
X0058435Y0084355D01*
X0058455Y0084298D01*
X0058471Y0084239D01*
X0058484Y0084180D01*
X0058493Y0084121D01*
X0058498Y0084060D01*
X0058500Y0084000D01*
X0058500Y0079000D02*
X0058498Y0078940D01*
X0058493Y0078879D01*
X0058484Y0078820D01*
X0058471Y0078761D01*
X0058455Y0078702D01*
X0058435Y0078645D01*
X0058412Y0078590D01*
X0058385Y0078535D01*
X0058356Y0078483D01*
X0058323Y0078432D01*
X0058287Y0078383D01*
X0058249Y0078337D01*
X0058207Y0078293D01*
X0058163Y0078251D01*
X0058117Y0078213D01*
X0058068Y0078177D01*
X0058017Y0078144D01*
X0057965Y0078115D01*
X0057910Y0078088D01*
X0057855Y0078065D01*
X0057798Y0078045D01*
X0057739Y0078029D01*
X0057680Y0078016D01*
X0057621Y0078007D01*
X0057560Y0078002D01*
X0057500Y0078000D01*
X0056500Y0078000D01*
X0056000Y0078500D01*
X0047000Y0078500D01*
X0046500Y0078000D01*
X0045500Y0078000D01*
X0045440Y0078002D01*
X0045379Y0078007D01*
X0045320Y0078016D01*
X0045261Y0078029D01*
X0045202Y0078045D01*
X0045145Y0078065D01*
X0045090Y0078088D01*
X0045035Y0078115D01*
X0044983Y0078144D01*
X0044932Y0078177D01*
X0044883Y0078213D01*
X0044837Y0078251D01*
X0044793Y0078293D01*
X0044751Y0078337D01*
X0044713Y0078383D01*
X0044677Y0078432D01*
X0044644Y0078483D01*
X0044615Y0078535D01*
X0044588Y0078590D01*
X0044565Y0078645D01*
X0044545Y0078702D01*
X0044529Y0078761D01*
X0044516Y0078820D01*
X0044507Y0078879D01*
X0044502Y0078940D01*
X0044500Y0079000D01*
X0044500Y0084000D02*
X0044502Y0084060D01*
X0044507Y0084121D01*
X0044516Y0084180D01*
X0044529Y0084239D01*
X0044545Y0084298D01*
X0044565Y0084355D01*
X0044588Y0084410D01*
X0044615Y0084465D01*
X0044644Y0084517D01*
X0044677Y0084568D01*
X0044713Y0084617D01*
X0044751Y0084663D01*
X0044793Y0084707D01*
X0044837Y0084749D01*
X0044883Y0084787D01*
X0044932Y0084823D01*
X0044983Y0084856D01*
X0045035Y0084885D01*
X0045090Y0084912D01*
X0045145Y0084935D01*
X0045202Y0084955D01*
X0045261Y0084971D01*
X0045320Y0084984D01*
X0045379Y0084993D01*
X0045440Y0084998D01*
X0045500Y0085000D01*
X0050000Y0076500D02*
X0057500Y0076500D01*
X0057502Y0076374D01*
X0057508Y0076249D01*
X0057518Y0076124D01*
X0057532Y0075999D01*
X0057549Y0075874D01*
X0057571Y0075750D01*
X0057596Y0075627D01*
X0057626Y0075505D01*
X0057659Y0075384D01*
X0057696Y0075264D01*
X0057736Y0075145D01*
X0057781Y0075028D01*
X0057829Y0074911D01*
X0057881Y0074797D01*
X0057936Y0074684D01*
X0057995Y0074573D01*
X0058057Y0074464D01*
X0058123Y0074357D01*
X0058192Y0074252D01*
X0058264Y0074149D01*
X0058339Y0074048D01*
X0058418Y0073950D01*
X0058500Y0073855D01*
X0058584Y0073762D01*
X0058672Y0073672D01*
X0058762Y0073584D01*
X0058855Y0073500D01*
X0058950Y0073418D01*
X0059048Y0073339D01*
X0059149Y0073264D01*
X0059252Y0073192D01*
X0059357Y0073123D01*
X0059464Y0073057D01*
X0059573Y0072995D01*
X0059684Y0072936D01*
X0059797Y0072881D01*
X0059911Y0072829D01*
X0060028Y0072781D01*
X0060145Y0072736D01*
X0060264Y0072696D01*
X0060384Y0072659D01*
X0060505Y0072626D01*
X0060627Y0072596D01*
X0060750Y0072571D01*
X0060874Y0072549D01*
X0060999Y0072532D01*
X0061124Y0072518D01*
X0061249Y0072508D01*
X0061374Y0072502D01*
X0061500Y0072500D01*
X0061626Y0072502D01*
X0061751Y0072508D01*
X0061876Y0072518D01*
X0062001Y0072532D01*
X0062126Y0072549D01*
X0062250Y0072571D01*
X0062373Y0072596D01*
X0062495Y0072626D01*
X0062616Y0072659D01*
X0062736Y0072696D01*
X0062855Y0072736D01*
X0062972Y0072781D01*
X0063089Y0072829D01*
X0063203Y0072881D01*
X0063316Y0072936D01*
X0063427Y0072995D01*
X0063536Y0073057D01*
X0063643Y0073123D01*
X0063748Y0073192D01*
X0063851Y0073264D01*
X0063952Y0073339D01*
X0064050Y0073418D01*
X0064145Y0073500D01*
X0064238Y0073584D01*
X0064328Y0073672D01*
X0064416Y0073762D01*
X0064500Y0073855D01*
X0064582Y0073950D01*
X0064661Y0074048D01*
X0064736Y0074149D01*
X0064808Y0074252D01*
X0064877Y0074357D01*
X0064943Y0074464D01*
X0065005Y0074573D01*
X0065064Y0074684D01*
X0065119Y0074797D01*
X0065171Y0074911D01*
X0065219Y0075028D01*
X0065264Y0075145D01*
X0065304Y0075264D01*
X0065341Y0075384D01*
X0065374Y0075505D01*
X0065404Y0075627D01*
X0065429Y0075750D01*
X0065451Y0075874D01*
X0065468Y0075999D01*
X0065482Y0076124D01*
X0065492Y0076249D01*
X0065498Y0076374D01*
X0065500Y0076500D01*
X0073000Y0076500D01*
X0073000Y0036500D01*
X0050000Y0036500D01*
X0050000Y0076500D01*
X0060000Y0091500D02*
X0083000Y0091500D01*
X0083000Y0131500D01*
X0075500Y0131500D01*
X0073000Y0136500D02*
X0072500Y0136500D01*
X0070500Y0136500D02*
X0070000Y0136500D01*
X0067500Y0131500D02*
X0067502Y0131374D01*
X0067508Y0131249D01*
X0067518Y0131124D01*
X0067532Y0130999D01*
X0067549Y0130874D01*
X0067571Y0130750D01*
X0067596Y0130627D01*
X0067626Y0130505D01*
X0067659Y0130384D01*
X0067696Y0130264D01*
X0067736Y0130145D01*
X0067781Y0130028D01*
X0067829Y0129911D01*
X0067881Y0129797D01*
X0067936Y0129684D01*
X0067995Y0129573D01*
X0068057Y0129464D01*
X0068123Y0129357D01*
X0068192Y0129252D01*
X0068264Y0129149D01*
X0068339Y0129048D01*
X0068418Y0128950D01*
X0068500Y0128855D01*
X0068584Y0128762D01*
X0068672Y0128672D01*
X0068762Y0128584D01*
X0068855Y0128500D01*
X0068950Y0128418D01*
X0069048Y0128339D01*
X0069149Y0128264D01*
X0069252Y0128192D01*
X0069357Y0128123D01*
X0069464Y0128057D01*
X0069573Y0127995D01*
X0069684Y0127936D01*
X0069797Y0127881D01*
X0069911Y0127829D01*
X0070028Y0127781D01*
X0070145Y0127736D01*
X0070264Y0127696D01*
X0070384Y0127659D01*
X0070505Y0127626D01*
X0070627Y0127596D01*
X0070750Y0127571D01*
X0070874Y0127549D01*
X0070999Y0127532D01*
X0071124Y0127518D01*
X0071249Y0127508D01*
X0071374Y0127502D01*
X0071500Y0127500D01*
X0071626Y0127502D01*
X0071751Y0127508D01*
X0071876Y0127518D01*
X0072001Y0127532D01*
X0072126Y0127549D01*
X0072250Y0127571D01*
X0072373Y0127596D01*
X0072495Y0127626D01*
X0072616Y0127659D01*
X0072736Y0127696D01*
X0072855Y0127736D01*
X0072972Y0127781D01*
X0073089Y0127829D01*
X0073203Y0127881D01*
X0073316Y0127936D01*
X0073427Y0127995D01*
X0073536Y0128057D01*
X0073643Y0128123D01*
X0073748Y0128192D01*
X0073851Y0128264D01*
X0073952Y0128339D01*
X0074050Y0128418D01*
X0074145Y0128500D01*
X0074238Y0128584D01*
X0074328Y0128672D01*
X0074416Y0128762D01*
X0074500Y0128855D01*
X0074582Y0128950D01*
X0074661Y0129048D01*
X0074736Y0129149D01*
X0074808Y0129252D01*
X0074877Y0129357D01*
X0074943Y0129464D01*
X0075005Y0129573D01*
X0075064Y0129684D01*
X0075119Y0129797D01*
X0075171Y0129911D01*
X0075219Y0130028D01*
X0075264Y0130145D01*
X0075304Y0130264D01*
X0075341Y0130384D01*
X0075374Y0130505D01*
X0075404Y0130627D01*
X0075429Y0130750D01*
X0075451Y0130874D01*
X0075468Y0130999D01*
X0075482Y0131124D01*
X0075492Y0131249D01*
X0075498Y0131374D01*
X0075500Y0131500D01*
X0080000Y0131500D02*
X0063000Y0131500D01*
X0062940Y0131502D01*
X0062879Y0131507D01*
X0062820Y0131516D01*
X0062761Y0131529D01*
X0062702Y0131545D01*
X0062645Y0131565D01*
X0062590Y0131588D01*
X0062535Y0131615D01*
X0062483Y0131644D01*
X0062432Y0131677D01*
X0062383Y0131713D01*
X0062337Y0131751D01*
X0062293Y0131793D01*
X0062251Y0131837D01*
X0062213Y0131883D01*
X0062177Y0131932D01*
X0062144Y0131983D01*
X0062115Y0132035D01*
X0062088Y0132090D01*
X0062065Y0132145D01*
X0062045Y0132202D01*
X0062029Y0132261D01*
X0062016Y0132320D01*
X0062007Y0132379D01*
X0062002Y0132440D01*
X0062000Y0132500D01*
X0062000Y0140500D01*
X0062002Y0140560D01*
X0062007Y0140621D01*
X0062016Y0140680D01*
X0062029Y0140739D01*
X0062045Y0140798D01*
X0062065Y0140855D01*
X0062088Y0140910D01*
X0062115Y0140965D01*
X0062144Y0141017D01*
X0062177Y0141068D01*
X0062213Y0141117D01*
X0062251Y0141163D01*
X0062293Y0141207D01*
X0062337Y0141249D01*
X0062383Y0141287D01*
X0062432Y0141323D01*
X0062483Y0141356D01*
X0062535Y0141385D01*
X0062590Y0141412D01*
X0062645Y0141435D01*
X0062702Y0141455D01*
X0062761Y0141471D01*
X0062820Y0141484D01*
X0062879Y0141493D01*
X0062940Y0141498D01*
X0063000Y0141500D01*
X0080000Y0141500D01*
X0080060Y0141498D01*
X0080121Y0141493D01*
X0080180Y0141484D01*
X0080239Y0141471D01*
X0080298Y0141455D01*
X0080355Y0141435D01*
X0080410Y0141412D01*
X0080465Y0141385D01*
X0080517Y0141356D01*
X0080568Y0141323D01*
X0080617Y0141287D01*
X0080663Y0141249D01*
X0080707Y0141207D01*
X0080749Y0141163D01*
X0080787Y0141117D01*
X0080823Y0141068D01*
X0080856Y0141017D01*
X0080885Y0140965D01*
X0080912Y0140910D01*
X0080935Y0140855D01*
X0080955Y0140798D01*
X0080971Y0140739D01*
X0080984Y0140680D01*
X0080993Y0140621D01*
X0080998Y0140560D01*
X0081000Y0140500D01*
X0081000Y0132500D01*
X0080998Y0132440D01*
X0080993Y0132379D01*
X0080984Y0132320D01*
X0080971Y0132261D01*
X0080955Y0132202D01*
X0080935Y0132145D01*
X0080912Y0132090D01*
X0080885Y0132035D01*
X0080856Y0131983D01*
X0080823Y0131932D01*
X0080787Y0131883D01*
X0080749Y0131837D01*
X0080707Y0131793D01*
X0080663Y0131751D01*
X0080617Y0131713D01*
X0080568Y0131677D01*
X0080517Y0131644D01*
X0080465Y0131615D01*
X0080410Y0131588D01*
X0080355Y0131565D01*
X0080298Y0131545D01*
X0080239Y0131529D01*
X0080180Y0131516D01*
X0080121Y0131507D01*
X0080060Y0131502D01*
X0080000Y0131500D01*
X0083000Y0146500D02*
X0060000Y0146500D01*
X0060000Y0186500D01*
X0067500Y0186500D01*
X0070000Y0191500D02*
X0070500Y0191500D01*
X0067500Y0186500D02*
X0067502Y0186374D01*
X0067508Y0186249D01*
X0067518Y0186124D01*
X0067532Y0185999D01*
X0067549Y0185874D01*
X0067571Y0185750D01*
X0067596Y0185627D01*
X0067626Y0185505D01*
X0067659Y0185384D01*
X0067696Y0185264D01*
X0067736Y0185145D01*
X0067781Y0185028D01*
X0067829Y0184911D01*
X0067881Y0184797D01*
X0067936Y0184684D01*
X0067995Y0184573D01*
X0068057Y0184464D01*
X0068123Y0184357D01*
X0068192Y0184252D01*
X0068264Y0184149D01*
X0068339Y0184048D01*
X0068418Y0183950D01*
X0068500Y0183855D01*
X0068584Y0183762D01*
X0068672Y0183672D01*
X0068762Y0183584D01*
X0068855Y0183500D01*
X0068950Y0183418D01*
X0069048Y0183339D01*
X0069149Y0183264D01*
X0069252Y0183192D01*
X0069357Y0183123D01*
X0069464Y0183057D01*
X0069573Y0182995D01*
X0069684Y0182936D01*
X0069797Y0182881D01*
X0069911Y0182829D01*
X0070028Y0182781D01*
X0070145Y0182736D01*
X0070264Y0182696D01*
X0070384Y0182659D01*
X0070505Y0182626D01*
X0070627Y0182596D01*
X0070750Y0182571D01*
X0070874Y0182549D01*
X0070999Y0182532D01*
X0071124Y0182518D01*
X0071249Y0182508D01*
X0071374Y0182502D01*
X0071500Y0182500D01*
X0071626Y0182502D01*
X0071751Y0182508D01*
X0071876Y0182518D01*
X0072001Y0182532D01*
X0072126Y0182549D01*
X0072250Y0182571D01*
X0072373Y0182596D01*
X0072495Y0182626D01*
X0072616Y0182659D01*
X0072736Y0182696D01*
X0072855Y0182736D01*
X0072972Y0182781D01*
X0073089Y0182829D01*
X0073203Y0182881D01*
X0073316Y0182936D01*
X0073427Y0182995D01*
X0073536Y0183057D01*
X0073643Y0183123D01*
X0073748Y0183192D01*
X0073851Y0183264D01*
X0073952Y0183339D01*
X0074050Y0183418D01*
X0074145Y0183500D01*
X0074238Y0183584D01*
X0074328Y0183672D01*
X0074416Y0183762D01*
X0074500Y0183855D01*
X0074582Y0183950D01*
X0074661Y0184048D01*
X0074736Y0184149D01*
X0074808Y0184252D01*
X0074877Y0184357D01*
X0074943Y0184464D01*
X0075005Y0184573D01*
X0075064Y0184684D01*
X0075119Y0184797D01*
X0075171Y0184911D01*
X0075219Y0185028D01*
X0075264Y0185145D01*
X0075304Y0185264D01*
X0075341Y0185384D01*
X0075374Y0185505D01*
X0075404Y0185627D01*
X0075429Y0185750D01*
X0075451Y0185874D01*
X0075468Y0185999D01*
X0075482Y0186124D01*
X0075492Y0186249D01*
X0075498Y0186374D01*
X0075500Y0186500D01*
X0083000Y0186500D01*
X0083000Y0146500D01*
X0080000Y0186500D02*
X0063000Y0186500D01*
X0062940Y0186502D01*
X0062879Y0186507D01*
X0062820Y0186516D01*
X0062761Y0186529D01*
X0062702Y0186545D01*
X0062645Y0186565D01*
X0062590Y0186588D01*
X0062535Y0186615D01*
X0062483Y0186644D01*
X0062432Y0186677D01*
X0062383Y0186713D01*
X0062337Y0186751D01*
X0062293Y0186793D01*
X0062251Y0186837D01*
X0062213Y0186883D01*
X0062177Y0186932D01*
X0062144Y0186983D01*
X0062115Y0187035D01*
X0062088Y0187090D01*
X0062065Y0187145D01*
X0062045Y0187202D01*
X0062029Y0187261D01*
X0062016Y0187320D01*
X0062007Y0187379D01*
X0062002Y0187440D01*
X0062000Y0187500D01*
X0062000Y0195500D01*
X0062002Y0195560D01*
X0062007Y0195621D01*
X0062016Y0195680D01*
X0062029Y0195739D01*
X0062045Y0195798D01*
X0062065Y0195855D01*
X0062088Y0195910D01*
X0062115Y0195965D01*
X0062144Y0196017D01*
X0062177Y0196068D01*
X0062213Y0196117D01*
X0062251Y0196163D01*
X0062293Y0196207D01*
X0062337Y0196249D01*
X0062383Y0196287D01*
X0062432Y0196323D01*
X0062483Y0196356D01*
X0062535Y0196385D01*
X0062590Y0196412D01*
X0062645Y0196435D01*
X0062702Y0196455D01*
X0062761Y0196471D01*
X0062820Y0196484D01*
X0062879Y0196493D01*
X0062940Y0196498D01*
X0063000Y0196500D01*
X0080000Y0196500D01*
X0080060Y0196498D01*
X0080121Y0196493D01*
X0080180Y0196484D01*
X0080239Y0196471D01*
X0080298Y0196455D01*
X0080355Y0196435D01*
X0080410Y0196412D01*
X0080465Y0196385D01*
X0080517Y0196356D01*
X0080568Y0196323D01*
X0080617Y0196287D01*
X0080663Y0196249D01*
X0080707Y0196207D01*
X0080749Y0196163D01*
X0080787Y0196117D01*
X0080823Y0196068D01*
X0080856Y0196017D01*
X0080885Y0195965D01*
X0080912Y0195910D01*
X0080935Y0195855D01*
X0080955Y0195798D01*
X0080971Y0195739D01*
X0080984Y0195680D01*
X0080993Y0195621D01*
X0080998Y0195560D01*
X0081000Y0195500D01*
X0081000Y0187500D01*
X0080998Y0187440D01*
X0080993Y0187379D01*
X0080984Y0187320D01*
X0080971Y0187261D01*
X0080955Y0187202D01*
X0080935Y0187145D01*
X0080912Y0187090D01*
X0080885Y0187035D01*
X0080856Y0186983D01*
X0080823Y0186932D01*
X0080787Y0186883D01*
X0080749Y0186837D01*
X0080707Y0186793D01*
X0080663Y0186751D01*
X0080617Y0186713D01*
X0080568Y0186677D01*
X0080517Y0186644D01*
X0080465Y0186615D01*
X0080410Y0186588D01*
X0080355Y0186565D01*
X0080298Y0186545D01*
X0080239Y0186529D01*
X0080180Y0186516D01*
X0080121Y0186507D01*
X0080060Y0186502D01*
X0080000Y0186500D01*
X0073000Y0191500D02*
X0072500Y0191500D01*
X0067500Y0131500D02*
X0060000Y0131500D01*
X0060000Y0091500D01*
X0067000Y0085500D02*
X0067000Y0077500D01*
X0067002Y0077440D01*
X0067007Y0077379D01*
X0067016Y0077320D01*
X0067029Y0077261D01*
X0067045Y0077202D01*
X0067065Y0077145D01*
X0067088Y0077090D01*
X0067115Y0077035D01*
X0067144Y0076983D01*
X0067177Y0076932D01*
X0067213Y0076883D01*
X0067251Y0076837D01*
X0067293Y0076793D01*
X0067337Y0076751D01*
X0067383Y0076713D01*
X0067432Y0076677D01*
X0067483Y0076644D01*
X0067535Y0076615D01*
X0067590Y0076588D01*
X0067645Y0076565D01*
X0067702Y0076545D01*
X0067761Y0076529D01*
X0067820Y0076516D01*
X0067879Y0076507D01*
X0067940Y0076502D01*
X0068000Y0076500D01*
X0085000Y0076500D01*
X0085060Y0076502D01*
X0085121Y0076507D01*
X0085180Y0076516D01*
X0085239Y0076529D01*
X0085298Y0076545D01*
X0085355Y0076565D01*
X0085410Y0076588D01*
X0085465Y0076615D01*
X0085517Y0076644D01*
X0085568Y0076677D01*
X0085617Y0076713D01*
X0085663Y0076751D01*
X0085707Y0076793D01*
X0085749Y0076837D01*
X0085787Y0076883D01*
X0085823Y0076932D01*
X0085856Y0076983D01*
X0085885Y0077035D01*
X0085912Y0077090D01*
X0085935Y0077145D01*
X0085955Y0077202D01*
X0085971Y0077261D01*
X0085984Y0077320D01*
X0085993Y0077379D01*
X0085998Y0077440D01*
X0086000Y0077500D01*
X0086000Y0085500D01*
X0085998Y0085560D01*
X0085993Y0085621D01*
X0085984Y0085680D01*
X0085971Y0085739D01*
X0085955Y0085798D01*
X0085935Y0085855D01*
X0085912Y0085910D01*
X0085885Y0085965D01*
X0085856Y0086017D01*
X0085823Y0086068D01*
X0085787Y0086117D01*
X0085749Y0086163D01*
X0085707Y0086207D01*
X0085663Y0086249D01*
X0085617Y0086287D01*
X0085568Y0086323D01*
X0085517Y0086356D01*
X0085465Y0086385D01*
X0085410Y0086412D01*
X0085355Y0086435D01*
X0085298Y0086455D01*
X0085239Y0086471D01*
X0085180Y0086484D01*
X0085121Y0086493D01*
X0085060Y0086498D01*
X0085000Y0086500D01*
X0068000Y0086500D01*
X0067940Y0086498D01*
X0067879Y0086493D01*
X0067820Y0086484D01*
X0067761Y0086471D01*
X0067702Y0086455D01*
X0067645Y0086435D01*
X0067590Y0086412D01*
X0067535Y0086385D01*
X0067483Y0086356D01*
X0067432Y0086323D01*
X0067383Y0086287D01*
X0067337Y0086249D01*
X0067293Y0086207D01*
X0067251Y0086163D01*
X0067213Y0086117D01*
X0067177Y0086068D01*
X0067144Y0086017D01*
X0067115Y0085965D01*
X0067088Y0085910D01*
X0067065Y0085855D01*
X0067045Y0085798D01*
X0067029Y0085739D01*
X0067016Y0085680D01*
X0067007Y0085621D01*
X0067002Y0085560D01*
X0067000Y0085500D01*
X0075000Y0081500D02*
X0075500Y0081500D01*
X0077500Y0081500D02*
X0078000Y0081500D01*
X0057500Y0035000D02*
X0056500Y0035000D01*
X0056000Y0034500D01*
X0047000Y0034500D01*
X0046500Y0035000D01*
X0045500Y0035000D01*
X0045440Y0034998D01*
X0045379Y0034993D01*
X0045320Y0034984D01*
X0045261Y0034971D01*
X0045202Y0034955D01*
X0045145Y0034935D01*
X0045090Y0034912D01*
X0045035Y0034885D01*
X0044983Y0034856D01*
X0044932Y0034823D01*
X0044883Y0034787D01*
X0044837Y0034749D01*
X0044793Y0034707D01*
X0044751Y0034663D01*
X0044713Y0034617D01*
X0044677Y0034568D01*
X0044644Y0034517D01*
X0044615Y0034465D01*
X0044588Y0034410D01*
X0044565Y0034355D01*
X0044545Y0034298D01*
X0044529Y0034239D01*
X0044516Y0034180D01*
X0044507Y0034121D01*
X0044502Y0034060D01*
X0044500Y0034000D01*
X0044500Y0029000D02*
X0044502Y0028940D01*
X0044507Y0028879D01*
X0044516Y0028820D01*
X0044529Y0028761D01*
X0044545Y0028702D01*
X0044565Y0028645D01*
X0044588Y0028590D01*
X0044615Y0028535D01*
X0044644Y0028483D01*
X0044677Y0028432D01*
X0044713Y0028383D01*
X0044751Y0028337D01*
X0044793Y0028293D01*
X0044837Y0028251D01*
X0044883Y0028213D01*
X0044932Y0028177D01*
X0044983Y0028144D01*
X0045035Y0028115D01*
X0045090Y0028088D01*
X0045145Y0028065D01*
X0045202Y0028045D01*
X0045261Y0028029D01*
X0045320Y0028016D01*
X0045379Y0028007D01*
X0045440Y0028002D01*
X0045500Y0028000D01*
X0046500Y0028000D01*
X0047000Y0028500D01*
X0056000Y0028500D01*
X0056500Y0028000D01*
X0057500Y0028000D01*
X0057560Y0028002D01*
X0057621Y0028007D01*
X0057680Y0028016D01*
X0057739Y0028029D01*
X0057798Y0028045D01*
X0057855Y0028065D01*
X0057910Y0028088D01*
X0057965Y0028115D01*
X0058017Y0028144D01*
X0058068Y0028177D01*
X0058117Y0028213D01*
X0058163Y0028251D01*
X0058207Y0028293D01*
X0058249Y0028337D01*
X0058287Y0028383D01*
X0058323Y0028432D01*
X0058356Y0028483D01*
X0058385Y0028535D01*
X0058412Y0028590D01*
X0058435Y0028645D01*
X0058455Y0028702D01*
X0058471Y0028761D01*
X0058484Y0028820D01*
X0058493Y0028879D01*
X0058498Y0028940D01*
X0058500Y0029000D01*
X0058500Y0034000D02*
X0058498Y0034060D01*
X0058493Y0034121D01*
X0058484Y0034180D01*
X0058471Y0034239D01*
X0058455Y0034298D01*
X0058435Y0034355D01*
X0058412Y0034410D01*
X0058385Y0034465D01*
X0058356Y0034517D01*
X0058323Y0034568D01*
X0058287Y0034617D01*
X0058249Y0034663D01*
X0058207Y0034707D01*
X0058163Y0034749D01*
X0058117Y0034787D01*
X0058068Y0034823D01*
X0058017Y0034856D01*
X0057965Y0034885D01*
X0057910Y0034912D01*
X0057855Y0034935D01*
X0057798Y0034955D01*
X0057739Y0034971D01*
X0057680Y0034984D01*
X0057621Y0034993D01*
X0057560Y0034998D01*
X0057500Y0035000D01*
X0057500Y0025000D02*
X0057500Y0018000D01*
X0045500Y0018000D01*
X0045500Y0025000D01*
X0057500Y0025000D01*
X0056500Y0021500D02*
X0051000Y0021500D01*
X0051000Y0019500D01*
X0051000Y0021500D02*
X0051000Y0023500D01*
X0051000Y0021500D02*
X0055000Y0023500D01*
X0055000Y0019500D01*
X0051000Y0021500D01*
X0049500Y0021500D01*
D12*
X0075500Y0078500D02*
X0075500Y0081500D01*
X0075500Y0084500D01*
X0077500Y0084500D02*
X0077500Y0081500D01*
X0077500Y0078500D01*
X0072500Y0133500D02*
X0072500Y0136500D01*
X0072500Y0139500D01*
X0070500Y0139500D02*
X0070500Y0136500D01*
X0070500Y0133500D01*
X0070500Y0188500D02*
X0070500Y0191500D01*
X0070500Y0194500D01*
X0072500Y0194500D02*
X0072500Y0191500D01*
X0072500Y0188500D01*
X0047500Y0228500D02*
X0047500Y0231500D01*
X0047500Y0234500D01*
X0045500Y0234500D02*
X0045500Y0231500D01*
X0045500Y0228500D01*
X0027500Y0169500D02*
X0027500Y0166500D01*
X0027500Y0163500D01*
X0025500Y0163500D02*
X0025500Y0166500D01*
X0025500Y0169500D01*
D13*
X0025494Y0153802D02*
X0025127Y0153435D01*
X0025127Y0151967D01*
X0025494Y0151600D01*
X0026228Y0151600D01*
X0026595Y0151967D01*
X0027337Y0151600D02*
X0028805Y0151600D01*
X0028071Y0151600D02*
X0028071Y0153802D01*
X0027337Y0153068D01*
X0026595Y0153435D02*
X0026228Y0153802D01*
X0025494Y0153802D01*
X0024387Y0153802D02*
X0023653Y0153802D01*
X0024020Y0153802D02*
X0024020Y0151600D01*
X0023653Y0151600D02*
X0024387Y0151600D01*
X0036967Y0166600D02*
X0037701Y0166600D01*
X0038068Y0166967D01*
X0038810Y0167701D02*
X0040278Y0167701D01*
X0039911Y0168802D02*
X0038810Y0167701D01*
X0038068Y0168435D02*
X0037701Y0168802D01*
X0036967Y0168802D01*
X0036600Y0168435D01*
X0036600Y0166967D01*
X0036967Y0166600D01*
X0039911Y0166600D02*
X0039911Y0168802D01*
X0041600Y0176600D02*
X0041600Y0178802D01*
X0042701Y0178802D01*
X0043068Y0178435D01*
X0043068Y0177701D01*
X0042701Y0177334D01*
X0041600Y0177334D01*
X0042334Y0177334D02*
X0043068Y0176600D01*
X0043810Y0176600D02*
X0045278Y0178068D01*
X0045278Y0178435D01*
X0044911Y0178802D01*
X0044177Y0178802D01*
X0043810Y0178435D01*
X0043810Y0176600D02*
X0045278Y0176600D01*
X0044911Y0186600D02*
X0044177Y0186600D01*
X0043810Y0186967D01*
X0043068Y0186600D02*
X0042334Y0187334D01*
X0042701Y0187334D02*
X0041600Y0187334D01*
X0041600Y0186600D02*
X0041600Y0188802D01*
X0042701Y0188802D01*
X0043068Y0188435D01*
X0043068Y0187701D01*
X0042701Y0187334D01*
X0043810Y0188435D02*
X0044177Y0188802D01*
X0044911Y0188802D01*
X0045278Y0188435D01*
X0045278Y0188068D01*
X0044911Y0187701D01*
X0045278Y0187334D01*
X0045278Y0186967D01*
X0044911Y0186600D01*
X0044911Y0187701D02*
X0044544Y0187701D01*
X0043810Y0196600D02*
X0043810Y0196967D01*
X0045278Y0198435D01*
X0045278Y0198802D01*
X0043810Y0198802D01*
X0043068Y0198435D02*
X0043068Y0197701D01*
X0042701Y0197334D01*
X0041600Y0197334D01*
X0042334Y0197334D02*
X0043068Y0196600D01*
X0043068Y0198435D02*
X0042701Y0198802D01*
X0041600Y0198802D01*
X0041600Y0196600D01*
X0056967Y0231600D02*
X0057701Y0231600D01*
X0058068Y0231967D01*
X0058810Y0231600D02*
X0060278Y0231600D01*
X0059544Y0231600D02*
X0059544Y0233802D01*
X0058810Y0233068D01*
X0058068Y0233435D02*
X0057701Y0233802D01*
X0056967Y0233802D01*
X0056600Y0233435D01*
X0056600Y0231967D01*
X0056967Y0231600D01*
X0061600Y0241600D02*
X0061600Y0243802D01*
X0062701Y0243802D01*
X0063068Y0243435D01*
X0063068Y0242701D01*
X0062701Y0242334D01*
X0061600Y0242334D01*
X0062334Y0242334D02*
X0063068Y0241600D01*
X0063810Y0241967D02*
X0064177Y0241600D01*
X0064911Y0241600D01*
X0065278Y0241967D01*
X0065278Y0242334D01*
X0064911Y0242701D01*
X0063810Y0242701D01*
X0063810Y0241967D01*
X0063810Y0242701D02*
X0064544Y0243435D01*
X0065278Y0243802D01*
X0065278Y0251600D02*
X0063810Y0251600D01*
X0064544Y0251600D02*
X0064544Y0253802D01*
X0063810Y0253068D01*
X0063068Y0253435D02*
X0063068Y0252701D01*
X0062701Y0252334D01*
X0061600Y0252334D01*
X0062334Y0252334D02*
X0063068Y0251600D01*
X0061600Y0251600D02*
X0061600Y0253802D01*
X0062701Y0253802D01*
X0063068Y0253435D01*
X0086967Y0193802D02*
X0086600Y0193435D01*
X0086600Y0191967D01*
X0086967Y0191600D01*
X0087701Y0191600D01*
X0088068Y0191967D01*
X0088810Y0191600D02*
X0090278Y0193068D01*
X0090278Y0193435D01*
X0089911Y0193802D01*
X0089177Y0193802D01*
X0088810Y0193435D01*
X0088068Y0193435D02*
X0087701Y0193802D01*
X0086967Y0193802D01*
X0088810Y0191600D02*
X0090278Y0191600D01*
X0073805Y0178435D02*
X0073438Y0178802D01*
X0072704Y0178802D01*
X0072337Y0178435D01*
X0071595Y0178435D02*
X0071228Y0178802D01*
X0070494Y0178802D01*
X0070127Y0178435D01*
X0070127Y0176967D01*
X0070494Y0176600D01*
X0071228Y0176600D01*
X0071595Y0176967D01*
X0072337Y0176600D02*
X0073805Y0178068D01*
X0073805Y0178435D01*
X0073805Y0176600D02*
X0072337Y0176600D01*
X0069387Y0176600D02*
X0068653Y0176600D01*
X0069020Y0176600D02*
X0069020Y0178802D01*
X0068653Y0178802D02*
X0069387Y0178802D01*
X0081967Y0138802D02*
X0081600Y0138435D01*
X0081600Y0136967D01*
X0081967Y0136600D01*
X0082701Y0136600D01*
X0083068Y0136967D01*
X0083810Y0136967D02*
X0084177Y0136600D01*
X0084911Y0136600D01*
X0085278Y0136967D01*
X0085278Y0137334D01*
X0084911Y0137701D01*
X0084544Y0137701D01*
X0084911Y0137701D02*
X0085278Y0138068D01*
X0085278Y0138435D01*
X0084911Y0138802D01*
X0084177Y0138802D01*
X0083810Y0138435D01*
X0083068Y0138435D02*
X0082701Y0138802D01*
X0081967Y0138802D01*
X0073438Y0123802D02*
X0073805Y0123435D01*
X0073805Y0123068D01*
X0073438Y0122701D01*
X0073805Y0122334D01*
X0073805Y0121967D01*
X0073438Y0121600D01*
X0072704Y0121600D01*
X0072337Y0121967D01*
X0071595Y0121967D02*
X0071228Y0121600D01*
X0070494Y0121600D01*
X0070127Y0121967D01*
X0070127Y0123435D01*
X0070494Y0123802D01*
X0071228Y0123802D01*
X0071595Y0123435D01*
X0072337Y0123435D02*
X0072704Y0123802D01*
X0073438Y0123802D01*
X0073438Y0122701D02*
X0073071Y0122701D01*
X0069387Y0123802D02*
X0068653Y0123802D01*
X0069020Y0123802D02*
X0069020Y0121600D01*
X0068653Y0121600D02*
X0069387Y0121600D01*
X0086967Y0083802D02*
X0086600Y0083435D01*
X0086600Y0081967D01*
X0086967Y0081600D01*
X0087701Y0081600D01*
X0088068Y0081967D01*
X0088810Y0081967D02*
X0089177Y0081600D01*
X0089911Y0081600D01*
X0090278Y0081967D01*
X0090278Y0082701D01*
X0089911Y0083068D01*
X0089544Y0083068D01*
X0088810Y0082701D01*
X0088810Y0083802D01*
X0090278Y0083802D01*
X0088068Y0083435D02*
X0087701Y0083802D01*
X0086967Y0083802D01*
X0069911Y0033802D02*
X0068810Y0032701D01*
X0070278Y0032701D01*
X0069911Y0031600D02*
X0069911Y0033802D01*
X0068068Y0033435D02*
X0068068Y0032701D01*
X0067701Y0032334D01*
X0066600Y0032334D01*
X0067334Y0032334D02*
X0068068Y0031600D01*
X0068068Y0033435D02*
X0067701Y0033802D01*
X0066600Y0033802D01*
X0066600Y0031600D01*
X0054544Y0013802D02*
X0054544Y0011600D01*
X0053810Y0011600D02*
X0055278Y0011600D01*
X0053810Y0013068D02*
X0054544Y0013802D01*
X0053068Y0013435D02*
X0052701Y0013802D01*
X0051600Y0013802D01*
X0051600Y0011600D01*
X0052701Y0011600D01*
X0053068Y0011967D01*
X0053068Y0013435D01*
X0058652Y0066600D02*
X0058285Y0066967D01*
X0058285Y0068435D01*
X0058652Y0068802D01*
X0059386Y0068802D01*
X0059753Y0068435D01*
X0059753Y0066967D01*
X0059386Y0066600D01*
X0058652Y0066600D01*
X0060495Y0066600D02*
X0060495Y0068802D01*
X0060862Y0067701D02*
X0061963Y0066600D01*
X0062705Y0066600D02*
X0064173Y0066600D01*
X0063439Y0066600D02*
X0063439Y0068802D01*
X0062705Y0068068D01*
X0061963Y0068802D02*
X0060495Y0067334D01*
X0035278Y0081967D02*
X0034911Y0081600D01*
X0034177Y0081600D01*
X0033810Y0081967D01*
X0033810Y0082701D02*
X0034544Y0083068D01*
X0034911Y0083068D01*
X0035278Y0082701D01*
X0035278Y0081967D01*
X0033810Y0082701D02*
X0033810Y0083802D01*
X0035278Y0083802D01*
X0033068Y0083435D02*
X0033068Y0082701D01*
X0032701Y0082334D01*
X0031600Y0082334D01*
X0032334Y0082334D02*
X0033068Y0081600D01*
X0031600Y0081600D02*
X0031600Y0083802D01*
X0032701Y0083802D01*
X0033068Y0083435D01*
D14*
X0047750Y0021500D03*
D15*
X0042750Y0021500D03*
X0060250Y0021500D03*
D16*
X0001500Y0025319D02*
X0001500Y0048547D01*
X0031421Y0048547D01*
X0031421Y0045988D01*
X0025122Y0045988D01*
X0025122Y0051500D02*
X0031421Y0051500D01*
X0031421Y0048941D01*
X0001500Y0048941D01*
X0001500Y0087917D01*
X0031421Y0087917D01*
X0031421Y0085358D01*
X0025122Y0085358D01*
X0025122Y0027878D02*
X0031421Y0027878D01*
X0031421Y0025319D01*
X0001500Y0025319D01*
X0001500Y0206421D02*
X0001500Y0237524D01*
X0031421Y0237524D01*
X0031421Y0234965D01*
X0025122Y0234965D01*
X0025122Y0240476D02*
X0031421Y0240476D01*
X0031421Y0237917D01*
X0001500Y0237917D01*
X0001500Y0261146D01*
X0031421Y0261146D01*
X0031421Y0258587D01*
X0025122Y0258587D01*
X0025122Y0208980D02*
X0031421Y0208980D01*
X0031421Y0206421D01*
X0001500Y0206421D01*
X0064098Y0206421D02*
X0064098Y0208980D01*
X0070398Y0208980D01*
X0064098Y0206421D02*
X0094020Y0206421D01*
X0094020Y0229650D01*
X0064098Y0229650D01*
X0064098Y0227091D01*
X0070398Y0227091D01*
X0070398Y0232602D02*
X0064098Y0232602D01*
X0064098Y0230043D01*
X0094020Y0230043D01*
X0094020Y0261146D01*
X0064098Y0261146D01*
X0064098Y0258587D01*
X0070398Y0258587D01*
D17*
X0085963Y0251900D02*
X0085963Y0250633D01*
X0085963Y0251266D02*
X0087864Y0251266D01*
X0087547Y0249690D02*
X0085963Y0249690D01*
X0085963Y0248423D02*
X0087547Y0248423D01*
X0087864Y0248740D01*
X0087864Y0249373D01*
X0087547Y0249690D01*
X0087547Y0247481D02*
X0086279Y0247481D01*
X0085963Y0247164D01*
X0085963Y0246530D01*
X0086279Y0246213D01*
X0087547Y0246213D01*
X0087864Y0246530D01*
X0087864Y0247164D01*
X0087547Y0247481D01*
X0087864Y0245373D02*
X0087864Y0244740D01*
X0087864Y0245056D02*
X0085963Y0245056D01*
X0085963Y0244740D02*
X0085963Y0245373D01*
X0086279Y0243797D02*
X0085963Y0243480D01*
X0085963Y0242530D01*
X0087864Y0242530D01*
X0087864Y0243480D01*
X0087547Y0243797D01*
X0086279Y0243797D01*
X0085963Y0241690D02*
X0085963Y0241056D01*
X0085963Y0241373D02*
X0087864Y0241373D01*
X0087864Y0241056D02*
X0087864Y0241690D01*
X0087864Y0240114D02*
X0085963Y0240114D01*
X0086596Y0239480D01*
X0085963Y0238847D01*
X0087864Y0238847D01*
X0087864Y0222868D02*
X0085963Y0222868D01*
X0085963Y0221600D02*
X0087864Y0222868D01*
X0087864Y0221600D02*
X0085963Y0221600D01*
X0085963Y0220761D02*
X0085963Y0220127D01*
X0085963Y0220444D02*
X0087864Y0220444D01*
X0087864Y0220127D02*
X0087864Y0220761D01*
X0087864Y0219288D02*
X0087864Y0218654D01*
X0087864Y0218971D02*
X0085963Y0218971D01*
X0085963Y0218654D02*
X0085963Y0219288D01*
X0086279Y0217712D02*
X0085963Y0217395D01*
X0085963Y0216444D01*
X0087864Y0216444D01*
X0087864Y0217395D01*
X0087547Y0217712D01*
X0086279Y0217712D01*
X0085963Y0215604D02*
X0085963Y0214971D01*
X0085963Y0215288D02*
X0087864Y0215288D01*
X0087864Y0215604D02*
X0087864Y0214971D01*
X0087864Y0214028D02*
X0085963Y0214028D01*
X0086596Y0213395D01*
X0085963Y0212761D01*
X0087864Y0212761D01*
X0009124Y0216329D02*
X0007222Y0216329D01*
X0007856Y0216963D01*
X0007222Y0217597D01*
X0009124Y0217597D01*
X0009124Y0218539D02*
X0009124Y0219173D01*
X0009124Y0218856D02*
X0007222Y0218856D01*
X0007222Y0218539D02*
X0007222Y0219173D01*
X0007222Y0220013D02*
X0007222Y0220963D01*
X0007539Y0221280D01*
X0008807Y0221280D01*
X0009124Y0220963D01*
X0009124Y0220013D01*
X0007222Y0220013D01*
X0007222Y0222222D02*
X0007222Y0222856D01*
X0007222Y0222539D02*
X0009124Y0222539D01*
X0009124Y0222222D02*
X0009124Y0222856D01*
X0009124Y0224330D02*
X0007222Y0224330D01*
X0007222Y0224963D02*
X0007222Y0223696D01*
X0007222Y0225906D02*
X0009124Y0227173D01*
X0009124Y0225906D02*
X0007222Y0227173D01*
X0007222Y0243888D02*
X0007856Y0244522D01*
X0007222Y0245156D01*
X0009124Y0245156D01*
X0009124Y0246098D02*
X0009124Y0246732D01*
X0009124Y0246415D02*
X0007222Y0246415D01*
X0007222Y0246098D02*
X0007222Y0246732D01*
X0007222Y0247572D02*
X0007222Y0248522D01*
X0007539Y0248839D01*
X0008807Y0248839D01*
X0009124Y0248522D01*
X0009124Y0247572D01*
X0007222Y0247572D01*
X0007222Y0249781D02*
X0007222Y0250415D01*
X0007222Y0250098D02*
X0009124Y0250098D01*
X0009124Y0249781D02*
X0009124Y0250415D01*
X0009124Y0251255D02*
X0007222Y0251255D01*
X0007222Y0252206D01*
X0007539Y0252522D01*
X0008173Y0252522D01*
X0008490Y0252206D01*
X0008490Y0251255D01*
X0008490Y0251889D02*
X0009124Y0252522D01*
X0009124Y0253465D02*
X0007222Y0254732D01*
X0007222Y0253465D02*
X0009124Y0254732D01*
X0009124Y0243888D02*
X0007222Y0243888D01*
X0007222Y0073262D02*
X0007222Y0071994D01*
X0007222Y0072628D02*
X0009124Y0072628D01*
X0009124Y0071052D02*
X0007222Y0071052D01*
X0007222Y0069784D02*
X0009124Y0071052D01*
X0009124Y0069784D02*
X0007222Y0069784D01*
X0007539Y0068842D02*
X0007222Y0068525D01*
X0007222Y0067891D01*
X0007539Y0067574D01*
X0008807Y0067574D01*
X0009124Y0067891D01*
X0009124Y0068525D01*
X0008807Y0068842D01*
X0007539Y0068842D01*
X0007539Y0066632D02*
X0008173Y0066632D01*
X0008490Y0066315D01*
X0008490Y0065364D01*
X0009124Y0065364D02*
X0007222Y0065364D01*
X0007222Y0066315D01*
X0007539Y0066632D01*
X0008490Y0065998D02*
X0009124Y0066632D01*
X0008173Y0063788D02*
X0008173Y0063154D01*
X0007222Y0063154D02*
X0007222Y0064422D01*
X0007222Y0063154D02*
X0009124Y0063154D01*
X0009124Y0039556D02*
X0008490Y0038922D01*
X0008490Y0039239D02*
X0008490Y0038288D01*
X0009124Y0038288D02*
X0007222Y0038288D01*
X0007222Y0039239D01*
X0007539Y0039556D01*
X0008173Y0039556D01*
X0008490Y0039239D01*
X0009124Y0037346D02*
X0008490Y0036712D01*
X0009124Y0036078D01*
X0007222Y0036078D01*
X0007539Y0035136D02*
X0008173Y0035136D01*
X0008490Y0034819D01*
X0008490Y0033868D01*
X0009124Y0033868D02*
X0007222Y0033868D01*
X0007222Y0034819D01*
X0007539Y0035136D01*
X0007222Y0037346D02*
X0009124Y0037346D01*
M02*
