%
M48
M72
T01C0.02756
T02C0.03200
T03C0.12598
%
T01
X27622Y32746
X27622Y40620
X27622Y56368
X27622Y64242
X27622Y72116
X27622Y79990
X27622Y213848
X27622Y221722
X27622Y229596
X27622Y245344
X27622Y253219
X70929Y253219
X70929Y245344
X70929Y237470
X70929Y221722
X70929Y213848
T02
X74000Y186250
X74000Y171250
X84000Y171250
X84000Y186250
X84000Y141250
X84000Y126250
X74000Y126250
X74000Y141250
X64000Y141250
X64000Y126250
X54000Y126250
X54000Y141250
X54000Y171250
X54000Y186250
X54000Y206250
X54000Y216250
X59000Y236250
X59000Y246250
X59000Y256250
X44000Y216250
X44000Y206250
X44000Y186250
X44000Y171250
X34000Y171250
X24000Y171250
X24000Y186250
X14000Y186250
X14000Y171250
X14000Y141250
X14000Y116250
X14000Y106250
X24000Y96250
X34000Y96250
X44000Y96250
X44000Y81250
X49000Y71250
X49000Y61250
X49000Y51250
X49000Y41250
X44000Y31250
X39000Y21250
X64000Y31250
X69000Y21250
X79000Y41250
X79000Y51250
X79000Y61250
X79000Y71250
X74000Y81250
X74000Y96250
X84000Y96250
X84000Y81250
X64000Y81250
X64000Y96250
X54000Y96250
X44000Y126250
X44000Y141250
X34000Y141250
X34000Y126250
X24000Y126250
X24000Y141250
X39000Y236250
X39000Y246250
X39000Y256250
X64000Y171250
T03
X15811Y13061
X82740Y13061
X82740Y272904
X15811Y272904
M30
