G75*
%MOIN*%
%OFA0B0*%
%FSLAX25Y25*%
%IPPOS*%
%LPD*%
%AMOC8*
5,1,8,0,0,1.08239X$1,22.5*
%
%ADD10C,0.00000*%
D10*
X0004000Y0001250D02*
X0004000Y0284715D01*
X0094551Y0284715D01*
X0094551Y0001250D01*
X0004000Y0001250D01*
X0009512Y0013061D02*
X0009514Y0013219D01*
X0009520Y0013377D01*
X0009530Y0013535D01*
X0009544Y0013693D01*
X0009562Y0013850D01*
X0009583Y0014007D01*
X0009609Y0014163D01*
X0009639Y0014319D01*
X0009672Y0014474D01*
X0009710Y0014627D01*
X0009751Y0014780D01*
X0009796Y0014932D01*
X0009845Y0015083D01*
X0009898Y0015232D01*
X0009954Y0015380D01*
X0010014Y0015526D01*
X0010078Y0015671D01*
X0010146Y0015814D01*
X0010217Y0015956D01*
X0010291Y0016096D01*
X0010369Y0016233D01*
X0010451Y0016369D01*
X0010535Y0016503D01*
X0010624Y0016634D01*
X0010715Y0016763D01*
X0010810Y0016890D01*
X0010907Y0017015D01*
X0011008Y0017137D01*
X0011112Y0017256D01*
X0011219Y0017373D01*
X0011329Y0017487D01*
X0011442Y0017598D01*
X0011557Y0017707D01*
X0011675Y0017812D01*
X0011796Y0017914D01*
X0011919Y0018014D01*
X0012045Y0018110D01*
X0012173Y0018203D01*
X0012303Y0018293D01*
X0012436Y0018379D01*
X0012571Y0018463D01*
X0012707Y0018542D01*
X0012846Y0018619D01*
X0012987Y0018691D01*
X0013129Y0018761D01*
X0013273Y0018826D01*
X0013419Y0018888D01*
X0013566Y0018946D01*
X0013715Y0019001D01*
X0013865Y0019052D01*
X0014016Y0019099D01*
X0014168Y0019142D01*
X0014321Y0019181D01*
X0014476Y0019217D01*
X0014631Y0019248D01*
X0014787Y0019276D01*
X0014943Y0019300D01*
X0015100Y0019320D01*
X0015258Y0019336D01*
X0015415Y0019348D01*
X0015574Y0019356D01*
X0015732Y0019360D01*
X0015890Y0019360D01*
X0016048Y0019356D01*
X0016207Y0019348D01*
X0016364Y0019336D01*
X0016522Y0019320D01*
X0016679Y0019300D01*
X0016835Y0019276D01*
X0016991Y0019248D01*
X0017146Y0019217D01*
X0017301Y0019181D01*
X0017454Y0019142D01*
X0017606Y0019099D01*
X0017757Y0019052D01*
X0017907Y0019001D01*
X0018056Y0018946D01*
X0018203Y0018888D01*
X0018349Y0018826D01*
X0018493Y0018761D01*
X0018635Y0018691D01*
X0018776Y0018619D01*
X0018915Y0018542D01*
X0019051Y0018463D01*
X0019186Y0018379D01*
X0019319Y0018293D01*
X0019449Y0018203D01*
X0019577Y0018110D01*
X0019703Y0018014D01*
X0019826Y0017914D01*
X0019947Y0017812D01*
X0020065Y0017707D01*
X0020180Y0017598D01*
X0020293Y0017487D01*
X0020403Y0017373D01*
X0020510Y0017256D01*
X0020614Y0017137D01*
X0020715Y0017015D01*
X0020812Y0016890D01*
X0020907Y0016763D01*
X0020998Y0016634D01*
X0021087Y0016503D01*
X0021171Y0016369D01*
X0021253Y0016233D01*
X0021331Y0016096D01*
X0021405Y0015956D01*
X0021476Y0015814D01*
X0021544Y0015671D01*
X0021608Y0015526D01*
X0021668Y0015380D01*
X0021724Y0015232D01*
X0021777Y0015083D01*
X0021826Y0014932D01*
X0021871Y0014780D01*
X0021912Y0014627D01*
X0021950Y0014474D01*
X0021983Y0014319D01*
X0022013Y0014163D01*
X0022039Y0014007D01*
X0022060Y0013850D01*
X0022078Y0013693D01*
X0022092Y0013535D01*
X0022102Y0013377D01*
X0022108Y0013219D01*
X0022110Y0013061D01*
X0022108Y0012903D01*
X0022102Y0012745D01*
X0022092Y0012587D01*
X0022078Y0012429D01*
X0022060Y0012272D01*
X0022039Y0012115D01*
X0022013Y0011959D01*
X0021983Y0011803D01*
X0021950Y0011648D01*
X0021912Y0011495D01*
X0021871Y0011342D01*
X0021826Y0011190D01*
X0021777Y0011039D01*
X0021724Y0010890D01*
X0021668Y0010742D01*
X0021608Y0010596D01*
X0021544Y0010451D01*
X0021476Y0010308D01*
X0021405Y0010166D01*
X0021331Y0010026D01*
X0021253Y0009889D01*
X0021171Y0009753D01*
X0021087Y0009619D01*
X0020998Y0009488D01*
X0020907Y0009359D01*
X0020812Y0009232D01*
X0020715Y0009107D01*
X0020614Y0008985D01*
X0020510Y0008866D01*
X0020403Y0008749D01*
X0020293Y0008635D01*
X0020180Y0008524D01*
X0020065Y0008415D01*
X0019947Y0008310D01*
X0019826Y0008208D01*
X0019703Y0008108D01*
X0019577Y0008012D01*
X0019449Y0007919D01*
X0019319Y0007829D01*
X0019186Y0007743D01*
X0019051Y0007659D01*
X0018915Y0007580D01*
X0018776Y0007503D01*
X0018635Y0007431D01*
X0018493Y0007361D01*
X0018349Y0007296D01*
X0018203Y0007234D01*
X0018056Y0007176D01*
X0017907Y0007121D01*
X0017757Y0007070D01*
X0017606Y0007023D01*
X0017454Y0006980D01*
X0017301Y0006941D01*
X0017146Y0006905D01*
X0016991Y0006874D01*
X0016835Y0006846D01*
X0016679Y0006822D01*
X0016522Y0006802D01*
X0016364Y0006786D01*
X0016207Y0006774D01*
X0016048Y0006766D01*
X0015890Y0006762D01*
X0015732Y0006762D01*
X0015574Y0006766D01*
X0015415Y0006774D01*
X0015258Y0006786D01*
X0015100Y0006802D01*
X0014943Y0006822D01*
X0014787Y0006846D01*
X0014631Y0006874D01*
X0014476Y0006905D01*
X0014321Y0006941D01*
X0014168Y0006980D01*
X0014016Y0007023D01*
X0013865Y0007070D01*
X0013715Y0007121D01*
X0013566Y0007176D01*
X0013419Y0007234D01*
X0013273Y0007296D01*
X0013129Y0007361D01*
X0012987Y0007431D01*
X0012846Y0007503D01*
X0012707Y0007580D01*
X0012571Y0007659D01*
X0012436Y0007743D01*
X0012303Y0007829D01*
X0012173Y0007919D01*
X0012045Y0008012D01*
X0011919Y0008108D01*
X0011796Y0008208D01*
X0011675Y0008310D01*
X0011557Y0008415D01*
X0011442Y0008524D01*
X0011329Y0008635D01*
X0011219Y0008749D01*
X0011112Y0008866D01*
X0011008Y0008985D01*
X0010907Y0009107D01*
X0010810Y0009232D01*
X0010715Y0009359D01*
X0010624Y0009488D01*
X0010535Y0009619D01*
X0010451Y0009753D01*
X0010369Y0009889D01*
X0010291Y0010026D01*
X0010217Y0010166D01*
X0010146Y0010308D01*
X0010078Y0010451D01*
X0010014Y0010596D01*
X0009954Y0010742D01*
X0009898Y0010890D01*
X0009845Y0011039D01*
X0009796Y0011190D01*
X0009751Y0011342D01*
X0009710Y0011495D01*
X0009672Y0011648D01*
X0009639Y0011803D01*
X0009609Y0011959D01*
X0009583Y0012115D01*
X0009562Y0012272D01*
X0009544Y0012429D01*
X0009530Y0012587D01*
X0009520Y0012745D01*
X0009514Y0012903D01*
X0009512Y0013061D01*
X0076441Y0013061D02*
X0076443Y0013219D01*
X0076449Y0013377D01*
X0076459Y0013535D01*
X0076473Y0013693D01*
X0076491Y0013850D01*
X0076512Y0014007D01*
X0076538Y0014163D01*
X0076568Y0014319D01*
X0076601Y0014474D01*
X0076639Y0014627D01*
X0076680Y0014780D01*
X0076725Y0014932D01*
X0076774Y0015083D01*
X0076827Y0015232D01*
X0076883Y0015380D01*
X0076943Y0015526D01*
X0077007Y0015671D01*
X0077075Y0015814D01*
X0077146Y0015956D01*
X0077220Y0016096D01*
X0077298Y0016233D01*
X0077380Y0016369D01*
X0077464Y0016503D01*
X0077553Y0016634D01*
X0077644Y0016763D01*
X0077739Y0016890D01*
X0077836Y0017015D01*
X0077937Y0017137D01*
X0078041Y0017256D01*
X0078148Y0017373D01*
X0078258Y0017487D01*
X0078371Y0017598D01*
X0078486Y0017707D01*
X0078604Y0017812D01*
X0078725Y0017914D01*
X0078848Y0018014D01*
X0078974Y0018110D01*
X0079102Y0018203D01*
X0079232Y0018293D01*
X0079365Y0018379D01*
X0079500Y0018463D01*
X0079636Y0018542D01*
X0079775Y0018619D01*
X0079916Y0018691D01*
X0080058Y0018761D01*
X0080202Y0018826D01*
X0080348Y0018888D01*
X0080495Y0018946D01*
X0080644Y0019001D01*
X0080794Y0019052D01*
X0080945Y0019099D01*
X0081097Y0019142D01*
X0081250Y0019181D01*
X0081405Y0019217D01*
X0081560Y0019248D01*
X0081716Y0019276D01*
X0081872Y0019300D01*
X0082029Y0019320D01*
X0082187Y0019336D01*
X0082344Y0019348D01*
X0082503Y0019356D01*
X0082661Y0019360D01*
X0082819Y0019360D01*
X0082977Y0019356D01*
X0083136Y0019348D01*
X0083293Y0019336D01*
X0083451Y0019320D01*
X0083608Y0019300D01*
X0083764Y0019276D01*
X0083920Y0019248D01*
X0084075Y0019217D01*
X0084230Y0019181D01*
X0084383Y0019142D01*
X0084535Y0019099D01*
X0084686Y0019052D01*
X0084836Y0019001D01*
X0084985Y0018946D01*
X0085132Y0018888D01*
X0085278Y0018826D01*
X0085422Y0018761D01*
X0085564Y0018691D01*
X0085705Y0018619D01*
X0085844Y0018542D01*
X0085980Y0018463D01*
X0086115Y0018379D01*
X0086248Y0018293D01*
X0086378Y0018203D01*
X0086506Y0018110D01*
X0086632Y0018014D01*
X0086755Y0017914D01*
X0086876Y0017812D01*
X0086994Y0017707D01*
X0087109Y0017598D01*
X0087222Y0017487D01*
X0087332Y0017373D01*
X0087439Y0017256D01*
X0087543Y0017137D01*
X0087644Y0017015D01*
X0087741Y0016890D01*
X0087836Y0016763D01*
X0087927Y0016634D01*
X0088016Y0016503D01*
X0088100Y0016369D01*
X0088182Y0016233D01*
X0088260Y0016096D01*
X0088334Y0015956D01*
X0088405Y0015814D01*
X0088473Y0015671D01*
X0088537Y0015526D01*
X0088597Y0015380D01*
X0088653Y0015232D01*
X0088706Y0015083D01*
X0088755Y0014932D01*
X0088800Y0014780D01*
X0088841Y0014627D01*
X0088879Y0014474D01*
X0088912Y0014319D01*
X0088942Y0014163D01*
X0088968Y0014007D01*
X0088989Y0013850D01*
X0089007Y0013693D01*
X0089021Y0013535D01*
X0089031Y0013377D01*
X0089037Y0013219D01*
X0089039Y0013061D01*
X0089037Y0012903D01*
X0089031Y0012745D01*
X0089021Y0012587D01*
X0089007Y0012429D01*
X0088989Y0012272D01*
X0088968Y0012115D01*
X0088942Y0011959D01*
X0088912Y0011803D01*
X0088879Y0011648D01*
X0088841Y0011495D01*
X0088800Y0011342D01*
X0088755Y0011190D01*
X0088706Y0011039D01*
X0088653Y0010890D01*
X0088597Y0010742D01*
X0088537Y0010596D01*
X0088473Y0010451D01*
X0088405Y0010308D01*
X0088334Y0010166D01*
X0088260Y0010026D01*
X0088182Y0009889D01*
X0088100Y0009753D01*
X0088016Y0009619D01*
X0087927Y0009488D01*
X0087836Y0009359D01*
X0087741Y0009232D01*
X0087644Y0009107D01*
X0087543Y0008985D01*
X0087439Y0008866D01*
X0087332Y0008749D01*
X0087222Y0008635D01*
X0087109Y0008524D01*
X0086994Y0008415D01*
X0086876Y0008310D01*
X0086755Y0008208D01*
X0086632Y0008108D01*
X0086506Y0008012D01*
X0086378Y0007919D01*
X0086248Y0007829D01*
X0086115Y0007743D01*
X0085980Y0007659D01*
X0085844Y0007580D01*
X0085705Y0007503D01*
X0085564Y0007431D01*
X0085422Y0007361D01*
X0085278Y0007296D01*
X0085132Y0007234D01*
X0084985Y0007176D01*
X0084836Y0007121D01*
X0084686Y0007070D01*
X0084535Y0007023D01*
X0084383Y0006980D01*
X0084230Y0006941D01*
X0084075Y0006905D01*
X0083920Y0006874D01*
X0083764Y0006846D01*
X0083608Y0006822D01*
X0083451Y0006802D01*
X0083293Y0006786D01*
X0083136Y0006774D01*
X0082977Y0006766D01*
X0082819Y0006762D01*
X0082661Y0006762D01*
X0082503Y0006766D01*
X0082344Y0006774D01*
X0082187Y0006786D01*
X0082029Y0006802D01*
X0081872Y0006822D01*
X0081716Y0006846D01*
X0081560Y0006874D01*
X0081405Y0006905D01*
X0081250Y0006941D01*
X0081097Y0006980D01*
X0080945Y0007023D01*
X0080794Y0007070D01*
X0080644Y0007121D01*
X0080495Y0007176D01*
X0080348Y0007234D01*
X0080202Y0007296D01*
X0080058Y0007361D01*
X0079916Y0007431D01*
X0079775Y0007503D01*
X0079636Y0007580D01*
X0079500Y0007659D01*
X0079365Y0007743D01*
X0079232Y0007829D01*
X0079102Y0007919D01*
X0078974Y0008012D01*
X0078848Y0008108D01*
X0078725Y0008208D01*
X0078604Y0008310D01*
X0078486Y0008415D01*
X0078371Y0008524D01*
X0078258Y0008635D01*
X0078148Y0008749D01*
X0078041Y0008866D01*
X0077937Y0008985D01*
X0077836Y0009107D01*
X0077739Y0009232D01*
X0077644Y0009359D01*
X0077553Y0009488D01*
X0077464Y0009619D01*
X0077380Y0009753D01*
X0077298Y0009889D01*
X0077220Y0010026D01*
X0077146Y0010166D01*
X0077075Y0010308D01*
X0077007Y0010451D01*
X0076943Y0010596D01*
X0076883Y0010742D01*
X0076827Y0010890D01*
X0076774Y0011039D01*
X0076725Y0011190D01*
X0076680Y0011342D01*
X0076639Y0011495D01*
X0076601Y0011648D01*
X0076568Y0011803D01*
X0076538Y0011959D01*
X0076512Y0012115D01*
X0076491Y0012272D01*
X0076473Y0012429D01*
X0076459Y0012587D01*
X0076449Y0012745D01*
X0076443Y0012903D01*
X0076441Y0013061D01*
X0076441Y0272904D02*
X0076443Y0273062D01*
X0076449Y0273220D01*
X0076459Y0273378D01*
X0076473Y0273536D01*
X0076491Y0273693D01*
X0076512Y0273850D01*
X0076538Y0274006D01*
X0076568Y0274162D01*
X0076601Y0274317D01*
X0076639Y0274470D01*
X0076680Y0274623D01*
X0076725Y0274775D01*
X0076774Y0274926D01*
X0076827Y0275075D01*
X0076883Y0275223D01*
X0076943Y0275369D01*
X0077007Y0275514D01*
X0077075Y0275657D01*
X0077146Y0275799D01*
X0077220Y0275939D01*
X0077298Y0276076D01*
X0077380Y0276212D01*
X0077464Y0276346D01*
X0077553Y0276477D01*
X0077644Y0276606D01*
X0077739Y0276733D01*
X0077836Y0276858D01*
X0077937Y0276980D01*
X0078041Y0277099D01*
X0078148Y0277216D01*
X0078258Y0277330D01*
X0078371Y0277441D01*
X0078486Y0277550D01*
X0078604Y0277655D01*
X0078725Y0277757D01*
X0078848Y0277857D01*
X0078974Y0277953D01*
X0079102Y0278046D01*
X0079232Y0278136D01*
X0079365Y0278222D01*
X0079500Y0278306D01*
X0079636Y0278385D01*
X0079775Y0278462D01*
X0079916Y0278534D01*
X0080058Y0278604D01*
X0080202Y0278669D01*
X0080348Y0278731D01*
X0080495Y0278789D01*
X0080644Y0278844D01*
X0080794Y0278895D01*
X0080945Y0278942D01*
X0081097Y0278985D01*
X0081250Y0279024D01*
X0081405Y0279060D01*
X0081560Y0279091D01*
X0081716Y0279119D01*
X0081872Y0279143D01*
X0082029Y0279163D01*
X0082187Y0279179D01*
X0082344Y0279191D01*
X0082503Y0279199D01*
X0082661Y0279203D01*
X0082819Y0279203D01*
X0082977Y0279199D01*
X0083136Y0279191D01*
X0083293Y0279179D01*
X0083451Y0279163D01*
X0083608Y0279143D01*
X0083764Y0279119D01*
X0083920Y0279091D01*
X0084075Y0279060D01*
X0084230Y0279024D01*
X0084383Y0278985D01*
X0084535Y0278942D01*
X0084686Y0278895D01*
X0084836Y0278844D01*
X0084985Y0278789D01*
X0085132Y0278731D01*
X0085278Y0278669D01*
X0085422Y0278604D01*
X0085564Y0278534D01*
X0085705Y0278462D01*
X0085844Y0278385D01*
X0085980Y0278306D01*
X0086115Y0278222D01*
X0086248Y0278136D01*
X0086378Y0278046D01*
X0086506Y0277953D01*
X0086632Y0277857D01*
X0086755Y0277757D01*
X0086876Y0277655D01*
X0086994Y0277550D01*
X0087109Y0277441D01*
X0087222Y0277330D01*
X0087332Y0277216D01*
X0087439Y0277099D01*
X0087543Y0276980D01*
X0087644Y0276858D01*
X0087741Y0276733D01*
X0087836Y0276606D01*
X0087927Y0276477D01*
X0088016Y0276346D01*
X0088100Y0276212D01*
X0088182Y0276076D01*
X0088260Y0275939D01*
X0088334Y0275799D01*
X0088405Y0275657D01*
X0088473Y0275514D01*
X0088537Y0275369D01*
X0088597Y0275223D01*
X0088653Y0275075D01*
X0088706Y0274926D01*
X0088755Y0274775D01*
X0088800Y0274623D01*
X0088841Y0274470D01*
X0088879Y0274317D01*
X0088912Y0274162D01*
X0088942Y0274006D01*
X0088968Y0273850D01*
X0088989Y0273693D01*
X0089007Y0273536D01*
X0089021Y0273378D01*
X0089031Y0273220D01*
X0089037Y0273062D01*
X0089039Y0272904D01*
X0089037Y0272746D01*
X0089031Y0272588D01*
X0089021Y0272430D01*
X0089007Y0272272D01*
X0088989Y0272115D01*
X0088968Y0271958D01*
X0088942Y0271802D01*
X0088912Y0271646D01*
X0088879Y0271491D01*
X0088841Y0271338D01*
X0088800Y0271185D01*
X0088755Y0271033D01*
X0088706Y0270882D01*
X0088653Y0270733D01*
X0088597Y0270585D01*
X0088537Y0270439D01*
X0088473Y0270294D01*
X0088405Y0270151D01*
X0088334Y0270009D01*
X0088260Y0269869D01*
X0088182Y0269732D01*
X0088100Y0269596D01*
X0088016Y0269462D01*
X0087927Y0269331D01*
X0087836Y0269202D01*
X0087741Y0269075D01*
X0087644Y0268950D01*
X0087543Y0268828D01*
X0087439Y0268709D01*
X0087332Y0268592D01*
X0087222Y0268478D01*
X0087109Y0268367D01*
X0086994Y0268258D01*
X0086876Y0268153D01*
X0086755Y0268051D01*
X0086632Y0267951D01*
X0086506Y0267855D01*
X0086378Y0267762D01*
X0086248Y0267672D01*
X0086115Y0267586D01*
X0085980Y0267502D01*
X0085844Y0267423D01*
X0085705Y0267346D01*
X0085564Y0267274D01*
X0085422Y0267204D01*
X0085278Y0267139D01*
X0085132Y0267077D01*
X0084985Y0267019D01*
X0084836Y0266964D01*
X0084686Y0266913D01*
X0084535Y0266866D01*
X0084383Y0266823D01*
X0084230Y0266784D01*
X0084075Y0266748D01*
X0083920Y0266717D01*
X0083764Y0266689D01*
X0083608Y0266665D01*
X0083451Y0266645D01*
X0083293Y0266629D01*
X0083136Y0266617D01*
X0082977Y0266609D01*
X0082819Y0266605D01*
X0082661Y0266605D01*
X0082503Y0266609D01*
X0082344Y0266617D01*
X0082187Y0266629D01*
X0082029Y0266645D01*
X0081872Y0266665D01*
X0081716Y0266689D01*
X0081560Y0266717D01*
X0081405Y0266748D01*
X0081250Y0266784D01*
X0081097Y0266823D01*
X0080945Y0266866D01*
X0080794Y0266913D01*
X0080644Y0266964D01*
X0080495Y0267019D01*
X0080348Y0267077D01*
X0080202Y0267139D01*
X0080058Y0267204D01*
X0079916Y0267274D01*
X0079775Y0267346D01*
X0079636Y0267423D01*
X0079500Y0267502D01*
X0079365Y0267586D01*
X0079232Y0267672D01*
X0079102Y0267762D01*
X0078974Y0267855D01*
X0078848Y0267951D01*
X0078725Y0268051D01*
X0078604Y0268153D01*
X0078486Y0268258D01*
X0078371Y0268367D01*
X0078258Y0268478D01*
X0078148Y0268592D01*
X0078041Y0268709D01*
X0077937Y0268828D01*
X0077836Y0268950D01*
X0077739Y0269075D01*
X0077644Y0269202D01*
X0077553Y0269331D01*
X0077464Y0269462D01*
X0077380Y0269596D01*
X0077298Y0269732D01*
X0077220Y0269869D01*
X0077146Y0270009D01*
X0077075Y0270151D01*
X0077007Y0270294D01*
X0076943Y0270439D01*
X0076883Y0270585D01*
X0076827Y0270733D01*
X0076774Y0270882D01*
X0076725Y0271033D01*
X0076680Y0271185D01*
X0076639Y0271338D01*
X0076601Y0271491D01*
X0076568Y0271646D01*
X0076538Y0271802D01*
X0076512Y0271958D01*
X0076491Y0272115D01*
X0076473Y0272272D01*
X0076459Y0272430D01*
X0076449Y0272588D01*
X0076443Y0272746D01*
X0076441Y0272904D01*
X0009512Y0272904D02*
X0009514Y0273062D01*
X0009520Y0273220D01*
X0009530Y0273378D01*
X0009544Y0273536D01*
X0009562Y0273693D01*
X0009583Y0273850D01*
X0009609Y0274006D01*
X0009639Y0274162D01*
X0009672Y0274317D01*
X0009710Y0274470D01*
X0009751Y0274623D01*
X0009796Y0274775D01*
X0009845Y0274926D01*
X0009898Y0275075D01*
X0009954Y0275223D01*
X0010014Y0275369D01*
X0010078Y0275514D01*
X0010146Y0275657D01*
X0010217Y0275799D01*
X0010291Y0275939D01*
X0010369Y0276076D01*
X0010451Y0276212D01*
X0010535Y0276346D01*
X0010624Y0276477D01*
X0010715Y0276606D01*
X0010810Y0276733D01*
X0010907Y0276858D01*
X0011008Y0276980D01*
X0011112Y0277099D01*
X0011219Y0277216D01*
X0011329Y0277330D01*
X0011442Y0277441D01*
X0011557Y0277550D01*
X0011675Y0277655D01*
X0011796Y0277757D01*
X0011919Y0277857D01*
X0012045Y0277953D01*
X0012173Y0278046D01*
X0012303Y0278136D01*
X0012436Y0278222D01*
X0012571Y0278306D01*
X0012707Y0278385D01*
X0012846Y0278462D01*
X0012987Y0278534D01*
X0013129Y0278604D01*
X0013273Y0278669D01*
X0013419Y0278731D01*
X0013566Y0278789D01*
X0013715Y0278844D01*
X0013865Y0278895D01*
X0014016Y0278942D01*
X0014168Y0278985D01*
X0014321Y0279024D01*
X0014476Y0279060D01*
X0014631Y0279091D01*
X0014787Y0279119D01*
X0014943Y0279143D01*
X0015100Y0279163D01*
X0015258Y0279179D01*
X0015415Y0279191D01*
X0015574Y0279199D01*
X0015732Y0279203D01*
X0015890Y0279203D01*
X0016048Y0279199D01*
X0016207Y0279191D01*
X0016364Y0279179D01*
X0016522Y0279163D01*
X0016679Y0279143D01*
X0016835Y0279119D01*
X0016991Y0279091D01*
X0017146Y0279060D01*
X0017301Y0279024D01*
X0017454Y0278985D01*
X0017606Y0278942D01*
X0017757Y0278895D01*
X0017907Y0278844D01*
X0018056Y0278789D01*
X0018203Y0278731D01*
X0018349Y0278669D01*
X0018493Y0278604D01*
X0018635Y0278534D01*
X0018776Y0278462D01*
X0018915Y0278385D01*
X0019051Y0278306D01*
X0019186Y0278222D01*
X0019319Y0278136D01*
X0019449Y0278046D01*
X0019577Y0277953D01*
X0019703Y0277857D01*
X0019826Y0277757D01*
X0019947Y0277655D01*
X0020065Y0277550D01*
X0020180Y0277441D01*
X0020293Y0277330D01*
X0020403Y0277216D01*
X0020510Y0277099D01*
X0020614Y0276980D01*
X0020715Y0276858D01*
X0020812Y0276733D01*
X0020907Y0276606D01*
X0020998Y0276477D01*
X0021087Y0276346D01*
X0021171Y0276212D01*
X0021253Y0276076D01*
X0021331Y0275939D01*
X0021405Y0275799D01*
X0021476Y0275657D01*
X0021544Y0275514D01*
X0021608Y0275369D01*
X0021668Y0275223D01*
X0021724Y0275075D01*
X0021777Y0274926D01*
X0021826Y0274775D01*
X0021871Y0274623D01*
X0021912Y0274470D01*
X0021950Y0274317D01*
X0021983Y0274162D01*
X0022013Y0274006D01*
X0022039Y0273850D01*
X0022060Y0273693D01*
X0022078Y0273536D01*
X0022092Y0273378D01*
X0022102Y0273220D01*
X0022108Y0273062D01*
X0022110Y0272904D01*
X0022108Y0272746D01*
X0022102Y0272588D01*
X0022092Y0272430D01*
X0022078Y0272272D01*
X0022060Y0272115D01*
X0022039Y0271958D01*
X0022013Y0271802D01*
X0021983Y0271646D01*
X0021950Y0271491D01*
X0021912Y0271338D01*
X0021871Y0271185D01*
X0021826Y0271033D01*
X0021777Y0270882D01*
X0021724Y0270733D01*
X0021668Y0270585D01*
X0021608Y0270439D01*
X0021544Y0270294D01*
X0021476Y0270151D01*
X0021405Y0270009D01*
X0021331Y0269869D01*
X0021253Y0269732D01*
X0021171Y0269596D01*
X0021087Y0269462D01*
X0020998Y0269331D01*
X0020907Y0269202D01*
X0020812Y0269075D01*
X0020715Y0268950D01*
X0020614Y0268828D01*
X0020510Y0268709D01*
X0020403Y0268592D01*
X0020293Y0268478D01*
X0020180Y0268367D01*
X0020065Y0268258D01*
X0019947Y0268153D01*
X0019826Y0268051D01*
X0019703Y0267951D01*
X0019577Y0267855D01*
X0019449Y0267762D01*
X0019319Y0267672D01*
X0019186Y0267586D01*
X0019051Y0267502D01*
X0018915Y0267423D01*
X0018776Y0267346D01*
X0018635Y0267274D01*
X0018493Y0267204D01*
X0018349Y0267139D01*
X0018203Y0267077D01*
X0018056Y0267019D01*
X0017907Y0266964D01*
X0017757Y0266913D01*
X0017606Y0266866D01*
X0017454Y0266823D01*
X0017301Y0266784D01*
X0017146Y0266748D01*
X0016991Y0266717D01*
X0016835Y0266689D01*
X0016679Y0266665D01*
X0016522Y0266645D01*
X0016364Y0266629D01*
X0016207Y0266617D01*
X0016048Y0266609D01*
X0015890Y0266605D01*
X0015732Y0266605D01*
X0015574Y0266609D01*
X0015415Y0266617D01*
X0015258Y0266629D01*
X0015100Y0266645D01*
X0014943Y0266665D01*
X0014787Y0266689D01*
X0014631Y0266717D01*
X0014476Y0266748D01*
X0014321Y0266784D01*
X0014168Y0266823D01*
X0014016Y0266866D01*
X0013865Y0266913D01*
X0013715Y0266964D01*
X0013566Y0267019D01*
X0013419Y0267077D01*
X0013273Y0267139D01*
X0013129Y0267204D01*
X0012987Y0267274D01*
X0012846Y0267346D01*
X0012707Y0267423D01*
X0012571Y0267502D01*
X0012436Y0267586D01*
X0012303Y0267672D01*
X0012173Y0267762D01*
X0012045Y0267855D01*
X0011919Y0267951D01*
X0011796Y0268051D01*
X0011675Y0268153D01*
X0011557Y0268258D01*
X0011442Y0268367D01*
X0011329Y0268478D01*
X0011219Y0268592D01*
X0011112Y0268709D01*
X0011008Y0268828D01*
X0010907Y0268950D01*
X0010810Y0269075D01*
X0010715Y0269202D01*
X0010624Y0269331D01*
X0010535Y0269462D01*
X0010451Y0269596D01*
X0010369Y0269732D01*
X0010291Y0269869D01*
X0010217Y0270009D01*
X0010146Y0270151D01*
X0010078Y0270294D01*
X0010014Y0270439D01*
X0009954Y0270585D01*
X0009898Y0270733D01*
X0009845Y0270882D01*
X0009796Y0271033D01*
X0009751Y0271185D01*
X0009710Y0271338D01*
X0009672Y0271491D01*
X0009639Y0271646D01*
X0009609Y0271802D01*
X0009583Y0271958D01*
X0009562Y0272115D01*
X0009544Y0272272D01*
X0009530Y0272430D01*
X0009520Y0272588D01*
X0009514Y0272746D01*
X0009512Y0272904D01*
M02*
