G75*
%MOIN*%
%OFA0B0*%
%FSLAX25Y25*%
%IPPOS*%
%LPD*%
%AMOC8*
5,1,8,0,0,1.08239X$1,22.5*
%
%ADD10OC8,0.04800*%
%ADD11C,0.04800*%
%ADD12C,0.06299*%
%ADD13C,0.01000*%
%ADD14C,0.02362*%
D10*
X0041500Y0031500D03*
X0041500Y0081500D03*
X0061500Y0081500D03*
X0071500Y0081500D03*
X0081500Y0081500D03*
X0076500Y0136500D03*
X0066500Y0136500D03*
X0066500Y0191500D03*
X0076500Y0191500D03*
X0056500Y0241500D03*
X0056500Y0251500D03*
X0051500Y0231500D03*
X0041500Y0231500D03*
X0036500Y0241500D03*
X0036500Y0251500D03*
X0036500Y0196500D03*
X0036500Y0186500D03*
X0036500Y0176500D03*
X0031500Y0166500D03*
X0021500Y0166500D03*
X0016500Y0176500D03*
X0016500Y0186500D03*
X0016500Y0196500D03*
X0061500Y0031500D03*
D11*
X0064100Y0021500D02*
X0068900Y0021500D01*
X0076500Y0041500D02*
X0081300Y0041500D01*
X0081300Y0051500D02*
X0076500Y0051500D01*
X0076500Y0061500D02*
X0081300Y0061500D01*
X0081300Y0071500D02*
X0076500Y0071500D01*
X0084100Y0096500D02*
X0088900Y0096500D01*
X0088900Y0106500D02*
X0084100Y0106500D01*
X0084100Y0116500D02*
X0088900Y0116500D01*
X0088900Y0126500D02*
X0084100Y0126500D01*
X0084100Y0151500D02*
X0088900Y0151500D01*
X0088900Y0161500D02*
X0084100Y0161500D01*
X0084100Y0171500D02*
X0088900Y0171500D01*
X0088900Y0181500D02*
X0084100Y0181500D01*
X0058900Y0181500D02*
X0054100Y0181500D01*
X0054100Y0171500D02*
X0058900Y0171500D01*
X0058900Y0161500D02*
X0054100Y0161500D01*
X0054100Y0151500D02*
X0058900Y0151500D01*
X0058900Y0126500D02*
X0054100Y0126500D01*
X0054100Y0116500D02*
X0058900Y0116500D01*
X0058900Y0106500D02*
X0054100Y0106500D01*
X0054100Y0096500D02*
X0058900Y0096500D01*
X0046500Y0071500D02*
X0041700Y0071500D01*
X0041700Y0061500D02*
X0046500Y0061500D01*
X0046500Y0051500D02*
X0041700Y0051500D01*
X0041700Y0041500D02*
X0046500Y0041500D01*
X0038900Y0021500D02*
X0034100Y0021500D01*
X0039100Y0096500D02*
X0043900Y0096500D01*
X0043900Y0106500D02*
X0039100Y0106500D01*
X0039100Y0116500D02*
X0043900Y0116500D01*
X0043900Y0126500D02*
X0039100Y0126500D01*
X0039100Y0136500D02*
X0043900Y0136500D01*
X0043900Y0146500D02*
X0039100Y0146500D01*
X0039100Y0156500D02*
X0043900Y0156500D01*
X0013900Y0156500D02*
X0009100Y0156500D01*
X0009100Y0146500D02*
X0013900Y0146500D01*
X0013900Y0136500D02*
X0009100Y0136500D01*
X0009100Y0126500D02*
X0013900Y0126500D01*
X0013900Y0116500D02*
X0009100Y0116500D01*
X0009100Y0106500D02*
X0013900Y0106500D01*
X0013900Y0096500D02*
X0009100Y0096500D01*
D12*
X0025122Y0080240D03*
X0025122Y0072366D03*
X0025122Y0064492D03*
X0025122Y0056618D03*
X0025122Y0040870D03*
X0025122Y0032996D03*
X0025122Y0214098D03*
X0025122Y0221972D03*
X0025122Y0229846D03*
X0025122Y0245594D03*
X0025122Y0253469D03*
X0070398Y0253469D03*
X0070398Y0245594D03*
X0070398Y0237720D03*
X0070398Y0221972D03*
X0070398Y0214098D03*
D13*
X0003968Y0143203D02*
X0003968Y0003968D01*
X0091551Y0003968D01*
X0091551Y0093636D01*
X0091386Y0093471D01*
X0090747Y0093044D01*
X0090038Y0092750D01*
X0089284Y0092600D01*
X0086800Y0092600D01*
X0086800Y0096200D01*
X0086200Y0096200D01*
X0086200Y0092600D01*
X0083716Y0092600D01*
X0082962Y0092750D01*
X0082253Y0093044D01*
X0081614Y0093471D01*
X0081071Y0094014D01*
X0080644Y0094653D01*
X0080350Y0095362D01*
X0080200Y0096116D01*
X0080200Y0096200D01*
X0086200Y0096200D01*
X0086200Y0096800D01*
X0086200Y0100400D01*
X0083716Y0100400D01*
X0082962Y0100250D01*
X0082253Y0099956D01*
X0081614Y0099529D01*
X0081071Y0098986D01*
X0080644Y0098347D01*
X0080350Y0097638D01*
X0080200Y0096884D01*
X0080200Y0096800D01*
X0086200Y0096800D01*
X0086800Y0096800D01*
X0086800Y0100400D01*
X0089284Y0100400D01*
X0090038Y0100250D01*
X0090747Y0099956D01*
X0091386Y0099529D01*
X0091551Y0099364D01*
X0091551Y0103636D01*
X0091109Y0103194D01*
X0089676Y0102600D01*
X0083324Y0102600D01*
X0081891Y0103194D01*
X0080794Y0104291D01*
X0080200Y0105724D01*
X0080200Y0107276D01*
X0080794Y0108709D01*
X0081891Y0109806D01*
X0083324Y0110400D01*
X0089676Y0110400D01*
X0091109Y0109806D01*
X0091551Y0109364D01*
X0091551Y0113636D01*
X0091109Y0113194D01*
X0089676Y0112600D01*
X0083324Y0112600D01*
X0081891Y0113194D01*
X0080794Y0114291D01*
X0080200Y0115724D01*
X0080200Y0117276D01*
X0080794Y0118709D01*
X0081891Y0119806D01*
X0082226Y0119945D01*
X0078672Y0123500D01*
X0078500Y0123672D01*
X0078500Y0087328D01*
X0080428Y0085400D01*
X0083115Y0085400D01*
X0085400Y0083115D01*
X0085400Y0079885D01*
X0083115Y0077600D01*
X0079885Y0077600D01*
X0077600Y0079885D01*
X0077600Y0082572D01*
X0077500Y0082672D01*
X0077500Y0078672D01*
X0050400Y0051572D01*
X0050400Y0050724D01*
X0049806Y0049291D01*
X0048709Y0048194D01*
X0047276Y0047600D01*
X0040924Y0047600D01*
X0039491Y0048194D01*
X0038394Y0049291D01*
X0037800Y0050724D01*
X0037800Y0052276D01*
X0038394Y0053709D01*
X0039491Y0054806D01*
X0040924Y0055400D01*
X0047276Y0055400D01*
X0048192Y0055020D01*
X0070772Y0077600D01*
X0069885Y0077600D01*
X0067600Y0079885D01*
X0067600Y0081200D01*
X0071200Y0081200D01*
X0071200Y0081800D01*
X0071200Y0085400D01*
X0069885Y0085400D01*
X0067600Y0083115D01*
X0067600Y0081800D01*
X0071200Y0081800D01*
X0071800Y0081800D01*
X0071800Y0085400D01*
X0072500Y0085400D01*
X0072500Y0088672D01*
X0070500Y0090672D01*
X0070500Y0135672D01*
X0070400Y0135772D01*
X0070400Y0134885D01*
X0068115Y0132600D01*
X0066800Y0132600D01*
X0066800Y0136200D01*
X0066200Y0136200D01*
X0066200Y0132600D01*
X0064885Y0132600D01*
X0062600Y0134885D01*
X0062600Y0136200D01*
X0066200Y0136200D01*
X0066200Y0136800D01*
X0066200Y0140400D01*
X0064885Y0140400D01*
X0062600Y0138115D01*
X0062600Y0136800D01*
X0066200Y0136800D01*
X0066800Y0136800D01*
X0066800Y0139372D01*
X0066500Y0139672D01*
X0066500Y0167328D01*
X0067672Y0168500D01*
X0068500Y0169328D01*
X0068500Y0187985D01*
X0068115Y0187600D01*
X0066800Y0187600D01*
X0066800Y0191200D01*
X0066200Y0191200D01*
X0066200Y0187600D01*
X0064885Y0187600D01*
X0062600Y0189885D01*
X0062600Y0191200D01*
X0066200Y0191200D01*
X0066200Y0191800D01*
X0066200Y0195400D01*
X0064885Y0195400D01*
X0062600Y0193115D01*
X0062600Y0191800D01*
X0066200Y0191800D01*
X0066800Y0191800D01*
X0066800Y0195400D01*
X0068115Y0195400D01*
X0068500Y0195015D01*
X0068500Y0209852D01*
X0067764Y0210157D01*
X0066456Y0211465D01*
X0065748Y0213174D01*
X0065748Y0215023D01*
X0066456Y0216732D01*
X0067759Y0218035D01*
X0066456Y0219339D01*
X0065748Y0221048D01*
X0065748Y0222897D01*
X0066456Y0224606D01*
X0067764Y0225914D01*
X0069473Y0226622D01*
X0071323Y0226622D01*
X0073031Y0225914D01*
X0074339Y0224606D01*
X0075047Y0222897D01*
X0075047Y0221048D01*
X0074339Y0219339D01*
X0073036Y0218035D01*
X0074339Y0216732D01*
X0075047Y0215023D01*
X0075047Y0213174D01*
X0074339Y0211465D01*
X0073031Y0210157D01*
X0072500Y0209937D01*
X0072500Y0170328D01*
X0081128Y0178956D01*
X0080794Y0179291D01*
X0080200Y0180724D01*
X0080200Y0182276D01*
X0080794Y0183709D01*
X0081128Y0184043D01*
X0077572Y0187600D01*
X0074885Y0187600D01*
X0072600Y0189885D01*
X0072600Y0193115D01*
X0074885Y0195400D01*
X0078115Y0195400D01*
X0080400Y0193115D01*
X0080400Y0190428D01*
X0085428Y0185400D01*
X0089676Y0185400D01*
X0091109Y0184806D01*
X0091551Y0184364D01*
X0091551Y0282496D01*
X0003968Y0282496D01*
X0003968Y0151797D01*
X0006128Y0153956D01*
X0005794Y0154291D01*
X0005200Y0155724D01*
X0005200Y0157276D01*
X0005794Y0158709D01*
X0006891Y0159806D01*
X0008324Y0160400D01*
X0014676Y0160400D01*
X0016109Y0159806D01*
X0017206Y0158709D01*
X0017293Y0158500D01*
X0026672Y0158500D01*
X0030772Y0162600D01*
X0029885Y0162600D01*
X0027600Y0164885D01*
X0027600Y0168115D01*
X0029885Y0170400D01*
X0033115Y0170400D01*
X0035400Y0168115D01*
X0035400Y0167228D01*
X0050200Y0182028D01*
X0050200Y0182276D01*
X0050794Y0183709D01*
X0051891Y0184806D01*
X0053324Y0185400D01*
X0059676Y0185400D01*
X0061109Y0184806D01*
X0062206Y0183709D01*
X0062800Y0182276D01*
X0062800Y0180724D01*
X0062206Y0179291D01*
X0061109Y0178194D01*
X0059676Y0177600D01*
X0053324Y0177600D01*
X0051984Y0178155D01*
X0029500Y0155672D01*
X0028328Y0154500D01*
X0017293Y0154500D01*
X0017206Y0154291D01*
X0016109Y0153194D01*
X0014676Y0152600D01*
X0010428Y0152600D01*
X0008161Y0150332D01*
X0008324Y0150400D01*
X0014676Y0150400D01*
X0016109Y0149806D01*
X0017206Y0148709D01*
X0017800Y0147276D01*
X0017800Y0145724D01*
X0017206Y0144291D01*
X0016109Y0143194D01*
X0014676Y0142600D01*
X0010228Y0142600D01*
X0012428Y0140400D01*
X0014676Y0140400D01*
X0016109Y0139806D01*
X0017206Y0138709D01*
X0017800Y0137276D01*
X0017800Y0135724D01*
X0017206Y0134291D01*
X0016109Y0133194D01*
X0014676Y0132600D01*
X0008324Y0132600D01*
X0006891Y0133194D01*
X0005794Y0134291D01*
X0005200Y0135724D01*
X0005200Y0137276D01*
X0005794Y0138709D01*
X0006891Y0139806D01*
X0007226Y0139945D01*
X0003968Y0143203D01*
X0003968Y0142290D02*
X0004881Y0142290D01*
X0003968Y0141292D02*
X0005880Y0141292D01*
X0006879Y0140293D02*
X0003968Y0140293D01*
X0003968Y0139295D02*
X0006379Y0139295D01*
X0005623Y0138296D02*
X0003968Y0138296D01*
X0003968Y0137298D02*
X0005209Y0137298D01*
X0005200Y0136299D02*
X0003968Y0136299D01*
X0003968Y0135301D02*
X0005376Y0135301D01*
X0005789Y0134302D02*
X0003968Y0134302D01*
X0003968Y0133303D02*
X0006781Y0133303D01*
X0008102Y0130308D02*
X0003968Y0130308D01*
X0003968Y0131306D02*
X0032500Y0131306D01*
X0032500Y0130308D02*
X0014898Y0130308D01*
X0014676Y0130400D02*
X0016109Y0129806D01*
X0017206Y0128709D01*
X0017800Y0127276D01*
X0017800Y0125724D01*
X0017206Y0124291D01*
X0016872Y0123956D01*
X0020500Y0120328D01*
X0020500Y0112328D01*
X0035303Y0097525D01*
X0035794Y0098709D01*
X0036891Y0099806D01*
X0038324Y0100400D01*
X0044676Y0100400D01*
X0046109Y0099806D01*
X0047206Y0098709D01*
X0047800Y0097276D01*
X0047800Y0095724D01*
X0047206Y0094291D01*
X0046109Y0093194D01*
X0044676Y0092600D01*
X0040228Y0092600D01*
X0049328Y0083500D01*
X0057985Y0083500D01*
X0059885Y0085400D01*
X0063115Y0085400D01*
X0065400Y0083115D01*
X0065400Y0079885D01*
X0063115Y0077600D01*
X0059885Y0077600D01*
X0057985Y0079500D01*
X0047672Y0079500D01*
X0045400Y0081772D01*
X0045400Y0079885D01*
X0043115Y0077600D01*
X0039885Y0077600D01*
X0037985Y0079500D01*
X0035328Y0079500D01*
X0029581Y0073752D01*
X0029772Y0073291D01*
X0029772Y0071441D01*
X0029064Y0069732D01*
X0027756Y0068424D01*
X0027669Y0068389D01*
X0028151Y0068039D01*
X0028669Y0067521D01*
X0029099Y0066929D01*
X0029431Y0066277D01*
X0029657Y0065581D01*
X0029772Y0064858D01*
X0029772Y0064681D01*
X0025311Y0064681D01*
X0025311Y0064303D01*
X0029772Y0064303D01*
X0029772Y0064126D01*
X0029657Y0063403D01*
X0029431Y0062707D01*
X0029099Y0062055D01*
X0028669Y0061463D01*
X0028151Y0060946D01*
X0027669Y0060596D01*
X0027756Y0060560D01*
X0029064Y0059252D01*
X0029772Y0057543D01*
X0029772Y0055693D01*
X0029064Y0053984D01*
X0027756Y0052676D01*
X0026500Y0052156D01*
X0026500Y0046672D01*
X0025348Y0045520D01*
X0025488Y0045520D01*
X0026211Y0045405D01*
X0026907Y0045179D01*
X0027559Y0044847D01*
X0028151Y0044417D01*
X0028669Y0043899D01*
X0029099Y0043307D01*
X0029431Y0042655D01*
X0029657Y0041959D01*
X0029772Y0041236D01*
X0029772Y0041059D01*
X0025311Y0041059D01*
X0025311Y0040681D01*
X0029772Y0040681D01*
X0029772Y0040504D01*
X0029657Y0039781D01*
X0029431Y0039085D01*
X0029099Y0038433D01*
X0028669Y0037841D01*
X0028151Y0037324D01*
X0027669Y0036974D01*
X0027756Y0036938D01*
X0029064Y0035630D01*
X0029772Y0033921D01*
X0029772Y0033500D01*
X0037985Y0033500D01*
X0039885Y0035400D01*
X0043115Y0035400D01*
X0045015Y0033500D01*
X0045672Y0033500D01*
X0072687Y0060515D01*
X0072600Y0060724D01*
X0072600Y0062276D01*
X0073194Y0063709D01*
X0074291Y0064806D01*
X0075724Y0065400D01*
X0082076Y0065400D01*
X0083509Y0064806D01*
X0084606Y0063709D01*
X0085200Y0062276D01*
X0085200Y0060724D01*
X0084606Y0059291D01*
X0083509Y0058194D01*
X0082076Y0057600D01*
X0075724Y0057600D01*
X0075515Y0057687D01*
X0047328Y0029500D01*
X0045015Y0029500D01*
X0043115Y0027600D01*
X0039885Y0027600D01*
X0037985Y0029500D01*
X0028202Y0029500D01*
X0027756Y0029054D01*
X0026047Y0028346D01*
X0024197Y0028346D01*
X0022488Y0029054D01*
X0021180Y0030362D01*
X0020472Y0032071D01*
X0020472Y0033921D01*
X0020700Y0034471D01*
X0017500Y0037672D01*
X0017500Y0043328D01*
X0018672Y0044500D01*
X0022500Y0048328D01*
X0022500Y0052672D01*
X0022488Y0052676D01*
X0021180Y0053984D01*
X0020472Y0055693D01*
X0020472Y0057543D01*
X0021180Y0059252D01*
X0022488Y0060560D01*
X0022575Y0060596D01*
X0022093Y0060946D01*
X0021576Y0061463D01*
X0021145Y0062055D01*
X0020813Y0062707D01*
X0020587Y0063403D01*
X0020472Y0064126D01*
X0020472Y0064303D01*
X0024933Y0064303D01*
X0024933Y0064681D01*
X0020472Y0064681D01*
X0020472Y0064858D01*
X0020587Y0065581D01*
X0020813Y0066277D01*
X0021145Y0066929D01*
X0021576Y0067521D01*
X0022093Y0068039D01*
X0022575Y0068389D01*
X0022488Y0068424D01*
X0021180Y0069732D01*
X0020472Y0071441D01*
X0020472Y0073291D01*
X0021180Y0075000D01*
X0022484Y0076303D01*
X0021180Y0077606D01*
X0020472Y0079315D01*
X0020472Y0081165D01*
X0021180Y0082874D01*
X0022488Y0084182D01*
X0024197Y0084890D01*
X0026047Y0084890D01*
X0027756Y0084182D01*
X0029064Y0082874D01*
X0029772Y0081165D01*
X0029772Y0079600D01*
X0033672Y0083500D01*
X0037985Y0083500D01*
X0039885Y0085400D01*
X0041772Y0085400D01*
X0017672Y0109500D01*
X0016500Y0110672D01*
X0016500Y0113585D01*
X0016386Y0113471D01*
X0015747Y0113044D01*
X0015038Y0112750D01*
X0014284Y0112600D01*
X0011800Y0112600D01*
X0011800Y0116200D01*
X0011200Y0116200D01*
X0011200Y0112600D01*
X0008716Y0112600D01*
X0007962Y0112750D01*
X0007253Y0113044D01*
X0006614Y0113471D01*
X0006071Y0114014D01*
X0005644Y0114653D01*
X0005350Y0115362D01*
X0005200Y0116116D01*
X0005200Y0116200D01*
X0011200Y0116200D01*
X0011200Y0116800D01*
X0011200Y0120400D01*
X0008716Y0120400D01*
X0007962Y0120250D01*
X0007253Y0119956D01*
X0006614Y0119529D01*
X0006071Y0118986D01*
X0005644Y0118347D01*
X0005350Y0117638D01*
X0005200Y0116884D01*
X0005200Y0116800D01*
X0011200Y0116800D01*
X0011800Y0116800D01*
X0011800Y0120400D01*
X0014284Y0120400D01*
X0014893Y0120279D01*
X0012572Y0122600D01*
X0008324Y0122600D01*
X0006891Y0123194D01*
X0005794Y0124291D01*
X0005200Y0125724D01*
X0005200Y0127276D01*
X0005794Y0128709D01*
X0006891Y0129806D01*
X0008324Y0130400D01*
X0014676Y0130400D01*
X0016219Y0133303D02*
X0032500Y0133303D01*
X0032500Y0132305D02*
X0003968Y0132305D01*
X0003968Y0129309D02*
X0006394Y0129309D01*
X0005629Y0128311D02*
X0003968Y0128311D01*
X0003968Y0127312D02*
X0005215Y0127312D01*
X0005200Y0126314D02*
X0003968Y0126314D01*
X0003968Y0125315D02*
X0005369Y0125315D01*
X0005783Y0124317D02*
X0003968Y0124317D01*
X0003968Y0123318D02*
X0006766Y0123318D01*
X0008328Y0120323D02*
X0003968Y0120323D01*
X0003968Y0121321D02*
X0013850Y0121321D01*
X0014672Y0120323D02*
X0014849Y0120323D01*
X0012852Y0122320D02*
X0003968Y0122320D01*
X0003968Y0119324D02*
X0006409Y0119324D01*
X0005635Y0118326D02*
X0003968Y0118326D01*
X0003968Y0117327D02*
X0005288Y0117327D01*
X0003968Y0116329D02*
X0011200Y0116329D01*
X0011200Y0117327D02*
X0011800Y0117327D01*
X0011800Y0118326D02*
X0011200Y0118326D01*
X0011200Y0119324D02*
X0011800Y0119324D01*
X0011800Y0120323D02*
X0011200Y0120323D01*
X0011200Y0115330D02*
X0011800Y0115330D01*
X0011800Y0114332D02*
X0011200Y0114332D01*
X0011200Y0113333D02*
X0011800Y0113333D01*
X0014676Y0110400D02*
X0016109Y0109806D01*
X0017206Y0108709D01*
X0017800Y0107276D01*
X0017800Y0105724D01*
X0017206Y0104291D01*
X0016109Y0103194D01*
X0014676Y0102600D01*
X0008324Y0102600D01*
X0006891Y0103194D01*
X0005794Y0104291D01*
X0005200Y0105724D01*
X0005200Y0107276D01*
X0005794Y0108709D01*
X0006891Y0109806D01*
X0008324Y0110400D01*
X0014676Y0110400D01*
X0014826Y0110338D02*
X0016834Y0110338D01*
X0016576Y0109339D02*
X0017832Y0109339D01*
X0017359Y0108341D02*
X0018831Y0108341D01*
X0019829Y0107342D02*
X0017772Y0107342D01*
X0017800Y0106344D02*
X0020828Y0106344D01*
X0021826Y0105345D02*
X0017643Y0105345D01*
X0017229Y0104347D02*
X0022825Y0104347D01*
X0023823Y0103348D02*
X0016264Y0103348D01*
X0015038Y0100250D02*
X0014284Y0100400D01*
X0011800Y0100400D01*
X0011800Y0096800D01*
X0011200Y0096800D01*
X0011200Y0100400D01*
X0008716Y0100400D01*
X0007962Y0100250D01*
X0007253Y0099956D01*
X0006614Y0099529D01*
X0006071Y0098986D01*
X0005644Y0098347D01*
X0005350Y0097638D01*
X0005200Y0096884D01*
X0005200Y0096800D01*
X0011200Y0096800D01*
X0011200Y0096200D01*
X0011800Y0096200D01*
X0011800Y0096800D01*
X0017800Y0096800D01*
X0017800Y0096884D01*
X0017650Y0097638D01*
X0017356Y0098347D01*
X0016929Y0098986D01*
X0016386Y0099529D01*
X0015747Y0099956D01*
X0015038Y0100250D01*
X0014522Y0100353D02*
X0026819Y0100353D01*
X0025820Y0101351D02*
X0003968Y0101351D01*
X0003968Y0100353D02*
X0008478Y0100353D01*
X0006736Y0103348D02*
X0003968Y0103348D01*
X0003968Y0102350D02*
X0024822Y0102350D01*
X0026485Y0106344D02*
X0041200Y0106344D01*
X0041200Y0106200D02*
X0035200Y0106200D01*
X0035200Y0106116D01*
X0035350Y0105362D01*
X0035644Y0104653D01*
X0036071Y0104014D01*
X0036614Y0103471D01*
X0037253Y0103044D01*
X0037962Y0102750D01*
X0038716Y0102600D01*
X0041200Y0102600D01*
X0041200Y0106200D01*
X0041800Y0106200D01*
X0041800Y0106800D01*
X0041200Y0106800D01*
X0041200Y0110400D01*
X0038716Y0110400D01*
X0037962Y0110250D01*
X0037253Y0109956D01*
X0036614Y0109529D01*
X0036071Y0108986D01*
X0035644Y0108347D01*
X0035350Y0107638D01*
X0035200Y0106884D01*
X0035200Y0106800D01*
X0041200Y0106800D01*
X0041200Y0106200D01*
X0041500Y0106500D02*
X0045500Y0102500D01*
X0058500Y0102500D01*
X0071500Y0089500D01*
X0071500Y0081500D01*
X0071200Y0081381D02*
X0065400Y0081381D01*
X0065400Y0082379D02*
X0067600Y0082379D01*
X0067863Y0083378D02*
X0065137Y0083378D01*
X0064139Y0084376D02*
X0068861Y0084376D01*
X0069860Y0085375D02*
X0063140Y0085375D01*
X0061500Y0081500D02*
X0048500Y0081500D01*
X0018500Y0111500D01*
X0018500Y0119500D01*
X0011500Y0126500D01*
X0011500Y0136500D02*
X0011500Y0138500D01*
X0004500Y0145500D01*
X0004500Y0149500D01*
X0011500Y0156500D01*
X0027500Y0156500D01*
X0052500Y0181500D01*
X0056500Y0181500D01*
X0056200Y0175400D02*
X0053716Y0175400D01*
X0052962Y0175250D01*
X0052253Y0174956D01*
X0051614Y0174529D01*
X0051071Y0173986D01*
X0050644Y0173347D01*
X0050350Y0172638D01*
X0050200Y0171884D01*
X0050200Y0171800D01*
X0056200Y0171800D01*
X0056200Y0175400D01*
X0056200Y0175241D02*
X0056800Y0175241D01*
X0056800Y0175400D02*
X0056800Y0171800D01*
X0056200Y0171800D01*
X0056200Y0171200D01*
X0056800Y0171200D01*
X0056800Y0171800D01*
X0062800Y0171800D01*
X0062800Y0171884D01*
X0062650Y0172638D01*
X0062356Y0173347D01*
X0061929Y0173986D01*
X0061386Y0174529D01*
X0060747Y0174956D01*
X0060038Y0175250D01*
X0059284Y0175400D01*
X0056800Y0175400D01*
X0056800Y0174242D02*
X0056200Y0174242D01*
X0056200Y0173244D02*
X0056800Y0173244D01*
X0056800Y0172245D02*
X0056200Y0172245D01*
X0056500Y0171500D02*
X0066500Y0181500D01*
X0066500Y0191500D01*
X0053500Y0204500D01*
X0053500Y0227500D01*
X0045500Y0227500D01*
X0041500Y0231500D01*
X0034500Y0231500D01*
X0025500Y0222500D01*
X0025122Y0221972D01*
X0024933Y0221783D02*
X0020472Y0221783D01*
X0020472Y0221606D01*
X0020587Y0220884D01*
X0020813Y0220188D01*
X0021145Y0219536D01*
X0021576Y0218943D01*
X0022093Y0218426D01*
X0022575Y0218076D01*
X0022488Y0218040D01*
X0021180Y0216732D01*
X0020472Y0215023D01*
X0020472Y0213174D01*
X0020728Y0212556D01*
X0014500Y0206328D01*
X0014500Y0200015D01*
X0014500Y0246672D01*
X0020472Y0252644D01*
X0020472Y0252544D01*
X0021180Y0250835D01*
X0022484Y0249531D01*
X0021180Y0248228D01*
X0020472Y0246519D01*
X0020472Y0244670D01*
X0021180Y0242961D01*
X0022488Y0241653D01*
X0024197Y0240945D01*
X0026047Y0240945D01*
X0027756Y0241653D01*
X0029064Y0242961D01*
X0029287Y0243500D01*
X0032985Y0243500D01*
X0032600Y0243115D01*
X0032600Y0239885D01*
X0034885Y0237600D01*
X0038115Y0237600D01*
X0040400Y0239885D01*
X0040400Y0240772D01*
X0041672Y0239500D01*
X0052985Y0239500D01*
X0054828Y0237656D01*
X0052572Y0235400D01*
X0049885Y0235400D01*
X0047600Y0233115D01*
X0047600Y0229885D01*
X0049885Y0227600D01*
X0053115Y0227600D01*
X0055400Y0229885D01*
X0055400Y0232572D01*
X0058328Y0235500D01*
X0059328Y0235500D01*
X0061328Y0237500D01*
X0062500Y0238672D01*
X0062500Y0248328D01*
X0060400Y0250428D01*
X0060400Y0253115D01*
X0058115Y0255400D01*
X0054885Y0255400D01*
X0052600Y0253115D01*
X0052600Y0249885D01*
X0054885Y0247600D01*
X0057572Y0247600D01*
X0058500Y0246672D01*
X0058500Y0245015D01*
X0058115Y0245400D01*
X0054885Y0245400D01*
X0052985Y0243500D01*
X0043328Y0243500D01*
X0040500Y0246328D01*
X0039328Y0247500D01*
X0029365Y0247500D01*
X0029064Y0248228D01*
X0027761Y0249531D01*
X0029064Y0250835D01*
X0029772Y0252544D01*
X0029772Y0254393D01*
X0029064Y0256102D01*
X0028666Y0256500D01*
X0066854Y0256500D01*
X0066456Y0256102D01*
X0065748Y0254393D01*
X0065748Y0252544D01*
X0066456Y0250835D01*
X0067764Y0249527D01*
X0067850Y0249491D01*
X0067369Y0249141D01*
X0066851Y0248623D01*
X0066421Y0248031D01*
X0066089Y0247379D01*
X0065863Y0246683D01*
X0065748Y0245960D01*
X0065748Y0245783D01*
X0070209Y0245783D01*
X0070209Y0245405D01*
X0065748Y0245405D01*
X0065748Y0245229D01*
X0065863Y0244506D01*
X0066089Y0243810D01*
X0066421Y0243158D01*
X0066851Y0242565D01*
X0067369Y0242048D01*
X0067850Y0241698D01*
X0067764Y0241662D01*
X0066456Y0240354D01*
X0065748Y0238645D01*
X0065748Y0236796D01*
X0066456Y0235087D01*
X0067764Y0233779D01*
X0069473Y0233071D01*
X0071323Y0233071D01*
X0073031Y0233779D01*
X0074339Y0235087D01*
X0075047Y0236796D01*
X0075047Y0238645D01*
X0074586Y0239758D01*
X0077500Y0242672D01*
X0077500Y0244328D01*
X0077500Y0256328D01*
X0076328Y0257500D01*
X0073328Y0260500D01*
X0022672Y0260500D01*
X0021500Y0259328D01*
X0010500Y0248328D01*
X0010500Y0193672D01*
X0011672Y0192500D01*
X0013672Y0190500D01*
X0015672Y0190500D01*
X0015772Y0190400D01*
X0014885Y0190400D01*
X0012600Y0188115D01*
X0012600Y0184885D01*
X0014885Y0182600D01*
X0018115Y0182600D01*
X0020400Y0184885D01*
X0020400Y0185772D01*
X0031672Y0174500D01*
X0032985Y0174500D01*
X0034885Y0172600D01*
X0038115Y0172600D01*
X0040400Y0174885D01*
X0040400Y0178115D01*
X0038115Y0180400D01*
X0034885Y0180400D01*
X0033156Y0178672D01*
X0018672Y0193156D01*
X0020400Y0194885D01*
X0020400Y0198115D01*
X0018500Y0200015D01*
X0018500Y0204672D01*
X0023547Y0209718D01*
X0024197Y0209449D01*
X0026047Y0209449D01*
X0027756Y0210157D01*
X0029064Y0211465D01*
X0029772Y0213174D01*
X0029772Y0215023D01*
X0029064Y0216732D01*
X0027756Y0218040D01*
X0027669Y0218076D01*
X0028151Y0218426D01*
X0028669Y0218943D01*
X0029099Y0219536D01*
X0029431Y0220188D01*
X0029657Y0220884D01*
X0029772Y0221606D01*
X0029772Y0221783D01*
X0025311Y0221783D01*
X0025311Y0222161D01*
X0029772Y0222161D01*
X0029772Y0222338D01*
X0029657Y0223061D01*
X0029431Y0223757D01*
X0029099Y0224409D01*
X0028669Y0225001D01*
X0028151Y0225519D01*
X0027669Y0225869D01*
X0027756Y0225905D01*
X0029064Y0227213D01*
X0029772Y0228922D01*
X0029772Y0230771D01*
X0029064Y0232480D01*
X0027756Y0233788D01*
X0026047Y0234496D01*
X0024197Y0234496D01*
X0022488Y0233788D01*
X0021180Y0232480D01*
X0020472Y0230771D01*
X0020472Y0228922D01*
X0021180Y0227213D01*
X0022488Y0225905D01*
X0022575Y0225869D01*
X0022093Y0225519D01*
X0021576Y0225001D01*
X0021145Y0224409D01*
X0020813Y0223757D01*
X0020587Y0223061D01*
X0020472Y0222338D01*
X0020472Y0222161D01*
X0024933Y0222161D01*
X0024933Y0221783D01*
X0022436Y0218177D02*
X0014500Y0218177D01*
X0014500Y0219175D02*
X0021407Y0219175D01*
X0020820Y0220174D02*
X0014500Y0220174D01*
X0014500Y0221172D02*
X0020541Y0221172D01*
X0020472Y0222171D02*
X0014500Y0222171D01*
X0014500Y0223170D02*
X0020622Y0223170D01*
X0021022Y0224168D02*
X0014500Y0224168D01*
X0014500Y0225167D02*
X0021741Y0225167D01*
X0022228Y0226165D02*
X0014500Y0226165D01*
X0014500Y0227164D02*
X0021229Y0227164D01*
X0020787Y0228162D02*
X0014500Y0228162D01*
X0014500Y0229161D02*
X0020472Y0229161D01*
X0020472Y0230159D02*
X0014500Y0230159D01*
X0014500Y0231158D02*
X0020632Y0231158D01*
X0021046Y0232156D02*
X0014500Y0232156D01*
X0014500Y0233155D02*
X0021855Y0233155D01*
X0023369Y0234153D02*
X0014500Y0234153D01*
X0014500Y0235152D02*
X0039636Y0235152D01*
X0039885Y0235400D02*
X0037600Y0233115D01*
X0037600Y0231800D01*
X0041200Y0231800D01*
X0041200Y0235400D01*
X0039885Y0235400D01*
X0038638Y0234153D02*
X0026875Y0234153D01*
X0028389Y0233155D02*
X0037639Y0233155D01*
X0037600Y0232156D02*
X0029198Y0232156D01*
X0029612Y0231158D02*
X0037600Y0231158D01*
X0037600Y0231200D02*
X0037600Y0229885D01*
X0039885Y0227600D01*
X0041200Y0227600D01*
X0041200Y0231200D01*
X0041800Y0231200D01*
X0041800Y0231800D01*
X0045400Y0231800D01*
X0045400Y0233115D01*
X0043115Y0235400D01*
X0041800Y0235400D01*
X0041800Y0231800D01*
X0041200Y0231800D01*
X0041200Y0231200D01*
X0037600Y0231200D01*
X0037600Y0230159D02*
X0029772Y0230159D01*
X0029772Y0229161D02*
X0038324Y0229161D01*
X0039323Y0228162D02*
X0029457Y0228162D01*
X0029015Y0227164D02*
X0091551Y0227164D01*
X0091551Y0228162D02*
X0053677Y0228162D01*
X0053500Y0227500D02*
X0069500Y0243500D01*
X0069500Y0245500D01*
X0070398Y0245594D01*
X0075500Y0243500D02*
X0070500Y0238500D01*
X0070398Y0237720D01*
X0071525Y0233155D02*
X0091551Y0233155D01*
X0091551Y0234153D02*
X0073406Y0234153D01*
X0074366Y0235152D02*
X0091551Y0235152D01*
X0091551Y0236150D02*
X0074780Y0236150D01*
X0075047Y0237149D02*
X0091551Y0237149D01*
X0091551Y0238147D02*
X0075047Y0238147D01*
X0074840Y0239146D02*
X0091551Y0239146D01*
X0091551Y0240144D02*
X0074973Y0240144D01*
X0075971Y0241143D02*
X0091551Y0241143D01*
X0091551Y0242141D02*
X0076970Y0242141D01*
X0077500Y0243140D02*
X0091551Y0243140D01*
X0091551Y0244138D02*
X0077500Y0244138D01*
X0077500Y0245137D02*
X0091551Y0245137D01*
X0091551Y0246135D02*
X0077500Y0246135D01*
X0077500Y0247134D02*
X0091551Y0247134D01*
X0091551Y0248132D02*
X0077500Y0248132D01*
X0077500Y0249131D02*
X0091551Y0249131D01*
X0091551Y0250129D02*
X0077500Y0250129D01*
X0077500Y0251128D02*
X0091551Y0251128D01*
X0091551Y0252126D02*
X0077500Y0252126D01*
X0077500Y0253125D02*
X0091551Y0253125D01*
X0091551Y0254123D02*
X0077500Y0254123D01*
X0077500Y0255122D02*
X0091551Y0255122D01*
X0091551Y0256120D02*
X0077500Y0256120D01*
X0076710Y0257119D02*
X0091551Y0257119D01*
X0091551Y0258117D02*
X0075711Y0258117D01*
X0074712Y0259116D02*
X0091551Y0259116D01*
X0091551Y0260114D02*
X0073714Y0260114D01*
X0072500Y0258500D02*
X0075500Y0255500D01*
X0075500Y0243500D01*
X0072500Y0258500D02*
X0023500Y0258500D01*
X0012500Y0247500D01*
X0012500Y0194500D01*
X0014500Y0192500D01*
X0016500Y0192500D01*
X0032500Y0176500D01*
X0036500Y0176500D01*
X0038759Y0173244D02*
X0041416Y0173244D01*
X0042414Y0174242D02*
X0039758Y0174242D01*
X0040400Y0175241D02*
X0043413Y0175241D01*
X0044411Y0176239D02*
X0040400Y0176239D01*
X0040400Y0177238D02*
X0045410Y0177238D01*
X0046408Y0178237D02*
X0040279Y0178237D01*
X0039280Y0179235D02*
X0047407Y0179235D01*
X0048405Y0180234D02*
X0038282Y0180234D01*
X0038115Y0182600D02*
X0040400Y0184885D01*
X0040400Y0188115D01*
X0038115Y0190400D01*
X0034885Y0190400D01*
X0032600Y0188115D01*
X0032600Y0184885D01*
X0034885Y0182600D01*
X0038115Y0182600D01*
X0038744Y0183229D02*
X0050595Y0183229D01*
X0050200Y0182231D02*
X0029598Y0182231D01*
X0028599Y0183229D02*
X0034256Y0183229D01*
X0033257Y0184228D02*
X0027601Y0184228D01*
X0026602Y0185226D02*
X0032600Y0185226D01*
X0032600Y0186225D02*
X0025604Y0186225D01*
X0024605Y0187223D02*
X0032600Y0187223D01*
X0032706Y0188222D02*
X0023607Y0188222D01*
X0022608Y0189220D02*
X0033705Y0189220D01*
X0034703Y0190219D02*
X0021610Y0190219D01*
X0020611Y0191217D02*
X0066200Y0191217D01*
X0066200Y0190219D02*
X0066800Y0190219D01*
X0066800Y0189220D02*
X0066200Y0189220D01*
X0066200Y0188222D02*
X0066800Y0188222D01*
X0068500Y0187223D02*
X0040400Y0187223D01*
X0040400Y0186225D02*
X0068500Y0186225D01*
X0068500Y0185226D02*
X0060096Y0185226D01*
X0061688Y0184228D02*
X0068500Y0184228D01*
X0068500Y0183229D02*
X0062405Y0183229D01*
X0062800Y0182231D02*
X0068500Y0182231D01*
X0068500Y0181232D02*
X0062800Y0181232D01*
X0062597Y0180234D02*
X0068500Y0180234D01*
X0068500Y0179235D02*
X0062150Y0179235D01*
X0061152Y0178237D02*
X0068500Y0178237D01*
X0068500Y0177238D02*
X0051066Y0177238D01*
X0050068Y0176239D02*
X0068500Y0176239D01*
X0068500Y0175241D02*
X0060060Y0175241D01*
X0061673Y0174242D02*
X0068500Y0174242D01*
X0068500Y0173244D02*
X0062399Y0173244D01*
X0062728Y0172245D02*
X0068500Y0172245D01*
X0068500Y0171247D02*
X0056800Y0171247D01*
X0056800Y0171200D02*
X0062800Y0171200D01*
X0062800Y0171116D01*
X0062650Y0170362D01*
X0062356Y0169653D01*
X0061929Y0169014D01*
X0061386Y0168471D01*
X0060747Y0168044D01*
X0060038Y0167750D01*
X0059284Y0167600D01*
X0056800Y0167600D01*
X0056800Y0171200D01*
X0056500Y0171500D02*
X0056500Y0161500D01*
X0056800Y0161262D02*
X0066500Y0161262D01*
X0066500Y0162260D02*
X0062725Y0162260D01*
X0062800Y0161884D02*
X0062650Y0162638D01*
X0062356Y0163347D01*
X0061929Y0163986D01*
X0061386Y0164529D01*
X0060747Y0164956D01*
X0060038Y0165250D01*
X0059284Y0165400D01*
X0056800Y0165400D01*
X0056800Y0161800D01*
X0056200Y0161800D01*
X0056200Y0165400D01*
X0053716Y0165400D01*
X0052962Y0165250D01*
X0052253Y0164956D01*
X0051614Y0164529D01*
X0051071Y0163986D01*
X0050644Y0163347D01*
X0050350Y0162638D01*
X0050200Y0161884D01*
X0050200Y0161800D01*
X0056200Y0161800D01*
X0056200Y0161200D01*
X0056800Y0161200D01*
X0056800Y0161800D01*
X0062800Y0161800D01*
X0062800Y0161884D01*
X0062800Y0161200D02*
X0056800Y0161200D01*
X0056800Y0157600D01*
X0059284Y0157600D01*
X0060038Y0157750D01*
X0060747Y0158044D01*
X0061386Y0158471D01*
X0061929Y0159014D01*
X0062356Y0159653D01*
X0062650Y0160362D01*
X0062800Y0161116D01*
X0062800Y0161200D01*
X0062609Y0160263D02*
X0066500Y0160263D01*
X0066500Y0159265D02*
X0062097Y0159265D01*
X0061080Y0158266D02*
X0066500Y0158266D01*
X0066500Y0157268D02*
X0047800Y0157268D01*
X0047800Y0157276D02*
X0047206Y0158709D01*
X0046109Y0159806D01*
X0044676Y0160400D01*
X0038324Y0160400D01*
X0036891Y0159806D01*
X0035794Y0158709D01*
X0035200Y0157276D01*
X0035200Y0155724D01*
X0035794Y0154291D01*
X0036891Y0153194D01*
X0037226Y0153055D01*
X0033672Y0149500D01*
X0033672Y0149500D01*
X0032500Y0148328D01*
X0032500Y0124672D01*
X0037226Y0119945D01*
X0036891Y0119806D01*
X0035794Y0118709D01*
X0035200Y0117276D01*
X0035200Y0115724D01*
X0035794Y0114291D01*
X0036891Y0113194D01*
X0038324Y0112600D01*
X0044676Y0112600D01*
X0046109Y0113194D01*
X0047206Y0114291D01*
X0047800Y0115724D01*
X0047800Y0117276D01*
X0047293Y0118500D01*
X0050707Y0118500D01*
X0050200Y0117276D01*
X0050200Y0115724D01*
X0050794Y0114291D01*
X0051891Y0113194D01*
X0053324Y0112600D01*
X0059676Y0112600D01*
X0061109Y0113194D01*
X0062206Y0114291D01*
X0062800Y0115724D01*
X0062800Y0117276D01*
X0062206Y0118709D01*
X0061109Y0119806D01*
X0059676Y0120400D01*
X0055428Y0120400D01*
X0053328Y0122500D01*
X0040328Y0122500D01*
X0040228Y0122600D01*
X0041200Y0122600D01*
X0041200Y0126200D01*
X0041800Y0126200D01*
X0041800Y0126800D01*
X0041200Y0126800D01*
X0041200Y0130400D01*
X0038716Y0130400D01*
X0037962Y0130250D01*
X0037253Y0129956D01*
X0036614Y0129529D01*
X0036500Y0129415D01*
X0036500Y0133585D01*
X0036891Y0133194D01*
X0038324Y0132600D01*
X0044676Y0132600D01*
X0046109Y0133194D01*
X0047206Y0134291D01*
X0047800Y0135724D01*
X0047800Y0137276D01*
X0047206Y0138709D01*
X0046109Y0139806D01*
X0044676Y0140400D01*
X0038324Y0140400D01*
X0036891Y0139806D01*
X0036500Y0139415D01*
X0036500Y0143585D01*
X0036614Y0143471D01*
X0037253Y0143044D01*
X0037962Y0142750D01*
X0038716Y0142600D01*
X0041200Y0142600D01*
X0041200Y0146200D01*
X0041800Y0146200D01*
X0041800Y0146800D01*
X0041200Y0146800D01*
X0041200Y0150400D01*
X0040228Y0150400D01*
X0042428Y0152600D01*
X0044676Y0152600D01*
X0046109Y0153194D01*
X0047206Y0154291D01*
X0047800Y0155724D01*
X0047800Y0157276D01*
X0047800Y0156269D02*
X0066500Y0156269D01*
X0066500Y0155271D02*
X0059934Y0155271D01*
X0060038Y0155250D02*
X0059284Y0155400D01*
X0056800Y0155400D01*
X0056800Y0151800D01*
X0056200Y0151800D01*
X0056200Y0155400D01*
X0053716Y0155400D01*
X0052962Y0155250D01*
X0052253Y0154956D01*
X0051614Y0154529D01*
X0051071Y0153986D01*
X0050644Y0153347D01*
X0050350Y0152638D01*
X0050200Y0151884D01*
X0050200Y0151800D01*
X0056200Y0151800D01*
X0056200Y0151200D01*
X0056800Y0151200D01*
X0056800Y0151800D01*
X0062800Y0151800D01*
X0062800Y0151884D01*
X0062650Y0152638D01*
X0062356Y0153347D01*
X0061929Y0153986D01*
X0061386Y0154529D01*
X0060747Y0154956D01*
X0060038Y0155250D01*
X0061643Y0154272D02*
X0066500Y0154272D01*
X0066500Y0153274D02*
X0062387Y0153274D01*
X0062722Y0152275D02*
X0066500Y0152275D01*
X0066500Y0151277D02*
X0056800Y0151277D01*
X0056800Y0151200D02*
X0062800Y0151200D01*
X0062800Y0151116D01*
X0062650Y0150362D01*
X0062356Y0149653D01*
X0061929Y0149014D01*
X0061386Y0148471D01*
X0060747Y0148044D01*
X0060038Y0147750D01*
X0059284Y0147600D01*
X0056800Y0147600D01*
X0056800Y0151200D01*
X0056500Y0151500D02*
X0053500Y0148500D01*
X0054500Y0148500D01*
X0066500Y0136500D01*
X0066200Y0136299D02*
X0047800Y0136299D01*
X0047791Y0137298D02*
X0062600Y0137298D01*
X0062781Y0138296D02*
X0047377Y0138296D01*
X0046621Y0139295D02*
X0063779Y0139295D01*
X0064778Y0140293D02*
X0044934Y0140293D01*
X0044284Y0142600D02*
X0045038Y0142750D01*
X0045747Y0143044D01*
X0046386Y0143471D01*
X0046929Y0144014D01*
X0047356Y0144653D01*
X0047650Y0145362D01*
X0047800Y0146116D01*
X0047800Y0146200D01*
X0041800Y0146200D01*
X0041800Y0142600D01*
X0044284Y0142600D01*
X0046114Y0143289D02*
X0066500Y0143289D01*
X0066500Y0144287D02*
X0047112Y0144287D01*
X0047618Y0145286D02*
X0066500Y0145286D01*
X0066500Y0146284D02*
X0041800Y0146284D01*
X0041500Y0146500D02*
X0048500Y0146500D01*
X0048500Y0135500D01*
X0041500Y0128500D01*
X0041500Y0126500D01*
X0041800Y0126314D02*
X0050200Y0126314D01*
X0050200Y0125724D02*
X0050200Y0127276D01*
X0050794Y0128709D01*
X0051891Y0129806D01*
X0053324Y0130400D01*
X0059676Y0130400D01*
X0061109Y0129806D01*
X0062206Y0128709D01*
X0062800Y0127276D01*
X0062800Y0125724D01*
X0062206Y0124291D01*
X0061109Y0123194D01*
X0059676Y0122600D01*
X0053324Y0122600D01*
X0051891Y0123194D01*
X0050794Y0124291D01*
X0050200Y0125724D01*
X0050369Y0125315D02*
X0047631Y0125315D01*
X0047650Y0125362D02*
X0047800Y0126116D01*
X0047800Y0126200D01*
X0041800Y0126200D01*
X0041800Y0122600D01*
X0044284Y0122600D01*
X0045038Y0122750D01*
X0045747Y0123044D01*
X0046386Y0123471D01*
X0046929Y0124014D01*
X0047356Y0124653D01*
X0047650Y0125362D01*
X0047132Y0124317D02*
X0050783Y0124317D01*
X0051766Y0123318D02*
X0046158Y0123318D01*
X0047800Y0126884D02*
X0047650Y0127638D01*
X0047356Y0128347D01*
X0046929Y0128986D01*
X0046386Y0129529D01*
X0045747Y0129956D01*
X0045038Y0130250D01*
X0044284Y0130400D01*
X0041800Y0130400D01*
X0041800Y0126800D01*
X0047800Y0126800D01*
X0047800Y0126884D01*
X0047715Y0127312D02*
X0050215Y0127312D01*
X0050629Y0128311D02*
X0047371Y0128311D01*
X0046606Y0129309D02*
X0051394Y0129309D01*
X0053102Y0130308D02*
X0044747Y0130308D01*
X0046219Y0133303D02*
X0064181Y0133303D01*
X0063183Y0134302D02*
X0047211Y0134302D01*
X0047624Y0135301D02*
X0062600Y0135301D01*
X0061606Y0129309D02*
X0070500Y0129309D01*
X0070500Y0128311D02*
X0062371Y0128311D01*
X0062785Y0127312D02*
X0070500Y0127312D01*
X0070500Y0126314D02*
X0062800Y0126314D01*
X0062631Y0125315D02*
X0070500Y0125315D01*
X0070500Y0124317D02*
X0062217Y0124317D01*
X0061234Y0123318D02*
X0070500Y0123318D01*
X0070500Y0122320D02*
X0053509Y0122320D01*
X0052500Y0120500D02*
X0056500Y0116500D01*
X0054507Y0121321D02*
X0070500Y0121321D01*
X0070500Y0120323D02*
X0059862Y0120323D01*
X0061591Y0119324D02*
X0070500Y0119324D01*
X0070500Y0118326D02*
X0062365Y0118326D01*
X0062779Y0117327D02*
X0070500Y0117327D01*
X0070500Y0116329D02*
X0062800Y0116329D01*
X0062637Y0115330D02*
X0070500Y0115330D01*
X0070500Y0114332D02*
X0062223Y0114332D01*
X0061249Y0113333D02*
X0070500Y0113333D01*
X0070500Y0112335D02*
X0020500Y0112335D01*
X0020500Y0113333D02*
X0036751Y0113333D01*
X0035777Y0114332D02*
X0020500Y0114332D01*
X0020500Y0115330D02*
X0035363Y0115330D01*
X0035200Y0116329D02*
X0020500Y0116329D01*
X0020500Y0117327D02*
X0035221Y0117327D01*
X0035635Y0118326D02*
X0020500Y0118326D01*
X0020500Y0119324D02*
X0036409Y0119324D01*
X0036849Y0120323D02*
X0020500Y0120323D01*
X0019507Y0121321D02*
X0035850Y0121321D01*
X0034852Y0122320D02*
X0018509Y0122320D01*
X0017510Y0123318D02*
X0033853Y0123318D01*
X0032855Y0124317D02*
X0017217Y0124317D01*
X0017631Y0125315D02*
X0032500Y0125315D01*
X0032500Y0126314D02*
X0017800Y0126314D01*
X0017785Y0127312D02*
X0032500Y0127312D01*
X0032500Y0128311D02*
X0017371Y0128311D01*
X0016606Y0129309D02*
X0032500Y0129309D01*
X0032500Y0134302D02*
X0017211Y0134302D01*
X0017624Y0135301D02*
X0032500Y0135301D01*
X0032500Y0136299D02*
X0017800Y0136299D01*
X0017791Y0137298D02*
X0032500Y0137298D01*
X0032500Y0138296D02*
X0017377Y0138296D01*
X0016621Y0139295D02*
X0032500Y0139295D01*
X0032500Y0140293D02*
X0014934Y0140293D01*
X0016204Y0143289D02*
X0032500Y0143289D01*
X0032500Y0144287D02*
X0017203Y0144287D01*
X0017618Y0145286D02*
X0032500Y0145286D01*
X0032500Y0146284D02*
X0017800Y0146284D01*
X0017797Y0147283D02*
X0032500Y0147283D01*
X0032500Y0148281D02*
X0017384Y0148281D01*
X0016636Y0149280D02*
X0033451Y0149280D01*
X0034450Y0150278D02*
X0014970Y0150278D01*
X0016189Y0153274D02*
X0036811Y0153274D01*
X0036447Y0152275D02*
X0010104Y0152275D01*
X0009105Y0151277D02*
X0035448Y0151277D01*
X0035812Y0154272D02*
X0017188Y0154272D01*
X0016651Y0159265D02*
X0027436Y0159265D01*
X0028435Y0160263D02*
X0015006Y0160263D01*
X0017600Y0164885D02*
X0017600Y0166200D01*
X0021200Y0166200D01*
X0021800Y0166200D01*
X0021800Y0166800D01*
X0025400Y0166800D01*
X0025400Y0168115D01*
X0023115Y0170400D01*
X0021800Y0170400D01*
X0021800Y0166800D01*
X0021200Y0166800D01*
X0021200Y0170400D01*
X0019885Y0170400D01*
X0017600Y0168115D01*
X0017600Y0166800D01*
X0021200Y0166800D01*
X0021200Y0166200D01*
X0021200Y0162600D01*
X0019885Y0162600D01*
X0017600Y0164885D01*
X0017600Y0165256D02*
X0003968Y0165256D01*
X0003968Y0166254D02*
X0021200Y0166254D01*
X0021800Y0166254D02*
X0027600Y0166254D01*
X0027600Y0165256D02*
X0025400Y0165256D01*
X0025400Y0164885D02*
X0025400Y0166200D01*
X0021800Y0166200D01*
X0021800Y0162600D01*
X0023115Y0162600D01*
X0025400Y0164885D01*
X0024773Y0164257D02*
X0028227Y0164257D01*
X0029226Y0163259D02*
X0023774Y0163259D01*
X0021800Y0163259D02*
X0021200Y0163259D01*
X0021200Y0164257D02*
X0021800Y0164257D01*
X0021800Y0165256D02*
X0021200Y0165256D01*
X0021200Y0167253D02*
X0021800Y0167253D01*
X0021800Y0168251D02*
X0021200Y0168251D01*
X0021200Y0169250D02*
X0021800Y0169250D01*
X0021800Y0170248D02*
X0021200Y0170248D01*
X0019733Y0170248D02*
X0003968Y0170248D01*
X0003968Y0169250D02*
X0018734Y0169250D01*
X0017736Y0168251D02*
X0003968Y0168251D01*
X0003968Y0167253D02*
X0017600Y0167253D01*
X0018227Y0164257D02*
X0003968Y0164257D01*
X0003968Y0163259D02*
X0019226Y0163259D01*
X0023267Y0170248D02*
X0029733Y0170248D01*
X0028734Y0169250D02*
X0024266Y0169250D01*
X0025264Y0168251D02*
X0027736Y0168251D01*
X0027600Y0167253D02*
X0025400Y0167253D01*
X0029433Y0161262D02*
X0003968Y0161262D01*
X0003968Y0162260D02*
X0030432Y0162260D01*
X0032095Y0158266D02*
X0035610Y0158266D01*
X0035200Y0157268D02*
X0031096Y0157268D01*
X0030098Y0156269D02*
X0035200Y0156269D01*
X0035388Y0155271D02*
X0029099Y0155271D01*
X0033093Y0159265D02*
X0036349Y0159265D01*
X0037994Y0160263D02*
X0034092Y0160263D01*
X0035090Y0161262D02*
X0056200Y0161262D01*
X0056200Y0161200D02*
X0050200Y0161200D01*
X0050200Y0161116D01*
X0050350Y0160362D01*
X0050644Y0159653D01*
X0051071Y0159014D01*
X0051614Y0158471D01*
X0052253Y0158044D01*
X0052962Y0157750D01*
X0053716Y0157600D01*
X0056200Y0157600D01*
X0056200Y0161200D01*
X0056200Y0160263D02*
X0056800Y0160263D01*
X0056800Y0159265D02*
X0056200Y0159265D01*
X0056200Y0158266D02*
X0056800Y0158266D01*
X0056800Y0155271D02*
X0056200Y0155271D01*
X0056200Y0154272D02*
X0056800Y0154272D01*
X0056800Y0153274D02*
X0056200Y0153274D01*
X0056200Y0152275D02*
X0056800Y0152275D01*
X0056200Y0151277D02*
X0041105Y0151277D01*
X0041200Y0150278D02*
X0041800Y0150278D01*
X0041800Y0150400D02*
X0041800Y0146800D01*
X0047800Y0146800D01*
X0047800Y0146884D01*
X0047650Y0147638D01*
X0047356Y0148347D01*
X0046929Y0148986D01*
X0046386Y0149529D01*
X0045747Y0149956D01*
X0045038Y0150250D01*
X0044284Y0150400D01*
X0041800Y0150400D01*
X0041800Y0149280D02*
X0041200Y0149280D01*
X0041200Y0148281D02*
X0041800Y0148281D01*
X0041800Y0147283D02*
X0041200Y0147283D01*
X0041200Y0145286D02*
X0041800Y0145286D01*
X0041800Y0144287D02*
X0041200Y0144287D01*
X0041200Y0143289D02*
X0041800Y0143289D01*
X0044896Y0150278D02*
X0050385Y0150278D01*
X0050350Y0150362D02*
X0050644Y0149653D01*
X0051071Y0149014D01*
X0051614Y0148471D01*
X0052253Y0148044D01*
X0052962Y0147750D01*
X0053716Y0147600D01*
X0056200Y0147600D01*
X0056200Y0151200D01*
X0050200Y0151200D01*
X0050200Y0151116D01*
X0050350Y0150362D01*
X0050893Y0149280D02*
X0046636Y0149280D01*
X0047384Y0148281D02*
X0051897Y0148281D01*
X0053500Y0148500D02*
X0051500Y0146500D01*
X0048500Y0146500D01*
X0047721Y0147283D02*
X0066500Y0147283D01*
X0066500Y0148281D02*
X0061102Y0148281D01*
X0062107Y0149280D02*
X0066500Y0149280D01*
X0066500Y0150278D02*
X0062615Y0150278D01*
X0066500Y0142290D02*
X0036500Y0142290D01*
X0036500Y0141292D02*
X0066500Y0141292D01*
X0066500Y0140293D02*
X0066200Y0140293D01*
X0066200Y0139295D02*
X0066800Y0139295D01*
X0066800Y0138296D02*
X0066200Y0138296D01*
X0066200Y0137298D02*
X0066800Y0137298D01*
X0066800Y0135301D02*
X0066200Y0135301D01*
X0066200Y0134302D02*
X0066800Y0134302D01*
X0066800Y0133303D02*
X0066200Y0133303D01*
X0068819Y0133303D02*
X0070500Y0133303D01*
X0070500Y0132305D02*
X0036500Y0132305D01*
X0036500Y0133303D02*
X0036781Y0133303D01*
X0036500Y0131306D02*
X0070500Y0131306D01*
X0070500Y0130308D02*
X0059898Y0130308D01*
X0056800Y0148281D02*
X0056200Y0148281D01*
X0056200Y0149280D02*
X0056800Y0149280D01*
X0056800Y0150278D02*
X0056200Y0150278D01*
X0053066Y0155271D02*
X0047612Y0155271D01*
X0047188Y0154272D02*
X0051357Y0154272D01*
X0050613Y0153274D02*
X0046189Y0153274D01*
X0047390Y0158266D02*
X0051920Y0158266D01*
X0050903Y0159265D02*
X0046651Y0159265D01*
X0045006Y0160263D02*
X0050391Y0160263D01*
X0050275Y0162260D02*
X0036089Y0162260D01*
X0037087Y0163259D02*
X0050607Y0163259D01*
X0051342Y0164257D02*
X0038086Y0164257D01*
X0039084Y0165256D02*
X0052991Y0165256D01*
X0053716Y0167600D02*
X0052962Y0167750D01*
X0052253Y0168044D01*
X0051614Y0168471D01*
X0051071Y0169014D01*
X0050644Y0169653D01*
X0050350Y0170362D01*
X0050200Y0171116D01*
X0050200Y0171200D01*
X0056200Y0171200D01*
X0056200Y0167600D01*
X0053716Y0167600D01*
X0051942Y0168251D02*
X0042080Y0168251D01*
X0043078Y0169250D02*
X0050913Y0169250D01*
X0050397Y0170248D02*
X0044077Y0170248D01*
X0045075Y0171247D02*
X0056200Y0171247D01*
X0056200Y0170248D02*
X0056800Y0170248D01*
X0056800Y0169250D02*
X0056200Y0169250D01*
X0056200Y0168251D02*
X0056800Y0168251D01*
X0056800Y0165256D02*
X0056200Y0165256D01*
X0056200Y0164257D02*
X0056800Y0164257D01*
X0056800Y0163259D02*
X0056200Y0163259D01*
X0056200Y0162260D02*
X0056800Y0162260D01*
X0060009Y0165256D02*
X0066500Y0165256D01*
X0066500Y0166254D02*
X0040083Y0166254D01*
X0041081Y0167253D02*
X0066500Y0167253D01*
X0067423Y0168251D02*
X0061058Y0168251D01*
X0062087Y0169250D02*
X0068421Y0169250D01*
X0068500Y0170248D02*
X0062603Y0170248D01*
X0061658Y0164257D02*
X0066500Y0164257D01*
X0066500Y0163259D02*
X0062393Y0163259D01*
X0068500Y0166500D02*
X0068500Y0140500D01*
X0072500Y0136500D01*
X0072500Y0091500D01*
X0074500Y0089500D01*
X0074500Y0084500D01*
X0075500Y0083500D01*
X0075500Y0079500D01*
X0047500Y0051500D01*
X0046500Y0051500D01*
X0048591Y0055420D02*
X0029658Y0055420D01*
X0029772Y0056418D02*
X0049590Y0056418D01*
X0050588Y0057417D02*
X0029772Y0057417D01*
X0029410Y0058415D02*
X0039269Y0058415D01*
X0039491Y0058194D02*
X0040924Y0057600D01*
X0047276Y0057600D01*
X0048709Y0058194D01*
X0049806Y0059291D01*
X0050400Y0060724D01*
X0050400Y0062276D01*
X0049806Y0063709D01*
X0048709Y0064806D01*
X0047276Y0065400D01*
X0040924Y0065400D01*
X0039491Y0064806D01*
X0038394Y0063709D01*
X0037800Y0062276D01*
X0037800Y0060724D01*
X0038394Y0059291D01*
X0039491Y0058194D01*
X0038343Y0059414D02*
X0028902Y0059414D01*
X0027904Y0060412D02*
X0037929Y0060412D01*
X0037800Y0061411D02*
X0028616Y0061411D01*
X0029279Y0062409D02*
X0037855Y0062409D01*
X0038269Y0063408D02*
X0029658Y0063408D01*
X0029685Y0065405D02*
X0058576Y0065405D01*
X0057578Y0064406D02*
X0049109Y0064406D01*
X0049931Y0063408D02*
X0056579Y0063408D01*
X0055581Y0062409D02*
X0050345Y0062409D01*
X0050400Y0061411D02*
X0054582Y0061411D01*
X0053584Y0060412D02*
X0050271Y0060412D01*
X0049857Y0059414D02*
X0052585Y0059414D01*
X0054248Y0055420D02*
X0067591Y0055420D01*
X0068590Y0056418D02*
X0055247Y0056418D01*
X0056245Y0057417D02*
X0069588Y0057417D01*
X0070587Y0058415D02*
X0057244Y0058415D01*
X0058242Y0059414D02*
X0071585Y0059414D01*
X0072584Y0060412D02*
X0059241Y0060412D01*
X0060239Y0061411D02*
X0072600Y0061411D01*
X0072655Y0062409D02*
X0061238Y0062409D01*
X0062236Y0063408D02*
X0073069Y0063408D01*
X0073891Y0064406D02*
X0063235Y0064406D01*
X0064233Y0065405D02*
X0091551Y0065405D01*
X0091551Y0066403D02*
X0065232Y0066403D01*
X0066230Y0067402D02*
X0091551Y0067402D01*
X0091551Y0068400D02*
X0083716Y0068400D01*
X0083509Y0068194D02*
X0084606Y0069291D01*
X0085200Y0070724D01*
X0085200Y0072276D01*
X0084606Y0073709D01*
X0083509Y0074806D01*
X0082076Y0075400D01*
X0075724Y0075400D01*
X0074291Y0074806D01*
X0073194Y0073709D01*
X0072600Y0072276D01*
X0072600Y0070724D01*
X0073194Y0069291D01*
X0074291Y0068194D01*
X0075724Y0067600D01*
X0082076Y0067600D01*
X0083509Y0068194D01*
X0084651Y0069399D02*
X0091551Y0069399D01*
X0091551Y0070397D02*
X0085065Y0070397D01*
X0085200Y0071396D02*
X0091551Y0071396D01*
X0091551Y0072394D02*
X0085151Y0072394D01*
X0084737Y0073393D02*
X0091551Y0073393D01*
X0091551Y0074391D02*
X0083924Y0074391D01*
X0082100Y0075390D02*
X0091551Y0075390D01*
X0091551Y0076388D02*
X0075217Y0076388D01*
X0075700Y0075390D02*
X0074218Y0075390D01*
X0073876Y0074391D02*
X0073220Y0074391D01*
X0073063Y0073393D02*
X0072221Y0073393D01*
X0072649Y0072394D02*
X0071223Y0072394D01*
X0070224Y0071396D02*
X0072600Y0071396D01*
X0072735Y0070397D02*
X0069226Y0070397D01*
X0068227Y0069399D02*
X0073149Y0069399D01*
X0074084Y0068400D02*
X0067229Y0068400D01*
X0065566Y0072394D02*
X0050351Y0072394D01*
X0050400Y0072276D02*
X0049806Y0073709D01*
X0048709Y0074806D01*
X0047276Y0075400D01*
X0040924Y0075400D01*
X0039491Y0074806D01*
X0038394Y0073709D01*
X0037800Y0072276D01*
X0037800Y0070724D01*
X0038394Y0069291D01*
X0039491Y0068194D01*
X0040924Y0067600D01*
X0047276Y0067600D01*
X0048709Y0068194D01*
X0049806Y0069291D01*
X0050400Y0070724D01*
X0050400Y0072276D01*
X0050400Y0071396D02*
X0064567Y0071396D01*
X0063569Y0070397D02*
X0050265Y0070397D01*
X0049851Y0069399D02*
X0062570Y0069399D01*
X0061572Y0068400D02*
X0048916Y0068400D01*
X0049937Y0073393D02*
X0066564Y0073393D01*
X0067563Y0074391D02*
X0049124Y0074391D01*
X0047300Y0075390D02*
X0068561Y0075390D01*
X0069560Y0076388D02*
X0032217Y0076388D01*
X0031218Y0075390D02*
X0040900Y0075390D01*
X0039076Y0074391D02*
X0030220Y0074391D01*
X0029729Y0073393D02*
X0038263Y0073393D01*
X0037849Y0072394D02*
X0029772Y0072394D01*
X0029753Y0071396D02*
X0037800Y0071396D01*
X0037935Y0070397D02*
X0029339Y0070397D01*
X0028730Y0069399D02*
X0038349Y0069399D01*
X0039284Y0068400D02*
X0027698Y0068400D01*
X0028755Y0067402D02*
X0060573Y0067402D01*
X0059575Y0066403D02*
X0029367Y0066403D01*
X0025500Y0063500D02*
X0030500Y0058500D01*
X0030500Y0050500D01*
X0025500Y0045500D01*
X0025500Y0041500D01*
X0025122Y0040870D01*
X0026026Y0045434D02*
X0057606Y0045434D01*
X0056608Y0044436D02*
X0049079Y0044436D01*
X0048709Y0044806D02*
X0047276Y0045400D01*
X0040924Y0045400D01*
X0039491Y0044806D01*
X0038394Y0043709D01*
X0037800Y0042276D01*
X0037800Y0040724D01*
X0038394Y0039291D01*
X0039491Y0038194D01*
X0040924Y0037600D01*
X0047276Y0037600D01*
X0048709Y0038194D01*
X0049806Y0039291D01*
X0050400Y0040724D01*
X0050400Y0042276D01*
X0049806Y0043709D01*
X0048709Y0044806D01*
X0048945Y0048430D02*
X0060602Y0048430D01*
X0061600Y0049429D02*
X0049863Y0049429D01*
X0050277Y0050427D02*
X0062599Y0050427D01*
X0063597Y0051426D02*
X0050400Y0051426D01*
X0051252Y0052424D02*
X0064596Y0052424D01*
X0065594Y0053423D02*
X0052251Y0053423D01*
X0053250Y0054421D02*
X0066593Y0054421D01*
X0067257Y0049429D02*
X0073137Y0049429D01*
X0073194Y0049291D02*
X0074291Y0048194D01*
X0075724Y0047600D01*
X0082076Y0047600D01*
X0083509Y0048194D01*
X0084606Y0049291D01*
X0085200Y0050724D01*
X0085200Y0052276D01*
X0084606Y0053709D01*
X0083509Y0054806D01*
X0082076Y0055400D01*
X0075724Y0055400D01*
X0074291Y0054806D01*
X0073194Y0053709D01*
X0072600Y0052276D01*
X0072600Y0050724D01*
X0073194Y0049291D01*
X0074055Y0048430D02*
X0066258Y0048430D01*
X0065260Y0047432D02*
X0091551Y0047432D01*
X0091551Y0048430D02*
X0083745Y0048430D01*
X0084663Y0049429D02*
X0091551Y0049429D01*
X0091551Y0050427D02*
X0085077Y0050427D01*
X0085200Y0051426D02*
X0091551Y0051426D01*
X0091551Y0052424D02*
X0085139Y0052424D01*
X0084725Y0053423D02*
X0091551Y0053423D01*
X0091551Y0054421D02*
X0083894Y0054421D01*
X0083731Y0058415D02*
X0091551Y0058415D01*
X0091551Y0057417D02*
X0075245Y0057417D01*
X0074247Y0056418D02*
X0091551Y0056418D01*
X0091551Y0055420D02*
X0073248Y0055420D01*
X0073906Y0054421D02*
X0072250Y0054421D01*
X0073075Y0053423D02*
X0071251Y0053423D01*
X0070252Y0052424D02*
X0072661Y0052424D01*
X0072600Y0051426D02*
X0069254Y0051426D01*
X0068255Y0050427D02*
X0072723Y0050427D01*
X0074291Y0044806D02*
X0073194Y0043709D01*
X0072600Y0042276D01*
X0072600Y0040724D01*
X0073194Y0039291D01*
X0074291Y0038194D01*
X0075724Y0037600D01*
X0082076Y0037600D01*
X0083509Y0038194D01*
X0084606Y0039291D01*
X0085200Y0040724D01*
X0085200Y0042276D01*
X0084606Y0043709D01*
X0083509Y0044806D01*
X0082076Y0045400D01*
X0075724Y0045400D01*
X0074291Y0044806D01*
X0073921Y0044436D02*
X0062264Y0044436D01*
X0061266Y0043437D02*
X0073081Y0043437D01*
X0072668Y0042439D02*
X0060267Y0042439D01*
X0059269Y0041440D02*
X0072600Y0041440D01*
X0072717Y0040442D02*
X0058270Y0040442D01*
X0057272Y0039443D02*
X0073131Y0039443D01*
X0074040Y0038445D02*
X0056273Y0038445D01*
X0055275Y0037446D02*
X0091551Y0037446D01*
X0091551Y0036448D02*
X0054276Y0036448D01*
X0053278Y0035449D02*
X0091551Y0035449D01*
X0091551Y0034451D02*
X0064065Y0034451D01*
X0063115Y0035400D02*
X0065400Y0033115D01*
X0065400Y0029885D01*
X0063115Y0027600D01*
X0059885Y0027600D01*
X0057600Y0029885D01*
X0057600Y0033115D01*
X0059885Y0035400D01*
X0063115Y0035400D01*
X0065063Y0033452D02*
X0091551Y0033452D01*
X0091551Y0032454D02*
X0065400Y0032454D01*
X0065400Y0031455D02*
X0091551Y0031455D01*
X0091551Y0030457D02*
X0065400Y0030457D01*
X0064974Y0029458D02*
X0091551Y0029458D01*
X0091551Y0028460D02*
X0063975Y0028460D01*
X0063324Y0025400D02*
X0061891Y0024806D01*
X0060794Y0023709D01*
X0060200Y0022276D01*
X0060200Y0020724D01*
X0060794Y0019291D01*
X0061891Y0018194D01*
X0063324Y0017600D01*
X0069676Y0017600D01*
X0071109Y0018194D01*
X0072206Y0019291D01*
X0072800Y0020724D01*
X0072800Y0022276D01*
X0072206Y0023709D01*
X0071109Y0024806D01*
X0069676Y0025400D01*
X0063324Y0025400D01*
X0061550Y0024466D02*
X0041450Y0024466D01*
X0041109Y0024806D02*
X0039676Y0025400D01*
X0033324Y0025400D01*
X0031891Y0024806D01*
X0030794Y0023709D01*
X0030200Y0022276D01*
X0030200Y0020724D01*
X0030794Y0019291D01*
X0031891Y0018194D01*
X0033324Y0017600D01*
X0039676Y0017600D01*
X0041109Y0018194D01*
X0042206Y0019291D01*
X0042800Y0020724D01*
X0042800Y0022276D01*
X0042206Y0023709D01*
X0041109Y0024806D01*
X0042306Y0023467D02*
X0060694Y0023467D01*
X0060280Y0022469D02*
X0042720Y0022469D01*
X0042800Y0021470D02*
X0060200Y0021470D01*
X0060305Y0020472D02*
X0042695Y0020472D01*
X0042282Y0019473D02*
X0060718Y0019473D01*
X0061610Y0018475D02*
X0041390Y0018475D01*
X0039025Y0028460D02*
X0026321Y0028460D01*
X0026500Y0031500D02*
X0025500Y0032500D01*
X0025122Y0032996D01*
X0024500Y0033500D01*
X0019500Y0038500D01*
X0019500Y0042500D01*
X0024500Y0047500D01*
X0024500Y0056500D01*
X0025122Y0056618D01*
X0027147Y0052424D02*
X0037861Y0052424D01*
X0037800Y0051426D02*
X0026500Y0051426D01*
X0026500Y0050427D02*
X0037923Y0050427D01*
X0038337Y0049429D02*
X0026500Y0049429D01*
X0026500Y0048430D02*
X0039255Y0048430D01*
X0039121Y0044436D02*
X0028124Y0044436D01*
X0029004Y0043437D02*
X0038281Y0043437D01*
X0037868Y0042439D02*
X0029501Y0042439D01*
X0029739Y0041440D02*
X0037800Y0041440D01*
X0037917Y0040442D02*
X0029762Y0040442D01*
X0029547Y0039443D02*
X0038331Y0039443D01*
X0039240Y0038445D02*
X0029105Y0038445D01*
X0028274Y0037446D02*
X0049618Y0037446D01*
X0048960Y0038445D02*
X0050617Y0038445D01*
X0049869Y0039443D02*
X0051615Y0039443D01*
X0052614Y0040442D02*
X0050283Y0040442D01*
X0050400Y0041440D02*
X0053612Y0041440D01*
X0054611Y0042439D02*
X0050332Y0042439D01*
X0049919Y0043437D02*
X0055609Y0043437D01*
X0058605Y0046433D02*
X0026261Y0046433D01*
X0026500Y0047432D02*
X0059603Y0047432D01*
X0063263Y0045434D02*
X0091551Y0045434D01*
X0091551Y0044436D02*
X0083879Y0044436D01*
X0084719Y0043437D02*
X0091551Y0043437D01*
X0091551Y0042439D02*
X0085132Y0042439D01*
X0085200Y0041440D02*
X0091551Y0041440D01*
X0091551Y0040442D02*
X0085083Y0040442D01*
X0084669Y0039443D02*
X0091551Y0039443D01*
X0091551Y0038445D02*
X0083760Y0038445D01*
X0083953Y0022079D02*
X0080465Y0022079D01*
X0077242Y0020744D01*
X0074776Y0018278D01*
X0073441Y0015055D01*
X0073441Y0011567D01*
X0074776Y0008345D01*
X0077242Y0005878D01*
X0080465Y0004543D01*
X0083953Y0004543D01*
X0087175Y0005878D01*
X0089642Y0008345D01*
X0090976Y0011567D01*
X0090976Y0015055D01*
X0089642Y0018278D01*
X0087175Y0020744D01*
X0083953Y0022079D01*
X0085422Y0021470D02*
X0091551Y0021470D01*
X0091551Y0020472D02*
X0087447Y0020472D01*
X0088446Y0019473D02*
X0091551Y0019473D01*
X0091551Y0018475D02*
X0089444Y0018475D01*
X0089973Y0017476D02*
X0091551Y0017476D01*
X0091551Y0016478D02*
X0090387Y0016478D01*
X0090801Y0015479D02*
X0091551Y0015479D01*
X0091551Y0014481D02*
X0090976Y0014481D01*
X0090976Y0013482D02*
X0091551Y0013482D01*
X0091551Y0012484D02*
X0090976Y0012484D01*
X0090942Y0011485D02*
X0091551Y0011485D01*
X0091551Y0010487D02*
X0090529Y0010487D01*
X0090115Y0009488D02*
X0091551Y0009488D01*
X0091551Y0008490D02*
X0089702Y0008490D01*
X0088788Y0007491D02*
X0091551Y0007491D01*
X0091551Y0006493D02*
X0087790Y0006493D01*
X0086248Y0005494D02*
X0091551Y0005494D01*
X0091551Y0004496D02*
X0003968Y0004496D01*
X0003968Y0005494D02*
X0009272Y0005494D01*
X0008345Y0005878D02*
X0011567Y0004543D01*
X0015055Y0004543D01*
X0018278Y0005878D01*
X0020744Y0008345D01*
X0022079Y0011567D01*
X0022079Y0015055D01*
X0020744Y0018278D01*
X0018278Y0020744D01*
X0015055Y0022079D01*
X0011567Y0022079D01*
X0008345Y0020744D01*
X0005878Y0018278D01*
X0004543Y0015055D01*
X0004543Y0011567D01*
X0005878Y0008345D01*
X0008345Y0005878D01*
X0007730Y0006493D02*
X0003968Y0006493D01*
X0003968Y0007491D02*
X0006732Y0007491D01*
X0005818Y0008490D02*
X0003968Y0008490D01*
X0003968Y0009488D02*
X0005404Y0009488D01*
X0004991Y0010487D02*
X0003968Y0010487D01*
X0003968Y0011485D02*
X0004577Y0011485D01*
X0004543Y0012484D02*
X0003968Y0012484D01*
X0003968Y0013482D02*
X0004543Y0013482D01*
X0004543Y0014481D02*
X0003968Y0014481D01*
X0003968Y0015479D02*
X0004719Y0015479D01*
X0005133Y0016478D02*
X0003968Y0016478D01*
X0003968Y0017476D02*
X0005546Y0017476D01*
X0006075Y0018475D02*
X0003968Y0018475D01*
X0003968Y0019473D02*
X0007074Y0019473D01*
X0008072Y0020472D02*
X0003968Y0020472D01*
X0003968Y0021470D02*
X0010098Y0021470D01*
X0003968Y0022469D02*
X0030280Y0022469D01*
X0030200Y0021470D02*
X0016524Y0021470D01*
X0018550Y0020472D02*
X0030305Y0020472D01*
X0030718Y0019473D02*
X0019548Y0019473D01*
X0020547Y0018475D02*
X0031610Y0018475D01*
X0030694Y0023467D02*
X0003968Y0023467D01*
X0003968Y0024466D02*
X0031550Y0024466D01*
X0028160Y0029458D02*
X0038026Y0029458D01*
X0038935Y0034451D02*
X0029552Y0034451D01*
X0029139Y0035449D02*
X0047621Y0035449D01*
X0046622Y0034451D02*
X0044065Y0034451D01*
X0046500Y0031500D02*
X0076500Y0061500D01*
X0076215Y0077387D02*
X0091551Y0077387D01*
X0091551Y0078385D02*
X0083901Y0078385D01*
X0084899Y0079384D02*
X0091551Y0079384D01*
X0091551Y0080382D02*
X0085400Y0080382D01*
X0085400Y0081381D02*
X0091551Y0081381D01*
X0091551Y0082379D02*
X0085400Y0082379D01*
X0085137Y0083378D02*
X0091551Y0083378D01*
X0091551Y0084376D02*
X0084139Y0084376D01*
X0083140Y0085375D02*
X0091551Y0085375D01*
X0091551Y0086373D02*
X0079455Y0086373D01*
X0078500Y0087372D02*
X0091551Y0087372D01*
X0091551Y0088370D02*
X0078500Y0088370D01*
X0078500Y0089369D02*
X0091551Y0089369D01*
X0091551Y0090368D02*
X0078500Y0090368D01*
X0078500Y0091366D02*
X0091551Y0091366D01*
X0091551Y0092365D02*
X0078500Y0092365D01*
X0078500Y0093363D02*
X0081775Y0093363D01*
X0080838Y0094362D02*
X0078500Y0094362D01*
X0078500Y0095360D02*
X0080351Y0095360D01*
X0080294Y0097357D02*
X0078500Y0097357D01*
X0078500Y0096359D02*
X0086200Y0096359D01*
X0086200Y0097357D02*
X0086800Y0097357D01*
X0086800Y0098356D02*
X0086200Y0098356D01*
X0086200Y0099354D02*
X0086800Y0099354D01*
X0086800Y0100353D02*
X0086200Y0100353D01*
X0086200Y0095360D02*
X0086800Y0095360D01*
X0086800Y0094362D02*
X0086200Y0094362D01*
X0086200Y0093363D02*
X0086800Y0093363D01*
X0089522Y0100353D02*
X0091551Y0100353D01*
X0091551Y0101351D02*
X0078500Y0101351D01*
X0078500Y0100353D02*
X0083478Y0100353D01*
X0081439Y0099354D02*
X0078500Y0099354D01*
X0078500Y0098356D02*
X0080649Y0098356D01*
X0078500Y0102350D02*
X0091551Y0102350D01*
X0091551Y0103348D02*
X0091264Y0103348D01*
X0091551Y0110338D02*
X0089826Y0110338D01*
X0091551Y0111336D02*
X0078500Y0111336D01*
X0078500Y0110338D02*
X0083174Y0110338D01*
X0081424Y0109339D02*
X0078500Y0109339D01*
X0078500Y0108341D02*
X0080641Y0108341D01*
X0080228Y0107342D02*
X0078500Y0107342D01*
X0078500Y0106344D02*
X0080200Y0106344D01*
X0080357Y0105345D02*
X0078500Y0105345D01*
X0078500Y0104347D02*
X0080771Y0104347D01*
X0081736Y0103348D02*
X0078500Y0103348D01*
X0078500Y0112335D02*
X0091551Y0112335D01*
X0091551Y0113333D02*
X0091249Y0113333D01*
X0086500Y0116500D02*
X0086500Y0118500D01*
X0079500Y0125500D01*
X0079500Y0133500D01*
X0080500Y0134500D01*
X0080500Y0149500D01*
X0073500Y0156500D01*
X0073500Y0164500D01*
X0075500Y0162708D02*
X0075773Y0162981D01*
X0076181Y0163967D01*
X0076181Y0165033D01*
X0075773Y0166019D01*
X0075019Y0166773D01*
X0074724Y0166895D01*
X0080268Y0172439D01*
X0080200Y0172276D01*
X0080200Y0170724D01*
X0080794Y0169291D01*
X0081891Y0168194D01*
X0083324Y0167600D01*
X0089676Y0167600D01*
X0091109Y0168194D01*
X0091551Y0168636D01*
X0091551Y0164364D01*
X0091109Y0164806D01*
X0089676Y0165400D01*
X0083324Y0165400D01*
X0081891Y0164806D01*
X0080794Y0163709D01*
X0080200Y0162276D01*
X0080200Y0160724D01*
X0080794Y0159291D01*
X0081891Y0158194D01*
X0083324Y0157600D01*
X0089676Y0157600D01*
X0091109Y0158194D01*
X0091551Y0158636D01*
X0091551Y0154364D01*
X0091386Y0154529D01*
X0090747Y0154956D01*
X0090038Y0155250D01*
X0089284Y0155400D01*
X0086800Y0155400D01*
X0086800Y0151800D01*
X0086200Y0151800D01*
X0086200Y0155400D01*
X0083716Y0155400D01*
X0082962Y0155250D01*
X0082253Y0154956D01*
X0081614Y0154529D01*
X0081071Y0153986D01*
X0080644Y0153347D01*
X0080350Y0152638D01*
X0080323Y0152505D01*
X0075500Y0157328D01*
X0075500Y0162708D01*
X0075500Y0162260D02*
X0080200Y0162260D01*
X0080200Y0161262D02*
X0075500Y0161262D01*
X0075500Y0160263D02*
X0080391Y0160263D01*
X0080820Y0159265D02*
X0075500Y0159265D01*
X0075500Y0158266D02*
X0081818Y0158266D01*
X0083066Y0155271D02*
X0077558Y0155271D01*
X0078556Y0154272D02*
X0081357Y0154272D01*
X0080613Y0153274D02*
X0079555Y0153274D01*
X0076559Y0156269D02*
X0091551Y0156269D01*
X0091551Y0155271D02*
X0089934Y0155271D01*
X0091551Y0157268D02*
X0075561Y0157268D01*
X0075888Y0163259D02*
X0080607Y0163259D01*
X0081342Y0164257D02*
X0076181Y0164257D01*
X0076089Y0165256D02*
X0082976Y0165256D01*
X0081833Y0168251D02*
X0076080Y0168251D01*
X0075081Y0167253D02*
X0091551Y0167253D01*
X0091551Y0168251D02*
X0091167Y0168251D01*
X0091551Y0166254D02*
X0075537Y0166254D01*
X0077078Y0169250D02*
X0080835Y0169250D01*
X0080397Y0170248D02*
X0078077Y0170248D01*
X0079075Y0171247D02*
X0080200Y0171247D01*
X0080200Y0172245D02*
X0080074Y0172245D01*
X0078411Y0176239D02*
X0072500Y0176239D01*
X0072500Y0175241D02*
X0077413Y0175241D01*
X0076414Y0174242D02*
X0072500Y0174242D01*
X0072500Y0173244D02*
X0075416Y0173244D01*
X0074417Y0172245D02*
X0072500Y0172245D01*
X0072500Y0171247D02*
X0073419Y0171247D01*
X0072500Y0177238D02*
X0079410Y0177238D01*
X0080408Y0178237D02*
X0072500Y0178237D01*
X0072500Y0179235D02*
X0080850Y0179235D01*
X0080403Y0180234D02*
X0072500Y0180234D01*
X0072500Y0181232D02*
X0080200Y0181232D01*
X0080200Y0182231D02*
X0072500Y0182231D01*
X0072500Y0183229D02*
X0080595Y0183229D01*
X0080944Y0184228D02*
X0072500Y0184228D01*
X0072500Y0185226D02*
X0079945Y0185226D01*
X0078947Y0186225D02*
X0072500Y0186225D01*
X0072500Y0187223D02*
X0077948Y0187223D01*
X0076500Y0191500D02*
X0086500Y0181500D01*
X0070500Y0165500D01*
X0070500Y0142500D01*
X0076500Y0136500D01*
X0076500Y0086500D01*
X0081500Y0081500D01*
X0079099Y0078385D02*
X0077214Y0078385D01*
X0077500Y0079384D02*
X0078101Y0079384D01*
X0077600Y0080382D02*
X0077500Y0080382D01*
X0077500Y0081381D02*
X0077600Y0081381D01*
X0077600Y0082379D02*
X0077500Y0082379D01*
X0071800Y0082379D02*
X0071200Y0082379D01*
X0071200Y0083378D02*
X0071800Y0083378D01*
X0071800Y0084376D02*
X0071200Y0084376D01*
X0071200Y0085375D02*
X0071800Y0085375D01*
X0072500Y0086373D02*
X0046455Y0086373D01*
X0047453Y0085375D02*
X0059860Y0085375D01*
X0058861Y0084376D02*
X0048452Y0084376D01*
X0046789Y0080382D02*
X0045400Y0080382D01*
X0045400Y0081381D02*
X0045791Y0081381D01*
X0044899Y0079384D02*
X0058101Y0079384D01*
X0059099Y0078385D02*
X0043901Y0078385D01*
X0041500Y0081500D02*
X0034500Y0081500D01*
X0025500Y0072500D01*
X0025122Y0072366D01*
X0022547Y0068400D02*
X0003968Y0068400D01*
X0003968Y0067402D02*
X0021489Y0067402D01*
X0020877Y0066403D02*
X0003968Y0066403D01*
X0003968Y0065405D02*
X0020559Y0065405D01*
X0020586Y0063408D02*
X0003968Y0063408D01*
X0003968Y0064406D02*
X0024933Y0064406D01*
X0025122Y0064492D02*
X0025500Y0063500D01*
X0025311Y0064406D02*
X0039091Y0064406D01*
X0039106Y0054421D02*
X0029245Y0054421D01*
X0028502Y0053423D02*
X0038275Y0053423D01*
X0041500Y0031500D02*
X0046500Y0031500D01*
X0044974Y0029458D02*
X0058026Y0029458D01*
X0057600Y0030457D02*
X0048285Y0030457D01*
X0049284Y0031455D02*
X0057600Y0031455D01*
X0057600Y0032454D02*
X0050282Y0032454D01*
X0051281Y0033452D02*
X0057937Y0033452D01*
X0058935Y0034451D02*
X0052279Y0034451D01*
X0048619Y0036448D02*
X0028246Y0036448D01*
X0026500Y0031500D02*
X0041500Y0031500D01*
X0043975Y0028460D02*
X0059025Y0028460D01*
X0064261Y0046433D02*
X0091551Y0046433D01*
X0091551Y0059414D02*
X0084657Y0059414D01*
X0085071Y0060412D02*
X0091551Y0060412D01*
X0091551Y0061411D02*
X0085200Y0061411D01*
X0085145Y0062409D02*
X0091551Y0062409D01*
X0091551Y0063408D02*
X0084731Y0063408D01*
X0083909Y0064406D02*
X0091551Y0064406D01*
X0091551Y0093363D02*
X0091225Y0093363D01*
X0081751Y0113333D02*
X0078500Y0113333D01*
X0078500Y0114332D02*
X0080777Y0114332D01*
X0080363Y0115330D02*
X0078500Y0115330D01*
X0078500Y0116329D02*
X0080200Y0116329D01*
X0080221Y0117327D02*
X0078500Y0117327D01*
X0078500Y0118326D02*
X0080635Y0118326D01*
X0081409Y0119324D02*
X0078500Y0119324D01*
X0078500Y0120323D02*
X0081849Y0120323D01*
X0080850Y0121321D02*
X0078500Y0121321D01*
X0078500Y0122320D02*
X0079852Y0122320D01*
X0078853Y0123318D02*
X0078500Y0123318D01*
X0081500Y0129415D02*
X0081500Y0132672D01*
X0082500Y0133672D01*
X0082500Y0147941D01*
X0082962Y0147750D01*
X0083716Y0147600D01*
X0086200Y0147600D01*
X0086200Y0151200D01*
X0086800Y0151200D01*
X0086800Y0147600D01*
X0089284Y0147600D01*
X0090038Y0147750D01*
X0090747Y0148044D01*
X0091386Y0148471D01*
X0091551Y0148636D01*
X0091551Y0129364D01*
X0091109Y0129806D01*
X0089676Y0130400D01*
X0083324Y0130400D01*
X0081891Y0129806D01*
X0081500Y0129415D01*
X0081500Y0130308D02*
X0083102Y0130308D01*
X0081500Y0131306D02*
X0091551Y0131306D01*
X0091551Y0130308D02*
X0089898Y0130308D01*
X0091551Y0132305D02*
X0081500Y0132305D01*
X0082132Y0133303D02*
X0091551Y0133303D01*
X0091551Y0134302D02*
X0082500Y0134302D01*
X0082500Y0135301D02*
X0091551Y0135301D01*
X0091551Y0136299D02*
X0082500Y0136299D01*
X0082500Y0137298D02*
X0091551Y0137298D01*
X0091551Y0138296D02*
X0082500Y0138296D01*
X0082500Y0139295D02*
X0091551Y0139295D01*
X0091551Y0140293D02*
X0082500Y0140293D01*
X0082500Y0141292D02*
X0091551Y0141292D01*
X0091551Y0142290D02*
X0082500Y0142290D01*
X0082500Y0143289D02*
X0091551Y0143289D01*
X0091551Y0144287D02*
X0082500Y0144287D01*
X0082500Y0145286D02*
X0091551Y0145286D01*
X0091551Y0146284D02*
X0082500Y0146284D01*
X0082500Y0147283D02*
X0091551Y0147283D01*
X0091551Y0148281D02*
X0091102Y0148281D01*
X0091182Y0158266D02*
X0091551Y0158266D01*
X0091551Y0165256D02*
X0090024Y0165256D01*
X0086800Y0155271D02*
X0086200Y0155271D01*
X0086200Y0154272D02*
X0086800Y0154272D01*
X0086800Y0153274D02*
X0086200Y0153274D01*
X0086200Y0152275D02*
X0086800Y0152275D01*
X0086800Y0150278D02*
X0086200Y0150278D01*
X0086200Y0149280D02*
X0086800Y0149280D01*
X0086800Y0148281D02*
X0086200Y0148281D01*
X0090096Y0185226D02*
X0091551Y0185226D01*
X0091551Y0186225D02*
X0084604Y0186225D01*
X0083605Y0187223D02*
X0091551Y0187223D01*
X0091551Y0188222D02*
X0082607Y0188222D01*
X0081608Y0189220D02*
X0091551Y0189220D01*
X0091551Y0190219D02*
X0080610Y0190219D01*
X0080400Y0191217D02*
X0091551Y0191217D01*
X0091551Y0192216D02*
X0080400Y0192216D01*
X0080301Y0193214D02*
X0091551Y0193214D01*
X0091551Y0194213D02*
X0079303Y0194213D01*
X0078304Y0195211D02*
X0091551Y0195211D01*
X0091551Y0196210D02*
X0072500Y0196210D01*
X0072500Y0197208D02*
X0091551Y0197208D01*
X0091551Y0198207D02*
X0072500Y0198207D01*
X0072500Y0199205D02*
X0091551Y0199205D01*
X0091551Y0200204D02*
X0072500Y0200204D01*
X0072500Y0201202D02*
X0091551Y0201202D01*
X0091551Y0202201D02*
X0072500Y0202201D01*
X0072500Y0203199D02*
X0091551Y0203199D01*
X0091551Y0204198D02*
X0072500Y0204198D01*
X0072500Y0205196D02*
X0091551Y0205196D01*
X0091551Y0206195D02*
X0072500Y0206195D01*
X0072500Y0207193D02*
X0091551Y0207193D01*
X0091551Y0208192D02*
X0072500Y0208192D01*
X0072500Y0209190D02*
X0091551Y0209190D01*
X0091551Y0210189D02*
X0073064Y0210189D01*
X0074062Y0211187D02*
X0091551Y0211187D01*
X0091551Y0212186D02*
X0074638Y0212186D01*
X0075047Y0213184D02*
X0091551Y0213184D01*
X0091551Y0214183D02*
X0075047Y0214183D01*
X0074982Y0215181D02*
X0091551Y0215181D01*
X0091551Y0216180D02*
X0074568Y0216180D01*
X0073893Y0217178D02*
X0091551Y0217178D01*
X0091551Y0218177D02*
X0073178Y0218177D01*
X0074176Y0219175D02*
X0091551Y0219175D01*
X0091551Y0220174D02*
X0074685Y0220174D01*
X0075047Y0221172D02*
X0091551Y0221172D01*
X0091551Y0222171D02*
X0075047Y0222171D01*
X0074934Y0223170D02*
X0091551Y0223170D01*
X0091551Y0224168D02*
X0074521Y0224168D01*
X0073779Y0225167D02*
X0091551Y0225167D01*
X0091551Y0226165D02*
X0072426Y0226165D01*
X0069271Y0233155D02*
X0055983Y0233155D01*
X0055400Y0232156D02*
X0091551Y0232156D01*
X0091551Y0231158D02*
X0055400Y0231158D01*
X0055400Y0230159D02*
X0091551Y0230159D01*
X0091551Y0229161D02*
X0054676Y0229161D01*
X0056982Y0234153D02*
X0067389Y0234153D01*
X0066429Y0235152D02*
X0057980Y0235152D01*
X0057500Y0237500D02*
X0058500Y0237500D01*
X0060500Y0239500D01*
X0060500Y0247500D01*
X0056500Y0251500D01*
X0058038Y0247134D02*
X0039695Y0247134D01*
X0040693Y0246135D02*
X0058500Y0246135D01*
X0058500Y0245137D02*
X0058379Y0245137D01*
X0056500Y0241500D02*
X0042500Y0241500D01*
X0038500Y0245500D01*
X0025500Y0245500D01*
X0025122Y0245594D01*
X0026525Y0241143D02*
X0032600Y0241143D01*
X0032600Y0242141D02*
X0028244Y0242141D01*
X0029138Y0243140D02*
X0032624Y0243140D01*
X0032600Y0240144D02*
X0014500Y0240144D01*
X0014500Y0239146D02*
X0033339Y0239146D01*
X0034337Y0238147D02*
X0014500Y0238147D01*
X0014500Y0237149D02*
X0054320Y0237149D01*
X0054337Y0238147D02*
X0038663Y0238147D01*
X0039661Y0239146D02*
X0053339Y0239146D01*
X0053322Y0236150D02*
X0014500Y0236150D01*
X0014500Y0241143D02*
X0023720Y0241143D01*
X0022000Y0242141D02*
X0014500Y0242141D01*
X0014500Y0243140D02*
X0021106Y0243140D01*
X0020693Y0244138D02*
X0014500Y0244138D01*
X0014500Y0245137D02*
X0020472Y0245137D01*
X0020472Y0246135D02*
X0014500Y0246135D01*
X0014962Y0247134D02*
X0020727Y0247134D01*
X0021141Y0248132D02*
X0015961Y0248132D01*
X0016959Y0249131D02*
X0022083Y0249131D01*
X0021886Y0250129D02*
X0017958Y0250129D01*
X0018956Y0251128D02*
X0021059Y0251128D01*
X0020645Y0252126D02*
X0019955Y0252126D01*
X0018292Y0256120D02*
X0003968Y0256120D01*
X0003968Y0255122D02*
X0017293Y0255122D01*
X0016295Y0254123D02*
X0003968Y0254123D01*
X0003968Y0253125D02*
X0015296Y0253125D01*
X0014298Y0252126D02*
X0003968Y0252126D01*
X0003968Y0251128D02*
X0013299Y0251128D01*
X0012301Y0250129D02*
X0003968Y0250129D01*
X0003968Y0249131D02*
X0011302Y0249131D01*
X0010500Y0248132D02*
X0003968Y0248132D01*
X0003968Y0247134D02*
X0010500Y0247134D01*
X0010500Y0246135D02*
X0003968Y0246135D01*
X0003968Y0245137D02*
X0010500Y0245137D01*
X0010500Y0244138D02*
X0003968Y0244138D01*
X0003968Y0243140D02*
X0010500Y0243140D01*
X0010500Y0242141D02*
X0003968Y0242141D01*
X0003968Y0241143D02*
X0010500Y0241143D01*
X0010500Y0240144D02*
X0003968Y0240144D01*
X0003968Y0239146D02*
X0010500Y0239146D01*
X0010500Y0238147D02*
X0003968Y0238147D01*
X0003968Y0237149D02*
X0010500Y0237149D01*
X0010500Y0236150D02*
X0003968Y0236150D01*
X0003968Y0235152D02*
X0010500Y0235152D01*
X0010500Y0234153D02*
X0003968Y0234153D01*
X0003968Y0233155D02*
X0010500Y0233155D01*
X0010500Y0232156D02*
X0003968Y0232156D01*
X0003968Y0231158D02*
X0010500Y0231158D01*
X0010500Y0230159D02*
X0003968Y0230159D01*
X0003968Y0229161D02*
X0010500Y0229161D01*
X0010500Y0228162D02*
X0003968Y0228162D01*
X0003968Y0227164D02*
X0010500Y0227164D01*
X0010500Y0226165D02*
X0003968Y0226165D01*
X0003968Y0225167D02*
X0010500Y0225167D01*
X0010500Y0224168D02*
X0003968Y0224168D01*
X0003968Y0223170D02*
X0010500Y0223170D01*
X0010500Y0222171D02*
X0003968Y0222171D01*
X0003968Y0221172D02*
X0010500Y0221172D01*
X0010500Y0220174D02*
X0003968Y0220174D01*
X0003968Y0219175D02*
X0010500Y0219175D01*
X0010500Y0218177D02*
X0003968Y0218177D01*
X0003968Y0217178D02*
X0010500Y0217178D01*
X0010500Y0216180D02*
X0003968Y0216180D01*
X0003968Y0215181D02*
X0010500Y0215181D01*
X0010500Y0214183D02*
X0003968Y0214183D01*
X0003968Y0213184D02*
X0010500Y0213184D01*
X0010500Y0212186D02*
X0003968Y0212186D01*
X0003968Y0211187D02*
X0010500Y0211187D01*
X0010500Y0210189D02*
X0003968Y0210189D01*
X0003968Y0209190D02*
X0010500Y0209190D01*
X0010500Y0208192D02*
X0003968Y0208192D01*
X0003968Y0207193D02*
X0010500Y0207193D01*
X0010500Y0206195D02*
X0003968Y0206195D01*
X0003968Y0205196D02*
X0010500Y0205196D01*
X0010500Y0204198D02*
X0003968Y0204198D01*
X0003968Y0203199D02*
X0010500Y0203199D01*
X0010500Y0202201D02*
X0003968Y0202201D01*
X0003968Y0201202D02*
X0010500Y0201202D01*
X0010500Y0200204D02*
X0003968Y0200204D01*
X0003968Y0199205D02*
X0010500Y0199205D01*
X0010500Y0198207D02*
X0003968Y0198207D01*
X0003968Y0197208D02*
X0010500Y0197208D01*
X0010500Y0196210D02*
X0003968Y0196210D01*
X0003968Y0195211D02*
X0010500Y0195211D01*
X0010500Y0194213D02*
X0003968Y0194213D01*
X0003968Y0193214D02*
X0010957Y0193214D01*
X0011956Y0192216D02*
X0003968Y0192216D01*
X0003968Y0191217D02*
X0012954Y0191217D01*
X0013705Y0189220D02*
X0003968Y0189220D01*
X0003968Y0188222D02*
X0012706Y0188222D01*
X0012600Y0187223D02*
X0003968Y0187223D01*
X0003968Y0186225D02*
X0012600Y0186225D01*
X0012600Y0185226D02*
X0003968Y0185226D01*
X0003968Y0184228D02*
X0013257Y0184228D01*
X0014256Y0183229D02*
X0003968Y0183229D01*
X0003968Y0182231D02*
X0023941Y0182231D01*
X0024940Y0181232D02*
X0003968Y0181232D01*
X0003968Y0180234D02*
X0014718Y0180234D01*
X0014885Y0180400D02*
X0012600Y0178115D01*
X0012600Y0174885D01*
X0014885Y0172600D01*
X0018115Y0172600D01*
X0020400Y0174885D01*
X0020400Y0178115D01*
X0018115Y0180400D01*
X0014885Y0180400D01*
X0013720Y0179235D02*
X0003968Y0179235D01*
X0003968Y0178237D02*
X0012721Y0178237D01*
X0012600Y0177238D02*
X0003968Y0177238D01*
X0003968Y0176239D02*
X0012600Y0176239D01*
X0012600Y0175241D02*
X0003968Y0175241D01*
X0003968Y0174242D02*
X0013242Y0174242D01*
X0014241Y0173244D02*
X0003968Y0173244D01*
X0003968Y0172245D02*
X0040417Y0172245D01*
X0039419Y0171247D02*
X0003968Y0171247D01*
X0003968Y0160263D02*
X0007994Y0160263D01*
X0006349Y0159265D02*
X0003968Y0159265D01*
X0003968Y0158266D02*
X0005610Y0158266D01*
X0005200Y0157268D02*
X0003968Y0157268D01*
X0003968Y0156269D02*
X0005200Y0156269D01*
X0005388Y0155271D02*
X0003968Y0155271D01*
X0003968Y0154272D02*
X0005812Y0154272D01*
X0005445Y0153274D02*
X0003968Y0153274D01*
X0003968Y0152275D02*
X0004447Y0152275D01*
X0010538Y0142290D02*
X0032500Y0142290D01*
X0032500Y0141292D02*
X0011537Y0141292D01*
X0005363Y0115330D02*
X0003968Y0115330D01*
X0003968Y0114332D02*
X0005858Y0114332D01*
X0006820Y0113333D02*
X0003968Y0113333D01*
X0003968Y0112335D02*
X0016500Y0112335D01*
X0016500Y0113333D02*
X0016180Y0113333D01*
X0016500Y0111336D02*
X0003968Y0111336D01*
X0003968Y0110338D02*
X0008174Y0110338D01*
X0006424Y0109339D02*
X0003968Y0109339D01*
X0003968Y0108341D02*
X0005641Y0108341D01*
X0005228Y0107342D02*
X0003968Y0107342D01*
X0003968Y0106344D02*
X0005200Y0106344D01*
X0005357Y0105345D02*
X0003968Y0105345D01*
X0003968Y0104347D02*
X0005771Y0104347D01*
X0006439Y0099354D02*
X0003968Y0099354D01*
X0003968Y0098356D02*
X0005649Y0098356D01*
X0005294Y0097357D02*
X0003968Y0097357D01*
X0003968Y0096359D02*
X0011200Y0096359D01*
X0011200Y0096200D02*
X0005200Y0096200D01*
X0005200Y0096116D01*
X0005350Y0095362D01*
X0005644Y0094653D01*
X0006071Y0094014D01*
X0006614Y0093471D01*
X0007253Y0093044D01*
X0007962Y0092750D01*
X0008716Y0092600D01*
X0011200Y0092600D01*
X0011200Y0096200D01*
X0011800Y0096200D02*
X0011800Y0092600D01*
X0014284Y0092600D01*
X0015038Y0092750D01*
X0015747Y0093044D01*
X0016386Y0093471D01*
X0016929Y0094014D01*
X0017356Y0094653D01*
X0017650Y0095362D01*
X0017800Y0096116D01*
X0017800Y0096200D01*
X0011800Y0096200D01*
X0011800Y0096359D02*
X0030813Y0096359D01*
X0029814Y0097357D02*
X0017706Y0097357D01*
X0017351Y0098356D02*
X0028816Y0098356D01*
X0027817Y0099354D02*
X0016561Y0099354D01*
X0017649Y0095360D02*
X0031812Y0095360D01*
X0032810Y0094362D02*
X0017162Y0094362D01*
X0016225Y0093363D02*
X0033809Y0093363D01*
X0034807Y0092365D02*
X0003968Y0092365D01*
X0003968Y0093363D02*
X0006775Y0093363D01*
X0005838Y0094362D02*
X0003968Y0094362D01*
X0003968Y0095360D02*
X0005351Y0095360D01*
X0003968Y0091366D02*
X0035806Y0091366D01*
X0036804Y0090368D02*
X0003968Y0090368D01*
X0003968Y0089369D02*
X0037803Y0089369D01*
X0038801Y0088370D02*
X0003968Y0088370D01*
X0003968Y0087372D02*
X0039800Y0087372D01*
X0040798Y0086373D02*
X0003968Y0086373D01*
X0003968Y0085375D02*
X0039860Y0085375D01*
X0038861Y0084376D02*
X0027286Y0084376D01*
X0028560Y0083378D02*
X0033550Y0083378D01*
X0032551Y0082379D02*
X0029269Y0082379D01*
X0029682Y0081381D02*
X0031552Y0081381D01*
X0033215Y0077387D02*
X0070558Y0077387D01*
X0069099Y0078385D02*
X0063901Y0078385D01*
X0064899Y0079384D02*
X0068101Y0079384D01*
X0067600Y0080382D02*
X0065400Y0080382D01*
X0061109Y0093194D02*
X0062206Y0094291D01*
X0062800Y0095724D01*
X0062800Y0097276D01*
X0062206Y0098709D01*
X0061109Y0099806D01*
X0059676Y0100400D01*
X0053324Y0100400D01*
X0051891Y0099806D01*
X0050794Y0098709D01*
X0050200Y0097276D01*
X0050200Y0095724D01*
X0050794Y0094291D01*
X0051891Y0093194D01*
X0053324Y0092600D01*
X0059676Y0092600D01*
X0061109Y0093194D01*
X0061278Y0093363D02*
X0070500Y0093363D01*
X0070500Y0092365D02*
X0040464Y0092365D01*
X0041462Y0091366D02*
X0070500Y0091366D01*
X0070804Y0090368D02*
X0042461Y0090368D01*
X0043459Y0089369D02*
X0071803Y0089369D01*
X0072500Y0088370D02*
X0044458Y0088370D01*
X0045456Y0087372D02*
X0072500Y0087372D01*
X0070500Y0094362D02*
X0062236Y0094362D01*
X0062649Y0095360D02*
X0070500Y0095360D01*
X0070500Y0096359D02*
X0062800Y0096359D01*
X0062766Y0097357D02*
X0070500Y0097357D01*
X0070500Y0098356D02*
X0062353Y0098356D01*
X0061561Y0099354D02*
X0070500Y0099354D01*
X0070500Y0100353D02*
X0059790Y0100353D01*
X0059676Y0102600D02*
X0061109Y0103194D01*
X0062206Y0104291D01*
X0062800Y0105724D01*
X0062800Y0107276D01*
X0062206Y0108709D01*
X0061109Y0109806D01*
X0059676Y0110400D01*
X0053324Y0110400D01*
X0051891Y0109806D01*
X0050794Y0108709D01*
X0050200Y0107276D01*
X0050200Y0105724D01*
X0050794Y0104291D01*
X0051891Y0103194D01*
X0053324Y0102600D01*
X0059676Y0102600D01*
X0061264Y0103348D02*
X0070500Y0103348D01*
X0070500Y0102350D02*
X0030479Y0102350D01*
X0029480Y0103348D02*
X0036797Y0103348D01*
X0035848Y0104347D02*
X0028482Y0104347D01*
X0027483Y0105345D02*
X0035357Y0105345D01*
X0035291Y0107342D02*
X0025486Y0107342D01*
X0024488Y0108341D02*
X0035641Y0108341D01*
X0036424Y0109339D02*
X0023489Y0109339D01*
X0022491Y0110338D02*
X0038403Y0110338D01*
X0041200Y0110338D02*
X0041800Y0110338D01*
X0041800Y0110400D02*
X0041800Y0106800D01*
X0047800Y0106800D01*
X0047800Y0106884D01*
X0047650Y0107638D01*
X0047356Y0108347D01*
X0046929Y0108986D01*
X0046386Y0109529D01*
X0045747Y0109956D01*
X0045038Y0110250D01*
X0044284Y0110400D01*
X0041800Y0110400D01*
X0041800Y0109339D02*
X0041200Y0109339D01*
X0041200Y0108341D02*
X0041800Y0108341D01*
X0041800Y0107342D02*
X0041200Y0107342D01*
X0041800Y0106344D02*
X0050200Y0106344D01*
X0050228Y0107342D02*
X0047709Y0107342D01*
X0047359Y0108341D02*
X0050641Y0108341D01*
X0051424Y0109339D02*
X0046576Y0109339D01*
X0046249Y0113333D02*
X0051751Y0113333D01*
X0050777Y0114332D02*
X0047223Y0114332D01*
X0047637Y0115330D02*
X0050363Y0115330D01*
X0050200Y0116329D02*
X0047800Y0116329D01*
X0047779Y0117327D02*
X0050221Y0117327D01*
X0050635Y0118326D02*
X0047365Y0118326D01*
X0044597Y0110338D02*
X0053174Y0110338D01*
X0050771Y0104347D02*
X0047152Y0104347D01*
X0047356Y0104653D02*
X0047650Y0105362D01*
X0047800Y0106116D01*
X0047800Y0106200D01*
X0041800Y0106200D01*
X0041800Y0102600D01*
X0044284Y0102600D01*
X0045038Y0102750D01*
X0045747Y0103044D01*
X0046386Y0103471D01*
X0046929Y0104014D01*
X0047356Y0104653D01*
X0047643Y0105345D02*
X0050357Y0105345D01*
X0051736Y0103348D02*
X0046203Y0103348D01*
X0044790Y0100353D02*
X0053210Y0100353D01*
X0051439Y0099354D02*
X0046561Y0099354D01*
X0047353Y0098356D02*
X0050647Y0098356D01*
X0050234Y0097357D02*
X0047766Y0097357D01*
X0047800Y0096359D02*
X0050200Y0096359D01*
X0050351Y0095360D02*
X0047649Y0095360D01*
X0047236Y0094362D02*
X0050764Y0094362D01*
X0051722Y0093363D02*
X0046278Y0093363D01*
X0041800Y0103348D02*
X0041200Y0103348D01*
X0041200Y0104347D02*
X0041800Y0104347D01*
X0041800Y0105345D02*
X0041200Y0105345D01*
X0038210Y0100353D02*
X0032476Y0100353D01*
X0031477Y0101351D02*
X0070500Y0101351D01*
X0070500Y0104347D02*
X0062229Y0104347D01*
X0062643Y0105345D02*
X0070500Y0105345D01*
X0070500Y0106344D02*
X0062800Y0106344D01*
X0062772Y0107342D02*
X0070500Y0107342D01*
X0070500Y0108341D02*
X0062359Y0108341D01*
X0061576Y0109339D02*
X0070500Y0109339D01*
X0070500Y0110338D02*
X0059826Y0110338D01*
X0052500Y0120500D02*
X0039500Y0120500D01*
X0034500Y0125500D01*
X0034500Y0147500D01*
X0041500Y0154500D01*
X0041500Y0156500D01*
X0042104Y0152275D02*
X0050278Y0152275D01*
X0050272Y0172245D02*
X0046074Y0172245D01*
X0047072Y0173244D02*
X0050601Y0173244D01*
X0051327Y0174242D02*
X0048071Y0174242D01*
X0049069Y0175241D02*
X0052940Y0175241D01*
X0051312Y0184228D02*
X0039743Y0184228D01*
X0040400Y0185226D02*
X0052904Y0185226D01*
X0049404Y0181232D02*
X0030596Y0181232D01*
X0031595Y0180234D02*
X0034718Y0180234D01*
X0033720Y0179235D02*
X0032593Y0179235D01*
X0030931Y0175241D02*
X0020400Y0175241D01*
X0020400Y0176239D02*
X0029932Y0176239D01*
X0028934Y0177238D02*
X0020400Y0177238D01*
X0020279Y0178237D02*
X0027935Y0178237D01*
X0026937Y0179235D02*
X0019280Y0179235D01*
X0018282Y0180234D02*
X0025938Y0180234D01*
X0022943Y0183229D02*
X0018744Y0183229D01*
X0019743Y0184228D02*
X0021944Y0184228D01*
X0020945Y0185226D02*
X0020400Y0185226D01*
X0019613Y0192216D02*
X0062600Y0192216D01*
X0062699Y0193214D02*
X0038730Y0193214D01*
X0038115Y0192600D02*
X0040400Y0194885D01*
X0040400Y0198115D01*
X0038115Y0200400D01*
X0034885Y0200400D01*
X0032600Y0198115D01*
X0032600Y0194885D01*
X0034885Y0192600D01*
X0038115Y0192600D01*
X0038297Y0190219D02*
X0062600Y0190219D01*
X0063264Y0189220D02*
X0039295Y0189220D01*
X0040294Y0188222D02*
X0064263Y0188222D01*
X0066200Y0192216D02*
X0066800Y0192216D01*
X0066800Y0193214D02*
X0066200Y0193214D01*
X0066200Y0194213D02*
X0066800Y0194213D01*
X0066800Y0195211D02*
X0066200Y0195211D01*
X0064696Y0195211D02*
X0040400Y0195211D01*
X0040400Y0196210D02*
X0068500Y0196210D01*
X0068500Y0197208D02*
X0040400Y0197208D01*
X0040309Y0198207D02*
X0068500Y0198207D01*
X0068500Y0199205D02*
X0039310Y0199205D01*
X0038312Y0200204D02*
X0068500Y0200204D01*
X0068500Y0201202D02*
X0018500Y0201202D01*
X0018500Y0200204D02*
X0034688Y0200204D01*
X0033690Y0199205D02*
X0019310Y0199205D01*
X0020309Y0198207D02*
X0032691Y0198207D01*
X0032600Y0197208D02*
X0020400Y0197208D01*
X0020400Y0196210D02*
X0032600Y0196210D01*
X0032600Y0195211D02*
X0020400Y0195211D01*
X0019728Y0194213D02*
X0033272Y0194213D01*
X0034270Y0193214D02*
X0018730Y0193214D01*
X0016500Y0196500D02*
X0016500Y0205500D01*
X0024500Y0213500D01*
X0025122Y0214098D01*
X0023019Y0209190D02*
X0068500Y0209190D01*
X0068500Y0208192D02*
X0022020Y0208192D01*
X0021022Y0207193D02*
X0068500Y0207193D01*
X0068500Y0206195D02*
X0020023Y0206195D01*
X0019025Y0205196D02*
X0068500Y0205196D01*
X0068500Y0204198D02*
X0018500Y0204198D01*
X0018500Y0203199D02*
X0068500Y0203199D01*
X0068500Y0202201D02*
X0018500Y0202201D01*
X0016363Y0208192D02*
X0014500Y0208192D01*
X0014500Y0209190D02*
X0017362Y0209190D01*
X0018360Y0210189D02*
X0014500Y0210189D01*
X0014500Y0211187D02*
X0019359Y0211187D01*
X0020357Y0212186D02*
X0014500Y0212186D01*
X0014500Y0213184D02*
X0020472Y0213184D01*
X0020472Y0214183D02*
X0014500Y0214183D01*
X0014500Y0215181D02*
X0020538Y0215181D01*
X0020952Y0216180D02*
X0014500Y0216180D01*
X0014500Y0217178D02*
X0021627Y0217178D01*
X0015365Y0207193D02*
X0014500Y0207193D01*
X0014500Y0206195D02*
X0014500Y0206195D01*
X0014500Y0205196D02*
X0014500Y0205196D01*
X0014500Y0204198D02*
X0014500Y0204198D01*
X0014500Y0203199D02*
X0014500Y0203199D01*
X0014500Y0202201D02*
X0014500Y0202201D01*
X0014500Y0201202D02*
X0014500Y0201202D01*
X0014500Y0200204D02*
X0014500Y0200204D01*
X0014500Y0200015D02*
X0014500Y0200015D01*
X0014703Y0190219D02*
X0003968Y0190219D01*
X0018759Y0173244D02*
X0034241Y0173244D01*
X0033242Y0174242D02*
X0019758Y0174242D01*
X0027788Y0210189D02*
X0067732Y0210189D01*
X0066733Y0211187D02*
X0028787Y0211187D01*
X0029363Y0212186D02*
X0066157Y0212186D01*
X0065748Y0213184D02*
X0029772Y0213184D01*
X0029772Y0214183D02*
X0065748Y0214183D01*
X0065814Y0215181D02*
X0029706Y0215181D01*
X0029293Y0216180D02*
X0066227Y0216180D01*
X0066902Y0217178D02*
X0028618Y0217178D01*
X0027808Y0218177D02*
X0067618Y0218177D01*
X0066619Y0219175D02*
X0028837Y0219175D01*
X0029424Y0220174D02*
X0066110Y0220174D01*
X0065748Y0221172D02*
X0029703Y0221172D01*
X0029772Y0222171D02*
X0065748Y0222171D01*
X0065861Y0223170D02*
X0029622Y0223170D01*
X0029222Y0224168D02*
X0066274Y0224168D01*
X0067016Y0225167D02*
X0028503Y0225167D01*
X0028016Y0226165D02*
X0068370Y0226165D01*
X0066015Y0236150D02*
X0059979Y0236150D01*
X0060977Y0237149D02*
X0065748Y0237149D01*
X0065748Y0238147D02*
X0061976Y0238147D01*
X0062500Y0239146D02*
X0065955Y0239146D01*
X0066369Y0240144D02*
X0062500Y0240144D01*
X0062500Y0241143D02*
X0067244Y0241143D01*
X0067275Y0242141D02*
X0062500Y0242141D01*
X0062500Y0243140D02*
X0066434Y0243140D01*
X0065982Y0244138D02*
X0062500Y0244138D01*
X0062500Y0245137D02*
X0065763Y0245137D01*
X0065776Y0246135D02*
X0062500Y0246135D01*
X0062500Y0247134D02*
X0066009Y0247134D01*
X0066494Y0248132D02*
X0062500Y0248132D01*
X0061698Y0249131D02*
X0067358Y0249131D01*
X0067161Y0250129D02*
X0060699Y0250129D01*
X0060400Y0251128D02*
X0066334Y0251128D01*
X0065921Y0252126D02*
X0060400Y0252126D01*
X0060391Y0253125D02*
X0065748Y0253125D01*
X0065748Y0254123D02*
X0059392Y0254123D01*
X0058394Y0255122D02*
X0066050Y0255122D01*
X0066474Y0256120D02*
X0029046Y0256120D01*
X0029470Y0255122D02*
X0034606Y0255122D01*
X0034885Y0255400D02*
X0032600Y0253115D01*
X0032600Y0249885D01*
X0034885Y0247600D01*
X0038115Y0247600D01*
X0040400Y0249885D01*
X0040400Y0253115D01*
X0038115Y0255400D01*
X0034885Y0255400D01*
X0033608Y0254123D02*
X0029772Y0254123D01*
X0029772Y0253125D02*
X0032609Y0253125D01*
X0032600Y0252126D02*
X0029599Y0252126D01*
X0029185Y0251128D02*
X0032600Y0251128D01*
X0032600Y0250129D02*
X0028358Y0250129D01*
X0028161Y0249131D02*
X0033354Y0249131D01*
X0034352Y0248132D02*
X0029104Y0248132D01*
X0022286Y0260114D02*
X0003968Y0260114D01*
X0003968Y0259116D02*
X0021288Y0259116D01*
X0020289Y0258117D02*
X0003968Y0258117D01*
X0003968Y0257119D02*
X0019290Y0257119D01*
X0016796Y0265107D02*
X0078724Y0265107D01*
X0077242Y0265721D02*
X0080465Y0264386D01*
X0083953Y0264386D01*
X0087175Y0265721D01*
X0089642Y0268187D01*
X0090976Y0271410D01*
X0090976Y0274898D01*
X0089642Y0278120D01*
X0087175Y0280586D01*
X0083953Y0281921D01*
X0080465Y0281921D01*
X0077242Y0280586D01*
X0074776Y0278120D01*
X0073441Y0274898D01*
X0073441Y0271410D01*
X0074776Y0268187D01*
X0077242Y0265721D01*
X0076857Y0266105D02*
X0018662Y0266105D01*
X0018278Y0265721D02*
X0020744Y0268187D01*
X0022079Y0271410D01*
X0022079Y0274898D01*
X0020744Y0278120D01*
X0018278Y0280586D01*
X0015055Y0281921D01*
X0011567Y0281921D01*
X0008345Y0280586D01*
X0005878Y0278120D01*
X0004543Y0274898D01*
X0004543Y0271410D01*
X0005878Y0268187D01*
X0008345Y0265721D01*
X0011567Y0264386D01*
X0015055Y0264386D01*
X0018278Y0265721D01*
X0019661Y0267104D02*
X0075859Y0267104D01*
X0074860Y0268103D02*
X0020659Y0268103D01*
X0021123Y0269101D02*
X0074397Y0269101D01*
X0073984Y0270100D02*
X0021536Y0270100D01*
X0021950Y0271098D02*
X0073570Y0271098D01*
X0073441Y0272097D02*
X0022079Y0272097D01*
X0022079Y0273095D02*
X0073441Y0273095D01*
X0073441Y0274094D02*
X0022079Y0274094D01*
X0021998Y0275092D02*
X0073522Y0275092D01*
X0073935Y0276091D02*
X0021585Y0276091D01*
X0021171Y0277089D02*
X0074349Y0277089D01*
X0074762Y0278088D02*
X0020757Y0278088D01*
X0019778Y0279086D02*
X0075742Y0279086D01*
X0076740Y0280085D02*
X0018779Y0280085D01*
X0017078Y0281083D02*
X0078441Y0281083D01*
X0085976Y0281083D02*
X0091551Y0281083D01*
X0091551Y0280085D02*
X0087677Y0280085D01*
X0088675Y0279086D02*
X0091551Y0279086D01*
X0091551Y0278088D02*
X0089655Y0278088D01*
X0090069Y0277089D02*
X0091551Y0277089D01*
X0091551Y0276091D02*
X0090482Y0276091D01*
X0090896Y0275092D02*
X0091551Y0275092D01*
X0091551Y0274094D02*
X0090976Y0274094D01*
X0090976Y0273095D02*
X0091551Y0273095D01*
X0091551Y0272097D02*
X0090976Y0272097D01*
X0090847Y0271098D02*
X0091551Y0271098D01*
X0091551Y0270100D02*
X0090434Y0270100D01*
X0090020Y0269101D02*
X0091551Y0269101D01*
X0091551Y0268103D02*
X0089557Y0268103D01*
X0088559Y0267104D02*
X0091551Y0267104D01*
X0091551Y0266105D02*
X0087560Y0266105D01*
X0085694Y0265107D02*
X0091551Y0265107D01*
X0091551Y0264108D02*
X0003968Y0264108D01*
X0003968Y0263110D02*
X0091551Y0263110D01*
X0091551Y0262111D02*
X0003968Y0262111D01*
X0003968Y0261113D02*
X0091551Y0261113D01*
X0091551Y0282082D02*
X0003968Y0282082D01*
X0003968Y0281083D02*
X0009544Y0281083D01*
X0007843Y0280085D02*
X0003968Y0280085D01*
X0003968Y0279086D02*
X0006844Y0279086D01*
X0005865Y0278088D02*
X0003968Y0278088D01*
X0003968Y0277089D02*
X0005451Y0277089D01*
X0005038Y0276091D02*
X0003968Y0276091D01*
X0003968Y0275092D02*
X0004624Y0275092D01*
X0004543Y0274094D02*
X0003968Y0274094D01*
X0003968Y0273095D02*
X0004543Y0273095D01*
X0004543Y0272097D02*
X0003968Y0272097D01*
X0003968Y0271098D02*
X0004672Y0271098D01*
X0005086Y0270100D02*
X0003968Y0270100D01*
X0003968Y0269101D02*
X0005500Y0269101D01*
X0005963Y0268103D02*
X0003968Y0268103D01*
X0003968Y0267104D02*
X0006961Y0267104D01*
X0007960Y0266105D02*
X0003968Y0266105D01*
X0003968Y0265107D02*
X0009826Y0265107D01*
X0038394Y0255122D02*
X0054606Y0255122D01*
X0053608Y0254123D02*
X0039392Y0254123D01*
X0040391Y0253125D02*
X0052609Y0253125D01*
X0052600Y0252126D02*
X0040400Y0252126D01*
X0040400Y0251128D02*
X0052600Y0251128D01*
X0052600Y0250129D02*
X0040400Y0250129D01*
X0039646Y0249131D02*
X0053354Y0249131D01*
X0054352Y0248132D02*
X0038648Y0248132D01*
X0041692Y0245137D02*
X0054621Y0245137D01*
X0053623Y0244138D02*
X0042690Y0244138D01*
X0041027Y0240144D02*
X0040400Y0240144D01*
X0041200Y0235152D02*
X0041800Y0235152D01*
X0041800Y0234153D02*
X0041200Y0234153D01*
X0041200Y0233155D02*
X0041800Y0233155D01*
X0041800Y0232156D02*
X0041200Y0232156D01*
X0041200Y0231158D02*
X0041800Y0231158D01*
X0041800Y0231200D02*
X0041800Y0227600D01*
X0043115Y0227600D01*
X0045400Y0229885D01*
X0045400Y0231200D01*
X0041800Y0231200D01*
X0041800Y0230159D02*
X0041200Y0230159D01*
X0041200Y0229161D02*
X0041800Y0229161D01*
X0041800Y0228162D02*
X0041200Y0228162D01*
X0043677Y0228162D02*
X0049323Y0228162D01*
X0048324Y0229161D02*
X0044676Y0229161D01*
X0045400Y0230159D02*
X0047600Y0230159D01*
X0047600Y0231158D02*
X0045400Y0231158D01*
X0045400Y0232156D02*
X0047600Y0232156D01*
X0047639Y0233155D02*
X0045361Y0233155D01*
X0044362Y0234153D02*
X0048638Y0234153D01*
X0049636Y0235152D02*
X0043364Y0235152D01*
X0051500Y0231500D02*
X0057500Y0237500D01*
X0070398Y0214098D02*
X0070500Y0213500D01*
X0070500Y0168500D01*
X0068500Y0166500D01*
X0072500Y0188222D02*
X0074263Y0188222D01*
X0073264Y0189220D02*
X0072500Y0189220D01*
X0072500Y0190219D02*
X0072600Y0190219D01*
X0072600Y0191217D02*
X0072500Y0191217D01*
X0072500Y0192216D02*
X0072600Y0192216D01*
X0072500Y0193214D02*
X0072699Y0193214D01*
X0072500Y0194213D02*
X0073697Y0194213D01*
X0074696Y0195211D02*
X0072500Y0195211D01*
X0068500Y0195211D02*
X0068304Y0195211D01*
X0063697Y0194213D02*
X0039728Y0194213D01*
X0038420Y0170248D02*
X0033267Y0170248D01*
X0034266Y0169250D02*
X0037421Y0169250D01*
X0036423Y0168251D02*
X0035264Y0168251D01*
X0035400Y0167253D02*
X0035424Y0167253D01*
X0036500Y0143289D02*
X0036886Y0143289D01*
X0036500Y0140293D02*
X0038066Y0140293D01*
X0038253Y0130308D02*
X0036500Y0130308D01*
X0041200Y0130308D02*
X0041800Y0130308D01*
X0041800Y0129309D02*
X0041200Y0129309D01*
X0041200Y0128311D02*
X0041800Y0128311D01*
X0041800Y0127312D02*
X0041200Y0127312D01*
X0041200Y0125315D02*
X0041800Y0125315D01*
X0041800Y0124317D02*
X0041200Y0124317D01*
X0041200Y0123318D02*
X0041800Y0123318D01*
X0036439Y0099354D02*
X0033474Y0099354D01*
X0034473Y0098356D02*
X0035647Y0098356D01*
X0030554Y0080382D02*
X0029772Y0080382D01*
X0034214Y0078385D02*
X0039099Y0078385D01*
X0038101Y0079384D02*
X0035212Y0079384D01*
X0022958Y0084376D02*
X0003968Y0084376D01*
X0003968Y0083378D02*
X0021684Y0083378D01*
X0020975Y0082379D02*
X0003968Y0082379D01*
X0003968Y0081381D02*
X0020562Y0081381D01*
X0020472Y0080382D02*
X0003968Y0080382D01*
X0003968Y0079384D02*
X0020472Y0079384D01*
X0020858Y0078385D02*
X0003968Y0078385D01*
X0003968Y0077387D02*
X0021400Y0077387D01*
X0022398Y0076388D02*
X0003968Y0076388D01*
X0003968Y0075390D02*
X0021570Y0075390D01*
X0020928Y0074391D02*
X0003968Y0074391D01*
X0003968Y0073393D02*
X0020515Y0073393D01*
X0020472Y0072394D02*
X0003968Y0072394D01*
X0003968Y0071396D02*
X0020491Y0071396D01*
X0020905Y0070397D02*
X0003968Y0070397D01*
X0003968Y0069399D02*
X0021514Y0069399D01*
X0020965Y0062409D02*
X0003968Y0062409D01*
X0003968Y0061411D02*
X0021628Y0061411D01*
X0022341Y0060412D02*
X0003968Y0060412D01*
X0003968Y0059414D02*
X0021342Y0059414D01*
X0020834Y0058415D02*
X0003968Y0058415D01*
X0003968Y0057417D02*
X0020472Y0057417D01*
X0020472Y0056418D02*
X0003968Y0056418D01*
X0003968Y0055420D02*
X0020586Y0055420D01*
X0020999Y0054421D02*
X0003968Y0054421D01*
X0003968Y0053423D02*
X0021742Y0053423D01*
X0022500Y0052424D02*
X0003968Y0052424D01*
X0003968Y0051426D02*
X0022500Y0051426D01*
X0022500Y0050427D02*
X0003968Y0050427D01*
X0003968Y0049429D02*
X0022500Y0049429D01*
X0022500Y0048430D02*
X0003968Y0048430D01*
X0003968Y0047432D02*
X0021603Y0047432D01*
X0020605Y0046433D02*
X0003968Y0046433D01*
X0003968Y0045434D02*
X0019606Y0045434D01*
X0018608Y0044436D02*
X0003968Y0044436D01*
X0003968Y0043437D02*
X0017609Y0043437D01*
X0017500Y0042439D02*
X0003968Y0042439D01*
X0003968Y0041440D02*
X0017500Y0041440D01*
X0017500Y0040442D02*
X0003968Y0040442D01*
X0003968Y0039443D02*
X0017500Y0039443D01*
X0017500Y0038445D02*
X0003968Y0038445D01*
X0003968Y0037446D02*
X0017725Y0037446D01*
X0018724Y0036448D02*
X0003968Y0036448D01*
X0003968Y0035449D02*
X0019722Y0035449D01*
X0020692Y0034451D02*
X0003968Y0034451D01*
X0003968Y0033452D02*
X0020472Y0033452D01*
X0020472Y0032454D02*
X0003968Y0032454D01*
X0003968Y0031455D02*
X0020728Y0031455D01*
X0021141Y0030457D02*
X0003968Y0030457D01*
X0003968Y0029458D02*
X0022084Y0029458D01*
X0023924Y0028460D02*
X0003968Y0028460D01*
X0003968Y0027461D02*
X0091551Y0027461D01*
X0091551Y0026463D02*
X0003968Y0026463D01*
X0003968Y0025464D02*
X0091551Y0025464D01*
X0091551Y0024466D02*
X0071450Y0024466D01*
X0072306Y0023467D02*
X0091551Y0023467D01*
X0091551Y0022469D02*
X0072720Y0022469D01*
X0072800Y0021470D02*
X0078996Y0021470D01*
X0076970Y0020472D02*
X0072695Y0020472D01*
X0072282Y0019473D02*
X0075971Y0019473D01*
X0074973Y0018475D02*
X0071390Y0018475D01*
X0073441Y0014481D02*
X0022079Y0014481D01*
X0022079Y0013482D02*
X0073441Y0013482D01*
X0073441Y0012484D02*
X0022079Y0012484D01*
X0022045Y0011485D02*
X0073475Y0011485D01*
X0073888Y0010487D02*
X0021631Y0010487D01*
X0021218Y0009488D02*
X0074302Y0009488D01*
X0074716Y0008490D02*
X0020804Y0008490D01*
X0019890Y0007491D02*
X0075629Y0007491D01*
X0076628Y0006493D02*
X0018892Y0006493D01*
X0017350Y0005494D02*
X0078169Y0005494D01*
X0073617Y0015479D02*
X0021903Y0015479D01*
X0021489Y0016478D02*
X0074030Y0016478D01*
X0074444Y0017476D02*
X0021076Y0017476D01*
X0011800Y0093363D02*
X0011200Y0093363D01*
X0011200Y0094362D02*
X0011800Y0094362D01*
X0011800Y0095360D02*
X0011200Y0095360D01*
X0011200Y0097357D02*
X0011800Y0097357D01*
X0011800Y0098356D02*
X0011200Y0098356D01*
X0011200Y0099354D02*
X0011800Y0099354D01*
X0011800Y0100353D02*
X0011200Y0100353D01*
X0021492Y0111336D02*
X0070500Y0111336D01*
X0070500Y0134302D02*
X0069817Y0134302D01*
X0070400Y0135301D02*
X0070500Y0135301D01*
X0051587Y0058415D02*
X0048931Y0058415D01*
D14*
X0073500Y0164500D03*
M02*
