G75*
%MOIN*%
%OFA0B0*%
%FSLAX25Y25*%
%IPPOS*%
%LPD*%
%AMOC8*
5,1,8,0,0,1.08239X$1,22.5*
%
%ADD10OC8,0.04800*%
%ADD11C,0.04800*%
%ADD12C,0.06299*%
%ADD13C,0.01000*%
%ADD14C,0.00500*%
D10*
X0014000Y0106250D03*
X0014000Y0116250D03*
X0014000Y0186250D03*
X0024000Y0186250D03*
X0039000Y0236250D03*
X0039000Y0246250D03*
X0039000Y0256250D03*
X0044000Y0216250D03*
X0044000Y0206250D03*
X0044000Y0186250D03*
X0054000Y0186250D03*
X0054000Y0206250D03*
X0054000Y0216250D03*
X0059000Y0236250D03*
X0059000Y0246250D03*
X0059000Y0256250D03*
X0074000Y0186250D03*
X0084000Y0186250D03*
X0084000Y0081250D03*
X0074000Y0081250D03*
X0064000Y0081250D03*
X0064000Y0031250D03*
X0044000Y0031250D03*
X0044000Y0081250D03*
D11*
X0044200Y0071250D02*
X0049000Y0071250D01*
X0049000Y0061250D02*
X0044200Y0061250D01*
X0044200Y0051250D02*
X0049000Y0051250D01*
X0049000Y0041250D02*
X0044200Y0041250D01*
X0041400Y0021250D02*
X0036600Y0021250D01*
X0034000Y0093850D02*
X0034000Y0098650D01*
X0034000Y0123850D02*
X0034000Y0128650D01*
X0034000Y0138850D02*
X0034000Y0143650D01*
X0034000Y0168850D02*
X0034000Y0173650D01*
X0024000Y0173650D02*
X0024000Y0168850D01*
X0024000Y0143650D02*
X0024000Y0138850D01*
X0024000Y0128650D02*
X0024000Y0123850D01*
X0024000Y0098650D02*
X0024000Y0093850D01*
X0014000Y0138850D02*
X0014000Y0143650D01*
X0014000Y0168850D02*
X0014000Y0173650D01*
X0044000Y0173650D02*
X0044000Y0168850D01*
X0044000Y0143650D02*
X0044000Y0138850D01*
X0044000Y0128650D02*
X0044000Y0123850D01*
X0044000Y0098650D02*
X0044000Y0093850D01*
X0054000Y0093850D02*
X0054000Y0098650D01*
X0054000Y0123850D02*
X0054000Y0128650D01*
X0054000Y0138850D02*
X0054000Y0143650D01*
X0054000Y0168850D02*
X0054000Y0173650D01*
X0064000Y0173650D02*
X0064000Y0168850D01*
X0064000Y0143650D02*
X0064000Y0138850D01*
X0064000Y0128650D02*
X0064000Y0123850D01*
X0064000Y0098650D02*
X0064000Y0093850D01*
X0074000Y0093850D02*
X0074000Y0098650D01*
X0074000Y0123850D02*
X0074000Y0128650D01*
X0074000Y0138850D02*
X0074000Y0143650D01*
X0074000Y0168850D02*
X0074000Y0173650D01*
X0084000Y0173650D02*
X0084000Y0168850D01*
X0084000Y0143650D02*
X0084000Y0138850D01*
X0084000Y0128650D02*
X0084000Y0123850D01*
X0084000Y0098650D02*
X0084000Y0093850D01*
X0083800Y0071250D02*
X0079000Y0071250D01*
X0079000Y0061250D02*
X0083800Y0061250D01*
X0083800Y0051250D02*
X0079000Y0051250D01*
X0079000Y0041250D02*
X0083800Y0041250D01*
X0071400Y0021250D02*
X0066600Y0021250D01*
D12*
X0027622Y0032746D03*
X0027622Y0040620D03*
X0027622Y0056368D03*
X0027622Y0064242D03*
X0027622Y0072116D03*
X0027622Y0079990D03*
X0027622Y0213848D03*
X0027622Y0221722D03*
X0027622Y0229596D03*
X0027622Y0245344D03*
X0027622Y0253219D03*
X0070929Y0253219D03*
X0070929Y0245344D03*
X0070929Y0237470D03*
X0070929Y0221722D03*
X0070929Y0213848D03*
D13*
X0066000Y0221250D02*
X0066000Y0233250D01*
X0070000Y0237250D01*
X0070929Y0237470D01*
X0066000Y0221250D02*
X0054000Y0209250D01*
X0054000Y0206250D01*
X0050000Y0208250D02*
X0054000Y0212250D01*
X0054000Y0216250D01*
X0054000Y0225250D01*
X0063000Y0234250D01*
X0063000Y0252250D01*
X0059000Y0256250D01*
X0059000Y0236250D02*
X0045000Y0236250D01*
X0039000Y0230250D01*
X0048000Y0221250D01*
X0048000Y0203250D01*
X0064000Y0187250D01*
X0064000Y0171250D01*
X0068000Y0167250D02*
X0063000Y0162250D01*
X0064000Y0161250D01*
X0064000Y0141250D01*
X0074000Y0134250D02*
X0068000Y0128250D01*
X0068000Y0078250D01*
X0053000Y0063250D01*
X0064000Y0052250D01*
X0064000Y0031250D01*
X0079000Y0055250D02*
X0075000Y0059250D01*
X0075000Y0076250D01*
X0080000Y0081250D01*
X0080000Y0137250D01*
X0084000Y0141250D01*
X0074000Y0141250D02*
X0074000Y0134250D01*
X0063000Y0162250D02*
X0054000Y0171250D01*
X0053000Y0171250D01*
X0038000Y0186250D01*
X0024000Y0186250D01*
X0018000Y0186250D02*
X0026000Y0178250D01*
X0037000Y0178250D01*
X0044000Y0171250D01*
X0044000Y0141250D02*
X0054000Y0131250D01*
X0054000Y0126250D01*
X0068000Y0167250D02*
X0068000Y0173250D01*
X0075000Y0180250D01*
X0074000Y0180250D01*
X0050000Y0204250D01*
X0050000Y0208250D01*
X0044000Y0216250D02*
X0033000Y0216250D01*
X0033000Y0201250D01*
X0018000Y0186250D01*
X0014000Y0186250D01*
X0028000Y0221250D02*
X0027622Y0221722D01*
X0028000Y0221250D02*
X0033000Y0216250D01*
X0027622Y0229596D02*
X0028000Y0230250D01*
X0039000Y0230250D01*
X0014000Y0141250D02*
X0014000Y0122250D01*
X0024000Y0112250D01*
X0024000Y0096250D01*
X0027622Y0079990D02*
X0028000Y0079250D01*
X0040000Y0067250D01*
X0049000Y0067250D01*
X0053000Y0063250D01*
X0044000Y0031250D02*
X0048000Y0027250D01*
X0076000Y0027250D01*
X0088000Y0039250D01*
X0088000Y0053250D01*
X0086000Y0055250D01*
X0085000Y0055250D01*
X0079000Y0061250D01*
X0079000Y0055250D02*
X0079000Y0051250D01*
X0044000Y0031250D02*
X0033000Y0031250D01*
X0033000Y0042250D01*
X0028000Y0047250D01*
X0028000Y0056250D01*
X0027622Y0056368D01*
X0027000Y0057250D01*
X0018000Y0066250D01*
X0018000Y0112250D01*
X0014000Y0116250D01*
X0027622Y0032746D02*
X0028000Y0032250D01*
X0029000Y0031250D01*
X0033000Y0031250D01*
X0075000Y0180250D02*
X0081000Y0186250D01*
X0084000Y0186250D01*
D14*
X0006218Y0282496D02*
X0006218Y0003468D01*
X0092333Y0003468D01*
X0092333Y0282496D01*
X0006218Y0282496D01*
X0006218Y0282410D02*
X0092333Y0282410D01*
X0092333Y0281912D02*
X0006218Y0281912D01*
X0006218Y0281413D02*
X0014098Y0281413D01*
X0014117Y0281421D02*
X0010986Y0280125D01*
X0008590Y0277728D01*
X0007293Y0274598D01*
X0007293Y0271209D01*
X0008590Y0268079D01*
X0010986Y0265683D01*
X0014117Y0264386D01*
X0017505Y0264386D01*
X0020636Y0265683D01*
X0023032Y0268079D01*
X0024329Y0271209D01*
X0024329Y0274598D01*
X0023032Y0277728D01*
X0020636Y0280125D01*
X0017505Y0281421D01*
X0014117Y0281421D01*
X0012894Y0280915D02*
X0006218Y0280915D01*
X0006218Y0280416D02*
X0011691Y0280416D01*
X0010779Y0279918D02*
X0006218Y0279918D01*
X0006218Y0279419D02*
X0010281Y0279419D01*
X0009782Y0278921D02*
X0006218Y0278921D01*
X0006218Y0278422D02*
X0009284Y0278422D01*
X0008785Y0277924D02*
X0006218Y0277924D01*
X0006218Y0277425D02*
X0008464Y0277425D01*
X0008258Y0276927D02*
X0006218Y0276927D01*
X0006218Y0276428D02*
X0008052Y0276428D01*
X0007845Y0275930D02*
X0006218Y0275930D01*
X0006218Y0275431D02*
X0007639Y0275431D01*
X0007432Y0274933D02*
X0006218Y0274933D01*
X0006218Y0274434D02*
X0007293Y0274434D01*
X0007293Y0273936D02*
X0006218Y0273936D01*
X0006218Y0273437D02*
X0007293Y0273437D01*
X0007293Y0272939D02*
X0006218Y0272939D01*
X0006218Y0272440D02*
X0007293Y0272440D01*
X0007293Y0271942D02*
X0006218Y0271942D01*
X0006218Y0271443D02*
X0007293Y0271443D01*
X0007403Y0270945D02*
X0006218Y0270945D01*
X0006218Y0270446D02*
X0007609Y0270446D01*
X0007816Y0269948D02*
X0006218Y0269948D01*
X0006218Y0269449D02*
X0008022Y0269449D01*
X0008229Y0268951D02*
X0006218Y0268951D01*
X0006218Y0268452D02*
X0008435Y0268452D01*
X0008715Y0267954D02*
X0006218Y0267954D01*
X0006218Y0267455D02*
X0009214Y0267455D01*
X0009712Y0266957D02*
X0006218Y0266957D01*
X0006218Y0266458D02*
X0010211Y0266458D01*
X0010709Y0265960D02*
X0006218Y0265960D01*
X0006218Y0265461D02*
X0011521Y0265461D01*
X0012725Y0264962D02*
X0006218Y0264962D01*
X0006218Y0264464D02*
X0013928Y0264464D01*
X0017694Y0264464D02*
X0080857Y0264464D01*
X0081046Y0264386D02*
X0084434Y0264386D01*
X0087565Y0265683D01*
X0089961Y0268079D01*
X0091258Y0271209D01*
X0091258Y0274598D01*
X0089961Y0277728D01*
X0087565Y0280125D01*
X0084434Y0281421D01*
X0081046Y0281421D01*
X0077915Y0280125D01*
X0075519Y0277728D01*
X0074222Y0274598D01*
X0074222Y0271209D01*
X0075519Y0268079D01*
X0077915Y0265683D01*
X0081046Y0264386D01*
X0079654Y0264962D02*
X0018897Y0264962D01*
X0020101Y0265461D02*
X0078450Y0265461D01*
X0077638Y0265960D02*
X0020913Y0265960D01*
X0021411Y0266458D02*
X0077140Y0266458D01*
X0076641Y0266957D02*
X0021910Y0266957D01*
X0022408Y0267455D02*
X0076143Y0267455D01*
X0075644Y0267954D02*
X0022907Y0267954D01*
X0023187Y0268452D02*
X0075364Y0268452D01*
X0075158Y0268951D02*
X0023393Y0268951D01*
X0023600Y0269449D02*
X0074952Y0269449D01*
X0074745Y0269948D02*
X0023806Y0269948D01*
X0024013Y0270446D02*
X0074539Y0270446D01*
X0074332Y0270945D02*
X0024219Y0270945D01*
X0024329Y0271443D02*
X0074222Y0271443D01*
X0074222Y0271942D02*
X0024329Y0271942D01*
X0024329Y0272440D02*
X0074222Y0272440D01*
X0074222Y0272939D02*
X0024329Y0272939D01*
X0024329Y0273437D02*
X0074222Y0273437D01*
X0074222Y0273936D02*
X0024329Y0273936D01*
X0024329Y0274434D02*
X0074222Y0274434D01*
X0074361Y0274933D02*
X0024190Y0274933D01*
X0023984Y0275431D02*
X0074568Y0275431D01*
X0074774Y0275930D02*
X0023777Y0275930D01*
X0023571Y0276428D02*
X0074981Y0276428D01*
X0075187Y0276927D02*
X0023364Y0276927D01*
X0023158Y0277425D02*
X0075394Y0277425D01*
X0075715Y0277924D02*
X0022837Y0277924D01*
X0022338Y0278422D02*
X0076213Y0278422D01*
X0076712Y0278921D02*
X0021840Y0278921D01*
X0021341Y0279419D02*
X0077210Y0279419D01*
X0077709Y0279918D02*
X0020843Y0279918D01*
X0019931Y0280416D02*
X0078620Y0280416D01*
X0079823Y0280915D02*
X0018728Y0280915D01*
X0017524Y0281413D02*
X0081027Y0281413D01*
X0084453Y0281413D02*
X0092333Y0281413D01*
X0092333Y0280915D02*
X0085657Y0280915D01*
X0086861Y0280416D02*
X0092333Y0280416D01*
X0092333Y0279918D02*
X0087772Y0279918D01*
X0088270Y0279419D02*
X0092333Y0279419D01*
X0092333Y0278921D02*
X0088769Y0278921D01*
X0089267Y0278422D02*
X0092333Y0278422D01*
X0092333Y0277924D02*
X0089766Y0277924D01*
X0090087Y0277425D02*
X0092333Y0277425D01*
X0092333Y0276927D02*
X0090293Y0276927D01*
X0090500Y0276428D02*
X0092333Y0276428D01*
X0092333Y0275930D02*
X0090706Y0275930D01*
X0090913Y0275431D02*
X0092333Y0275431D01*
X0092333Y0274933D02*
X0091119Y0274933D01*
X0091258Y0274434D02*
X0092333Y0274434D01*
X0092333Y0273936D02*
X0091258Y0273936D01*
X0091258Y0273437D02*
X0092333Y0273437D01*
X0092333Y0272939D02*
X0091258Y0272939D01*
X0091258Y0272440D02*
X0092333Y0272440D01*
X0092333Y0271942D02*
X0091258Y0271942D01*
X0091258Y0271443D02*
X0092333Y0271443D01*
X0092333Y0270945D02*
X0091148Y0270945D01*
X0090942Y0270446D02*
X0092333Y0270446D01*
X0092333Y0269948D02*
X0090735Y0269948D01*
X0090529Y0269449D02*
X0092333Y0269449D01*
X0092333Y0268951D02*
X0090322Y0268951D01*
X0090116Y0268452D02*
X0092333Y0268452D01*
X0092333Y0267954D02*
X0089836Y0267954D01*
X0089338Y0267455D02*
X0092333Y0267455D01*
X0092333Y0266957D02*
X0088839Y0266957D01*
X0088341Y0266458D02*
X0092333Y0266458D01*
X0092333Y0265960D02*
X0087842Y0265960D01*
X0087030Y0265461D02*
X0092333Y0265461D01*
X0092333Y0264962D02*
X0085827Y0264962D01*
X0084623Y0264464D02*
X0092333Y0264464D01*
X0092333Y0263965D02*
X0006218Y0263965D01*
X0006218Y0263467D02*
X0092333Y0263467D01*
X0092333Y0262968D02*
X0006218Y0262968D01*
X0006218Y0262470D02*
X0092333Y0262470D01*
X0092333Y0261971D02*
X0006218Y0261971D01*
X0006218Y0261473D02*
X0092333Y0261473D01*
X0092333Y0260974D02*
X0006218Y0260974D01*
X0006218Y0260476D02*
X0092333Y0260476D01*
X0092333Y0259977D02*
X0006218Y0259977D01*
X0006218Y0259479D02*
X0037067Y0259479D01*
X0037488Y0259900D02*
X0035350Y0257762D01*
X0035350Y0254738D01*
X0037488Y0252600D01*
X0040512Y0252600D01*
X0042650Y0254738D01*
X0042650Y0257762D01*
X0040512Y0259900D01*
X0037488Y0259900D01*
X0036568Y0258980D02*
X0006218Y0258980D01*
X0006218Y0258482D02*
X0036070Y0258482D01*
X0035571Y0257983D02*
X0006218Y0257983D01*
X0006218Y0257485D02*
X0026425Y0257485D01*
X0026747Y0257618D02*
X0025130Y0256948D01*
X0023892Y0255711D01*
X0023222Y0254094D01*
X0023222Y0252343D01*
X0023892Y0250726D01*
X0025130Y0249489D01*
X0025630Y0249281D01*
X0025130Y0249074D01*
X0023892Y0247837D01*
X0023222Y0246220D01*
X0023222Y0244469D01*
X0023892Y0242852D01*
X0025130Y0241615D01*
X0026747Y0240945D01*
X0028497Y0240945D01*
X0030114Y0241615D01*
X0031352Y0242852D01*
X0032022Y0244469D01*
X0032022Y0246220D01*
X0031352Y0247837D01*
X0030114Y0249074D01*
X0029614Y0249281D01*
X0030114Y0249489D01*
X0031352Y0250726D01*
X0032022Y0252343D01*
X0032022Y0254094D01*
X0031352Y0255711D01*
X0030114Y0256948D01*
X0028497Y0257618D01*
X0026747Y0257618D01*
X0025222Y0256986D02*
X0006218Y0256986D01*
X0006218Y0256488D02*
X0024669Y0256488D01*
X0024171Y0255989D02*
X0006218Y0255989D01*
X0006218Y0255491D02*
X0023801Y0255491D01*
X0023595Y0254992D02*
X0006218Y0254992D01*
X0006218Y0254494D02*
X0023388Y0254494D01*
X0023222Y0253995D02*
X0006218Y0253995D01*
X0006218Y0253497D02*
X0023222Y0253497D01*
X0023222Y0252998D02*
X0006218Y0252998D01*
X0006218Y0252500D02*
X0023222Y0252500D01*
X0023364Y0252001D02*
X0006218Y0252001D01*
X0006218Y0251503D02*
X0023571Y0251503D01*
X0023777Y0251004D02*
X0006218Y0251004D01*
X0006218Y0250506D02*
X0024113Y0250506D01*
X0024611Y0250007D02*
X0006218Y0250007D01*
X0006218Y0249509D02*
X0025110Y0249509D01*
X0025066Y0249010D02*
X0006218Y0249010D01*
X0006218Y0248512D02*
X0024567Y0248512D01*
X0024069Y0248013D02*
X0006218Y0248013D01*
X0006218Y0247515D02*
X0023759Y0247515D01*
X0023552Y0247016D02*
X0006218Y0247016D01*
X0006218Y0246518D02*
X0023346Y0246518D01*
X0023222Y0246019D02*
X0006218Y0246019D01*
X0006218Y0245521D02*
X0023222Y0245521D01*
X0023222Y0245022D02*
X0006218Y0245022D01*
X0006218Y0244524D02*
X0023222Y0244524D01*
X0023406Y0244025D02*
X0006218Y0244025D01*
X0006218Y0243527D02*
X0023613Y0243527D01*
X0023819Y0243028D02*
X0006218Y0243028D01*
X0006218Y0242529D02*
X0024215Y0242529D01*
X0024714Y0242031D02*
X0006218Y0242031D01*
X0006218Y0241532D02*
X0025328Y0241532D01*
X0026532Y0241034D02*
X0006218Y0241034D01*
X0006218Y0240535D02*
X0061250Y0240535D01*
X0061250Y0240037D02*
X0006218Y0240037D01*
X0006218Y0239538D02*
X0037127Y0239538D01*
X0037488Y0239900D02*
X0035350Y0237762D01*
X0035350Y0234738D01*
X0037488Y0232600D01*
X0038875Y0232600D01*
X0038275Y0232000D01*
X0031389Y0232000D01*
X0031352Y0232089D01*
X0030114Y0233326D01*
X0028497Y0233996D01*
X0026747Y0233996D01*
X0025130Y0233326D01*
X0023892Y0232089D01*
X0023222Y0230472D01*
X0023222Y0228721D01*
X0023892Y0227104D01*
X0025130Y0225867D01*
X0025645Y0225653D01*
X0025316Y0225485D01*
X0024756Y0225078D01*
X0024266Y0224589D01*
X0023859Y0224028D01*
X0023545Y0223411D01*
X0023331Y0222753D01*
X0023222Y0222069D01*
X0023222Y0221972D01*
X0027372Y0221972D01*
X0027372Y0221472D01*
X0023222Y0221472D01*
X0023222Y0221376D01*
X0023331Y0220692D01*
X0023545Y0220034D01*
X0023859Y0219417D01*
X0024266Y0218856D01*
X0024756Y0218367D01*
X0025316Y0217960D01*
X0025645Y0217792D01*
X0025130Y0217578D01*
X0023892Y0216341D01*
X0023222Y0214724D01*
X0023222Y0212973D01*
X0023892Y0211356D01*
X0025130Y0210119D01*
X0026747Y0209449D01*
X0028497Y0209449D01*
X0030114Y0210119D01*
X0031352Y0211356D01*
X0032022Y0212973D01*
X0032022Y0214724D01*
X0031352Y0216341D01*
X0030114Y0217578D01*
X0029599Y0217792D01*
X0029928Y0217960D01*
X0030488Y0218367D01*
X0030978Y0218856D01*
X0031385Y0219417D01*
X0031699Y0220034D01*
X0031913Y0220692D01*
X0032022Y0221376D01*
X0032022Y0221472D01*
X0027872Y0221472D01*
X0027872Y0221972D01*
X0032022Y0221972D01*
X0032022Y0222069D01*
X0031913Y0222753D01*
X0031699Y0223411D01*
X0031385Y0224028D01*
X0030978Y0224589D01*
X0030488Y0225078D01*
X0029928Y0225485D01*
X0029599Y0225653D01*
X0030114Y0225867D01*
X0031352Y0227104D01*
X0031930Y0228500D01*
X0038275Y0228500D01*
X0046250Y0220525D01*
X0046250Y0219162D01*
X0045512Y0219900D01*
X0044250Y0219900D01*
X0044250Y0216500D01*
X0043750Y0216500D01*
X0043750Y0219900D01*
X0042488Y0219900D01*
X0040350Y0217762D01*
X0040350Y0216500D01*
X0043750Y0216500D01*
X0043750Y0216000D01*
X0044250Y0216000D01*
X0044250Y0212600D01*
X0045512Y0212600D01*
X0046250Y0213338D01*
X0046250Y0209162D01*
X0045512Y0209900D01*
X0042488Y0209900D01*
X0040350Y0207762D01*
X0040350Y0204738D01*
X0042488Y0202600D01*
X0045512Y0202600D01*
X0046250Y0203338D01*
X0046250Y0202525D01*
X0047275Y0201500D01*
X0062250Y0186525D01*
X0062250Y0176876D01*
X0061932Y0176744D01*
X0060906Y0175718D01*
X0060350Y0174376D01*
X0060350Y0168124D01*
X0060880Y0166845D01*
X0057650Y0170075D01*
X0057650Y0174376D01*
X0057094Y0175718D01*
X0056068Y0176744D01*
X0054726Y0177300D01*
X0053274Y0177300D01*
X0051932Y0176744D01*
X0050956Y0175768D01*
X0044125Y0182600D01*
X0045512Y0182600D01*
X0047650Y0184738D01*
X0047650Y0187762D01*
X0045512Y0189900D01*
X0042488Y0189900D01*
X0040350Y0187762D01*
X0040350Y0186375D01*
X0038725Y0188000D01*
X0027412Y0188000D01*
X0025512Y0189900D01*
X0022488Y0189900D01*
X0020350Y0187762D01*
X0020350Y0184738D01*
X0022488Y0182600D01*
X0025512Y0182600D01*
X0027412Y0184500D01*
X0037275Y0184500D01*
X0044504Y0177271D01*
X0044359Y0177300D01*
X0044250Y0177300D01*
X0044250Y0171500D01*
X0047650Y0171500D01*
X0047650Y0174009D01*
X0047621Y0174154D01*
X0050350Y0171425D01*
X0050350Y0168124D01*
X0050906Y0166782D01*
X0051932Y0165756D01*
X0053274Y0165200D01*
X0054726Y0165200D01*
X0056068Y0165756D01*
X0056544Y0166232D01*
X0061250Y0161525D01*
X0062250Y0160525D01*
X0062250Y0146876D01*
X0061932Y0146744D01*
X0060906Y0145718D01*
X0060350Y0144376D01*
X0060350Y0138124D01*
X0060906Y0136782D01*
X0061932Y0135756D01*
X0063274Y0135200D01*
X0064726Y0135200D01*
X0066068Y0135756D01*
X0067094Y0136782D01*
X0067650Y0138124D01*
X0067650Y0144376D01*
X0067094Y0145718D01*
X0066068Y0146744D01*
X0065750Y0146876D01*
X0065750Y0161975D01*
X0065475Y0162250D01*
X0069750Y0166525D01*
X0069750Y0172525D01*
X0070350Y0173125D01*
X0070350Y0168124D01*
X0070906Y0166782D01*
X0071932Y0165756D01*
X0073274Y0165200D01*
X0074726Y0165200D01*
X0076068Y0165756D01*
X0077094Y0166782D01*
X0077650Y0168124D01*
X0077650Y0174376D01*
X0077094Y0175718D01*
X0076068Y0176744D01*
X0074726Y0177300D01*
X0074525Y0177300D01*
X0075725Y0178500D01*
X0076750Y0179525D01*
X0076750Y0179525D01*
X0081156Y0183932D01*
X0082488Y0182600D01*
X0085512Y0182600D01*
X0087650Y0184738D01*
X0087650Y0187762D01*
X0085512Y0189900D01*
X0082488Y0189900D01*
X0080588Y0188000D01*
X0080275Y0188000D01*
X0077650Y0185375D01*
X0077650Y0186000D01*
X0074250Y0186000D01*
X0074250Y0186500D01*
X0073750Y0186500D01*
X0073750Y0189900D01*
X0072488Y0189900D01*
X0070350Y0187762D01*
X0070350Y0186500D01*
X0073750Y0186500D01*
X0073750Y0186000D01*
X0070725Y0186000D01*
X0054125Y0202600D01*
X0055512Y0202600D01*
X0057650Y0204738D01*
X0057650Y0207762D01*
X0056318Y0209094D01*
X0066725Y0219500D01*
X0066981Y0219756D01*
X0067199Y0219230D01*
X0068437Y0217993D01*
X0068937Y0217785D01*
X0068437Y0217578D01*
X0067199Y0216341D01*
X0066530Y0214724D01*
X0066530Y0212973D01*
X0067199Y0211356D01*
X0068437Y0210119D01*
X0070054Y0209449D01*
X0071804Y0209449D01*
X0073421Y0210119D01*
X0074659Y0211356D01*
X0075329Y0212973D01*
X0075329Y0214724D01*
X0074659Y0216341D01*
X0073421Y0217578D01*
X0072921Y0217785D01*
X0073421Y0217993D01*
X0074659Y0219230D01*
X0075329Y0220847D01*
X0075329Y0222598D01*
X0074659Y0224215D01*
X0073421Y0225452D01*
X0071804Y0226122D01*
X0070054Y0226122D01*
X0068437Y0225452D01*
X0067750Y0224765D01*
X0067750Y0232525D01*
X0068811Y0233586D01*
X0070054Y0233071D01*
X0071804Y0233071D01*
X0073421Y0233741D01*
X0074659Y0234978D01*
X0075329Y0236595D01*
X0075329Y0238346D01*
X0074659Y0239963D01*
X0073421Y0241200D01*
X0072906Y0241414D01*
X0073235Y0241582D01*
X0073795Y0241989D01*
X0074285Y0242478D01*
X0074692Y0243039D01*
X0075006Y0243656D01*
X0075220Y0244314D01*
X0075329Y0244998D01*
X0075329Y0245094D01*
X0071179Y0245094D01*
X0071179Y0245594D01*
X0075329Y0245594D01*
X0075329Y0245691D01*
X0075220Y0246375D01*
X0075006Y0247033D01*
X0074692Y0247650D01*
X0074285Y0248211D01*
X0073795Y0248700D01*
X0073235Y0249107D01*
X0072906Y0249275D01*
X0073421Y0249489D01*
X0074659Y0250726D01*
X0075329Y0252343D01*
X0075329Y0254094D01*
X0074659Y0255711D01*
X0073421Y0256948D01*
X0071804Y0257618D01*
X0070054Y0257618D01*
X0068437Y0256948D01*
X0067199Y0255711D01*
X0066530Y0254094D01*
X0066530Y0252343D01*
X0067199Y0250726D01*
X0068437Y0249489D01*
X0068953Y0249275D01*
X0068623Y0249107D01*
X0068063Y0248700D01*
X0067573Y0248211D01*
X0067166Y0247650D01*
X0066852Y0247033D01*
X0066638Y0246375D01*
X0066530Y0245691D01*
X0066530Y0245594D01*
X0070679Y0245594D01*
X0070679Y0245094D01*
X0066530Y0245094D01*
X0066530Y0244998D01*
X0066638Y0244314D01*
X0066852Y0243656D01*
X0067166Y0243039D01*
X0067573Y0242478D01*
X0068063Y0241989D01*
X0068623Y0241582D01*
X0068953Y0241414D01*
X0068437Y0241200D01*
X0067199Y0239963D01*
X0066530Y0238346D01*
X0066530Y0236595D01*
X0066629Y0236354D01*
X0064750Y0234475D01*
X0064750Y0252975D01*
X0062650Y0255075D01*
X0062650Y0257762D01*
X0060512Y0259900D01*
X0057488Y0259900D01*
X0055350Y0257762D01*
X0055350Y0254738D01*
X0057488Y0252600D01*
X0060175Y0252600D01*
X0061250Y0251525D01*
X0061250Y0249162D01*
X0060512Y0249900D01*
X0057488Y0249900D01*
X0055350Y0247762D01*
X0055350Y0244738D01*
X0057488Y0242600D01*
X0060512Y0242600D01*
X0061250Y0243338D01*
X0061250Y0239162D01*
X0060512Y0239900D01*
X0057488Y0239900D01*
X0055588Y0238000D01*
X0044275Y0238000D01*
X0042650Y0236375D01*
X0042650Y0237762D01*
X0040512Y0239900D01*
X0037488Y0239900D01*
X0036628Y0239040D02*
X0006218Y0239040D01*
X0006218Y0238541D02*
X0036130Y0238541D01*
X0035631Y0238043D02*
X0006218Y0238043D01*
X0006218Y0237544D02*
X0035350Y0237544D01*
X0035350Y0237046D02*
X0006218Y0237046D01*
X0006218Y0236547D02*
X0035350Y0236547D01*
X0035350Y0236049D02*
X0006218Y0236049D01*
X0006218Y0235550D02*
X0035350Y0235550D01*
X0035350Y0235052D02*
X0006218Y0235052D01*
X0006218Y0234553D02*
X0035535Y0234553D01*
X0036033Y0234055D02*
X0006218Y0234055D01*
X0006218Y0233556D02*
X0025685Y0233556D01*
X0024861Y0233058D02*
X0006218Y0233058D01*
X0006218Y0232559D02*
X0024363Y0232559D01*
X0023881Y0232061D02*
X0006218Y0232061D01*
X0006218Y0231562D02*
X0023674Y0231562D01*
X0023468Y0231064D02*
X0006218Y0231064D01*
X0006218Y0230565D02*
X0023261Y0230565D01*
X0023222Y0230067D02*
X0006218Y0230067D01*
X0006218Y0229568D02*
X0023222Y0229568D01*
X0023222Y0229070D02*
X0006218Y0229070D01*
X0006218Y0228571D02*
X0023285Y0228571D01*
X0023491Y0228073D02*
X0006218Y0228073D01*
X0006218Y0227574D02*
X0023698Y0227574D01*
X0023921Y0227076D02*
X0006218Y0227076D01*
X0006218Y0226577D02*
X0024419Y0226577D01*
X0024918Y0226079D02*
X0006218Y0226079D01*
X0006218Y0225580D02*
X0025502Y0225580D01*
X0024760Y0225082D02*
X0006218Y0225082D01*
X0006218Y0224583D02*
X0024262Y0224583D01*
X0023900Y0224085D02*
X0006218Y0224085D01*
X0006218Y0223586D02*
X0023634Y0223586D01*
X0023440Y0223088D02*
X0006218Y0223088D01*
X0006218Y0222589D02*
X0023305Y0222589D01*
X0023226Y0222091D02*
X0006218Y0222091D01*
X0006218Y0221592D02*
X0027372Y0221592D01*
X0027872Y0221592D02*
X0045183Y0221592D01*
X0044685Y0222091D02*
X0032018Y0222091D01*
X0031939Y0222589D02*
X0044186Y0222589D01*
X0043688Y0223088D02*
X0031805Y0223088D01*
X0031610Y0223586D02*
X0043189Y0223586D01*
X0042691Y0224085D02*
X0031344Y0224085D01*
X0030982Y0224583D02*
X0042192Y0224583D01*
X0041694Y0225082D02*
X0030484Y0225082D01*
X0029742Y0225580D02*
X0041195Y0225580D01*
X0040697Y0226079D02*
X0030326Y0226079D01*
X0030825Y0226577D02*
X0040198Y0226577D01*
X0039699Y0227076D02*
X0031323Y0227076D01*
X0031546Y0227574D02*
X0039201Y0227574D01*
X0038702Y0228073D02*
X0031753Y0228073D01*
X0031363Y0232061D02*
X0038336Y0232061D01*
X0038834Y0232559D02*
X0030881Y0232559D01*
X0030383Y0233058D02*
X0037030Y0233058D01*
X0036532Y0233556D02*
X0029559Y0233556D01*
X0028712Y0241034D02*
X0061250Y0241034D01*
X0061250Y0241532D02*
X0029916Y0241532D01*
X0030531Y0242031D02*
X0061250Y0242031D01*
X0061250Y0242529D02*
X0031029Y0242529D01*
X0031425Y0243028D02*
X0037060Y0243028D01*
X0037488Y0242600D02*
X0040512Y0242600D01*
X0042650Y0244738D01*
X0042650Y0247762D01*
X0040512Y0249900D01*
X0037488Y0249900D01*
X0035350Y0247762D01*
X0035350Y0244738D01*
X0037488Y0242600D01*
X0036562Y0243527D02*
X0031631Y0243527D01*
X0031838Y0244025D02*
X0036063Y0244025D01*
X0035565Y0244524D02*
X0032022Y0244524D01*
X0032022Y0245022D02*
X0035350Y0245022D01*
X0035350Y0245521D02*
X0032022Y0245521D01*
X0032022Y0246019D02*
X0035350Y0246019D01*
X0035350Y0246518D02*
X0031898Y0246518D01*
X0031692Y0247016D02*
X0035350Y0247016D01*
X0035350Y0247515D02*
X0031485Y0247515D01*
X0031175Y0248013D02*
X0035601Y0248013D01*
X0036100Y0248512D02*
X0030677Y0248512D01*
X0030178Y0249010D02*
X0036598Y0249010D01*
X0037097Y0249509D02*
X0030134Y0249509D01*
X0030633Y0250007D02*
X0061250Y0250007D01*
X0061250Y0249509D02*
X0060903Y0249509D01*
X0061250Y0250506D02*
X0031131Y0250506D01*
X0031467Y0251004D02*
X0061250Y0251004D01*
X0061250Y0251503D02*
X0031673Y0251503D01*
X0031880Y0252001D02*
X0060774Y0252001D01*
X0060275Y0252500D02*
X0032022Y0252500D01*
X0032022Y0252998D02*
X0037090Y0252998D01*
X0036591Y0253497D02*
X0032022Y0253497D01*
X0032022Y0253995D02*
X0036093Y0253995D01*
X0035594Y0254494D02*
X0031856Y0254494D01*
X0031649Y0254992D02*
X0035350Y0254992D01*
X0035350Y0255491D02*
X0031443Y0255491D01*
X0031073Y0255989D02*
X0035350Y0255989D01*
X0035350Y0256488D02*
X0030575Y0256488D01*
X0030022Y0256986D02*
X0035350Y0256986D01*
X0035350Y0257485D02*
X0028819Y0257485D01*
X0040933Y0259479D02*
X0057067Y0259479D01*
X0056568Y0258980D02*
X0041432Y0258980D01*
X0041930Y0258482D02*
X0056070Y0258482D01*
X0055571Y0257983D02*
X0042429Y0257983D01*
X0042650Y0257485D02*
X0055350Y0257485D01*
X0055350Y0256986D02*
X0042650Y0256986D01*
X0042650Y0256488D02*
X0055350Y0256488D01*
X0055350Y0255989D02*
X0042650Y0255989D01*
X0042650Y0255491D02*
X0055350Y0255491D01*
X0055350Y0254992D02*
X0042650Y0254992D01*
X0042406Y0254494D02*
X0055594Y0254494D01*
X0056093Y0253995D02*
X0041907Y0253995D01*
X0041409Y0253497D02*
X0056591Y0253497D01*
X0057090Y0252998D02*
X0040910Y0252998D01*
X0040903Y0249509D02*
X0057097Y0249509D01*
X0056598Y0249010D02*
X0041402Y0249010D01*
X0041900Y0248512D02*
X0056100Y0248512D01*
X0055601Y0248013D02*
X0042399Y0248013D01*
X0042650Y0247515D02*
X0055350Y0247515D01*
X0055350Y0247016D02*
X0042650Y0247016D01*
X0042650Y0246518D02*
X0055350Y0246518D01*
X0055350Y0246019D02*
X0042650Y0246019D01*
X0042650Y0245521D02*
X0055350Y0245521D01*
X0055350Y0245022D02*
X0042650Y0245022D01*
X0042435Y0244524D02*
X0055565Y0244524D01*
X0056063Y0244025D02*
X0041937Y0244025D01*
X0041438Y0243527D02*
X0056562Y0243527D01*
X0057060Y0243028D02*
X0040940Y0243028D01*
X0040873Y0239538D02*
X0057127Y0239538D01*
X0056628Y0239040D02*
X0041372Y0239040D01*
X0041870Y0238541D02*
X0056130Y0238541D01*
X0055631Y0238043D02*
X0042369Y0238043D01*
X0042650Y0237544D02*
X0043820Y0237544D01*
X0043321Y0237046D02*
X0042650Y0237046D01*
X0042650Y0236547D02*
X0042822Y0236547D01*
X0045682Y0221093D02*
X0031977Y0221093D01*
X0031882Y0220595D02*
X0046180Y0220595D01*
X0046250Y0220096D02*
X0031720Y0220096D01*
X0031477Y0219598D02*
X0042186Y0219598D01*
X0041688Y0219099D02*
X0031155Y0219099D01*
X0030723Y0218601D02*
X0041189Y0218601D01*
X0040691Y0218102D02*
X0030125Y0218102D01*
X0030052Y0217604D02*
X0040350Y0217604D01*
X0040350Y0217105D02*
X0030587Y0217105D01*
X0031086Y0216607D02*
X0040350Y0216607D01*
X0040350Y0216000D02*
X0040350Y0214738D01*
X0042488Y0212600D01*
X0043750Y0212600D01*
X0043750Y0216000D01*
X0040350Y0216000D01*
X0040350Y0215610D02*
X0031655Y0215610D01*
X0031861Y0215111D02*
X0040350Y0215111D01*
X0040475Y0214613D02*
X0032022Y0214613D01*
X0032022Y0214114D02*
X0040974Y0214114D01*
X0041472Y0213616D02*
X0032022Y0213616D01*
X0032022Y0213117D02*
X0041971Y0213117D01*
X0042469Y0212619D02*
X0031875Y0212619D01*
X0031668Y0212120D02*
X0046250Y0212120D01*
X0046250Y0211622D02*
X0031462Y0211622D01*
X0031119Y0211123D02*
X0046250Y0211123D01*
X0046250Y0210625D02*
X0030620Y0210625D01*
X0030122Y0210126D02*
X0046250Y0210126D01*
X0046250Y0209628D02*
X0045784Y0209628D01*
X0045531Y0212619D02*
X0046250Y0212619D01*
X0046250Y0213117D02*
X0046029Y0213117D01*
X0044250Y0213117D02*
X0043750Y0213117D01*
X0043750Y0212619D02*
X0044250Y0212619D01*
X0044250Y0213616D02*
X0043750Y0213616D01*
X0043750Y0214114D02*
X0044250Y0214114D01*
X0044250Y0214613D02*
X0043750Y0214613D01*
X0043750Y0215111D02*
X0044250Y0215111D01*
X0044250Y0215610D02*
X0043750Y0215610D01*
X0043750Y0216108D02*
X0031448Y0216108D01*
X0028929Y0209628D02*
X0042216Y0209628D01*
X0041717Y0209129D02*
X0006218Y0209129D01*
X0006218Y0208631D02*
X0041219Y0208631D01*
X0040720Y0208132D02*
X0006218Y0208132D01*
X0006218Y0207634D02*
X0040350Y0207634D01*
X0040350Y0207135D02*
X0006218Y0207135D01*
X0006218Y0206637D02*
X0040350Y0206637D01*
X0040350Y0206138D02*
X0006218Y0206138D01*
X0006218Y0205640D02*
X0040350Y0205640D01*
X0040350Y0205141D02*
X0006218Y0205141D01*
X0006218Y0204643D02*
X0040445Y0204643D01*
X0040944Y0204144D02*
X0006218Y0204144D01*
X0006218Y0203646D02*
X0041443Y0203646D01*
X0041941Y0203147D02*
X0006218Y0203147D01*
X0006218Y0202649D02*
X0042440Y0202649D01*
X0045560Y0202649D02*
X0046250Y0202649D01*
X0046250Y0203147D02*
X0046059Y0203147D01*
X0046625Y0202150D02*
X0006218Y0202150D01*
X0006218Y0201652D02*
X0047124Y0201652D01*
X0047622Y0201153D02*
X0006218Y0201153D01*
X0006218Y0200655D02*
X0048121Y0200655D01*
X0048619Y0200156D02*
X0006218Y0200156D01*
X0006218Y0199658D02*
X0049118Y0199658D01*
X0049616Y0199159D02*
X0006218Y0199159D01*
X0006218Y0198660D02*
X0050115Y0198660D01*
X0050613Y0198162D02*
X0006218Y0198162D01*
X0006218Y0197663D02*
X0051112Y0197663D01*
X0051610Y0197165D02*
X0006218Y0197165D01*
X0006218Y0196666D02*
X0052109Y0196666D01*
X0052607Y0196168D02*
X0006218Y0196168D01*
X0006218Y0195669D02*
X0053106Y0195669D01*
X0053604Y0195171D02*
X0006218Y0195171D01*
X0006218Y0194672D02*
X0054103Y0194672D01*
X0054601Y0194174D02*
X0006218Y0194174D01*
X0006218Y0193675D02*
X0055100Y0193675D01*
X0055598Y0193177D02*
X0006218Y0193177D01*
X0006218Y0192678D02*
X0056097Y0192678D01*
X0056595Y0192180D02*
X0006218Y0192180D01*
X0006218Y0191681D02*
X0057094Y0191681D01*
X0057592Y0191183D02*
X0006218Y0191183D01*
X0006218Y0190684D02*
X0058091Y0190684D01*
X0058589Y0190186D02*
X0006218Y0190186D01*
X0006218Y0189687D02*
X0012275Y0189687D01*
X0012488Y0189900D02*
X0010350Y0187762D01*
X0010350Y0186500D01*
X0013750Y0186500D01*
X0013750Y0189900D01*
X0012488Y0189900D01*
X0011777Y0189189D02*
X0006218Y0189189D01*
X0006218Y0188690D02*
X0011278Y0188690D01*
X0010780Y0188192D02*
X0006218Y0188192D01*
X0006218Y0187693D02*
X0010350Y0187693D01*
X0010350Y0187195D02*
X0006218Y0187195D01*
X0006218Y0186696D02*
X0010350Y0186696D01*
X0010350Y0186000D02*
X0010350Y0184738D01*
X0012488Y0182600D01*
X0013750Y0182600D01*
X0013750Y0186000D01*
X0014250Y0186000D01*
X0014250Y0186500D01*
X0017650Y0186500D01*
X0017650Y0187762D01*
X0015512Y0189900D01*
X0014250Y0189900D01*
X0014250Y0186500D01*
X0013750Y0186500D01*
X0013750Y0186000D01*
X0010350Y0186000D01*
X0010350Y0185699D02*
X0006218Y0185699D01*
X0006218Y0185201D02*
X0010350Y0185201D01*
X0010386Y0184702D02*
X0006218Y0184702D01*
X0006218Y0184204D02*
X0010884Y0184204D01*
X0011383Y0183705D02*
X0006218Y0183705D01*
X0006218Y0183207D02*
X0011881Y0183207D01*
X0012380Y0182708D02*
X0006218Y0182708D01*
X0006218Y0182210D02*
X0039566Y0182210D01*
X0040064Y0181711D02*
X0006218Y0181711D01*
X0006218Y0181213D02*
X0040563Y0181213D01*
X0041061Y0180714D02*
X0006218Y0180714D01*
X0006218Y0180216D02*
X0041560Y0180216D01*
X0042058Y0179717D02*
X0006218Y0179717D01*
X0006218Y0179219D02*
X0042557Y0179219D01*
X0043055Y0178720D02*
X0006218Y0178720D01*
X0006218Y0178222D02*
X0043554Y0178222D01*
X0044052Y0177723D02*
X0006218Y0177723D01*
X0006218Y0177224D02*
X0013092Y0177224D01*
X0013274Y0177300D02*
X0011932Y0176744D01*
X0010906Y0175718D01*
X0010350Y0174376D01*
X0010350Y0168124D01*
X0010906Y0166782D01*
X0011932Y0165756D01*
X0013274Y0165200D01*
X0014726Y0165200D01*
X0016068Y0165756D01*
X0017094Y0166782D01*
X0017650Y0168124D01*
X0017650Y0174376D01*
X0017094Y0175718D01*
X0016068Y0176744D01*
X0014726Y0177300D01*
X0013274Y0177300D01*
X0011914Y0176726D02*
X0006218Y0176726D01*
X0006218Y0176227D02*
X0011416Y0176227D01*
X0010917Y0175729D02*
X0006218Y0175729D01*
X0006218Y0175230D02*
X0010704Y0175230D01*
X0010497Y0174732D02*
X0006218Y0174732D01*
X0006218Y0174233D02*
X0010350Y0174233D01*
X0010350Y0173735D02*
X0006218Y0173735D01*
X0006218Y0173236D02*
X0010350Y0173236D01*
X0010350Y0172738D02*
X0006218Y0172738D01*
X0006218Y0172239D02*
X0010350Y0172239D01*
X0010350Y0171741D02*
X0006218Y0171741D01*
X0006218Y0171242D02*
X0010350Y0171242D01*
X0010350Y0170744D02*
X0006218Y0170744D01*
X0006218Y0170245D02*
X0010350Y0170245D01*
X0010350Y0169747D02*
X0006218Y0169747D01*
X0006218Y0169248D02*
X0010350Y0169248D01*
X0010350Y0168750D02*
X0006218Y0168750D01*
X0006218Y0168251D02*
X0010350Y0168251D01*
X0010504Y0167753D02*
X0006218Y0167753D01*
X0006218Y0167254D02*
X0010710Y0167254D01*
X0010932Y0166756D02*
X0006218Y0166756D01*
X0006218Y0166257D02*
X0011431Y0166257D01*
X0011929Y0165759D02*
X0006218Y0165759D01*
X0006218Y0165260D02*
X0013129Y0165260D01*
X0014871Y0165260D02*
X0023129Y0165260D01*
X0023274Y0165200D02*
X0024726Y0165200D01*
X0026068Y0165756D01*
X0027094Y0166782D01*
X0027650Y0168124D01*
X0027650Y0174376D01*
X0027094Y0175718D01*
X0026068Y0176744D01*
X0024726Y0177300D01*
X0023274Y0177300D01*
X0021932Y0176744D01*
X0020906Y0175718D01*
X0020350Y0174376D01*
X0020350Y0168124D01*
X0020906Y0166782D01*
X0021932Y0165756D01*
X0023274Y0165200D01*
X0024871Y0165260D02*
X0033129Y0165260D01*
X0033274Y0165200D02*
X0034726Y0165200D01*
X0036068Y0165756D01*
X0037094Y0166782D01*
X0037650Y0168124D01*
X0037650Y0174376D01*
X0037094Y0175718D01*
X0036068Y0176744D01*
X0034726Y0177300D01*
X0033274Y0177300D01*
X0031932Y0176744D01*
X0030906Y0175718D01*
X0030350Y0174376D01*
X0030350Y0168124D01*
X0030906Y0166782D01*
X0031932Y0165756D01*
X0033274Y0165200D01*
X0031929Y0165759D02*
X0026071Y0165759D01*
X0026569Y0166257D02*
X0031431Y0166257D01*
X0030932Y0166756D02*
X0027068Y0166756D01*
X0027290Y0167254D02*
X0030710Y0167254D01*
X0030504Y0167753D02*
X0027496Y0167753D01*
X0027650Y0168251D02*
X0030350Y0168251D01*
X0030350Y0168750D02*
X0027650Y0168750D01*
X0027650Y0169248D02*
X0030350Y0169248D01*
X0030350Y0169747D02*
X0027650Y0169747D01*
X0027650Y0170245D02*
X0030350Y0170245D01*
X0030350Y0170744D02*
X0027650Y0170744D01*
X0027650Y0171242D02*
X0030350Y0171242D01*
X0030350Y0171741D02*
X0027650Y0171741D01*
X0027650Y0172239D02*
X0030350Y0172239D01*
X0030350Y0172738D02*
X0027650Y0172738D01*
X0027650Y0173236D02*
X0030350Y0173236D01*
X0030350Y0173735D02*
X0027650Y0173735D01*
X0027650Y0174233D02*
X0030350Y0174233D01*
X0030497Y0174732D02*
X0027503Y0174732D01*
X0027296Y0175230D02*
X0030704Y0175230D01*
X0030917Y0175729D02*
X0027083Y0175729D01*
X0026584Y0176227D02*
X0031416Y0176227D01*
X0031914Y0176726D02*
X0026086Y0176726D01*
X0024908Y0177224D02*
X0033092Y0177224D01*
X0034908Y0177224D02*
X0043261Y0177224D01*
X0042935Y0177160D02*
X0043640Y0177300D01*
X0043750Y0177300D01*
X0043750Y0171500D01*
X0044250Y0171500D01*
X0044250Y0171000D01*
X0047650Y0171000D01*
X0047650Y0168490D01*
X0047510Y0167785D01*
X0047235Y0167121D01*
X0046835Y0166523D01*
X0046327Y0166015D01*
X0045729Y0165615D01*
X0045065Y0165340D01*
X0044359Y0165200D01*
X0044250Y0165200D01*
X0044250Y0171000D01*
X0043750Y0171000D01*
X0043750Y0165200D01*
X0043640Y0165200D01*
X0042935Y0165340D01*
X0042271Y0165615D01*
X0041673Y0166015D01*
X0041165Y0166523D01*
X0040765Y0167121D01*
X0040490Y0167785D01*
X0040350Y0168490D01*
X0040350Y0171000D01*
X0043750Y0171000D01*
X0043750Y0171500D01*
X0040350Y0171500D01*
X0040350Y0174009D01*
X0040490Y0174715D01*
X0040765Y0175379D01*
X0041165Y0175977D01*
X0041673Y0176485D01*
X0042271Y0176885D01*
X0042935Y0177160D01*
X0043750Y0177224D02*
X0044250Y0177224D01*
X0044250Y0176726D02*
X0043750Y0176726D01*
X0043750Y0176227D02*
X0044250Y0176227D01*
X0044250Y0175729D02*
X0043750Y0175729D01*
X0043750Y0175230D02*
X0044250Y0175230D01*
X0044250Y0174732D02*
X0043750Y0174732D01*
X0043750Y0174233D02*
X0044250Y0174233D01*
X0044250Y0173735D02*
X0043750Y0173735D01*
X0043750Y0173236D02*
X0044250Y0173236D01*
X0044250Y0172738D02*
X0043750Y0172738D01*
X0043750Y0172239D02*
X0044250Y0172239D01*
X0044250Y0171741D02*
X0043750Y0171741D01*
X0043750Y0171242D02*
X0037650Y0171242D01*
X0037650Y0170744D02*
X0040350Y0170744D01*
X0040350Y0170245D02*
X0037650Y0170245D01*
X0037650Y0169747D02*
X0040350Y0169747D01*
X0040350Y0169248D02*
X0037650Y0169248D01*
X0037650Y0168750D02*
X0040350Y0168750D01*
X0040398Y0168251D02*
X0037650Y0168251D01*
X0037496Y0167753D02*
X0040504Y0167753D01*
X0040710Y0167254D02*
X0037290Y0167254D01*
X0037068Y0166756D02*
X0041009Y0166756D01*
X0041431Y0166257D02*
X0036569Y0166257D01*
X0036071Y0165759D02*
X0042057Y0165759D01*
X0043338Y0165260D02*
X0034871Y0165260D01*
X0037650Y0171741D02*
X0040350Y0171741D01*
X0040350Y0172239D02*
X0037650Y0172239D01*
X0037650Y0172738D02*
X0040350Y0172738D01*
X0040350Y0173236D02*
X0037650Y0173236D01*
X0037650Y0173735D02*
X0040350Y0173735D01*
X0040395Y0174233D02*
X0037650Y0174233D01*
X0037503Y0174732D02*
X0040497Y0174732D01*
X0040704Y0175230D02*
X0037296Y0175230D01*
X0037083Y0175729D02*
X0040999Y0175729D01*
X0041416Y0176227D02*
X0036584Y0176227D01*
X0036086Y0176726D02*
X0042034Y0176726D01*
X0043750Y0170744D02*
X0044250Y0170744D01*
X0044250Y0171242D02*
X0050350Y0171242D01*
X0050350Y0170744D02*
X0047650Y0170744D01*
X0047650Y0170245D02*
X0050350Y0170245D01*
X0050350Y0169747D02*
X0047650Y0169747D01*
X0047650Y0169248D02*
X0050350Y0169248D01*
X0050350Y0168750D02*
X0047650Y0168750D01*
X0047602Y0168251D02*
X0050350Y0168251D01*
X0050504Y0167753D02*
X0047496Y0167753D01*
X0047290Y0167254D02*
X0050710Y0167254D01*
X0050932Y0166756D02*
X0046990Y0166756D01*
X0046569Y0166257D02*
X0051431Y0166257D01*
X0051929Y0165759D02*
X0045943Y0165759D01*
X0044662Y0165260D02*
X0053129Y0165260D01*
X0054871Y0165260D02*
X0057515Y0165260D01*
X0058013Y0164762D02*
X0006218Y0164762D01*
X0006218Y0164263D02*
X0058512Y0164263D01*
X0059010Y0163765D02*
X0006218Y0163765D01*
X0006218Y0163266D02*
X0059509Y0163266D01*
X0060007Y0162768D02*
X0006218Y0162768D01*
X0006218Y0162269D02*
X0060506Y0162269D01*
X0061004Y0161771D02*
X0006218Y0161771D01*
X0006218Y0161272D02*
X0061503Y0161272D01*
X0061250Y0161525D02*
X0061250Y0161525D01*
X0062002Y0160774D02*
X0006218Y0160774D01*
X0006218Y0160275D02*
X0062250Y0160275D01*
X0062250Y0159777D02*
X0006218Y0159777D01*
X0006218Y0159278D02*
X0062250Y0159278D01*
X0062250Y0158780D02*
X0006218Y0158780D01*
X0006218Y0158281D02*
X0062250Y0158281D01*
X0062250Y0157783D02*
X0006218Y0157783D01*
X0006218Y0157284D02*
X0062250Y0157284D01*
X0062250Y0156786D02*
X0006218Y0156786D01*
X0006218Y0156287D02*
X0062250Y0156287D01*
X0062250Y0155789D02*
X0006218Y0155789D01*
X0006218Y0155290D02*
X0062250Y0155290D01*
X0062250Y0154791D02*
X0006218Y0154791D01*
X0006218Y0154293D02*
X0062250Y0154293D01*
X0062250Y0153794D02*
X0006218Y0153794D01*
X0006218Y0153296D02*
X0062250Y0153296D01*
X0062250Y0152797D02*
X0006218Y0152797D01*
X0006218Y0152299D02*
X0062250Y0152299D01*
X0062250Y0151800D02*
X0006218Y0151800D01*
X0006218Y0151302D02*
X0062250Y0151302D01*
X0062250Y0150803D02*
X0006218Y0150803D01*
X0006218Y0150305D02*
X0062250Y0150305D01*
X0062250Y0149806D02*
X0006218Y0149806D01*
X0006218Y0149308D02*
X0062250Y0149308D01*
X0062250Y0148809D02*
X0006218Y0148809D01*
X0006218Y0148311D02*
X0062250Y0148311D01*
X0062250Y0147812D02*
X0006218Y0147812D01*
X0006218Y0147314D02*
X0062250Y0147314D01*
X0062104Y0146815D02*
X0055896Y0146815D01*
X0056068Y0146744D02*
X0054726Y0147300D01*
X0053274Y0147300D01*
X0051932Y0146744D01*
X0050906Y0145718D01*
X0050350Y0144376D01*
X0050350Y0138124D01*
X0050906Y0136782D01*
X0051932Y0135756D01*
X0053274Y0135200D01*
X0054726Y0135200D01*
X0056068Y0135756D01*
X0057094Y0136782D01*
X0057650Y0138124D01*
X0057650Y0144376D01*
X0057094Y0145718D01*
X0056068Y0146744D01*
X0056495Y0146317D02*
X0061505Y0146317D01*
X0061006Y0145818D02*
X0056994Y0145818D01*
X0057259Y0145320D02*
X0060741Y0145320D01*
X0060534Y0144821D02*
X0057466Y0144821D01*
X0057650Y0144323D02*
X0060350Y0144323D01*
X0060350Y0143824D02*
X0057650Y0143824D01*
X0057650Y0143326D02*
X0060350Y0143326D01*
X0060350Y0142827D02*
X0057650Y0142827D01*
X0057650Y0142329D02*
X0060350Y0142329D01*
X0060350Y0141830D02*
X0057650Y0141830D01*
X0057650Y0141332D02*
X0060350Y0141332D01*
X0060350Y0140833D02*
X0057650Y0140833D01*
X0057650Y0140335D02*
X0060350Y0140335D01*
X0060350Y0139836D02*
X0057650Y0139836D01*
X0057650Y0139338D02*
X0060350Y0139338D01*
X0060350Y0138839D02*
X0057650Y0138839D01*
X0057650Y0138341D02*
X0060350Y0138341D01*
X0060467Y0137842D02*
X0057533Y0137842D01*
X0057327Y0137344D02*
X0060673Y0137344D01*
X0060880Y0136845D02*
X0057120Y0136845D01*
X0056658Y0136347D02*
X0061342Y0136347D01*
X0061840Y0135848D02*
X0056160Y0135848D01*
X0055087Y0135350D02*
X0062913Y0135350D01*
X0063274Y0132300D02*
X0061932Y0131744D01*
X0060906Y0130718D01*
X0060350Y0129376D01*
X0060350Y0123124D01*
X0060906Y0121782D01*
X0061932Y0120756D01*
X0063274Y0120200D01*
X0064726Y0120200D01*
X0066068Y0120756D01*
X0066250Y0120938D01*
X0066250Y0101536D01*
X0065729Y0101885D01*
X0065065Y0102160D01*
X0064359Y0102300D01*
X0064250Y0102300D01*
X0064250Y0096500D01*
X0063750Y0096500D01*
X0063750Y0102300D01*
X0063640Y0102300D01*
X0062935Y0102160D01*
X0062271Y0101885D01*
X0061673Y0101485D01*
X0061165Y0100977D01*
X0060765Y0100379D01*
X0060490Y0099715D01*
X0060350Y0099009D01*
X0060350Y0096500D01*
X0063750Y0096500D01*
X0063750Y0096000D01*
X0064250Y0096000D01*
X0064250Y0090200D01*
X0064359Y0090200D01*
X0065065Y0090340D01*
X0065729Y0090615D01*
X0066250Y0090964D01*
X0066250Y0084162D01*
X0065512Y0084900D01*
X0062488Y0084900D01*
X0060350Y0082762D01*
X0060350Y0079738D01*
X0062488Y0077600D01*
X0064875Y0077600D01*
X0053000Y0065725D01*
X0050750Y0067975D01*
X0050715Y0068010D01*
X0051068Y0068156D01*
X0052094Y0069182D01*
X0052650Y0070524D01*
X0052650Y0071976D01*
X0052094Y0073318D01*
X0051068Y0074344D01*
X0049726Y0074900D01*
X0043474Y0074900D01*
X0042132Y0074344D01*
X0041106Y0073318D01*
X0040550Y0071976D01*
X0040550Y0070524D01*
X0041106Y0069182D01*
X0041288Y0069000D01*
X0040725Y0069000D01*
X0031608Y0078117D01*
X0032022Y0079115D01*
X0032022Y0080865D01*
X0031352Y0082482D01*
X0030114Y0083720D01*
X0028497Y0084390D01*
X0026747Y0084390D01*
X0025130Y0083720D01*
X0023892Y0082482D01*
X0023222Y0080865D01*
X0023222Y0079115D01*
X0023892Y0077498D01*
X0025130Y0076260D01*
X0025630Y0076053D01*
X0025130Y0075846D01*
X0023892Y0074608D01*
X0023222Y0072991D01*
X0023222Y0071241D01*
X0023892Y0069624D01*
X0025130Y0068386D01*
X0025645Y0068173D01*
X0025316Y0068005D01*
X0024756Y0067598D01*
X0024266Y0067108D01*
X0023859Y0066548D01*
X0023545Y0065931D01*
X0023331Y0065272D01*
X0023222Y0064588D01*
X0023222Y0064492D01*
X0027372Y0064492D01*
X0027372Y0063992D01*
X0023222Y0063992D01*
X0023222Y0063896D01*
X0023296Y0063428D01*
X0019750Y0066975D01*
X0019750Y0112975D01*
X0017650Y0115075D01*
X0017650Y0116125D01*
X0022250Y0111525D01*
X0022250Y0101876D01*
X0021932Y0101744D01*
X0020906Y0100718D01*
X0020350Y0099376D01*
X0020350Y0093124D01*
X0020906Y0091782D01*
X0021932Y0090756D01*
X0023274Y0090200D01*
X0024726Y0090200D01*
X0026068Y0090756D01*
X0027094Y0091782D01*
X0027650Y0093124D01*
X0027650Y0099376D01*
X0027094Y0100718D01*
X0026068Y0101744D01*
X0025750Y0101876D01*
X0025750Y0112975D01*
X0024725Y0114000D01*
X0015750Y0122975D01*
X0015750Y0135624D01*
X0016068Y0135756D01*
X0017094Y0136782D01*
X0017650Y0138124D01*
X0017650Y0144376D01*
X0017094Y0145718D01*
X0016068Y0146744D01*
X0014726Y0147300D01*
X0013274Y0147300D01*
X0011932Y0146744D01*
X0010906Y0145718D01*
X0010350Y0144376D01*
X0010350Y0138124D01*
X0010906Y0136782D01*
X0011932Y0135756D01*
X0012250Y0135624D01*
X0012250Y0121525D01*
X0013875Y0119900D01*
X0012488Y0119900D01*
X0010350Y0117762D01*
X0010350Y0114738D01*
X0012488Y0112600D01*
X0015175Y0112600D01*
X0016250Y0111525D01*
X0016250Y0109162D01*
X0015512Y0109900D01*
X0014250Y0109900D01*
X0014250Y0106500D01*
X0013750Y0106500D01*
X0013750Y0109900D01*
X0012488Y0109900D01*
X0010350Y0107762D01*
X0010350Y0106500D01*
X0013750Y0106500D01*
X0013750Y0106000D01*
X0014250Y0106000D01*
X0014250Y0102600D01*
X0015512Y0102600D01*
X0016250Y0103338D01*
X0016250Y0065525D01*
X0017275Y0064500D01*
X0023606Y0058169D01*
X0023222Y0057243D01*
X0023222Y0055493D01*
X0023892Y0053876D01*
X0025130Y0052638D01*
X0026250Y0052174D01*
X0026250Y0046525D01*
X0027872Y0044903D01*
X0027872Y0040870D01*
X0027372Y0040870D01*
X0027372Y0040370D01*
X0023222Y0040370D01*
X0023222Y0040274D01*
X0023331Y0039590D01*
X0023545Y0038931D01*
X0023859Y0038314D01*
X0024266Y0037754D01*
X0024756Y0037264D01*
X0025316Y0036857D01*
X0025645Y0036689D01*
X0025130Y0036476D01*
X0023892Y0035238D01*
X0023222Y0033621D01*
X0023222Y0031871D01*
X0023892Y0030254D01*
X0025130Y0029016D01*
X0026747Y0028346D01*
X0028497Y0028346D01*
X0030114Y0029016D01*
X0030598Y0029500D01*
X0040588Y0029500D01*
X0042488Y0027600D01*
X0045175Y0027600D01*
X0047275Y0025500D01*
X0076725Y0025500D01*
X0077750Y0026525D01*
X0089750Y0038525D01*
X0089750Y0053975D01*
X0088725Y0055000D01*
X0086725Y0057000D01*
X0085725Y0057000D01*
X0084949Y0057775D01*
X0085868Y0058156D01*
X0086894Y0059182D01*
X0087450Y0060524D01*
X0087450Y0061976D01*
X0086894Y0063318D01*
X0085868Y0064344D01*
X0084526Y0064900D01*
X0078274Y0064900D01*
X0076932Y0064344D01*
X0076750Y0064162D01*
X0076750Y0068338D01*
X0076932Y0068156D01*
X0078274Y0067600D01*
X0084526Y0067600D01*
X0085868Y0068156D01*
X0086894Y0069182D01*
X0087450Y0070524D01*
X0087450Y0071976D01*
X0086894Y0073318D01*
X0085868Y0074344D01*
X0084526Y0074900D01*
X0078274Y0074900D01*
X0076932Y0074344D01*
X0076750Y0074162D01*
X0076750Y0075525D01*
X0080656Y0079432D01*
X0082488Y0077600D01*
X0085512Y0077600D01*
X0087650Y0079738D01*
X0087650Y0082762D01*
X0085512Y0084900D01*
X0082488Y0084900D01*
X0081750Y0084162D01*
X0081750Y0090964D01*
X0082271Y0090615D01*
X0082935Y0090340D01*
X0083640Y0090200D01*
X0083750Y0090200D01*
X0083750Y0096000D01*
X0084250Y0096000D01*
X0084250Y0096500D01*
X0083750Y0096500D01*
X0083750Y0102300D01*
X0083640Y0102300D01*
X0082935Y0102160D01*
X0082271Y0101885D01*
X0081750Y0101536D01*
X0081750Y0120938D01*
X0081932Y0120756D01*
X0083274Y0120200D01*
X0084726Y0120200D01*
X0086068Y0120756D01*
X0087094Y0121782D01*
X0087650Y0123124D01*
X0087650Y0129376D01*
X0087094Y0130718D01*
X0086068Y0131744D01*
X0084726Y0132300D01*
X0083274Y0132300D01*
X0081932Y0131744D01*
X0081750Y0131562D01*
X0081750Y0135938D01*
X0081932Y0135756D01*
X0083274Y0135200D01*
X0084726Y0135200D01*
X0086068Y0135756D01*
X0087094Y0136782D01*
X0087650Y0138124D01*
X0087650Y0144376D01*
X0087094Y0145718D01*
X0086068Y0146744D01*
X0084726Y0147300D01*
X0083274Y0147300D01*
X0081932Y0146744D01*
X0080906Y0145718D01*
X0080350Y0144376D01*
X0080350Y0140075D01*
X0078250Y0137975D01*
X0078250Y0081975D01*
X0077275Y0081000D01*
X0074250Y0081000D01*
X0074250Y0081500D01*
X0073750Y0081500D01*
X0073750Y0084900D01*
X0072488Y0084900D01*
X0070350Y0082762D01*
X0070350Y0081500D01*
X0073750Y0081500D01*
X0073750Y0081000D01*
X0074250Y0081000D01*
X0074250Y0077975D01*
X0073250Y0076975D01*
X0073250Y0058525D01*
X0074275Y0057500D01*
X0077250Y0054525D01*
X0077250Y0054476D01*
X0076932Y0054344D01*
X0075906Y0053318D01*
X0075350Y0051976D01*
X0075350Y0050524D01*
X0075906Y0049182D01*
X0076932Y0048156D01*
X0078274Y0047600D01*
X0084526Y0047600D01*
X0085868Y0048156D01*
X0086250Y0048538D01*
X0086250Y0043962D01*
X0085868Y0044344D01*
X0084526Y0044900D01*
X0078274Y0044900D01*
X0076932Y0044344D01*
X0075906Y0043318D01*
X0075350Y0041976D01*
X0075350Y0040524D01*
X0075906Y0039182D01*
X0076932Y0038156D01*
X0078274Y0037600D01*
X0083875Y0037600D01*
X0075275Y0029000D01*
X0066912Y0029000D01*
X0067650Y0029738D01*
X0067650Y0032762D01*
X0065750Y0034662D01*
X0065750Y0052975D01*
X0055475Y0063250D01*
X0069750Y0077525D01*
X0069750Y0127525D01*
X0070350Y0128125D01*
X0070350Y0126500D01*
X0073750Y0126500D01*
X0073750Y0126000D01*
X0074250Y0126000D01*
X0074250Y0126500D01*
X0077650Y0126500D01*
X0077650Y0129009D01*
X0077510Y0129715D01*
X0077235Y0130379D01*
X0076835Y0130977D01*
X0076327Y0131485D01*
X0075729Y0131885D01*
X0075065Y0132160D01*
X0074497Y0132273D01*
X0075750Y0133525D01*
X0075750Y0135624D01*
X0076068Y0135756D01*
X0077094Y0136782D01*
X0077650Y0138124D01*
X0077650Y0144376D01*
X0077094Y0145718D01*
X0076068Y0146744D01*
X0074726Y0147300D01*
X0073274Y0147300D01*
X0071932Y0146744D01*
X0070906Y0145718D01*
X0070350Y0144376D01*
X0070350Y0138124D01*
X0070906Y0136782D01*
X0071932Y0135756D01*
X0072250Y0135624D01*
X0072250Y0134975D01*
X0067357Y0130082D01*
X0067094Y0130718D01*
X0066068Y0131744D01*
X0064726Y0132300D01*
X0063274Y0132300D01*
X0062212Y0131860D02*
X0055766Y0131860D01*
X0055729Y0131885D02*
X0055065Y0132160D01*
X0054359Y0132300D01*
X0054250Y0132300D01*
X0054250Y0126500D01*
X0057650Y0126500D01*
X0057650Y0129009D01*
X0057510Y0129715D01*
X0057235Y0130379D01*
X0056835Y0130977D01*
X0056327Y0131485D01*
X0055729Y0131885D01*
X0056450Y0131361D02*
X0061550Y0131361D01*
X0061051Y0130863D02*
X0056911Y0130863D01*
X0057241Y0130364D02*
X0060759Y0130364D01*
X0060553Y0129866D02*
X0057447Y0129866D01*
X0057579Y0129367D02*
X0060350Y0129367D01*
X0060350Y0128869D02*
X0057650Y0128869D01*
X0057650Y0128370D02*
X0060350Y0128370D01*
X0060350Y0127872D02*
X0057650Y0127872D01*
X0057650Y0127373D02*
X0060350Y0127373D01*
X0060350Y0126875D02*
X0057650Y0126875D01*
X0057650Y0126000D02*
X0054250Y0126000D01*
X0054250Y0126500D01*
X0053750Y0126500D01*
X0053750Y0132300D01*
X0053640Y0132300D01*
X0052935Y0132160D01*
X0052271Y0131885D01*
X0051673Y0131485D01*
X0051165Y0130977D01*
X0050765Y0130379D01*
X0050490Y0129715D01*
X0050350Y0129009D01*
X0050350Y0126500D01*
X0053750Y0126500D01*
X0053750Y0126000D01*
X0054250Y0126000D01*
X0054250Y0120200D01*
X0054359Y0120200D01*
X0055065Y0120340D01*
X0055729Y0120615D01*
X0056327Y0121015D01*
X0056835Y0121523D01*
X0057235Y0122121D01*
X0057510Y0122785D01*
X0057650Y0123490D01*
X0057650Y0126000D01*
X0057650Y0125878D02*
X0060350Y0125878D01*
X0060350Y0126376D02*
X0054250Y0126376D01*
X0054250Y0125878D02*
X0053750Y0125878D01*
X0053750Y0126000D02*
X0053750Y0120200D01*
X0053640Y0120200D01*
X0052935Y0120340D01*
X0052271Y0120615D01*
X0051673Y0121015D01*
X0051165Y0121523D01*
X0050765Y0122121D01*
X0050490Y0122785D01*
X0050350Y0123490D01*
X0050350Y0126000D01*
X0053750Y0126000D01*
X0053750Y0126376D02*
X0047650Y0126376D01*
X0047650Y0125878D02*
X0050350Y0125878D01*
X0050350Y0125379D02*
X0047650Y0125379D01*
X0047650Y0124881D02*
X0050350Y0124881D01*
X0050350Y0124382D02*
X0047650Y0124382D01*
X0047650Y0123884D02*
X0050350Y0123884D01*
X0050371Y0123385D02*
X0047650Y0123385D01*
X0047650Y0123124D02*
X0047650Y0129376D01*
X0047094Y0130718D01*
X0046068Y0131744D01*
X0044726Y0132300D01*
X0043274Y0132300D01*
X0041932Y0131744D01*
X0040906Y0130718D01*
X0040350Y0129376D01*
X0040350Y0123124D01*
X0040906Y0121782D01*
X0041932Y0120756D01*
X0043274Y0120200D01*
X0044726Y0120200D01*
X0046068Y0120756D01*
X0047094Y0121782D01*
X0047650Y0123124D01*
X0047552Y0122887D02*
X0050470Y0122887D01*
X0050655Y0122388D02*
X0047345Y0122388D01*
X0047139Y0121890D02*
X0050920Y0121890D01*
X0051297Y0121391D02*
X0046703Y0121391D01*
X0046205Y0120893D02*
X0051856Y0120893D01*
X0052805Y0120394D02*
X0045195Y0120394D01*
X0047650Y0126875D02*
X0050350Y0126875D01*
X0050350Y0127373D02*
X0047650Y0127373D01*
X0047650Y0127872D02*
X0050350Y0127872D01*
X0050350Y0128370D02*
X0047650Y0128370D01*
X0047650Y0128869D02*
X0050350Y0128869D01*
X0050421Y0129367D02*
X0047650Y0129367D01*
X0047447Y0129866D02*
X0050553Y0129866D01*
X0050759Y0130364D02*
X0047241Y0130364D01*
X0046949Y0130863D02*
X0051089Y0130863D01*
X0051550Y0131361D02*
X0046450Y0131361D01*
X0045788Y0131860D02*
X0052234Y0131860D01*
X0052913Y0135350D02*
X0045087Y0135350D01*
X0045065Y0135340D02*
X0045729Y0135615D01*
X0046327Y0136015D01*
X0046835Y0136523D01*
X0047235Y0137121D01*
X0047510Y0137785D01*
X0047650Y0138490D01*
X0047650Y0141000D01*
X0044250Y0141000D01*
X0044250Y0141500D01*
X0047650Y0141500D01*
X0047650Y0144009D01*
X0047510Y0144715D01*
X0047235Y0145379D01*
X0046835Y0145977D01*
X0046327Y0146485D01*
X0045729Y0146885D01*
X0045065Y0147160D01*
X0044359Y0147300D01*
X0044250Y0147300D01*
X0044250Y0141500D01*
X0043750Y0141500D01*
X0043750Y0147300D01*
X0043640Y0147300D01*
X0042935Y0147160D01*
X0042271Y0146885D01*
X0041673Y0146485D01*
X0041165Y0145977D01*
X0040765Y0145379D01*
X0040490Y0144715D01*
X0040350Y0144009D01*
X0040350Y0141500D01*
X0043750Y0141500D01*
X0043750Y0141000D01*
X0044250Y0141000D01*
X0044250Y0135200D01*
X0044359Y0135200D01*
X0045065Y0135340D01*
X0044250Y0135350D02*
X0043750Y0135350D01*
X0043750Y0135200D02*
X0043750Y0141000D01*
X0040350Y0141000D01*
X0040350Y0138490D01*
X0040490Y0137785D01*
X0040765Y0137121D01*
X0041165Y0136523D01*
X0041673Y0136015D01*
X0042271Y0135615D01*
X0042935Y0135340D01*
X0043640Y0135200D01*
X0043750Y0135200D01*
X0043750Y0135848D02*
X0044250Y0135848D01*
X0044250Y0136347D02*
X0043750Y0136347D01*
X0043750Y0136845D02*
X0044250Y0136845D01*
X0044250Y0137344D02*
X0043750Y0137344D01*
X0043750Y0137842D02*
X0044250Y0137842D01*
X0044250Y0138341D02*
X0043750Y0138341D01*
X0043750Y0138839D02*
X0044250Y0138839D01*
X0044250Y0139338D02*
X0043750Y0139338D01*
X0043750Y0139836D02*
X0044250Y0139836D01*
X0044250Y0140335D02*
X0043750Y0140335D01*
X0043750Y0140833D02*
X0044250Y0140833D01*
X0044250Y0141332D02*
X0050350Y0141332D01*
X0050350Y0141830D02*
X0047650Y0141830D01*
X0047650Y0142329D02*
X0050350Y0142329D01*
X0050350Y0142827D02*
X0047650Y0142827D01*
X0047650Y0143326D02*
X0050350Y0143326D01*
X0050350Y0143824D02*
X0047650Y0143824D01*
X0047588Y0144323D02*
X0050350Y0144323D01*
X0050534Y0144821D02*
X0047466Y0144821D01*
X0047259Y0145320D02*
X0050741Y0145320D01*
X0051006Y0145818D02*
X0046941Y0145818D01*
X0046495Y0146317D02*
X0051505Y0146317D01*
X0052104Y0146815D02*
X0045833Y0146815D01*
X0044250Y0146815D02*
X0043750Y0146815D01*
X0043750Y0146317D02*
X0044250Y0146317D01*
X0044250Y0145818D02*
X0043750Y0145818D01*
X0043750Y0145320D02*
X0044250Y0145320D01*
X0044250Y0144821D02*
X0043750Y0144821D01*
X0043750Y0144323D02*
X0044250Y0144323D01*
X0044250Y0143824D02*
X0043750Y0143824D01*
X0043750Y0143326D02*
X0044250Y0143326D01*
X0044250Y0142827D02*
X0043750Y0142827D01*
X0043750Y0142329D02*
X0044250Y0142329D01*
X0044250Y0141830D02*
X0043750Y0141830D01*
X0043750Y0141332D02*
X0034250Y0141332D01*
X0034250Y0141500D02*
X0037650Y0141500D01*
X0037650Y0144009D01*
X0037510Y0144715D01*
X0037235Y0145379D01*
X0036835Y0145977D01*
X0036327Y0146485D01*
X0035729Y0146885D01*
X0035065Y0147160D01*
X0034359Y0147300D01*
X0034250Y0147300D01*
X0034250Y0141500D01*
X0034250Y0141000D01*
X0037650Y0141000D01*
X0037650Y0138490D01*
X0037510Y0137785D01*
X0037235Y0137121D01*
X0036835Y0136523D01*
X0036327Y0136015D01*
X0035729Y0135615D01*
X0035065Y0135340D01*
X0034359Y0135200D01*
X0034250Y0135200D01*
X0034250Y0141000D01*
X0033750Y0141000D01*
X0033750Y0135200D01*
X0033640Y0135200D01*
X0032935Y0135340D01*
X0032271Y0135615D01*
X0031673Y0136015D01*
X0031165Y0136523D01*
X0030765Y0137121D01*
X0030490Y0137785D01*
X0030350Y0138490D01*
X0030350Y0141000D01*
X0033750Y0141000D01*
X0033750Y0141500D01*
X0033750Y0147300D01*
X0033640Y0147300D01*
X0032935Y0147160D01*
X0032271Y0146885D01*
X0031673Y0146485D01*
X0031165Y0145977D01*
X0030765Y0145379D01*
X0030490Y0144715D01*
X0030350Y0144009D01*
X0030350Y0141500D01*
X0033750Y0141500D01*
X0034250Y0141500D01*
X0034250Y0141830D02*
X0033750Y0141830D01*
X0033750Y0141332D02*
X0024250Y0141332D01*
X0024250Y0141500D02*
X0027650Y0141500D01*
X0027650Y0144009D01*
X0027510Y0144715D01*
X0027235Y0145379D01*
X0026835Y0145977D01*
X0026327Y0146485D01*
X0025729Y0146885D01*
X0025065Y0147160D01*
X0024359Y0147300D01*
X0024250Y0147300D01*
X0024250Y0141500D01*
X0024250Y0141000D01*
X0027650Y0141000D01*
X0027650Y0138490D01*
X0027510Y0137785D01*
X0027235Y0137121D01*
X0026835Y0136523D01*
X0026327Y0136015D01*
X0025729Y0135615D01*
X0025065Y0135340D01*
X0024359Y0135200D01*
X0024250Y0135200D01*
X0024250Y0141000D01*
X0023750Y0141000D01*
X0023750Y0135200D01*
X0023640Y0135200D01*
X0022935Y0135340D01*
X0022271Y0135615D01*
X0021673Y0136015D01*
X0021165Y0136523D01*
X0020765Y0137121D01*
X0020490Y0137785D01*
X0020350Y0138490D01*
X0020350Y0141000D01*
X0023750Y0141000D01*
X0023750Y0141500D01*
X0023750Y0147300D01*
X0023640Y0147300D01*
X0022935Y0147160D01*
X0022271Y0146885D01*
X0021673Y0146485D01*
X0021165Y0145977D01*
X0020765Y0145379D01*
X0020490Y0144715D01*
X0020350Y0144009D01*
X0020350Y0141500D01*
X0023750Y0141500D01*
X0024250Y0141500D01*
X0024250Y0141830D02*
X0023750Y0141830D01*
X0023750Y0141332D02*
X0017650Y0141332D01*
X0017650Y0141830D02*
X0020350Y0141830D01*
X0020350Y0142329D02*
X0017650Y0142329D01*
X0017650Y0142827D02*
X0020350Y0142827D01*
X0020350Y0143326D02*
X0017650Y0143326D01*
X0017650Y0143824D02*
X0020350Y0143824D01*
X0020412Y0144323D02*
X0017650Y0144323D01*
X0017466Y0144821D02*
X0020534Y0144821D01*
X0020741Y0145320D02*
X0017259Y0145320D01*
X0016994Y0145818D02*
X0021059Y0145818D01*
X0021505Y0146317D02*
X0016495Y0146317D01*
X0015896Y0146815D02*
X0022167Y0146815D01*
X0023750Y0146815D02*
X0024250Y0146815D01*
X0024250Y0146317D02*
X0023750Y0146317D01*
X0023750Y0145818D02*
X0024250Y0145818D01*
X0024250Y0145320D02*
X0023750Y0145320D01*
X0023750Y0144821D02*
X0024250Y0144821D01*
X0024250Y0144323D02*
X0023750Y0144323D01*
X0023750Y0143824D02*
X0024250Y0143824D01*
X0024250Y0143326D02*
X0023750Y0143326D01*
X0023750Y0142827D02*
X0024250Y0142827D01*
X0024250Y0142329D02*
X0023750Y0142329D01*
X0023750Y0140833D02*
X0024250Y0140833D01*
X0024250Y0140335D02*
X0023750Y0140335D01*
X0023750Y0139836D02*
X0024250Y0139836D01*
X0024250Y0139338D02*
X0023750Y0139338D01*
X0023750Y0138839D02*
X0024250Y0138839D01*
X0024250Y0138341D02*
X0023750Y0138341D01*
X0023750Y0137842D02*
X0024250Y0137842D01*
X0024250Y0137344D02*
X0023750Y0137344D01*
X0023750Y0136845D02*
X0024250Y0136845D01*
X0024250Y0136347D02*
X0023750Y0136347D01*
X0023750Y0135848D02*
X0024250Y0135848D01*
X0024250Y0135350D02*
X0023750Y0135350D01*
X0022913Y0135350D02*
X0015750Y0135350D01*
X0015750Y0134851D02*
X0072126Y0134851D01*
X0072250Y0135350D02*
X0065087Y0135350D01*
X0066160Y0135848D02*
X0071840Y0135848D01*
X0071342Y0136347D02*
X0066658Y0136347D01*
X0067120Y0136845D02*
X0070880Y0136845D01*
X0070673Y0137344D02*
X0067327Y0137344D01*
X0067533Y0137842D02*
X0070467Y0137842D01*
X0070350Y0138341D02*
X0067650Y0138341D01*
X0067650Y0138839D02*
X0070350Y0138839D01*
X0070350Y0139338D02*
X0067650Y0139338D01*
X0067650Y0139836D02*
X0070350Y0139836D01*
X0070350Y0140335D02*
X0067650Y0140335D01*
X0067650Y0140833D02*
X0070350Y0140833D01*
X0070350Y0141332D02*
X0067650Y0141332D01*
X0067650Y0141830D02*
X0070350Y0141830D01*
X0070350Y0142329D02*
X0067650Y0142329D01*
X0067650Y0142827D02*
X0070350Y0142827D01*
X0070350Y0143326D02*
X0067650Y0143326D01*
X0067650Y0143824D02*
X0070350Y0143824D01*
X0070350Y0144323D02*
X0067650Y0144323D01*
X0067466Y0144821D02*
X0070534Y0144821D01*
X0070741Y0145320D02*
X0067259Y0145320D01*
X0066994Y0145818D02*
X0071006Y0145818D01*
X0071505Y0146317D02*
X0066495Y0146317D01*
X0065896Y0146815D02*
X0072104Y0146815D01*
X0075896Y0146815D02*
X0082104Y0146815D01*
X0081505Y0146317D02*
X0076495Y0146317D01*
X0076994Y0145818D02*
X0081006Y0145818D01*
X0080741Y0145320D02*
X0077259Y0145320D01*
X0077466Y0144821D02*
X0080534Y0144821D01*
X0080350Y0144323D02*
X0077650Y0144323D01*
X0077650Y0143824D02*
X0080350Y0143824D01*
X0080350Y0143326D02*
X0077650Y0143326D01*
X0077650Y0142827D02*
X0080350Y0142827D01*
X0080350Y0142329D02*
X0077650Y0142329D01*
X0077650Y0141830D02*
X0080350Y0141830D01*
X0080350Y0141332D02*
X0077650Y0141332D01*
X0077650Y0140833D02*
X0080350Y0140833D01*
X0080350Y0140335D02*
X0077650Y0140335D01*
X0077650Y0139836D02*
X0080111Y0139836D01*
X0079613Y0139338D02*
X0077650Y0139338D01*
X0077650Y0138839D02*
X0079114Y0138839D01*
X0078616Y0138341D02*
X0077650Y0138341D01*
X0077533Y0137842D02*
X0078250Y0137842D01*
X0078250Y0137344D02*
X0077327Y0137344D01*
X0077120Y0136845D02*
X0078250Y0136845D01*
X0078250Y0136347D02*
X0076658Y0136347D01*
X0076160Y0135848D02*
X0078250Y0135848D01*
X0078250Y0135350D02*
X0075750Y0135350D01*
X0075750Y0134851D02*
X0078250Y0134851D01*
X0078250Y0134353D02*
X0075750Y0134353D01*
X0075750Y0133854D02*
X0078250Y0133854D01*
X0078250Y0133355D02*
X0075580Y0133355D01*
X0075082Y0132857D02*
X0078250Y0132857D01*
X0078250Y0132358D02*
X0074583Y0132358D01*
X0075766Y0131860D02*
X0078250Y0131860D01*
X0078250Y0131361D02*
X0076450Y0131361D01*
X0076911Y0130863D02*
X0078250Y0130863D01*
X0078250Y0130364D02*
X0077241Y0130364D01*
X0077447Y0129866D02*
X0078250Y0129866D01*
X0078250Y0129367D02*
X0077579Y0129367D01*
X0077650Y0128869D02*
X0078250Y0128869D01*
X0078250Y0128370D02*
X0077650Y0128370D01*
X0077650Y0127872D02*
X0078250Y0127872D01*
X0078250Y0127373D02*
X0077650Y0127373D01*
X0077650Y0126875D02*
X0078250Y0126875D01*
X0078250Y0126376D02*
X0074250Y0126376D01*
X0074250Y0126000D02*
X0077650Y0126000D01*
X0077650Y0123490D01*
X0077510Y0122785D01*
X0077235Y0122121D01*
X0076835Y0121523D01*
X0076327Y0121015D01*
X0075729Y0120615D01*
X0075065Y0120340D01*
X0074359Y0120200D01*
X0074250Y0120200D01*
X0074250Y0126000D01*
X0074250Y0125878D02*
X0073750Y0125878D01*
X0073750Y0126000D02*
X0073750Y0120200D01*
X0073640Y0120200D01*
X0072935Y0120340D01*
X0072271Y0120615D01*
X0071673Y0121015D01*
X0071165Y0121523D01*
X0070765Y0122121D01*
X0070490Y0122785D01*
X0070350Y0123490D01*
X0070350Y0126000D01*
X0073750Y0126000D01*
X0073750Y0126376D02*
X0069750Y0126376D01*
X0069750Y0125878D02*
X0070350Y0125878D01*
X0070350Y0125379D02*
X0069750Y0125379D01*
X0069750Y0124881D02*
X0070350Y0124881D01*
X0070350Y0124382D02*
X0069750Y0124382D01*
X0069750Y0123884D02*
X0070350Y0123884D01*
X0070371Y0123385D02*
X0069750Y0123385D01*
X0069750Y0122887D02*
X0070470Y0122887D01*
X0070655Y0122388D02*
X0069750Y0122388D01*
X0069750Y0121890D02*
X0070920Y0121890D01*
X0071297Y0121391D02*
X0069750Y0121391D01*
X0069750Y0120893D02*
X0071856Y0120893D01*
X0072805Y0120394D02*
X0069750Y0120394D01*
X0069750Y0119896D02*
X0078250Y0119896D01*
X0078250Y0120394D02*
X0075195Y0120394D01*
X0074250Y0120394D02*
X0073750Y0120394D01*
X0073750Y0120893D02*
X0074250Y0120893D01*
X0074250Y0121391D02*
X0073750Y0121391D01*
X0073750Y0121890D02*
X0074250Y0121890D01*
X0074250Y0122388D02*
X0073750Y0122388D01*
X0073750Y0122887D02*
X0074250Y0122887D01*
X0074250Y0123385D02*
X0073750Y0123385D01*
X0073750Y0123884D02*
X0074250Y0123884D01*
X0074250Y0124382D02*
X0073750Y0124382D01*
X0073750Y0124881D02*
X0074250Y0124881D01*
X0074250Y0125379D02*
X0073750Y0125379D01*
X0070350Y0126875D02*
X0069750Y0126875D01*
X0069750Y0127373D02*
X0070350Y0127373D01*
X0070350Y0127872D02*
X0070097Y0127872D01*
X0068138Y0130863D02*
X0066949Y0130863D01*
X0067241Y0130364D02*
X0067640Y0130364D01*
X0068637Y0131361D02*
X0066450Y0131361D01*
X0065788Y0131860D02*
X0069135Y0131860D01*
X0069634Y0132358D02*
X0015750Y0132358D01*
X0015750Y0131860D02*
X0022212Y0131860D01*
X0021932Y0131744D02*
X0020906Y0130718D01*
X0020350Y0129376D01*
X0020350Y0123124D01*
X0020906Y0121782D01*
X0021932Y0120756D01*
X0023274Y0120200D01*
X0024726Y0120200D01*
X0026068Y0120756D01*
X0027094Y0121782D01*
X0027650Y0123124D01*
X0027650Y0129376D01*
X0027094Y0130718D01*
X0026068Y0131744D01*
X0024726Y0132300D01*
X0023274Y0132300D01*
X0021932Y0131744D01*
X0021550Y0131361D02*
X0015750Y0131361D01*
X0015750Y0130863D02*
X0021051Y0130863D01*
X0020759Y0130364D02*
X0015750Y0130364D01*
X0015750Y0129866D02*
X0020553Y0129866D01*
X0020350Y0129367D02*
X0015750Y0129367D01*
X0015750Y0128869D02*
X0020350Y0128869D01*
X0020350Y0128370D02*
X0015750Y0128370D01*
X0015750Y0127872D02*
X0020350Y0127872D01*
X0020350Y0127373D02*
X0015750Y0127373D01*
X0015750Y0126875D02*
X0020350Y0126875D01*
X0020350Y0126376D02*
X0015750Y0126376D01*
X0015750Y0125878D02*
X0020350Y0125878D01*
X0020350Y0125379D02*
X0015750Y0125379D01*
X0015750Y0124881D02*
X0020350Y0124881D01*
X0020350Y0124382D02*
X0015750Y0124382D01*
X0015750Y0123884D02*
X0020350Y0123884D01*
X0020350Y0123385D02*
X0015750Y0123385D01*
X0015838Y0122887D02*
X0020448Y0122887D01*
X0020655Y0122388D02*
X0016337Y0122388D01*
X0016835Y0121890D02*
X0020861Y0121890D01*
X0021297Y0121391D02*
X0017334Y0121391D01*
X0017832Y0120893D02*
X0021795Y0120893D01*
X0022805Y0120394D02*
X0018331Y0120394D01*
X0018829Y0119896D02*
X0066250Y0119896D01*
X0066250Y0120394D02*
X0065195Y0120394D01*
X0066205Y0120893D02*
X0066250Y0120893D01*
X0066250Y0119397D02*
X0019328Y0119397D01*
X0019826Y0118899D02*
X0066250Y0118899D01*
X0066250Y0118400D02*
X0020325Y0118400D01*
X0020823Y0117902D02*
X0066250Y0117902D01*
X0066250Y0117403D02*
X0021322Y0117403D01*
X0021820Y0116905D02*
X0066250Y0116905D01*
X0066250Y0116406D02*
X0022319Y0116406D01*
X0022817Y0115908D02*
X0066250Y0115908D01*
X0066250Y0115409D02*
X0023316Y0115409D01*
X0023814Y0114911D02*
X0066250Y0114911D01*
X0066250Y0114412D02*
X0024313Y0114412D01*
X0024811Y0113914D02*
X0066250Y0113914D01*
X0066250Y0113415D02*
X0025310Y0113415D01*
X0025750Y0112917D02*
X0066250Y0112917D01*
X0066250Y0112418D02*
X0025750Y0112418D01*
X0025750Y0111920D02*
X0066250Y0111920D01*
X0066250Y0111421D02*
X0025750Y0111421D01*
X0025750Y0110922D02*
X0066250Y0110922D01*
X0066250Y0110424D02*
X0025750Y0110424D01*
X0025750Y0109925D02*
X0066250Y0109925D01*
X0066250Y0109427D02*
X0025750Y0109427D01*
X0025750Y0108928D02*
X0066250Y0108928D01*
X0066250Y0108430D02*
X0025750Y0108430D01*
X0025750Y0107931D02*
X0066250Y0107931D01*
X0066250Y0107433D02*
X0025750Y0107433D01*
X0025750Y0106934D02*
X0066250Y0106934D01*
X0066250Y0106436D02*
X0025750Y0106436D01*
X0025750Y0105937D02*
X0066250Y0105937D01*
X0066250Y0105439D02*
X0025750Y0105439D01*
X0025750Y0104940D02*
X0066250Y0104940D01*
X0066250Y0104442D02*
X0025750Y0104442D01*
X0025750Y0103943D02*
X0066250Y0103943D01*
X0066250Y0103445D02*
X0025750Y0103445D01*
X0025750Y0102946D02*
X0066250Y0102946D01*
X0066250Y0102448D02*
X0025750Y0102448D01*
X0025750Y0101949D02*
X0032427Y0101949D01*
X0031932Y0101744D02*
X0030906Y0100718D01*
X0030350Y0099376D01*
X0030350Y0093124D01*
X0030906Y0091782D01*
X0031932Y0090756D01*
X0033274Y0090200D01*
X0034726Y0090200D01*
X0036068Y0090756D01*
X0037094Y0091782D01*
X0037650Y0093124D01*
X0037650Y0099376D01*
X0037094Y0100718D01*
X0036068Y0101744D01*
X0034726Y0102300D01*
X0033274Y0102300D01*
X0031932Y0101744D01*
X0031639Y0101451D02*
X0026361Y0101451D01*
X0026860Y0100952D02*
X0031140Y0100952D01*
X0030796Y0100454D02*
X0027204Y0100454D01*
X0027410Y0099955D02*
X0030590Y0099955D01*
X0030383Y0099457D02*
X0027617Y0099457D01*
X0027650Y0098958D02*
X0030350Y0098958D01*
X0030350Y0098460D02*
X0027650Y0098460D01*
X0027650Y0097961D02*
X0030350Y0097961D01*
X0030350Y0097463D02*
X0027650Y0097463D01*
X0027650Y0096964D02*
X0030350Y0096964D01*
X0030350Y0096466D02*
X0027650Y0096466D01*
X0027650Y0095967D02*
X0030350Y0095967D01*
X0030350Y0095469D02*
X0027650Y0095469D01*
X0027650Y0094970D02*
X0030350Y0094970D01*
X0030350Y0094472D02*
X0027650Y0094472D01*
X0027650Y0093973D02*
X0030350Y0093973D01*
X0030350Y0093475D02*
X0027650Y0093475D01*
X0027589Y0092976D02*
X0030411Y0092976D01*
X0030618Y0092478D02*
X0027382Y0092478D01*
X0027176Y0091979D02*
X0030824Y0091979D01*
X0031208Y0091481D02*
X0026792Y0091481D01*
X0026294Y0090982D02*
X0031706Y0090982D01*
X0032589Y0090484D02*
X0025411Y0090484D01*
X0025813Y0084003D02*
X0019750Y0084003D01*
X0019750Y0084501D02*
X0042090Y0084501D01*
X0042488Y0084900D02*
X0040350Y0082762D01*
X0040350Y0079738D01*
X0042488Y0077600D01*
X0045512Y0077600D01*
X0047650Y0079738D01*
X0047650Y0082762D01*
X0045512Y0084900D01*
X0042488Y0084900D01*
X0041591Y0084003D02*
X0029431Y0084003D01*
X0030330Y0083504D02*
X0041092Y0083504D01*
X0040594Y0083006D02*
X0030828Y0083006D01*
X0031327Y0082507D02*
X0040350Y0082507D01*
X0040350Y0082009D02*
X0031548Y0082009D01*
X0031754Y0081510D02*
X0040350Y0081510D01*
X0040350Y0081012D02*
X0031961Y0081012D01*
X0032022Y0080513D02*
X0040350Y0080513D01*
X0040350Y0080015D02*
X0032022Y0080015D01*
X0032022Y0079516D02*
X0040572Y0079516D01*
X0041070Y0079018D02*
X0031981Y0079018D01*
X0031775Y0078519D02*
X0041569Y0078519D01*
X0042067Y0078021D02*
X0031704Y0078021D01*
X0032203Y0077522D02*
X0064797Y0077522D01*
X0064299Y0077024D02*
X0032701Y0077024D01*
X0033200Y0076525D02*
X0063800Y0076525D01*
X0063302Y0076027D02*
X0033698Y0076027D01*
X0034197Y0075528D02*
X0062803Y0075528D01*
X0062305Y0075030D02*
X0034695Y0075030D01*
X0035194Y0074531D02*
X0042584Y0074531D01*
X0041821Y0074033D02*
X0035692Y0074033D01*
X0036191Y0073534D02*
X0041322Y0073534D01*
X0040989Y0073036D02*
X0036689Y0073036D01*
X0037188Y0072537D02*
X0040782Y0072537D01*
X0040576Y0072039D02*
X0037686Y0072039D01*
X0038185Y0071540D02*
X0040550Y0071540D01*
X0040550Y0071042D02*
X0038683Y0071042D01*
X0039182Y0070543D02*
X0040550Y0070543D01*
X0040749Y0070045D02*
X0039680Y0070045D01*
X0040179Y0069546D02*
X0040955Y0069546D01*
X0040677Y0069048D02*
X0041241Y0069048D01*
X0038719Y0066056D02*
X0031635Y0066056D01*
X0031699Y0065931D02*
X0031385Y0066548D01*
X0030978Y0067108D01*
X0030488Y0067598D01*
X0029928Y0068005D01*
X0029599Y0068173D01*
X0030114Y0068386D01*
X0031352Y0069624D01*
X0032022Y0071241D01*
X0032022Y0072753D01*
X0039275Y0065500D01*
X0048275Y0065500D01*
X0048875Y0064900D01*
X0043474Y0064900D01*
X0042132Y0064344D01*
X0041106Y0063318D01*
X0040550Y0061976D01*
X0040550Y0060524D01*
X0041106Y0059182D01*
X0042132Y0058156D01*
X0043474Y0057600D01*
X0049726Y0057600D01*
X0051068Y0058156D01*
X0052094Y0059182D01*
X0052650Y0060524D01*
X0052650Y0061125D01*
X0062250Y0051525D01*
X0062250Y0034662D01*
X0060350Y0032762D01*
X0060350Y0029738D01*
X0061088Y0029000D01*
X0048725Y0029000D01*
X0047650Y0030075D01*
X0047650Y0032762D01*
X0045512Y0034900D01*
X0042488Y0034900D01*
X0040588Y0033000D01*
X0034750Y0033000D01*
X0034750Y0042975D01*
X0033725Y0044000D01*
X0029750Y0047975D01*
X0029750Y0052487D01*
X0030114Y0052638D01*
X0031352Y0053876D01*
X0032022Y0055493D01*
X0032022Y0057243D01*
X0031352Y0058860D01*
X0030114Y0060098D01*
X0029599Y0060311D01*
X0029928Y0060479D01*
X0030488Y0060886D01*
X0030978Y0061376D01*
X0031385Y0061936D01*
X0031699Y0062553D01*
X0031913Y0063212D01*
X0032022Y0063896D01*
X0032022Y0063992D01*
X0027872Y0063992D01*
X0027872Y0064492D01*
X0032022Y0064492D01*
X0032022Y0064588D01*
X0031913Y0065272D01*
X0031699Y0065931D01*
X0031821Y0065558D02*
X0039217Y0065558D01*
X0038220Y0066555D02*
X0031380Y0066555D01*
X0031018Y0067053D02*
X0037722Y0067053D01*
X0037223Y0067552D02*
X0030534Y0067552D01*
X0029839Y0068051D02*
X0036725Y0068051D01*
X0036226Y0068549D02*
X0030277Y0068549D01*
X0030775Y0069048D02*
X0035728Y0069048D01*
X0035229Y0069546D02*
X0031274Y0069546D01*
X0031526Y0070045D02*
X0034731Y0070045D01*
X0034232Y0070543D02*
X0031733Y0070543D01*
X0031939Y0071042D02*
X0033734Y0071042D01*
X0033235Y0071540D02*
X0032022Y0071540D01*
X0032022Y0072039D02*
X0032737Y0072039D01*
X0032238Y0072537D02*
X0032022Y0072537D01*
X0031947Y0065059D02*
X0048716Y0065059D01*
X0050814Y0068051D02*
X0055326Y0068051D01*
X0055824Y0068549D02*
X0051461Y0068549D01*
X0051959Y0069048D02*
X0056323Y0069048D01*
X0056821Y0069546D02*
X0052245Y0069546D01*
X0052451Y0070045D02*
X0057320Y0070045D01*
X0057818Y0070543D02*
X0052650Y0070543D01*
X0052650Y0071042D02*
X0058317Y0071042D01*
X0058815Y0071540D02*
X0052650Y0071540D01*
X0052624Y0072039D02*
X0059314Y0072039D01*
X0059812Y0072537D02*
X0052418Y0072537D01*
X0052211Y0073036D02*
X0060311Y0073036D01*
X0060809Y0073534D02*
X0051878Y0073534D01*
X0051379Y0074033D02*
X0061308Y0074033D01*
X0061806Y0074531D02*
X0050616Y0074531D01*
X0047428Y0079516D02*
X0060572Y0079516D01*
X0060350Y0080015D02*
X0047650Y0080015D01*
X0047650Y0080513D02*
X0060350Y0080513D01*
X0060350Y0081012D02*
X0047650Y0081012D01*
X0047650Y0081510D02*
X0060350Y0081510D01*
X0060350Y0082009D02*
X0047650Y0082009D01*
X0047650Y0082507D02*
X0060350Y0082507D01*
X0060594Y0083006D02*
X0047406Y0083006D01*
X0046907Y0083504D02*
X0061092Y0083504D01*
X0061591Y0084003D02*
X0046409Y0084003D01*
X0045910Y0084501D02*
X0062090Y0084501D01*
X0061070Y0079018D02*
X0046930Y0079018D01*
X0046431Y0078519D02*
X0061569Y0078519D01*
X0062067Y0078021D02*
X0045933Y0078021D01*
X0044726Y0090200D02*
X0043274Y0090200D01*
X0041932Y0090756D01*
X0040906Y0091782D01*
X0040350Y0093124D01*
X0040350Y0099376D01*
X0040906Y0100718D01*
X0041932Y0101744D01*
X0043274Y0102300D01*
X0044726Y0102300D01*
X0046068Y0101744D01*
X0047094Y0100718D01*
X0047650Y0099376D01*
X0047650Y0093124D01*
X0047094Y0091782D01*
X0046068Y0090756D01*
X0044726Y0090200D01*
X0045411Y0090484D02*
X0052589Y0090484D01*
X0051932Y0090756D02*
X0053274Y0090200D01*
X0054726Y0090200D01*
X0056068Y0090756D01*
X0057094Y0091782D01*
X0057650Y0093124D01*
X0057650Y0099376D01*
X0057094Y0100718D01*
X0056068Y0101744D01*
X0054726Y0102300D01*
X0053274Y0102300D01*
X0051932Y0101744D01*
X0050906Y0100718D01*
X0050350Y0099376D01*
X0050350Y0093124D01*
X0050906Y0091782D01*
X0051932Y0090756D01*
X0051706Y0090982D02*
X0046294Y0090982D01*
X0046792Y0091481D02*
X0051208Y0091481D01*
X0050824Y0091979D02*
X0047176Y0091979D01*
X0047382Y0092478D02*
X0050618Y0092478D01*
X0050411Y0092976D02*
X0047589Y0092976D01*
X0047650Y0093475D02*
X0050350Y0093475D01*
X0050350Y0093973D02*
X0047650Y0093973D01*
X0047650Y0094472D02*
X0050350Y0094472D01*
X0050350Y0094970D02*
X0047650Y0094970D01*
X0047650Y0095469D02*
X0050350Y0095469D01*
X0050350Y0095967D02*
X0047650Y0095967D01*
X0047650Y0096466D02*
X0050350Y0096466D01*
X0050350Y0096964D02*
X0047650Y0096964D01*
X0047650Y0097463D02*
X0050350Y0097463D01*
X0050350Y0097961D02*
X0047650Y0097961D01*
X0047650Y0098460D02*
X0050350Y0098460D01*
X0050350Y0098958D02*
X0047650Y0098958D01*
X0047617Y0099457D02*
X0050383Y0099457D01*
X0050590Y0099955D02*
X0047410Y0099955D01*
X0047204Y0100454D02*
X0050796Y0100454D01*
X0051140Y0100952D02*
X0046860Y0100952D01*
X0046361Y0101451D02*
X0051639Y0101451D01*
X0052427Y0101949D02*
X0045573Y0101949D01*
X0042427Y0101949D02*
X0035573Y0101949D01*
X0036361Y0101451D02*
X0041639Y0101451D01*
X0041140Y0100952D02*
X0036860Y0100952D01*
X0037204Y0100454D02*
X0040796Y0100454D01*
X0040590Y0099955D02*
X0037410Y0099955D01*
X0037617Y0099457D02*
X0040383Y0099457D01*
X0040350Y0098958D02*
X0037650Y0098958D01*
X0037650Y0098460D02*
X0040350Y0098460D01*
X0040350Y0097961D02*
X0037650Y0097961D01*
X0037650Y0097463D02*
X0040350Y0097463D01*
X0040350Y0096964D02*
X0037650Y0096964D01*
X0037650Y0096466D02*
X0040350Y0096466D01*
X0040350Y0095967D02*
X0037650Y0095967D01*
X0037650Y0095469D02*
X0040350Y0095469D01*
X0040350Y0094970D02*
X0037650Y0094970D01*
X0037650Y0094472D02*
X0040350Y0094472D01*
X0040350Y0093973D02*
X0037650Y0093973D01*
X0037650Y0093475D02*
X0040350Y0093475D01*
X0040411Y0092976D02*
X0037589Y0092976D01*
X0037382Y0092478D02*
X0040618Y0092478D01*
X0040824Y0091979D02*
X0037176Y0091979D01*
X0036792Y0091481D02*
X0041208Y0091481D01*
X0041706Y0090982D02*
X0036294Y0090982D01*
X0035411Y0090484D02*
X0042589Y0090484D01*
X0051173Y0067552D02*
X0054827Y0067552D01*
X0054329Y0067053D02*
X0051671Y0067053D01*
X0052170Y0066555D02*
X0053830Y0066555D01*
X0053332Y0066056D02*
X0052668Y0066056D01*
X0052650Y0061071D02*
X0052704Y0061071D01*
X0052650Y0060573D02*
X0053202Y0060573D01*
X0053701Y0060074D02*
X0052464Y0060074D01*
X0052257Y0059576D02*
X0054199Y0059576D01*
X0054698Y0059077D02*
X0051989Y0059077D01*
X0051491Y0058579D02*
X0055196Y0058579D01*
X0055695Y0058080D02*
X0050886Y0058080D01*
X0049726Y0054900D02*
X0051068Y0054344D01*
X0052094Y0053318D01*
X0052650Y0051976D01*
X0052650Y0050524D01*
X0052094Y0049182D01*
X0051068Y0048156D01*
X0049726Y0047600D01*
X0043474Y0047600D01*
X0042132Y0048156D01*
X0041106Y0049182D01*
X0040550Y0050524D01*
X0040550Y0051976D01*
X0041106Y0053318D01*
X0042132Y0054344D01*
X0043474Y0054900D01*
X0049726Y0054900D01*
X0050473Y0054591D02*
X0059184Y0054591D01*
X0058686Y0055089D02*
X0031854Y0055089D01*
X0032022Y0055588D02*
X0058187Y0055588D01*
X0057689Y0056086D02*
X0032022Y0056086D01*
X0032022Y0056585D02*
X0057190Y0056585D01*
X0056692Y0057083D02*
X0032022Y0057083D01*
X0031881Y0057582D02*
X0056193Y0057582D01*
X0057155Y0061570D02*
X0073250Y0061570D01*
X0073250Y0062068D02*
X0056656Y0062068D01*
X0056158Y0062567D02*
X0073250Y0062567D01*
X0073250Y0063065D02*
X0055659Y0063065D01*
X0055789Y0063564D02*
X0073250Y0063564D01*
X0073250Y0064062D02*
X0056287Y0064062D01*
X0056786Y0064561D02*
X0073250Y0064561D01*
X0073250Y0065059D02*
X0057284Y0065059D01*
X0057783Y0065558D02*
X0073250Y0065558D01*
X0073250Y0066056D02*
X0058281Y0066056D01*
X0058780Y0066555D02*
X0073250Y0066555D01*
X0073250Y0067053D02*
X0059278Y0067053D01*
X0059777Y0067552D02*
X0073250Y0067552D01*
X0073250Y0068051D02*
X0060275Y0068051D01*
X0060774Y0068549D02*
X0073250Y0068549D01*
X0073250Y0069048D02*
X0061272Y0069048D01*
X0061771Y0069546D02*
X0073250Y0069546D01*
X0073250Y0070045D02*
X0062269Y0070045D01*
X0062768Y0070543D02*
X0073250Y0070543D01*
X0073250Y0071042D02*
X0063266Y0071042D01*
X0063765Y0071540D02*
X0073250Y0071540D01*
X0073250Y0072039D02*
X0064263Y0072039D01*
X0064762Y0072537D02*
X0073250Y0072537D01*
X0073250Y0073036D02*
X0065260Y0073036D01*
X0065759Y0073534D02*
X0073250Y0073534D01*
X0073250Y0074033D02*
X0066258Y0074033D01*
X0066756Y0074531D02*
X0073250Y0074531D01*
X0073250Y0075030D02*
X0067255Y0075030D01*
X0067753Y0075528D02*
X0073250Y0075528D01*
X0073250Y0076027D02*
X0068252Y0076027D01*
X0068750Y0076525D02*
X0073250Y0076525D01*
X0073299Y0077024D02*
X0069249Y0077024D01*
X0069747Y0077522D02*
X0073797Y0077522D01*
X0073750Y0077600D02*
X0073750Y0081000D01*
X0070350Y0081000D01*
X0070350Y0079738D01*
X0072488Y0077600D01*
X0073750Y0077600D01*
X0073750Y0078021D02*
X0074250Y0078021D01*
X0074250Y0078519D02*
X0073750Y0078519D01*
X0073750Y0079018D02*
X0074250Y0079018D01*
X0074250Y0079516D02*
X0073750Y0079516D01*
X0073750Y0080015D02*
X0074250Y0080015D01*
X0074250Y0080513D02*
X0073750Y0080513D01*
X0073750Y0081012D02*
X0069750Y0081012D01*
X0069750Y0081510D02*
X0070350Y0081510D01*
X0070350Y0082009D02*
X0069750Y0082009D01*
X0069750Y0082507D02*
X0070350Y0082507D01*
X0070594Y0083006D02*
X0069750Y0083006D01*
X0069750Y0083504D02*
X0071092Y0083504D01*
X0071591Y0084003D02*
X0069750Y0084003D01*
X0069750Y0084501D02*
X0072090Y0084501D01*
X0073750Y0084501D02*
X0074250Y0084501D01*
X0074250Y0084900D02*
X0074250Y0081500D01*
X0077650Y0081500D01*
X0077650Y0082762D01*
X0075512Y0084900D01*
X0074250Y0084900D01*
X0074250Y0084003D02*
X0073750Y0084003D01*
X0073750Y0083504D02*
X0074250Y0083504D01*
X0074250Y0083006D02*
X0073750Y0083006D01*
X0073750Y0082507D02*
X0074250Y0082507D01*
X0074250Y0082009D02*
X0073750Y0082009D01*
X0073750Y0081510D02*
X0074250Y0081510D01*
X0074250Y0081012D02*
X0077287Y0081012D01*
X0077650Y0081510D02*
X0077785Y0081510D01*
X0077650Y0082009D02*
X0078250Y0082009D01*
X0078250Y0082507D02*
X0077650Y0082507D01*
X0077406Y0083006D02*
X0078250Y0083006D01*
X0078250Y0083504D02*
X0076907Y0083504D01*
X0076409Y0084003D02*
X0078250Y0084003D01*
X0078250Y0084501D02*
X0075910Y0084501D01*
X0078250Y0085000D02*
X0069750Y0085000D01*
X0069750Y0085498D02*
X0078250Y0085498D01*
X0078250Y0085997D02*
X0069750Y0085997D01*
X0069750Y0086495D02*
X0078250Y0086495D01*
X0078250Y0086994D02*
X0069750Y0086994D01*
X0069750Y0087492D02*
X0078250Y0087492D01*
X0078250Y0087991D02*
X0069750Y0087991D01*
X0069750Y0088489D02*
X0078250Y0088489D01*
X0078250Y0088988D02*
X0069750Y0088988D01*
X0069750Y0089487D02*
X0078250Y0089487D01*
X0078250Y0089985D02*
X0069750Y0089985D01*
X0069750Y0090484D02*
X0072589Y0090484D01*
X0071932Y0090756D02*
X0073274Y0090200D01*
X0074726Y0090200D01*
X0076068Y0090756D01*
X0077094Y0091782D01*
X0077650Y0093124D01*
X0077650Y0099376D01*
X0077094Y0100718D01*
X0076068Y0101744D01*
X0074726Y0102300D01*
X0073274Y0102300D01*
X0071932Y0101744D01*
X0070906Y0100718D01*
X0070350Y0099376D01*
X0070350Y0093124D01*
X0070906Y0091782D01*
X0071932Y0090756D01*
X0071706Y0090982D02*
X0069750Y0090982D01*
X0069750Y0091481D02*
X0071208Y0091481D01*
X0070824Y0091979D02*
X0069750Y0091979D01*
X0069750Y0092478D02*
X0070618Y0092478D01*
X0070411Y0092976D02*
X0069750Y0092976D01*
X0069750Y0093475D02*
X0070350Y0093475D01*
X0070350Y0093973D02*
X0069750Y0093973D01*
X0069750Y0094472D02*
X0070350Y0094472D01*
X0070350Y0094970D02*
X0069750Y0094970D01*
X0069750Y0095469D02*
X0070350Y0095469D01*
X0070350Y0095967D02*
X0069750Y0095967D01*
X0069750Y0096466D02*
X0070350Y0096466D01*
X0070350Y0096964D02*
X0069750Y0096964D01*
X0069750Y0097463D02*
X0070350Y0097463D01*
X0070350Y0097961D02*
X0069750Y0097961D01*
X0069750Y0098460D02*
X0070350Y0098460D01*
X0070350Y0098958D02*
X0069750Y0098958D01*
X0069750Y0099457D02*
X0070383Y0099457D01*
X0070590Y0099955D02*
X0069750Y0099955D01*
X0069750Y0100454D02*
X0070796Y0100454D01*
X0071140Y0100952D02*
X0069750Y0100952D01*
X0069750Y0101451D02*
X0071639Y0101451D01*
X0072427Y0101949D02*
X0069750Y0101949D01*
X0069750Y0102448D02*
X0078250Y0102448D01*
X0078250Y0102946D02*
X0069750Y0102946D01*
X0069750Y0103445D02*
X0078250Y0103445D01*
X0078250Y0103943D02*
X0069750Y0103943D01*
X0069750Y0104442D02*
X0078250Y0104442D01*
X0078250Y0104940D02*
X0069750Y0104940D01*
X0069750Y0105439D02*
X0078250Y0105439D01*
X0078250Y0105937D02*
X0069750Y0105937D01*
X0069750Y0106436D02*
X0078250Y0106436D01*
X0078250Y0106934D02*
X0069750Y0106934D01*
X0069750Y0107433D02*
X0078250Y0107433D01*
X0078250Y0107931D02*
X0069750Y0107931D01*
X0069750Y0108430D02*
X0078250Y0108430D01*
X0078250Y0108928D02*
X0069750Y0108928D01*
X0069750Y0109427D02*
X0078250Y0109427D01*
X0078250Y0109925D02*
X0069750Y0109925D01*
X0069750Y0110424D02*
X0078250Y0110424D01*
X0078250Y0110922D02*
X0069750Y0110922D01*
X0069750Y0111421D02*
X0078250Y0111421D01*
X0078250Y0111920D02*
X0069750Y0111920D01*
X0069750Y0112418D02*
X0078250Y0112418D01*
X0078250Y0112917D02*
X0069750Y0112917D01*
X0069750Y0113415D02*
X0078250Y0113415D01*
X0078250Y0113914D02*
X0069750Y0113914D01*
X0069750Y0114412D02*
X0078250Y0114412D01*
X0078250Y0114911D02*
X0069750Y0114911D01*
X0069750Y0115409D02*
X0078250Y0115409D01*
X0078250Y0115908D02*
X0069750Y0115908D01*
X0069750Y0116406D02*
X0078250Y0116406D01*
X0078250Y0116905D02*
X0069750Y0116905D01*
X0069750Y0117403D02*
X0078250Y0117403D01*
X0078250Y0117902D02*
X0069750Y0117902D01*
X0069750Y0118400D02*
X0078250Y0118400D01*
X0078250Y0118899D02*
X0069750Y0118899D01*
X0069750Y0119397D02*
X0078250Y0119397D01*
X0078250Y0120893D02*
X0076144Y0120893D01*
X0076703Y0121391D02*
X0078250Y0121391D01*
X0078250Y0121890D02*
X0077080Y0121890D01*
X0077345Y0122388D02*
X0078250Y0122388D01*
X0078250Y0122887D02*
X0077530Y0122887D01*
X0077629Y0123385D02*
X0078250Y0123385D01*
X0078250Y0123884D02*
X0077650Y0123884D01*
X0077650Y0124382D02*
X0078250Y0124382D01*
X0078250Y0124881D02*
X0077650Y0124881D01*
X0077650Y0125379D02*
X0078250Y0125379D01*
X0078250Y0125878D02*
X0077650Y0125878D01*
X0081750Y0120893D02*
X0081795Y0120893D01*
X0081750Y0120394D02*
X0082805Y0120394D01*
X0081750Y0119896D02*
X0092333Y0119896D01*
X0092333Y0120394D02*
X0085195Y0120394D01*
X0086205Y0120893D02*
X0092333Y0120893D01*
X0092333Y0121391D02*
X0086703Y0121391D01*
X0087139Y0121890D02*
X0092333Y0121890D01*
X0092333Y0122388D02*
X0087345Y0122388D01*
X0087552Y0122887D02*
X0092333Y0122887D01*
X0092333Y0123385D02*
X0087650Y0123385D01*
X0087650Y0123884D02*
X0092333Y0123884D01*
X0092333Y0124382D02*
X0087650Y0124382D01*
X0087650Y0124881D02*
X0092333Y0124881D01*
X0092333Y0125379D02*
X0087650Y0125379D01*
X0087650Y0125878D02*
X0092333Y0125878D01*
X0092333Y0126376D02*
X0087650Y0126376D01*
X0087650Y0126875D02*
X0092333Y0126875D01*
X0092333Y0127373D02*
X0087650Y0127373D01*
X0087650Y0127872D02*
X0092333Y0127872D01*
X0092333Y0128370D02*
X0087650Y0128370D01*
X0087650Y0128869D02*
X0092333Y0128869D01*
X0092333Y0129367D02*
X0087650Y0129367D01*
X0087447Y0129866D02*
X0092333Y0129866D01*
X0092333Y0130364D02*
X0087241Y0130364D01*
X0086949Y0130863D02*
X0092333Y0130863D01*
X0092333Y0131361D02*
X0086450Y0131361D01*
X0085788Y0131860D02*
X0092333Y0131860D01*
X0092333Y0132358D02*
X0081750Y0132358D01*
X0081750Y0131860D02*
X0082212Y0131860D01*
X0081750Y0132857D02*
X0092333Y0132857D01*
X0092333Y0133355D02*
X0081750Y0133355D01*
X0081750Y0133854D02*
X0092333Y0133854D01*
X0092333Y0134353D02*
X0081750Y0134353D01*
X0081750Y0134851D02*
X0092333Y0134851D01*
X0092333Y0135350D02*
X0085087Y0135350D01*
X0086160Y0135848D02*
X0092333Y0135848D01*
X0092333Y0136347D02*
X0086658Y0136347D01*
X0087120Y0136845D02*
X0092333Y0136845D01*
X0092333Y0137344D02*
X0087327Y0137344D01*
X0087533Y0137842D02*
X0092333Y0137842D01*
X0092333Y0138341D02*
X0087650Y0138341D01*
X0087650Y0138839D02*
X0092333Y0138839D01*
X0092333Y0139338D02*
X0087650Y0139338D01*
X0087650Y0139836D02*
X0092333Y0139836D01*
X0092333Y0140335D02*
X0087650Y0140335D01*
X0087650Y0140833D02*
X0092333Y0140833D01*
X0092333Y0141332D02*
X0087650Y0141332D01*
X0087650Y0141830D02*
X0092333Y0141830D01*
X0092333Y0142329D02*
X0087650Y0142329D01*
X0087650Y0142827D02*
X0092333Y0142827D01*
X0092333Y0143326D02*
X0087650Y0143326D01*
X0087650Y0143824D02*
X0092333Y0143824D01*
X0092333Y0144323D02*
X0087650Y0144323D01*
X0087466Y0144821D02*
X0092333Y0144821D01*
X0092333Y0145320D02*
X0087259Y0145320D01*
X0086994Y0145818D02*
X0092333Y0145818D01*
X0092333Y0146317D02*
X0086495Y0146317D01*
X0085896Y0146815D02*
X0092333Y0146815D01*
X0092333Y0147314D02*
X0065750Y0147314D01*
X0065750Y0147812D02*
X0092333Y0147812D01*
X0092333Y0148311D02*
X0065750Y0148311D01*
X0065750Y0148809D02*
X0092333Y0148809D01*
X0092333Y0149308D02*
X0065750Y0149308D01*
X0065750Y0149806D02*
X0092333Y0149806D01*
X0092333Y0150305D02*
X0065750Y0150305D01*
X0065750Y0150803D02*
X0092333Y0150803D01*
X0092333Y0151302D02*
X0065750Y0151302D01*
X0065750Y0151800D02*
X0092333Y0151800D01*
X0092333Y0152299D02*
X0065750Y0152299D01*
X0065750Y0152797D02*
X0092333Y0152797D01*
X0092333Y0153296D02*
X0065750Y0153296D01*
X0065750Y0153794D02*
X0092333Y0153794D01*
X0092333Y0154293D02*
X0065750Y0154293D01*
X0065750Y0154791D02*
X0092333Y0154791D01*
X0092333Y0155290D02*
X0065750Y0155290D01*
X0065750Y0155789D02*
X0092333Y0155789D01*
X0092333Y0156287D02*
X0065750Y0156287D01*
X0065750Y0156786D02*
X0092333Y0156786D01*
X0092333Y0157284D02*
X0065750Y0157284D01*
X0065750Y0157783D02*
X0092333Y0157783D01*
X0092333Y0158281D02*
X0065750Y0158281D01*
X0065750Y0158780D02*
X0092333Y0158780D01*
X0092333Y0159278D02*
X0065750Y0159278D01*
X0065750Y0159777D02*
X0092333Y0159777D01*
X0092333Y0160275D02*
X0065750Y0160275D01*
X0065750Y0160774D02*
X0092333Y0160774D01*
X0092333Y0161272D02*
X0065750Y0161272D01*
X0065750Y0161771D02*
X0092333Y0161771D01*
X0092333Y0162269D02*
X0065494Y0162269D01*
X0065993Y0162768D02*
X0092333Y0162768D01*
X0092333Y0163266D02*
X0066491Y0163266D01*
X0066990Y0163765D02*
X0092333Y0163765D01*
X0092333Y0164263D02*
X0067488Y0164263D01*
X0067987Y0164762D02*
X0092333Y0164762D01*
X0092333Y0165260D02*
X0084662Y0165260D01*
X0084359Y0165200D02*
X0085065Y0165340D01*
X0085729Y0165615D01*
X0086327Y0166015D01*
X0086835Y0166523D01*
X0087235Y0167121D01*
X0087510Y0167785D01*
X0087650Y0168490D01*
X0087650Y0171000D01*
X0084250Y0171000D01*
X0084250Y0171500D01*
X0087650Y0171500D01*
X0087650Y0174009D01*
X0087510Y0174715D01*
X0087235Y0175379D01*
X0086835Y0175977D01*
X0086327Y0176485D01*
X0085729Y0176885D01*
X0085065Y0177160D01*
X0084359Y0177300D01*
X0084250Y0177300D01*
X0084250Y0171500D01*
X0083750Y0171500D01*
X0083750Y0177300D01*
X0083640Y0177300D01*
X0082935Y0177160D01*
X0082271Y0176885D01*
X0081673Y0176485D01*
X0081165Y0175977D01*
X0080765Y0175379D01*
X0080490Y0174715D01*
X0080350Y0174009D01*
X0080350Y0171500D01*
X0083750Y0171500D01*
X0083750Y0171000D01*
X0084250Y0171000D01*
X0084250Y0165200D01*
X0084359Y0165200D01*
X0084250Y0165260D02*
X0083750Y0165260D01*
X0083750Y0165200D02*
X0083750Y0171000D01*
X0080350Y0171000D01*
X0080350Y0168490D01*
X0080490Y0167785D01*
X0080765Y0167121D01*
X0081165Y0166523D01*
X0081673Y0166015D01*
X0082271Y0165615D01*
X0082935Y0165340D01*
X0083640Y0165200D01*
X0083750Y0165200D01*
X0083338Y0165260D02*
X0074871Y0165260D01*
X0076071Y0165759D02*
X0082057Y0165759D01*
X0081431Y0166257D02*
X0076569Y0166257D01*
X0077068Y0166756D02*
X0081009Y0166756D01*
X0080710Y0167254D02*
X0077290Y0167254D01*
X0077496Y0167753D02*
X0080504Y0167753D01*
X0080398Y0168251D02*
X0077650Y0168251D01*
X0077650Y0168750D02*
X0080350Y0168750D01*
X0080350Y0169248D02*
X0077650Y0169248D01*
X0077650Y0169747D02*
X0080350Y0169747D01*
X0080350Y0170245D02*
X0077650Y0170245D01*
X0077650Y0170744D02*
X0080350Y0170744D01*
X0080350Y0171741D02*
X0077650Y0171741D01*
X0077650Y0172239D02*
X0080350Y0172239D01*
X0080350Y0172738D02*
X0077650Y0172738D01*
X0077650Y0173236D02*
X0080350Y0173236D01*
X0080350Y0173735D02*
X0077650Y0173735D01*
X0077650Y0174233D02*
X0080395Y0174233D01*
X0080497Y0174732D02*
X0077503Y0174732D01*
X0077296Y0175230D02*
X0080704Y0175230D01*
X0080999Y0175729D02*
X0077083Y0175729D01*
X0076584Y0176227D02*
X0081416Y0176227D01*
X0082034Y0176726D02*
X0076086Y0176726D01*
X0074908Y0177224D02*
X0083261Y0177224D01*
X0083750Y0177224D02*
X0084250Y0177224D01*
X0084739Y0177224D02*
X0092333Y0177224D01*
X0092333Y0176726D02*
X0085966Y0176726D01*
X0086584Y0176227D02*
X0092333Y0176227D01*
X0092333Y0175729D02*
X0087001Y0175729D01*
X0087296Y0175230D02*
X0092333Y0175230D01*
X0092333Y0174732D02*
X0087503Y0174732D01*
X0087605Y0174233D02*
X0092333Y0174233D01*
X0092333Y0173735D02*
X0087650Y0173735D01*
X0087650Y0173236D02*
X0092333Y0173236D01*
X0092333Y0172738D02*
X0087650Y0172738D01*
X0087650Y0172239D02*
X0092333Y0172239D01*
X0092333Y0171741D02*
X0087650Y0171741D01*
X0087650Y0170744D02*
X0092333Y0170744D01*
X0092333Y0171242D02*
X0084250Y0171242D01*
X0084250Y0170744D02*
X0083750Y0170744D01*
X0083750Y0171242D02*
X0077650Y0171242D01*
X0074948Y0177723D02*
X0092333Y0177723D01*
X0092333Y0178222D02*
X0075446Y0178222D01*
X0075725Y0178500D02*
X0075725Y0178500D01*
X0075945Y0178720D02*
X0092333Y0178720D01*
X0092333Y0179219D02*
X0076443Y0179219D01*
X0076942Y0179717D02*
X0092333Y0179717D01*
X0092333Y0180216D02*
X0077440Y0180216D01*
X0077939Y0180714D02*
X0092333Y0180714D01*
X0092333Y0181213D02*
X0078437Y0181213D01*
X0078936Y0181711D02*
X0092333Y0181711D01*
X0092333Y0182210D02*
X0079434Y0182210D01*
X0079933Y0182708D02*
X0082380Y0182708D01*
X0081881Y0183207D02*
X0080431Y0183207D01*
X0080930Y0183705D02*
X0081383Y0183705D01*
X0079968Y0187693D02*
X0077650Y0187693D01*
X0077650Y0187762D02*
X0075512Y0189900D01*
X0074250Y0189900D01*
X0074250Y0186500D01*
X0077650Y0186500D01*
X0077650Y0187762D01*
X0077650Y0187195D02*
X0079470Y0187195D01*
X0078971Y0186696D02*
X0077650Y0186696D01*
X0078473Y0186198D02*
X0074250Y0186198D01*
X0074250Y0186000D02*
X0074250Y0182600D01*
X0074875Y0182600D01*
X0074500Y0182225D01*
X0073750Y0182975D01*
X0073750Y0186000D01*
X0074250Y0186000D01*
X0074250Y0185699D02*
X0073750Y0185699D01*
X0073750Y0185201D02*
X0074250Y0185201D01*
X0074250Y0184702D02*
X0073750Y0184702D01*
X0073750Y0184204D02*
X0074250Y0184204D01*
X0074250Y0183705D02*
X0073750Y0183705D01*
X0073750Y0183207D02*
X0074250Y0183207D01*
X0074250Y0182708D02*
X0074017Y0182708D01*
X0073750Y0186198D02*
X0070527Y0186198D01*
X0070350Y0186696D02*
X0070029Y0186696D01*
X0070350Y0187195D02*
X0069530Y0187195D01*
X0069032Y0187693D02*
X0070350Y0187693D01*
X0070780Y0188192D02*
X0068533Y0188192D01*
X0068035Y0188690D02*
X0071278Y0188690D01*
X0071777Y0189189D02*
X0067536Y0189189D01*
X0067038Y0189687D02*
X0072275Y0189687D01*
X0073750Y0189687D02*
X0074250Y0189687D01*
X0074250Y0189189D02*
X0073750Y0189189D01*
X0073750Y0188690D02*
X0074250Y0188690D01*
X0074250Y0188192D02*
X0073750Y0188192D01*
X0073750Y0187693D02*
X0074250Y0187693D01*
X0074250Y0187195D02*
X0073750Y0187195D01*
X0073750Y0186696D02*
X0074250Y0186696D01*
X0075725Y0189687D02*
X0082275Y0189687D01*
X0081777Y0189189D02*
X0076223Y0189189D01*
X0076722Y0188690D02*
X0081278Y0188690D01*
X0080780Y0188192D02*
X0077220Y0188192D01*
X0077650Y0185699D02*
X0077974Y0185699D01*
X0083750Y0176726D02*
X0084250Y0176726D01*
X0084250Y0176227D02*
X0083750Y0176227D01*
X0083750Y0175729D02*
X0084250Y0175729D01*
X0084250Y0175230D02*
X0083750Y0175230D01*
X0083750Y0174732D02*
X0084250Y0174732D01*
X0084250Y0174233D02*
X0083750Y0174233D01*
X0083750Y0173735D02*
X0084250Y0173735D01*
X0084250Y0173236D02*
X0083750Y0173236D01*
X0083750Y0172738D02*
X0084250Y0172738D01*
X0084250Y0172239D02*
X0083750Y0172239D01*
X0083750Y0171741D02*
X0084250Y0171741D01*
X0084250Y0170245D02*
X0083750Y0170245D01*
X0083750Y0169747D02*
X0084250Y0169747D01*
X0084250Y0169248D02*
X0083750Y0169248D01*
X0083750Y0168750D02*
X0084250Y0168750D01*
X0084250Y0168251D02*
X0083750Y0168251D01*
X0083750Y0167753D02*
X0084250Y0167753D01*
X0084250Y0167254D02*
X0083750Y0167254D01*
X0083750Y0166756D02*
X0084250Y0166756D01*
X0084250Y0166257D02*
X0083750Y0166257D01*
X0083750Y0165759D02*
X0084250Y0165759D01*
X0085943Y0165759D02*
X0092333Y0165759D01*
X0092333Y0166257D02*
X0086569Y0166257D01*
X0086990Y0166756D02*
X0092333Y0166756D01*
X0092333Y0167254D02*
X0087290Y0167254D01*
X0087496Y0167753D02*
X0092333Y0167753D01*
X0092333Y0168251D02*
X0087602Y0168251D01*
X0087650Y0168750D02*
X0092333Y0168750D01*
X0092333Y0169248D02*
X0087650Y0169248D01*
X0087650Y0169747D02*
X0092333Y0169747D01*
X0092333Y0170245D02*
X0087650Y0170245D01*
X0085620Y0182708D02*
X0092333Y0182708D01*
X0092333Y0183207D02*
X0086119Y0183207D01*
X0086617Y0183705D02*
X0092333Y0183705D01*
X0092333Y0184204D02*
X0087116Y0184204D01*
X0087614Y0184702D02*
X0092333Y0184702D01*
X0092333Y0185201D02*
X0087650Y0185201D01*
X0087650Y0185699D02*
X0092333Y0185699D01*
X0092333Y0186198D02*
X0087650Y0186198D01*
X0087650Y0186696D02*
X0092333Y0186696D01*
X0092333Y0187195D02*
X0087650Y0187195D01*
X0087650Y0187693D02*
X0092333Y0187693D01*
X0092333Y0188192D02*
X0087220Y0188192D01*
X0086722Y0188690D02*
X0092333Y0188690D01*
X0092333Y0189189D02*
X0086223Y0189189D01*
X0085725Y0189687D02*
X0092333Y0189687D01*
X0092333Y0190186D02*
X0066539Y0190186D01*
X0066041Y0190684D02*
X0092333Y0190684D01*
X0092333Y0191183D02*
X0065542Y0191183D01*
X0065044Y0191681D02*
X0092333Y0191681D01*
X0092333Y0192180D02*
X0064545Y0192180D01*
X0064047Y0192678D02*
X0092333Y0192678D01*
X0092333Y0193177D02*
X0063548Y0193177D01*
X0063049Y0193675D02*
X0092333Y0193675D01*
X0092333Y0194174D02*
X0062551Y0194174D01*
X0062052Y0194672D02*
X0092333Y0194672D01*
X0092333Y0195171D02*
X0061554Y0195171D01*
X0061055Y0195669D02*
X0092333Y0195669D01*
X0092333Y0196168D02*
X0060557Y0196168D01*
X0060058Y0196666D02*
X0092333Y0196666D01*
X0092333Y0197165D02*
X0059560Y0197165D01*
X0059061Y0197663D02*
X0092333Y0197663D01*
X0092333Y0198162D02*
X0058563Y0198162D01*
X0058064Y0198660D02*
X0092333Y0198660D01*
X0092333Y0199159D02*
X0057566Y0199159D01*
X0057067Y0199658D02*
X0092333Y0199658D01*
X0092333Y0200156D02*
X0056569Y0200156D01*
X0056070Y0200655D02*
X0092333Y0200655D01*
X0092333Y0201153D02*
X0055572Y0201153D01*
X0055073Y0201652D02*
X0092333Y0201652D01*
X0092333Y0202150D02*
X0054575Y0202150D01*
X0055560Y0202649D02*
X0092333Y0202649D01*
X0092333Y0203147D02*
X0056059Y0203147D01*
X0056557Y0203646D02*
X0092333Y0203646D01*
X0092333Y0204144D02*
X0057056Y0204144D01*
X0057554Y0204643D02*
X0092333Y0204643D01*
X0092333Y0205141D02*
X0057650Y0205141D01*
X0057650Y0205640D02*
X0092333Y0205640D01*
X0092333Y0206138D02*
X0057650Y0206138D01*
X0057650Y0206637D02*
X0092333Y0206637D01*
X0092333Y0207135D02*
X0057650Y0207135D01*
X0057650Y0207634D02*
X0092333Y0207634D01*
X0092333Y0208132D02*
X0057280Y0208132D01*
X0056781Y0208631D02*
X0092333Y0208631D01*
X0092333Y0209129D02*
X0056354Y0209129D01*
X0056853Y0209628D02*
X0069622Y0209628D01*
X0068429Y0210126D02*
X0057351Y0210126D01*
X0057850Y0210625D02*
X0067931Y0210625D01*
X0067432Y0211123D02*
X0058348Y0211123D01*
X0058847Y0211622D02*
X0067089Y0211622D01*
X0066883Y0212120D02*
X0059345Y0212120D01*
X0059844Y0212619D02*
X0066676Y0212619D01*
X0066530Y0213117D02*
X0060342Y0213117D01*
X0060841Y0213616D02*
X0066530Y0213616D01*
X0066530Y0214114D02*
X0061339Y0214114D01*
X0061838Y0214613D02*
X0066530Y0214613D01*
X0066690Y0215111D02*
X0062336Y0215111D01*
X0062835Y0215610D02*
X0066897Y0215610D01*
X0067103Y0216108D02*
X0063333Y0216108D01*
X0063832Y0216607D02*
X0067466Y0216607D01*
X0067964Y0217105D02*
X0064330Y0217105D01*
X0064829Y0217604D02*
X0068499Y0217604D01*
X0068327Y0218102D02*
X0065327Y0218102D01*
X0065826Y0218601D02*
X0067829Y0218601D01*
X0067330Y0219099D02*
X0066324Y0219099D01*
X0066725Y0219500D02*
X0066725Y0219500D01*
X0066823Y0219598D02*
X0067047Y0219598D01*
X0067750Y0225082D02*
X0068066Y0225082D01*
X0067750Y0225580D02*
X0068746Y0225580D01*
X0067750Y0226079D02*
X0069949Y0226079D01*
X0071909Y0226079D02*
X0092333Y0226079D01*
X0092333Y0226577D02*
X0067750Y0226577D01*
X0067750Y0227076D02*
X0092333Y0227076D01*
X0092333Y0227574D02*
X0067750Y0227574D01*
X0067750Y0228073D02*
X0092333Y0228073D01*
X0092333Y0228571D02*
X0067750Y0228571D01*
X0067750Y0229070D02*
X0092333Y0229070D01*
X0092333Y0229568D02*
X0067750Y0229568D01*
X0067750Y0230067D02*
X0092333Y0230067D01*
X0092333Y0230565D02*
X0067750Y0230565D01*
X0067750Y0231064D02*
X0092333Y0231064D01*
X0092333Y0231562D02*
X0067750Y0231562D01*
X0067750Y0232061D02*
X0092333Y0232061D01*
X0092333Y0232559D02*
X0067784Y0232559D01*
X0068283Y0233058D02*
X0092333Y0233058D01*
X0092333Y0233556D02*
X0072976Y0233556D01*
X0073735Y0234055D02*
X0092333Y0234055D01*
X0092333Y0234553D02*
X0074234Y0234553D01*
X0074689Y0235052D02*
X0092333Y0235052D01*
X0092333Y0235550D02*
X0074896Y0235550D01*
X0075102Y0236049D02*
X0092333Y0236049D01*
X0092333Y0236547D02*
X0075309Y0236547D01*
X0075329Y0237046D02*
X0092333Y0237046D01*
X0092333Y0237544D02*
X0075329Y0237544D01*
X0075329Y0238043D02*
X0092333Y0238043D01*
X0092333Y0238541D02*
X0075248Y0238541D01*
X0075041Y0239040D02*
X0092333Y0239040D01*
X0092333Y0239538D02*
X0074835Y0239538D01*
X0074585Y0240037D02*
X0092333Y0240037D01*
X0092333Y0240535D02*
X0074086Y0240535D01*
X0073588Y0241034D02*
X0092333Y0241034D01*
X0092333Y0241532D02*
X0073139Y0241532D01*
X0073838Y0242031D02*
X0092333Y0242031D01*
X0092333Y0242529D02*
X0074322Y0242529D01*
X0074684Y0243028D02*
X0092333Y0243028D01*
X0092333Y0243527D02*
X0074941Y0243527D01*
X0075126Y0244025D02*
X0092333Y0244025D01*
X0092333Y0244524D02*
X0075254Y0244524D01*
X0075329Y0245022D02*
X0092333Y0245022D01*
X0092333Y0245521D02*
X0071179Y0245521D01*
X0070679Y0245521D02*
X0064750Y0245521D01*
X0064750Y0246019D02*
X0066582Y0246019D01*
X0066684Y0246518D02*
X0064750Y0246518D01*
X0064750Y0247016D02*
X0066846Y0247016D01*
X0067097Y0247515D02*
X0064750Y0247515D01*
X0064750Y0248013D02*
X0067430Y0248013D01*
X0067874Y0248512D02*
X0064750Y0248512D01*
X0064750Y0249010D02*
X0068489Y0249010D01*
X0068417Y0249509D02*
X0064750Y0249509D01*
X0064750Y0250007D02*
X0067918Y0250007D01*
X0067420Y0250506D02*
X0064750Y0250506D01*
X0064750Y0251004D02*
X0067084Y0251004D01*
X0066878Y0251503D02*
X0064750Y0251503D01*
X0064750Y0252001D02*
X0066671Y0252001D01*
X0066530Y0252500D02*
X0064750Y0252500D01*
X0064727Y0252998D02*
X0066530Y0252998D01*
X0066530Y0253497D02*
X0064228Y0253497D01*
X0063730Y0253995D02*
X0066530Y0253995D01*
X0066695Y0254494D02*
X0063231Y0254494D01*
X0062733Y0254992D02*
X0066902Y0254992D01*
X0067108Y0255491D02*
X0062650Y0255491D01*
X0062650Y0255989D02*
X0067478Y0255989D01*
X0067976Y0256488D02*
X0062650Y0256488D01*
X0062650Y0256986D02*
X0068529Y0256986D01*
X0069732Y0257485D02*
X0062650Y0257485D01*
X0062429Y0257983D02*
X0092333Y0257983D01*
X0092333Y0257485D02*
X0072126Y0257485D01*
X0073330Y0256986D02*
X0092333Y0256986D01*
X0092333Y0256488D02*
X0073882Y0256488D01*
X0074380Y0255989D02*
X0092333Y0255989D01*
X0092333Y0255491D02*
X0074750Y0255491D01*
X0074957Y0254992D02*
X0092333Y0254992D01*
X0092333Y0254494D02*
X0075163Y0254494D01*
X0075329Y0253995D02*
X0092333Y0253995D01*
X0092333Y0253497D02*
X0075329Y0253497D01*
X0075329Y0252998D02*
X0092333Y0252998D01*
X0092333Y0252500D02*
X0075329Y0252500D01*
X0075187Y0252001D02*
X0092333Y0252001D01*
X0092333Y0251503D02*
X0074980Y0251503D01*
X0074774Y0251004D02*
X0092333Y0251004D01*
X0092333Y0250506D02*
X0074438Y0250506D01*
X0073940Y0250007D02*
X0092333Y0250007D01*
X0092333Y0249509D02*
X0073441Y0249509D01*
X0073369Y0249010D02*
X0092333Y0249010D01*
X0092333Y0248512D02*
X0073984Y0248512D01*
X0074428Y0248013D02*
X0092333Y0248013D01*
X0092333Y0247515D02*
X0074761Y0247515D01*
X0075012Y0247016D02*
X0092333Y0247016D01*
X0092333Y0246518D02*
X0075174Y0246518D01*
X0075277Y0246019D02*
X0092333Y0246019D01*
X0092333Y0258482D02*
X0061930Y0258482D01*
X0061432Y0258980D02*
X0092333Y0258980D01*
X0092333Y0259479D02*
X0060933Y0259479D01*
X0064750Y0245022D02*
X0066530Y0245022D01*
X0066605Y0244524D02*
X0064750Y0244524D01*
X0064750Y0244025D02*
X0066732Y0244025D01*
X0066918Y0243527D02*
X0064750Y0243527D01*
X0064750Y0243028D02*
X0067174Y0243028D01*
X0067536Y0242529D02*
X0064750Y0242529D01*
X0064750Y0242031D02*
X0068021Y0242031D01*
X0068720Y0241532D02*
X0064750Y0241532D01*
X0064750Y0241034D02*
X0068271Y0241034D01*
X0067772Y0240535D02*
X0064750Y0240535D01*
X0064750Y0240037D02*
X0067274Y0240037D01*
X0067024Y0239538D02*
X0064750Y0239538D01*
X0064750Y0239040D02*
X0066817Y0239040D01*
X0066611Y0238541D02*
X0064750Y0238541D01*
X0064750Y0238043D02*
X0066530Y0238043D01*
X0066530Y0237544D02*
X0064750Y0237544D01*
X0064750Y0237046D02*
X0066530Y0237046D01*
X0066549Y0236547D02*
X0064750Y0236547D01*
X0064750Y0236049D02*
X0066324Y0236049D01*
X0065825Y0235550D02*
X0064750Y0235550D01*
X0064750Y0235052D02*
X0065327Y0235052D01*
X0064828Y0234553D02*
X0064750Y0234553D01*
X0068781Y0233556D02*
X0068882Y0233556D01*
X0073113Y0225580D02*
X0092333Y0225580D01*
X0092333Y0225082D02*
X0073792Y0225082D01*
X0074290Y0224583D02*
X0092333Y0224583D01*
X0092333Y0224085D02*
X0074713Y0224085D01*
X0074919Y0223586D02*
X0092333Y0223586D01*
X0092333Y0223088D02*
X0075126Y0223088D01*
X0075329Y0222589D02*
X0092333Y0222589D01*
X0092333Y0222091D02*
X0075329Y0222091D01*
X0075329Y0221592D02*
X0092333Y0221592D01*
X0092333Y0221093D02*
X0075329Y0221093D01*
X0075224Y0220595D02*
X0092333Y0220595D01*
X0092333Y0220096D02*
X0075018Y0220096D01*
X0074811Y0219598D02*
X0092333Y0219598D01*
X0092333Y0219099D02*
X0074528Y0219099D01*
X0074030Y0218601D02*
X0092333Y0218601D01*
X0092333Y0218102D02*
X0073531Y0218102D01*
X0073359Y0217604D02*
X0092333Y0217604D01*
X0092333Y0217105D02*
X0073894Y0217105D01*
X0074393Y0216607D02*
X0092333Y0216607D01*
X0092333Y0216108D02*
X0074755Y0216108D01*
X0074962Y0215610D02*
X0092333Y0215610D01*
X0092333Y0215111D02*
X0075168Y0215111D01*
X0075329Y0214613D02*
X0092333Y0214613D01*
X0092333Y0214114D02*
X0075329Y0214114D01*
X0075329Y0213616D02*
X0092333Y0213616D01*
X0092333Y0213117D02*
X0075329Y0213117D01*
X0075182Y0212619D02*
X0092333Y0212619D01*
X0092333Y0212120D02*
X0074975Y0212120D01*
X0074769Y0211622D02*
X0092333Y0211622D01*
X0092333Y0211123D02*
X0074426Y0211123D01*
X0073927Y0210625D02*
X0092333Y0210625D01*
X0092333Y0210126D02*
X0073429Y0210126D01*
X0072236Y0209628D02*
X0092333Y0209628D01*
X0073129Y0165260D02*
X0068485Y0165260D01*
X0068984Y0165759D02*
X0071929Y0165759D01*
X0071431Y0166257D02*
X0069482Y0166257D01*
X0069750Y0166756D02*
X0070932Y0166756D01*
X0070710Y0167254D02*
X0069750Y0167254D01*
X0069750Y0167753D02*
X0070504Y0167753D01*
X0070350Y0168251D02*
X0069750Y0168251D01*
X0069750Y0168750D02*
X0070350Y0168750D01*
X0070350Y0169248D02*
X0069750Y0169248D01*
X0069750Y0169747D02*
X0070350Y0169747D01*
X0070350Y0170245D02*
X0069750Y0170245D01*
X0069750Y0170744D02*
X0070350Y0170744D01*
X0070350Y0171242D02*
X0069750Y0171242D01*
X0069750Y0171741D02*
X0070350Y0171741D01*
X0070350Y0172239D02*
X0069750Y0172239D01*
X0069963Y0172738D02*
X0070350Y0172738D01*
X0062250Y0177224D02*
X0054908Y0177224D01*
X0056086Y0176726D02*
X0061914Y0176726D01*
X0061416Y0176227D02*
X0056584Y0176227D01*
X0057083Y0175729D02*
X0060917Y0175729D01*
X0060704Y0175230D02*
X0057296Y0175230D01*
X0057503Y0174732D02*
X0060497Y0174732D01*
X0060350Y0174233D02*
X0057650Y0174233D01*
X0057650Y0173735D02*
X0060350Y0173735D01*
X0060350Y0173236D02*
X0057650Y0173236D01*
X0057650Y0172738D02*
X0060350Y0172738D01*
X0060350Y0172239D02*
X0057650Y0172239D01*
X0057650Y0171741D02*
X0060350Y0171741D01*
X0060350Y0171242D02*
X0057650Y0171242D01*
X0057650Y0170744D02*
X0060350Y0170744D01*
X0060350Y0170245D02*
X0057650Y0170245D01*
X0057978Y0169747D02*
X0060350Y0169747D01*
X0060350Y0169248D02*
X0058477Y0169248D01*
X0058975Y0168750D02*
X0060350Y0168750D01*
X0060350Y0168251D02*
X0059474Y0168251D01*
X0059972Y0167753D02*
X0060504Y0167753D01*
X0060471Y0167254D02*
X0060710Y0167254D01*
X0057016Y0165759D02*
X0056071Y0165759D01*
X0051914Y0176726D02*
X0049999Y0176726D01*
X0050497Y0176227D02*
X0051416Y0176227D01*
X0050034Y0171741D02*
X0047650Y0171741D01*
X0047650Y0172239D02*
X0049536Y0172239D01*
X0049037Y0172738D02*
X0047650Y0172738D01*
X0047650Y0173236D02*
X0048539Y0173236D01*
X0048040Y0173735D02*
X0047650Y0173735D01*
X0049500Y0177224D02*
X0053092Y0177224D01*
X0052488Y0182600D02*
X0055512Y0182600D01*
X0057650Y0184738D01*
X0057650Y0187762D01*
X0055512Y0189900D01*
X0052488Y0189900D01*
X0050350Y0187762D01*
X0050350Y0184738D01*
X0052488Y0182600D01*
X0052380Y0182708D02*
X0045620Y0182708D01*
X0046119Y0183207D02*
X0051881Y0183207D01*
X0051383Y0183705D02*
X0046617Y0183705D01*
X0047116Y0184204D02*
X0050884Y0184204D01*
X0050386Y0184702D02*
X0047614Y0184702D01*
X0047650Y0185201D02*
X0050350Y0185201D01*
X0050350Y0185699D02*
X0047650Y0185699D01*
X0047650Y0186198D02*
X0050350Y0186198D01*
X0050350Y0186696D02*
X0047650Y0186696D01*
X0047650Y0187195D02*
X0050350Y0187195D01*
X0050350Y0187693D02*
X0047650Y0187693D01*
X0047220Y0188192D02*
X0050780Y0188192D01*
X0051278Y0188690D02*
X0046722Y0188690D01*
X0046223Y0189189D02*
X0051777Y0189189D01*
X0052275Y0189687D02*
X0045725Y0189687D01*
X0042275Y0189687D02*
X0025725Y0189687D01*
X0026223Y0189189D02*
X0041777Y0189189D01*
X0041278Y0188690D02*
X0026722Y0188690D01*
X0027220Y0188192D02*
X0040780Y0188192D01*
X0040350Y0187693D02*
X0039032Y0187693D01*
X0039530Y0187195D02*
X0040350Y0187195D01*
X0040350Y0186696D02*
X0040029Y0186696D01*
X0038568Y0183207D02*
X0026119Y0183207D01*
X0026617Y0183705D02*
X0038070Y0183705D01*
X0037571Y0184204D02*
X0027116Y0184204D01*
X0025620Y0182708D02*
X0039067Y0182708D01*
X0043750Y0170245D02*
X0044250Y0170245D01*
X0044250Y0169747D02*
X0043750Y0169747D01*
X0043750Y0169248D02*
X0044250Y0169248D01*
X0044250Y0168750D02*
X0043750Y0168750D01*
X0043750Y0168251D02*
X0044250Y0168251D01*
X0044250Y0167753D02*
X0043750Y0167753D01*
X0043750Y0167254D02*
X0044250Y0167254D01*
X0044250Y0166756D02*
X0043750Y0166756D01*
X0043750Y0166257D02*
X0044250Y0166257D01*
X0044250Y0165759D02*
X0043750Y0165759D01*
X0043750Y0165260D02*
X0044250Y0165260D01*
X0049002Y0177723D02*
X0062250Y0177723D01*
X0062250Y0178222D02*
X0048503Y0178222D01*
X0048005Y0178720D02*
X0062250Y0178720D01*
X0062250Y0179219D02*
X0047506Y0179219D01*
X0047008Y0179717D02*
X0062250Y0179717D01*
X0062250Y0180216D02*
X0046509Y0180216D01*
X0046011Y0180714D02*
X0062250Y0180714D01*
X0062250Y0181213D02*
X0045512Y0181213D01*
X0045014Y0181711D02*
X0062250Y0181711D01*
X0062250Y0182210D02*
X0044515Y0182210D01*
X0055620Y0182708D02*
X0062250Y0182708D01*
X0062250Y0183207D02*
X0056119Y0183207D01*
X0056617Y0183705D02*
X0062250Y0183705D01*
X0062250Y0184204D02*
X0057116Y0184204D01*
X0057614Y0184702D02*
X0062250Y0184702D01*
X0062250Y0185201D02*
X0057650Y0185201D01*
X0057650Y0185699D02*
X0062250Y0185699D01*
X0062250Y0186198D02*
X0057650Y0186198D01*
X0057650Y0186696D02*
X0062079Y0186696D01*
X0061580Y0187195D02*
X0057650Y0187195D01*
X0057650Y0187693D02*
X0061082Y0187693D01*
X0060583Y0188192D02*
X0057220Y0188192D01*
X0056722Y0188690D02*
X0060085Y0188690D01*
X0059586Y0189189D02*
X0056223Y0189189D01*
X0055725Y0189687D02*
X0059088Y0189687D01*
X0046250Y0219598D02*
X0045814Y0219598D01*
X0044250Y0219598D02*
X0043750Y0219598D01*
X0043750Y0219099D02*
X0044250Y0219099D01*
X0044250Y0218601D02*
X0043750Y0218601D01*
X0043750Y0218102D02*
X0044250Y0218102D01*
X0044250Y0217604D02*
X0043750Y0217604D01*
X0043750Y0217105D02*
X0044250Y0217105D01*
X0044250Y0216607D02*
X0043750Y0216607D01*
X0026315Y0209628D02*
X0006218Y0209628D01*
X0006218Y0210126D02*
X0025122Y0210126D01*
X0024624Y0210625D02*
X0006218Y0210625D01*
X0006218Y0211123D02*
X0024125Y0211123D01*
X0023782Y0211622D02*
X0006218Y0211622D01*
X0006218Y0212120D02*
X0023576Y0212120D01*
X0023369Y0212619D02*
X0006218Y0212619D01*
X0006218Y0213117D02*
X0023222Y0213117D01*
X0023222Y0213616D02*
X0006218Y0213616D01*
X0006218Y0214114D02*
X0023222Y0214114D01*
X0023222Y0214613D02*
X0006218Y0214613D01*
X0006218Y0215111D02*
X0023383Y0215111D01*
X0023590Y0215610D02*
X0006218Y0215610D01*
X0006218Y0216108D02*
X0023796Y0216108D01*
X0024159Y0216607D02*
X0006218Y0216607D01*
X0006218Y0217105D02*
X0024657Y0217105D01*
X0025192Y0217604D02*
X0006218Y0217604D01*
X0006218Y0218102D02*
X0025120Y0218102D01*
X0024522Y0218601D02*
X0006218Y0218601D01*
X0006218Y0219099D02*
X0024090Y0219099D01*
X0023767Y0219598D02*
X0006218Y0219598D01*
X0006218Y0220096D02*
X0023524Y0220096D01*
X0023362Y0220595D02*
X0006218Y0220595D01*
X0006218Y0221093D02*
X0023267Y0221093D01*
X0022275Y0189687D02*
X0015725Y0189687D01*
X0016223Y0189189D02*
X0021777Y0189189D01*
X0021278Y0188690D02*
X0016722Y0188690D01*
X0017220Y0188192D02*
X0020780Y0188192D01*
X0020350Y0187693D02*
X0017650Y0187693D01*
X0017650Y0187195D02*
X0020350Y0187195D01*
X0020350Y0186696D02*
X0017650Y0186696D01*
X0017650Y0186000D02*
X0014250Y0186000D01*
X0014250Y0182600D01*
X0015512Y0182600D01*
X0017650Y0184738D01*
X0017650Y0186000D01*
X0017650Y0185699D02*
X0020350Y0185699D01*
X0020350Y0185201D02*
X0017650Y0185201D01*
X0017614Y0184702D02*
X0020386Y0184702D01*
X0020884Y0184204D02*
X0017116Y0184204D01*
X0016617Y0183705D02*
X0021383Y0183705D01*
X0021881Y0183207D02*
X0016119Y0183207D01*
X0015620Y0182708D02*
X0022380Y0182708D01*
X0020350Y0186198D02*
X0014250Y0186198D01*
X0014250Y0186696D02*
X0013750Y0186696D01*
X0013750Y0186198D02*
X0006218Y0186198D01*
X0013750Y0185699D02*
X0014250Y0185699D01*
X0014250Y0185201D02*
X0013750Y0185201D01*
X0013750Y0184702D02*
X0014250Y0184702D01*
X0014250Y0184204D02*
X0013750Y0184204D01*
X0013750Y0183705D02*
X0014250Y0183705D01*
X0014250Y0183207D02*
X0013750Y0183207D01*
X0013750Y0182708D02*
X0014250Y0182708D01*
X0014250Y0187195D02*
X0013750Y0187195D01*
X0013750Y0187693D02*
X0014250Y0187693D01*
X0014250Y0188192D02*
X0013750Y0188192D01*
X0013750Y0188690D02*
X0014250Y0188690D01*
X0014250Y0189189D02*
X0013750Y0189189D01*
X0013750Y0189687D02*
X0014250Y0189687D01*
X0014908Y0177224D02*
X0023092Y0177224D01*
X0021914Y0176726D02*
X0016086Y0176726D01*
X0016584Y0176227D02*
X0021416Y0176227D01*
X0020917Y0175729D02*
X0017083Y0175729D01*
X0017296Y0175230D02*
X0020704Y0175230D01*
X0020497Y0174732D02*
X0017503Y0174732D01*
X0017650Y0174233D02*
X0020350Y0174233D01*
X0020350Y0173735D02*
X0017650Y0173735D01*
X0017650Y0173236D02*
X0020350Y0173236D01*
X0020350Y0172738D02*
X0017650Y0172738D01*
X0017650Y0172239D02*
X0020350Y0172239D01*
X0020350Y0171741D02*
X0017650Y0171741D01*
X0017650Y0171242D02*
X0020350Y0171242D01*
X0020350Y0170744D02*
X0017650Y0170744D01*
X0017650Y0170245D02*
X0020350Y0170245D01*
X0020350Y0169747D02*
X0017650Y0169747D01*
X0017650Y0169248D02*
X0020350Y0169248D01*
X0020350Y0168750D02*
X0017650Y0168750D01*
X0017650Y0168251D02*
X0020350Y0168251D01*
X0020504Y0167753D02*
X0017496Y0167753D01*
X0017290Y0167254D02*
X0020710Y0167254D01*
X0020932Y0166756D02*
X0017068Y0166756D01*
X0016569Y0166257D02*
X0021431Y0166257D01*
X0021929Y0165759D02*
X0016071Y0165759D01*
X0012104Y0146815D02*
X0006218Y0146815D01*
X0006218Y0146317D02*
X0011505Y0146317D01*
X0011006Y0145818D02*
X0006218Y0145818D01*
X0006218Y0145320D02*
X0010741Y0145320D01*
X0010534Y0144821D02*
X0006218Y0144821D01*
X0006218Y0144323D02*
X0010350Y0144323D01*
X0010350Y0143824D02*
X0006218Y0143824D01*
X0006218Y0143326D02*
X0010350Y0143326D01*
X0010350Y0142827D02*
X0006218Y0142827D01*
X0006218Y0142329D02*
X0010350Y0142329D01*
X0010350Y0141830D02*
X0006218Y0141830D01*
X0006218Y0141332D02*
X0010350Y0141332D01*
X0010350Y0140833D02*
X0006218Y0140833D01*
X0006218Y0140335D02*
X0010350Y0140335D01*
X0010350Y0139836D02*
X0006218Y0139836D01*
X0006218Y0139338D02*
X0010350Y0139338D01*
X0010350Y0138839D02*
X0006218Y0138839D01*
X0006218Y0138341D02*
X0010350Y0138341D01*
X0010467Y0137842D02*
X0006218Y0137842D01*
X0006218Y0137344D02*
X0010673Y0137344D01*
X0010880Y0136845D02*
X0006218Y0136845D01*
X0006218Y0136347D02*
X0011342Y0136347D01*
X0011840Y0135848D02*
X0006218Y0135848D01*
X0006218Y0135350D02*
X0012250Y0135350D01*
X0012250Y0134851D02*
X0006218Y0134851D01*
X0006218Y0134353D02*
X0012250Y0134353D01*
X0012250Y0133854D02*
X0006218Y0133854D01*
X0006218Y0133355D02*
X0012250Y0133355D01*
X0012250Y0132857D02*
X0006218Y0132857D01*
X0006218Y0132358D02*
X0012250Y0132358D01*
X0012250Y0131860D02*
X0006218Y0131860D01*
X0006218Y0131361D02*
X0012250Y0131361D01*
X0012250Y0130863D02*
X0006218Y0130863D01*
X0006218Y0130364D02*
X0012250Y0130364D01*
X0012250Y0129866D02*
X0006218Y0129866D01*
X0006218Y0129367D02*
X0012250Y0129367D01*
X0012250Y0128869D02*
X0006218Y0128869D01*
X0006218Y0128370D02*
X0012250Y0128370D01*
X0012250Y0127872D02*
X0006218Y0127872D01*
X0006218Y0127373D02*
X0012250Y0127373D01*
X0012250Y0126875D02*
X0006218Y0126875D01*
X0006218Y0126376D02*
X0012250Y0126376D01*
X0012250Y0125878D02*
X0006218Y0125878D01*
X0006218Y0125379D02*
X0012250Y0125379D01*
X0012250Y0124881D02*
X0006218Y0124881D01*
X0006218Y0124382D02*
X0012250Y0124382D01*
X0012250Y0123884D02*
X0006218Y0123884D01*
X0006218Y0123385D02*
X0012250Y0123385D01*
X0012250Y0122887D02*
X0006218Y0122887D01*
X0006218Y0122388D02*
X0012250Y0122388D01*
X0012250Y0121890D02*
X0006218Y0121890D01*
X0006218Y0121391D02*
X0012384Y0121391D01*
X0012882Y0120893D02*
X0006218Y0120893D01*
X0006218Y0120394D02*
X0013381Y0120394D01*
X0012484Y0119896D02*
X0006218Y0119896D01*
X0006218Y0119397D02*
X0011985Y0119397D01*
X0011487Y0118899D02*
X0006218Y0118899D01*
X0006218Y0118400D02*
X0010988Y0118400D01*
X0010490Y0117902D02*
X0006218Y0117902D01*
X0006218Y0117403D02*
X0010350Y0117403D01*
X0010350Y0116905D02*
X0006218Y0116905D01*
X0006218Y0116406D02*
X0010350Y0116406D01*
X0010350Y0115908D02*
X0006218Y0115908D01*
X0006218Y0115409D02*
X0010350Y0115409D01*
X0010350Y0114911D02*
X0006218Y0114911D01*
X0006218Y0114412D02*
X0010676Y0114412D01*
X0011175Y0113914D02*
X0006218Y0113914D01*
X0006218Y0113415D02*
X0011673Y0113415D01*
X0012172Y0112917D02*
X0006218Y0112917D01*
X0006218Y0112418D02*
X0015357Y0112418D01*
X0015856Y0111920D02*
X0006218Y0111920D01*
X0006218Y0111421D02*
X0016250Y0111421D01*
X0016250Y0110922D02*
X0006218Y0110922D01*
X0006218Y0110424D02*
X0016250Y0110424D01*
X0016250Y0109925D02*
X0006218Y0109925D01*
X0006218Y0109427D02*
X0012015Y0109427D01*
X0011517Y0108928D02*
X0006218Y0108928D01*
X0006218Y0108430D02*
X0011018Y0108430D01*
X0010520Y0107931D02*
X0006218Y0107931D01*
X0006218Y0107433D02*
X0010350Y0107433D01*
X0010350Y0106934D02*
X0006218Y0106934D01*
X0006218Y0106436D02*
X0013750Y0106436D01*
X0013750Y0106000D02*
X0010350Y0106000D01*
X0010350Y0104738D01*
X0012488Y0102600D01*
X0013750Y0102600D01*
X0013750Y0106000D01*
X0013750Y0105937D02*
X0014250Y0105937D01*
X0014250Y0105439D02*
X0013750Y0105439D01*
X0013750Y0104940D02*
X0014250Y0104940D01*
X0014250Y0104442D02*
X0013750Y0104442D01*
X0013750Y0103943D02*
X0014250Y0103943D01*
X0014250Y0103445D02*
X0013750Y0103445D01*
X0013750Y0102946D02*
X0014250Y0102946D01*
X0015858Y0102946D02*
X0016250Y0102946D01*
X0016250Y0102448D02*
X0006218Y0102448D01*
X0006218Y0102946D02*
X0012142Y0102946D01*
X0011643Y0103445D02*
X0006218Y0103445D01*
X0006218Y0103943D02*
X0011145Y0103943D01*
X0010646Y0104442D02*
X0006218Y0104442D01*
X0006218Y0104940D02*
X0010350Y0104940D01*
X0010350Y0105439D02*
X0006218Y0105439D01*
X0006218Y0105937D02*
X0010350Y0105937D01*
X0013750Y0106934D02*
X0014250Y0106934D01*
X0014250Y0107433D02*
X0013750Y0107433D01*
X0013750Y0107931D02*
X0014250Y0107931D01*
X0014250Y0108430D02*
X0013750Y0108430D01*
X0013750Y0108928D02*
X0014250Y0108928D01*
X0014250Y0109427D02*
X0013750Y0109427D01*
X0015985Y0109427D02*
X0016250Y0109427D01*
X0017814Y0114911D02*
X0018865Y0114911D01*
X0019363Y0114412D02*
X0018313Y0114412D01*
X0018811Y0113914D02*
X0019862Y0113914D01*
X0020360Y0113415D02*
X0019310Y0113415D01*
X0019750Y0112917D02*
X0020859Y0112917D01*
X0021357Y0112418D02*
X0019750Y0112418D01*
X0019750Y0111920D02*
X0021856Y0111920D01*
X0022250Y0111421D02*
X0019750Y0111421D01*
X0019750Y0110922D02*
X0022250Y0110922D01*
X0022250Y0110424D02*
X0019750Y0110424D01*
X0019750Y0109925D02*
X0022250Y0109925D01*
X0022250Y0109427D02*
X0019750Y0109427D01*
X0019750Y0108928D02*
X0022250Y0108928D01*
X0022250Y0108430D02*
X0019750Y0108430D01*
X0019750Y0107931D02*
X0022250Y0107931D01*
X0022250Y0107433D02*
X0019750Y0107433D01*
X0019750Y0106934D02*
X0022250Y0106934D01*
X0022250Y0106436D02*
X0019750Y0106436D01*
X0019750Y0105937D02*
X0022250Y0105937D01*
X0022250Y0105439D02*
X0019750Y0105439D01*
X0019750Y0104940D02*
X0022250Y0104940D01*
X0022250Y0104442D02*
X0019750Y0104442D01*
X0019750Y0103943D02*
X0022250Y0103943D01*
X0022250Y0103445D02*
X0019750Y0103445D01*
X0019750Y0102946D02*
X0022250Y0102946D01*
X0022250Y0102448D02*
X0019750Y0102448D01*
X0019750Y0101949D02*
X0022250Y0101949D01*
X0021639Y0101451D02*
X0019750Y0101451D01*
X0019750Y0100952D02*
X0021140Y0100952D01*
X0020796Y0100454D02*
X0019750Y0100454D01*
X0019750Y0099955D02*
X0020590Y0099955D01*
X0020383Y0099457D02*
X0019750Y0099457D01*
X0019750Y0098958D02*
X0020350Y0098958D01*
X0020350Y0098460D02*
X0019750Y0098460D01*
X0019750Y0097961D02*
X0020350Y0097961D01*
X0020350Y0097463D02*
X0019750Y0097463D01*
X0019750Y0096964D02*
X0020350Y0096964D01*
X0020350Y0096466D02*
X0019750Y0096466D01*
X0019750Y0095967D02*
X0020350Y0095967D01*
X0020350Y0095469D02*
X0019750Y0095469D01*
X0019750Y0094970D02*
X0020350Y0094970D01*
X0020350Y0094472D02*
X0019750Y0094472D01*
X0019750Y0093973D02*
X0020350Y0093973D01*
X0020350Y0093475D02*
X0019750Y0093475D01*
X0019750Y0092976D02*
X0020411Y0092976D01*
X0020618Y0092478D02*
X0019750Y0092478D01*
X0019750Y0091979D02*
X0020824Y0091979D01*
X0021208Y0091481D02*
X0019750Y0091481D01*
X0019750Y0090982D02*
X0021706Y0090982D01*
X0022589Y0090484D02*
X0019750Y0090484D01*
X0019750Y0089985D02*
X0066250Y0089985D01*
X0066250Y0089487D02*
X0019750Y0089487D01*
X0019750Y0088988D02*
X0066250Y0088988D01*
X0066250Y0088489D02*
X0019750Y0088489D01*
X0019750Y0087991D02*
X0066250Y0087991D01*
X0066250Y0087492D02*
X0019750Y0087492D01*
X0019750Y0086994D02*
X0066250Y0086994D01*
X0066250Y0086495D02*
X0019750Y0086495D01*
X0019750Y0085997D02*
X0066250Y0085997D01*
X0066250Y0085498D02*
X0019750Y0085498D01*
X0019750Y0085000D02*
X0066250Y0085000D01*
X0066250Y0084501D02*
X0065910Y0084501D01*
X0066250Y0090484D02*
X0065411Y0090484D01*
X0064250Y0090484D02*
X0063750Y0090484D01*
X0063750Y0090200D02*
X0063750Y0096000D01*
X0060350Y0096000D01*
X0060350Y0093490D01*
X0060490Y0092785D01*
X0060765Y0092121D01*
X0061165Y0091523D01*
X0061673Y0091015D01*
X0062271Y0090615D01*
X0062935Y0090340D01*
X0063640Y0090200D01*
X0063750Y0090200D01*
X0063750Y0090982D02*
X0064250Y0090982D01*
X0064250Y0091481D02*
X0063750Y0091481D01*
X0063750Y0091979D02*
X0064250Y0091979D01*
X0064250Y0092478D02*
X0063750Y0092478D01*
X0063750Y0092976D02*
X0064250Y0092976D01*
X0064250Y0093475D02*
X0063750Y0093475D01*
X0063750Y0093973D02*
X0064250Y0093973D01*
X0064250Y0094472D02*
X0063750Y0094472D01*
X0063750Y0094970D02*
X0064250Y0094970D01*
X0064250Y0095469D02*
X0063750Y0095469D01*
X0063750Y0095967D02*
X0064250Y0095967D01*
X0063750Y0096466D02*
X0057650Y0096466D01*
X0057650Y0096964D02*
X0060350Y0096964D01*
X0060350Y0097463D02*
X0057650Y0097463D01*
X0057650Y0097961D02*
X0060350Y0097961D01*
X0060350Y0098460D02*
X0057650Y0098460D01*
X0057650Y0098958D02*
X0060350Y0098958D01*
X0060439Y0099457D02*
X0057617Y0099457D01*
X0057410Y0099955D02*
X0060590Y0099955D01*
X0060815Y0100454D02*
X0057204Y0100454D01*
X0056860Y0100952D02*
X0061149Y0100952D01*
X0061639Y0101451D02*
X0056361Y0101451D01*
X0055573Y0101949D02*
X0062427Y0101949D01*
X0063750Y0101949D02*
X0064250Y0101949D01*
X0064250Y0101451D02*
X0063750Y0101451D01*
X0063750Y0100952D02*
X0064250Y0100952D01*
X0064250Y0100454D02*
X0063750Y0100454D01*
X0063750Y0099955D02*
X0064250Y0099955D01*
X0064250Y0099457D02*
X0063750Y0099457D01*
X0063750Y0098958D02*
X0064250Y0098958D01*
X0064250Y0098460D02*
X0063750Y0098460D01*
X0063750Y0097961D02*
X0064250Y0097961D01*
X0064250Y0097463D02*
X0063750Y0097463D01*
X0063750Y0096964D02*
X0064250Y0096964D01*
X0065573Y0101949D02*
X0066250Y0101949D01*
X0062589Y0090484D02*
X0055411Y0090484D01*
X0056294Y0090982D02*
X0061722Y0090982D01*
X0061208Y0091481D02*
X0056792Y0091481D01*
X0057176Y0091979D02*
X0060860Y0091979D01*
X0060618Y0092478D02*
X0057382Y0092478D01*
X0057589Y0092976D02*
X0060452Y0092976D01*
X0060353Y0093475D02*
X0057650Y0093475D01*
X0057650Y0093973D02*
X0060350Y0093973D01*
X0060350Y0094472D02*
X0057650Y0094472D01*
X0057650Y0094970D02*
X0060350Y0094970D01*
X0060350Y0095469D02*
X0057650Y0095469D01*
X0057650Y0095967D02*
X0060350Y0095967D01*
X0062805Y0120394D02*
X0055195Y0120394D01*
X0054250Y0120394D02*
X0053750Y0120394D01*
X0053750Y0120893D02*
X0054250Y0120893D01*
X0054250Y0121391D02*
X0053750Y0121391D01*
X0053750Y0121890D02*
X0054250Y0121890D01*
X0054250Y0122388D02*
X0053750Y0122388D01*
X0053750Y0122887D02*
X0054250Y0122887D01*
X0054250Y0123385D02*
X0053750Y0123385D01*
X0053750Y0123884D02*
X0054250Y0123884D01*
X0054250Y0124382D02*
X0053750Y0124382D01*
X0053750Y0124881D02*
X0054250Y0124881D01*
X0054250Y0125379D02*
X0053750Y0125379D01*
X0053750Y0126875D02*
X0054250Y0126875D01*
X0054250Y0127373D02*
X0053750Y0127373D01*
X0053750Y0127872D02*
X0054250Y0127872D01*
X0054250Y0128370D02*
X0053750Y0128370D01*
X0053750Y0128869D02*
X0054250Y0128869D01*
X0054250Y0129367D02*
X0053750Y0129367D01*
X0053750Y0129866D02*
X0054250Y0129866D01*
X0054250Y0130364D02*
X0053750Y0130364D01*
X0053750Y0130863D02*
X0054250Y0130863D01*
X0054250Y0131361D02*
X0053750Y0131361D01*
X0053750Y0131860D02*
X0054250Y0131860D01*
X0051840Y0135848D02*
X0046077Y0135848D01*
X0046658Y0136347D02*
X0051342Y0136347D01*
X0050880Y0136845D02*
X0047050Y0136845D01*
X0047327Y0137344D02*
X0050673Y0137344D01*
X0050467Y0137842D02*
X0047521Y0137842D01*
X0047620Y0138341D02*
X0050350Y0138341D01*
X0050350Y0138839D02*
X0047650Y0138839D01*
X0047650Y0139338D02*
X0050350Y0139338D01*
X0050350Y0139836D02*
X0047650Y0139836D01*
X0047650Y0140335D02*
X0050350Y0140335D01*
X0050350Y0140833D02*
X0047650Y0140833D01*
X0042913Y0135350D02*
X0035087Y0135350D01*
X0034250Y0135350D02*
X0033750Y0135350D01*
X0033750Y0135848D02*
X0034250Y0135848D01*
X0034250Y0136347D02*
X0033750Y0136347D01*
X0033750Y0136845D02*
X0034250Y0136845D01*
X0034250Y0137344D02*
X0033750Y0137344D01*
X0033750Y0137842D02*
X0034250Y0137842D01*
X0034250Y0138341D02*
X0033750Y0138341D01*
X0033750Y0138839D02*
X0034250Y0138839D01*
X0034250Y0139338D02*
X0033750Y0139338D01*
X0033750Y0139836D02*
X0034250Y0139836D01*
X0034250Y0140335D02*
X0033750Y0140335D01*
X0033750Y0140833D02*
X0034250Y0140833D01*
X0034250Y0142329D02*
X0033750Y0142329D01*
X0033750Y0142827D02*
X0034250Y0142827D01*
X0034250Y0143326D02*
X0033750Y0143326D01*
X0033750Y0143824D02*
X0034250Y0143824D01*
X0034250Y0144323D02*
X0033750Y0144323D01*
X0033750Y0144821D02*
X0034250Y0144821D01*
X0034250Y0145320D02*
X0033750Y0145320D01*
X0033750Y0145818D02*
X0034250Y0145818D01*
X0034250Y0146317D02*
X0033750Y0146317D01*
X0033750Y0146815D02*
X0034250Y0146815D01*
X0035833Y0146815D02*
X0042167Y0146815D01*
X0041505Y0146317D02*
X0036495Y0146317D01*
X0036941Y0145818D02*
X0041059Y0145818D01*
X0040741Y0145320D02*
X0037259Y0145320D01*
X0037466Y0144821D02*
X0040534Y0144821D01*
X0040412Y0144323D02*
X0037588Y0144323D01*
X0037650Y0143824D02*
X0040350Y0143824D01*
X0040350Y0143326D02*
X0037650Y0143326D01*
X0037650Y0142827D02*
X0040350Y0142827D01*
X0040350Y0142329D02*
X0037650Y0142329D01*
X0037650Y0141830D02*
X0040350Y0141830D01*
X0040350Y0140833D02*
X0037650Y0140833D01*
X0037650Y0140335D02*
X0040350Y0140335D01*
X0040350Y0139836D02*
X0037650Y0139836D01*
X0037650Y0139338D02*
X0040350Y0139338D01*
X0040350Y0138839D02*
X0037650Y0138839D01*
X0037620Y0138341D02*
X0040380Y0138341D01*
X0040479Y0137842D02*
X0037521Y0137842D01*
X0037327Y0137344D02*
X0040673Y0137344D01*
X0040950Y0136845D02*
X0037050Y0136845D01*
X0036658Y0136347D02*
X0041342Y0136347D01*
X0041923Y0135848D02*
X0036077Y0135848D01*
X0035065Y0132160D02*
X0034359Y0132300D01*
X0034250Y0132300D01*
X0034250Y0126500D01*
X0037650Y0126500D01*
X0037650Y0129009D01*
X0037510Y0129715D01*
X0037235Y0130379D01*
X0036835Y0130977D01*
X0036327Y0131485D01*
X0035729Y0131885D01*
X0035065Y0132160D01*
X0035766Y0131860D02*
X0042212Y0131860D01*
X0041550Y0131361D02*
X0036450Y0131361D01*
X0036911Y0130863D02*
X0041051Y0130863D01*
X0040759Y0130364D02*
X0037241Y0130364D01*
X0037447Y0129866D02*
X0040553Y0129866D01*
X0040350Y0129367D02*
X0037579Y0129367D01*
X0037650Y0128869D02*
X0040350Y0128869D01*
X0040350Y0128370D02*
X0037650Y0128370D01*
X0037650Y0127872D02*
X0040350Y0127872D01*
X0040350Y0127373D02*
X0037650Y0127373D01*
X0037650Y0126875D02*
X0040350Y0126875D01*
X0040350Y0126376D02*
X0034250Y0126376D01*
X0034250Y0126500D02*
X0034250Y0126000D01*
X0037650Y0126000D01*
X0037650Y0123490D01*
X0037510Y0122785D01*
X0037235Y0122121D01*
X0036835Y0121523D01*
X0036327Y0121015D01*
X0035729Y0120615D01*
X0035065Y0120340D01*
X0034359Y0120200D01*
X0034250Y0120200D01*
X0034250Y0126000D01*
X0033750Y0126000D01*
X0033750Y0120200D01*
X0033640Y0120200D01*
X0032935Y0120340D01*
X0032271Y0120615D01*
X0031673Y0121015D01*
X0031165Y0121523D01*
X0030765Y0122121D01*
X0030490Y0122785D01*
X0030350Y0123490D01*
X0030350Y0126000D01*
X0033750Y0126000D01*
X0033750Y0126500D01*
X0033750Y0132300D01*
X0033640Y0132300D01*
X0032935Y0132160D01*
X0032271Y0131885D01*
X0031673Y0131485D01*
X0031165Y0130977D01*
X0030765Y0130379D01*
X0030490Y0129715D01*
X0030350Y0129009D01*
X0030350Y0126500D01*
X0033750Y0126500D01*
X0034250Y0126500D01*
X0034250Y0126875D02*
X0033750Y0126875D01*
X0033750Y0127373D02*
X0034250Y0127373D01*
X0034250Y0127872D02*
X0033750Y0127872D01*
X0033750Y0128370D02*
X0034250Y0128370D01*
X0034250Y0128869D02*
X0033750Y0128869D01*
X0033750Y0129367D02*
X0034250Y0129367D01*
X0034250Y0129866D02*
X0033750Y0129866D01*
X0033750Y0130364D02*
X0034250Y0130364D01*
X0034250Y0130863D02*
X0033750Y0130863D01*
X0033750Y0131361D02*
X0034250Y0131361D01*
X0034250Y0131860D02*
X0033750Y0131860D01*
X0032913Y0135350D02*
X0025087Y0135350D01*
X0026077Y0135848D02*
X0031923Y0135848D01*
X0031342Y0136347D02*
X0026658Y0136347D01*
X0027050Y0136845D02*
X0030950Y0136845D01*
X0030673Y0137344D02*
X0027327Y0137344D01*
X0027521Y0137842D02*
X0030479Y0137842D01*
X0030380Y0138341D02*
X0027620Y0138341D01*
X0027650Y0138839D02*
X0030350Y0138839D01*
X0030350Y0139338D02*
X0027650Y0139338D01*
X0027650Y0139836D02*
X0030350Y0139836D01*
X0030350Y0140335D02*
X0027650Y0140335D01*
X0027650Y0140833D02*
X0030350Y0140833D01*
X0030350Y0141830D02*
X0027650Y0141830D01*
X0027650Y0142329D02*
X0030350Y0142329D01*
X0030350Y0142827D02*
X0027650Y0142827D01*
X0027650Y0143326D02*
X0030350Y0143326D01*
X0030350Y0143824D02*
X0027650Y0143824D01*
X0027588Y0144323D02*
X0030412Y0144323D01*
X0030534Y0144821D02*
X0027466Y0144821D01*
X0027259Y0145320D02*
X0030741Y0145320D01*
X0031059Y0145818D02*
X0026941Y0145818D01*
X0026495Y0146317D02*
X0031505Y0146317D01*
X0032167Y0146815D02*
X0025833Y0146815D01*
X0021342Y0136347D02*
X0016658Y0136347D01*
X0017120Y0136845D02*
X0020950Y0136845D01*
X0020673Y0137344D02*
X0017327Y0137344D01*
X0017533Y0137842D02*
X0020479Y0137842D01*
X0020380Y0138341D02*
X0017650Y0138341D01*
X0017650Y0138839D02*
X0020350Y0138839D01*
X0020350Y0139338D02*
X0017650Y0139338D01*
X0017650Y0139836D02*
X0020350Y0139836D01*
X0020350Y0140335D02*
X0017650Y0140335D01*
X0017650Y0140833D02*
X0020350Y0140833D01*
X0021923Y0135848D02*
X0016160Y0135848D01*
X0015750Y0134353D02*
X0071628Y0134353D01*
X0071129Y0133854D02*
X0015750Y0133854D01*
X0015750Y0133355D02*
X0070631Y0133355D01*
X0070132Y0132857D02*
X0015750Y0132857D01*
X0017650Y0115908D02*
X0017868Y0115908D01*
X0017650Y0115409D02*
X0018366Y0115409D01*
X0016250Y0101949D02*
X0006218Y0101949D01*
X0006218Y0101451D02*
X0016250Y0101451D01*
X0016250Y0100952D02*
X0006218Y0100952D01*
X0006218Y0100454D02*
X0016250Y0100454D01*
X0016250Y0099955D02*
X0006218Y0099955D01*
X0006218Y0099457D02*
X0016250Y0099457D01*
X0016250Y0098958D02*
X0006218Y0098958D01*
X0006218Y0098460D02*
X0016250Y0098460D01*
X0016250Y0097961D02*
X0006218Y0097961D01*
X0006218Y0097463D02*
X0016250Y0097463D01*
X0016250Y0096964D02*
X0006218Y0096964D01*
X0006218Y0096466D02*
X0016250Y0096466D01*
X0016250Y0095967D02*
X0006218Y0095967D01*
X0006218Y0095469D02*
X0016250Y0095469D01*
X0016250Y0094970D02*
X0006218Y0094970D01*
X0006218Y0094472D02*
X0016250Y0094472D01*
X0016250Y0093973D02*
X0006218Y0093973D01*
X0006218Y0093475D02*
X0016250Y0093475D01*
X0016250Y0092976D02*
X0006218Y0092976D01*
X0006218Y0092478D02*
X0016250Y0092478D01*
X0016250Y0091979D02*
X0006218Y0091979D01*
X0006218Y0091481D02*
X0016250Y0091481D01*
X0016250Y0090982D02*
X0006218Y0090982D01*
X0006218Y0090484D02*
X0016250Y0090484D01*
X0016250Y0089985D02*
X0006218Y0089985D01*
X0006218Y0089487D02*
X0016250Y0089487D01*
X0016250Y0088988D02*
X0006218Y0088988D01*
X0006218Y0088489D02*
X0016250Y0088489D01*
X0016250Y0087991D02*
X0006218Y0087991D01*
X0006218Y0087492D02*
X0016250Y0087492D01*
X0016250Y0086994D02*
X0006218Y0086994D01*
X0006218Y0086495D02*
X0016250Y0086495D01*
X0016250Y0085997D02*
X0006218Y0085997D01*
X0006218Y0085498D02*
X0016250Y0085498D01*
X0016250Y0085000D02*
X0006218Y0085000D01*
X0006218Y0084501D02*
X0016250Y0084501D01*
X0016250Y0084003D02*
X0006218Y0084003D01*
X0006218Y0083504D02*
X0016250Y0083504D01*
X0016250Y0083006D02*
X0006218Y0083006D01*
X0006218Y0082507D02*
X0016250Y0082507D01*
X0016250Y0082009D02*
X0006218Y0082009D01*
X0006218Y0081510D02*
X0016250Y0081510D01*
X0016250Y0081012D02*
X0006218Y0081012D01*
X0006218Y0080513D02*
X0016250Y0080513D01*
X0016250Y0080015D02*
X0006218Y0080015D01*
X0006218Y0079516D02*
X0016250Y0079516D01*
X0016250Y0079018D02*
X0006218Y0079018D01*
X0006218Y0078519D02*
X0016250Y0078519D01*
X0016250Y0078021D02*
X0006218Y0078021D01*
X0006218Y0077522D02*
X0016250Y0077522D01*
X0016250Y0077024D02*
X0006218Y0077024D01*
X0006218Y0076525D02*
X0016250Y0076525D01*
X0016250Y0076027D02*
X0006218Y0076027D01*
X0006218Y0075528D02*
X0016250Y0075528D01*
X0016250Y0075030D02*
X0006218Y0075030D01*
X0006218Y0074531D02*
X0016250Y0074531D01*
X0016250Y0074033D02*
X0006218Y0074033D01*
X0006218Y0073534D02*
X0016250Y0073534D01*
X0016250Y0073036D02*
X0006218Y0073036D01*
X0006218Y0072537D02*
X0016250Y0072537D01*
X0016250Y0072039D02*
X0006218Y0072039D01*
X0006218Y0071540D02*
X0016250Y0071540D01*
X0016250Y0071042D02*
X0006218Y0071042D01*
X0006218Y0070543D02*
X0016250Y0070543D01*
X0016250Y0070045D02*
X0006218Y0070045D01*
X0006218Y0069546D02*
X0016250Y0069546D01*
X0016250Y0069048D02*
X0006218Y0069048D01*
X0006218Y0068549D02*
X0016250Y0068549D01*
X0016250Y0068051D02*
X0006218Y0068051D01*
X0006218Y0067552D02*
X0016250Y0067552D01*
X0016250Y0067053D02*
X0006218Y0067053D01*
X0006218Y0066555D02*
X0016250Y0066555D01*
X0016250Y0066056D02*
X0006218Y0066056D01*
X0006218Y0065558D02*
X0016250Y0065558D01*
X0016716Y0065059D02*
X0006218Y0065059D01*
X0006218Y0064561D02*
X0017214Y0064561D01*
X0017713Y0064062D02*
X0006218Y0064062D01*
X0006218Y0063564D02*
X0018211Y0063564D01*
X0018710Y0063065D02*
X0006218Y0063065D01*
X0006218Y0062567D02*
X0019208Y0062567D01*
X0019707Y0062068D02*
X0006218Y0062068D01*
X0006218Y0061570D02*
X0020205Y0061570D01*
X0020704Y0061071D02*
X0006218Y0061071D01*
X0006218Y0060573D02*
X0021202Y0060573D01*
X0021701Y0060074D02*
X0006218Y0060074D01*
X0006218Y0059576D02*
X0022199Y0059576D01*
X0022698Y0059077D02*
X0006218Y0059077D01*
X0006218Y0058579D02*
X0023196Y0058579D01*
X0023569Y0058080D02*
X0006218Y0058080D01*
X0006218Y0057582D02*
X0023363Y0057582D01*
X0023222Y0057083D02*
X0006218Y0057083D01*
X0006218Y0056585D02*
X0023222Y0056585D01*
X0023222Y0056086D02*
X0006218Y0056086D01*
X0006218Y0055588D02*
X0023222Y0055588D01*
X0023390Y0055089D02*
X0006218Y0055089D01*
X0006218Y0054591D02*
X0023596Y0054591D01*
X0023803Y0054092D02*
X0006218Y0054092D01*
X0006218Y0053594D02*
X0024174Y0053594D01*
X0024673Y0053095D02*
X0006218Y0053095D01*
X0006218Y0052597D02*
X0025230Y0052597D01*
X0026250Y0052098D02*
X0006218Y0052098D01*
X0006218Y0051600D02*
X0026250Y0051600D01*
X0026250Y0051101D02*
X0006218Y0051101D01*
X0006218Y0050603D02*
X0026250Y0050603D01*
X0026250Y0050104D02*
X0006218Y0050104D01*
X0006218Y0049606D02*
X0026250Y0049606D01*
X0026250Y0049107D02*
X0006218Y0049107D01*
X0006218Y0048609D02*
X0026250Y0048609D01*
X0026250Y0048110D02*
X0006218Y0048110D01*
X0006218Y0047612D02*
X0026250Y0047612D01*
X0026250Y0047113D02*
X0006218Y0047113D01*
X0006218Y0046615D02*
X0026250Y0046615D01*
X0026659Y0046116D02*
X0006218Y0046116D01*
X0006218Y0045618D02*
X0027158Y0045618D01*
X0027276Y0045020D02*
X0026592Y0044911D01*
X0025933Y0044697D01*
X0025316Y0044383D01*
X0024756Y0043976D01*
X0024266Y0043486D01*
X0023859Y0042926D01*
X0023545Y0042309D01*
X0023331Y0041650D01*
X0023222Y0040966D01*
X0023222Y0040870D01*
X0027372Y0040870D01*
X0027372Y0045020D01*
X0027276Y0045020D01*
X0027656Y0045119D02*
X0006218Y0045119D01*
X0006218Y0044620D02*
X0025782Y0044620D01*
X0024957Y0044122D02*
X0006218Y0044122D01*
X0006218Y0043623D02*
X0024403Y0043623D01*
X0024004Y0043125D02*
X0006218Y0043125D01*
X0006218Y0042626D02*
X0023707Y0042626D01*
X0023486Y0042128D02*
X0006218Y0042128D01*
X0006218Y0041629D02*
X0023327Y0041629D01*
X0023249Y0041131D02*
X0006218Y0041131D01*
X0006218Y0040632D02*
X0027372Y0040632D01*
X0027372Y0041131D02*
X0027872Y0041131D01*
X0027872Y0041629D02*
X0027372Y0041629D01*
X0027372Y0042128D02*
X0027872Y0042128D01*
X0027872Y0042626D02*
X0027372Y0042626D01*
X0027372Y0043125D02*
X0027872Y0043125D01*
X0027872Y0043623D02*
X0027372Y0043623D01*
X0027372Y0044122D02*
X0027872Y0044122D01*
X0027872Y0044620D02*
X0027372Y0044620D01*
X0030113Y0047612D02*
X0043446Y0047612D01*
X0042243Y0048110D02*
X0029750Y0048110D01*
X0029750Y0048609D02*
X0041680Y0048609D01*
X0041181Y0049107D02*
X0029750Y0049107D01*
X0029750Y0049606D02*
X0040930Y0049606D01*
X0040724Y0050104D02*
X0029750Y0050104D01*
X0029750Y0050603D02*
X0040550Y0050603D01*
X0040550Y0051101D02*
X0029750Y0051101D01*
X0029750Y0051600D02*
X0040550Y0051600D01*
X0040601Y0052098D02*
X0029750Y0052098D01*
X0030014Y0052597D02*
X0040807Y0052597D01*
X0041014Y0053095D02*
X0030571Y0053095D01*
X0031070Y0053594D02*
X0041382Y0053594D01*
X0041880Y0054092D02*
X0031441Y0054092D01*
X0031648Y0054591D02*
X0042727Y0054591D01*
X0042314Y0058080D02*
X0031675Y0058080D01*
X0031468Y0058579D02*
X0041709Y0058579D01*
X0041211Y0059077D02*
X0031135Y0059077D01*
X0030636Y0059576D02*
X0040943Y0059576D01*
X0040736Y0060074D02*
X0030138Y0060074D01*
X0030057Y0060573D02*
X0040550Y0060573D01*
X0040550Y0061071D02*
X0030673Y0061071D01*
X0031119Y0061570D02*
X0040550Y0061570D01*
X0040588Y0062068D02*
X0031452Y0062068D01*
X0031704Y0062567D02*
X0040795Y0062567D01*
X0041001Y0063065D02*
X0031866Y0063065D01*
X0031969Y0063564D02*
X0041352Y0063564D01*
X0041851Y0064062D02*
X0027872Y0064062D01*
X0027372Y0064062D02*
X0022662Y0064062D01*
X0022164Y0064561D02*
X0023222Y0064561D01*
X0023297Y0065059D02*
X0021665Y0065059D01*
X0021167Y0065558D02*
X0023424Y0065558D01*
X0023609Y0066056D02*
X0020668Y0066056D01*
X0020170Y0066555D02*
X0023864Y0066555D01*
X0024226Y0067053D02*
X0019750Y0067053D01*
X0019750Y0067552D02*
X0024710Y0067552D01*
X0025405Y0068051D02*
X0019750Y0068051D01*
X0019750Y0068549D02*
X0024967Y0068549D01*
X0024469Y0069048D02*
X0019750Y0069048D01*
X0019750Y0069546D02*
X0023970Y0069546D01*
X0023718Y0070045D02*
X0019750Y0070045D01*
X0019750Y0070543D02*
X0023512Y0070543D01*
X0023305Y0071042D02*
X0019750Y0071042D01*
X0019750Y0071540D02*
X0023222Y0071540D01*
X0023222Y0072039D02*
X0019750Y0072039D01*
X0019750Y0072537D02*
X0023222Y0072537D01*
X0023241Y0073036D02*
X0019750Y0073036D01*
X0019750Y0073534D02*
X0023447Y0073534D01*
X0023654Y0074033D02*
X0019750Y0074033D01*
X0019750Y0074531D02*
X0023860Y0074531D01*
X0024314Y0075030D02*
X0019750Y0075030D01*
X0019750Y0075528D02*
X0024812Y0075528D01*
X0025566Y0076027D02*
X0019750Y0076027D01*
X0019750Y0076525D02*
X0024865Y0076525D01*
X0024366Y0077024D02*
X0019750Y0077024D01*
X0019750Y0077522D02*
X0023882Y0077522D01*
X0023676Y0078021D02*
X0019750Y0078021D01*
X0019750Y0078519D02*
X0023469Y0078519D01*
X0023263Y0079018D02*
X0019750Y0079018D01*
X0019750Y0079516D02*
X0023222Y0079516D01*
X0023222Y0080015D02*
X0019750Y0080015D01*
X0019750Y0080513D02*
X0023222Y0080513D01*
X0023283Y0081012D02*
X0019750Y0081012D01*
X0019750Y0081510D02*
X0023490Y0081510D01*
X0023696Y0082009D02*
X0019750Y0082009D01*
X0019750Y0082507D02*
X0023917Y0082507D01*
X0024416Y0083006D02*
X0019750Y0083006D01*
X0019750Y0083504D02*
X0024914Y0083504D01*
X0023275Y0063564D02*
X0023161Y0063564D01*
X0030612Y0047113D02*
X0062250Y0047113D01*
X0062250Y0046615D02*
X0031110Y0046615D01*
X0031609Y0046116D02*
X0062250Y0046116D01*
X0062250Y0045618D02*
X0032107Y0045618D01*
X0032606Y0045119D02*
X0062250Y0045119D01*
X0062250Y0044620D02*
X0050401Y0044620D01*
X0051068Y0044344D02*
X0049726Y0044900D01*
X0043474Y0044900D01*
X0042132Y0044344D01*
X0041106Y0043318D01*
X0040550Y0041976D01*
X0040550Y0040524D01*
X0041106Y0039182D01*
X0042132Y0038156D01*
X0043474Y0037600D01*
X0049726Y0037600D01*
X0051068Y0038156D01*
X0052094Y0039182D01*
X0052650Y0040524D01*
X0052650Y0041976D01*
X0052094Y0043318D01*
X0051068Y0044344D01*
X0051290Y0044122D02*
X0062250Y0044122D01*
X0062250Y0043623D02*
X0051788Y0043623D01*
X0052174Y0043125D02*
X0062250Y0043125D01*
X0062250Y0042626D02*
X0052381Y0042626D01*
X0052587Y0042128D02*
X0062250Y0042128D01*
X0062250Y0041629D02*
X0052650Y0041629D01*
X0052650Y0041131D02*
X0062250Y0041131D01*
X0062250Y0040632D02*
X0052650Y0040632D01*
X0052488Y0040134D02*
X0062250Y0040134D01*
X0062250Y0039635D02*
X0052282Y0039635D01*
X0052049Y0039137D02*
X0062250Y0039137D01*
X0062250Y0038638D02*
X0051550Y0038638D01*
X0051029Y0038140D02*
X0062250Y0038140D01*
X0062250Y0037641D02*
X0049826Y0037641D01*
X0047257Y0033155D02*
X0060743Y0033155D01*
X0060350Y0032656D02*
X0047650Y0032656D01*
X0047650Y0032158D02*
X0060350Y0032158D01*
X0060350Y0031659D02*
X0047650Y0031659D01*
X0047650Y0031161D02*
X0060350Y0031161D01*
X0060350Y0030662D02*
X0047650Y0030662D01*
X0047650Y0030164D02*
X0060350Y0030164D01*
X0060423Y0029665D02*
X0048060Y0029665D01*
X0048558Y0029167D02*
X0060921Y0029167D01*
X0061241Y0033653D02*
X0046759Y0033653D01*
X0046260Y0034152D02*
X0061740Y0034152D01*
X0062238Y0034650D02*
X0045762Y0034650D01*
X0043374Y0037641D02*
X0034750Y0037641D01*
X0034750Y0037143D02*
X0062250Y0037143D01*
X0062250Y0036644D02*
X0034750Y0036644D01*
X0034750Y0036146D02*
X0062250Y0036146D01*
X0062250Y0035647D02*
X0034750Y0035647D01*
X0034750Y0035149D02*
X0062250Y0035149D01*
X0065750Y0035149D02*
X0081424Y0035149D01*
X0081922Y0035647D02*
X0065750Y0035647D01*
X0065750Y0036146D02*
X0082421Y0036146D01*
X0082919Y0036644D02*
X0065750Y0036644D01*
X0065750Y0037143D02*
X0083418Y0037143D01*
X0084380Y0033155D02*
X0092333Y0033155D01*
X0092333Y0033653D02*
X0084878Y0033653D01*
X0085377Y0034152D02*
X0092333Y0034152D01*
X0092333Y0034650D02*
X0085875Y0034650D01*
X0086374Y0035149D02*
X0092333Y0035149D01*
X0092333Y0035647D02*
X0086872Y0035647D01*
X0087371Y0036146D02*
X0092333Y0036146D01*
X0092333Y0036644D02*
X0087869Y0036644D01*
X0088368Y0037143D02*
X0092333Y0037143D01*
X0092333Y0037641D02*
X0088866Y0037641D01*
X0089365Y0038140D02*
X0092333Y0038140D01*
X0092333Y0038638D02*
X0089750Y0038638D01*
X0089750Y0039137D02*
X0092333Y0039137D01*
X0092333Y0039635D02*
X0089750Y0039635D01*
X0089750Y0040134D02*
X0092333Y0040134D01*
X0092333Y0040632D02*
X0089750Y0040632D01*
X0089750Y0041131D02*
X0092333Y0041131D01*
X0092333Y0041629D02*
X0089750Y0041629D01*
X0089750Y0042128D02*
X0092333Y0042128D01*
X0092333Y0042626D02*
X0089750Y0042626D01*
X0089750Y0043125D02*
X0092333Y0043125D01*
X0092333Y0043623D02*
X0089750Y0043623D01*
X0089750Y0044122D02*
X0092333Y0044122D01*
X0092333Y0044620D02*
X0089750Y0044620D01*
X0089750Y0045119D02*
X0092333Y0045119D01*
X0092333Y0045618D02*
X0089750Y0045618D01*
X0089750Y0046116D02*
X0092333Y0046116D01*
X0092333Y0046615D02*
X0089750Y0046615D01*
X0089750Y0047113D02*
X0092333Y0047113D01*
X0092333Y0047612D02*
X0089750Y0047612D01*
X0089750Y0048110D02*
X0092333Y0048110D01*
X0092333Y0048609D02*
X0089750Y0048609D01*
X0089750Y0049107D02*
X0092333Y0049107D01*
X0092333Y0049606D02*
X0089750Y0049606D01*
X0089750Y0050104D02*
X0092333Y0050104D01*
X0092333Y0050603D02*
X0089750Y0050603D01*
X0089750Y0051101D02*
X0092333Y0051101D01*
X0092333Y0051600D02*
X0089750Y0051600D01*
X0089750Y0052098D02*
X0092333Y0052098D01*
X0092333Y0052597D02*
X0089750Y0052597D01*
X0089750Y0053095D02*
X0092333Y0053095D01*
X0092333Y0053594D02*
X0089750Y0053594D01*
X0089633Y0054092D02*
X0092333Y0054092D01*
X0092333Y0054591D02*
X0089134Y0054591D01*
X0088636Y0055089D02*
X0092333Y0055089D01*
X0092333Y0055588D02*
X0088137Y0055588D01*
X0087639Y0056086D02*
X0092333Y0056086D01*
X0092333Y0056585D02*
X0087140Y0056585D01*
X0085642Y0057083D02*
X0092333Y0057083D01*
X0092333Y0057582D02*
X0085143Y0057582D01*
X0085686Y0058080D02*
X0092333Y0058080D01*
X0092333Y0058579D02*
X0086291Y0058579D01*
X0086789Y0059077D02*
X0092333Y0059077D01*
X0092333Y0059576D02*
X0087057Y0059576D01*
X0087264Y0060074D02*
X0092333Y0060074D01*
X0092333Y0060573D02*
X0087450Y0060573D01*
X0087450Y0061071D02*
X0092333Y0061071D01*
X0092333Y0061570D02*
X0087450Y0061570D01*
X0087412Y0062068D02*
X0092333Y0062068D01*
X0092333Y0062567D02*
X0087205Y0062567D01*
X0086999Y0063065D02*
X0092333Y0063065D01*
X0092333Y0063564D02*
X0086648Y0063564D01*
X0086149Y0064062D02*
X0092333Y0064062D01*
X0092333Y0064561D02*
X0085345Y0064561D01*
X0085614Y0068051D02*
X0092333Y0068051D01*
X0092333Y0068549D02*
X0086261Y0068549D01*
X0086759Y0069048D02*
X0092333Y0069048D01*
X0092333Y0069546D02*
X0087045Y0069546D01*
X0087251Y0070045D02*
X0092333Y0070045D01*
X0092333Y0070543D02*
X0087450Y0070543D01*
X0087450Y0071042D02*
X0092333Y0071042D01*
X0092333Y0071540D02*
X0087450Y0071540D01*
X0087424Y0072039D02*
X0092333Y0072039D01*
X0092333Y0072537D02*
X0087218Y0072537D01*
X0087011Y0073036D02*
X0092333Y0073036D01*
X0092333Y0073534D02*
X0086678Y0073534D01*
X0086179Y0074033D02*
X0092333Y0074033D01*
X0092333Y0074531D02*
X0085416Y0074531D01*
X0085933Y0078021D02*
X0092333Y0078021D01*
X0092333Y0078519D02*
X0086431Y0078519D01*
X0086930Y0079018D02*
X0092333Y0079018D01*
X0092333Y0079516D02*
X0087428Y0079516D01*
X0087650Y0080015D02*
X0092333Y0080015D01*
X0092333Y0080513D02*
X0087650Y0080513D01*
X0087650Y0081012D02*
X0092333Y0081012D01*
X0092333Y0081510D02*
X0087650Y0081510D01*
X0087650Y0082009D02*
X0092333Y0082009D01*
X0092333Y0082507D02*
X0087650Y0082507D01*
X0087406Y0083006D02*
X0092333Y0083006D01*
X0092333Y0083504D02*
X0086907Y0083504D01*
X0086409Y0084003D02*
X0092333Y0084003D01*
X0092333Y0084501D02*
X0085910Y0084501D01*
X0085065Y0090340D02*
X0084359Y0090200D01*
X0084250Y0090200D01*
X0084250Y0096000D01*
X0087650Y0096000D01*
X0087650Y0093490D01*
X0087510Y0092785D01*
X0087235Y0092121D01*
X0086835Y0091523D01*
X0086327Y0091015D01*
X0085729Y0090615D01*
X0085065Y0090340D01*
X0085411Y0090484D02*
X0092333Y0090484D01*
X0092333Y0090982D02*
X0086278Y0090982D01*
X0086792Y0091481D02*
X0092333Y0091481D01*
X0092333Y0091979D02*
X0087140Y0091979D01*
X0087382Y0092478D02*
X0092333Y0092478D01*
X0092333Y0092976D02*
X0087548Y0092976D01*
X0087647Y0093475D02*
X0092333Y0093475D01*
X0092333Y0093973D02*
X0087650Y0093973D01*
X0087650Y0094472D02*
X0092333Y0094472D01*
X0092333Y0094970D02*
X0087650Y0094970D01*
X0087650Y0095469D02*
X0092333Y0095469D01*
X0092333Y0095967D02*
X0087650Y0095967D01*
X0087650Y0096500D02*
X0087650Y0099009D01*
X0087510Y0099715D01*
X0087235Y0100379D01*
X0086835Y0100977D01*
X0086327Y0101485D01*
X0085729Y0101885D01*
X0085065Y0102160D01*
X0084359Y0102300D01*
X0084250Y0102300D01*
X0084250Y0096500D01*
X0087650Y0096500D01*
X0087650Y0096964D02*
X0092333Y0096964D01*
X0092333Y0096466D02*
X0084250Y0096466D01*
X0084250Y0096964D02*
X0083750Y0096964D01*
X0083750Y0097463D02*
X0084250Y0097463D01*
X0084250Y0097961D02*
X0083750Y0097961D01*
X0083750Y0098460D02*
X0084250Y0098460D01*
X0084250Y0098958D02*
X0083750Y0098958D01*
X0083750Y0099457D02*
X0084250Y0099457D01*
X0084250Y0099955D02*
X0083750Y0099955D01*
X0083750Y0100454D02*
X0084250Y0100454D01*
X0084250Y0100952D02*
X0083750Y0100952D01*
X0083750Y0101451D02*
X0084250Y0101451D01*
X0084250Y0101949D02*
X0083750Y0101949D01*
X0082427Y0101949D02*
X0081750Y0101949D01*
X0081750Y0102448D02*
X0092333Y0102448D01*
X0092333Y0102946D02*
X0081750Y0102946D01*
X0081750Y0103445D02*
X0092333Y0103445D01*
X0092333Y0103943D02*
X0081750Y0103943D01*
X0081750Y0104442D02*
X0092333Y0104442D01*
X0092333Y0104940D02*
X0081750Y0104940D01*
X0081750Y0105439D02*
X0092333Y0105439D01*
X0092333Y0105937D02*
X0081750Y0105937D01*
X0081750Y0106436D02*
X0092333Y0106436D01*
X0092333Y0106934D02*
X0081750Y0106934D01*
X0081750Y0107433D02*
X0092333Y0107433D01*
X0092333Y0107931D02*
X0081750Y0107931D01*
X0081750Y0108430D02*
X0092333Y0108430D01*
X0092333Y0108928D02*
X0081750Y0108928D01*
X0081750Y0109427D02*
X0092333Y0109427D01*
X0092333Y0109925D02*
X0081750Y0109925D01*
X0081750Y0110424D02*
X0092333Y0110424D01*
X0092333Y0110922D02*
X0081750Y0110922D01*
X0081750Y0111421D02*
X0092333Y0111421D01*
X0092333Y0111920D02*
X0081750Y0111920D01*
X0081750Y0112418D02*
X0092333Y0112418D01*
X0092333Y0112917D02*
X0081750Y0112917D01*
X0081750Y0113415D02*
X0092333Y0113415D01*
X0092333Y0113914D02*
X0081750Y0113914D01*
X0081750Y0114412D02*
X0092333Y0114412D01*
X0092333Y0114911D02*
X0081750Y0114911D01*
X0081750Y0115409D02*
X0092333Y0115409D01*
X0092333Y0115908D02*
X0081750Y0115908D01*
X0081750Y0116406D02*
X0092333Y0116406D01*
X0092333Y0116905D02*
X0081750Y0116905D01*
X0081750Y0117403D02*
X0092333Y0117403D01*
X0092333Y0117902D02*
X0081750Y0117902D01*
X0081750Y0118400D02*
X0092333Y0118400D01*
X0092333Y0118899D02*
X0081750Y0118899D01*
X0081750Y0119397D02*
X0092333Y0119397D01*
X0092333Y0101949D02*
X0085573Y0101949D01*
X0086361Y0101451D02*
X0092333Y0101451D01*
X0092333Y0100952D02*
X0086851Y0100952D01*
X0087185Y0100454D02*
X0092333Y0100454D01*
X0092333Y0099955D02*
X0087410Y0099955D01*
X0087561Y0099457D02*
X0092333Y0099457D01*
X0092333Y0098958D02*
X0087650Y0098958D01*
X0087650Y0098460D02*
X0092333Y0098460D01*
X0092333Y0097961D02*
X0087650Y0097961D01*
X0087650Y0097463D02*
X0092333Y0097463D01*
X0092333Y0089985D02*
X0081750Y0089985D01*
X0081750Y0089487D02*
X0092333Y0089487D01*
X0092333Y0088988D02*
X0081750Y0088988D01*
X0081750Y0088489D02*
X0092333Y0088489D01*
X0092333Y0087991D02*
X0081750Y0087991D01*
X0081750Y0087492D02*
X0092333Y0087492D01*
X0092333Y0086994D02*
X0081750Y0086994D01*
X0081750Y0086495D02*
X0092333Y0086495D01*
X0092333Y0085997D02*
X0081750Y0085997D01*
X0081750Y0085498D02*
X0092333Y0085498D01*
X0092333Y0085000D02*
X0081750Y0085000D01*
X0081750Y0084501D02*
X0082090Y0084501D01*
X0081070Y0079018D02*
X0080243Y0079018D01*
X0079744Y0078519D02*
X0081569Y0078519D01*
X0082067Y0078021D02*
X0079246Y0078021D01*
X0078747Y0077522D02*
X0092333Y0077522D01*
X0092333Y0077024D02*
X0078249Y0077024D01*
X0077750Y0076525D02*
X0092333Y0076525D01*
X0092333Y0076027D02*
X0077252Y0076027D01*
X0076753Y0075528D02*
X0092333Y0075528D01*
X0092333Y0075030D02*
X0076750Y0075030D01*
X0076750Y0074531D02*
X0077384Y0074531D01*
X0077186Y0068051D02*
X0076750Y0068051D01*
X0076750Y0067552D02*
X0092333Y0067552D01*
X0092333Y0067053D02*
X0076750Y0067053D01*
X0076750Y0066555D02*
X0092333Y0066555D01*
X0092333Y0066056D02*
X0076750Y0066056D01*
X0076750Y0065558D02*
X0092333Y0065558D01*
X0092333Y0065059D02*
X0076750Y0065059D01*
X0076750Y0064561D02*
X0077455Y0064561D01*
X0074193Y0057582D02*
X0061143Y0057582D01*
X0060645Y0058080D02*
X0073695Y0058080D01*
X0073250Y0058579D02*
X0060146Y0058579D01*
X0059648Y0059077D02*
X0073250Y0059077D01*
X0073250Y0059576D02*
X0059149Y0059576D01*
X0058651Y0060074D02*
X0073250Y0060074D01*
X0073250Y0060573D02*
X0058152Y0060573D01*
X0057653Y0061071D02*
X0073250Y0061071D01*
X0074692Y0057083D02*
X0061642Y0057083D01*
X0062140Y0056585D02*
X0075190Y0056585D01*
X0075689Y0056086D02*
X0062639Y0056086D01*
X0063137Y0055588D02*
X0076187Y0055588D01*
X0076686Y0055089D02*
X0063636Y0055089D01*
X0064134Y0054591D02*
X0077184Y0054591D01*
X0076680Y0054092D02*
X0064633Y0054092D01*
X0065131Y0053594D02*
X0076182Y0053594D01*
X0075814Y0053095D02*
X0065630Y0053095D01*
X0065750Y0052597D02*
X0075607Y0052597D01*
X0075401Y0052098D02*
X0065750Y0052098D01*
X0065750Y0051600D02*
X0075350Y0051600D01*
X0075350Y0051101D02*
X0065750Y0051101D01*
X0065750Y0050603D02*
X0075350Y0050603D01*
X0075524Y0050104D02*
X0065750Y0050104D01*
X0065750Y0049606D02*
X0075730Y0049606D01*
X0075981Y0049107D02*
X0065750Y0049107D01*
X0065750Y0048609D02*
X0076480Y0048609D01*
X0077043Y0048110D02*
X0065750Y0048110D01*
X0065750Y0047612D02*
X0078246Y0047612D01*
X0077599Y0044620D02*
X0065750Y0044620D01*
X0065750Y0044122D02*
X0076710Y0044122D01*
X0076212Y0043623D02*
X0065750Y0043623D01*
X0065750Y0043125D02*
X0075826Y0043125D01*
X0075619Y0042626D02*
X0065750Y0042626D01*
X0065750Y0042128D02*
X0075413Y0042128D01*
X0075350Y0041629D02*
X0065750Y0041629D01*
X0065750Y0041131D02*
X0075350Y0041131D01*
X0075350Y0040632D02*
X0065750Y0040632D01*
X0065750Y0040134D02*
X0075512Y0040134D01*
X0075718Y0039635D02*
X0065750Y0039635D01*
X0065750Y0039137D02*
X0075951Y0039137D01*
X0076450Y0038638D02*
X0065750Y0038638D01*
X0065750Y0038140D02*
X0076971Y0038140D01*
X0078174Y0037641D02*
X0065750Y0037641D01*
X0065762Y0034650D02*
X0080925Y0034650D01*
X0080427Y0034152D02*
X0066260Y0034152D01*
X0066759Y0033653D02*
X0079928Y0033653D01*
X0079430Y0033155D02*
X0067257Y0033155D01*
X0067650Y0032656D02*
X0078931Y0032656D01*
X0078433Y0032158D02*
X0067650Y0032158D01*
X0067650Y0031659D02*
X0077934Y0031659D01*
X0077436Y0031161D02*
X0067650Y0031161D01*
X0067650Y0030662D02*
X0076937Y0030662D01*
X0076439Y0030164D02*
X0067650Y0030164D01*
X0067577Y0029665D02*
X0075940Y0029665D01*
X0075442Y0029167D02*
X0067078Y0029167D01*
X0065874Y0024900D02*
X0064532Y0024344D01*
X0063506Y0023318D01*
X0062950Y0021976D01*
X0062950Y0020524D01*
X0063506Y0019182D01*
X0064532Y0018156D01*
X0065874Y0017600D01*
X0072126Y0017600D01*
X0073468Y0018156D01*
X0074494Y0019182D01*
X0075050Y0020524D01*
X0075050Y0021976D01*
X0074494Y0023318D01*
X0073468Y0024344D01*
X0072126Y0024900D01*
X0065874Y0024900D01*
X0065343Y0024680D02*
X0042657Y0024680D01*
X0042126Y0024900D02*
X0043468Y0024344D01*
X0044494Y0023318D01*
X0045050Y0021976D01*
X0045050Y0020524D01*
X0044494Y0019182D01*
X0043468Y0018156D01*
X0042126Y0017600D01*
X0035874Y0017600D01*
X0034532Y0018156D01*
X0033506Y0019182D01*
X0032950Y0020524D01*
X0032950Y0021976D01*
X0033506Y0023318D01*
X0034532Y0024344D01*
X0035874Y0024900D01*
X0042126Y0024900D01*
X0042417Y0027671D02*
X0006218Y0027671D01*
X0006218Y0027173D02*
X0045603Y0027173D01*
X0046101Y0026674D02*
X0006218Y0026674D01*
X0006218Y0026176D02*
X0046600Y0026176D01*
X0047098Y0025677D02*
X0006218Y0025677D01*
X0006218Y0025179D02*
X0092333Y0025179D01*
X0092333Y0025677D02*
X0076902Y0025677D01*
X0077400Y0026176D02*
X0092333Y0026176D01*
X0092333Y0026674D02*
X0077899Y0026674D01*
X0078397Y0027173D02*
X0092333Y0027173D01*
X0092333Y0027671D02*
X0078896Y0027671D01*
X0079394Y0028170D02*
X0092333Y0028170D01*
X0092333Y0028668D02*
X0079893Y0028668D01*
X0080391Y0029167D02*
X0092333Y0029167D01*
X0092333Y0029665D02*
X0080890Y0029665D01*
X0081389Y0030164D02*
X0092333Y0030164D01*
X0092333Y0030662D02*
X0081887Y0030662D01*
X0082386Y0031161D02*
X0092333Y0031161D01*
X0092333Y0031659D02*
X0082884Y0031659D01*
X0083383Y0032158D02*
X0092333Y0032158D01*
X0092333Y0032656D02*
X0083881Y0032656D01*
X0084434Y0021579D02*
X0081046Y0021579D01*
X0077915Y0020282D01*
X0075519Y0017886D01*
X0074222Y0014755D01*
X0074222Y0011367D01*
X0075519Y0008236D01*
X0077915Y0005840D01*
X0081046Y0004543D01*
X0084434Y0004543D01*
X0087565Y0005840D01*
X0089961Y0008236D01*
X0091258Y0011367D01*
X0091258Y0014755D01*
X0089961Y0017886D01*
X0087565Y0020282D01*
X0084434Y0021579D01*
X0085372Y0021190D02*
X0092333Y0021190D01*
X0092333Y0020692D02*
X0086575Y0020692D01*
X0087654Y0020193D02*
X0092333Y0020193D01*
X0092333Y0019695D02*
X0088152Y0019695D01*
X0088651Y0019196D02*
X0092333Y0019196D01*
X0092333Y0018698D02*
X0089149Y0018698D01*
X0089648Y0018199D02*
X0092333Y0018199D01*
X0092333Y0017701D02*
X0090038Y0017701D01*
X0090244Y0017202D02*
X0092333Y0017202D01*
X0092333Y0016704D02*
X0090451Y0016704D01*
X0090657Y0016205D02*
X0092333Y0016205D01*
X0092333Y0015707D02*
X0090864Y0015707D01*
X0091070Y0015208D02*
X0092333Y0015208D01*
X0092333Y0014710D02*
X0091258Y0014710D01*
X0091258Y0014211D02*
X0092333Y0014211D01*
X0092333Y0013713D02*
X0091258Y0013713D01*
X0091258Y0013214D02*
X0092333Y0013214D01*
X0092333Y0012716D02*
X0091258Y0012716D01*
X0091258Y0012217D02*
X0092333Y0012217D01*
X0092333Y0011719D02*
X0091258Y0011719D01*
X0091197Y0011220D02*
X0092333Y0011220D01*
X0092333Y0010722D02*
X0090991Y0010722D01*
X0090784Y0010223D02*
X0092333Y0010223D01*
X0092333Y0009725D02*
X0090578Y0009725D01*
X0090371Y0009226D02*
X0092333Y0009226D01*
X0092333Y0008728D02*
X0090165Y0008728D01*
X0089954Y0008229D02*
X0092333Y0008229D01*
X0092333Y0007731D02*
X0089456Y0007731D01*
X0088957Y0007232D02*
X0092333Y0007232D01*
X0092333Y0006734D02*
X0088459Y0006734D01*
X0087960Y0006235D02*
X0092333Y0006235D01*
X0092333Y0005737D02*
X0087315Y0005737D01*
X0086112Y0005238D02*
X0092333Y0005238D01*
X0092333Y0004740D02*
X0084908Y0004740D01*
X0080572Y0004740D02*
X0017979Y0004740D01*
X0017505Y0004543D02*
X0020636Y0005840D01*
X0023032Y0008236D01*
X0024329Y0011367D01*
X0024329Y0014755D01*
X0023032Y0017886D01*
X0020636Y0020282D01*
X0017505Y0021579D01*
X0014117Y0021579D01*
X0010986Y0020282D01*
X0008590Y0017886D01*
X0007293Y0014755D01*
X0007293Y0011367D01*
X0008590Y0008236D01*
X0010986Y0005840D01*
X0014117Y0004543D01*
X0017505Y0004543D01*
X0019183Y0005238D02*
X0079369Y0005238D01*
X0078165Y0005737D02*
X0020386Y0005737D01*
X0021031Y0006235D02*
X0077520Y0006235D01*
X0077022Y0006734D02*
X0021529Y0006734D01*
X0022028Y0007232D02*
X0076523Y0007232D01*
X0076025Y0007731D02*
X0022527Y0007731D01*
X0023025Y0008229D02*
X0075526Y0008229D01*
X0075316Y0008728D02*
X0023236Y0008728D01*
X0023442Y0009226D02*
X0075109Y0009226D01*
X0074903Y0009725D02*
X0023649Y0009725D01*
X0023855Y0010223D02*
X0074696Y0010223D01*
X0074490Y0010722D02*
X0024062Y0010722D01*
X0024268Y0011220D02*
X0074283Y0011220D01*
X0074222Y0011719D02*
X0024329Y0011719D01*
X0024329Y0012217D02*
X0074222Y0012217D01*
X0074222Y0012716D02*
X0024329Y0012716D01*
X0024329Y0013214D02*
X0074222Y0013214D01*
X0074222Y0013713D02*
X0024329Y0013713D01*
X0024329Y0014211D02*
X0074222Y0014211D01*
X0074222Y0014710D02*
X0024329Y0014710D01*
X0024141Y0015208D02*
X0074410Y0015208D01*
X0074617Y0015707D02*
X0023935Y0015707D01*
X0023728Y0016205D02*
X0074823Y0016205D01*
X0075030Y0016704D02*
X0023522Y0016704D01*
X0023315Y0017202D02*
X0075236Y0017202D01*
X0075443Y0017701D02*
X0072370Y0017701D01*
X0073511Y0018199D02*
X0075833Y0018199D01*
X0076331Y0018698D02*
X0074010Y0018698D01*
X0074500Y0019196D02*
X0076830Y0019196D01*
X0077328Y0019695D02*
X0074707Y0019695D01*
X0074913Y0020193D02*
X0077827Y0020193D01*
X0078905Y0020692D02*
X0075050Y0020692D01*
X0075050Y0021190D02*
X0080108Y0021190D01*
X0075050Y0021689D02*
X0092333Y0021689D01*
X0092333Y0022187D02*
X0074962Y0022187D01*
X0074756Y0022686D02*
X0092333Y0022686D01*
X0092333Y0023184D02*
X0074549Y0023184D01*
X0074129Y0023683D02*
X0092333Y0023683D01*
X0092333Y0024182D02*
X0073630Y0024182D01*
X0072657Y0024680D02*
X0092333Y0024680D01*
X0086250Y0044122D02*
X0086090Y0044122D01*
X0086250Y0044620D02*
X0085201Y0044620D01*
X0086250Y0045119D02*
X0065750Y0045119D01*
X0065750Y0045618D02*
X0086250Y0045618D01*
X0086250Y0046116D02*
X0065750Y0046116D01*
X0065750Y0046615D02*
X0086250Y0046615D01*
X0086250Y0047113D02*
X0065750Y0047113D01*
X0062250Y0047612D02*
X0049754Y0047612D01*
X0050957Y0048110D02*
X0062250Y0048110D01*
X0062250Y0048609D02*
X0051520Y0048609D01*
X0052019Y0049107D02*
X0062250Y0049107D01*
X0062250Y0049606D02*
X0052270Y0049606D01*
X0052476Y0050104D02*
X0062250Y0050104D01*
X0062250Y0050603D02*
X0052650Y0050603D01*
X0052650Y0051101D02*
X0062250Y0051101D01*
X0062175Y0051600D02*
X0052650Y0051600D01*
X0052599Y0052098D02*
X0061677Y0052098D01*
X0061178Y0052597D02*
X0052393Y0052597D01*
X0052186Y0053095D02*
X0060680Y0053095D01*
X0060181Y0053594D02*
X0051818Y0053594D01*
X0051320Y0054092D02*
X0059683Y0054092D01*
X0069750Y0078021D02*
X0072067Y0078021D01*
X0071569Y0078519D02*
X0069750Y0078519D01*
X0069750Y0079018D02*
X0071070Y0079018D01*
X0070572Y0079516D02*
X0069750Y0079516D01*
X0069750Y0080015D02*
X0070350Y0080015D01*
X0070350Y0080513D02*
X0069750Y0080513D01*
X0075411Y0090484D02*
X0078250Y0090484D01*
X0078250Y0090982D02*
X0076294Y0090982D01*
X0076792Y0091481D02*
X0078250Y0091481D01*
X0078250Y0091979D02*
X0077176Y0091979D01*
X0077382Y0092478D02*
X0078250Y0092478D01*
X0078250Y0092976D02*
X0077589Y0092976D01*
X0077650Y0093475D02*
X0078250Y0093475D01*
X0078250Y0093973D02*
X0077650Y0093973D01*
X0077650Y0094472D02*
X0078250Y0094472D01*
X0078250Y0094970D02*
X0077650Y0094970D01*
X0077650Y0095469D02*
X0078250Y0095469D01*
X0078250Y0095967D02*
X0077650Y0095967D01*
X0077650Y0096466D02*
X0078250Y0096466D01*
X0078250Y0096964D02*
X0077650Y0096964D01*
X0077650Y0097463D02*
X0078250Y0097463D01*
X0078250Y0097961D02*
X0077650Y0097961D01*
X0077650Y0098460D02*
X0078250Y0098460D01*
X0078250Y0098958D02*
X0077650Y0098958D01*
X0077617Y0099457D02*
X0078250Y0099457D01*
X0078250Y0099955D02*
X0077410Y0099955D01*
X0077204Y0100454D02*
X0078250Y0100454D01*
X0078250Y0100952D02*
X0076860Y0100952D01*
X0076361Y0101451D02*
X0078250Y0101451D01*
X0078250Y0101949D02*
X0075573Y0101949D01*
X0081750Y0090484D02*
X0082589Y0090484D01*
X0083750Y0090484D02*
X0084250Y0090484D01*
X0084250Y0090982D02*
X0083750Y0090982D01*
X0083750Y0091481D02*
X0084250Y0091481D01*
X0084250Y0091979D02*
X0083750Y0091979D01*
X0083750Y0092478D02*
X0084250Y0092478D01*
X0084250Y0092976D02*
X0083750Y0092976D01*
X0083750Y0093475D02*
X0084250Y0093475D01*
X0084250Y0093973D02*
X0083750Y0093973D01*
X0083750Y0094472D02*
X0084250Y0094472D01*
X0084250Y0094970D02*
X0083750Y0094970D01*
X0083750Y0095469D02*
X0084250Y0095469D01*
X0084250Y0095967D02*
X0083750Y0095967D01*
X0082913Y0135350D02*
X0081750Y0135350D01*
X0081750Y0135848D02*
X0081840Y0135848D01*
X0061795Y0120893D02*
X0056144Y0120893D01*
X0056703Y0121391D02*
X0061297Y0121391D01*
X0060861Y0121890D02*
X0057080Y0121890D01*
X0057345Y0122388D02*
X0060655Y0122388D01*
X0060448Y0122887D02*
X0057530Y0122887D01*
X0057629Y0123385D02*
X0060350Y0123385D01*
X0060350Y0123884D02*
X0057650Y0123884D01*
X0057650Y0124382D02*
X0060350Y0124382D01*
X0060350Y0124881D02*
X0057650Y0124881D01*
X0057650Y0125379D02*
X0060350Y0125379D01*
X0042805Y0120394D02*
X0035195Y0120394D01*
X0034250Y0120394D02*
X0033750Y0120394D01*
X0033750Y0120893D02*
X0034250Y0120893D01*
X0034250Y0121391D02*
X0033750Y0121391D01*
X0033750Y0121890D02*
X0034250Y0121890D01*
X0034250Y0122388D02*
X0033750Y0122388D01*
X0033750Y0122887D02*
X0034250Y0122887D01*
X0034250Y0123385D02*
X0033750Y0123385D01*
X0033750Y0123884D02*
X0034250Y0123884D01*
X0034250Y0124382D02*
X0033750Y0124382D01*
X0033750Y0124881D02*
X0034250Y0124881D01*
X0034250Y0125379D02*
X0033750Y0125379D01*
X0033750Y0125878D02*
X0034250Y0125878D01*
X0033750Y0126376D02*
X0027650Y0126376D01*
X0027650Y0125878D02*
X0030350Y0125878D01*
X0030350Y0125379D02*
X0027650Y0125379D01*
X0027650Y0124881D02*
X0030350Y0124881D01*
X0030350Y0124382D02*
X0027650Y0124382D01*
X0027650Y0123884D02*
X0030350Y0123884D01*
X0030371Y0123385D02*
X0027650Y0123385D01*
X0027552Y0122887D02*
X0030470Y0122887D01*
X0030655Y0122388D02*
X0027345Y0122388D01*
X0027139Y0121890D02*
X0030920Y0121890D01*
X0031297Y0121391D02*
X0026703Y0121391D01*
X0026205Y0120893D02*
X0031856Y0120893D01*
X0032805Y0120394D02*
X0025195Y0120394D01*
X0027650Y0126875D02*
X0030350Y0126875D01*
X0030350Y0127373D02*
X0027650Y0127373D01*
X0027650Y0127872D02*
X0030350Y0127872D01*
X0030350Y0128370D02*
X0027650Y0128370D01*
X0027650Y0128869D02*
X0030350Y0128869D01*
X0030421Y0129367D02*
X0027650Y0129367D01*
X0027447Y0129866D02*
X0030553Y0129866D01*
X0030759Y0130364D02*
X0027241Y0130364D01*
X0026949Y0130863D02*
X0031089Y0130863D01*
X0031550Y0131361D02*
X0026450Y0131361D01*
X0025788Y0131860D02*
X0032234Y0131860D01*
X0036144Y0120893D02*
X0041795Y0120893D01*
X0041297Y0121391D02*
X0036703Y0121391D01*
X0037080Y0121890D02*
X0040861Y0121890D01*
X0040655Y0122388D02*
X0037345Y0122388D01*
X0037530Y0122887D02*
X0040448Y0122887D01*
X0040350Y0123385D02*
X0037629Y0123385D01*
X0037650Y0123884D02*
X0040350Y0123884D01*
X0040350Y0124382D02*
X0037650Y0124382D01*
X0037650Y0124881D02*
X0040350Y0124881D01*
X0040350Y0125379D02*
X0037650Y0125379D01*
X0037650Y0125878D02*
X0040350Y0125878D01*
X0042655Y0064561D02*
X0032022Y0064561D01*
X0033104Y0044620D02*
X0042799Y0044620D01*
X0041910Y0044122D02*
X0033603Y0044122D01*
X0034101Y0043623D02*
X0041412Y0043623D01*
X0041026Y0043125D02*
X0034600Y0043125D01*
X0034750Y0042626D02*
X0040819Y0042626D01*
X0040613Y0042128D02*
X0034750Y0042128D01*
X0034750Y0041629D02*
X0040550Y0041629D01*
X0040550Y0041131D02*
X0034750Y0041131D01*
X0034750Y0040632D02*
X0040550Y0040632D01*
X0040712Y0040134D02*
X0034750Y0040134D01*
X0034750Y0039635D02*
X0040918Y0039635D01*
X0041151Y0039137D02*
X0034750Y0039137D01*
X0034750Y0038638D02*
X0041650Y0038638D01*
X0042171Y0038140D02*
X0034750Y0038140D01*
X0034750Y0034650D02*
X0042238Y0034650D01*
X0041740Y0034152D02*
X0034750Y0034152D01*
X0034750Y0033653D02*
X0041241Y0033653D01*
X0040743Y0033155D02*
X0034750Y0033155D01*
X0035343Y0024680D02*
X0006218Y0024680D01*
X0006218Y0024182D02*
X0034370Y0024182D01*
X0033871Y0023683D02*
X0006218Y0023683D01*
X0006218Y0023184D02*
X0033451Y0023184D01*
X0033244Y0022686D02*
X0006218Y0022686D01*
X0006218Y0022187D02*
X0033038Y0022187D01*
X0032950Y0021689D02*
X0006218Y0021689D01*
X0006218Y0021190D02*
X0013179Y0021190D01*
X0011976Y0020692D02*
X0006218Y0020692D01*
X0006218Y0020193D02*
X0010898Y0020193D01*
X0010399Y0019695D02*
X0006218Y0019695D01*
X0006218Y0019196D02*
X0009901Y0019196D01*
X0009402Y0018698D02*
X0006218Y0018698D01*
X0006218Y0018199D02*
X0008904Y0018199D01*
X0008513Y0017701D02*
X0006218Y0017701D01*
X0006218Y0017202D02*
X0008307Y0017202D01*
X0008100Y0016704D02*
X0006218Y0016704D01*
X0006218Y0016205D02*
X0007894Y0016205D01*
X0007687Y0015707D02*
X0006218Y0015707D01*
X0006218Y0015208D02*
X0007481Y0015208D01*
X0007293Y0014710D02*
X0006218Y0014710D01*
X0006218Y0014211D02*
X0007293Y0014211D01*
X0007293Y0013713D02*
X0006218Y0013713D01*
X0006218Y0013214D02*
X0007293Y0013214D01*
X0007293Y0012716D02*
X0006218Y0012716D01*
X0006218Y0012217D02*
X0007293Y0012217D01*
X0007293Y0011719D02*
X0006218Y0011719D01*
X0006218Y0011220D02*
X0007354Y0011220D01*
X0007560Y0010722D02*
X0006218Y0010722D01*
X0006218Y0010223D02*
X0007767Y0010223D01*
X0007973Y0009725D02*
X0006218Y0009725D01*
X0006218Y0009226D02*
X0008180Y0009226D01*
X0008386Y0008728D02*
X0006218Y0008728D01*
X0006218Y0008229D02*
X0008597Y0008229D01*
X0009096Y0007731D02*
X0006218Y0007731D01*
X0006218Y0007232D02*
X0009594Y0007232D01*
X0010093Y0006734D02*
X0006218Y0006734D01*
X0006218Y0006235D02*
X0010591Y0006235D01*
X0011236Y0005737D02*
X0006218Y0005737D01*
X0006218Y0005238D02*
X0012439Y0005238D01*
X0013643Y0004740D02*
X0006218Y0004740D01*
X0006218Y0004241D02*
X0092333Y0004241D01*
X0092333Y0003743D02*
X0006218Y0003743D01*
X0006218Y0028170D02*
X0041919Y0028170D01*
X0041420Y0028668D02*
X0029274Y0028668D01*
X0030265Y0029167D02*
X0040921Y0029167D01*
X0043630Y0024182D02*
X0064370Y0024182D01*
X0063871Y0023683D02*
X0044129Y0023683D01*
X0044549Y0023184D02*
X0063451Y0023184D01*
X0063244Y0022686D02*
X0044756Y0022686D01*
X0044962Y0022187D02*
X0063038Y0022187D01*
X0062950Y0021689D02*
X0045050Y0021689D01*
X0045050Y0021190D02*
X0062950Y0021190D01*
X0062950Y0020692D02*
X0045050Y0020692D01*
X0044913Y0020193D02*
X0063087Y0020193D01*
X0063293Y0019695D02*
X0044707Y0019695D01*
X0044500Y0019196D02*
X0063500Y0019196D01*
X0063990Y0018698D02*
X0044010Y0018698D01*
X0043511Y0018199D02*
X0064489Y0018199D01*
X0065630Y0017701D02*
X0042370Y0017701D01*
X0035630Y0017701D02*
X0023109Y0017701D01*
X0022719Y0018199D02*
X0034489Y0018199D01*
X0033990Y0018698D02*
X0022220Y0018698D01*
X0021721Y0019196D02*
X0033500Y0019196D01*
X0033293Y0019695D02*
X0021223Y0019695D01*
X0020724Y0020193D02*
X0033087Y0020193D01*
X0032950Y0020692D02*
X0019646Y0020692D01*
X0018443Y0021190D02*
X0032950Y0021190D01*
X0025970Y0028668D02*
X0006218Y0028668D01*
X0006218Y0029167D02*
X0024979Y0029167D01*
X0024481Y0029665D02*
X0006218Y0029665D01*
X0006218Y0030164D02*
X0023982Y0030164D01*
X0023723Y0030662D02*
X0006218Y0030662D01*
X0006218Y0031161D02*
X0023517Y0031161D01*
X0023310Y0031659D02*
X0006218Y0031659D01*
X0006218Y0032158D02*
X0023222Y0032158D01*
X0023222Y0032656D02*
X0006218Y0032656D01*
X0006218Y0033155D02*
X0023222Y0033155D01*
X0023236Y0033653D02*
X0006218Y0033653D01*
X0006218Y0034152D02*
X0023442Y0034152D01*
X0023649Y0034650D02*
X0006218Y0034650D01*
X0006218Y0035149D02*
X0023855Y0035149D01*
X0024301Y0035647D02*
X0006218Y0035647D01*
X0006218Y0036146D02*
X0024800Y0036146D01*
X0025537Y0036644D02*
X0006218Y0036644D01*
X0006218Y0037143D02*
X0024923Y0037143D01*
X0024379Y0037641D02*
X0006218Y0037641D01*
X0006218Y0038140D02*
X0023986Y0038140D01*
X0023694Y0038638D02*
X0006218Y0038638D01*
X0006218Y0039137D02*
X0023478Y0039137D01*
X0023324Y0039635D02*
X0006218Y0039635D01*
X0006218Y0040134D02*
X0023245Y0040134D01*
X0084554Y0047612D02*
X0086250Y0047612D01*
X0086250Y0048110D02*
X0085757Y0048110D01*
X0061250Y0239538D02*
X0060873Y0239538D01*
X0060940Y0243028D02*
X0061250Y0243028D01*
M02*
