G75*
%MOIN*%
%OFA0B0*%
%FSLAX25Y25*%
%IPPOS*%
%LPD*%
%AMOC8*
5,1,8,0,0,1.08239X$1,22.5*
%
%ADD10C,0.13398*%
%ADD11OC8,0.05600*%
%ADD12C,0.05600*%
%ADD13C,0.07099*%
D10*
X0013311Y0013311D03*
X0082209Y0013311D03*
X0082209Y0273154D03*
X0013311Y0273154D03*
D11*
X0036500Y0251500D03*
X0036500Y0241500D03*
X0041500Y0231500D03*
X0051500Y0231500D03*
X0056500Y0241500D03*
X0056500Y0251500D03*
X0036500Y0196500D03*
X0036500Y0186500D03*
X0036500Y0176500D03*
X0031500Y0166500D03*
X0021500Y0166500D03*
X0016500Y0176500D03*
X0016500Y0186500D03*
X0016500Y0196500D03*
X0041500Y0081500D03*
X0041500Y0031500D03*
X0061500Y0031500D03*
X0061500Y0081500D03*
X0071500Y0081500D03*
X0081500Y0081500D03*
X0076500Y0136500D03*
X0066500Y0136500D03*
X0066500Y0191500D03*
X0076500Y0191500D03*
D12*
X0084100Y0181500D02*
X0088900Y0181500D01*
X0088900Y0171500D02*
X0084100Y0171500D01*
X0084100Y0161500D02*
X0088900Y0161500D01*
X0088900Y0151500D02*
X0084100Y0151500D01*
X0084100Y0126500D02*
X0088900Y0126500D01*
X0088900Y0116500D02*
X0084100Y0116500D01*
X0084100Y0106500D02*
X0088900Y0106500D01*
X0088900Y0096500D02*
X0084100Y0096500D01*
X0081300Y0071500D02*
X0076500Y0071500D01*
X0076500Y0061500D02*
X0081300Y0061500D01*
X0081300Y0051500D02*
X0076500Y0051500D01*
X0076500Y0041500D02*
X0081300Y0041500D01*
X0068900Y0021500D02*
X0064100Y0021500D01*
X0046500Y0041500D02*
X0041700Y0041500D01*
X0041700Y0051500D02*
X0046500Y0051500D01*
X0046500Y0061500D02*
X0041700Y0061500D01*
X0041700Y0071500D02*
X0046500Y0071500D01*
X0043900Y0096500D02*
X0039100Y0096500D01*
X0039100Y0106500D02*
X0043900Y0106500D01*
X0043900Y0116500D02*
X0039100Y0116500D01*
X0039100Y0126500D02*
X0043900Y0126500D01*
X0043900Y0136500D02*
X0039100Y0136500D01*
X0039100Y0146500D02*
X0043900Y0146500D01*
X0043900Y0156500D02*
X0039100Y0156500D01*
X0054100Y0151500D02*
X0058900Y0151500D01*
X0058900Y0161500D02*
X0054100Y0161500D01*
X0054100Y0171500D02*
X0058900Y0171500D01*
X0058900Y0181500D02*
X0054100Y0181500D01*
X0054100Y0126500D02*
X0058900Y0126500D01*
X0058900Y0116500D02*
X0054100Y0116500D01*
X0054100Y0106500D02*
X0058900Y0106500D01*
X0058900Y0096500D02*
X0054100Y0096500D01*
X0038900Y0021500D02*
X0034100Y0021500D01*
X0013900Y0096500D02*
X0009100Y0096500D01*
X0009100Y0106500D02*
X0013900Y0106500D01*
X0013900Y0116500D02*
X0009100Y0116500D01*
X0009100Y0126500D02*
X0013900Y0126500D01*
X0013900Y0136500D02*
X0009100Y0136500D01*
X0009100Y0146500D02*
X0013900Y0146500D01*
X0013900Y0156500D02*
X0009100Y0156500D01*
D13*
X0025122Y0214098D03*
X0025122Y0221972D03*
X0025122Y0229846D03*
X0025122Y0245594D03*
X0025122Y0253469D03*
X0070398Y0253469D03*
X0070398Y0245594D03*
X0070398Y0237720D03*
X0070398Y0221972D03*
X0070398Y0214098D03*
X0025122Y0080240D03*
X0025122Y0072366D03*
X0025122Y0064492D03*
X0025122Y0056618D03*
X0025122Y0040870D03*
X0025122Y0032996D03*
M02*
